%TF.GenerationSoftware,KiCad,Pcbnew,9.0.2*%
%TF.CreationDate,2025-06-19T13:39:27-06:00*%
%TF.ProjectId,MPU_MOD,4d50555f-4d4f-4442-9e6b-696361645f70,rev?*%
%TF.SameCoordinates,Original*%
%TF.FileFunction,Copper,L8,Bot*%
%TF.FilePolarity,Positive*%
%FSLAX46Y46*%
G04 Gerber Fmt 4.6, Leading zero omitted, Abs format (unit mm)*
G04 Created by KiCad (PCBNEW 9.0.2) date 2025-06-19 13:39:27*
%MOMM*%
%LPD*%
G01*
G04 APERTURE LIST*
G04 Aperture macros list*
%AMRoundRect*
0 Rectangle with rounded corners*
0 $1 Rounding radius*
0 $2 $3 $4 $5 $6 $7 $8 $9 X,Y pos of 4 corners*
0 Add a 4 corners polygon primitive as box body*
4,1,4,$2,$3,$4,$5,$6,$7,$8,$9,$2,$3,0*
0 Add four circle primitives for the rounded corners*
1,1,$1+$1,$2,$3*
1,1,$1+$1,$4,$5*
1,1,$1+$1,$6,$7*
1,1,$1+$1,$8,$9*
0 Add four rect primitives between the rounded corners*
20,1,$1+$1,$2,$3,$4,$5,0*
20,1,$1+$1,$4,$5,$6,$7,0*
20,1,$1+$1,$6,$7,$8,$9,0*
20,1,$1+$1,$8,$9,$2,$3,0*%
%AMFreePoly0*
4,1,229,0.026192,1.103996,0.026383,1.103985,0.052383,1.101985,0.052573,1.101967,0.078573,1.098967,0.078944,1.098910,0.104944,1.093910,0.105167,1.093862,0.130167,1.087862,0.130300,1.087828,0.156300,1.080828,0.156756,1.080682,0.180756,1.071682,0.180923,1.071615,0.204923,1.061615,0.205083,1.061545,0.229083,1.050545,0.229460,1.050353,0.252460,1.037353,0.252684,1.037218,
0.296684,1.009218,0.297030,1.008977,0.318030,0.992977,0.318238,0.992810,0.338238,0.975810,0.338439,0.975630,0.357439,0.957630,0.357630,0.957439,0.375630,0.938439,0.375810,0.938238,0.392810,0.918238,0.392977,0.918030,0.408977,0.897030,0.409218,0.896684,0.437218,0.852684,0.437353,0.852460,0.450353,0.829460,0.450545,0.829083,0.461545,0.805083,0.461615,0.804923,
0.471615,0.780923,0.471682,0.780756,0.480682,0.756756,0.480828,0.756300,0.487828,0.730300,0.487862,0.730167,0.493862,0.705167,0.493910,0.704944,0.498910,0.678944,0.498967,0.678573,0.501967,0.652573,0.501985,0.652383,0.503985,0.626383,0.503996,0.626192,0.504996,0.600192,0.505000,0.600000,0.505000,-0.600000,0.504996,-0.600192,0.503996,-0.626192,0.503985,-0.626383,
0.501985,-0.652383,0.501967,-0.652573,0.498967,-0.678573,0.498910,-0.678944,0.493910,-0.704944,0.493862,-0.705167,0.487862,-0.730167,0.487828,-0.730300,0.480828,-0.756300,0.480682,-0.756756,0.471682,-0.780756,0.471615,-0.780923,0.461615,-0.804923,0.461545,-0.805083,0.450545,-0.829083,0.450353,-0.829460,0.437353,-0.852460,0.437218,-0.852684,0.409218,-0.896684,0.408977,-0.897030,
0.392977,-0.918030,0.392810,-0.918238,0.375810,-0.938238,0.375630,-0.938439,0.357630,-0.957439,0.357439,-0.957630,0.338439,-0.975630,0.338238,-0.975810,0.318238,-0.992810,0.318030,-0.992977,0.297030,-1.008977,0.296684,-1.009218,0.252684,-1.037218,0.252460,-1.037353,0.229460,-1.050353,0.229083,-1.050545,0.205083,-1.061545,0.204923,-1.061615,0.180923,-1.071615,0.180756,-1.071682,
0.156756,-1.080682,0.156300,-1.080828,0.130300,-1.087828,0.130167,-1.087862,0.105167,-1.093862,0.104944,-1.093910,0.078944,-1.098910,0.078573,-1.098967,0.052573,-1.101967,0.052383,-1.101985,0.026383,-1.103985,0.026192,-1.103996,0.000192,-1.104996,-0.000192,-1.104996,-0.026192,-1.103996,-0.026383,-1.103985,-0.052383,-1.101985,-0.052573,-1.101967,-0.078573,-1.098967,-0.078944,-1.098910,
-0.104944,-1.093910,-0.105167,-1.093862,-0.130167,-1.087862,-0.130300,-1.087828,-0.156300,-1.080828,-0.156756,-1.080682,-0.180756,-1.071682,-0.180923,-1.071615,-0.204923,-1.061615,-0.205083,-1.061545,-0.229083,-1.050545,-0.229460,-1.050353,-0.252460,-1.037353,-0.252684,-1.037218,-0.296684,-1.009218,-0.297030,-1.008977,-0.318030,-0.992977,-0.318238,-0.992810,-0.338238,-0.975810,-0.338439,-0.975630,
-0.357439,-0.957630,-0.357630,-0.957439,-0.375630,-0.938439,-0.375810,-0.938238,-0.392810,-0.918238,-0.392977,-0.918030,-0.408977,-0.897030,-0.409218,-0.896684,-0.437218,-0.852684,-0.437353,-0.852460,-0.450353,-0.829460,-0.450545,-0.829083,-0.461545,-0.805083,-0.461615,-0.804923,-0.471615,-0.780923,-0.471682,-0.780756,-0.480682,-0.756756,-0.480828,-0.756300,-0.487828,-0.730300,-0.487862,-0.730167,
-0.493862,-0.705167,-0.493910,-0.704944,-0.498910,-0.678944,-0.498967,-0.678573,-0.501967,-0.652573,-0.501985,-0.652383,-0.503985,-0.626383,-0.503996,-0.626192,-0.504996,-0.600192,-0.505000,-0.600000,-0.505000,0.600000,-0.504996,0.600192,-0.503996,0.626192,-0.503985,0.626383,-0.501985,0.652383,-0.501967,0.652573,-0.498967,0.678573,-0.498910,0.678944,-0.493910,0.704944,-0.493862,0.705167,
-0.487862,0.730167,-0.487828,0.730300,-0.480828,0.756300,-0.480682,0.756756,-0.471682,0.780756,-0.471615,0.780923,-0.461615,0.804923,-0.461545,0.805083,-0.450545,0.829083,-0.450353,0.829460,-0.437353,0.852460,-0.437218,0.852684,-0.409218,0.896684,-0.408977,0.897030,-0.392977,0.918030,-0.392810,0.918238,-0.375810,0.938238,-0.375630,0.938439,-0.357630,0.957439,-0.357439,0.957630,
-0.338439,0.975630,-0.338238,0.975810,-0.318238,0.992810,-0.318030,0.992977,-0.297030,1.008977,-0.296684,1.009218,-0.252684,1.037218,-0.252460,1.037353,-0.229460,1.050353,-0.229083,1.050545,-0.205083,1.061545,-0.204923,1.061615,-0.180923,1.071615,-0.180756,1.071682,-0.156756,1.080682,-0.156300,1.080828,-0.130300,1.087828,-0.130167,1.087862,-0.105167,1.093862,-0.104944,1.093910,
-0.078944,1.098910,-0.078573,1.098967,-0.052573,1.101967,-0.052383,1.101985,-0.026383,1.103985,-0.026192,1.103996,-0.000192,1.104996,0.000192,1.104996,0.026192,1.103996,0.026192,1.103996,$1*%
G04 Aperture macros list end*
%TA.AperFunction,ComponentPad*%
%ADD10C,0.900000*%
%TD*%
%TA.AperFunction,ComponentPad*%
%ADD11R,0.850000X0.850000*%
%TD*%
%TA.AperFunction,ComponentPad*%
%ADD12C,0.850000*%
%TD*%
%TA.AperFunction,ComponentPad*%
%ADD13O,1.000000X1.800000*%
%TD*%
%TA.AperFunction,ComponentPad*%
%ADD14FreePoly0,0.000000*%
%TD*%
%TA.AperFunction,ComponentPad*%
%ADD15C,0.499999*%
%TD*%
%TA.AperFunction,SMDPad,CuDef*%
%ADD16RoundRect,0.135000X-0.185000X0.135000X-0.185000X-0.135000X0.185000X-0.135000X0.185000X0.135000X0*%
%TD*%
%TA.AperFunction,SMDPad,CuDef*%
%ADD17RoundRect,0.135000X0.185000X-0.135000X0.185000X0.135000X-0.185000X0.135000X-0.185000X-0.135000X0*%
%TD*%
%TA.AperFunction,SMDPad,CuDef*%
%ADD18RoundRect,0.140000X0.170000X-0.140000X0.170000X0.140000X-0.170000X0.140000X-0.170000X-0.140000X0*%
%TD*%
%TA.AperFunction,SMDPad,CuDef*%
%ADD19RoundRect,0.135000X-0.135000X-0.185000X0.135000X-0.185000X0.135000X0.185000X-0.135000X0.185000X0*%
%TD*%
%TA.AperFunction,SMDPad,CuDef*%
%ADD20RoundRect,0.135000X0.135000X0.185000X-0.135000X0.185000X-0.135000X-0.185000X0.135000X-0.185000X0*%
%TD*%
%TA.AperFunction,SMDPad,CuDef*%
%ADD21RoundRect,0.140000X-0.170000X0.140000X-0.170000X-0.140000X0.170000X-0.140000X0.170000X0.140000X0*%
%TD*%
%TA.AperFunction,SMDPad,CuDef*%
%ADD22RoundRect,0.140000X-0.021213X0.219203X-0.219203X0.021213X0.021213X-0.219203X0.219203X-0.021213X0*%
%TD*%
%TA.AperFunction,SMDPad,CuDef*%
%ADD23RoundRect,0.140000X0.140000X0.170000X-0.140000X0.170000X-0.140000X-0.170000X0.140000X-0.170000X0*%
%TD*%
%TA.AperFunction,SMDPad,CuDef*%
%ADD24RoundRect,0.140000X-0.140000X-0.170000X0.140000X-0.170000X0.140000X0.170000X-0.140000X0.170000X0*%
%TD*%
%TA.AperFunction,SMDPad,CuDef*%
%ADD25RoundRect,0.140000X0.021213X-0.219203X0.219203X-0.021213X-0.021213X0.219203X-0.219203X0.021213X0*%
%TD*%
%TA.AperFunction,SMDPad,CuDef*%
%ADD26R,2.200000X1.150000*%
%TD*%
%TA.AperFunction,SMDPad,CuDef*%
%ADD27R,1.200000X1.150000*%
%TD*%
%TA.AperFunction,SMDPad,CuDef*%
%ADD28R,1.150000X1.500000*%
%TD*%
%TA.AperFunction,SMDPad,CuDef*%
%ADD29R,2.500000X1.150000*%
%TD*%
%TA.AperFunction,SMDPad,CuDef*%
%ADD30R,1.240000X0.800000*%
%TD*%
%TA.AperFunction,SMDPad,CuDef*%
%ADD31R,1.250000X1.150000*%
%TD*%
%TA.AperFunction,SMDPad,CuDef*%
%ADD32RoundRect,0.140000X0.219203X0.021213X0.021213X0.219203X-0.219203X-0.021213X-0.021213X-0.219203X0*%
%TD*%
%TA.AperFunction,ViaPad*%
%ADD33C,0.400000*%
%TD*%
%TA.AperFunction,Conductor*%
%ADD34C,0.200000*%
%TD*%
%TA.AperFunction,Conductor*%
%ADD35C,0.118400*%
%TD*%
%TA.AperFunction,Conductor*%
%ADD36C,0.114000*%
%TD*%
%TA.AperFunction,Conductor*%
%ADD37C,0.150000*%
%TD*%
%TA.AperFunction,Conductor*%
%ADD38C,0.144300*%
%TD*%
G04 APERTURE END LIST*
D10*
%TO.P,S601,2C*%
%TO.N,unconnected-(S601-Pad2C)*%
X69225000Y-54462500D03*
%TO.P,S601,2D*%
%TO.N,unconnected-(S601-Pad2D)*%
X69225000Y-58512500D03*
%TD*%
%TO.P,S605,2C*%
%TO.N,unconnected-(S605-Pad2C)*%
X69225000Y-36362500D03*
%TO.P,S605,2D*%
%TO.N,unconnected-(S605-Pad2D)*%
X69225000Y-40412500D03*
%TD*%
%TO.P,S701,2C*%
%TO.N,GND*%
X53052500Y-101860000D03*
%TO.P,S701,2D*%
X53052500Y-105910000D03*
%TD*%
%TO.P,S603,2C*%
%TO.N,unconnected-(S603-Pad2C)*%
X69225000Y-48362500D03*
%TO.P,S603,2D*%
%TO.N,unconnected-(S603-Pad2D)*%
X69225000Y-52412500D03*
%TD*%
D11*
%TO.P,BT201,1,+*%
%TO.N,+BATT*%
X71050000Y-87288207D03*
D12*
%TO.P,BT201,2,-*%
%TO.N,Net-(BT201--)*%
X70050000Y-87288207D03*
%TD*%
D10*
%TO.P,S602,2C*%
%TO.N,unconnected-(S602-Pad2C)*%
X69125000Y-30362500D03*
%TO.P,S602,2D*%
%TO.N,unconnected-(S602-Pad2D)*%
X69125000Y-34412500D03*
%TD*%
D11*
%TO.P,TH201,1*%
%TO.N,/PWR/BATT_T*%
X71050000Y-89588207D03*
D12*
%TO.P,TH201,2*%
%TO.N,GND*%
X70050000Y-89588207D03*
%TD*%
D13*
%TO.P,J801,SH1,SHIELD*%
%TO.N,GND*%
X86680000Y-95187500D03*
%TO.P,J801,SH2,SHIELD*%
X95320000Y-95187500D03*
D14*
%TO.P,J801,SH3,SHIELD*%
X86680000Y-99187500D03*
%TO.P,J801,SH4,SHIELD*%
X95320000Y-99187500D03*
%TD*%
D10*
%TO.P,S201,2C*%
%TO.N,GND*%
X44525000Y-114662500D03*
%TO.P,S201,2D*%
X44525000Y-118712500D03*
%TD*%
%TO.P,S604,2C*%
%TO.N,unconnected-(S604-Pad2C)*%
X69225000Y-42362500D03*
%TO.P,S604,2D*%
%TO.N,unconnected-(S604-Pad2D)*%
X69225000Y-46412500D03*
%TD*%
D15*
%TO.P,U3,V*%
%TO.N,N/C*%
X80100000Y-80800000D03*
X81200000Y-81900000D03*
X80100000Y-81900000D03*
X79000000Y-81900000D03*
X80100000Y-83000000D03*
%TD*%
D16*
%TO.P,R407,1*%
%TO.N,/DDR/DDR_A1*%
X104098415Y-74367400D03*
%TO.P,R407,2*%
%TO.N,VTT_DDR*%
X104098415Y-75387400D03*
%TD*%
D17*
%TO.P,R406,1*%
%TO.N,/DDR/DDR_A0*%
X103700000Y-63900000D03*
%TO.P,R406,2*%
%TO.N,VTT_DDR*%
X103700000Y-62880002D03*
%TD*%
D18*
%TO.P,C413,1*%
%TO.N,VTT_DDR*%
X107443415Y-61877400D03*
%TO.P,C413,2*%
%TO.N,GND*%
X107443415Y-60917400D03*
%TD*%
D19*
%TO.P,R509,1*%
%TO.N,SDMMC2_D0*%
X74403415Y-48147400D03*
%TO.P,R509,2*%
%TO.N,VDD*%
X75423415Y-48147400D03*
%TD*%
D17*
%TO.P,R504,1*%
%TO.N,SDMMC2_D5*%
X85723415Y-53087400D03*
%TO.P,R504,2*%
%TO.N,VDD*%
X85723415Y-52067400D03*
%TD*%
D20*
%TO.P,R508,1*%
%TO.N,SDMMC2_D1*%
X75393415Y-46897400D03*
%TO.P,R508,2*%
%TO.N,VDD*%
X74373415Y-46897400D03*
%TD*%
D16*
%TO.P,R502,1*%
%TO.N,SDMMC2_D7*%
X85703415Y-54117400D03*
%TO.P,R502,2*%
%TO.N,VDD*%
X85703415Y-55137400D03*
%TD*%
%TO.P,R505,1*%
%TO.N,SDMMC2_D4*%
X86703415Y-53637400D03*
%TO.P,R505,2*%
%TO.N,VDD*%
X86703415Y-54657400D03*
%TD*%
D21*
%TO.P,C411,1*%
%TO.N,VTT_DDR*%
X103513415Y-60817400D03*
%TO.P,C411,2*%
%TO.N,GND*%
X103513415Y-61777400D03*
%TD*%
D22*
%TO.P,C319,1*%
%TO.N,GND*%
X84778822Y-66521178D03*
%TO.P,C319,2*%
%TO.N,VDD_CORE*%
X84100000Y-67200000D03*
%TD*%
%TO.P,C317,1*%
%TO.N,GND*%
X80228822Y-67971178D03*
%TO.P,C317,2*%
%TO.N,VDD_CORE*%
X79550000Y-68650000D03*
%TD*%
D21*
%TO.P,C412,1*%
%TO.N,VTT_DDR*%
X101623415Y-76417400D03*
%TO.P,C412,2*%
%TO.N,GND*%
X101623415Y-77377400D03*
%TD*%
%TO.P,C327,1*%
%TO.N,/MPU_PWR/VDDA*%
X77300000Y-70740000D03*
%TO.P,C327,2*%
%TO.N,GND*%
X77300000Y-71700000D03*
%TD*%
D23*
%TO.P,C416,1*%
%TO.N,VTT_DDR*%
X111333415Y-70777400D03*
%TO.P,C416,2*%
%TO.N,GND*%
X110373415Y-70777400D03*
%TD*%
D21*
%TO.P,C323,1*%
%TO.N,GND*%
X85900000Y-64790000D03*
%TO.P,C323,2*%
%TO.N,VDD_DDR*%
X85900000Y-65750000D03*
%TD*%
D16*
%TO.P,R414,1*%
%TO.N,/DDR/DDR_A8*%
X96298415Y-74367400D03*
%TO.P,R414,2*%
%TO.N,VTT_DDR*%
X96298415Y-75387400D03*
%TD*%
D20*
%TO.P,R511,1*%
%TO.N,SDMMC2_CMD*%
X78303415Y-42917400D03*
%TO.P,R511,2*%
%TO.N,VDD*%
X77283415Y-42917400D03*
%TD*%
D17*
%TO.P,R424,1*%
%TO.N,/DDR/DDR_ODT*%
X106550000Y-63900000D03*
%TO.P,R424,2*%
%TO.N,VTT_DDR*%
X106550000Y-62880002D03*
%TD*%
%TO.P,R408,1*%
%TO.N,/DDR/DDR_A2*%
X101800000Y-63900000D03*
%TO.P,R408,2*%
%TO.N,VTT_DDR*%
X101800000Y-62880002D03*
%TD*%
D21*
%TO.P,C339,1*%
%TO.N,Net-(U301A-VREF+)*%
X74850000Y-72340000D03*
%TO.P,C339,2*%
%TO.N,GND*%
X74850000Y-73300000D03*
%TD*%
D16*
%TO.P,R430,1*%
%TO.N,/DDR/DDR_A15*%
X107073415Y-74357400D03*
%TO.P,R430,2*%
%TO.N,VTT_DDR*%
X107073415Y-75377400D03*
%TD*%
D20*
%TO.P,R403,1*%
%TO.N,/DDR/DDR_CLK_P*%
X105783415Y-71927400D03*
%TO.P,R403,2*%
%TO.N,/DDR/DDR_CLK_N*%
X104763415Y-71927400D03*
%TD*%
D21*
%TO.P,C417,1*%
%TO.N,VTT_DDR*%
X96753415Y-76417400D03*
%TO.P,C417,2*%
%TO.N,GND*%
X96753415Y-77377400D03*
%TD*%
%TO.P,C334,1*%
%TO.N,Net-(U301A-VDD1V2_DSI_PHY)*%
X86250000Y-61940000D03*
%TO.P,C334,2*%
%TO.N,GND*%
X86250000Y-62900000D03*
%TD*%
D22*
%TO.P,C305,1*%
%TO.N,GND*%
X83152944Y-66571178D03*
%TO.P,C305,2*%
%TO.N,VDD_CORE*%
X82474122Y-67250000D03*
%TD*%
D18*
%TO.P,C502,1*%
%TO.N,GND*%
X78503415Y-47677400D03*
%TO.P,C502,2*%
%TO.N,Net-(U1-VDD)*%
X78503415Y-46717400D03*
%TD*%
D16*
%TO.P,R422,1*%
%TO.N,/DDR/DDR_BA1*%
X102123415Y-74402400D03*
%TO.P,R422,2*%
%TO.N,VTT_DDR*%
X102123415Y-75422400D03*
%TD*%
%TO.P,R501,1*%
%TO.N,Net-(U1-CLK)*%
X81033415Y-56927400D03*
%TO.P,R501,2*%
%TO.N,SDMMC2_CK*%
X81033415Y-57947400D03*
%TD*%
D21*
%TO.P,C418,1*%
%TO.N,VTT_DDR*%
X98723415Y-76417400D03*
%TO.P,C418,2*%
%TO.N,GND*%
X98723415Y-77377400D03*
%TD*%
D16*
%TO.P,R418,1*%
%TO.N,/DDR/DDR_A12*%
X106073415Y-74357400D03*
%TO.P,R418,2*%
%TO.N,VTT_DDR*%
X106073415Y-75377400D03*
%TD*%
D18*
%TO.P,C511,1*%
%TO.N,GND*%
X77473415Y-48707400D03*
%TO.P,C511,2*%
%TO.N,3V3*%
X77473415Y-47747400D03*
%TD*%
D23*
%TO.P,C510,1*%
%TO.N,GND*%
X86013415Y-47917400D03*
%TO.P,C510,2*%
%TO.N,VDD*%
X85053415Y-47917400D03*
%TD*%
D18*
%TO.P,C316,1*%
%TO.N,GND*%
X84450000Y-74160000D03*
%TO.P,C316,2*%
%TO.N,VDD_CORE*%
X84450000Y-73200000D03*
%TD*%
%TO.P,C335,1*%
%TO.N,VDD_USB*%
X85650000Y-76100000D03*
%TO.P,C335,2*%
%TO.N,GND*%
X85650000Y-75140000D03*
%TD*%
D16*
%TO.P,R416,1*%
%TO.N,/DDR/DDR_A10*%
X105098415Y-74367400D03*
%TO.P,R416,2*%
%TO.N,VTT_DDR*%
X105098415Y-75387400D03*
%TD*%
D18*
%TO.P,C506,1*%
%TO.N,VDD*%
X79583415Y-51687400D03*
%TO.P,C506,2*%
%TO.N,GND*%
X79583415Y-50727400D03*
%TD*%
D22*
%TO.P,C309,1*%
%TO.N,GND*%
X78778822Y-66121178D03*
%TO.P,C309,2*%
%TO.N,VDD_CORE*%
X78100000Y-66800000D03*
%TD*%
D24*
%TO.P,C336,1*%
%TO.N,Net-(U301A-VDDA1V1_REG)*%
X82300000Y-75650000D03*
%TO.P,C336,2*%
%TO.N,GND*%
X83260000Y-75650000D03*
%TD*%
D25*
%TO.P,C301,1*%
%TO.N,GND*%
X78221178Y-69978822D03*
%TO.P,C301,2*%
%TO.N,VDD*%
X78900000Y-69300000D03*
%TD*%
D16*
%TO.P,R410,1*%
%TO.N,/DDR/DDR_A4*%
X98273415Y-74367400D03*
%TO.P,R410,2*%
%TO.N,VTT_DDR*%
X98273415Y-75387400D03*
%TD*%
D26*
%TO.P,J501,G1,GND*%
%TO.N,GND*%
X110980000Y-41510000D03*
D27*
%TO.P,J501,G2,GND*%
X99830000Y-41910000D03*
D28*
%TO.P,J501,G3,GND*%
X98705000Y-43715000D03*
%TO.P,J501,G4,GND*%
X98705000Y-51495000D03*
D26*
%TO.P,J501,G5,GND*%
X99500000Y-55800000D03*
D29*
%TO.P,J501,G6,GND*%
X110830000Y-55800000D03*
D30*
%TO.P,J501,P1,DAT2*%
%TO.N,SDMMC1_D2*%
X111460000Y-51555000D03*
%TO.P,J501,P2,CD/DAT3*%
%TO.N,SDMMC1_D3*%
X111460000Y-50455000D03*
%TO.P,J501,P3,CMD*%
%TO.N,SDMMC1_CMD*%
X111460000Y-49355000D03*
%TO.P,J501,P4,VDD*%
%TO.N,3V3*%
X111460000Y-48255000D03*
%TO.P,J501,P5,CLK*%
%TO.N,SDMMC1_CK*%
X111460000Y-47155000D03*
%TO.P,J501,P6,VSS*%
%TO.N,GND*%
X111460000Y-46055000D03*
%TO.P,J501,P7,DAT0*%
%TO.N,SDMMC1_D0*%
X111460000Y-44955000D03*
%TO.P,J501,P8,DAT1*%
%TO.N,SDMMC1_D1*%
X111460000Y-43855000D03*
D31*
%TO.P,J501,SW,SWITCH*%
%TO.N,Net-(J501-SWITCH)*%
X108830000Y-41910000D03*
%TD*%
D17*
%TO.P,R503,1*%
%TO.N,SDMMC2_D6*%
X86673415Y-52517400D03*
%TO.P,R503,2*%
%TO.N,VDD*%
X86673415Y-51497400D03*
%TD*%
D22*
%TO.P,C315,1*%
%TO.N,GND*%
X83128822Y-68071178D03*
%TO.P,C315,2*%
%TO.N,VDD_CORE*%
X82450000Y-68750000D03*
%TD*%
D23*
%TO.P,C329,1*%
%TO.N,GND*%
X72650000Y-62350000D03*
%TO.P,C329,2*%
%TO.N,VDD*%
X71690000Y-62350000D03*
%TD*%
D16*
%TO.P,R426,1*%
%TO.N,/DDR/DDR_CKE*%
X101148415Y-74392400D03*
%TO.P,R426,2*%
%TO.N,VTT_DDR*%
X101148415Y-75412400D03*
%TD*%
D18*
%TO.P,C414,1*%
%TO.N,VTT_DDR*%
X105473415Y-61877400D03*
%TO.P,C414,2*%
%TO.N,GND*%
X105473415Y-60917400D03*
%TD*%
D17*
%TO.P,R423,1*%
%TO.N,/DDR/DDR_BA2*%
X105600000Y-63900000D03*
%TO.P,R423,2*%
%TO.N,VTT_DDR*%
X105600000Y-62880002D03*
%TD*%
D21*
%TO.P,C324,1*%
%TO.N,GND*%
X85900000Y-72200000D03*
%TO.P,C324,2*%
%TO.N,VDD_DDR*%
X85900000Y-73160000D03*
%TD*%
%TO.P,C410,1*%
%TO.N,VTT_DDR*%
X101543415Y-60817400D03*
%TO.P,C410,2*%
%TO.N,GND*%
X101543415Y-61777400D03*
%TD*%
D17*
%TO.P,R419,1*%
%TO.N,/DDR/DDR_A13*%
X98950000Y-63900000D03*
%TO.P,R419,2*%
%TO.N,VTT_DDR*%
X98950000Y-62880002D03*
%TD*%
D16*
%TO.P,R404,1*%
%TO.N,GND*%
X100198415Y-73367400D03*
%TO.P,R404,2*%
%TO.N,/DDR/DDR_CKE*%
X100198415Y-74387400D03*
%TD*%
D24*
%TO.P,C338,1*%
%TO.N,Net-(U301A-VDDA1V8_DSI)*%
X82340000Y-74700000D03*
%TO.P,C338,2*%
%TO.N,GND*%
X83300000Y-74700000D03*
%TD*%
%TO.P,C514,1*%
%TO.N,GND*%
X77523415Y-55877400D03*
%TO.P,C514,2*%
%TO.N,VDD*%
X78483415Y-55877400D03*
%TD*%
D18*
%TO.P,C503,1*%
%TO.N,GND*%
X79523415Y-48667400D03*
%TO.P,C503,2*%
%TO.N,3V3*%
X79523415Y-47707400D03*
%TD*%
D23*
%TO.P,C330,1*%
%TO.N,VDD*%
X77210000Y-68550000D03*
%TO.P,C330,2*%
%TO.N,GND*%
X76250000Y-68550000D03*
%TD*%
D18*
%TO.P,C512,1*%
%TO.N,GND*%
X83563415Y-48617400D03*
%TO.P,C512,2*%
%TO.N,3V3*%
X83563415Y-47657400D03*
%TD*%
D21*
%TO.P,C322,1*%
%TO.N,GND*%
X85900000Y-66640000D03*
%TO.P,C322,2*%
%TO.N,VDD_DDR*%
X85900000Y-67600000D03*
%TD*%
D16*
%TO.P,R510,1*%
%TO.N,SDMMC2_NRST*%
X74153415Y-57577400D03*
%TO.P,R510,2*%
%TO.N,VDD*%
X74153415Y-58597400D03*
%TD*%
D20*
%TO.P,R507,1*%
%TO.N,SDMMC2_D2*%
X75393415Y-44907400D03*
%TO.P,R507,2*%
%TO.N,VDD*%
X74373415Y-44907400D03*
%TD*%
D24*
%TO.P,C328,1*%
%TO.N,VDD*%
X76250000Y-69500000D03*
%TO.P,C328,2*%
%TO.N,GND*%
X77210000Y-69500000D03*
%TD*%
D17*
%TO.P,R409,1*%
%TO.N,/DDR/DDR_A3*%
X102750000Y-63900000D03*
%TO.P,R409,2*%
%TO.N,VTT_DDR*%
X102750000Y-62880002D03*
%TD*%
D21*
%TO.P,C427,1*%
%TO.N,GND*%
X107673415Y-71597400D03*
%TO.P,C427,2*%
%TO.N,VDD_DDR*%
X107673415Y-72557400D03*
%TD*%
D25*
%TO.P,C331,1*%
%TO.N,VDD*%
X83750000Y-65950000D03*
%TO.P,C331,2*%
%TO.N,GND*%
X84428822Y-65271178D03*
%TD*%
D21*
%TO.P,C505,1*%
%TO.N,3V3*%
X81443415Y-47727400D03*
%TO.P,C505,2*%
%TO.N,GND*%
X81443415Y-48687400D03*
%TD*%
D22*
%TO.P,C314,1*%
%TO.N,GND*%
X83978822Y-64121178D03*
%TO.P,C314,2*%
%TO.N,VDD_CORE*%
X83300000Y-64800000D03*
%TD*%
D16*
%TO.P,R412,1*%
%TO.N,/DDR/DDR_A6*%
X97288415Y-74377400D03*
%TO.P,R412,2*%
%TO.N,VTT_DDR*%
X97288415Y-75397400D03*
%TD*%
D17*
%TO.P,R415,1*%
%TO.N,/DDR/DDR_A9*%
X99900000Y-63919998D03*
%TO.P,R415,2*%
%TO.N,VTT_DDR*%
X99900000Y-62900000D03*
%TD*%
D23*
%TO.P,C303,1*%
%TO.N,GND*%
X81510000Y-72966291D03*
%TO.P,C303,2*%
%TO.N,VDD*%
X80550000Y-72966291D03*
%TD*%
D22*
%TO.P,C308,1*%
%TO.N,GND*%
X84728822Y-68171178D03*
%TO.P,C308,2*%
%TO.N,VDD_CORE*%
X84050000Y-68850000D03*
%TD*%
D21*
%TO.P,C507,1*%
%TO.N,VDD*%
X82533415Y-52717400D03*
%TO.P,C507,2*%
%TO.N,GND*%
X82533415Y-53677400D03*
%TD*%
%TO.P,C408,1*%
%TO.N,VTT_DDR*%
X105603415Y-76487400D03*
%TO.P,C408,2*%
%TO.N,GND*%
X105603415Y-77447400D03*
%TD*%
D18*
%TO.P,C509,1*%
%TO.N,Net-(U1-VDD)*%
X78523415Y-45767400D03*
%TO.P,C509,2*%
%TO.N,GND*%
X78523415Y-44807400D03*
%TD*%
D21*
%TO.P,C409,1*%
%TO.N,VTT_DDR*%
X99573415Y-60817400D03*
%TO.P,C409,2*%
%TO.N,GND*%
X99573415Y-61777400D03*
%TD*%
%TO.P,C415,1*%
%TO.N,VTT_DDR*%
X107423415Y-76517400D03*
%TO.P,C415,2*%
%TO.N,GND*%
X107423415Y-77477400D03*
%TD*%
D18*
%TO.P,C333,1*%
%TO.N,Net-(U301A-VREF+)*%
X74850000Y-71050000D03*
%TO.P,C333,2*%
%TO.N,GND*%
X74850000Y-70090000D03*
%TD*%
D17*
%TO.P,R421,1*%
%TO.N,/DDR/DDR_BA0*%
X104650000Y-63900000D03*
%TO.P,R421,2*%
%TO.N,VTT_DDR*%
X104650000Y-62880002D03*
%TD*%
D19*
%TO.P,R428,1*%
%TO.N,/DDR/DDR_RASN*%
X109750000Y-68225000D03*
%TO.P,R428,2*%
%TO.N,VTT_DDR*%
X110769998Y-68225000D03*
%TD*%
D22*
%TO.P,C312,1*%
%TO.N,GND*%
X82428822Y-64121178D03*
%TO.P,C312,2*%
%TO.N,VDD_CORE*%
X81750000Y-64800000D03*
%TD*%
D17*
%TO.P,R411,1*%
%TO.N,/DDR/DDR_A5*%
X100850000Y-63900000D03*
%TO.P,R411,2*%
%TO.N,VTT_DDR*%
X100850000Y-62880002D03*
%TD*%
%TO.P,R425,1*%
%TO.N,/DDR/DDR_CSN*%
X107500000Y-63900000D03*
%TO.P,R425,2*%
%TO.N,VTT_DDR*%
X107500000Y-62880002D03*
%TD*%
D21*
%TO.P,C325,1*%
%TO.N,GND*%
X85300000Y-62700000D03*
%TO.P,C325,2*%
%TO.N,VDD_DDR*%
X85300000Y-63660000D03*
%TD*%
%TO.P,C326,1*%
%TO.N,/MPU_PWR/VDDA*%
X75850000Y-70740000D03*
%TO.P,C326,2*%
%TO.N,GND*%
X75850000Y-71700000D03*
%TD*%
D17*
%TO.P,R512,1*%
%TO.N,NRST*%
X75123415Y-58617400D03*
%TO.P,R512,2*%
%TO.N,SDMMC2_NRST*%
X75123415Y-57597400D03*
%TD*%
D25*
%TO.P,C313,1*%
%TO.N,GND*%
X80950000Y-68850000D03*
%TO.P,C313,2*%
%TO.N,VDD_CORE*%
X81628822Y-68171178D03*
%TD*%
D22*
%TO.P,C311,1*%
%TO.N,GND*%
X80825121Y-65730042D03*
%TO.P,C311,2*%
%TO.N,VDD_CORE*%
X80146299Y-66408864D03*
%TD*%
D21*
%TO.P,C320,1*%
%TO.N,GND*%
X85900000Y-70340000D03*
%TO.P,C320,2*%
%TO.N,VDD_DDR*%
X85900000Y-71300000D03*
%TD*%
D25*
%TO.P,C304,1*%
%TO.N,GND*%
X77726057Y-72829106D03*
%TO.P,C304,2*%
%TO.N,VDD*%
X78404879Y-72150284D03*
%TD*%
D16*
%TO.P,R417,1*%
%TO.N,/DDR/DDR_A11*%
X103098415Y-74377400D03*
%TO.P,R417,2*%
%TO.N,VTT_DDR*%
X103098415Y-75397400D03*
%TD*%
D23*
%TO.P,C513,1*%
%TO.N,GND*%
X83643415Y-55817400D03*
%TO.P,C513,2*%
%TO.N,VDD*%
X82683415Y-55817400D03*
%TD*%
%TO.P,C302,1*%
%TO.N,GND*%
X83350000Y-72966291D03*
%TO.P,C302,2*%
%TO.N,VDD*%
X82390000Y-72966291D03*
%TD*%
D19*
%TO.P,R427,1*%
%TO.N,/DDR/DDR_CASN*%
X109750000Y-67250000D03*
%TO.P,R427,2*%
%TO.N,VTT_DDR*%
X110769998Y-67250000D03*
%TD*%
D21*
%TO.P,C407,1*%
%TO.N,VTT_DDR*%
X103633415Y-76487400D03*
%TO.P,C407,2*%
%TO.N,GND*%
X103633415Y-77447400D03*
%TD*%
%TO.P,C337,1*%
%TO.N,Net-(U301A-VDDA1V8_DSI)*%
X83200000Y-62390000D03*
%TO.P,C337,2*%
%TO.N,GND*%
X83200000Y-63350000D03*
%TD*%
D22*
%TO.P,C307,1*%
%TO.N,GND*%
X83940380Y-70650000D03*
%TO.P,C307,2*%
%TO.N,VDD_CORE*%
X83261558Y-71328822D03*
%TD*%
D21*
%TO.P,C321,1*%
%TO.N,GND*%
X85900000Y-68490000D03*
%TO.P,C321,2*%
%TO.N,VDD_DDR*%
X85900000Y-69450000D03*
%TD*%
D19*
%TO.P,R429,1*%
%TO.N,/DDR/DDR_WEN*%
X109750000Y-66275000D03*
%TO.P,R429,2*%
%TO.N,VTT_DDR*%
X110769998Y-66275000D03*
%TD*%
D20*
%TO.P,R506,1*%
%TO.N,SDMMC2_D3*%
X75393415Y-42917400D03*
%TO.P,R506,2*%
%TO.N,VDD*%
X74373415Y-42917400D03*
%TD*%
D32*
%TO.P,C306,1*%
%TO.N,GND*%
X79450000Y-65500000D03*
%TO.P,C306,2*%
%TO.N,VDD_CORE*%
X78771178Y-64821178D03*
%TD*%
D23*
%TO.P,C504,1*%
%TO.N,GND*%
X78483415Y-52617400D03*
%TO.P,C504,2*%
%TO.N,VDD*%
X77523415Y-52617400D03*
%TD*%
D16*
%TO.P,R420,1*%
%TO.N,/DDR/DDR_A14*%
X99223415Y-74367400D03*
%TO.P,R420,2*%
%TO.N,VTT_DDR*%
X99223415Y-75387400D03*
%TD*%
D25*
%TO.P,C318,1*%
%TO.N,GND*%
X80921708Y-70424759D03*
%TO.P,C318,2*%
%TO.N,VDD_CORE*%
X81600530Y-69745937D03*
%TD*%
D22*
%TO.P,C310,1*%
%TO.N,GND*%
X82428822Y-65721178D03*
%TO.P,C310,2*%
%TO.N,VDD_CORE*%
X81750000Y-66400000D03*
%TD*%
D17*
%TO.P,R413,1*%
%TO.N,/DDR/DDR_A7*%
X97950000Y-63900000D03*
%TO.P,R413,2*%
%TO.N,VTT_DDR*%
X97950000Y-62880002D03*
%TD*%
D33*
%TO.N,GND*%
X81273008Y-72476992D03*
X76350000Y-89283207D03*
X85273007Y-68476993D03*
X79698007Y-69301993D03*
X70750000Y-91088207D03*
X85273008Y-70076992D03*
X80850000Y-88375707D03*
X83648007Y-70051993D03*
X75450000Y-89283207D03*
X69350000Y-95713207D03*
X77250000Y-89283207D03*
X82898007Y-69301993D03*
X78073008Y-69276992D03*
X70450000Y-91488207D03*
X81298007Y-69301993D03*
X70150000Y-91888207D03*
X76350000Y-88500707D03*
X78873007Y-66876993D03*
X84750000Y-95388207D03*
X78923007Y-71726993D03*
X83748007Y-71751993D03*
X85273007Y-65276993D03*
X78150000Y-89283207D03*
X74550000Y-88500707D03*
X80150000Y-88888207D03*
X80473007Y-68476993D03*
X78898008Y-70101992D03*
X83150000Y-89288207D03*
X81273007Y-66076993D03*
X80448007Y-70051993D03*
X77122500Y-100178207D03*
X72650000Y-88500707D03*
X84750000Y-96788207D03*
X79350000Y-88375707D03*
X78022500Y-100178207D03*
X78150000Y-88500707D03*
X72675000Y-89283207D03*
X70150000Y-91088207D03*
X79600000Y-66000000D03*
X77273007Y-65276993D03*
X78073007Y-67676993D03*
X82848007Y-70851993D03*
X79673008Y-70876992D03*
X71050000Y-95388207D03*
X84473007Y-72476993D03*
X83750000Y-89288207D03*
X77300000Y-72500000D03*
X70150000Y-96188207D03*
X83625000Y-94688207D03*
X78048007Y-70851993D03*
X82350000Y-89013207D03*
X76500000Y-71700000D03*
X73650000Y-88500707D03*
X78898007Y-68501993D03*
X84428822Y-65271178D03*
X69350000Y-91513207D03*
X70750000Y-91888207D03*
X84750000Y-94688207D03*
X79648007Y-72451993D03*
X83648007Y-68451993D03*
X78073007Y-64476993D03*
X77250000Y-88500707D03*
X76122500Y-100178207D03*
X82073007Y-71676993D03*
X83150000Y-88500707D03*
X71050000Y-96188207D03*
X71575000Y-91588207D03*
X73650000Y-89283207D03*
X83750000Y-88500707D03*
X81273007Y-70876993D03*
X85273007Y-66876993D03*
X77273007Y-70076993D03*
X84548008Y-69351992D03*
X77998007Y-66001993D03*
X84500000Y-89038207D03*
X77298007Y-71701993D03*
X81198007Y-67601993D03*
X84750000Y-95988207D03*
X74550000Y-89283207D03*
X85248008Y-71651992D03*
X70150000Y-95388207D03*
X79698007Y-67701993D03*
X80050000Y-87900707D03*
X80498007Y-66901993D03*
X75450000Y-88500707D03*
X71775000Y-95788207D03*
X70550000Y-95788207D03*
X80448008Y-71651992D03*
X82873007Y-72476993D03*
%TO.N,VDD_USB*%
X77122500Y-99218207D03*
X77250000Y-98688207D03*
%TO.N,VDDA*%
X75450000Y-90243207D03*
%TO.N,3V3*%
X69050000Y-93788207D03*
X69550000Y-94788207D03*
X73650000Y-90243207D03*
X69050000Y-94788207D03*
X69350000Y-93063207D03*
X69550000Y-93788207D03*
X75225000Y-91888207D03*
X69550000Y-94288207D03*
X69050000Y-94288207D03*
X70050000Y-94288207D03*
X74887500Y-91550707D03*
X70050000Y-94788207D03*
X70050000Y-93788207D03*
%TO.N,VIN*%
X80825000Y-92613207D03*
X76122500Y-99218207D03*
X74150000Y-92188207D03*
X73125000Y-91588207D03*
X80850000Y-92138207D03*
X76350000Y-90243207D03*
X82350000Y-90563207D03*
X76150000Y-98688207D03*
X74150000Y-92688207D03*
%TO.N,VTT_DDR*%
X79350000Y-90013207D03*
X78950000Y-90488207D03*
%TO.N,VREF_DDR*%
X78150000Y-90243207D03*
%TO.N,VDD_DDR*%
X85273007Y-70876993D03*
X85273007Y-72476993D03*
X85250000Y-90488207D03*
X80225000Y-90438207D03*
X80612500Y-90050707D03*
X85298008Y-66101992D03*
X85300000Y-64500000D03*
X83450000Y-91688207D03*
X83450000Y-90688207D03*
X85273007Y-67676993D03*
X84500000Y-90488207D03*
X83450000Y-90188207D03*
X83450000Y-91188207D03*
X85273007Y-69276993D03*
%TO.N,VDD_CORE*%
X80750000Y-95598207D03*
X83675407Y-65275407D03*
X83648007Y-67651993D03*
X82073008Y-69276992D03*
X79650000Y-64500000D03*
X82098007Y-67701993D03*
X82898008Y-70101992D03*
X77275407Y-66875407D03*
X81850000Y-99488207D03*
X83850000Y-99488207D03*
X81273007Y-65276993D03*
X84450000Y-71650000D03*
X84350000Y-99488207D03*
X84850000Y-99488207D03*
X76550000Y-65350000D03*
X77273007Y-66076993D03*
X80423007Y-69226993D03*
X83350000Y-99488207D03*
X79673007Y-66876993D03*
X81248007Y-66851993D03*
X78100000Y-65300000D03*
X82073007Y-70876993D03*
X78848007Y-67651993D03*
X82850000Y-99488207D03*
X82350000Y-99488207D03*
X82873007Y-71676993D03*
X82848007Y-65251993D03*
X83648007Y-69251993D03*
X83673007Y-72476993D03*
%TO.N,VDD*%
X79673008Y-71676992D03*
X69550000Y-98488207D03*
X78873007Y-69276993D03*
X81298007Y-71701993D03*
X83700000Y-66100000D03*
X69550000Y-98988207D03*
X69350000Y-97263207D03*
X69050000Y-98488207D03*
X78073007Y-70076993D03*
X78675000Y-98813207D03*
X69550000Y-97988207D03*
X78098008Y-71701992D03*
X78873008Y-72476992D03*
X79673007Y-70076993D03*
X78873008Y-70876992D03*
X82073007Y-72476993D03*
X80448007Y-70851993D03*
X69050000Y-98988207D03*
X69050000Y-97988207D03*
X78073007Y-68476993D03*
X70050000Y-97988207D03*
X70050000Y-98488207D03*
X80448008Y-72451992D03*
X70050000Y-98988207D03*
%TO.N,NRST*%
X80075000Y-100198207D03*
%TO.N,PWR_SW_WAKE_UP*%
X77725000Y-90888207D03*
%TO.N,PWR_ON*%
X78975000Y-99938207D03*
%TO.N,/DDR/DDR_A9*%
X98050000Y-65950000D03*
X86900000Y-66050000D03*
%TO.N,PMIC_PA0_WKUP_INTR*%
X78775000Y-99363207D03*
%TO.N,/DDR/DDR_DQ1*%
X106883415Y-66777400D03*
X90963415Y-61627400D03*
%TO.N,/DDR/DDR_DQ4*%
X89350000Y-65750000D03*
X106893415Y-71597400D03*
%TO.N,/DDR/DDR_A7*%
X86900000Y-64450000D03*
X97300000Y-64750000D03*
%TO.N,/DDR/DDR_DQ7*%
X108293415Y-67747400D03*
X90600000Y-62000000D03*
%TO.N,/DDR/DDR_A5*%
X98850000Y-66000000D03*
X86900000Y-66900000D03*
%TO.N,/DDR/DDR_A4*%
X87698415Y-72452400D03*
X98098415Y-72627400D03*
%TO.N,/DDR/DDR_BA0*%
X100473415Y-65977400D03*
X89500000Y-66350000D03*
%TO.N,/DDR/DDR_A1*%
X98873415Y-70737400D03*
X86873415Y-70077400D03*
%TO.N,/DDR/DDR_A6*%
X97250000Y-73550000D03*
X86898415Y-71702400D03*
%TO.N,/DDR/DDR_DQ6*%
X106003415Y-69917400D03*
X89400000Y-64025000D03*
%TO.N,/DDR/DDR_WEN*%
X100875000Y-67767400D03*
X86883415Y-68467400D03*
%TO.N,/DDR/DDR_A14*%
X87673415Y-71627400D03*
X95650000Y-72400000D03*
%TO.N,/DDR/DDR_DQM0*%
X106083415Y-67637400D03*
X90125000Y-62400000D03*
%TO.N,/DDR/DDR_RASN*%
X88493415Y-69237400D03*
X102063415Y-67627400D03*
%TO.N,/DDR/DDR_A0*%
X99700000Y-66800000D03*
X88500000Y-66850000D03*
%TO.N,SYS_I2C4_SCL*%
X81150000Y-95988207D03*
%TO.N,/DDR/DDR_DQ2*%
X89350000Y-64575000D03*
X108453415Y-70777400D03*
%TO.N,/DDR/DDR_DQS0_P*%
X89500000Y-63225000D03*
X107233415Y-69657400D03*
%TO.N,/DDR/DDR_CSN*%
X101263415Y-66767400D03*
X87683415Y-67647400D03*
%TO.N,/DDR/DDR_A13*%
X96650000Y-64800000D03*
X86900000Y-65300000D03*
%TO.N,/DDR/DDR_DQS0_N*%
X89700000Y-62700000D03*
X107643415Y-69957400D03*
%TO.N,/DDR/DDR_CLK_N*%
X102048415Y-69952400D03*
X90100000Y-68800000D03*
%TO.N,/DDR/DDR_DQ3*%
X106873415Y-65977400D03*
X91403415Y-61007400D03*
%TO.N,/DDR/DDR_A10*%
X89398415Y-70452400D03*
X100453415Y-70797400D03*
%TO.N,/DDR/DDR_A3*%
X99700000Y-66000000D03*
X88500000Y-66100000D03*
%TO.N,SYS_I2C4_SDA*%
X80750000Y-96388207D03*
%TO.N,/DDR/DDR_CASN*%
X87703415Y-68477400D03*
X101425000Y-67750000D03*
%TO.N,/DDR/DDR_A8*%
X96298415Y-73550000D03*
X86873415Y-73277400D03*
%TO.N,/DDR/DDR_ODT*%
X89500000Y-67100000D03*
X101273415Y-65977400D03*
%TO.N,/DDR/DDR_A12*%
X87673415Y-70087400D03*
X99675000Y-70775000D03*
%TO.N,/DDR/DDR_A11*%
X88498415Y-70877400D03*
X95925000Y-71175000D03*
%TO.N,/DDR/DDR_CLK_P*%
X90450000Y-69200000D03*
X102073415Y-70777400D03*
%TO.N,/DDR/DDR_BA2*%
X100503415Y-66747400D03*
X86833415Y-67637400D03*
%TO.N,/DDR/DDR_DQ5*%
X89500000Y-65150000D03*
X107743415Y-70847400D03*
%TO.N,/DDR/DDR_CKE*%
X100873415Y-72927400D03*
X89500000Y-72127400D03*
%TO.N,/DDR/DDR_DQ0*%
X108483415Y-65957400D03*
X90223415Y-60497400D03*
%TO.N,/DDR/DDR_BA1*%
X98873415Y-71567400D03*
X87673415Y-70902400D03*
%TO.N,/DDR/DDR_A2*%
X87650000Y-66850000D03*
X98850000Y-66750000D03*
%TO.N,PMIC_WAKEUP*%
X81150000Y-96788207D03*
%TO.N,SDMMC2_NRST*%
X79593415Y-53687400D03*
%TO.N,SDMMC2_D2*%
X78913415Y-61307400D03*
X77593415Y-50837400D03*
%TO.N,SDMMC2_D3*%
X78513415Y-54697400D03*
X80493415Y-62057400D03*
%TO.N,SDMMC2_D4*%
X79703415Y-62107400D03*
X82543415Y-54687400D03*
%TO.N,SDMMC2_D5*%
X83033415Y-51707400D03*
X79703415Y-62887400D03*
%TO.N,SDMMC2_D6*%
X78913415Y-62857400D03*
X84043415Y-54707400D03*
%TO.N,SDMMC2_D7*%
X78103415Y-62867400D03*
X83543415Y-51177400D03*
%TO.N,SDMMC2_D1*%
X77043415Y-54717400D03*
X79523415Y-61127400D03*
%TO.N,SDMMC2_D0*%
X80503415Y-62897400D03*
X77493415Y-51667400D03*
%TO.N,SDMMC2_CK*%
X80983415Y-58677400D03*
%TO.N,Net-(U203-LDO1OUT)*%
X72675000Y-90243207D03*
%TO.N,Net-(U203-LDO2OUT)*%
X77250000Y-90243207D03*
%TO.N,Net-(U203-LDO6OUT)*%
X74550000Y-90243207D03*
%TO.N,Net-(U301A-VREF+)*%
X74850000Y-71700000D03*
%TO.N,/DDR/DDR_A15*%
X86650000Y-69100000D03*
%TO.N,Net-(U1-CLK)*%
X81023415Y-56137400D03*
%TO.N,/MPU_PWR/VDDA*%
X76500000Y-70850000D03*
%TD*%
D34*
%TO.N,GND*%
X75850000Y-71700000D02*
X77296014Y-71700000D01*
X77726057Y-72829106D02*
X77629106Y-72829106D01*
X77296014Y-71700000D02*
X77298007Y-71701993D01*
X77629106Y-72829106D02*
X77300000Y-72500000D01*
%TO.N,VDD_CORE*%
X81750000Y-66400000D02*
X81700000Y-66400000D01*
X78848007Y-67651993D02*
X77273007Y-66076993D01*
X80423007Y-69226993D02*
X78848007Y-67651993D01*
X81700000Y-66400000D02*
X81248007Y-66851993D01*
X82073007Y-70876993D02*
X84071893Y-68878107D01*
X83673007Y-72476993D02*
X83726993Y-72476993D01*
X81248007Y-66901993D02*
X81248007Y-66851993D01*
X78850000Y-64850000D02*
X78550000Y-64850000D01*
X83675407Y-65275407D02*
X83675407Y-65175407D01*
X82098007Y-67701993D02*
X82098007Y-67626115D01*
X82073007Y-70876993D02*
X83650705Y-72454691D01*
X83675407Y-65175407D02*
X83300000Y-64800000D01*
X77273007Y-66073007D02*
X76550000Y-65350000D01*
X84071893Y-68878107D02*
X84074122Y-68878107D01*
X78771178Y-64821178D02*
X79092356Y-64500000D01*
X81604063Y-69745937D02*
X82073008Y-69276992D01*
X78550000Y-64850000D02*
X78100000Y-65300000D01*
X81750000Y-64800000D02*
X81273007Y-65276993D01*
X82848007Y-65251993D02*
X83300000Y-64800000D01*
X77273007Y-66076993D02*
X77273007Y-66073007D01*
X82098007Y-67626115D02*
X82474122Y-67250000D01*
X81628822Y-68171178D02*
X82098007Y-67701993D01*
X82873007Y-71676993D02*
X83221178Y-71328822D01*
X83650705Y-72454691D02*
X83673007Y-72454691D01*
X83726993Y-72476993D02*
X84450000Y-73200000D01*
X80121178Y-66428822D02*
X80121178Y-66378822D01*
X79092356Y-64500000D02*
X79650000Y-64500000D01*
X82550000Y-68800000D02*
X82073008Y-69276992D01*
X81600530Y-69745937D02*
X81604063Y-69745937D01*
X79673007Y-66876993D02*
X80121178Y-66428822D01*
X83221178Y-71328822D02*
X83261558Y-71328822D01*
X84100000Y-67200000D02*
X83648007Y-67651993D01*
%TO.N,VDD*%
X78098008Y-71701992D02*
X78873008Y-72476992D01*
D35*
%TO.N,/DDR/DDR_A9*%
X99900000Y-64100000D02*
X99900000Y-63950000D01*
X95850000Y-59300000D02*
X89550000Y-59300000D01*
X89550000Y-59300000D02*
X87650000Y-61200000D01*
X96200000Y-59650000D02*
X95850000Y-59300000D01*
X87650000Y-65300000D02*
X86900000Y-66050000D01*
X87650000Y-61200000D02*
X87650000Y-65300000D01*
X97250000Y-65950000D02*
X96200000Y-64900000D01*
X96200000Y-64900000D02*
X96200000Y-59650000D01*
X98050000Y-65950000D02*
X97250000Y-65950000D01*
%TO.N,/DDR/DDR_A7*%
X96550000Y-58450000D02*
X89100000Y-58450000D01*
X89100000Y-58450000D02*
X86900000Y-60650000D01*
X97100000Y-64100000D02*
X97100000Y-59000000D01*
X98050000Y-64400000D02*
X98050000Y-64000000D01*
X97300000Y-64750000D02*
X97300000Y-64300000D01*
X86900000Y-60650000D02*
X86900000Y-64450000D01*
X98050000Y-64000000D02*
X97950000Y-63900000D01*
X97100000Y-59000000D02*
X96550000Y-58450000D01*
X97300000Y-64300000D02*
X97100000Y-64100000D01*
X97700000Y-64750000D02*
X98050000Y-64400000D01*
%TO.N,/DDR/DDR_A5*%
X87600000Y-66200000D02*
X86900000Y-66900000D01*
X95500000Y-59700000D02*
X89700000Y-59700000D01*
X88050000Y-61350000D02*
X88050000Y-63050000D01*
X87600000Y-65900000D02*
X87600000Y-66200000D01*
X87950000Y-65550000D02*
X87600000Y-65900000D01*
X98525000Y-66325000D02*
X97150000Y-66325000D01*
X88050000Y-63050000D02*
X87950000Y-63150000D01*
X87950000Y-63150000D02*
X87950000Y-65550000D01*
X95975000Y-65150000D02*
X95975000Y-60175000D01*
X100850000Y-64000000D02*
X100850000Y-63900000D01*
X95975000Y-60175000D02*
X95500000Y-59700000D01*
X89700000Y-59700000D02*
X88050000Y-61350000D01*
X97150000Y-66325000D02*
X95975000Y-65150000D01*
X98850000Y-66000000D02*
X98525000Y-66325000D01*
%TO.N,/DDR/DDR_A4*%
X98075815Y-72650000D02*
X96000000Y-72650000D01*
X98098415Y-74292400D02*
X98023415Y-74367400D01*
X89850000Y-79250000D02*
X87698415Y-77098415D01*
X93100000Y-79250000D02*
X89850000Y-79250000D01*
X95000000Y-73650000D02*
X95000000Y-75650000D01*
X95000000Y-77350000D02*
X93100000Y-79250000D01*
X98098415Y-72627400D02*
X98075815Y-72650000D01*
X87698415Y-77098415D02*
X87698415Y-72452400D01*
X96000000Y-72650000D02*
X95000000Y-73650000D01*
X95000000Y-75650000D02*
X95000000Y-77350000D01*
%TO.N,/DDR/DDR_BA0*%
X100125000Y-66525000D02*
X100125000Y-66925000D01*
X101025000Y-65300000D02*
X104050000Y-65300000D01*
X100473415Y-65977400D02*
X100473415Y-65851585D01*
X93650000Y-61875000D02*
X91263874Y-61875000D01*
X100473415Y-66176585D02*
X100125000Y-66525000D01*
X100473415Y-65977400D02*
X100473415Y-66176585D01*
X104650000Y-64700000D02*
X104650000Y-63900000D01*
X95000000Y-63225000D02*
X93650000Y-61875000D01*
X89875000Y-63263874D02*
X89875000Y-65975000D01*
X99475000Y-67575000D02*
X96000000Y-67575000D01*
X96000000Y-67575000D02*
X95000000Y-66575000D01*
X95000000Y-66575000D02*
X95000000Y-63225000D01*
X91263874Y-61875000D02*
X89875000Y-63263874D01*
X89875000Y-65975000D02*
X89500000Y-66350000D01*
X100125000Y-66925000D02*
X99475000Y-67575000D01*
X104050000Y-65300000D02*
X104650000Y-64700000D01*
%TO.N,/DDR/DDR_A1*%
X93100000Y-75950000D02*
X92300000Y-76750000D01*
X89700000Y-73050000D02*
X89900000Y-72850000D01*
X98835815Y-70775000D02*
X95625000Y-70775000D01*
X95625000Y-70775000D02*
X93100000Y-73300000D01*
X93100000Y-73300000D02*
X93100000Y-75950000D01*
X89700000Y-76050000D02*
X89700000Y-73050000D01*
X90400000Y-76750000D02*
X89700000Y-76050000D01*
X89900000Y-71553985D02*
X88843415Y-70497400D01*
X92300000Y-76750000D02*
X90400000Y-76750000D01*
X86997400Y-70497400D02*
X86873415Y-70373415D01*
X89900000Y-72850000D02*
X89900000Y-71553985D01*
X98873415Y-70737400D02*
X98835815Y-70775000D01*
X88843415Y-70497400D02*
X86997400Y-70497400D01*
X86873415Y-70373415D02*
X86873415Y-70077400D01*
%TO.N,/DDR/DDR_A6*%
X87350000Y-73200000D02*
X87350000Y-75550000D01*
X87350000Y-77250000D02*
X87350000Y-75550000D01*
X96150000Y-73050000D02*
X95375000Y-73825000D01*
X93300000Y-79650000D02*
X89750000Y-79650000D01*
X96750000Y-73050000D02*
X96150000Y-73050000D01*
X87223415Y-72852400D02*
X87223415Y-73073415D01*
X89750000Y-79650000D02*
X87350000Y-77250000D01*
X86898415Y-72527400D02*
X86898415Y-71702400D01*
X87223415Y-73073415D02*
X87350000Y-73200000D01*
X97298415Y-74117400D02*
X97038415Y-74377400D01*
X95375000Y-73825000D02*
X95375000Y-77575000D01*
X97250000Y-73550000D02*
X96750000Y-73050000D01*
X95375000Y-77575000D02*
X93300000Y-79650000D01*
X87223415Y-72852400D02*
X86898415Y-72527400D01*
%TO.N,/DDR/DDR_WEN*%
X109250000Y-66275000D02*
X109125000Y-66400000D01*
X89000000Y-67750000D02*
X88852600Y-67897400D01*
X105900000Y-66400000D02*
X105862500Y-66437500D01*
X88623415Y-67897400D02*
X88453415Y-68067400D01*
X93250000Y-63050000D02*
X91600000Y-63050000D01*
X93950000Y-67100000D02*
X93950000Y-63750000D01*
X90830000Y-67370000D02*
X90450000Y-67750000D01*
X100875000Y-67767400D02*
X99967400Y-68675000D01*
X106100000Y-66400000D02*
X106025000Y-66400000D01*
X106100000Y-66400000D02*
X105900000Y-66400000D01*
X91600000Y-63050000D02*
X90830000Y-63820000D01*
X101900000Y-66675000D02*
X105625000Y-66675000D01*
X93950000Y-63750000D02*
X93250000Y-63050000D01*
X99967400Y-68675000D02*
X95525000Y-68675000D01*
X88852600Y-67897400D02*
X88623415Y-67897400D01*
X90450000Y-67750000D02*
X89000000Y-67750000D01*
X109750000Y-66275000D02*
X109250000Y-66275000D01*
X109125000Y-66400000D02*
X106100000Y-66400000D01*
X100875000Y-67767400D02*
X100875000Y-67700000D01*
X87283415Y-68067400D02*
X86883415Y-68467400D01*
X95525000Y-68675000D02*
X93950000Y-67100000D01*
X88453415Y-68067400D02*
X87283415Y-68067400D01*
X105625000Y-66675000D02*
X105862500Y-66437500D01*
X90830000Y-63820000D02*
X90830000Y-67370000D01*
%TO.N,/DDR/DDR_A14*%
X88098008Y-72051992D02*
X87673415Y-71627400D01*
X95650000Y-72400000D02*
X94500000Y-73550000D01*
X88098008Y-72051992D02*
X88098008Y-75048008D01*
X88098008Y-76798008D02*
X88098008Y-75048008D01*
X90100000Y-78800000D02*
X88098008Y-76798008D01*
X94500000Y-73550000D02*
X94500000Y-77250000D01*
X94500000Y-77250000D02*
X92950000Y-78800000D01*
X92950000Y-78800000D02*
X90100000Y-78800000D01*
%TO.N,/DDR/DDR_RASN*%
X89480814Y-68250000D02*
X91150000Y-68250000D01*
X91300000Y-68100000D02*
X91300000Y-64175000D01*
X91150000Y-68250000D02*
X91300000Y-68100000D01*
X91300000Y-64175000D02*
X91875000Y-63600000D01*
X105600000Y-68150000D02*
X105077400Y-67627400D01*
X94675000Y-69225000D02*
X100465815Y-69225000D01*
X93450000Y-68000000D02*
X94675000Y-69225000D01*
X91875000Y-63600000D02*
X92900000Y-63600000D01*
X109675000Y-68150000D02*
X105600000Y-68150000D01*
X88493415Y-69237400D02*
X89480814Y-68250000D01*
X93450000Y-64150000D02*
X93450000Y-68000000D01*
X92900000Y-63600000D02*
X93450000Y-64150000D01*
X100465815Y-69225000D02*
X102063415Y-67627400D01*
X109750000Y-68225000D02*
X109675000Y-68150000D01*
%TO.N,/DDR/DDR_A0*%
X100100000Y-66200000D02*
X100100000Y-65761126D01*
X99700000Y-66800000D02*
X99800000Y-66700000D01*
X99800000Y-66500000D02*
X100100000Y-66200000D01*
X95300000Y-61300000D02*
X94600000Y-60600000D01*
X91150000Y-60600000D02*
X88975000Y-62775000D01*
X98300000Y-67275000D02*
X96725000Y-67275000D01*
X99700000Y-66800000D02*
X99700000Y-66850000D01*
X88975000Y-62775000D02*
X88975000Y-66375000D01*
X99200000Y-67350000D02*
X98375000Y-67350000D01*
X88975000Y-66375000D02*
X88500000Y-66850000D01*
X103700000Y-64600000D02*
X103700000Y-63900000D01*
X98375000Y-67350000D02*
X98300000Y-67275000D01*
X103225000Y-65075000D02*
X103700000Y-64600000D01*
X96725000Y-67275000D02*
X95300000Y-65850000D01*
X95300000Y-65850000D02*
X95300000Y-61300000D01*
X94600000Y-60600000D02*
X91150000Y-60600000D01*
X100100000Y-65761126D02*
X100786126Y-65075000D01*
X99700000Y-66850000D02*
X99200000Y-67350000D01*
X100786126Y-65075000D02*
X103225000Y-65075000D01*
%TO.N,/DDR/DDR_CSN*%
X94200000Y-66900000D02*
X94200000Y-63600000D01*
X107500000Y-63900000D02*
X107500000Y-64275000D01*
X95700000Y-68400000D02*
X94200000Y-66900000D01*
X93350000Y-62750000D02*
X91500000Y-62750000D01*
X90300000Y-67500000D02*
X87830815Y-67500000D01*
X90600000Y-63650000D02*
X90600000Y-67200000D01*
X90600000Y-67200000D02*
X90300000Y-67500000D01*
X91500000Y-62750000D02*
X90600000Y-63650000D01*
X87830815Y-67500000D02*
X87683415Y-67647400D01*
X107500000Y-64275000D02*
X105475000Y-66300000D01*
X99725000Y-68400000D02*
X95700000Y-68400000D01*
X105475000Y-66300000D02*
X101730815Y-66300000D01*
X101263415Y-66861585D02*
X99725000Y-68400000D01*
X101263415Y-66767400D02*
X101263415Y-66861585D01*
X94200000Y-63600000D02*
X93350000Y-62750000D01*
%TO.N,/DDR/DDR_A13*%
X97650000Y-65150000D02*
X98900000Y-63900000D01*
X96200000Y-58900000D02*
X89300000Y-58900000D01*
X97000000Y-65150000D02*
X97650000Y-65150000D01*
X87350000Y-60850000D02*
X87350000Y-64850000D01*
X96650000Y-64800000D02*
X96650000Y-59350000D01*
X96650000Y-59350000D02*
X96200000Y-58900000D01*
X98900000Y-63900000D02*
X98950000Y-63900000D01*
X89300000Y-58900000D02*
X87350000Y-60850000D01*
X87350000Y-64850000D02*
X86900000Y-65300000D01*
D36*
%TO.N,/DDR/DDR_CLK_N*%
X90100000Y-68800000D02*
X90127400Y-68827400D01*
X91787500Y-68564900D02*
X91787500Y-64543308D01*
X93525000Y-68827400D02*
X93600000Y-68827400D01*
X101546015Y-69550000D02*
X101948415Y-69952400D01*
X93802400Y-68827400D02*
X94525000Y-69550000D01*
X90127400Y-68827400D02*
X91525000Y-68827400D01*
X93325000Y-68827400D02*
X93525000Y-68827400D01*
X93062500Y-64543308D02*
X93062500Y-68564900D01*
X92325000Y-64005808D02*
X92525000Y-64005808D01*
X93600000Y-68827400D02*
X93802400Y-68827400D01*
X101948415Y-69952400D02*
X102048415Y-69952400D01*
X94525000Y-69550000D02*
X101546015Y-69550000D01*
X92525000Y-64005808D02*
G75*
G02*
X93062492Y-64543308I0J-537492D01*
G01*
X91787500Y-64543308D02*
G75*
G02*
X92325000Y-64005800I537500J8D01*
G01*
X91525000Y-68827400D02*
G75*
G03*
X91787500Y-68564900I0J262500D01*
G01*
X93062500Y-68564900D02*
G75*
G03*
X93325000Y-68827400I262500J0D01*
G01*
D35*
%TO.N,/DDR/DDR_A10*%
X92050000Y-76400000D02*
X92700000Y-75750000D01*
X99275000Y-70975000D02*
X99275000Y-70553985D01*
X89398415Y-70452400D02*
X90152400Y-70452400D01*
X92700000Y-73200000D02*
X92700000Y-74073340D01*
X92500000Y-75167784D02*
X92221144Y-75167784D01*
X90300000Y-70600000D02*
X90300000Y-76150000D01*
X92021144Y-74967784D02*
X92021144Y-74867784D01*
X90300000Y-76150000D02*
X90550000Y-76400000D01*
X92221144Y-74667784D02*
X92500000Y-74667784D01*
X90152400Y-70452400D02*
X90300000Y-70600000D01*
X92700000Y-74367784D02*
X92700000Y-74073340D01*
X98525000Y-70475000D02*
X95425000Y-70475000D01*
X100050815Y-71200000D02*
X99500000Y-71200000D01*
X99500000Y-71200000D02*
X99275000Y-70975000D01*
X99096015Y-70375000D02*
X98625000Y-70375000D01*
X92700000Y-74467784D02*
X92700000Y-74367784D01*
X90550000Y-76400000D02*
X92050000Y-76400000D01*
X95425000Y-70475000D02*
X92700000Y-73200000D01*
X92700000Y-75750000D02*
X92700000Y-75367784D01*
X99275000Y-70553985D02*
X99096015Y-70375000D01*
X98625000Y-70375000D02*
X98525000Y-70475000D01*
X100453415Y-70797400D02*
X100050815Y-71200000D01*
X92500000Y-74667784D02*
G75*
G03*
X92699984Y-74467784I0J199984D01*
G01*
X92700000Y-75367784D02*
G75*
G03*
X92500000Y-75167800I-200000J-16D01*
G01*
X92021144Y-74867784D02*
G75*
G02*
X92221144Y-74667844I199956J-16D01*
G01*
X92221144Y-75167784D02*
G75*
G02*
X92021116Y-74967784I-44J199984D01*
G01*
%TO.N,/DDR/DDR_A3*%
X88625000Y-62725000D02*
X88625000Y-65875000D01*
X96750000Y-66950000D02*
X95525000Y-65725000D01*
X99300000Y-66850000D02*
X99025000Y-67125000D01*
X101800000Y-64850000D02*
X102750000Y-63900000D01*
X99700000Y-66000000D02*
X99700000Y-66050000D01*
X88500000Y-66000000D02*
X88500000Y-66100000D01*
X94950000Y-60350000D02*
X91000000Y-60350000D01*
X91000000Y-60350000D02*
X88625000Y-62725000D01*
X98700000Y-67125000D02*
X98525000Y-66950000D01*
X99025000Y-67125000D02*
X98700000Y-67125000D01*
X95525000Y-65725000D02*
X95525000Y-60925000D01*
X99700000Y-66050000D02*
X99300000Y-66450000D01*
X99300000Y-66450000D02*
X99300000Y-66850000D01*
X88625000Y-65875000D02*
X88500000Y-66000000D01*
X99700000Y-66000000D02*
X99700000Y-65850000D01*
X98525000Y-66950000D02*
X96750000Y-66950000D01*
X100700000Y-64850000D02*
X101800000Y-64850000D01*
X95525000Y-60925000D02*
X94950000Y-60350000D01*
%TO.N,/DDR/DDR_CASN*%
X109650000Y-67150000D02*
X102025000Y-67150000D01*
X94875000Y-68950000D02*
X93700000Y-67775000D01*
X93700000Y-63900000D02*
X93100000Y-63300000D01*
X88813415Y-68477400D02*
X87703415Y-68477400D01*
X91050000Y-63950000D02*
X91050000Y-67850000D01*
X109750000Y-67250000D02*
X109650000Y-67150000D01*
X100225000Y-68950000D02*
X94875000Y-68950000D01*
X91700000Y-63300000D02*
X91050000Y-63950000D01*
X90900000Y-68000000D02*
X89290815Y-68000000D01*
X89290815Y-68000000D02*
X88813415Y-68477400D01*
X101425000Y-67750000D02*
X100225000Y-68950000D01*
X93100000Y-63300000D02*
X91700000Y-63300000D01*
X91050000Y-67850000D02*
X90900000Y-68000000D01*
X93700000Y-67775000D02*
X93700000Y-63900000D01*
%TO.N,/DDR/DDR_A8*%
X86873415Y-75350000D02*
X86873415Y-77223415D01*
X95700000Y-74100000D02*
X96250000Y-73550000D01*
X96250000Y-73550000D02*
X96298415Y-73550000D01*
X86873415Y-73277400D02*
X86873415Y-75350000D01*
X86873415Y-77223415D02*
X89600000Y-79950000D01*
X93700000Y-79950000D02*
X95700000Y-77950000D01*
X95700000Y-77950000D02*
X95700000Y-74100000D01*
X89600000Y-79950000D02*
X93700000Y-79950000D01*
%TO.N,/DDR/DDR_ODT*%
X91350000Y-62450000D02*
X93450000Y-62450000D01*
X90050000Y-67100000D02*
X90350000Y-66800000D01*
X100687600Y-67110815D02*
X100898415Y-66900000D01*
X95775000Y-68125000D02*
X99675000Y-68125000D01*
X99675000Y-68125000D02*
X100687600Y-67112400D01*
X106262500Y-64712500D02*
X106650000Y-64325000D01*
X89500000Y-67100000D02*
X90050000Y-67100000D01*
X93450000Y-62450000D02*
X94450000Y-63450000D01*
X100898415Y-66451585D02*
X101273415Y-66076585D01*
X94450000Y-66800000D02*
X95775000Y-68125000D01*
X94450000Y-63450000D02*
X94450000Y-66800000D01*
X90350000Y-66800000D02*
X90350000Y-63450000D01*
X101273415Y-66076585D02*
X101273415Y-65977400D01*
X100898415Y-66900000D02*
X100898415Y-66451585D01*
X90350000Y-63450000D02*
X91350000Y-62450000D01*
X106262500Y-64712500D02*
X106550000Y-64425000D01*
X104997600Y-65977400D02*
X106262500Y-64712500D01*
X106550000Y-64425000D02*
X106550000Y-63925000D01*
X100687600Y-67112400D02*
X100687600Y-67110815D01*
%TO.N,/DDR/DDR_A12*%
X93779577Y-70520262D02*
X93708866Y-70590972D01*
X99700000Y-70300000D02*
X99550000Y-70150000D01*
X94229657Y-70687500D02*
X94062419Y-70520262D01*
X91850000Y-73300000D02*
X91900000Y-73300000D01*
X99700000Y-70750000D02*
X99700000Y-70300000D01*
X93708866Y-70873815D02*
X93876103Y-71041052D01*
X99550000Y-70150000D02*
X95050000Y-70150000D01*
X91750000Y-73300000D02*
X91850000Y-73300000D01*
X87673415Y-70087400D02*
X90537400Y-70087400D01*
X99675000Y-70775000D02*
X99700000Y-70750000D01*
X90700000Y-73200000D02*
X90800000Y-73300000D01*
X90800000Y-73300000D02*
X90850000Y-73300000D01*
X91550000Y-75897006D02*
X91550000Y-73500000D01*
X93876103Y-71323894D02*
X93805393Y-71394606D01*
X93805393Y-71394606D02*
X93805393Y-71394607D01*
X93001749Y-71580913D02*
X93168995Y-71748159D01*
X93522550Y-71394607D02*
X93355303Y-71227360D01*
X91900000Y-73300000D02*
X91958797Y-73241203D01*
X90700000Y-70250000D02*
X90700000Y-73200000D01*
X90537400Y-70087400D02*
X90700000Y-70250000D01*
X91050000Y-73500000D02*
X91050000Y-75897006D01*
X91250000Y-76097006D02*
X91350000Y-76097006D01*
X92350000Y-72850000D02*
X91958797Y-73241203D01*
X95050000Y-70150000D02*
X94512500Y-70687500D01*
X93098286Y-72101713D02*
X92350000Y-72850000D01*
X93072460Y-71227360D02*
X93001749Y-71298070D01*
X93168995Y-72031002D02*
X93098286Y-72101713D01*
X94512500Y-70687500D02*
G75*
G02*
X94229658Y-70687500I-141421J141420D01*
G01*
X93001749Y-71298070D02*
G75*
G03*
X93001740Y-71580921I141451J-141430D01*
G01*
X93355303Y-71227360D02*
G75*
G03*
X93072461Y-71227360I-141421J-141420D01*
G01*
X90850000Y-73300000D02*
G75*
G02*
X91050000Y-73500000I0J-200000D01*
G01*
X91550000Y-73500000D02*
G75*
G02*
X91750000Y-73300000I200000J0D01*
G01*
X93805393Y-71394607D02*
G75*
G02*
X93522551Y-71394607I-141421J141420D01*
G01*
X93168995Y-71748159D02*
G75*
G02*
X93169015Y-72031022I-141395J-141441D01*
G01*
X93876103Y-71041052D02*
G75*
G02*
X93876130Y-71323921I-141403J-141448D01*
G01*
X93708866Y-70590972D02*
G75*
G03*
X93708859Y-70873821I141434J-141428D01*
G01*
X94062419Y-70520262D02*
G75*
G03*
X93779577Y-70520262I-141421J-141423D01*
G01*
X91050000Y-75897006D02*
G75*
G03*
X91250000Y-76097000I200000J6D01*
G01*
X91350000Y-76097006D02*
G75*
G03*
X91550006Y-75897006I0J200006D01*
G01*
%TO.N,/DDR/DDR_A11*%
X93550000Y-73350000D02*
X95725000Y-71175000D01*
X90978186Y-77840000D02*
X90978186Y-77350000D01*
X90478186Y-77350000D02*
X90478186Y-77840000D01*
X91978186Y-77840000D02*
X91978186Y-77350000D01*
X92850400Y-77082442D02*
X93045147Y-77277189D01*
X89100000Y-76200000D02*
X90050000Y-77150000D01*
X92278186Y-77150000D02*
X92300000Y-77150000D01*
X93203951Y-76446045D02*
X93274664Y-76375335D01*
X93550000Y-76100000D02*
X93550000Y-73350000D01*
X103098415Y-74377400D02*
X103098415Y-73648415D01*
X90050000Y-77150000D02*
X90278186Y-77150000D01*
X93327989Y-77277189D02*
X93398699Y-77206478D01*
X93274664Y-76375335D02*
X93549977Y-76100023D01*
X103098415Y-73648415D02*
X101125000Y-71675000D01*
X91178186Y-77150000D02*
X91278186Y-77150000D01*
X92500000Y-77150000D02*
X92567558Y-77082442D01*
X93398699Y-76923635D02*
X93203951Y-76728887D01*
X92300000Y-77150000D02*
X92500000Y-77150000D01*
X91478186Y-77350000D02*
X91478186Y-77840000D01*
X90678186Y-78040000D02*
X90778186Y-78040000D01*
X95725000Y-71175000D02*
X95925000Y-71175000D01*
X91678186Y-78040000D02*
X91778186Y-78040000D01*
X89100000Y-71478985D02*
X89100000Y-76200000D01*
X88498415Y-70877400D02*
X89100000Y-71478985D01*
X92178186Y-77150000D02*
X92278186Y-77150000D01*
X93549977Y-76100023D02*
X93550000Y-76100000D01*
X93398699Y-77206478D02*
G75*
G03*
X93398656Y-76923679I-141399J141378D01*
G01*
X91778186Y-78040000D02*
G75*
G03*
X91978200Y-77840000I14J200000D01*
G01*
X91978186Y-77350000D02*
G75*
G02*
X92178186Y-77149986I200014J0D01*
G01*
X90978186Y-77350000D02*
G75*
G02*
X91178186Y-77149986I200014J0D01*
G01*
X90478186Y-77840000D02*
G75*
G03*
X90678186Y-78040014I200014J0D01*
G01*
X93045147Y-77277189D02*
G75*
G03*
X93327989Y-77277189I141421J141423D01*
G01*
X92567558Y-77082442D02*
G75*
G02*
X92850400Y-77082442I141421J-141423D01*
G01*
X90778186Y-78040000D02*
G75*
G03*
X90978200Y-77840000I14J200000D01*
G01*
X90278186Y-77150000D02*
G75*
G02*
X90478200Y-77350000I14J-200000D01*
G01*
X93203951Y-76728887D02*
G75*
G02*
X93203985Y-76446079I141449J141387D01*
G01*
X91478186Y-77840000D02*
G75*
G03*
X91678186Y-78040014I200014J0D01*
G01*
X91278186Y-77150000D02*
G75*
G02*
X91478200Y-77350000I14J-200000D01*
G01*
D36*
%TO.N,/DDR/DDR_CLK_P*%
X92787500Y-64543308D02*
X92787500Y-68564900D01*
X94372600Y-69825000D02*
X101396015Y-69825000D01*
X101396015Y-69825000D02*
X102073415Y-70502400D01*
X90452400Y-69202400D02*
X90452400Y-69197600D01*
X93650000Y-69102400D02*
X94372600Y-69825000D01*
X90452400Y-69197600D02*
X90547600Y-69102400D01*
X102073415Y-70502400D02*
X102073415Y-70777400D01*
X90547600Y-69102400D02*
X91525000Y-69102400D01*
X93525000Y-69102400D02*
X93600000Y-69102400D01*
X92062500Y-68564900D02*
X92062500Y-64543308D01*
X92325000Y-64280808D02*
X92525000Y-64280808D01*
X90450000Y-69200000D02*
X90452400Y-69202400D01*
X93600000Y-69102400D02*
X93650000Y-69102400D01*
X93325000Y-69102400D02*
X93525000Y-69102400D01*
X92787500Y-68564900D02*
G75*
G03*
X93325000Y-69102400I537500J0D01*
G01*
X92525000Y-64280808D02*
G75*
G02*
X92787492Y-64543308I0J-262492D01*
G01*
X92062500Y-64543308D02*
G75*
G02*
X92325000Y-64280800I262500J8D01*
G01*
X91525000Y-69102400D02*
G75*
G03*
X92062500Y-68564900I0J537500D01*
G01*
D35*
%TO.N,/DDR/DDR_BA2*%
X94700000Y-63350000D02*
X93500000Y-62150000D01*
X94700000Y-66738874D02*
X94700000Y-63350000D01*
X95811126Y-67850000D02*
X94700000Y-66738874D01*
X91300000Y-62150000D02*
X90100000Y-63350000D01*
X93500000Y-62150000D02*
X91300000Y-62150000D01*
X101036126Y-65600000D02*
X104550000Y-65600000D01*
X100503415Y-66946585D02*
X99600000Y-67850000D01*
X90100000Y-63350000D02*
X90100000Y-66550000D01*
X104550000Y-65600000D02*
X105600000Y-64550000D01*
X100503415Y-66747400D02*
X100503415Y-66946585D01*
X105600000Y-64550000D02*
X105600000Y-63900000D01*
X100880563Y-66119437D02*
X100880563Y-65755563D01*
X99600000Y-67850000D02*
X95811126Y-67850000D01*
X100880563Y-65755563D02*
X101036126Y-65600000D01*
X87550000Y-67250000D02*
X87452600Y-67347400D01*
X89910800Y-66739200D02*
X89160800Y-66739200D01*
X87123415Y-67347400D02*
X86833415Y-67637400D01*
X87452600Y-67347400D02*
X87123415Y-67347400D01*
X89160800Y-66739200D02*
X88650000Y-67250000D01*
X100503415Y-66496585D02*
X100880563Y-66119437D01*
X90100000Y-66550000D02*
X89910800Y-66739200D01*
X88650000Y-67250000D02*
X87550000Y-67250000D01*
%TO.N,/DDR/DDR_CKE*%
X100773415Y-72827400D02*
X100873415Y-72927400D01*
X100873415Y-74367400D02*
X100898415Y-74392400D01*
X100898415Y-74392400D02*
X99953415Y-74392400D01*
X99953415Y-74392400D02*
X99948415Y-74387400D01*
%TO.N,/DDR/DDR_BA1*%
X92850000Y-78300000D02*
X94075000Y-77075000D01*
X94075000Y-77075000D02*
X94075000Y-73375000D01*
X88700000Y-71928985D02*
X88700000Y-76700000D01*
X99206015Y-71900000D02*
X98873415Y-71567400D01*
X102123415Y-73198415D02*
X100825000Y-71900000D01*
X88700000Y-76700000D02*
X90300000Y-78300000D01*
X95882600Y-71567400D02*
X98873415Y-71567400D01*
X94075000Y-73375000D02*
X95882600Y-71567400D01*
X100825000Y-71900000D02*
X99206015Y-71900000D01*
X90300000Y-78300000D02*
X92850000Y-78300000D01*
X87673415Y-70902400D02*
X88700000Y-71928985D01*
X102123415Y-74402400D02*
X102123415Y-73198415D01*
%TO.N,/DDR/DDR_A2*%
X98850000Y-66750000D02*
X98750000Y-66650000D01*
X88300000Y-65750000D02*
X88025000Y-66025000D01*
X95750000Y-60650000D02*
X95150000Y-60050000D01*
X89900000Y-60050000D02*
X88300000Y-61650000D01*
X88025000Y-66025000D02*
X88025000Y-66475000D01*
X101575000Y-64575000D02*
X101800000Y-64350000D01*
X88025000Y-66475000D02*
X87650000Y-66850000D01*
X98750000Y-66650000D02*
X96950000Y-66650000D01*
X96950000Y-66650000D02*
X95750000Y-65450000D01*
X101800000Y-64350000D02*
X101800000Y-63900000D01*
X95750000Y-65450000D02*
X95750000Y-60650000D01*
X88300000Y-61650000D02*
X88300000Y-65750000D01*
X99300000Y-65861126D02*
X100586126Y-64575000D01*
X95150000Y-60050000D02*
X89900000Y-60050000D01*
X100586126Y-64575000D02*
X101575000Y-64575000D01*
X99300000Y-66100000D02*
X99300000Y-65861126D01*
D37*
%TO.N,SDMMC2_NRST*%
X74173415Y-57597400D02*
X74153415Y-57577400D01*
X75123415Y-57597400D02*
X74173415Y-57597400D01*
X77053415Y-53687400D02*
X75123415Y-55617400D01*
X75123415Y-55617400D02*
X75123415Y-57597400D01*
X79593415Y-53687400D02*
X77053415Y-53687400D01*
D38*
%TO.N,SDMMC2_CK*%
X80983415Y-58677400D02*
X80983415Y-57997400D01*
X80983415Y-57997400D02*
X81033415Y-57947400D01*
D34*
%TO.N,Net-(U301A-VREF+)*%
X74850000Y-71700000D02*
X74850000Y-71050000D01*
X74850000Y-72340000D02*
X74850000Y-71700000D01*
D35*
%TO.N,/DDR/DDR_A15*%
X91807042Y-69602400D02*
X91899042Y-69602400D01*
X88173415Y-69602400D02*
X88300000Y-69602400D01*
X88300000Y-69602400D02*
X90979042Y-69602400D01*
X88073415Y-69602400D02*
X88173415Y-69602400D01*
X87873415Y-69202400D02*
X87873415Y-69402400D01*
X91623042Y-72298400D02*
X91623042Y-69786400D01*
X91347042Y-72482400D02*
X91439042Y-72482400D01*
X91163042Y-69786400D02*
X91163042Y-72298400D01*
X86650000Y-69100000D02*
X86671015Y-69100000D01*
X87059923Y-69488908D02*
X87173415Y-69602400D01*
X86671015Y-69100000D02*
X87059923Y-69488908D01*
X91899042Y-69602400D02*
X92650000Y-69602400D01*
X87373415Y-69402400D02*
X87373415Y-69202400D01*
X87573415Y-69002400D02*
X87673415Y-69002400D01*
X91439042Y-72482400D02*
G75*
G03*
X91623000Y-72298400I-42J184000D01*
G01*
X91163042Y-72298400D02*
G75*
G03*
X91347042Y-72482358I183958J0D01*
G01*
X87173415Y-69602400D02*
G75*
G03*
X87373400Y-69402400I-15J200000D01*
G01*
X87373415Y-69202400D02*
G75*
G02*
X87573415Y-69002415I199985J0D01*
G01*
X87873415Y-69402400D02*
G75*
G03*
X88073415Y-69602385I199985J0D01*
G01*
X90979042Y-69602400D02*
G75*
G02*
X91163000Y-69786400I-42J-184000D01*
G01*
X91623042Y-69786400D02*
G75*
G02*
X91807042Y-69602442I183958J0D01*
G01*
X87673415Y-69002400D02*
G75*
G02*
X87873400Y-69202400I-15J-200000D01*
G01*
D37*
%TO.N,Net-(U1-CLK)*%
X81033415Y-56927400D02*
X81033415Y-56147400D01*
X81033415Y-56147400D02*
X81023415Y-56137400D01*
D34*
%TO.N,/MPU_PWR/VDDA*%
X76390000Y-70740000D02*
X76500000Y-70850000D01*
X76410000Y-70850000D02*
X77190000Y-70850000D01*
X77190000Y-70850000D02*
X77300000Y-70740000D01*
X75850000Y-70740000D02*
X76390000Y-70740000D01*
%TD*%
%TA.AperFunction,Conductor*%
%TO.N,VDD_CORE*%
G36*
X82463886Y-67248262D02*
G01*
X82471891Y-67252274D01*
X82474725Y-67259244D01*
X82494707Y-67598544D01*
X82491772Y-67607004D01*
X82484778Y-67610800D01*
X82198879Y-67654076D01*
X82197128Y-67654208D01*
X82013342Y-67654208D01*
X82005069Y-67650781D01*
X82001642Y-67642508D01*
X82002057Y-67639418D01*
X82013250Y-67598544D01*
X82113488Y-67232481D01*
X82118979Y-67225409D01*
X82125611Y-67223903D01*
X82463886Y-67248262D01*
G37*
%TD.AperFunction*%
%TD*%
%TA.AperFunction,Conductor*%
%TO.N,/MPU_PWR/VDDA*%
G36*
X76085438Y-70477620D02*
G01*
X76090202Y-70480254D01*
X76482462Y-70697124D01*
X76488044Y-70704126D01*
X76487040Y-70713024D01*
X76485074Y-70715636D01*
X76355723Y-70844987D01*
X76353327Y-70846831D01*
X76082131Y-71004372D01*
X76073256Y-71005564D01*
X76067253Y-71001730D01*
X75938606Y-70846831D01*
X75855592Y-70746878D01*
X75852944Y-70738325D01*
X75855701Y-70731801D01*
X76070889Y-70480253D01*
X76078870Y-70476195D01*
X76085438Y-70477620D01*
G37*
%TD.AperFunction*%
%TD*%
%TA.AperFunction,Conductor*%
%TO.N,/DDR/DDR_A0*%
G36*
X103707743Y-63905838D02*
G01*
X103962184Y-64130544D01*
X103966117Y-64138589D01*
X103964039Y-64146002D01*
X103762692Y-64434988D01*
X103755151Y-64439817D01*
X103753092Y-64440000D01*
X103646908Y-64440000D01*
X103638635Y-64436573D01*
X103637308Y-64434988D01*
X103622127Y-64413200D01*
X103435959Y-64146000D01*
X103434043Y-64137255D01*
X103437813Y-64130546D01*
X103692256Y-63905838D01*
X103700725Y-63902931D01*
X103707743Y-63905838D01*
G37*
%TD.AperFunction*%
%TD*%
%TA.AperFunction,Conductor*%
%TO.N,/DDR/DDR_BA1*%
G36*
X102184780Y-73865827D02*
G01*
X102186107Y-73867412D01*
X102387454Y-74156396D01*
X102389371Y-74165143D01*
X102385599Y-74171854D01*
X102131160Y-74396560D01*
X102122690Y-74399468D01*
X102115670Y-74396560D01*
X101861230Y-74171854D01*
X101857297Y-74163809D01*
X101859373Y-74156399D01*
X102060724Y-73867410D01*
X102068265Y-73862583D01*
X102070323Y-73862400D01*
X102176507Y-73862400D01*
X102184780Y-73865827D01*
G37*
%TD.AperFunction*%
%TD*%
%TA.AperFunction,Conductor*%
%TO.N,/DDR/DDR_ODT*%
G36*
X106558342Y-63906238D02*
G01*
X106808088Y-64133424D01*
X106811902Y-64141526D01*
X106809821Y-64148759D01*
X106589240Y-64465981D01*
X106581703Y-64470817D01*
X106572954Y-64468907D01*
X106571361Y-64467574D01*
X106497857Y-64394070D01*
X106497241Y-64393405D01*
X106283294Y-64143454D01*
X106280518Y-64134941D01*
X106284575Y-64126957D01*
X106284574Y-64126957D01*
X106542865Y-63906001D01*
X106551378Y-63903228D01*
X106558342Y-63906238D01*
G37*
%TD.AperFunction*%
%TD*%
%TA.AperFunction,Conductor*%
%TO.N,/DDR/DDR_CASN*%
G36*
X109568056Y-66949287D02*
G01*
X109745840Y-67241518D01*
X109747212Y-67250367D01*
X109743472Y-67256471D01*
X109496209Y-67469059D01*
X109487701Y-67471854D01*
X109480483Y-67468631D01*
X109252921Y-67250367D01*
X109213601Y-67212653D01*
X109210003Y-67204453D01*
X109210000Y-67204209D01*
X109210000Y-67098535D01*
X109213427Y-67090262D01*
X109217116Y-67087770D01*
X109553479Y-66944602D01*
X109562432Y-66944516D01*
X109568056Y-66949287D01*
G37*
%TD.AperFunction*%
%TD*%
%TA.AperFunction,Conductor*%
%TO.N,VDD_CORE*%
G36*
X79223455Y-64404135D02*
G01*
X79228023Y-64411836D01*
X79228142Y-64413500D01*
X79228142Y-64597602D01*
X79227200Y-64602202D01*
X79123074Y-64845704D01*
X79116670Y-64851964D01*
X79111237Y-64852754D01*
X78781534Y-64822229D01*
X78773612Y-64818054D01*
X78770939Y-64809799D01*
X78793568Y-64471785D01*
X78797540Y-64463761D01*
X78803574Y-64460988D01*
X79214779Y-64401919D01*
X79223455Y-64404135D01*
G37*
%TD.AperFunction*%
%TD*%
%TA.AperFunction,Conductor*%
%TO.N,/DDR/DDR_CKE*%
G36*
X100443226Y-74132416D02*
G01*
X100782598Y-74329816D01*
X100788026Y-74336938D01*
X100788415Y-74339930D01*
X100788415Y-74444702D01*
X100784988Y-74452975D01*
X100782380Y-74454939D01*
X100443147Y-74642658D01*
X100434249Y-74643665D01*
X100428850Y-74640319D01*
X100257420Y-74452975D01*
X100204641Y-74395297D01*
X100201585Y-74386882D01*
X100204642Y-74379502D01*
X100428712Y-74134631D01*
X100436825Y-74130841D01*
X100443226Y-74132416D01*
G37*
%TD.AperFunction*%
%TD*%
%TA.AperFunction,Conductor*%
%TO.N,VDD_CORE*%
G36*
X83253043Y-71326527D02*
G01*
X83260614Y-71331307D01*
X83262743Y-71337458D01*
X83280156Y-71677303D01*
X83277157Y-71685741D01*
X83270525Y-71689420D01*
X82949728Y-71746631D01*
X82940982Y-71744710D01*
X82939401Y-71743386D01*
X82807336Y-71611321D01*
X82803909Y-71603048D01*
X82804462Y-71599493D01*
X82907230Y-71277244D01*
X82913008Y-71270405D01*
X82920359Y-71269271D01*
X83253043Y-71326527D01*
G37*
%TD.AperFunction*%
%TD*%
%TA.AperFunction,Conductor*%
%TO.N,VDD_CORE*%
G36*
X84041380Y-68848874D02*
G01*
X84049491Y-68852668D01*
X84052368Y-68858479D01*
X84112543Y-69191130D01*
X84110644Y-69199881D01*
X84105252Y-69204125D01*
X83756837Y-69338940D01*
X83747885Y-69338729D01*
X83744342Y-69336301D01*
X83612876Y-69204835D01*
X83609449Y-69196562D01*
X83609737Y-69193981D01*
X83689505Y-68842709D01*
X83694678Y-68835402D01*
X83701437Y-68833614D01*
X84041380Y-68848874D01*
G37*
%TD.AperFunction*%
%TD*%
%TA.AperFunction,Conductor*%
%TO.N,Net-(U301A-VREF+)*%
G36*
X74857296Y-71054825D02*
G01*
X75122398Y-71266455D01*
X75126726Y-71274295D01*
X75125422Y-71281105D01*
X74953304Y-71603806D01*
X74946387Y-71609493D01*
X74942981Y-71610000D01*
X74757019Y-71610000D01*
X74748746Y-71606573D01*
X74746696Y-71603806D01*
X74574577Y-71281105D01*
X74573707Y-71272193D01*
X74577599Y-71266457D01*
X74842702Y-71054825D01*
X74851304Y-71052343D01*
X74857296Y-71054825D01*
G37*
%TD.AperFunction*%
%TD*%
%TA.AperFunction,Conductor*%
%TO.N,VDD_CORE*%
G36*
X84079201Y-72683922D02*
G01*
X84351517Y-72815990D01*
X84556085Y-72915201D01*
X84562033Y-72921894D01*
X84561802Y-72930172D01*
X84452890Y-73195389D01*
X84446577Y-73201741D01*
X84445164Y-73202228D01*
X84149643Y-73283333D01*
X84140757Y-73282218D01*
X84135883Y-73276866D01*
X83933618Y-72829079D01*
X83933336Y-72820129D01*
X83936006Y-72815992D01*
X84065823Y-72686175D01*
X84074095Y-72682749D01*
X84079201Y-72683922D01*
G37*
%TD.AperFunction*%
%TD*%
%TA.AperFunction,Conductor*%
%TO.N,SDMMC2_NRST*%
G36*
X75200310Y-57060827D02*
G01*
X75201871Y-57062762D01*
X75387967Y-57351499D01*
X75389569Y-57360309D01*
X75385878Y-57366607D01*
X75131160Y-57591560D01*
X75122690Y-57594468D01*
X75115670Y-57591560D01*
X74860951Y-57366607D01*
X74857018Y-57358562D01*
X74858861Y-57351501D01*
X75044959Y-57062761D01*
X75052321Y-57057664D01*
X75054793Y-57057400D01*
X75192037Y-57057400D01*
X75200310Y-57060827D01*
G37*
%TD.AperFunction*%
%TD*%
%TA.AperFunction,Conductor*%
%TO.N,/DDR/DDR_A3*%
G36*
X102744482Y-63898106D02*
G01*
X102751967Y-63903021D01*
X102753114Y-63905156D01*
X102857419Y-64159236D01*
X102857391Y-64168190D01*
X102851099Y-64174478D01*
X102357688Y-64380249D01*
X102348734Y-64380270D01*
X102344912Y-64377723D01*
X102271952Y-64304763D01*
X102268525Y-64296490D01*
X102269193Y-64292593D01*
X102426648Y-63847632D01*
X102432639Y-63840978D01*
X102439868Y-63840044D01*
X102744482Y-63898106D01*
G37*
%TD.AperFunction*%
%TD*%
%TA.AperFunction,Conductor*%
%TO.N,VDD_CORE*%
G36*
X78460162Y-64745131D02*
G01*
X78761822Y-64818038D01*
X78769057Y-64823313D01*
X78770695Y-64830755D01*
X78731802Y-65167098D01*
X78727447Y-65174923D01*
X78721232Y-65177406D01*
X78333972Y-65212410D01*
X78325424Y-65209742D01*
X78324646Y-65209031D01*
X78194548Y-65078933D01*
X78191121Y-65070660D01*
X78193729Y-65063297D01*
X78448326Y-64749138D01*
X78456196Y-64744869D01*
X78460162Y-64745131D01*
G37*
%TD.AperFunction*%
%TD*%
%TA.AperFunction,Conductor*%
%TO.N,/DDR/DDR_A13*%
G36*
X98944645Y-63897867D02*
G01*
X98951913Y-63903096D01*
X98952909Y-63905119D01*
X99048826Y-64158909D01*
X99048546Y-64167859D01*
X99042018Y-64173989D01*
X99041873Y-64174043D01*
X98527482Y-64360698D01*
X98518536Y-64360299D01*
X98515218Y-64357973D01*
X98442340Y-64285095D01*
X98438913Y-64276822D01*
X98439842Y-64272254D01*
X98483206Y-64170000D01*
X98626150Y-63832928D01*
X98632533Y-63826651D01*
X98639599Y-63826109D01*
X98944645Y-63897867D01*
G37*
%TD.AperFunction*%
%TD*%
%TA.AperFunction,Conductor*%
%TO.N,GND*%
G36*
X77082169Y-71437548D02*
G01*
X77201264Y-71580383D01*
X77294752Y-71692507D01*
X77297418Y-71701056D01*
X77294752Y-71707493D01*
X77082171Y-71962450D01*
X77074241Y-71966609D01*
X77068277Y-71965578D01*
X76716792Y-71803138D01*
X76710719Y-71796556D01*
X76710000Y-71792517D01*
X76710000Y-71607482D01*
X76713427Y-71599209D01*
X76716792Y-71596861D01*
X77068279Y-71434420D01*
X77077224Y-71434061D01*
X77082169Y-71437548D01*
G37*
%TD.AperFunction*%
%TD*%
%TA.AperFunction,Conductor*%
%TO.N,SDMMC2_NRST*%
G36*
X74398219Y-57322393D02*
G01*
X74737582Y-57519020D01*
X74743021Y-57526132D01*
X74743415Y-57529143D01*
X74743415Y-57664945D01*
X74739988Y-57673218D01*
X74736659Y-57675549D01*
X74397857Y-57833496D01*
X74388910Y-57833886D01*
X74384281Y-57830790D01*
X74239345Y-57672400D01*
X74159641Y-57585297D01*
X74156585Y-57576882D01*
X74159642Y-57569502D01*
X74205837Y-57519019D01*
X74383723Y-57324619D01*
X74391836Y-57320829D01*
X74398219Y-57322393D01*
G37*
%TD.AperFunction*%
%TD*%
%TA.AperFunction,Conductor*%
%TO.N,SDMMC2_NRST*%
G36*
X74892829Y-57344316D02*
G01*
X75117187Y-57589502D01*
X75120244Y-57597918D01*
X75117187Y-57605298D01*
X74892829Y-57850483D01*
X74884715Y-57854274D01*
X74878777Y-57852954D01*
X74758947Y-57790307D01*
X74539694Y-57675682D01*
X74533950Y-57668812D01*
X74533415Y-57665313D01*
X74533415Y-57529486D01*
X74536842Y-57521213D01*
X74539692Y-57519118D01*
X74878779Y-57341844D01*
X74887696Y-57341049D01*
X74892829Y-57344316D01*
G37*
%TD.AperFunction*%
%TD*%
%TA.AperFunction,Conductor*%
%TO.N,/DDR/DDR_A11*%
G36*
X103159780Y-73840827D02*
G01*
X103161107Y-73842412D01*
X103362454Y-74131396D01*
X103364371Y-74140143D01*
X103360599Y-74146854D01*
X103106160Y-74371560D01*
X103097690Y-74374468D01*
X103090670Y-74371560D01*
X102836230Y-74146854D01*
X102832297Y-74138809D01*
X102834373Y-74131399D01*
X103035724Y-73842410D01*
X103043265Y-73837583D01*
X103045323Y-73837400D01*
X103151507Y-73837400D01*
X103159780Y-73840827D01*
G37*
%TD.AperFunction*%
%TD*%
%TA.AperFunction,Conductor*%
%TO.N,/DDR/DDR_RASN*%
G36*
X109555236Y-67932976D02*
G01*
X109658884Y-68087589D01*
X109740408Y-68209200D01*
X109745372Y-68216604D01*
X109747133Y-68225384D01*
X109743513Y-68231787D01*
X109498059Y-68454330D01*
X109489628Y-68457348D01*
X109482373Y-68454358D01*
X109213873Y-68212686D01*
X109210016Y-68204604D01*
X109210000Y-68203990D01*
X109210000Y-68098096D01*
X109213427Y-68089823D01*
X109216550Y-68087591D01*
X109540372Y-67928983D01*
X109549309Y-67928422D01*
X109555236Y-67932976D01*
G37*
%TD.AperFunction*%
%TD*%
%TA.AperFunction,Conductor*%
%TO.N,GND*%
G36*
X77376360Y-72429976D02*
G01*
X77695170Y-72468727D01*
X77702969Y-72473128D01*
X77705436Y-72479631D01*
X77726073Y-72818475D01*
X77723156Y-72826941D01*
X77715451Y-72830838D01*
X77385395Y-72860753D01*
X77376846Y-72858087D01*
X77373916Y-72854416D01*
X77233150Y-72578284D01*
X77232447Y-72569358D01*
X77235300Y-72564700D01*
X77366682Y-72433318D01*
X77374954Y-72429892D01*
X77376360Y-72429976D01*
G37*
%TD.AperFunction*%
%TD*%
%TA.AperFunction,Conductor*%
%TO.N,/DDR/DDR_CSN*%
G36*
X107507119Y-63907208D02*
G01*
X107644484Y-64076753D01*
X107708287Y-64155505D01*
X107710832Y-64164090D01*
X107707162Y-64171440D01*
X107433451Y-64425853D01*
X107425058Y-64428975D01*
X107417212Y-64425556D01*
X107342566Y-64350910D01*
X107340694Y-64348466D01*
X107234709Y-64163999D01*
X107195979Y-64096589D01*
X107194830Y-64087709D01*
X107200077Y-64080746D01*
X107491986Y-63904556D01*
X107500838Y-63903216D01*
X107507119Y-63907208D01*
G37*
%TD.AperFunction*%
%TD*%
%TA.AperFunction,Conductor*%
%TO.N,GND*%
G36*
X76081719Y-71434420D02*
G01*
X76433208Y-71596861D01*
X76439281Y-71603443D01*
X76440000Y-71607482D01*
X76440000Y-71792517D01*
X76436573Y-71800790D01*
X76433208Y-71803138D01*
X76081722Y-71965578D01*
X76072775Y-71965938D01*
X76067829Y-71962451D01*
X75855246Y-71707491D01*
X75852581Y-71698944D01*
X75855246Y-71692508D01*
X76067830Y-71437547D01*
X76075758Y-71433390D01*
X76081719Y-71434420D01*
G37*
%TD.AperFunction*%
%TD*%
%TA.AperFunction,Conductor*%
%TO.N,/DDR/DDR_BA2*%
G36*
X105607743Y-63905838D02*
G01*
X105862184Y-64130544D01*
X105866117Y-64138589D01*
X105864039Y-64146002D01*
X105662692Y-64434988D01*
X105655151Y-64439817D01*
X105653092Y-64440000D01*
X105546908Y-64440000D01*
X105538635Y-64436573D01*
X105537308Y-64434988D01*
X105522127Y-64413200D01*
X105335959Y-64146000D01*
X105334043Y-64137255D01*
X105337813Y-64130546D01*
X105592256Y-63905838D01*
X105600725Y-63902931D01*
X105607743Y-63905838D01*
G37*
%TD.AperFunction*%
%TD*%
%TA.AperFunction,Conductor*%
%TO.N,VDD_CORE*%
G36*
X83649271Y-64780051D02*
G01*
X83652831Y-64785753D01*
X83771369Y-65219718D01*
X83770243Y-65228602D01*
X83763165Y-65234088D01*
X83760082Y-65234501D01*
X83577011Y-65234501D01*
X83573864Y-65234070D01*
X83277041Y-65151172D01*
X83269994Y-65145646D01*
X83268538Y-65138824D01*
X83299078Y-64808957D01*
X83303253Y-64801035D01*
X83309978Y-64798360D01*
X83640796Y-64777160D01*
X83649271Y-64780051D01*
G37*
%TD.AperFunction*%
%TD*%
%TA.AperFunction,Conductor*%
%TO.N,VDD_CORE*%
G36*
X81929787Y-69283925D02*
G01*
X81932499Y-69285946D01*
X82063993Y-69417440D01*
X82067420Y-69425713D01*
X82066895Y-69429178D01*
X81958399Y-69779042D01*
X81952675Y-69785929D01*
X81945862Y-69787197D01*
X81609099Y-69747731D01*
X81601281Y-69743365D01*
X81598828Y-69737357D01*
X81567416Y-69444058D01*
X81568916Y-69436965D01*
X81579520Y-69418599D01*
X81587640Y-69388292D01*
X81593088Y-69381193D01*
X81595581Y-69380118D01*
X81920882Y-69283008D01*
X81929787Y-69283925D01*
G37*
%TD.AperFunction*%
%TD*%
%TA.AperFunction,Conductor*%
%TO.N,/DDR/DDR_CKE*%
G36*
X100918049Y-74139556D02*
G01*
X101142187Y-74384502D01*
X101145244Y-74392918D01*
X101142187Y-74400298D01*
X100918049Y-74645243D01*
X100909935Y-74649034D01*
X100903642Y-74647521D01*
X100564340Y-74454962D01*
X100558836Y-74447898D01*
X100558415Y-74444786D01*
X100558415Y-74340013D01*
X100561842Y-74331740D01*
X100564337Y-74329838D01*
X100903644Y-74137277D01*
X100912529Y-74136175D01*
X100918049Y-74139556D01*
G37*
%TD.AperFunction*%
%TD*%
%TA.AperFunction,Conductor*%
%TO.N,VDD_CORE*%
G36*
X83291427Y-64798252D02*
G01*
X83299265Y-64802579D01*
X83301748Y-64808574D01*
X83339557Y-65145672D01*
X83337074Y-65154275D01*
X83331336Y-65158169D01*
X82981446Y-65264646D01*
X82972534Y-65263776D01*
X82969767Y-65261726D01*
X82838273Y-65130232D01*
X82834846Y-65121959D01*
X82835352Y-65118557D01*
X82941829Y-64768663D01*
X82947516Y-64761747D01*
X82954326Y-64760443D01*
X83291427Y-64798252D01*
G37*
%TD.AperFunction*%
%TD*%
%TA.AperFunction,Conductor*%
%TO.N,VDD_CORE*%
G36*
X81741520Y-66397631D02*
G01*
X81749051Y-66402476D01*
X81751125Y-66408619D01*
X81766385Y-66748560D01*
X81763333Y-66756979D01*
X81757288Y-66760495D01*
X81406028Y-66840260D01*
X81397201Y-66838750D01*
X81395164Y-66837123D01*
X81263698Y-66705657D01*
X81260271Y-66697384D01*
X81261058Y-66693166D01*
X81389331Y-66361654D01*
X81394392Y-66355747D01*
X81418252Y-66341971D01*
X81426183Y-66340590D01*
X81741520Y-66397631D01*
G37*
%TD.AperFunction*%
%TD*%
%TA.AperFunction,Conductor*%
%TO.N,/DDR/DDR_BA0*%
G36*
X104657743Y-63905838D02*
G01*
X104912184Y-64130544D01*
X104916117Y-64138589D01*
X104914039Y-64146002D01*
X104712692Y-64434988D01*
X104705151Y-64439817D01*
X104703092Y-64440000D01*
X104596908Y-64440000D01*
X104588635Y-64436573D01*
X104587308Y-64434988D01*
X104572127Y-64413200D01*
X104385959Y-64146000D01*
X104384043Y-64137255D01*
X104387813Y-64130546D01*
X104642256Y-63905838D01*
X104650725Y-63902931D01*
X104657743Y-63905838D01*
G37*
%TD.AperFunction*%
%TD*%
%TA.AperFunction,Conductor*%
%TO.N,VDD_CORE*%
G36*
X80137732Y-66407048D02*
G01*
X80145539Y-66411432D01*
X80147979Y-66417446D01*
X80183344Y-66755037D01*
X80180798Y-66763622D01*
X80175027Y-66767475D01*
X79825120Y-66870999D01*
X79816215Y-66870060D01*
X79813528Y-66868053D01*
X79682034Y-66736559D01*
X79678607Y-66728286D01*
X79679138Y-66724799D01*
X79788566Y-66374944D01*
X79794307Y-66368072D01*
X79801119Y-66366821D01*
X80137732Y-66407048D01*
G37*
%TD.AperFunction*%
%TD*%
%TA.AperFunction,Conductor*%
%TO.N,Net-(U1-CLK)*%
G36*
X81110310Y-56390827D02*
G01*
X81111871Y-56392762D01*
X81297967Y-56681499D01*
X81299569Y-56690309D01*
X81295878Y-56696607D01*
X81041160Y-56921560D01*
X81032690Y-56924468D01*
X81025670Y-56921560D01*
X80770951Y-56696607D01*
X80767018Y-56688562D01*
X80768861Y-56681501D01*
X80954959Y-56392761D01*
X80962321Y-56387664D01*
X80964793Y-56387400D01*
X81102037Y-56387400D01*
X81110310Y-56390827D01*
G37*
%TD.AperFunction*%
%TD*%
%TA.AperFunction,Conductor*%
%TO.N,/DDR/DDR_A7*%
G36*
X97959081Y-63904931D02*
G01*
X98241627Y-64095155D01*
X98246576Y-64102618D01*
X98245535Y-64110138D01*
X98070864Y-64455722D01*
X98064074Y-64461560D01*
X98055144Y-64460886D01*
X98052149Y-64458717D01*
X97979858Y-64386426D01*
X97979838Y-64386408D01*
X97722460Y-64167502D01*
X97718378Y-64159532D01*
X97721128Y-64151010D01*
X97721396Y-64150706D01*
X97758398Y-64110138D01*
X97943904Y-63906751D01*
X97952010Y-63902948D01*
X97959081Y-63904931D01*
G37*
%TD.AperFunction*%
%TD*%
%TA.AperFunction,Conductor*%
%TO.N,/MPU_PWR/VDDA*%
G36*
X77034823Y-70512240D02*
G01*
X77293426Y-70733519D01*
X77297484Y-70741502D01*
X77295804Y-70748507D01*
X77134117Y-71013258D01*
X77126881Y-71018533D01*
X77122209Y-71018701D01*
X76719777Y-70951629D01*
X76712179Y-70946888D01*
X76710000Y-70940088D01*
X76710000Y-70755766D01*
X76713427Y-70747493D01*
X76714574Y-70746487D01*
X76731460Y-70733519D01*
X77020094Y-70511851D01*
X77028740Y-70509530D01*
X77034823Y-70512240D01*
G37*
%TD.AperFunction*%
%TD*%
%TA.AperFunction,Conductor*%
%TO.N,/DDR/DDR_WEN*%
G36*
X109511453Y-66024882D02*
G01*
X109743511Y-66266792D01*
X109746765Y-66275134D01*
X109744106Y-66282321D01*
X109526969Y-66546423D01*
X109519067Y-66550638D01*
X109510503Y-66548033D01*
X109264013Y-66345503D01*
X109263168Y-66344736D01*
X109189381Y-66270949D01*
X109185954Y-66262676D01*
X109189381Y-66254403D01*
X109190621Y-66253326D01*
X109495979Y-66023630D01*
X109504648Y-66021396D01*
X109511453Y-66024882D01*
G37*
%TD.AperFunction*%
%TD*%
%TA.AperFunction,Conductor*%
%TO.N,/DDR/DDR_A2*%
G36*
X101808202Y-63907350D02*
G01*
X102033349Y-64149373D01*
X102036475Y-64157764D01*
X102033570Y-64165067D01*
X101786460Y-64446130D01*
X101778424Y-64450081D01*
X101769948Y-64447192D01*
X101769400Y-64446678D01*
X101695155Y-64372433D01*
X101693956Y-64371028D01*
X101526003Y-64139372D01*
X101523921Y-64130662D01*
X101528043Y-64123468D01*
X101792208Y-63906280D01*
X101800772Y-63903674D01*
X101808202Y-63907350D01*
G37*
%TD.AperFunction*%
%TD*%
%TA.AperFunction,Conductor*%
%TO.N,VDD_CORE*%
G36*
X83470937Y-64829629D02*
G01*
X83740524Y-65102916D01*
X83743895Y-65111213D01*
X83741731Y-65117912D01*
X83548014Y-65390426D01*
X83540428Y-65395183D01*
X83531699Y-65393183D01*
X83531003Y-65392648D01*
X83276240Y-65181061D01*
X83272065Y-65173139D01*
X83272329Y-65169365D01*
X83320535Y-64965947D01*
X83323645Y-64960375D01*
X83454392Y-64829628D01*
X83462664Y-64826202D01*
X83470937Y-64829629D01*
G37*
%TD.AperFunction*%
%TD*%
%TA.AperFunction,Conductor*%
%TO.N,VDD_CORE*%
G36*
X82449150Y-68752810D02*
G01*
X82452785Y-68759093D01*
X82523048Y-69090342D01*
X82521413Y-69099146D01*
X82517580Y-69102828D01*
X82207550Y-69287044D01*
X82198687Y-69288324D01*
X82193300Y-69285259D01*
X82062259Y-69154218D01*
X82058832Y-69145945D01*
X82058896Y-69144725D01*
X82097647Y-68778400D01*
X82101924Y-68770535D01*
X82108642Y-68767950D01*
X82440704Y-68749838D01*
X82449150Y-68752810D01*
G37*
%TD.AperFunction*%
%TD*%
%TA.AperFunction,Conductor*%
%TO.N,SDMMC2_CK*%
G36*
X81040546Y-57953692D02*
G01*
X81244234Y-58161972D01*
X81273983Y-58192391D01*
X81277317Y-58200701D01*
X81274825Y-58207791D01*
X81059078Y-58482920D01*
X81051276Y-58487315D01*
X81049871Y-58487400D01*
X80918374Y-58487400D01*
X80910101Y-58483973D01*
X80907990Y-58481090D01*
X80746936Y-58170826D01*
X80746166Y-58161905D01*
X80750356Y-58156035D01*
X81025219Y-57952469D01*
X81033906Y-57950300D01*
X81040546Y-57953692D01*
G37*
%TD.AperFunction*%
%TD*%
M02*
