%TF.GenerationSoftware,KiCad,Pcbnew,9.0.2*%
%TF.CreationDate,2025-06-19T13:39:27-06:00*%
%TF.ProjectId,MPU_MOD,4d50555f-4d4f-4442-9e6b-696361645f70,rev?*%
%TF.SameCoordinates,Original*%
%TF.FileFunction,Copper,L3,Inr*%
%TF.FilePolarity,Positive*%
%FSLAX46Y46*%
G04 Gerber Fmt 4.6, Leading zero omitted, Abs format (unit mm)*
G04 Created by KiCad (PCBNEW 9.0.2) date 2025-06-19 13:39:27*
%MOMM*%
%LPD*%
G01*
G04 APERTURE LIST*
G04 Aperture macros list*
%AMFreePoly0*
4,1,229,0.026192,1.103996,0.026383,1.103985,0.052383,1.101985,0.052573,1.101967,0.078573,1.098967,0.078944,1.098910,0.104944,1.093910,0.105167,1.093862,0.130167,1.087862,0.130300,1.087828,0.156300,1.080828,0.156756,1.080682,0.180756,1.071682,0.180923,1.071615,0.204923,1.061615,0.205083,1.061545,0.229083,1.050545,0.229460,1.050353,0.252460,1.037353,0.252684,1.037218,
0.296684,1.009218,0.297030,1.008977,0.318030,0.992977,0.318238,0.992810,0.338238,0.975810,0.338439,0.975630,0.357439,0.957630,0.357630,0.957439,0.375630,0.938439,0.375810,0.938238,0.392810,0.918238,0.392977,0.918030,0.408977,0.897030,0.409218,0.896684,0.437218,0.852684,0.437353,0.852460,0.450353,0.829460,0.450545,0.829083,0.461545,0.805083,0.461615,0.804923,
0.471615,0.780923,0.471682,0.780756,0.480682,0.756756,0.480828,0.756300,0.487828,0.730300,0.487862,0.730167,0.493862,0.705167,0.493910,0.704944,0.498910,0.678944,0.498967,0.678573,0.501967,0.652573,0.501985,0.652383,0.503985,0.626383,0.503996,0.626192,0.504996,0.600192,0.505000,0.600000,0.505000,-0.600000,0.504996,-0.600192,0.503996,-0.626192,0.503985,-0.626383,
0.501985,-0.652383,0.501967,-0.652573,0.498967,-0.678573,0.498910,-0.678944,0.493910,-0.704944,0.493862,-0.705167,0.487862,-0.730167,0.487828,-0.730300,0.480828,-0.756300,0.480682,-0.756756,0.471682,-0.780756,0.471615,-0.780923,0.461615,-0.804923,0.461545,-0.805083,0.450545,-0.829083,0.450353,-0.829460,0.437353,-0.852460,0.437218,-0.852684,0.409218,-0.896684,0.408977,-0.897030,
0.392977,-0.918030,0.392810,-0.918238,0.375810,-0.938238,0.375630,-0.938439,0.357630,-0.957439,0.357439,-0.957630,0.338439,-0.975630,0.338238,-0.975810,0.318238,-0.992810,0.318030,-0.992977,0.297030,-1.008977,0.296684,-1.009218,0.252684,-1.037218,0.252460,-1.037353,0.229460,-1.050353,0.229083,-1.050545,0.205083,-1.061545,0.204923,-1.061615,0.180923,-1.071615,0.180756,-1.071682,
0.156756,-1.080682,0.156300,-1.080828,0.130300,-1.087828,0.130167,-1.087862,0.105167,-1.093862,0.104944,-1.093910,0.078944,-1.098910,0.078573,-1.098967,0.052573,-1.101967,0.052383,-1.101985,0.026383,-1.103985,0.026192,-1.103996,0.000192,-1.104996,-0.000192,-1.104996,-0.026192,-1.103996,-0.026383,-1.103985,-0.052383,-1.101985,-0.052573,-1.101967,-0.078573,-1.098967,-0.078944,-1.098910,
-0.104944,-1.093910,-0.105167,-1.093862,-0.130167,-1.087862,-0.130300,-1.087828,-0.156300,-1.080828,-0.156756,-1.080682,-0.180756,-1.071682,-0.180923,-1.071615,-0.204923,-1.061615,-0.205083,-1.061545,-0.229083,-1.050545,-0.229460,-1.050353,-0.252460,-1.037353,-0.252684,-1.037218,-0.296684,-1.009218,-0.297030,-1.008977,-0.318030,-0.992977,-0.318238,-0.992810,-0.338238,-0.975810,-0.338439,-0.975630,
-0.357439,-0.957630,-0.357630,-0.957439,-0.375630,-0.938439,-0.375810,-0.938238,-0.392810,-0.918238,-0.392977,-0.918030,-0.408977,-0.897030,-0.409218,-0.896684,-0.437218,-0.852684,-0.437353,-0.852460,-0.450353,-0.829460,-0.450545,-0.829083,-0.461545,-0.805083,-0.461615,-0.804923,-0.471615,-0.780923,-0.471682,-0.780756,-0.480682,-0.756756,-0.480828,-0.756300,-0.487828,-0.730300,-0.487862,-0.730167,
-0.493862,-0.705167,-0.493910,-0.704944,-0.498910,-0.678944,-0.498967,-0.678573,-0.501967,-0.652573,-0.501985,-0.652383,-0.503985,-0.626383,-0.503996,-0.626192,-0.504996,-0.600192,-0.505000,-0.600000,-0.505000,0.600000,-0.504996,0.600192,-0.503996,0.626192,-0.503985,0.626383,-0.501985,0.652383,-0.501967,0.652573,-0.498967,0.678573,-0.498910,0.678944,-0.493910,0.704944,-0.493862,0.705167,
-0.487862,0.730167,-0.487828,0.730300,-0.480828,0.756300,-0.480682,0.756756,-0.471682,0.780756,-0.471615,0.780923,-0.461615,0.804923,-0.461545,0.805083,-0.450545,0.829083,-0.450353,0.829460,-0.437353,0.852460,-0.437218,0.852684,-0.409218,0.896684,-0.408977,0.897030,-0.392977,0.918030,-0.392810,0.918238,-0.375810,0.938238,-0.375630,0.938439,-0.357630,0.957439,-0.357439,0.957630,
-0.338439,0.975630,-0.338238,0.975810,-0.318238,0.992810,-0.318030,0.992977,-0.297030,1.008977,-0.296684,1.009218,-0.252684,1.037218,-0.252460,1.037353,-0.229460,1.050353,-0.229083,1.050545,-0.205083,1.061545,-0.204923,1.061615,-0.180923,1.071615,-0.180756,1.071682,-0.156756,1.080682,-0.156300,1.080828,-0.130300,1.087828,-0.130167,1.087862,-0.105167,1.093862,-0.104944,1.093910,
-0.078944,1.098910,-0.078573,1.098967,-0.052573,1.101967,-0.052383,1.101985,-0.026383,1.103985,-0.026192,1.103996,-0.000192,1.104996,0.000192,1.104996,0.026192,1.103996,0.026192,1.103996,$1*%
G04 Aperture macros list end*
%TA.AperFunction,ComponentPad*%
%ADD10C,0.900000*%
%TD*%
%TA.AperFunction,ComponentPad*%
%ADD11R,0.850000X0.850000*%
%TD*%
%TA.AperFunction,ComponentPad*%
%ADD12C,0.850000*%
%TD*%
%TA.AperFunction,ComponentPad*%
%ADD13O,1.000000X1.800000*%
%TD*%
%TA.AperFunction,ComponentPad*%
%ADD14FreePoly0,0.000000*%
%TD*%
%TA.AperFunction,ComponentPad*%
%ADD15C,0.499999*%
%TD*%
%TA.AperFunction,ViaPad*%
%ADD16C,0.400000*%
%TD*%
%TA.AperFunction,Conductor*%
%ADD17C,0.118400*%
%TD*%
%TA.AperFunction,Conductor*%
%ADD18C,0.123952*%
%TD*%
%TA.AperFunction,Conductor*%
%ADD19C,0.144300*%
%TD*%
G04 APERTURE END LIST*
D10*
%TO.N,unconnected-(S601-Pad2C)*%
%TO.C,S601*%
X69225000Y-54462500D03*
%TO.N,unconnected-(S601-Pad2D)*%
X69225000Y-58512500D03*
%TD*%
%TO.N,unconnected-(S605-Pad2C)*%
%TO.C,S605*%
X69225000Y-36362500D03*
%TO.N,unconnected-(S605-Pad2D)*%
X69225000Y-40412500D03*
%TD*%
%TO.N,GND*%
%TO.C,S701*%
X53052500Y-101860000D03*
X53052500Y-105910000D03*
%TD*%
%TO.N,unconnected-(S603-Pad2C)*%
%TO.C,S603*%
X69225000Y-48362500D03*
%TO.N,unconnected-(S603-Pad2D)*%
X69225000Y-52412500D03*
%TD*%
D11*
%TO.N,+BATT*%
%TO.C,BT201*%
X71050000Y-87288207D03*
D12*
%TO.N,Net-(BT201--)*%
X70050000Y-87288207D03*
%TD*%
D10*
%TO.N,unconnected-(S602-Pad2C)*%
%TO.C,S602*%
X69125000Y-30362500D03*
%TO.N,unconnected-(S602-Pad2D)*%
X69125000Y-34412500D03*
%TD*%
D11*
%TO.N,/PWR/BATT_T*%
%TO.C,TH201*%
X71050000Y-89588207D03*
D12*
%TO.N,GND*%
X70050000Y-89588207D03*
%TD*%
D13*
%TO.N,GND*%
%TO.C,J801*%
X86680000Y-95187500D03*
X95320000Y-95187500D03*
D14*
X86680000Y-99187500D03*
X95320000Y-99187500D03*
%TD*%
D10*
%TO.N,GND*%
%TO.C,S201*%
X44525000Y-114662500D03*
X44525000Y-118712500D03*
%TD*%
%TO.N,unconnected-(S604-Pad2C)*%
%TO.C,S604*%
X69225000Y-42362500D03*
%TO.N,unconnected-(S604-Pad2D)*%
X69225000Y-46412500D03*
%TD*%
D15*
%TO.N,N/C*%
%TO.C,U3*%
X80100000Y-80800000D03*
X81200000Y-81900000D03*
X80100000Y-81900000D03*
X79000000Y-81900000D03*
X80100000Y-83000000D03*
%TD*%
D16*
%TO.N,GND*%
X81273008Y-72476992D03*
X76350000Y-89283207D03*
X85273007Y-68476993D03*
X79698007Y-69301993D03*
X70750000Y-91088207D03*
X85273008Y-70076992D03*
X80850000Y-88375707D03*
X83648007Y-70051993D03*
X75450000Y-89283207D03*
X69350000Y-95713207D03*
X77250000Y-89283207D03*
X82898007Y-69301993D03*
X78073008Y-69276992D03*
X70450000Y-91488207D03*
X81298007Y-69301993D03*
X70150000Y-91888207D03*
X76350000Y-88500707D03*
X78873007Y-66876993D03*
X84750000Y-95388207D03*
X78923007Y-71726993D03*
X83748007Y-71751993D03*
X85273007Y-65276993D03*
X78150000Y-89283207D03*
X74550000Y-88500707D03*
X80150000Y-88888207D03*
X80473007Y-68476993D03*
X78898008Y-70101992D03*
X83150000Y-89288207D03*
X81273007Y-66076993D03*
X80448007Y-70051993D03*
X77122500Y-100178207D03*
X72650000Y-88500707D03*
X84750000Y-96788207D03*
X79350000Y-88375707D03*
X78022500Y-100178207D03*
X78150000Y-88500707D03*
X72675000Y-89283207D03*
X70150000Y-91088207D03*
X79600000Y-66000000D03*
X77273007Y-65276993D03*
X78073007Y-67676993D03*
X82848007Y-70851993D03*
X79673008Y-70876992D03*
X71050000Y-95388207D03*
X84473007Y-72476993D03*
X83750000Y-89288207D03*
X77300000Y-72500000D03*
X70150000Y-96188207D03*
X83625000Y-94688207D03*
X78048007Y-70851993D03*
X82350000Y-89013207D03*
X76500000Y-71700000D03*
X73650000Y-88500707D03*
X78898007Y-68501993D03*
X84428822Y-65271178D03*
X69350000Y-91513207D03*
X70750000Y-91888207D03*
X84750000Y-94688207D03*
X79648007Y-72451993D03*
X83648007Y-68451993D03*
X78073007Y-64476993D03*
X77250000Y-88500707D03*
X76122500Y-100178207D03*
X82073007Y-71676993D03*
X83150000Y-88500707D03*
X71050000Y-96188207D03*
X71575000Y-91588207D03*
X73650000Y-89283207D03*
X83750000Y-88500707D03*
X81273007Y-70876993D03*
X85273007Y-66876993D03*
X77273007Y-70076993D03*
X84548008Y-69351992D03*
X77998007Y-66001993D03*
X84500000Y-89038207D03*
X77298007Y-71701993D03*
X81198007Y-67601993D03*
X84750000Y-95988207D03*
X74550000Y-89283207D03*
X85248008Y-71651992D03*
X70150000Y-95388207D03*
X79698007Y-67701993D03*
X80050000Y-87900707D03*
X80498007Y-66901993D03*
X75450000Y-88500707D03*
X71775000Y-95788207D03*
X70550000Y-95788207D03*
X80448008Y-71651992D03*
X82873007Y-72476993D03*
%TO.N,VDD_USB*%
X77122500Y-99218207D03*
X77250000Y-98688207D03*
%TO.N,VDDA*%
X75450000Y-90243207D03*
%TO.N,3V3*%
X69050000Y-93788207D03*
X69550000Y-94788207D03*
X73650000Y-90243207D03*
X69050000Y-94788207D03*
X69350000Y-93063207D03*
X69550000Y-93788207D03*
X75225000Y-91888207D03*
X69550000Y-94288207D03*
X69050000Y-94288207D03*
X70050000Y-94288207D03*
X74887500Y-91550707D03*
X70050000Y-94788207D03*
X70050000Y-93788207D03*
%TO.N,VIN*%
X80825000Y-92613207D03*
X76122500Y-99218207D03*
X74150000Y-92188207D03*
X73125000Y-91588207D03*
X80850000Y-92138207D03*
X76350000Y-90243207D03*
X82350000Y-90563207D03*
X76150000Y-98688207D03*
X74150000Y-92688207D03*
%TO.N,VTT_DDR*%
X79350000Y-90013207D03*
X78950000Y-90488207D03*
%TO.N,VREF_DDR*%
X78150000Y-90243207D03*
%TO.N,VDD_DDR*%
X85273007Y-70876993D03*
X85273007Y-72476993D03*
X85250000Y-90488207D03*
X80225000Y-90438207D03*
X80612500Y-90050707D03*
X85298008Y-66101992D03*
X85300000Y-64500000D03*
X83450000Y-91688207D03*
X83450000Y-90688207D03*
X85273007Y-67676993D03*
X84500000Y-90488207D03*
X83450000Y-90188207D03*
X83450000Y-91188207D03*
X85273007Y-69276993D03*
%TO.N,VDD_CORE*%
X80750000Y-95598207D03*
X83675407Y-65275407D03*
X83648007Y-67651993D03*
X82073008Y-69276992D03*
X79650000Y-64500000D03*
X82098007Y-67701993D03*
X82898008Y-70101992D03*
X77275407Y-66875407D03*
X81850000Y-99488207D03*
X83850000Y-99488207D03*
X81273007Y-65276993D03*
X84450000Y-71650000D03*
X84350000Y-99488207D03*
X84850000Y-99488207D03*
X76550000Y-65350000D03*
X77273007Y-66076993D03*
X80423007Y-69226993D03*
X83350000Y-99488207D03*
X79673007Y-66876993D03*
X81248007Y-66851993D03*
X78100000Y-65300000D03*
X82073007Y-70876993D03*
X78848007Y-67651993D03*
X82850000Y-99488207D03*
X82350000Y-99488207D03*
X82873007Y-71676993D03*
X82848007Y-65251993D03*
X83648007Y-69251993D03*
X83673007Y-72476993D03*
%TO.N,VDD*%
X79673008Y-71676992D03*
X69550000Y-98488207D03*
X78873007Y-69276993D03*
X81298007Y-71701993D03*
X83700000Y-66100000D03*
X69550000Y-98988207D03*
X69350000Y-97263207D03*
X69050000Y-98488207D03*
X78073007Y-70076993D03*
X78675000Y-98813207D03*
X69550000Y-97988207D03*
X78098008Y-71701992D03*
X78873008Y-72476992D03*
X79673007Y-70076993D03*
X78873008Y-70876992D03*
X82073007Y-72476993D03*
X80448007Y-70851993D03*
X69050000Y-98988207D03*
X69050000Y-97988207D03*
X78073007Y-68476993D03*
X70050000Y-97988207D03*
X70050000Y-98488207D03*
X80448008Y-72451992D03*
X70050000Y-98988207D03*
%TO.N,NRST*%
X80075000Y-100198207D03*
%TO.N,PWR_SW_WAKE_UP*%
X77725000Y-90888207D03*
%TO.N,PWR_ON*%
X78975000Y-99938207D03*
%TO.N,/DDR/DDR_A9*%
X98050000Y-65950000D03*
X86900000Y-66050000D03*
%TO.N,PMIC_PA0_WKUP_INTR*%
X78775000Y-99363207D03*
%TO.N,/DDR/DDR_DQ1*%
X106883415Y-66777400D03*
X90963415Y-61627400D03*
%TO.N,/DDR/DDR_DQ4*%
X89350000Y-65750000D03*
X106893415Y-71597400D03*
%TO.N,/DDR/DDR_A7*%
X86900000Y-64450000D03*
X97300000Y-64750000D03*
%TO.N,/DDR/DDR_DQ7*%
X108293415Y-67747400D03*
X90600000Y-62000000D03*
%TO.N,/DDR/DDR_A5*%
X98850000Y-66000000D03*
X86900000Y-66900000D03*
%TO.N,/DDR/DDR_A4*%
X87698415Y-72452400D03*
X98098415Y-72627400D03*
%TO.N,/DDR/DDR_BA0*%
X100473415Y-65977400D03*
X89500000Y-66350000D03*
%TO.N,/DDR/DDR_A1*%
X98873415Y-70737400D03*
X86873415Y-70077400D03*
%TO.N,/DDR/DDR_A6*%
X97250000Y-73550000D03*
X86898415Y-71702400D03*
%TO.N,/DDR/DDR_DQ6*%
X106003415Y-69917400D03*
X89400000Y-64025000D03*
%TO.N,/DDR/DDR_WEN*%
X100875000Y-67767400D03*
X86883415Y-68467400D03*
%TO.N,/DDR/DDR_A14*%
X87673415Y-71627400D03*
X95650000Y-72400000D03*
%TO.N,/DDR/DDR_DQM0*%
X106083415Y-67637400D03*
X90125000Y-62400000D03*
%TO.N,/DDR/DDR_RASN*%
X88493415Y-69237400D03*
X102063415Y-67627400D03*
%TO.N,/DDR/DDR_A0*%
X99700000Y-66800000D03*
X88500000Y-66850000D03*
%TO.N,SYS_I2C4_SCL*%
X81150000Y-95988207D03*
%TO.N,/DDR/DDR_DQ2*%
X89350000Y-64575000D03*
X108453415Y-70777400D03*
%TO.N,/DDR/DDR_DQS0_P*%
X89500000Y-63225000D03*
X107233415Y-69657400D03*
%TO.N,/DDR/DDR_CSN*%
X101263415Y-66767400D03*
X87683415Y-67647400D03*
%TO.N,/DDR/DDR_A13*%
X96650000Y-64800000D03*
X86900000Y-65300000D03*
%TO.N,/DDR/DDR_DQS0_N*%
X89700000Y-62700000D03*
X107643415Y-69957400D03*
%TO.N,/DDR/DDR_CLK_N*%
X102048415Y-69952400D03*
X90100000Y-68800000D03*
%TO.N,/DDR/DDR_DQ3*%
X106873415Y-65977400D03*
X91403415Y-61007400D03*
%TO.N,/DDR/DDR_A10*%
X89398415Y-70452400D03*
X100453415Y-70797400D03*
%TO.N,/DDR/DDR_A3*%
X99700000Y-66000000D03*
X88500000Y-66100000D03*
%TO.N,SYS_I2C4_SDA*%
X80750000Y-96388207D03*
%TO.N,/DDR/DDR_CASN*%
X87703415Y-68477400D03*
X101425000Y-67750000D03*
%TO.N,/DDR/DDR_A8*%
X96298415Y-73550000D03*
X86873415Y-73277400D03*
%TO.N,/DDR/DDR_ODT*%
X89500000Y-67100000D03*
X101273415Y-65977400D03*
%TO.N,/DDR/DDR_A12*%
X87673415Y-70087400D03*
X99675000Y-70775000D03*
%TO.N,/DDR/DDR_A11*%
X88498415Y-70877400D03*
X95925000Y-71175000D03*
%TO.N,/DDR/DDR_CLK_P*%
X90450000Y-69200000D03*
X102073415Y-70777400D03*
%TO.N,/DDR/DDR_BA2*%
X100503415Y-66747400D03*
X86833415Y-67637400D03*
%TO.N,/DDR/DDR_DQ5*%
X89500000Y-65150000D03*
X107743415Y-70847400D03*
%TO.N,/DDR/DDR_CKE*%
X100873415Y-72927400D03*
X89500000Y-72127400D03*
%TO.N,/DDR/DDR_DQ0*%
X108483415Y-65957400D03*
X90223415Y-60497400D03*
%TO.N,/DDR/DDR_BA1*%
X98873415Y-71567400D03*
X87673415Y-70902400D03*
%TO.N,/DDR/DDR_A2*%
X87650000Y-66850000D03*
X98850000Y-66750000D03*
%TO.N,PMIC_WAKEUP*%
X81150000Y-96788207D03*
%TO.N,SDMMC2_NRST*%
X79593415Y-53687400D03*
%TO.N,SDMMC2_D2*%
X78913415Y-61307400D03*
X77593415Y-50837400D03*
%TO.N,SDMMC2_D3*%
X78513415Y-54697400D03*
X80493415Y-62057400D03*
%TO.N,SDMMC2_D4*%
X79703415Y-62107400D03*
X82543415Y-54687400D03*
%TO.N,SDMMC2_D5*%
X83033415Y-51707400D03*
X79703415Y-62887400D03*
%TO.N,SDMMC2_D6*%
X78913415Y-62857400D03*
X84043415Y-54707400D03*
%TO.N,SDMMC2_D7*%
X78103415Y-62867400D03*
X83543415Y-51177400D03*
%TO.N,SDMMC2_D1*%
X77043415Y-54717400D03*
X79523415Y-61127400D03*
%TO.N,SDMMC2_D0*%
X80503415Y-62897400D03*
X77493415Y-51667400D03*
%TO.N,SDMMC2_CK*%
X80983415Y-58677400D03*
%TO.N,Net-(U203-LDO1OUT)*%
X72675000Y-90243207D03*
%TO.N,Net-(U203-LDO2OUT)*%
X77250000Y-90243207D03*
%TO.N,Net-(U203-LDO6OUT)*%
X74550000Y-90243207D03*
%TO.N,Net-(U301A-VREF+)*%
X74850000Y-71700000D03*
%TO.N,/DDR/DDR_A15*%
X86650000Y-69100000D03*
%TO.N,Net-(U1-CLK)*%
X81023415Y-56137400D03*
%TO.N,/MPU_PWR/VDDA*%
X76500000Y-70850000D03*
%TD*%
D17*
%TO.N,/DDR/DDR_DQ1*%
X97648415Y-66367400D02*
X106473415Y-66367400D01*
X97648415Y-66327400D02*
X97648415Y-66367400D01*
X106473415Y-66367400D02*
X106883415Y-66777400D01*
X91748415Y-61627400D02*
X96073415Y-65952400D01*
X97273415Y-65952400D02*
X97648415Y-66327400D01*
X96073415Y-65952400D02*
X97273415Y-65952400D01*
X90963415Y-61627400D02*
X91748415Y-61627400D01*
%TO.N,/DDR/DDR_DQ4*%
X100575000Y-72025000D02*
X106465815Y-72025000D01*
X106465815Y-72025000D02*
X106893415Y-71597400D01*
X95675000Y-73025000D02*
X99575000Y-73025000D01*
X99575000Y-73025000D02*
X100575000Y-72025000D01*
X89700000Y-65938852D02*
X89873415Y-66112267D01*
X89873415Y-67223415D02*
X95675000Y-73025000D01*
X89475000Y-65750000D02*
X89663852Y-65938852D01*
X89350000Y-65750000D02*
X89475000Y-65750000D01*
X89873415Y-66112267D02*
X89873415Y-67223415D01*
X89663852Y-65938852D02*
X89700000Y-65938852D01*
%TO.N,/DDR/DDR_DQ7*%
X90600000Y-62000000D02*
X90606015Y-62000000D01*
X107743415Y-67197400D02*
X108293415Y-67747400D01*
X96143415Y-67197400D02*
X107743415Y-67197400D01*
X91087764Y-62481749D02*
X91427764Y-62481749D01*
X91427764Y-62481749D02*
X96143415Y-67197400D01*
X90606015Y-62000000D02*
X91087764Y-62481749D01*
%TO.N,/DDR/DDR_DQ6*%
X93003415Y-68127400D02*
X94303415Y-69427400D01*
X89967400Y-64517400D02*
X90233415Y-64517400D01*
X92691304Y-67815289D02*
X92757773Y-67881758D01*
X89475000Y-64025000D02*
X89967400Y-64517400D01*
X91769946Y-67388906D02*
X91854798Y-67473758D01*
X90233415Y-64517400D02*
X91428415Y-65712400D01*
X89400000Y-64025000D02*
X89475000Y-64025000D01*
X92259973Y-66252587D02*
X92326441Y-66319055D01*
X92924651Y-66917265D02*
X92991119Y-66983733D01*
X92226029Y-67350014D02*
X92358964Y-67217076D01*
X92326441Y-66584927D02*
X92026626Y-66884739D01*
X92757773Y-67881758D02*
X93003415Y-68127400D01*
X91428415Y-65712400D02*
X91428415Y-66064900D01*
X91694287Y-66552400D02*
X91994101Y-66252587D01*
X91893690Y-67017675D02*
X91769946Y-67141418D01*
X92358964Y-67217076D02*
X92658777Y-66917263D01*
X94303415Y-69427400D02*
X105513415Y-69427400D01*
X105513415Y-69427400D02*
X106003415Y-69917400D01*
X91428415Y-66064900D02*
X91428415Y-66552400D01*
X92102286Y-67473758D02*
X92226029Y-67350014D01*
X92026626Y-66884739D02*
X91893690Y-67017675D01*
X92991119Y-67249605D02*
X92691304Y-67549417D01*
X91854798Y-67473758D02*
G75*
G03*
X92102286Y-67473758I123744J123746D01*
G01*
X91769946Y-67141418D02*
G75*
G03*
X91769908Y-67388944I123754J-123782D01*
G01*
X91428415Y-66552400D02*
G75*
G03*
X91694287Y-66552400I132936J132936D01*
G01*
X92326441Y-66319055D02*
G75*
G02*
X92326450Y-66584936I-132941J-132945D01*
G01*
X92691304Y-67549417D02*
G75*
G03*
X92691257Y-67815336I132896J-132983D01*
G01*
X92658777Y-66917263D02*
G75*
G02*
X92924638Y-66917278I132923J-132937D01*
G01*
X92991119Y-66983733D02*
G75*
G02*
X92991150Y-67249636I-132919J-132967D01*
G01*
X91994101Y-66252587D02*
G75*
G02*
X92259973Y-66252587I132936J-132936D01*
G01*
%TO.N,/DDR/DDR_DQM0*%
X91271015Y-62850000D02*
X92153415Y-63732400D01*
X92153415Y-63732400D02*
X92208415Y-63732400D01*
X92208415Y-63732400D02*
X96613415Y-68137400D01*
X96613415Y-68137400D02*
X105583415Y-68137400D01*
X90200000Y-62400000D02*
X90650000Y-62850000D01*
X105583415Y-68137400D02*
X106083415Y-67637400D01*
X90125000Y-62400000D02*
X90200000Y-62400000D01*
X90650000Y-62850000D02*
X91271015Y-62850000D01*
%TO.N,/DDR/DDR_DQ2*%
X89475000Y-64575000D02*
X89950000Y-65050000D01*
X90933415Y-65807400D02*
X90933415Y-66887400D01*
X94398415Y-70352400D02*
X102265749Y-70352400D01*
X108053415Y-70377400D02*
X108453415Y-70777400D01*
X102265749Y-70352400D02*
X102290749Y-70377400D01*
X89950000Y-65050000D02*
X90176015Y-65050000D01*
X89350000Y-64575000D02*
X89475000Y-64575000D01*
X90933415Y-66887400D02*
X94398415Y-70352400D01*
X102290749Y-70377400D02*
X108053415Y-70377400D01*
X90176015Y-65050000D02*
X90933415Y-65807400D01*
D18*
%TO.N,/DDR/DDR_DQS0_P*%
X89976015Y-63200000D02*
X93863299Y-67087284D01*
X107362083Y-68077400D02*
X107989839Y-68705156D01*
X106844747Y-68077400D02*
X107362083Y-68077400D01*
X93863299Y-67452969D02*
X93657233Y-67659034D01*
X107989839Y-68705156D02*
X107989839Y-69010976D01*
X95519839Y-68743824D02*
X95636991Y-68860976D01*
X107989839Y-69010976D02*
X107357749Y-69643066D01*
X107357749Y-69643066D02*
X107357749Y-69671734D01*
X95636991Y-68860976D02*
X106061171Y-68860976D01*
X106061171Y-68860976D02*
X106844747Y-68077400D01*
X95136090Y-68360074D02*
X95277512Y-68501497D01*
X93863299Y-67087284D02*
X93863299Y-67087283D01*
X89525000Y-63200000D02*
X89976015Y-63200000D01*
X95277512Y-68501497D02*
X95519839Y-68743824D01*
X89500000Y-63225000D02*
X89525000Y-63200000D01*
X94564339Y-68566140D02*
X94770404Y-68360074D01*
X93657233Y-68424719D02*
X93798654Y-68566140D01*
X93657233Y-67659034D02*
G75*
G03*
X93657209Y-68424742I382867J-382866D01*
G01*
X93863299Y-67087283D02*
G75*
G02*
X93863273Y-67452943I-182799J-182817D01*
G01*
X93798654Y-68566140D02*
G75*
G03*
X94564339Y-68566141I382843J382844D01*
G01*
X94770404Y-68360074D02*
G75*
G02*
X95136090Y-68360074I182843J-182843D01*
G01*
%TO.N,/DDR/DDR_DQS0_N*%
X106652083Y-67807400D02*
X107554747Y-67807400D01*
X108316991Y-68569644D02*
X108316991Y-69173824D01*
X107554747Y-67807400D02*
X108316991Y-68569644D01*
X105925659Y-68533824D02*
X106652083Y-67807400D01*
X95729839Y-68533824D02*
X105925659Y-68533824D01*
X89876015Y-62700000D02*
X94063299Y-66887284D01*
X107589081Y-69901734D02*
X107589081Y-69903066D01*
X94063299Y-66887284D02*
X94063298Y-66887284D01*
X108316991Y-69173824D02*
X107589081Y-69901734D01*
X95709839Y-68533824D02*
X95729839Y-68533824D01*
X89700000Y-62700000D02*
X89876015Y-62700000D01*
X94063298Y-67652969D02*
X93857232Y-67859034D01*
X95477512Y-68301497D02*
X95709839Y-68533824D01*
X93857232Y-68224720D02*
X93998653Y-68366141D01*
X95336089Y-68160075D02*
X95477512Y-68301497D01*
X94364339Y-68366141D02*
X94570404Y-68160075D01*
X93998653Y-68366141D02*
G75*
G03*
X94364339Y-68366141I182843J182843D01*
G01*
X94570404Y-68160075D02*
G75*
G02*
X95336089Y-68160074I382843J-382844D01*
G01*
X93857232Y-67859034D02*
G75*
G03*
X93857209Y-68224743I182868J-182866D01*
G01*
X94063298Y-66887284D02*
G75*
G02*
X94063272Y-67652942I-382798J-382816D01*
G01*
D17*
%TO.N,/DDR/DDR_DQ3*%
X106473415Y-65577400D02*
X106873415Y-65977400D01*
X91403415Y-61007400D02*
X91493415Y-61007400D01*
X96063415Y-65577400D02*
X106473415Y-65577400D01*
X91493415Y-61007400D02*
X96063415Y-65577400D01*
%TO.N,/DDR/DDR_DQ5*%
X90443415Y-67107400D02*
X94538415Y-71202400D01*
X107713415Y-70827400D02*
X107713415Y-70817400D01*
X90443415Y-65893415D02*
X90443415Y-67107400D01*
X107363415Y-71177400D02*
X107713415Y-70827400D01*
X89500000Y-65150000D02*
X89650000Y-65300000D01*
X107713415Y-70817400D02*
X107743415Y-70847400D01*
X100127400Y-71950000D02*
X100900000Y-71177400D01*
X100900000Y-71177400D02*
X107363415Y-71177400D01*
X94702400Y-71202400D02*
X95450000Y-71950000D01*
X89850000Y-65300000D02*
X90443415Y-65893415D01*
X95450000Y-71950000D02*
X100127400Y-71950000D01*
X89650000Y-65300000D02*
X89850000Y-65300000D01*
X94538415Y-71202400D02*
X94702400Y-71202400D01*
%TO.N,/DDR/DDR_CKE*%
X90550000Y-76775000D02*
X97025815Y-76775000D01*
X89500000Y-75725000D02*
X90550000Y-76775000D01*
X97025815Y-76775000D02*
X100873415Y-72927400D01*
X89500000Y-72127400D02*
X89500000Y-75725000D01*
%TO.N,/DDR/DDR_DQ0*%
X96326015Y-64350000D02*
X92473415Y-60497400D01*
X106876015Y-64350000D02*
X96326015Y-64350000D01*
X108483415Y-65957400D02*
X106876015Y-64350000D01*
X92473415Y-60497400D02*
X90223415Y-60497400D01*
D19*
%TO.N,SDMMC2_D4*%
X79703415Y-62107400D02*
X79703415Y-61717400D01*
X79703415Y-61717400D02*
X81398415Y-60022400D01*
X81398415Y-55832400D02*
X82543415Y-54687400D01*
X81398415Y-60022400D02*
X81398415Y-55832400D01*
%TO.N,SDMMC2_D5*%
X80123415Y-62467400D02*
X80763415Y-62467400D01*
X83033415Y-60197400D02*
X83033415Y-51707400D01*
X80763415Y-62467400D02*
X83033415Y-60197400D01*
X79703415Y-62887400D02*
X80123415Y-62467400D01*
%TO.N,SDMMC2_D6*%
X79353415Y-63297400D02*
X78913415Y-62857400D01*
X84043415Y-54707400D02*
X84043415Y-60167400D01*
X84043415Y-60167400D02*
X80913415Y-63297400D01*
X80913415Y-63297400D02*
X79353415Y-63297400D01*
%TO.N,SDMMC2_D7*%
X82703415Y-51187400D02*
X83533415Y-51187400D01*
X78103415Y-59247400D02*
X80493415Y-56857400D01*
X78103415Y-62867400D02*
X78103415Y-59247400D01*
X83533415Y-51187400D02*
X83543415Y-51177400D01*
X80493415Y-56857400D02*
X80493415Y-53397400D01*
X80493415Y-53397400D02*
X82703415Y-51187400D01*
%TD*%
%TA.AperFunction,Conductor*%
%TO.N,/DDR/DDR_DQS0_P*%
G36*
X89551317Y-63032603D02*
G01*
X89887878Y-63135493D01*
X89894787Y-63141189D01*
X89896157Y-63146682D01*
X89896157Y-63254435D01*
X89892730Y-63262708D01*
X89889291Y-63265090D01*
X89620120Y-63387208D01*
X89611170Y-63387505D01*
X89605585Y-63383093D01*
X89501744Y-63229070D01*
X89499960Y-63220295D01*
X89499981Y-63220191D01*
X89536445Y-63041454D01*
X89541456Y-63034035D01*
X89550247Y-63032331D01*
X89551317Y-63032603D01*
G37*
%TD.AperFunction*%
%TD*%
%TA.AperFunction,Conductor*%
%TO.N,/DDR/DDR_DQS0_N*%
G36*
X89873046Y-62596070D02*
G01*
X89967525Y-62696585D01*
X90073633Y-62809473D01*
X90076802Y-62817848D01*
X90073381Y-62825759D01*
X89997316Y-62901824D01*
X89989043Y-62905251D01*
X89988719Y-62905247D01*
X89674779Y-62896539D01*
X89666604Y-62892884D01*
X89663407Y-62884519D01*
X89663617Y-62882616D01*
X89698355Y-62704108D01*
X89703300Y-62696644D01*
X89703309Y-62696637D01*
X89858070Y-62594322D01*
X89866860Y-62592619D01*
X89873046Y-62596070D01*
G37*
%TD.AperFunction*%
%TD*%
%TA.AperFunction,Conductor*%
%TO.N,/DDR/DDR_DQS0_N*%
G36*
X107820379Y-69596822D02*
G01*
X107896619Y-69673062D01*
X107900046Y-69681335D01*
X107899835Y-69683548D01*
X107841789Y-69984906D01*
X107836859Y-69992382D01*
X107828087Y-69994182D01*
X107828065Y-69994178D01*
X107647525Y-69959044D01*
X107640059Y-69954099D01*
X107640000Y-69954011D01*
X107538516Y-69800507D01*
X107536812Y-69791716D01*
X107541461Y-69784544D01*
X107805295Y-69595582D01*
X107814015Y-69593552D01*
X107820379Y-69596822D01*
G37*
%TD.AperFunction*%
%TD*%
%TA.AperFunction,Conductor*%
%TO.N,/DDR/DDR_DQS0_P*%
G36*
X107516038Y-69402779D02*
G01*
X107517752Y-69404195D01*
X107593992Y-69480435D01*
X107597419Y-69488708D01*
X107595231Y-69495521D01*
X107406271Y-69759351D01*
X107398668Y-69764081D01*
X107390307Y-69762298D01*
X107236803Y-69660814D01*
X107231791Y-69653393D01*
X107231770Y-69653289D01*
X107199497Y-69487453D01*
X107196636Y-69472748D01*
X107198420Y-69463974D01*
X107205883Y-69459030D01*
X107507266Y-69400979D01*
X107516038Y-69402779D01*
G37*
%TD.AperFunction*%
%TD*%
M02*
