%TF.GenerationSoftware,KiCad,Pcbnew,9.0.2*%
%TF.CreationDate,2025-06-19T13:39:27-06:00*%
%TF.ProjectId,MPU_MOD,4d50555f-4d4f-4442-9e6b-696361645f70,rev?*%
%TF.SameCoordinates,Original*%
%TF.FileFunction,Copper,L7,Inr*%
%TF.FilePolarity,Positive*%
%FSLAX46Y46*%
G04 Gerber Fmt 4.6, Leading zero omitted, Abs format (unit mm)*
G04 Created by KiCad (PCBNEW 9.0.2) date 2025-06-19 13:39:27*
%MOMM*%
%LPD*%
G01*
G04 APERTURE LIST*
G04 Aperture macros list*
%AMFreePoly0*
4,1,229,0.026192,1.103996,0.026383,1.103985,0.052383,1.101985,0.052573,1.101967,0.078573,1.098967,0.078944,1.098910,0.104944,1.093910,0.105167,1.093862,0.130167,1.087862,0.130300,1.087828,0.156300,1.080828,0.156756,1.080682,0.180756,1.071682,0.180923,1.071615,0.204923,1.061615,0.205083,1.061545,0.229083,1.050545,0.229460,1.050353,0.252460,1.037353,0.252684,1.037218,
0.296684,1.009218,0.297030,1.008977,0.318030,0.992977,0.318238,0.992810,0.338238,0.975810,0.338439,0.975630,0.357439,0.957630,0.357630,0.957439,0.375630,0.938439,0.375810,0.938238,0.392810,0.918238,0.392977,0.918030,0.408977,0.897030,0.409218,0.896684,0.437218,0.852684,0.437353,0.852460,0.450353,0.829460,0.450545,0.829083,0.461545,0.805083,0.461615,0.804923,
0.471615,0.780923,0.471682,0.780756,0.480682,0.756756,0.480828,0.756300,0.487828,0.730300,0.487862,0.730167,0.493862,0.705167,0.493910,0.704944,0.498910,0.678944,0.498967,0.678573,0.501967,0.652573,0.501985,0.652383,0.503985,0.626383,0.503996,0.626192,0.504996,0.600192,0.505000,0.600000,0.505000,-0.600000,0.504996,-0.600192,0.503996,-0.626192,0.503985,-0.626383,
0.501985,-0.652383,0.501967,-0.652573,0.498967,-0.678573,0.498910,-0.678944,0.493910,-0.704944,0.493862,-0.705167,0.487862,-0.730167,0.487828,-0.730300,0.480828,-0.756300,0.480682,-0.756756,0.471682,-0.780756,0.471615,-0.780923,0.461615,-0.804923,0.461545,-0.805083,0.450545,-0.829083,0.450353,-0.829460,0.437353,-0.852460,0.437218,-0.852684,0.409218,-0.896684,0.408977,-0.897030,
0.392977,-0.918030,0.392810,-0.918238,0.375810,-0.938238,0.375630,-0.938439,0.357630,-0.957439,0.357439,-0.957630,0.338439,-0.975630,0.338238,-0.975810,0.318238,-0.992810,0.318030,-0.992977,0.297030,-1.008977,0.296684,-1.009218,0.252684,-1.037218,0.252460,-1.037353,0.229460,-1.050353,0.229083,-1.050545,0.205083,-1.061545,0.204923,-1.061615,0.180923,-1.071615,0.180756,-1.071682,
0.156756,-1.080682,0.156300,-1.080828,0.130300,-1.087828,0.130167,-1.087862,0.105167,-1.093862,0.104944,-1.093910,0.078944,-1.098910,0.078573,-1.098967,0.052573,-1.101967,0.052383,-1.101985,0.026383,-1.103985,0.026192,-1.103996,0.000192,-1.104996,-0.000192,-1.104996,-0.026192,-1.103996,-0.026383,-1.103985,-0.052383,-1.101985,-0.052573,-1.101967,-0.078573,-1.098967,-0.078944,-1.098910,
-0.104944,-1.093910,-0.105167,-1.093862,-0.130167,-1.087862,-0.130300,-1.087828,-0.156300,-1.080828,-0.156756,-1.080682,-0.180756,-1.071682,-0.180923,-1.071615,-0.204923,-1.061615,-0.205083,-1.061545,-0.229083,-1.050545,-0.229460,-1.050353,-0.252460,-1.037353,-0.252684,-1.037218,-0.296684,-1.009218,-0.297030,-1.008977,-0.318030,-0.992977,-0.318238,-0.992810,-0.338238,-0.975810,-0.338439,-0.975630,
-0.357439,-0.957630,-0.357630,-0.957439,-0.375630,-0.938439,-0.375810,-0.938238,-0.392810,-0.918238,-0.392977,-0.918030,-0.408977,-0.897030,-0.409218,-0.896684,-0.437218,-0.852684,-0.437353,-0.852460,-0.450353,-0.829460,-0.450545,-0.829083,-0.461545,-0.805083,-0.461615,-0.804923,-0.471615,-0.780923,-0.471682,-0.780756,-0.480682,-0.756756,-0.480828,-0.756300,-0.487828,-0.730300,-0.487862,-0.730167,
-0.493862,-0.705167,-0.493910,-0.704944,-0.498910,-0.678944,-0.498967,-0.678573,-0.501967,-0.652573,-0.501985,-0.652383,-0.503985,-0.626383,-0.503996,-0.626192,-0.504996,-0.600192,-0.505000,-0.600000,-0.505000,0.600000,-0.504996,0.600192,-0.503996,0.626192,-0.503985,0.626383,-0.501985,0.652383,-0.501967,0.652573,-0.498967,0.678573,-0.498910,0.678944,-0.493910,0.704944,-0.493862,0.705167,
-0.487862,0.730167,-0.487828,0.730300,-0.480828,0.756300,-0.480682,0.756756,-0.471682,0.780756,-0.471615,0.780923,-0.461615,0.804923,-0.461545,0.805083,-0.450545,0.829083,-0.450353,0.829460,-0.437353,0.852460,-0.437218,0.852684,-0.409218,0.896684,-0.408977,0.897030,-0.392977,0.918030,-0.392810,0.918238,-0.375810,0.938238,-0.375630,0.938439,-0.357630,0.957439,-0.357439,0.957630,
-0.338439,0.975630,-0.338238,0.975810,-0.318238,0.992810,-0.318030,0.992977,-0.297030,1.008977,-0.296684,1.009218,-0.252684,1.037218,-0.252460,1.037353,-0.229460,1.050353,-0.229083,1.050545,-0.205083,1.061545,-0.204923,1.061615,-0.180923,1.071615,-0.180756,1.071682,-0.156756,1.080682,-0.156300,1.080828,-0.130300,1.087828,-0.130167,1.087862,-0.105167,1.093862,-0.104944,1.093910,
-0.078944,1.098910,-0.078573,1.098967,-0.052573,1.101967,-0.052383,1.101985,-0.026383,1.103985,-0.026192,1.103996,-0.000192,1.104996,0.000192,1.104996,0.026192,1.103996,0.026192,1.103996,$1*%
G04 Aperture macros list end*
%TA.AperFunction,ComponentPad*%
%ADD10C,0.900000*%
%TD*%
%TA.AperFunction,ComponentPad*%
%ADD11R,0.850000X0.850000*%
%TD*%
%TA.AperFunction,ComponentPad*%
%ADD12C,0.850000*%
%TD*%
%TA.AperFunction,ComponentPad*%
%ADD13O,1.000000X1.800000*%
%TD*%
%TA.AperFunction,ComponentPad*%
%ADD14FreePoly0,0.000000*%
%TD*%
%TA.AperFunction,ComponentPad*%
%ADD15C,0.499999*%
%TD*%
%TA.AperFunction,ViaPad*%
%ADD16C,0.400000*%
%TD*%
%TA.AperFunction,Conductor*%
%ADD17C,0.144300*%
%TD*%
G04 APERTURE END LIST*
D10*
%TO.N,unconnected-(S601-Pad2C)*%
%TO.C,S601*%
X69225000Y-54462500D03*
%TO.N,unconnected-(S601-Pad2D)*%
X69225000Y-58512500D03*
%TD*%
%TO.N,unconnected-(S605-Pad2C)*%
%TO.C,S605*%
X69225000Y-36362500D03*
%TO.N,unconnected-(S605-Pad2D)*%
X69225000Y-40412500D03*
%TD*%
%TO.N,GND*%
%TO.C,S701*%
X53052500Y-101860000D03*
X53052500Y-105910000D03*
%TD*%
%TO.N,unconnected-(S603-Pad2C)*%
%TO.C,S603*%
X69225000Y-48362500D03*
%TO.N,unconnected-(S603-Pad2D)*%
X69225000Y-52412500D03*
%TD*%
D11*
%TO.N,+BATT*%
%TO.C,BT201*%
X71050000Y-87288207D03*
D12*
%TO.N,Net-(BT201--)*%
X70050000Y-87288207D03*
%TD*%
D10*
%TO.N,unconnected-(S602-Pad2C)*%
%TO.C,S602*%
X69125000Y-30362500D03*
%TO.N,unconnected-(S602-Pad2D)*%
X69125000Y-34412500D03*
%TD*%
D11*
%TO.N,/PWR/BATT_T*%
%TO.C,TH201*%
X71050000Y-89588207D03*
D12*
%TO.N,GND*%
X70050000Y-89588207D03*
%TD*%
D13*
%TO.N,GND*%
%TO.C,J801*%
X86680000Y-95187500D03*
X95320000Y-95187500D03*
D14*
X86680000Y-99187500D03*
X95320000Y-99187500D03*
%TD*%
D10*
%TO.N,GND*%
%TO.C,S201*%
X44525000Y-114662500D03*
X44525000Y-118712500D03*
%TD*%
%TO.N,unconnected-(S604-Pad2C)*%
%TO.C,S604*%
X69225000Y-42362500D03*
%TO.N,unconnected-(S604-Pad2D)*%
X69225000Y-46412500D03*
%TD*%
D15*
%TO.N,N/C*%
%TO.C,U3*%
X80100000Y-80800000D03*
X81200000Y-81900000D03*
X80100000Y-81900000D03*
X79000000Y-81900000D03*
X80100000Y-83000000D03*
%TD*%
D16*
%TO.N,GND*%
X81273008Y-72476992D03*
X76350000Y-89283207D03*
X85273007Y-68476993D03*
X79698007Y-69301993D03*
X70750000Y-91088207D03*
X85273008Y-70076992D03*
X80850000Y-88375707D03*
X83648007Y-70051993D03*
X75450000Y-89283207D03*
X69350000Y-95713207D03*
X77250000Y-89283207D03*
X82898007Y-69301993D03*
X78073008Y-69276992D03*
X70450000Y-91488207D03*
X81298007Y-69301993D03*
X70150000Y-91888207D03*
X76350000Y-88500707D03*
X78873007Y-66876993D03*
X84750000Y-95388207D03*
X78923007Y-71726993D03*
X83748007Y-71751993D03*
X85273007Y-65276993D03*
X78150000Y-89283207D03*
X74550000Y-88500707D03*
X80150000Y-88888207D03*
X80473007Y-68476993D03*
X78898008Y-70101992D03*
X83150000Y-89288207D03*
X81273007Y-66076993D03*
X80448007Y-70051993D03*
X77122500Y-100178207D03*
X72650000Y-88500707D03*
X84750000Y-96788207D03*
X79350000Y-88375707D03*
X78022500Y-100178207D03*
X78150000Y-88500707D03*
X72675000Y-89283207D03*
X70150000Y-91088207D03*
X79600000Y-66000000D03*
X77273007Y-65276993D03*
X78073007Y-67676993D03*
X82848007Y-70851993D03*
X79673008Y-70876992D03*
X71050000Y-95388207D03*
X84473007Y-72476993D03*
X83750000Y-89288207D03*
X77300000Y-72500000D03*
X70150000Y-96188207D03*
X83625000Y-94688207D03*
X78048007Y-70851993D03*
X82350000Y-89013207D03*
X76500000Y-71700000D03*
X73650000Y-88500707D03*
X78898007Y-68501993D03*
X84428822Y-65271178D03*
X69350000Y-91513207D03*
X70750000Y-91888207D03*
X84750000Y-94688207D03*
X79648007Y-72451993D03*
X83648007Y-68451993D03*
X78073007Y-64476993D03*
X77250000Y-88500707D03*
X76122500Y-100178207D03*
X82073007Y-71676993D03*
X83150000Y-88500707D03*
X71050000Y-96188207D03*
X71575000Y-91588207D03*
X73650000Y-89283207D03*
X83750000Y-88500707D03*
X81273007Y-70876993D03*
X85273007Y-66876993D03*
X77273007Y-70076993D03*
X84548008Y-69351992D03*
X77998007Y-66001993D03*
X84500000Y-89038207D03*
X77298007Y-71701993D03*
X81198007Y-67601993D03*
X84750000Y-95988207D03*
X74550000Y-89283207D03*
X85248008Y-71651992D03*
X70150000Y-95388207D03*
X79698007Y-67701993D03*
X80050000Y-87900707D03*
X80498007Y-66901993D03*
X75450000Y-88500707D03*
X71775000Y-95788207D03*
X70550000Y-95788207D03*
X80448008Y-71651992D03*
X82873007Y-72476993D03*
%TO.N,VDD_USB*%
X77122500Y-99218207D03*
X77250000Y-98688207D03*
%TO.N,VDDA*%
X75450000Y-90243207D03*
%TO.N,3V3*%
X69050000Y-93788207D03*
X69550000Y-94788207D03*
X73650000Y-90243207D03*
X69050000Y-94788207D03*
X69350000Y-93063207D03*
X69550000Y-93788207D03*
X75225000Y-91888207D03*
X69550000Y-94288207D03*
X69050000Y-94288207D03*
X70050000Y-94288207D03*
X74887500Y-91550707D03*
X70050000Y-94788207D03*
X70050000Y-93788207D03*
%TO.N,VIN*%
X80825000Y-92613207D03*
X76122500Y-99218207D03*
X74150000Y-92188207D03*
X73125000Y-91588207D03*
X80850000Y-92138207D03*
X76350000Y-90243207D03*
X82350000Y-90563207D03*
X76150000Y-98688207D03*
X74150000Y-92688207D03*
%TO.N,VTT_DDR*%
X79350000Y-90013207D03*
X78950000Y-90488207D03*
%TO.N,VREF_DDR*%
X78150000Y-90243207D03*
%TO.N,VDD_DDR*%
X85273007Y-70876993D03*
X85273007Y-72476993D03*
X85250000Y-90488207D03*
X80225000Y-90438207D03*
X80612500Y-90050707D03*
X85298008Y-66101992D03*
X85300000Y-64500000D03*
X83450000Y-91688207D03*
X83450000Y-90688207D03*
X85273007Y-67676993D03*
X84500000Y-90488207D03*
X83450000Y-90188207D03*
X83450000Y-91188207D03*
X85273007Y-69276993D03*
%TO.N,VDD_CORE*%
X80750000Y-95598207D03*
X83675407Y-65275407D03*
X83648007Y-67651993D03*
X82073008Y-69276992D03*
X79650000Y-64500000D03*
X82098007Y-67701993D03*
X82898008Y-70101992D03*
X77275407Y-66875407D03*
X81850000Y-99488207D03*
X83850000Y-99488207D03*
X81273007Y-65276993D03*
X84450000Y-71650000D03*
X84350000Y-99488207D03*
X84850000Y-99488207D03*
X76550000Y-65350000D03*
X77273007Y-66076993D03*
X80423007Y-69226993D03*
X83350000Y-99488207D03*
X79673007Y-66876993D03*
X81248007Y-66851993D03*
X78100000Y-65300000D03*
X82073007Y-70876993D03*
X78848007Y-67651993D03*
X82850000Y-99488207D03*
X82350000Y-99488207D03*
X82873007Y-71676993D03*
X82848007Y-65251993D03*
X83648007Y-69251993D03*
X83673007Y-72476993D03*
%TO.N,VDD*%
X79673008Y-71676992D03*
X69550000Y-98488207D03*
X78873007Y-69276993D03*
X81298007Y-71701993D03*
X83700000Y-66100000D03*
X69550000Y-98988207D03*
X69350000Y-97263207D03*
X69050000Y-98488207D03*
X78073007Y-70076993D03*
X78675000Y-98813207D03*
X69550000Y-97988207D03*
X78098008Y-71701992D03*
X78873008Y-72476992D03*
X79673007Y-70076993D03*
X78873008Y-70876992D03*
X82073007Y-72476993D03*
X80448007Y-70851993D03*
X69050000Y-98988207D03*
X69050000Y-97988207D03*
X78073007Y-68476993D03*
X70050000Y-97988207D03*
X70050000Y-98488207D03*
X80448008Y-72451992D03*
X70050000Y-98988207D03*
%TO.N,NRST*%
X80075000Y-100198207D03*
%TO.N,PWR_SW_WAKE_UP*%
X77725000Y-90888207D03*
%TO.N,PWR_ON*%
X78975000Y-99938207D03*
%TO.N,/DDR/DDR_A9*%
X98050000Y-65950000D03*
X86900000Y-66050000D03*
%TO.N,PMIC_PA0_WKUP_INTR*%
X78775000Y-99363207D03*
%TO.N,/DDR/DDR_DQ1*%
X106883415Y-66777400D03*
X90963415Y-61627400D03*
%TO.N,/DDR/DDR_DQ4*%
X89350000Y-65750000D03*
X106893415Y-71597400D03*
%TO.N,/DDR/DDR_A7*%
X86900000Y-64450000D03*
X97300000Y-64750000D03*
%TO.N,/DDR/DDR_DQ7*%
X108293415Y-67747400D03*
X90600000Y-62000000D03*
%TO.N,/DDR/DDR_A5*%
X98850000Y-66000000D03*
X86900000Y-66900000D03*
%TO.N,/DDR/DDR_A4*%
X87698415Y-72452400D03*
X98098415Y-72627400D03*
%TO.N,/DDR/DDR_BA0*%
X100473415Y-65977400D03*
X89500000Y-66350000D03*
%TO.N,/DDR/DDR_A1*%
X98873415Y-70737400D03*
X86873415Y-70077400D03*
%TO.N,/DDR/DDR_A6*%
X97250000Y-73550000D03*
X86898415Y-71702400D03*
%TO.N,/DDR/DDR_DQ6*%
X106003415Y-69917400D03*
X89400000Y-64025000D03*
%TO.N,/DDR/DDR_WEN*%
X100875000Y-67767400D03*
X86883415Y-68467400D03*
%TO.N,/DDR/DDR_A14*%
X87673415Y-71627400D03*
X95650000Y-72400000D03*
%TO.N,/DDR/DDR_DQM0*%
X106083415Y-67637400D03*
X90125000Y-62400000D03*
%TO.N,/DDR/DDR_RASN*%
X88493415Y-69237400D03*
X102063415Y-67627400D03*
%TO.N,/DDR/DDR_A0*%
X99700000Y-66800000D03*
X88500000Y-66850000D03*
%TO.N,SYS_I2C4_SCL*%
X81150000Y-95988207D03*
%TO.N,/DDR/DDR_DQ2*%
X89350000Y-64575000D03*
X108453415Y-70777400D03*
%TO.N,/DDR/DDR_DQS0_P*%
X89500000Y-63225000D03*
X107233415Y-69657400D03*
%TO.N,/DDR/DDR_CSN*%
X101263415Y-66767400D03*
X87683415Y-67647400D03*
%TO.N,/DDR/DDR_A13*%
X96650000Y-64800000D03*
X86900000Y-65300000D03*
%TO.N,/DDR/DDR_DQS0_N*%
X89700000Y-62700000D03*
X107643415Y-69957400D03*
%TO.N,/DDR/DDR_CLK_N*%
X102048415Y-69952400D03*
X90100000Y-68800000D03*
%TO.N,/DDR/DDR_DQ3*%
X106873415Y-65977400D03*
X91403415Y-61007400D03*
%TO.N,/DDR/DDR_A10*%
X89398415Y-70452400D03*
X100453415Y-70797400D03*
%TO.N,/DDR/DDR_A3*%
X99700000Y-66000000D03*
X88500000Y-66100000D03*
%TO.N,SYS_I2C4_SDA*%
X80750000Y-96388207D03*
%TO.N,/DDR/DDR_CASN*%
X87703415Y-68477400D03*
X101425000Y-67750000D03*
%TO.N,/DDR/DDR_A8*%
X96298415Y-73550000D03*
X86873415Y-73277400D03*
%TO.N,/DDR/DDR_ODT*%
X89500000Y-67100000D03*
X101273415Y-65977400D03*
%TO.N,/DDR/DDR_A12*%
X87673415Y-70087400D03*
X99675000Y-70775000D03*
%TO.N,/DDR/DDR_A11*%
X88498415Y-70877400D03*
X95925000Y-71175000D03*
%TO.N,/DDR/DDR_CLK_P*%
X90450000Y-69200000D03*
X102073415Y-70777400D03*
%TO.N,/DDR/DDR_BA2*%
X100503415Y-66747400D03*
X86833415Y-67637400D03*
%TO.N,/DDR/DDR_DQ5*%
X89500000Y-65150000D03*
X107743415Y-70847400D03*
%TO.N,/DDR/DDR_CKE*%
X100873415Y-72927400D03*
X89500000Y-72127400D03*
%TO.N,/DDR/DDR_DQ0*%
X108483415Y-65957400D03*
X90223415Y-60497400D03*
%TO.N,/DDR/DDR_BA1*%
X98873415Y-71567400D03*
X87673415Y-70902400D03*
%TO.N,/DDR/DDR_A2*%
X87650000Y-66850000D03*
X98850000Y-66750000D03*
%TO.N,PMIC_WAKEUP*%
X81150000Y-96788207D03*
%TO.N,SDMMC2_NRST*%
X79593415Y-53687400D03*
%TO.N,SDMMC2_D2*%
X78913415Y-61307400D03*
X77593415Y-50837400D03*
%TO.N,SDMMC2_D3*%
X78513415Y-54697400D03*
X80493415Y-62057400D03*
%TO.N,SDMMC2_D4*%
X79703415Y-62107400D03*
X82543415Y-54687400D03*
%TO.N,SDMMC2_D5*%
X83033415Y-51707400D03*
X79703415Y-62887400D03*
%TO.N,SDMMC2_D6*%
X78913415Y-62857400D03*
X84043415Y-54707400D03*
%TO.N,SDMMC2_D7*%
X78103415Y-62867400D03*
X83543415Y-51177400D03*
%TO.N,SDMMC2_D1*%
X77043415Y-54717400D03*
X79523415Y-61127400D03*
%TO.N,SDMMC2_D0*%
X80503415Y-62897400D03*
X77493415Y-51667400D03*
%TO.N,SDMMC2_CK*%
X80983415Y-58677400D03*
%TO.N,Net-(U203-LDO1OUT)*%
X72675000Y-90243207D03*
%TO.N,Net-(U203-LDO2OUT)*%
X77250000Y-90243207D03*
%TO.N,Net-(U203-LDO6OUT)*%
X74550000Y-90243207D03*
%TO.N,Net-(U301A-VREF+)*%
X74850000Y-71700000D03*
%TO.N,/DDR/DDR_A15*%
X86650000Y-69100000D03*
%TO.N,Net-(U1-CLK)*%
X81023415Y-56137400D03*
%TO.N,/MPU_PWR/VDDA*%
X76500000Y-70850000D03*
%TD*%
D17*
%TO.N,SDMMC2_D5*%
X83063415Y-51117400D02*
X83063415Y-51157400D01*
%TD*%
M02*
