%TF.GenerationSoftware,KiCad,Pcbnew,9.0.2*%
%TF.CreationDate,2025-06-19T13:39:27-06:00*%
%TF.ProjectId,MPU_MOD,4d50555f-4d4f-4442-9e6b-696361645f70,rev?*%
%TF.SameCoordinates,Original*%
%TF.FileFunction,Soldermask,Bot*%
%TF.FilePolarity,Negative*%
%FSLAX46Y46*%
G04 Gerber Fmt 4.6, Leading zero omitted, Abs format (unit mm)*
G04 Created by KiCad (PCBNEW 9.0.2) date 2025-06-19 13:39:27*
%MOMM*%
%LPD*%
G01*
G04 APERTURE LIST*
G04 Aperture macros list*
%AMRoundRect*
0 Rectangle with rounded corners*
0 $1 Rounding radius*
0 $2 $3 $4 $5 $6 $7 $8 $9 X,Y pos of 4 corners*
0 Add a 4 corners polygon primitive as box body*
4,1,4,$2,$3,$4,$5,$6,$7,$8,$9,$2,$3,0*
0 Add four circle primitives for the rounded corners*
1,1,$1+$1,$2,$3*
1,1,$1+$1,$4,$5*
1,1,$1+$1,$6,$7*
1,1,$1+$1,$8,$9*
0 Add four rect primitives between the rounded corners*
20,1,$1+$1,$2,$3,$4,$5,0*
20,1,$1+$1,$4,$5,$6,$7,0*
20,1,$1+$1,$6,$7,$8,$9,0*
20,1,$1+$1,$8,$9,$2,$3,0*%
G04 Aperture macros list end*
%ADD10C,0.010000*%
%ADD11C,0.561000*%
%ADD12C,1.104000*%
%ADD13C,1.200000*%
%ADD14R,0.850000X0.850000*%
%ADD15C,0.850000*%
%ADD16O,1.204000X2.004000*%
%ADD17C,0.499999*%
%ADD18C,1.020000*%
%ADD19RoundRect,0.135000X-0.185000X0.135000X-0.185000X-0.135000X0.185000X-0.135000X0.185000X0.135000X0*%
%ADD20RoundRect,0.135000X0.185000X-0.135000X0.185000X0.135000X-0.185000X0.135000X-0.185000X-0.135000X0*%
%ADD21RoundRect,0.140000X0.170000X-0.140000X0.170000X0.140000X-0.170000X0.140000X-0.170000X-0.140000X0*%
%ADD22RoundRect,0.135000X-0.135000X-0.185000X0.135000X-0.185000X0.135000X0.185000X-0.135000X0.185000X0*%
%ADD23RoundRect,0.135000X0.135000X0.185000X-0.135000X0.185000X-0.135000X-0.185000X0.135000X-0.185000X0*%
%ADD24RoundRect,0.140000X-0.170000X0.140000X-0.170000X-0.140000X0.170000X-0.140000X0.170000X0.140000X0*%
%ADD25RoundRect,0.140000X-0.021213X0.219203X-0.219203X0.021213X0.021213X-0.219203X0.219203X-0.021213X0*%
%ADD26RoundRect,0.140000X0.140000X0.170000X-0.140000X0.170000X-0.140000X-0.170000X0.140000X-0.170000X0*%
%ADD27RoundRect,0.140000X-0.140000X-0.170000X0.140000X-0.170000X0.140000X0.170000X-0.140000X0.170000X0*%
%ADD28RoundRect,0.140000X0.021213X-0.219203X0.219203X-0.021213X-0.021213X0.219203X-0.219203X0.021213X0*%
%ADD29RoundRect,0.102000X-1.100000X0.575000X-1.100000X-0.575000X1.100000X-0.575000X1.100000X0.575000X0*%
%ADD30RoundRect,0.102000X-0.600000X0.575000X-0.600000X-0.575000X0.600000X-0.575000X0.600000X0.575000X0*%
%ADD31RoundRect,0.102000X-0.575000X0.750000X-0.575000X-0.750000X0.575000X-0.750000X0.575000X0.750000X0*%
%ADD32RoundRect,0.102000X-1.250000X0.575000X-1.250000X-0.575000X1.250000X-0.575000X1.250000X0.575000X0*%
%ADD33RoundRect,0.102000X-0.620000X0.400000X-0.620000X-0.400000X0.620000X-0.400000X0.620000X0.400000X0*%
%ADD34RoundRect,0.102000X-0.625000X0.575000X-0.625000X-0.575000X0.625000X-0.575000X0.625000X0.575000X0*%
%ADD35RoundRect,0.140000X0.219203X0.021213X0.021213X0.219203X-0.219203X-0.021213X-0.021213X-0.219203X0*%
G04 APERTURE END LIST*
D10*
%TO.C,J801*%
X86711000Y-97988500D02*
X86743000Y-97990500D01*
X86774000Y-97994500D01*
X86805000Y-98000500D01*
X86835000Y-98007500D01*
X86865000Y-98016500D01*
X86895000Y-98027500D01*
X86924000Y-98039500D01*
X86952000Y-98052500D01*
X86980000Y-98067500D01*
X87007000Y-98084500D01*
X87033000Y-98102500D01*
X87058000Y-98121500D01*
X87081000Y-98141500D01*
X87104000Y-98163500D01*
X87126000Y-98186500D01*
X87146000Y-98209500D01*
X87165000Y-98234500D01*
X87183000Y-98260500D01*
X87200000Y-98287500D01*
X87215000Y-98315500D01*
X87228000Y-98343500D01*
X87240000Y-98372500D01*
X87251000Y-98402500D01*
X87260000Y-98432500D01*
X87267000Y-98462500D01*
X87273000Y-98493500D01*
X87277000Y-98524500D01*
X87279000Y-98556500D01*
X87280000Y-98587500D01*
X87280000Y-99187500D01*
X87280000Y-99787500D01*
X87279000Y-99818500D01*
X87277000Y-99850500D01*
X87273000Y-99881500D01*
X87267000Y-99912500D01*
X87260000Y-99942500D01*
X87251000Y-99972500D01*
X87240000Y-100002500D01*
X87228000Y-100031500D01*
X87215000Y-100059500D01*
X87200000Y-100087500D01*
X87183000Y-100114500D01*
X87165000Y-100140500D01*
X87146000Y-100165500D01*
X87126000Y-100188500D01*
X87104000Y-100211500D01*
X87081000Y-100233500D01*
X87058000Y-100253500D01*
X87033000Y-100272500D01*
X87007000Y-100290500D01*
X86980000Y-100307500D01*
X86952000Y-100322500D01*
X86924000Y-100335500D01*
X86895000Y-100347500D01*
X86865000Y-100358500D01*
X86835000Y-100367500D01*
X86805000Y-100374500D01*
X86774000Y-100380500D01*
X86743000Y-100384500D01*
X86711000Y-100386500D01*
X86680000Y-100387500D01*
X86649000Y-100386500D01*
X86617000Y-100384500D01*
X86586000Y-100380500D01*
X86555000Y-100374500D01*
X86525000Y-100367500D01*
X86495000Y-100358500D01*
X86465000Y-100347500D01*
X86436000Y-100335500D01*
X86408000Y-100322500D01*
X86380000Y-100307500D01*
X86353000Y-100290500D01*
X86327000Y-100272500D01*
X86302000Y-100253500D01*
X86279000Y-100233500D01*
X86256000Y-100211500D01*
X86234000Y-100188500D01*
X86214000Y-100165500D01*
X86195000Y-100140500D01*
X86177000Y-100114500D01*
X86160000Y-100087500D01*
X86145000Y-100059500D01*
X86132000Y-100031500D01*
X86120000Y-100002500D01*
X86109000Y-99972500D01*
X86100000Y-99942500D01*
X86093000Y-99912500D01*
X86087000Y-99881500D01*
X86083000Y-99850500D01*
X86081000Y-99818500D01*
X86080000Y-99787500D01*
X86080000Y-99187500D01*
X86080000Y-98587500D01*
X86081000Y-98556500D01*
X86083000Y-98524500D01*
X86087000Y-98493500D01*
X86093000Y-98462500D01*
X86100000Y-98432500D01*
X86109000Y-98402500D01*
X86120000Y-98372500D01*
X86132000Y-98343500D01*
X86145000Y-98315500D01*
X86160000Y-98287500D01*
X86177000Y-98260500D01*
X86195000Y-98234500D01*
X86214000Y-98209500D01*
X86234000Y-98186500D01*
X86256000Y-98163500D01*
X86279000Y-98141500D01*
X86302000Y-98121500D01*
X86327000Y-98102500D01*
X86353000Y-98084500D01*
X86380000Y-98067500D01*
X86408000Y-98052500D01*
X86436000Y-98039500D01*
X86465000Y-98027500D01*
X86495000Y-98016500D01*
X86525000Y-98007500D01*
X86555000Y-98000500D01*
X86586000Y-97994500D01*
X86617000Y-97990500D01*
X86649000Y-97988500D01*
X86680000Y-97987500D01*
X86711000Y-97988500D01*
G36*
X86711000Y-97988500D02*
G01*
X86743000Y-97990500D01*
X86774000Y-97994500D01*
X86805000Y-98000500D01*
X86835000Y-98007500D01*
X86865000Y-98016500D01*
X86895000Y-98027500D01*
X86924000Y-98039500D01*
X86952000Y-98052500D01*
X86980000Y-98067500D01*
X87007000Y-98084500D01*
X87033000Y-98102500D01*
X87058000Y-98121500D01*
X87081000Y-98141500D01*
X87104000Y-98163500D01*
X87126000Y-98186500D01*
X87146000Y-98209500D01*
X87165000Y-98234500D01*
X87183000Y-98260500D01*
X87200000Y-98287500D01*
X87215000Y-98315500D01*
X87228000Y-98343500D01*
X87240000Y-98372500D01*
X87251000Y-98402500D01*
X87260000Y-98432500D01*
X87267000Y-98462500D01*
X87273000Y-98493500D01*
X87277000Y-98524500D01*
X87279000Y-98556500D01*
X87280000Y-98587500D01*
X87280000Y-99187500D01*
X87280000Y-99787500D01*
X87279000Y-99818500D01*
X87277000Y-99850500D01*
X87273000Y-99881500D01*
X87267000Y-99912500D01*
X87260000Y-99942500D01*
X87251000Y-99972500D01*
X87240000Y-100002500D01*
X87228000Y-100031500D01*
X87215000Y-100059500D01*
X87200000Y-100087500D01*
X87183000Y-100114500D01*
X87165000Y-100140500D01*
X87146000Y-100165500D01*
X87126000Y-100188500D01*
X87104000Y-100211500D01*
X87081000Y-100233500D01*
X87058000Y-100253500D01*
X87033000Y-100272500D01*
X87007000Y-100290500D01*
X86980000Y-100307500D01*
X86952000Y-100322500D01*
X86924000Y-100335500D01*
X86895000Y-100347500D01*
X86865000Y-100358500D01*
X86835000Y-100367500D01*
X86805000Y-100374500D01*
X86774000Y-100380500D01*
X86743000Y-100384500D01*
X86711000Y-100386500D01*
X86680000Y-100387500D01*
X86649000Y-100386500D01*
X86617000Y-100384500D01*
X86586000Y-100380500D01*
X86555000Y-100374500D01*
X86525000Y-100367500D01*
X86495000Y-100358500D01*
X86465000Y-100347500D01*
X86436000Y-100335500D01*
X86408000Y-100322500D01*
X86380000Y-100307500D01*
X86353000Y-100290500D01*
X86327000Y-100272500D01*
X86302000Y-100253500D01*
X86279000Y-100233500D01*
X86256000Y-100211500D01*
X86234000Y-100188500D01*
X86214000Y-100165500D01*
X86195000Y-100140500D01*
X86177000Y-100114500D01*
X86160000Y-100087500D01*
X86145000Y-100059500D01*
X86132000Y-100031500D01*
X86120000Y-100002500D01*
X86109000Y-99972500D01*
X86100000Y-99942500D01*
X86093000Y-99912500D01*
X86087000Y-99881500D01*
X86083000Y-99850500D01*
X86081000Y-99818500D01*
X86080000Y-99787500D01*
X86080000Y-99187500D01*
X86080000Y-98587500D01*
X86081000Y-98556500D01*
X86083000Y-98524500D01*
X86087000Y-98493500D01*
X86093000Y-98462500D01*
X86100000Y-98432500D01*
X86109000Y-98402500D01*
X86120000Y-98372500D01*
X86132000Y-98343500D01*
X86145000Y-98315500D01*
X86160000Y-98287500D01*
X86177000Y-98260500D01*
X86195000Y-98234500D01*
X86214000Y-98209500D01*
X86234000Y-98186500D01*
X86256000Y-98163500D01*
X86279000Y-98141500D01*
X86302000Y-98121500D01*
X86327000Y-98102500D01*
X86353000Y-98084500D01*
X86380000Y-98067500D01*
X86408000Y-98052500D01*
X86436000Y-98039500D01*
X86465000Y-98027500D01*
X86495000Y-98016500D01*
X86525000Y-98007500D01*
X86555000Y-98000500D01*
X86586000Y-97994500D01*
X86617000Y-97990500D01*
X86649000Y-97988500D01*
X86680000Y-97987500D01*
X86711000Y-97988500D01*
G37*
X95351000Y-97988500D02*
X95383000Y-97990500D01*
X95414000Y-97994500D01*
X95445000Y-98000500D01*
X95475000Y-98007500D01*
X95505000Y-98016500D01*
X95535000Y-98027500D01*
X95564000Y-98039500D01*
X95592000Y-98052500D01*
X95620000Y-98067500D01*
X95647000Y-98084500D01*
X95673000Y-98102500D01*
X95698000Y-98121500D01*
X95721000Y-98141500D01*
X95744000Y-98163500D01*
X95766000Y-98186500D01*
X95786000Y-98209500D01*
X95805000Y-98234500D01*
X95823000Y-98260500D01*
X95840000Y-98287500D01*
X95855000Y-98315500D01*
X95868000Y-98343500D01*
X95880000Y-98372500D01*
X95891000Y-98402500D01*
X95900000Y-98432500D01*
X95907000Y-98462500D01*
X95913000Y-98493500D01*
X95917000Y-98524500D01*
X95919000Y-98556500D01*
X95920000Y-98587500D01*
X95920000Y-99187500D01*
X95920000Y-99787500D01*
X95919000Y-99818500D01*
X95917000Y-99850500D01*
X95913000Y-99881500D01*
X95907000Y-99912500D01*
X95900000Y-99942500D01*
X95891000Y-99972500D01*
X95880000Y-100002500D01*
X95868000Y-100031500D01*
X95855000Y-100059500D01*
X95840000Y-100087500D01*
X95823000Y-100114500D01*
X95805000Y-100140500D01*
X95786000Y-100165500D01*
X95766000Y-100188500D01*
X95744000Y-100211500D01*
X95721000Y-100233500D01*
X95698000Y-100253500D01*
X95673000Y-100272500D01*
X95647000Y-100290500D01*
X95620000Y-100307500D01*
X95592000Y-100322500D01*
X95564000Y-100335500D01*
X95535000Y-100347500D01*
X95505000Y-100358500D01*
X95475000Y-100367500D01*
X95445000Y-100374500D01*
X95414000Y-100380500D01*
X95383000Y-100384500D01*
X95351000Y-100386500D01*
X95320000Y-100387500D01*
X95289000Y-100386500D01*
X95257000Y-100384500D01*
X95226000Y-100380500D01*
X95195000Y-100374500D01*
X95165000Y-100367500D01*
X95135000Y-100358500D01*
X95105000Y-100347500D01*
X95076000Y-100335500D01*
X95048000Y-100322500D01*
X95020000Y-100307500D01*
X94993000Y-100290500D01*
X94967000Y-100272500D01*
X94942000Y-100253500D01*
X94919000Y-100233500D01*
X94896000Y-100211500D01*
X94874000Y-100188500D01*
X94854000Y-100165500D01*
X94835000Y-100140500D01*
X94817000Y-100114500D01*
X94800000Y-100087500D01*
X94785000Y-100059500D01*
X94772000Y-100031500D01*
X94760000Y-100002500D01*
X94749000Y-99972500D01*
X94740000Y-99942500D01*
X94733000Y-99912500D01*
X94727000Y-99881500D01*
X94723000Y-99850500D01*
X94721000Y-99818500D01*
X94720000Y-99787500D01*
X94720000Y-99187500D01*
X94720000Y-98587500D01*
X94721000Y-98556500D01*
X94723000Y-98524500D01*
X94727000Y-98493500D01*
X94733000Y-98462500D01*
X94740000Y-98432500D01*
X94749000Y-98402500D01*
X94760000Y-98372500D01*
X94772000Y-98343500D01*
X94785000Y-98315500D01*
X94800000Y-98287500D01*
X94817000Y-98260500D01*
X94835000Y-98234500D01*
X94854000Y-98209500D01*
X94874000Y-98186500D01*
X94896000Y-98163500D01*
X94919000Y-98141500D01*
X94942000Y-98121500D01*
X94967000Y-98102500D01*
X94993000Y-98084500D01*
X95020000Y-98067500D01*
X95048000Y-98052500D01*
X95076000Y-98039500D01*
X95105000Y-98027500D01*
X95135000Y-98016500D01*
X95165000Y-98007500D01*
X95195000Y-98000500D01*
X95226000Y-97994500D01*
X95257000Y-97990500D01*
X95289000Y-97988500D01*
X95320000Y-97987500D01*
X95351000Y-97988500D01*
G36*
X95351000Y-97988500D02*
G01*
X95383000Y-97990500D01*
X95414000Y-97994500D01*
X95445000Y-98000500D01*
X95475000Y-98007500D01*
X95505000Y-98016500D01*
X95535000Y-98027500D01*
X95564000Y-98039500D01*
X95592000Y-98052500D01*
X95620000Y-98067500D01*
X95647000Y-98084500D01*
X95673000Y-98102500D01*
X95698000Y-98121500D01*
X95721000Y-98141500D01*
X95744000Y-98163500D01*
X95766000Y-98186500D01*
X95786000Y-98209500D01*
X95805000Y-98234500D01*
X95823000Y-98260500D01*
X95840000Y-98287500D01*
X95855000Y-98315500D01*
X95868000Y-98343500D01*
X95880000Y-98372500D01*
X95891000Y-98402500D01*
X95900000Y-98432500D01*
X95907000Y-98462500D01*
X95913000Y-98493500D01*
X95917000Y-98524500D01*
X95919000Y-98556500D01*
X95920000Y-98587500D01*
X95920000Y-99187500D01*
X95920000Y-99787500D01*
X95919000Y-99818500D01*
X95917000Y-99850500D01*
X95913000Y-99881500D01*
X95907000Y-99912500D01*
X95900000Y-99942500D01*
X95891000Y-99972500D01*
X95880000Y-100002500D01*
X95868000Y-100031500D01*
X95855000Y-100059500D01*
X95840000Y-100087500D01*
X95823000Y-100114500D01*
X95805000Y-100140500D01*
X95786000Y-100165500D01*
X95766000Y-100188500D01*
X95744000Y-100211500D01*
X95721000Y-100233500D01*
X95698000Y-100253500D01*
X95673000Y-100272500D01*
X95647000Y-100290500D01*
X95620000Y-100307500D01*
X95592000Y-100322500D01*
X95564000Y-100335500D01*
X95535000Y-100347500D01*
X95505000Y-100358500D01*
X95475000Y-100367500D01*
X95445000Y-100374500D01*
X95414000Y-100380500D01*
X95383000Y-100384500D01*
X95351000Y-100386500D01*
X95320000Y-100387500D01*
X95289000Y-100386500D01*
X95257000Y-100384500D01*
X95226000Y-100380500D01*
X95195000Y-100374500D01*
X95165000Y-100367500D01*
X95135000Y-100358500D01*
X95105000Y-100347500D01*
X95076000Y-100335500D01*
X95048000Y-100322500D01*
X95020000Y-100307500D01*
X94993000Y-100290500D01*
X94967000Y-100272500D01*
X94942000Y-100253500D01*
X94919000Y-100233500D01*
X94896000Y-100211500D01*
X94874000Y-100188500D01*
X94854000Y-100165500D01*
X94835000Y-100140500D01*
X94817000Y-100114500D01*
X94800000Y-100087500D01*
X94785000Y-100059500D01*
X94772000Y-100031500D01*
X94760000Y-100002500D01*
X94749000Y-99972500D01*
X94740000Y-99942500D01*
X94733000Y-99912500D01*
X94727000Y-99881500D01*
X94723000Y-99850500D01*
X94721000Y-99818500D01*
X94720000Y-99787500D01*
X94720000Y-99187500D01*
X94720000Y-98587500D01*
X94721000Y-98556500D01*
X94723000Y-98524500D01*
X94727000Y-98493500D01*
X94733000Y-98462500D01*
X94740000Y-98432500D01*
X94749000Y-98402500D01*
X94760000Y-98372500D01*
X94772000Y-98343500D01*
X94785000Y-98315500D01*
X94800000Y-98287500D01*
X94817000Y-98260500D01*
X94835000Y-98234500D01*
X94854000Y-98209500D01*
X94874000Y-98186500D01*
X94896000Y-98163500D01*
X94919000Y-98141500D01*
X94942000Y-98121500D01*
X94967000Y-98102500D01*
X94993000Y-98084500D01*
X95020000Y-98067500D01*
X95048000Y-98052500D01*
X95076000Y-98039500D01*
X95105000Y-98027500D01*
X95135000Y-98016500D01*
X95165000Y-98007500D01*
X95195000Y-98000500D01*
X95226000Y-97994500D01*
X95257000Y-97990500D01*
X95289000Y-97988500D01*
X95320000Y-97987500D01*
X95351000Y-97988500D01*
G37*
%TO.C,J701*%
D11*
X135830500Y-20600000D02*
G75*
G02*
X135269500Y-20600000I-280500J0D01*
G01*
X135269500Y-20600000D02*
G75*
G02*
X135830500Y-20600000I280500J0D01*
G01*
X142180500Y-20600000D02*
G75*
G02*
X141619500Y-20600000I-280500J0D01*
G01*
X141619500Y-20600000D02*
G75*
G02*
X142180500Y-20600000I280500J0D01*
G01*
%TD*%
D12*
%TO.C,S601*%
X69225000Y-54462500D03*
X69225000Y-58512500D03*
%TD*%
%TO.C,S605*%
X69225000Y-36362500D03*
X69225000Y-40412500D03*
%TD*%
D13*
%TO.C,J1*%
X106705750Y-90250000D03*
X106705750Y-97250000D03*
%TD*%
D12*
%TO.C,S701*%
X53052500Y-101860000D03*
X53052500Y-105910000D03*
%TD*%
%TO.C,S603*%
X69225000Y-48362500D03*
X69225000Y-52412500D03*
%TD*%
D14*
%TO.C,BT201*%
X71050000Y-87288207D03*
D15*
X70050000Y-87288207D03*
%TD*%
D12*
%TO.C,S602*%
X69125000Y-30362500D03*
X69125000Y-34412500D03*
%TD*%
D14*
%TO.C,TH201*%
X71050000Y-89588207D03*
D15*
X70050000Y-89588207D03*
%TD*%
D16*
%TO.C,J801*%
X86680000Y-95187500D03*
X95320000Y-95187500D03*
%TD*%
D12*
%TO.C,S201*%
X44525000Y-114662500D03*
X44525000Y-118712500D03*
%TD*%
%TO.C,S604*%
X69225000Y-42362500D03*
X69225000Y-46412500D03*
%TD*%
D17*
%TO.C,U3*%
X80100000Y-80800000D03*
X81200000Y-81900000D03*
X80100000Y-81900000D03*
X79000000Y-81900000D03*
X80100000Y-83000000D03*
%TD*%
D18*
%TO.C,J701*%
X135550000Y-20600000D03*
X141900000Y-20600000D03*
%TD*%
D19*
%TO.C,R407*%
X104098415Y-74367400D03*
X104098415Y-75387400D03*
%TD*%
D20*
%TO.C,R406*%
X103700000Y-63900000D03*
X103700000Y-62880002D03*
%TD*%
D21*
%TO.C,C413*%
X107443415Y-61877400D03*
X107443415Y-60917400D03*
%TD*%
D22*
%TO.C,R509*%
X74403415Y-48147400D03*
X75423415Y-48147400D03*
%TD*%
D20*
%TO.C,R504*%
X85723415Y-53087400D03*
X85723415Y-52067400D03*
%TD*%
D23*
%TO.C,R508*%
X75393415Y-46897400D03*
X74373415Y-46897400D03*
%TD*%
D19*
%TO.C,R502*%
X85703415Y-54117400D03*
X85703415Y-55137400D03*
%TD*%
%TO.C,R505*%
X86703415Y-53637400D03*
X86703415Y-54657400D03*
%TD*%
D24*
%TO.C,C411*%
X103513415Y-60817400D03*
X103513415Y-61777400D03*
%TD*%
D25*
%TO.C,C319*%
X84778822Y-66521178D03*
X84100000Y-67200000D03*
%TD*%
%TO.C,C317*%
X80228822Y-67971178D03*
X79550000Y-68650000D03*
%TD*%
D24*
%TO.C,C412*%
X101623415Y-76417400D03*
X101623415Y-77377400D03*
%TD*%
%TO.C,C327*%
X77300000Y-70740000D03*
X77300000Y-71700000D03*
%TD*%
D26*
%TO.C,C416*%
X111333415Y-70777400D03*
X110373415Y-70777400D03*
%TD*%
D24*
%TO.C,C323*%
X85900000Y-64790000D03*
X85900000Y-65750000D03*
%TD*%
D19*
%TO.C,R414*%
X96298415Y-74367400D03*
X96298415Y-75387400D03*
%TD*%
D23*
%TO.C,R511*%
X78303415Y-42917400D03*
X77283415Y-42917400D03*
%TD*%
D20*
%TO.C,R424*%
X106550000Y-63900000D03*
X106550000Y-62880002D03*
%TD*%
%TO.C,R408*%
X101800000Y-63900000D03*
X101800000Y-62880002D03*
%TD*%
D24*
%TO.C,C339*%
X74850000Y-72340000D03*
X74850000Y-73300000D03*
%TD*%
D19*
%TO.C,R430*%
X107073415Y-74357400D03*
X107073415Y-75377400D03*
%TD*%
D23*
%TO.C,R403*%
X105783415Y-71927400D03*
X104763415Y-71927400D03*
%TD*%
D24*
%TO.C,C417*%
X96753415Y-76417400D03*
X96753415Y-77377400D03*
%TD*%
%TO.C,C334*%
X86250000Y-61940000D03*
X86250000Y-62900000D03*
%TD*%
D25*
%TO.C,C305*%
X83152944Y-66571178D03*
X82474122Y-67250000D03*
%TD*%
D21*
%TO.C,C502*%
X78503415Y-47677400D03*
X78503415Y-46717400D03*
%TD*%
D19*
%TO.C,R422*%
X102123415Y-74402400D03*
X102123415Y-75422400D03*
%TD*%
%TO.C,R501*%
X81033415Y-56927400D03*
X81033415Y-57947400D03*
%TD*%
D24*
%TO.C,C418*%
X98723415Y-76417400D03*
X98723415Y-77377400D03*
%TD*%
D19*
%TO.C,R418*%
X106073415Y-74357400D03*
X106073415Y-75377400D03*
%TD*%
D21*
%TO.C,C511*%
X77473415Y-48707400D03*
X77473415Y-47747400D03*
%TD*%
D26*
%TO.C,C510*%
X86013415Y-47917400D03*
X85053415Y-47917400D03*
%TD*%
D21*
%TO.C,C316*%
X84450000Y-74160000D03*
X84450000Y-73200000D03*
%TD*%
%TO.C,C335*%
X85650000Y-76100000D03*
X85650000Y-75140000D03*
%TD*%
D19*
%TO.C,R416*%
X105098415Y-74367400D03*
X105098415Y-75387400D03*
%TD*%
D21*
%TO.C,C506*%
X79583415Y-51687400D03*
X79583415Y-50727400D03*
%TD*%
D25*
%TO.C,C309*%
X78778822Y-66121178D03*
X78100000Y-66800000D03*
%TD*%
D27*
%TO.C,C336*%
X82300000Y-75650000D03*
X83260000Y-75650000D03*
%TD*%
D28*
%TO.C,C301*%
X78221178Y-69978822D03*
X78900000Y-69300000D03*
%TD*%
D19*
%TO.C,R410*%
X98273415Y-74367400D03*
X98273415Y-75387400D03*
%TD*%
D29*
%TO.C,J501*%
X110980000Y-41510000D03*
D30*
X99830000Y-41910000D03*
D31*
X98705000Y-43715000D03*
X98705000Y-51495000D03*
D29*
X99500000Y-55800000D03*
D32*
X110830000Y-55800000D03*
D33*
X111460000Y-51555000D03*
X111460000Y-50455000D03*
X111460000Y-49355000D03*
X111460000Y-48255000D03*
X111460000Y-47155000D03*
X111460000Y-46055000D03*
X111460000Y-44955000D03*
X111460000Y-43855000D03*
D34*
X108830000Y-41910000D03*
%TD*%
D20*
%TO.C,R503*%
X86673415Y-52517400D03*
X86673415Y-51497400D03*
%TD*%
D25*
%TO.C,C315*%
X83128822Y-68071178D03*
X82450000Y-68750000D03*
%TD*%
D26*
%TO.C,C329*%
X72650000Y-62350000D03*
X71690000Y-62350000D03*
%TD*%
D19*
%TO.C,R426*%
X101148415Y-74392400D03*
X101148415Y-75412400D03*
%TD*%
D21*
%TO.C,C414*%
X105473415Y-61877400D03*
X105473415Y-60917400D03*
%TD*%
D20*
%TO.C,R423*%
X105600000Y-63900000D03*
X105600000Y-62880002D03*
%TD*%
D24*
%TO.C,C324*%
X85900000Y-72200000D03*
X85900000Y-73160000D03*
%TD*%
%TO.C,C410*%
X101543415Y-60817400D03*
X101543415Y-61777400D03*
%TD*%
D20*
%TO.C,R419*%
X98950000Y-63900000D03*
X98950000Y-62880002D03*
%TD*%
D19*
%TO.C,R404*%
X100198415Y-73367400D03*
X100198415Y-74387400D03*
%TD*%
D27*
%TO.C,C338*%
X82340000Y-74700000D03*
X83300000Y-74700000D03*
%TD*%
%TO.C,C514*%
X77523415Y-55877400D03*
X78483415Y-55877400D03*
%TD*%
D21*
%TO.C,C503*%
X79523415Y-48667400D03*
X79523415Y-47707400D03*
%TD*%
D26*
%TO.C,C330*%
X77210000Y-68550000D03*
X76250000Y-68550000D03*
%TD*%
D21*
%TO.C,C512*%
X83563415Y-48617400D03*
X83563415Y-47657400D03*
%TD*%
D24*
%TO.C,C322*%
X85900000Y-66640000D03*
X85900000Y-67600000D03*
%TD*%
D19*
%TO.C,R510*%
X74153415Y-57577400D03*
X74153415Y-58597400D03*
%TD*%
D23*
%TO.C,R507*%
X75393415Y-44907400D03*
X74373415Y-44907400D03*
%TD*%
D27*
%TO.C,C328*%
X76250000Y-69500000D03*
X77210000Y-69500000D03*
%TD*%
D20*
%TO.C,R409*%
X102750000Y-63900000D03*
X102750000Y-62880002D03*
%TD*%
D24*
%TO.C,C427*%
X107673415Y-71597400D03*
X107673415Y-72557400D03*
%TD*%
D28*
%TO.C,C331*%
X83750000Y-65950000D03*
X84428822Y-65271178D03*
%TD*%
D24*
%TO.C,C505*%
X81443415Y-47727400D03*
X81443415Y-48687400D03*
%TD*%
D25*
%TO.C,C314*%
X83978822Y-64121178D03*
X83300000Y-64800000D03*
%TD*%
D19*
%TO.C,R412*%
X97288415Y-74377400D03*
X97288415Y-75397400D03*
%TD*%
D20*
%TO.C,R415*%
X99900000Y-63919998D03*
X99900000Y-62900000D03*
%TD*%
D26*
%TO.C,C303*%
X81510000Y-72966291D03*
X80550000Y-72966291D03*
%TD*%
D25*
%TO.C,C308*%
X84728822Y-68171178D03*
X84050000Y-68850000D03*
%TD*%
D24*
%TO.C,C507*%
X82533415Y-52717400D03*
X82533415Y-53677400D03*
%TD*%
%TO.C,C408*%
X105603415Y-76487400D03*
X105603415Y-77447400D03*
%TD*%
D21*
%TO.C,C509*%
X78523415Y-45767400D03*
X78523415Y-44807400D03*
%TD*%
D24*
%TO.C,C409*%
X99573415Y-60817400D03*
X99573415Y-61777400D03*
%TD*%
%TO.C,C415*%
X107423415Y-76517400D03*
X107423415Y-77477400D03*
%TD*%
D21*
%TO.C,C333*%
X74850000Y-71050000D03*
X74850000Y-70090000D03*
%TD*%
D20*
%TO.C,R421*%
X104650000Y-63900000D03*
X104650000Y-62880002D03*
%TD*%
D22*
%TO.C,R428*%
X109750000Y-68225000D03*
X110769998Y-68225000D03*
%TD*%
D25*
%TO.C,C312*%
X82428822Y-64121178D03*
X81750000Y-64800000D03*
%TD*%
D20*
%TO.C,R411*%
X100850000Y-63900000D03*
X100850000Y-62880002D03*
%TD*%
%TO.C,R425*%
X107500000Y-63900000D03*
X107500000Y-62880002D03*
%TD*%
D24*
%TO.C,C325*%
X85300000Y-62700000D03*
X85300000Y-63660000D03*
%TD*%
%TO.C,C326*%
X75850000Y-70740000D03*
X75850000Y-71700000D03*
%TD*%
D20*
%TO.C,R512*%
X75123415Y-58617400D03*
X75123415Y-57597400D03*
%TD*%
D28*
%TO.C,C313*%
X80950000Y-68850000D03*
X81628822Y-68171178D03*
%TD*%
D25*
%TO.C,C311*%
X80825121Y-65730042D03*
X80146299Y-66408864D03*
%TD*%
D24*
%TO.C,C320*%
X85900000Y-70340000D03*
X85900000Y-71300000D03*
%TD*%
D28*
%TO.C,C304*%
X77726057Y-72829106D03*
X78404879Y-72150284D03*
%TD*%
D19*
%TO.C,R417*%
X103098415Y-74377400D03*
X103098415Y-75397400D03*
%TD*%
D26*
%TO.C,C513*%
X83643415Y-55817400D03*
X82683415Y-55817400D03*
%TD*%
%TO.C,C302*%
X83350000Y-72966291D03*
X82390000Y-72966291D03*
%TD*%
D22*
%TO.C,R427*%
X109750000Y-67250000D03*
X110769998Y-67250000D03*
%TD*%
D24*
%TO.C,C407*%
X103633415Y-76487400D03*
X103633415Y-77447400D03*
%TD*%
%TO.C,C337*%
X83200000Y-62390000D03*
X83200000Y-63350000D03*
%TD*%
D25*
%TO.C,C307*%
X83940380Y-70650000D03*
X83261558Y-71328822D03*
%TD*%
D24*
%TO.C,C321*%
X85900000Y-68490000D03*
X85900000Y-69450000D03*
%TD*%
D22*
%TO.C,R429*%
X109750000Y-66275000D03*
X110769998Y-66275000D03*
%TD*%
D23*
%TO.C,R506*%
X75393415Y-42917400D03*
X74373415Y-42917400D03*
%TD*%
D35*
%TO.C,C306*%
X79450000Y-65500000D03*
X78771178Y-64821178D03*
%TD*%
D26*
%TO.C,C504*%
X78483415Y-52617400D03*
X77523415Y-52617400D03*
%TD*%
D19*
%TO.C,R420*%
X99223415Y-74367400D03*
X99223415Y-75387400D03*
%TD*%
D28*
%TO.C,C318*%
X80921708Y-70424759D03*
X81600530Y-69745937D03*
%TD*%
D25*
%TO.C,C310*%
X82428822Y-65721178D03*
X81750000Y-66400000D03*
%TD*%
D20*
%TO.C,R413*%
X97950000Y-63900000D03*
X97950000Y-62880002D03*
%TD*%
M02*
