%TF.GenerationSoftware,KiCad,Pcbnew,9.0.2*%
%TF.CreationDate,2025-06-19T13:39:27-06:00*%
%TF.ProjectId,MPU_MOD,4d50555f-4d4f-4442-9e6b-696361645f70,rev?*%
%TF.SameCoordinates,Original*%
%TF.FileFunction,Soldermask,Top*%
%TF.FilePolarity,Negative*%
%FSLAX46Y46*%
G04 Gerber Fmt 4.6, Leading zero omitted, Abs format (unit mm)*
G04 Created by KiCad (PCBNEW 9.0.2) date 2025-06-19 13:39:27*
%MOMM*%
%LPD*%
G01*
G04 APERTURE LIST*
G04 Aperture macros list*
%AMRoundRect*
0 Rectangle with rounded corners*
0 $1 Rounding radius*
0 $2 $3 $4 $5 $6 $7 $8 $9 X,Y pos of 4 corners*
0 Add a 4 corners polygon primitive as box body*
4,1,4,$2,$3,$4,$5,$6,$7,$8,$9,$2,$3,0*
0 Add four circle primitives for the rounded corners*
1,1,$1+$1,$2,$3*
1,1,$1+$1,$4,$5*
1,1,$1+$1,$6,$7*
1,1,$1+$1,$8,$9*
0 Add four rect primitives between the rounded corners*
20,1,$1+$1,$2,$3,$4,$5,0*
20,1,$1+$1,$4,$5,$6,$7,0*
20,1,$1+$1,$6,$7,$8,$9,0*
20,1,$1+$1,$8,$9,$2,$3,0*%
G04 Aperture macros list end*
%ADD10C,0.010000*%
%ADD11RoundRect,0.140000X-0.170000X0.140000X-0.170000X-0.140000X0.170000X-0.140000X0.170000X0.140000X0*%
%ADD12RoundRect,0.125000X-0.125000X-0.125000X0.125000X-0.125000X0.125000X0.125000X-0.125000X0.125000X0*%
%ADD13RoundRect,0.102000X-0.625000X0.500000X-0.625000X-0.500000X0.625000X-0.500000X0.625000X0.500000X0*%
%ADD14RoundRect,0.140000X0.170000X-0.140000X0.170000X0.140000X-0.170000X0.140000X-0.170000X-0.140000X0*%
%ADD15RoundRect,0.135000X-0.135000X-0.185000X0.135000X-0.185000X0.135000X0.185000X-0.135000X0.185000X0*%
%ADD16C,0.420000*%
%ADD17RoundRect,0.135000X-0.185000X0.135000X-0.185000X-0.135000X0.185000X-0.135000X0.185000X0.135000X0*%
%ADD18RoundRect,0.102000X-0.525000X0.825000X-0.525000X-0.825000X0.525000X-0.825000X0.525000X0.825000X0*%
%ADD19C,1.104000*%
%ADD20RoundRect,0.225000X-0.250000X0.225000X-0.250000X-0.225000X0.250000X-0.225000X0.250000X0.225000X0*%
%ADD21RoundRect,0.225000X-0.225000X-0.250000X0.225000X-0.250000X0.225000X0.250000X-0.225000X0.250000X0*%
%ADD22RoundRect,0.140000X0.140000X0.170000X-0.140000X0.170000X-0.140000X-0.170000X0.140000X-0.170000X0*%
%ADD23RoundRect,0.147500X-0.172500X0.147500X-0.172500X-0.147500X0.172500X-0.147500X0.172500X0.147500X0*%
%ADD24RoundRect,0.225000X0.225000X0.250000X-0.225000X0.250000X-0.225000X-0.250000X0.225000X-0.250000X0*%
%ADD25RoundRect,0.140000X-0.140000X-0.170000X0.140000X-0.170000X0.140000X0.170000X-0.140000X0.170000X0*%
%ADD26RoundRect,0.135000X0.135000X0.185000X-0.135000X0.185000X-0.135000X-0.185000X0.135000X-0.185000X0*%
%ADD27RoundRect,0.250000X0.375000X0.850000X-0.375000X0.850000X-0.375000X-0.850000X0.375000X-0.850000X0*%
%ADD28C,1.200000*%
%ADD29RoundRect,0.102000X-1.250000X-0.800000X1.250000X-0.800000X1.250000X0.800000X-1.250000X0.800000X0*%
%ADD30RoundRect,0.054250X0.467750X0.162750X-0.467750X0.162750X-0.467750X-0.162750X0.467750X-0.162750X0*%
%ADD31RoundRect,0.054250X0.162750X0.467750X-0.162750X0.467750X-0.162750X-0.467750X0.162750X-0.467750X0*%
%ADD32RoundRect,0.102000X1.750000X2.250000X-1.750000X2.250000X-1.750000X-2.250000X1.750000X-2.250000X0*%
%ADD33RoundRect,0.102000X0.302400X0.089300X-0.302400X0.089300X-0.302400X-0.089300X0.302400X-0.089300X0*%
%ADD34RoundRect,0.102000X0.089300X0.302400X-0.089300X0.302400X-0.089300X-0.302400X0.089300X-0.302400X0*%
%ADD35RoundRect,0.102000X0.723900X0.723900X-0.723900X0.723900X-0.723900X-0.723900X0.723900X-0.723900X0*%
%ADD36RoundRect,0.250000X-0.375000X-0.850000X0.375000X-0.850000X0.375000X0.850000X-0.375000X0.850000X0*%
%ADD37R,0.850000X0.850000*%
%ADD38C,0.850000*%
%ADD39RoundRect,0.076200X0.500000X-0.500000X0.500000X0.500000X-0.500000X0.500000X-0.500000X-0.500000X0*%
%ADD40RoundRect,0.076200X1.100000X-0.525000X1.100000X0.525000X-1.100000X0.525000X-1.100000X-0.525000X0*%
%ADD41RoundRect,0.250000X-0.850000X0.375000X-0.850000X-0.375000X0.850000X-0.375000X0.850000X0.375000X0*%
%ADD42RoundRect,0.102000X-0.600000X-0.600000X0.600000X-0.600000X0.600000X0.600000X-0.600000X0.600000X0*%
%ADD43R,0.600000X1.850000*%
%ADD44R,0.600000X1.650000*%
%ADD45RoundRect,0.135000X0.185000X-0.135000X0.185000X0.135000X-0.185000X0.135000X-0.185000X-0.135000X0*%
%ADD46RoundRect,0.102000X-0.700000X-0.700000X0.700000X-0.700000X0.700000X0.700000X-0.700000X0.700000X0*%
%ADD47RoundRect,0.125000X-0.125000X0.125000X-0.125000X-0.125000X0.125000X-0.125000X0.125000X0.125000X0*%
%ADD48RoundRect,0.225000X0.250000X-0.225000X0.250000X0.225000X-0.250000X0.225000X-0.250000X-0.225000X0*%
%ADD49R,0.406400X0.838200*%
%ADD50RoundRect,0.137500X0.137500X0.662500X-0.137500X0.662500X-0.137500X-0.662500X0.137500X-0.662500X0*%
%ADD51RoundRect,0.102000X0.225000X-0.150000X0.225000X0.150000X-0.225000X0.150000X-0.225000X-0.150000X0*%
%ADD52RoundRect,0.102000X0.150000X-0.225000X0.150000X0.225000X-0.150000X0.225000X-0.150000X-0.225000X0*%
%ADD53RoundRect,0.102000X-0.300000X-0.575000X0.300000X-0.575000X0.300000X0.575000X-0.300000X0.575000X0*%
%ADD54RoundRect,0.102000X-0.150000X-0.575000X0.150000X-0.575000X0.150000X0.575000X-0.150000X0.575000X0*%
%ADD55O,1.204000X2.004000*%
%ADD56RoundRect,0.218750X0.256250X-0.218750X0.256250X0.218750X-0.256250X0.218750X-0.256250X-0.218750X0*%
%ADD57RoundRect,0.200000X-0.200000X-0.250000X0.200000X-0.250000X0.200000X0.250000X-0.200000X0.250000X0*%
%ADD58RoundRect,0.147500X0.172500X-0.147500X0.172500X0.147500X-0.172500X0.147500X-0.172500X-0.147500X0*%
%ADD59C,0.620000*%
%ADD60RoundRect,0.200000X0.275000X-0.200000X0.275000X0.200000X-0.275000X0.200000X-0.275000X-0.200000X0*%
%ADD61RoundRect,0.102000X-0.750000X-0.550000X0.750000X-0.550000X0.750000X0.550000X-0.750000X0.550000X0*%
%ADD62RoundRect,0.016240X-0.215760X0.665760X-0.215760X-0.665760X0.215760X-0.665760X0.215760X0.665760X0*%
%ADD63RoundRect,0.016240X-0.215760X0.590760X-0.215760X-0.590760X0.215760X-0.590760X0.215760X0.590760X0*%
%ADD64O,0.240000X0.599999*%
%ADD65O,0.599999X0.240000*%
%ADD66R,2.700000X2.700000*%
%ADD67C,0.499999*%
%ADD68C,1.020000*%
%ADD69RoundRect,0.102000X-0.370000X-1.395000X0.370000X-1.395000X0.370000X1.395000X-0.370000X1.395000X0*%
%ADD70C,0.355600*%
G04 APERTURE END LIST*
D10*
%TO.C,U502*%
X110440000Y-46675900D02*
X109760000Y-46675900D01*
X109760000Y-46375900D01*
X110440000Y-46375900D01*
X110440000Y-46675900D01*
G36*
X110440000Y-46675900D02*
G01*
X109760000Y-46675900D01*
X109760000Y-46375900D01*
X110440000Y-46375900D01*
X110440000Y-46675900D01*
G37*
X110440000Y-47175900D02*
X109760000Y-47175900D01*
X109760000Y-46875900D01*
X110440000Y-46875900D01*
X110440000Y-47175900D01*
G36*
X110440000Y-47175900D02*
G01*
X109760000Y-47175900D01*
X109760000Y-46875900D01*
X110440000Y-46875900D01*
X110440000Y-47175900D01*
G37*
X110440000Y-47775900D02*
X109760000Y-47775900D01*
X109760000Y-47275900D01*
X110440000Y-47275900D01*
X110440000Y-47775900D01*
G36*
X110440000Y-47775900D02*
G01*
X109760000Y-47775900D01*
X109760000Y-47275900D01*
X110440000Y-47275900D01*
X110440000Y-47775900D01*
G37*
X110440000Y-48175900D02*
X109760000Y-48175900D01*
X109760000Y-47875900D01*
X110440000Y-47875900D01*
X110440000Y-48175900D01*
G36*
X110440000Y-48175900D02*
G01*
X109760000Y-48175900D01*
X109760000Y-47875900D01*
X110440000Y-47875900D01*
X110440000Y-48175900D01*
G37*
X110440000Y-48675900D02*
X109760000Y-48675900D01*
X109760000Y-48375900D01*
X110440000Y-48375900D01*
X110440000Y-48675900D01*
G36*
X110440000Y-48675900D02*
G01*
X109760000Y-48675900D01*
X109760000Y-48375900D01*
X110440000Y-48375900D01*
X110440000Y-48675900D01*
G37*
X111260000Y-46675900D02*
X110580000Y-46675900D01*
X110580000Y-46375900D01*
X111260000Y-46375900D01*
X111260000Y-46675900D01*
G36*
X111260000Y-46675900D02*
G01*
X110580000Y-46675900D01*
X110580000Y-46375900D01*
X111260000Y-46375900D01*
X111260000Y-46675900D01*
G37*
X111260000Y-47175900D02*
X110580000Y-47175900D01*
X110580000Y-46875900D01*
X111260000Y-46875900D01*
X111260000Y-47175900D01*
G36*
X111260000Y-47175900D02*
G01*
X110580000Y-47175900D01*
X110580000Y-46875900D01*
X111260000Y-46875900D01*
X111260000Y-47175900D01*
G37*
X111260000Y-47775900D02*
X110580000Y-47775900D01*
X110580000Y-47275900D01*
X111260000Y-47275900D01*
X111260000Y-47775900D01*
G36*
X111260000Y-47775900D02*
G01*
X110580000Y-47775900D01*
X110580000Y-47275900D01*
X111260000Y-47275900D01*
X111260000Y-47775900D01*
G37*
X111260000Y-48175900D02*
X110580000Y-48175900D01*
X110580000Y-47875900D01*
X111260000Y-47875900D01*
X111260000Y-48175900D01*
G36*
X111260000Y-48175900D02*
G01*
X110580000Y-48175900D01*
X110580000Y-47875900D01*
X111260000Y-47875900D01*
X111260000Y-48175900D01*
G37*
X111260000Y-48675900D02*
X110580000Y-48675900D01*
X110580000Y-48375900D01*
X111260000Y-48375900D01*
X111260000Y-48675900D01*
G36*
X111260000Y-48675900D02*
G01*
X110580000Y-48675900D01*
X110580000Y-48375900D01*
X111260000Y-48375900D01*
X111260000Y-48675900D01*
G37*
%TO.C,U503*%
X110623415Y-50075900D02*
X109943415Y-50075900D01*
X109943415Y-49775900D01*
X110623415Y-49775900D01*
X110623415Y-50075900D01*
G36*
X110623415Y-50075900D02*
G01*
X109943415Y-50075900D01*
X109943415Y-49775900D01*
X110623415Y-49775900D01*
X110623415Y-50075900D01*
G37*
X110623415Y-50575900D02*
X109943415Y-50575900D01*
X109943415Y-50275900D01*
X110623415Y-50275900D01*
X110623415Y-50575900D01*
G36*
X110623415Y-50575900D02*
G01*
X109943415Y-50575900D01*
X109943415Y-50275900D01*
X110623415Y-50275900D01*
X110623415Y-50575900D01*
G37*
X110623415Y-51175900D02*
X109943415Y-51175900D01*
X109943415Y-50675900D01*
X110623415Y-50675900D01*
X110623415Y-51175900D01*
G36*
X110623415Y-51175900D02*
G01*
X109943415Y-51175900D01*
X109943415Y-50675900D01*
X110623415Y-50675900D01*
X110623415Y-51175900D01*
G37*
X110623415Y-51575900D02*
X109943415Y-51575900D01*
X109943415Y-51275900D01*
X110623415Y-51275900D01*
X110623415Y-51575900D01*
G36*
X110623415Y-51575900D02*
G01*
X109943415Y-51575900D01*
X109943415Y-51275900D01*
X110623415Y-51275900D01*
X110623415Y-51575900D01*
G37*
X110623415Y-52075900D02*
X109943415Y-52075900D01*
X109943415Y-51775900D01*
X110623415Y-51775900D01*
X110623415Y-52075900D01*
G36*
X110623415Y-52075900D02*
G01*
X109943415Y-52075900D01*
X109943415Y-51775900D01*
X110623415Y-51775900D01*
X110623415Y-52075900D01*
G37*
X111443415Y-50075900D02*
X110763415Y-50075900D01*
X110763415Y-49775900D01*
X111443415Y-49775900D01*
X111443415Y-50075900D01*
G36*
X111443415Y-50075900D02*
G01*
X110763415Y-50075900D01*
X110763415Y-49775900D01*
X111443415Y-49775900D01*
X111443415Y-50075900D01*
G37*
X111443415Y-50575900D02*
X110763415Y-50575900D01*
X110763415Y-50275900D01*
X111443415Y-50275900D01*
X111443415Y-50575900D01*
G36*
X111443415Y-50575900D02*
G01*
X110763415Y-50575900D01*
X110763415Y-50275900D01*
X111443415Y-50275900D01*
X111443415Y-50575900D01*
G37*
X111443415Y-51175900D02*
X110763415Y-51175900D01*
X110763415Y-50675900D01*
X111443415Y-50675900D01*
X111443415Y-51175900D01*
G36*
X111443415Y-51175900D02*
G01*
X110763415Y-51175900D01*
X110763415Y-50675900D01*
X111443415Y-50675900D01*
X111443415Y-51175900D01*
G37*
X111443415Y-51575900D02*
X110763415Y-51575900D01*
X110763415Y-51275900D01*
X111443415Y-51275900D01*
X111443415Y-51575900D01*
G36*
X111443415Y-51575900D02*
G01*
X110763415Y-51575900D01*
X110763415Y-51275900D01*
X111443415Y-51275900D01*
X111443415Y-51575900D01*
G37*
X111443415Y-52075900D02*
X110763415Y-52075900D01*
X110763415Y-51775900D01*
X111443415Y-51775900D01*
X111443415Y-52075900D01*
G36*
X111443415Y-52075900D02*
G01*
X110763415Y-52075900D01*
X110763415Y-51775900D01*
X111443415Y-51775900D01*
X111443415Y-52075900D01*
G37*
%TO.C,U702*%
X138050000Y-29570000D02*
X137750000Y-29570000D01*
X137750000Y-28890000D01*
X138050000Y-28890000D01*
X138050000Y-29570000D01*
G36*
X138050000Y-29570000D02*
G01*
X137750000Y-29570000D01*
X137750000Y-28890000D01*
X138050000Y-28890000D01*
X138050000Y-29570000D01*
G37*
X138050000Y-30390000D02*
X137750000Y-30390000D01*
X137750000Y-29710000D01*
X138050000Y-29710000D01*
X138050000Y-30390000D01*
G36*
X138050000Y-30390000D02*
G01*
X137750000Y-30390000D01*
X137750000Y-29710000D01*
X138050000Y-29710000D01*
X138050000Y-30390000D01*
G37*
X138550000Y-29570000D02*
X138250000Y-29570000D01*
X138250000Y-28890000D01*
X138550000Y-28890000D01*
X138550000Y-29570000D01*
G36*
X138550000Y-29570000D02*
G01*
X138250000Y-29570000D01*
X138250000Y-28890000D01*
X138550000Y-28890000D01*
X138550000Y-29570000D01*
G37*
X138550000Y-30390000D02*
X138250000Y-30390000D01*
X138250000Y-29710000D01*
X138550000Y-29710000D01*
X138550000Y-30390000D01*
G36*
X138550000Y-30390000D02*
G01*
X138250000Y-30390000D01*
X138250000Y-29710000D01*
X138550000Y-29710000D01*
X138550000Y-30390000D01*
G37*
X139150000Y-29570000D02*
X138650000Y-29570000D01*
X138650000Y-28890000D01*
X139150000Y-28890000D01*
X139150000Y-29570000D01*
G36*
X139150000Y-29570000D02*
G01*
X138650000Y-29570000D01*
X138650000Y-28890000D01*
X139150000Y-28890000D01*
X139150000Y-29570000D01*
G37*
X139150000Y-30390000D02*
X138650000Y-30390000D01*
X138650000Y-29710000D01*
X139150000Y-29710000D01*
X139150000Y-30390000D01*
G36*
X139150000Y-30390000D02*
G01*
X138650000Y-30390000D01*
X138650000Y-29710000D01*
X139150000Y-29710000D01*
X139150000Y-30390000D01*
G37*
X139550000Y-29570000D02*
X139250000Y-29570000D01*
X139250000Y-28890000D01*
X139550000Y-28890000D01*
X139550000Y-29570000D01*
G36*
X139550000Y-29570000D02*
G01*
X139250000Y-29570000D01*
X139250000Y-28890000D01*
X139550000Y-28890000D01*
X139550000Y-29570000D01*
G37*
X139550000Y-30390000D02*
X139250000Y-30390000D01*
X139250000Y-29710000D01*
X139550000Y-29710000D01*
X139550000Y-30390000D01*
G36*
X139550000Y-30390000D02*
G01*
X139250000Y-30390000D01*
X139250000Y-29710000D01*
X139550000Y-29710000D01*
X139550000Y-30390000D01*
G37*
X140050000Y-29570000D02*
X139750000Y-29570000D01*
X139750000Y-28890000D01*
X140050000Y-28890000D01*
X140050000Y-29570000D01*
G36*
X140050000Y-29570000D02*
G01*
X139750000Y-29570000D01*
X139750000Y-28890000D01*
X140050000Y-28890000D01*
X140050000Y-29570000D01*
G37*
X140050000Y-30390000D02*
X139750000Y-30390000D01*
X139750000Y-29710000D01*
X140050000Y-29710000D01*
X140050000Y-30390000D01*
G36*
X140050000Y-30390000D02*
G01*
X139750000Y-30390000D01*
X139750000Y-29710000D01*
X140050000Y-29710000D01*
X140050000Y-30390000D01*
G37*
%TO.C,J801*%
X86711000Y-97988500D02*
X86743000Y-97990500D01*
X86774000Y-97994500D01*
X86805000Y-98000500D01*
X86835000Y-98007500D01*
X86865000Y-98016500D01*
X86895000Y-98027500D01*
X86924000Y-98039500D01*
X86952000Y-98052500D01*
X86980000Y-98067500D01*
X87007000Y-98084500D01*
X87033000Y-98102500D01*
X87058000Y-98121500D01*
X87081000Y-98141500D01*
X87104000Y-98163500D01*
X87126000Y-98186500D01*
X87146000Y-98209500D01*
X87165000Y-98234500D01*
X87183000Y-98260500D01*
X87200000Y-98287500D01*
X87215000Y-98315500D01*
X87228000Y-98343500D01*
X87240000Y-98372500D01*
X87251000Y-98402500D01*
X87260000Y-98432500D01*
X87267000Y-98462500D01*
X87273000Y-98493500D01*
X87277000Y-98524500D01*
X87279000Y-98556500D01*
X87280000Y-98587500D01*
X87280000Y-99187500D01*
X87280000Y-99787500D01*
X87279000Y-99818500D01*
X87277000Y-99850500D01*
X87273000Y-99881500D01*
X87267000Y-99912500D01*
X87260000Y-99942500D01*
X87251000Y-99972500D01*
X87240000Y-100002500D01*
X87228000Y-100031500D01*
X87215000Y-100059500D01*
X87200000Y-100087500D01*
X87183000Y-100114500D01*
X87165000Y-100140500D01*
X87146000Y-100165500D01*
X87126000Y-100188500D01*
X87104000Y-100211500D01*
X87081000Y-100233500D01*
X87058000Y-100253500D01*
X87033000Y-100272500D01*
X87007000Y-100290500D01*
X86980000Y-100307500D01*
X86952000Y-100322500D01*
X86924000Y-100335500D01*
X86895000Y-100347500D01*
X86865000Y-100358500D01*
X86835000Y-100367500D01*
X86805000Y-100374500D01*
X86774000Y-100380500D01*
X86743000Y-100384500D01*
X86711000Y-100386500D01*
X86680000Y-100387500D01*
X86649000Y-100386500D01*
X86617000Y-100384500D01*
X86586000Y-100380500D01*
X86555000Y-100374500D01*
X86525000Y-100367500D01*
X86495000Y-100358500D01*
X86465000Y-100347500D01*
X86436000Y-100335500D01*
X86408000Y-100322500D01*
X86380000Y-100307500D01*
X86353000Y-100290500D01*
X86327000Y-100272500D01*
X86302000Y-100253500D01*
X86279000Y-100233500D01*
X86256000Y-100211500D01*
X86234000Y-100188500D01*
X86214000Y-100165500D01*
X86195000Y-100140500D01*
X86177000Y-100114500D01*
X86160000Y-100087500D01*
X86145000Y-100059500D01*
X86132000Y-100031500D01*
X86120000Y-100002500D01*
X86109000Y-99972500D01*
X86100000Y-99942500D01*
X86093000Y-99912500D01*
X86087000Y-99881500D01*
X86083000Y-99850500D01*
X86081000Y-99818500D01*
X86080000Y-99787500D01*
X86080000Y-99187500D01*
X86080000Y-98587500D01*
X86081000Y-98556500D01*
X86083000Y-98524500D01*
X86087000Y-98493500D01*
X86093000Y-98462500D01*
X86100000Y-98432500D01*
X86109000Y-98402500D01*
X86120000Y-98372500D01*
X86132000Y-98343500D01*
X86145000Y-98315500D01*
X86160000Y-98287500D01*
X86177000Y-98260500D01*
X86195000Y-98234500D01*
X86214000Y-98209500D01*
X86234000Y-98186500D01*
X86256000Y-98163500D01*
X86279000Y-98141500D01*
X86302000Y-98121500D01*
X86327000Y-98102500D01*
X86353000Y-98084500D01*
X86380000Y-98067500D01*
X86408000Y-98052500D01*
X86436000Y-98039500D01*
X86465000Y-98027500D01*
X86495000Y-98016500D01*
X86525000Y-98007500D01*
X86555000Y-98000500D01*
X86586000Y-97994500D01*
X86617000Y-97990500D01*
X86649000Y-97988500D01*
X86680000Y-97987500D01*
X86711000Y-97988500D01*
G36*
X86711000Y-97988500D02*
G01*
X86743000Y-97990500D01*
X86774000Y-97994500D01*
X86805000Y-98000500D01*
X86835000Y-98007500D01*
X86865000Y-98016500D01*
X86895000Y-98027500D01*
X86924000Y-98039500D01*
X86952000Y-98052500D01*
X86980000Y-98067500D01*
X87007000Y-98084500D01*
X87033000Y-98102500D01*
X87058000Y-98121500D01*
X87081000Y-98141500D01*
X87104000Y-98163500D01*
X87126000Y-98186500D01*
X87146000Y-98209500D01*
X87165000Y-98234500D01*
X87183000Y-98260500D01*
X87200000Y-98287500D01*
X87215000Y-98315500D01*
X87228000Y-98343500D01*
X87240000Y-98372500D01*
X87251000Y-98402500D01*
X87260000Y-98432500D01*
X87267000Y-98462500D01*
X87273000Y-98493500D01*
X87277000Y-98524500D01*
X87279000Y-98556500D01*
X87280000Y-98587500D01*
X87280000Y-99187500D01*
X87280000Y-99787500D01*
X87279000Y-99818500D01*
X87277000Y-99850500D01*
X87273000Y-99881500D01*
X87267000Y-99912500D01*
X87260000Y-99942500D01*
X87251000Y-99972500D01*
X87240000Y-100002500D01*
X87228000Y-100031500D01*
X87215000Y-100059500D01*
X87200000Y-100087500D01*
X87183000Y-100114500D01*
X87165000Y-100140500D01*
X87146000Y-100165500D01*
X87126000Y-100188500D01*
X87104000Y-100211500D01*
X87081000Y-100233500D01*
X87058000Y-100253500D01*
X87033000Y-100272500D01*
X87007000Y-100290500D01*
X86980000Y-100307500D01*
X86952000Y-100322500D01*
X86924000Y-100335500D01*
X86895000Y-100347500D01*
X86865000Y-100358500D01*
X86835000Y-100367500D01*
X86805000Y-100374500D01*
X86774000Y-100380500D01*
X86743000Y-100384500D01*
X86711000Y-100386500D01*
X86680000Y-100387500D01*
X86649000Y-100386500D01*
X86617000Y-100384500D01*
X86586000Y-100380500D01*
X86555000Y-100374500D01*
X86525000Y-100367500D01*
X86495000Y-100358500D01*
X86465000Y-100347500D01*
X86436000Y-100335500D01*
X86408000Y-100322500D01*
X86380000Y-100307500D01*
X86353000Y-100290500D01*
X86327000Y-100272500D01*
X86302000Y-100253500D01*
X86279000Y-100233500D01*
X86256000Y-100211500D01*
X86234000Y-100188500D01*
X86214000Y-100165500D01*
X86195000Y-100140500D01*
X86177000Y-100114500D01*
X86160000Y-100087500D01*
X86145000Y-100059500D01*
X86132000Y-100031500D01*
X86120000Y-100002500D01*
X86109000Y-99972500D01*
X86100000Y-99942500D01*
X86093000Y-99912500D01*
X86087000Y-99881500D01*
X86083000Y-99850500D01*
X86081000Y-99818500D01*
X86080000Y-99787500D01*
X86080000Y-99187500D01*
X86080000Y-98587500D01*
X86081000Y-98556500D01*
X86083000Y-98524500D01*
X86087000Y-98493500D01*
X86093000Y-98462500D01*
X86100000Y-98432500D01*
X86109000Y-98402500D01*
X86120000Y-98372500D01*
X86132000Y-98343500D01*
X86145000Y-98315500D01*
X86160000Y-98287500D01*
X86177000Y-98260500D01*
X86195000Y-98234500D01*
X86214000Y-98209500D01*
X86234000Y-98186500D01*
X86256000Y-98163500D01*
X86279000Y-98141500D01*
X86302000Y-98121500D01*
X86327000Y-98102500D01*
X86353000Y-98084500D01*
X86380000Y-98067500D01*
X86408000Y-98052500D01*
X86436000Y-98039500D01*
X86465000Y-98027500D01*
X86495000Y-98016500D01*
X86525000Y-98007500D01*
X86555000Y-98000500D01*
X86586000Y-97994500D01*
X86617000Y-97990500D01*
X86649000Y-97988500D01*
X86680000Y-97987500D01*
X86711000Y-97988500D01*
G37*
X95351000Y-97988500D02*
X95383000Y-97990500D01*
X95414000Y-97994500D01*
X95445000Y-98000500D01*
X95475000Y-98007500D01*
X95505000Y-98016500D01*
X95535000Y-98027500D01*
X95564000Y-98039500D01*
X95592000Y-98052500D01*
X95620000Y-98067500D01*
X95647000Y-98084500D01*
X95673000Y-98102500D01*
X95698000Y-98121500D01*
X95721000Y-98141500D01*
X95744000Y-98163500D01*
X95766000Y-98186500D01*
X95786000Y-98209500D01*
X95805000Y-98234500D01*
X95823000Y-98260500D01*
X95840000Y-98287500D01*
X95855000Y-98315500D01*
X95868000Y-98343500D01*
X95880000Y-98372500D01*
X95891000Y-98402500D01*
X95900000Y-98432500D01*
X95907000Y-98462500D01*
X95913000Y-98493500D01*
X95917000Y-98524500D01*
X95919000Y-98556500D01*
X95920000Y-98587500D01*
X95920000Y-99187500D01*
X95920000Y-99787500D01*
X95919000Y-99818500D01*
X95917000Y-99850500D01*
X95913000Y-99881500D01*
X95907000Y-99912500D01*
X95900000Y-99942500D01*
X95891000Y-99972500D01*
X95880000Y-100002500D01*
X95868000Y-100031500D01*
X95855000Y-100059500D01*
X95840000Y-100087500D01*
X95823000Y-100114500D01*
X95805000Y-100140500D01*
X95786000Y-100165500D01*
X95766000Y-100188500D01*
X95744000Y-100211500D01*
X95721000Y-100233500D01*
X95698000Y-100253500D01*
X95673000Y-100272500D01*
X95647000Y-100290500D01*
X95620000Y-100307500D01*
X95592000Y-100322500D01*
X95564000Y-100335500D01*
X95535000Y-100347500D01*
X95505000Y-100358500D01*
X95475000Y-100367500D01*
X95445000Y-100374500D01*
X95414000Y-100380500D01*
X95383000Y-100384500D01*
X95351000Y-100386500D01*
X95320000Y-100387500D01*
X95289000Y-100386500D01*
X95257000Y-100384500D01*
X95226000Y-100380500D01*
X95195000Y-100374500D01*
X95165000Y-100367500D01*
X95135000Y-100358500D01*
X95105000Y-100347500D01*
X95076000Y-100335500D01*
X95048000Y-100322500D01*
X95020000Y-100307500D01*
X94993000Y-100290500D01*
X94967000Y-100272500D01*
X94942000Y-100253500D01*
X94919000Y-100233500D01*
X94896000Y-100211500D01*
X94874000Y-100188500D01*
X94854000Y-100165500D01*
X94835000Y-100140500D01*
X94817000Y-100114500D01*
X94800000Y-100087500D01*
X94785000Y-100059500D01*
X94772000Y-100031500D01*
X94760000Y-100002500D01*
X94749000Y-99972500D01*
X94740000Y-99942500D01*
X94733000Y-99912500D01*
X94727000Y-99881500D01*
X94723000Y-99850500D01*
X94721000Y-99818500D01*
X94720000Y-99787500D01*
X94720000Y-99187500D01*
X94720000Y-98587500D01*
X94721000Y-98556500D01*
X94723000Y-98524500D01*
X94727000Y-98493500D01*
X94733000Y-98462500D01*
X94740000Y-98432500D01*
X94749000Y-98402500D01*
X94760000Y-98372500D01*
X94772000Y-98343500D01*
X94785000Y-98315500D01*
X94800000Y-98287500D01*
X94817000Y-98260500D01*
X94835000Y-98234500D01*
X94854000Y-98209500D01*
X94874000Y-98186500D01*
X94896000Y-98163500D01*
X94919000Y-98141500D01*
X94942000Y-98121500D01*
X94967000Y-98102500D01*
X94993000Y-98084500D01*
X95020000Y-98067500D01*
X95048000Y-98052500D01*
X95076000Y-98039500D01*
X95105000Y-98027500D01*
X95135000Y-98016500D01*
X95165000Y-98007500D01*
X95195000Y-98000500D01*
X95226000Y-97994500D01*
X95257000Y-97990500D01*
X95289000Y-97988500D01*
X95320000Y-97987500D01*
X95351000Y-97988500D01*
G36*
X95351000Y-97988500D02*
G01*
X95383000Y-97990500D01*
X95414000Y-97994500D01*
X95445000Y-98000500D01*
X95475000Y-98007500D01*
X95505000Y-98016500D01*
X95535000Y-98027500D01*
X95564000Y-98039500D01*
X95592000Y-98052500D01*
X95620000Y-98067500D01*
X95647000Y-98084500D01*
X95673000Y-98102500D01*
X95698000Y-98121500D01*
X95721000Y-98141500D01*
X95744000Y-98163500D01*
X95766000Y-98186500D01*
X95786000Y-98209500D01*
X95805000Y-98234500D01*
X95823000Y-98260500D01*
X95840000Y-98287500D01*
X95855000Y-98315500D01*
X95868000Y-98343500D01*
X95880000Y-98372500D01*
X95891000Y-98402500D01*
X95900000Y-98432500D01*
X95907000Y-98462500D01*
X95913000Y-98493500D01*
X95917000Y-98524500D01*
X95919000Y-98556500D01*
X95920000Y-98587500D01*
X95920000Y-99187500D01*
X95920000Y-99787500D01*
X95919000Y-99818500D01*
X95917000Y-99850500D01*
X95913000Y-99881500D01*
X95907000Y-99912500D01*
X95900000Y-99942500D01*
X95891000Y-99972500D01*
X95880000Y-100002500D01*
X95868000Y-100031500D01*
X95855000Y-100059500D01*
X95840000Y-100087500D01*
X95823000Y-100114500D01*
X95805000Y-100140500D01*
X95786000Y-100165500D01*
X95766000Y-100188500D01*
X95744000Y-100211500D01*
X95721000Y-100233500D01*
X95698000Y-100253500D01*
X95673000Y-100272500D01*
X95647000Y-100290500D01*
X95620000Y-100307500D01*
X95592000Y-100322500D01*
X95564000Y-100335500D01*
X95535000Y-100347500D01*
X95505000Y-100358500D01*
X95475000Y-100367500D01*
X95445000Y-100374500D01*
X95414000Y-100380500D01*
X95383000Y-100384500D01*
X95351000Y-100386500D01*
X95320000Y-100387500D01*
X95289000Y-100386500D01*
X95257000Y-100384500D01*
X95226000Y-100380500D01*
X95195000Y-100374500D01*
X95165000Y-100367500D01*
X95135000Y-100358500D01*
X95105000Y-100347500D01*
X95076000Y-100335500D01*
X95048000Y-100322500D01*
X95020000Y-100307500D01*
X94993000Y-100290500D01*
X94967000Y-100272500D01*
X94942000Y-100253500D01*
X94919000Y-100233500D01*
X94896000Y-100211500D01*
X94874000Y-100188500D01*
X94854000Y-100165500D01*
X94835000Y-100140500D01*
X94817000Y-100114500D01*
X94800000Y-100087500D01*
X94785000Y-100059500D01*
X94772000Y-100031500D01*
X94760000Y-100002500D01*
X94749000Y-99972500D01*
X94740000Y-99942500D01*
X94733000Y-99912500D01*
X94727000Y-99881500D01*
X94723000Y-99850500D01*
X94721000Y-99818500D01*
X94720000Y-99787500D01*
X94720000Y-99187500D01*
X94720000Y-98587500D01*
X94721000Y-98556500D01*
X94723000Y-98524500D01*
X94727000Y-98493500D01*
X94733000Y-98462500D01*
X94740000Y-98432500D01*
X94749000Y-98402500D01*
X94760000Y-98372500D01*
X94772000Y-98343500D01*
X94785000Y-98315500D01*
X94800000Y-98287500D01*
X94817000Y-98260500D01*
X94835000Y-98234500D01*
X94854000Y-98209500D01*
X94874000Y-98186500D01*
X94896000Y-98163500D01*
X94919000Y-98141500D01*
X94942000Y-98121500D01*
X94967000Y-98102500D01*
X94993000Y-98084500D01*
X95020000Y-98067500D01*
X95048000Y-98052500D01*
X95076000Y-98039500D01*
X95105000Y-98027500D01*
X95135000Y-98016500D01*
X95165000Y-98007500D01*
X95195000Y-98000500D01*
X95226000Y-97994500D01*
X95257000Y-97990500D01*
X95289000Y-97988500D01*
X95320000Y-97987500D01*
X95351000Y-97988500D01*
G37*
%TO.C,U802*%
X90150000Y-92307500D02*
X89850000Y-92307500D01*
X89850000Y-91627500D01*
X90150000Y-91627500D01*
X90150000Y-92307500D01*
G36*
X90150000Y-92307500D02*
G01*
X89850000Y-92307500D01*
X89850000Y-91627500D01*
X90150000Y-91627500D01*
X90150000Y-92307500D01*
G37*
X90150000Y-93127500D02*
X89850000Y-93127500D01*
X89850000Y-92447500D01*
X90150000Y-92447500D01*
X90150000Y-93127500D01*
G36*
X90150000Y-93127500D02*
G01*
X89850000Y-93127500D01*
X89850000Y-92447500D01*
X90150000Y-92447500D01*
X90150000Y-93127500D01*
G37*
X90650000Y-92307500D02*
X90350000Y-92307500D01*
X90350000Y-91627500D01*
X90650000Y-91627500D01*
X90650000Y-92307500D01*
G36*
X90650000Y-92307500D02*
G01*
X90350000Y-92307500D01*
X90350000Y-91627500D01*
X90650000Y-91627500D01*
X90650000Y-92307500D01*
G37*
X90650000Y-93127500D02*
X90350000Y-93127500D01*
X90350000Y-92447500D01*
X90650000Y-92447500D01*
X90650000Y-93127500D01*
G36*
X90650000Y-93127500D02*
G01*
X90350000Y-93127500D01*
X90350000Y-92447500D01*
X90650000Y-92447500D01*
X90650000Y-93127500D01*
G37*
X91250000Y-92307500D02*
X90750000Y-92307500D01*
X90750000Y-91627500D01*
X91250000Y-91627500D01*
X91250000Y-92307500D01*
G36*
X91250000Y-92307500D02*
G01*
X90750000Y-92307500D01*
X90750000Y-91627500D01*
X91250000Y-91627500D01*
X91250000Y-92307500D01*
G37*
X91250000Y-93127500D02*
X90750000Y-93127500D01*
X90750000Y-92447500D01*
X91250000Y-92447500D01*
X91250000Y-93127500D01*
G36*
X91250000Y-93127500D02*
G01*
X90750000Y-93127500D01*
X90750000Y-92447500D01*
X91250000Y-92447500D01*
X91250000Y-93127500D01*
G37*
X91650000Y-92307500D02*
X91350000Y-92307500D01*
X91350000Y-91627500D01*
X91650000Y-91627500D01*
X91650000Y-92307500D01*
G36*
X91650000Y-92307500D02*
G01*
X91350000Y-92307500D01*
X91350000Y-91627500D01*
X91650000Y-91627500D01*
X91650000Y-92307500D01*
G37*
X91650000Y-93127500D02*
X91350000Y-93127500D01*
X91350000Y-92447500D01*
X91650000Y-92447500D01*
X91650000Y-93127500D01*
G36*
X91650000Y-93127500D02*
G01*
X91350000Y-93127500D01*
X91350000Y-92447500D01*
X91650000Y-92447500D01*
X91650000Y-93127500D01*
G37*
X92150000Y-92307500D02*
X91850000Y-92307500D01*
X91850000Y-91627500D01*
X92150000Y-91627500D01*
X92150000Y-92307500D01*
G36*
X92150000Y-92307500D02*
G01*
X91850000Y-92307500D01*
X91850000Y-91627500D01*
X92150000Y-91627500D01*
X92150000Y-92307500D01*
G37*
X92150000Y-93127500D02*
X91850000Y-93127500D01*
X91850000Y-92447500D01*
X92150000Y-92447500D01*
X92150000Y-93127500D01*
G36*
X92150000Y-93127500D02*
G01*
X91850000Y-93127500D01*
X91850000Y-92447500D01*
X92150000Y-92447500D01*
X92150000Y-93127500D01*
G37*
%TO.C,U701*%
X138050000Y-26620000D02*
X137750000Y-26620000D01*
X137750000Y-25940000D01*
X138050000Y-25940000D01*
X138050000Y-26620000D01*
G36*
X138050000Y-26620000D02*
G01*
X137750000Y-26620000D01*
X137750000Y-25940000D01*
X138050000Y-25940000D01*
X138050000Y-26620000D01*
G37*
X138050000Y-27440000D02*
X137750000Y-27440000D01*
X137750000Y-26760000D01*
X138050000Y-26760000D01*
X138050000Y-27440000D01*
G36*
X138050000Y-27440000D02*
G01*
X137750000Y-27440000D01*
X137750000Y-26760000D01*
X138050000Y-26760000D01*
X138050000Y-27440000D01*
G37*
X138550000Y-26620000D02*
X138250000Y-26620000D01*
X138250000Y-25940000D01*
X138550000Y-25940000D01*
X138550000Y-26620000D01*
G36*
X138550000Y-26620000D02*
G01*
X138250000Y-26620000D01*
X138250000Y-25940000D01*
X138550000Y-25940000D01*
X138550000Y-26620000D01*
G37*
X138550000Y-27440000D02*
X138250000Y-27440000D01*
X138250000Y-26760000D01*
X138550000Y-26760000D01*
X138550000Y-27440000D01*
G36*
X138550000Y-27440000D02*
G01*
X138250000Y-27440000D01*
X138250000Y-26760000D01*
X138550000Y-26760000D01*
X138550000Y-27440000D01*
G37*
X139150000Y-26620000D02*
X138650000Y-26620000D01*
X138650000Y-25940000D01*
X139150000Y-25940000D01*
X139150000Y-26620000D01*
G36*
X139150000Y-26620000D02*
G01*
X138650000Y-26620000D01*
X138650000Y-25940000D01*
X139150000Y-25940000D01*
X139150000Y-26620000D01*
G37*
X139150000Y-27440000D02*
X138650000Y-27440000D01*
X138650000Y-26760000D01*
X139150000Y-26760000D01*
X139150000Y-27440000D01*
G36*
X139150000Y-27440000D02*
G01*
X138650000Y-27440000D01*
X138650000Y-26760000D01*
X139150000Y-26760000D01*
X139150000Y-27440000D01*
G37*
X139550000Y-26620000D02*
X139250000Y-26620000D01*
X139250000Y-25940000D01*
X139550000Y-25940000D01*
X139550000Y-26620000D01*
G36*
X139550000Y-26620000D02*
G01*
X139250000Y-26620000D01*
X139250000Y-25940000D01*
X139550000Y-25940000D01*
X139550000Y-26620000D01*
G37*
X139550000Y-27440000D02*
X139250000Y-27440000D01*
X139250000Y-26760000D01*
X139550000Y-26760000D01*
X139550000Y-27440000D01*
G36*
X139550000Y-27440000D02*
G01*
X139250000Y-27440000D01*
X139250000Y-26760000D01*
X139550000Y-26760000D01*
X139550000Y-27440000D01*
G37*
X140050000Y-26620000D02*
X139750000Y-26620000D01*
X139750000Y-25940000D01*
X140050000Y-25940000D01*
X140050000Y-26620000D01*
G36*
X140050000Y-26620000D02*
G01*
X139750000Y-26620000D01*
X139750000Y-25940000D01*
X140050000Y-25940000D01*
X140050000Y-26620000D01*
G37*
X140050000Y-27440000D02*
X139750000Y-27440000D01*
X139750000Y-26760000D01*
X140050000Y-26760000D01*
X140050000Y-27440000D01*
G36*
X140050000Y-27440000D02*
G01*
X139750000Y-27440000D01*
X139750000Y-26760000D01*
X140050000Y-26760000D01*
X140050000Y-27440000D01*
G37*
%TD*%
D11*
%TO.C,C216*%
X73650000Y-89283207D03*
X73650000Y-90243207D03*
%TD*%
D12*
%TO.C,TP601*%
X198250000Y-106430000D03*
%TD*%
D13*
%TO.C,Y601*%
X71800000Y-63500000D03*
X71800000Y-65000000D03*
%TD*%
D12*
%TO.C,TP212*%
X78925000Y-135660000D03*
%TD*%
D14*
%TO.C,C210*%
X40900000Y-118800000D03*
X40900000Y-117840000D03*
%TD*%
D15*
%TO.C,R709*%
X132832500Y-120320000D03*
X133852500Y-120320000D03*
%TD*%
D16*
%TO.C,U301*%
X74473415Y-61677400D03*
X75273415Y-61677400D03*
X76073415Y-61677400D03*
X76873415Y-61677400D03*
X77673415Y-61677400D03*
X78473415Y-61677400D03*
X79273415Y-61677400D03*
X80073415Y-61677400D03*
X80873415Y-61677400D03*
X81673415Y-61677400D03*
X82473415Y-61677400D03*
X83273415Y-61677400D03*
X84073415Y-61677400D03*
X84873415Y-61677400D03*
X85673415Y-61677400D03*
X86473415Y-61677400D03*
X87273415Y-61677400D03*
X88073415Y-61677400D03*
X88873415Y-61677400D03*
X74473415Y-62477400D03*
X75273415Y-62477400D03*
X76073415Y-62477400D03*
X76873415Y-62477400D03*
X77673415Y-62477400D03*
X78473415Y-62477400D03*
X79273415Y-62477400D03*
X80073415Y-62477400D03*
X80873415Y-62477400D03*
X81673415Y-62477400D03*
X82473415Y-62477400D03*
X83273415Y-62477400D03*
X84073415Y-62477400D03*
X84873415Y-62477400D03*
X85673415Y-62477400D03*
X86473415Y-62477400D03*
X87273415Y-62477400D03*
X88073415Y-62477400D03*
X88873415Y-62477400D03*
X74473415Y-63277400D03*
X75273415Y-63277400D03*
X76073415Y-63277400D03*
X76873415Y-63277400D03*
X77673415Y-63277400D03*
X78473415Y-63277400D03*
X79273415Y-63277400D03*
X80073415Y-63277400D03*
X80873415Y-63277400D03*
X81673415Y-63277400D03*
X82473415Y-63277400D03*
X83273415Y-63277400D03*
X84073415Y-63277400D03*
X84873415Y-63277400D03*
X85673415Y-63277400D03*
X86473415Y-63277400D03*
X87273415Y-63277400D03*
X88073415Y-63277400D03*
X88873415Y-63277400D03*
X74473415Y-64077400D03*
X75273415Y-64077400D03*
X76073415Y-64077400D03*
X76873415Y-64077400D03*
X77673415Y-64077400D03*
X78473415Y-64077400D03*
X79273415Y-64077400D03*
X80073415Y-64077400D03*
X80873415Y-64077400D03*
X81673415Y-64077400D03*
X82473415Y-64077400D03*
X83273415Y-64077400D03*
X84073415Y-64077400D03*
X84873415Y-64077400D03*
X85673415Y-64077400D03*
X86473415Y-64077400D03*
X87273415Y-64077400D03*
X88073415Y-64077400D03*
X88873415Y-64077400D03*
X74473415Y-64877400D03*
X75273415Y-64877400D03*
X76073415Y-64877400D03*
X76873415Y-64877400D03*
X77673415Y-64877400D03*
X78473415Y-64877400D03*
X79273415Y-64877400D03*
X80073415Y-64877400D03*
X80873415Y-64877400D03*
X81673415Y-64877400D03*
X82473415Y-64877400D03*
X83273415Y-64877400D03*
X84073415Y-64877400D03*
X84873415Y-64877400D03*
X85673415Y-64877400D03*
X86473415Y-64877400D03*
X87273415Y-64877400D03*
X88073415Y-64877400D03*
X74473415Y-65677400D03*
X75273415Y-65677400D03*
X76073415Y-65677400D03*
X76873415Y-65677400D03*
X77673415Y-65677400D03*
X78473415Y-65677400D03*
X79273415Y-65677400D03*
X80073415Y-65677400D03*
X80873415Y-65677400D03*
X81673415Y-65677400D03*
X82473415Y-65677400D03*
X83273415Y-65677400D03*
X84073415Y-65677400D03*
X84873415Y-65677400D03*
X85673415Y-65677400D03*
X87273415Y-65677400D03*
X88073415Y-65677400D03*
X88873415Y-65677400D03*
X74473415Y-66477400D03*
X75273415Y-66477400D03*
X76073415Y-66477400D03*
X76873415Y-66477400D03*
X77673415Y-66477400D03*
X78473415Y-66477400D03*
X79273415Y-66477400D03*
X80073415Y-66477400D03*
X80873415Y-66477400D03*
X81673415Y-66477400D03*
X82473415Y-66477400D03*
X83273415Y-66477400D03*
X84073415Y-66477400D03*
X84873415Y-66477400D03*
X85673415Y-66477400D03*
X86473415Y-66477400D03*
X87273415Y-66477400D03*
X88073415Y-66477400D03*
X88873415Y-66477400D03*
X74473415Y-67277400D03*
X75273415Y-67277400D03*
X76073415Y-67277400D03*
X76873415Y-67277400D03*
X77673415Y-67277400D03*
X78473415Y-67277400D03*
X79273415Y-67277400D03*
X80073415Y-67277400D03*
X80873415Y-67277400D03*
X81673415Y-67277400D03*
X82473415Y-67277400D03*
X83273415Y-67277400D03*
X84073415Y-67277400D03*
X84873415Y-67277400D03*
X85673415Y-67277400D03*
X87273415Y-67277400D03*
X88073415Y-67277400D03*
X88873415Y-67277400D03*
X74473415Y-68077400D03*
X75273415Y-68077400D03*
X76073415Y-68077400D03*
X76873415Y-68077400D03*
X77673415Y-68077400D03*
X78473415Y-68077400D03*
X79273415Y-68077400D03*
X80073415Y-68077400D03*
X80873415Y-68077400D03*
X81673415Y-68077400D03*
X82473415Y-68077400D03*
X83273415Y-68077400D03*
X84073415Y-68077400D03*
X84873415Y-68077400D03*
X85673415Y-68077400D03*
X86473415Y-68077400D03*
X87273415Y-68077400D03*
X88073415Y-68077400D03*
X88873415Y-68077400D03*
X74473415Y-68877400D03*
X75273415Y-68877400D03*
X76073415Y-68877400D03*
X76873415Y-68877400D03*
X77673415Y-68877400D03*
X78473415Y-68877400D03*
X79273415Y-68877400D03*
X80073415Y-68877400D03*
X80873415Y-68877400D03*
X81673415Y-68877400D03*
X82473415Y-68877400D03*
X83273415Y-68877400D03*
X84073415Y-68877400D03*
X84873415Y-68877400D03*
X85673415Y-68877400D03*
X87273415Y-68877400D03*
X88073415Y-68877400D03*
X88873415Y-68877400D03*
X74473415Y-69677400D03*
X75273415Y-69677400D03*
X76073415Y-69677400D03*
X76873415Y-69677400D03*
X77673415Y-69677400D03*
X78473415Y-69677400D03*
X79273415Y-69677400D03*
X80073415Y-69677400D03*
X80873415Y-69677400D03*
X81673415Y-69677400D03*
X82473415Y-69677400D03*
X83273415Y-69677400D03*
X84073415Y-69677400D03*
X84873415Y-69677400D03*
X85673415Y-69677400D03*
X86473415Y-69677400D03*
X87273415Y-69677400D03*
X88073415Y-69677400D03*
X88873415Y-69677400D03*
X74473415Y-70477400D03*
X75273415Y-70477400D03*
X76073415Y-70477400D03*
X76873415Y-70477400D03*
X77673415Y-70477400D03*
X78473415Y-70477400D03*
X79273415Y-70477400D03*
X80073415Y-70477400D03*
X80873415Y-70477400D03*
X81673415Y-70477400D03*
X82473415Y-70477400D03*
X83273415Y-70477400D03*
X84073415Y-70477400D03*
X84873415Y-70477400D03*
X85673415Y-70477400D03*
X87273415Y-70477400D03*
X88073415Y-70477400D03*
X88873415Y-70477400D03*
X74473415Y-71277400D03*
X75273415Y-71277400D03*
X76073415Y-71277400D03*
X76873415Y-71277400D03*
X77673415Y-71277400D03*
X78473415Y-71277400D03*
X79273415Y-71277400D03*
X80073415Y-71277400D03*
X80873415Y-71277400D03*
X81673415Y-71277400D03*
X82473415Y-71277400D03*
X83273415Y-71277400D03*
X84073415Y-71277400D03*
X84873415Y-71277400D03*
X85673415Y-71277400D03*
X86473415Y-71277400D03*
X87273415Y-71277400D03*
X88073415Y-71277400D03*
X88873415Y-71277400D03*
X74473415Y-72077400D03*
X75273415Y-72077400D03*
X76073415Y-72077400D03*
X76873415Y-72077400D03*
X77673415Y-72077400D03*
X78473415Y-72077400D03*
X79273415Y-72077400D03*
X80073415Y-72077400D03*
X80873415Y-72077400D03*
X81673415Y-72077400D03*
X82473415Y-72077400D03*
X83273415Y-72077400D03*
X84073415Y-72077400D03*
X84873415Y-72077400D03*
X85673415Y-72077400D03*
X87273415Y-72077400D03*
X88073415Y-72077400D03*
X88873415Y-72077400D03*
X74473415Y-72877400D03*
X75273415Y-72877400D03*
X76073415Y-72877400D03*
X76873415Y-72877400D03*
X77673415Y-72877400D03*
X78473415Y-72877400D03*
X79273415Y-72877400D03*
X80073415Y-72877400D03*
X80873415Y-72877400D03*
X81673415Y-72877400D03*
X82473415Y-72877400D03*
X83273415Y-72877400D03*
X84073415Y-72877400D03*
X84873415Y-72877400D03*
X85673415Y-72877400D03*
X86473415Y-72877400D03*
X87273415Y-72877400D03*
X88073415Y-72877400D03*
X74473415Y-73677400D03*
X75273415Y-73677400D03*
X76073415Y-73677400D03*
X76873415Y-73677400D03*
X77673415Y-73677400D03*
X78473415Y-73677400D03*
X79273415Y-73677400D03*
X80073415Y-73677400D03*
X80873415Y-73677400D03*
X81673415Y-73677400D03*
X82473415Y-73677400D03*
X83273415Y-73677400D03*
X84073415Y-73677400D03*
X84873415Y-73677400D03*
X85673415Y-73677400D03*
X86473415Y-73677400D03*
X87273415Y-73677400D03*
X88073415Y-73677400D03*
X88873415Y-73677400D03*
X74473415Y-74477400D03*
X75273415Y-74477400D03*
X76073415Y-74477400D03*
X76873415Y-74477400D03*
X77673415Y-74477400D03*
X78473415Y-74477400D03*
X79273415Y-74477400D03*
X80073415Y-74477400D03*
X80873415Y-74477400D03*
X81673415Y-74477400D03*
X82473415Y-74477400D03*
X83273415Y-74477400D03*
X84073415Y-74477400D03*
X84873415Y-74477400D03*
X85673415Y-74477400D03*
X86473415Y-74477400D03*
X87273415Y-74477400D03*
X88073415Y-74477400D03*
X88873415Y-74477400D03*
X74473415Y-75277400D03*
X75273415Y-75277400D03*
X76073415Y-75277400D03*
X76873415Y-75277400D03*
X77673415Y-75277400D03*
X78473415Y-75277400D03*
X79273415Y-75277400D03*
X80073415Y-75277400D03*
X80873415Y-75277400D03*
X81673415Y-75277400D03*
X82473415Y-75277400D03*
X83273415Y-75277400D03*
X84073415Y-75277400D03*
X84873415Y-75277400D03*
X85673415Y-75277400D03*
X86473415Y-75277400D03*
X87273415Y-75277400D03*
X88073415Y-75277400D03*
X88873415Y-75277400D03*
X74473415Y-76077400D03*
X75273415Y-76077400D03*
X76073415Y-76077400D03*
X76873415Y-76077400D03*
X77673415Y-76077400D03*
X78473415Y-76077400D03*
X79273415Y-76077400D03*
X80073415Y-76077400D03*
X80873415Y-76077400D03*
X81673415Y-76077400D03*
X82473415Y-76077400D03*
X83273415Y-76077400D03*
X84073415Y-76077400D03*
X84873415Y-76077400D03*
X85673415Y-76077400D03*
X86473415Y-76077400D03*
X87273415Y-76077400D03*
X88073415Y-76077400D03*
X88873415Y-76077400D03*
%TD*%
D12*
%TO.C,TP908*%
X60750000Y-50750000D03*
%TD*%
D15*
%TO.C,R905*%
X62790000Y-47600000D03*
X63810000Y-47600000D03*
%TD*%
D14*
%TO.C,C901*%
X98617500Y-55885000D03*
X98617500Y-54925000D03*
%TD*%
D12*
%TO.C,TP901*%
X51600000Y-47700000D03*
%TD*%
D17*
%TO.C,R215*%
X80075000Y-99178207D03*
X80075000Y-100198207D03*
%TD*%
D15*
%TO.C,R705*%
X17500000Y-99090000D03*
X18520000Y-99090000D03*
%TD*%
D18*
%TO.C,S601*%
X70750000Y-54562500D03*
X70750000Y-58412500D03*
X69300000Y-54562500D03*
X69300000Y-58412500D03*
D19*
X69225000Y-54462500D03*
X69225000Y-58512500D03*
%TD*%
D12*
%TO.C,TP207*%
X75875000Y-129560000D03*
%TD*%
D20*
%TO.C,C228*%
X84500000Y-89038207D03*
X84500000Y-90588207D03*
%TD*%
%TO.C,C227*%
X84750000Y-96788207D03*
X84750000Y-98338207D03*
%TD*%
D21*
%TO.C,C213*%
X71775000Y-95788207D03*
X73325000Y-95788207D03*
%TD*%
D12*
%TO.C,TP903*%
X54650000Y-47700000D03*
%TD*%
D22*
%TO.C,C235*%
X84000000Y-81550000D03*
X83040000Y-81550000D03*
%TD*%
D12*
%TO.C,TP702*%
X123060000Y-103740000D03*
%TD*%
D23*
%TO.C,D1*%
X69300000Y-76700000D03*
X69300000Y-77670000D03*
%TD*%
D24*
%TO.C,C233*%
X81707500Y-86785000D03*
X80157500Y-86785000D03*
%TD*%
D20*
%TO.C,C215*%
X80850000Y-88463207D03*
X80850000Y-90013207D03*
%TD*%
D22*
%TO.C,C430*%
X108253415Y-74377400D03*
X107293415Y-74377400D03*
%TD*%
D15*
%TO.C,R801*%
X24420000Y-82720000D03*
X25440000Y-82720000D03*
%TD*%
%TO.C,R707*%
X20410000Y-91130000D03*
X21430000Y-91130000D03*
%TD*%
%TO.C,R710*%
X132832500Y-122310000D03*
X133852500Y-122310000D03*
%TD*%
D25*
%TO.C,C401*%
X14620000Y-91920000D03*
X15580000Y-91920000D03*
%TD*%
D15*
%TO.C,R711*%
X69300000Y-66300000D03*
X70320000Y-66300000D03*
%TD*%
%TO.C,R708*%
X20410000Y-93120000D03*
X21430000Y-93120000D03*
%TD*%
D20*
%TO.C,C805*%
X106300000Y-106905000D03*
X106300000Y-108455000D03*
%TD*%
D12*
%TO.C,TP204*%
X72825000Y-129560000D03*
%TD*%
D14*
%TO.C,C804*%
X105600000Y-110760000D03*
X105600000Y-109800000D03*
%TD*%
%TO.C,C226*%
X78022500Y-100178207D03*
X78022500Y-99218207D03*
%TD*%
D12*
%TO.C,TP201*%
X65000000Y-114700000D03*
%TD*%
D11*
%TO.C,C219*%
X78150000Y-89283207D03*
X78150000Y-90243207D03*
%TD*%
D25*
%TO.C,C703*%
X69340000Y-67300000D03*
X70300000Y-67300000D03*
%TD*%
%TO.C,C704*%
X71240000Y-66300000D03*
X72200000Y-66300000D03*
%TD*%
D17*
%TO.C,R402*%
X102073415Y-74367400D03*
X102073415Y-75387400D03*
%TD*%
D12*
%TO.C,TP205*%
X72825000Y-132610000D03*
%TD*%
D22*
%TO.C,C423*%
X109373415Y-64177400D03*
X108413415Y-64177400D03*
%TD*%
D11*
%TO.C,C224*%
X75450000Y-89283207D03*
X75450000Y-90243207D03*
%TD*%
D12*
%TO.C,TP802*%
X84300000Y-101587500D03*
%TD*%
D25*
%TO.C,C424*%
X98393415Y-74377400D03*
X99353415Y-74377400D03*
%TD*%
D12*
%TO.C,TP804*%
X182460000Y-56730000D03*
%TD*%
D15*
%TO.C,R518*%
X107800000Y-51970000D03*
X108820000Y-51970000D03*
%TD*%
D12*
%TO.C,TP803*%
X182460000Y-53680000D03*
%TD*%
D11*
%TO.C,C204*%
X75650000Y-86808207D03*
X75650000Y-87768207D03*
%TD*%
D26*
%TO.C,R219*%
X77320000Y-80700000D03*
X76300000Y-80700000D03*
%TD*%
D15*
%TO.C,R703*%
X17500000Y-95110000D03*
X18520000Y-95110000D03*
%TD*%
D18*
%TO.C,S605*%
X70750000Y-36462500D03*
X70750000Y-40312500D03*
X69300000Y-36462500D03*
X69300000Y-40312500D03*
D19*
X69225000Y-36362500D03*
X69225000Y-40412500D03*
%TD*%
D23*
%TO.C,D602*%
X69300000Y-74760000D03*
X69300000Y-75730000D03*
%TD*%
D12*
%TO.C,TP905*%
X57700000Y-47700000D03*
%TD*%
D27*
%TO.C,L204*%
X73100000Y-97863207D03*
X70950000Y-97863207D03*
%TD*%
D12*
%TO.C,TP209*%
X75875000Y-135660000D03*
%TD*%
D22*
%TO.C,C421*%
X107553415Y-64177400D03*
X106593415Y-64177400D03*
%TD*%
D15*
%TO.C,R907*%
X65700000Y-45610000D03*
X66720000Y-45610000D03*
%TD*%
D28*
%TO.C,J1*%
X106705750Y-90250000D03*
X106705750Y-97250000D03*
D29*
X110155750Y-96750000D03*
X110155750Y-93850000D03*
X110155750Y-90950000D03*
X110155750Y-88750000D03*
X103255750Y-97650000D03*
X103255750Y-95750000D03*
X103255750Y-92850000D03*
X103255750Y-90650000D03*
%TD*%
D18*
%TO.C,S701*%
X54577500Y-101960000D03*
X54577500Y-105810000D03*
X53127500Y-101960000D03*
X53127500Y-105810000D03*
D19*
X53052500Y-101860000D03*
X53052500Y-105910000D03*
%TD*%
D14*
%TO.C,C904*%
X101417500Y-53345000D03*
X101417500Y-52385000D03*
%TD*%
D22*
%TO.C,C515*%
X94960000Y-88500000D03*
X94000000Y-88500000D03*
%TD*%
D18*
%TO.C,S603*%
X70750000Y-48462500D03*
X70750000Y-52312500D03*
X69300000Y-48462500D03*
X69300000Y-52312500D03*
D19*
X69225000Y-48362500D03*
X69225000Y-52412500D03*
%TD*%
D25*
%TO.C,C601*%
X69500000Y-64900000D03*
X70460000Y-64900000D03*
%TD*%
D22*
%TO.C,C238*%
X84000000Y-80580000D03*
X83040000Y-80580000D03*
%TD*%
D30*
%TO.C,U203*%
X79985000Y-97198207D03*
X79985000Y-96798207D03*
X79985000Y-96398207D03*
X79985000Y-95998207D03*
X79985000Y-95598207D03*
X79985000Y-95198207D03*
X79985000Y-94798207D03*
X79985000Y-94398207D03*
X79985000Y-93998207D03*
X79985000Y-93598207D03*
X79985000Y-93198207D03*
X79985000Y-92798207D03*
D31*
X79350000Y-92063207D03*
X78950000Y-92063207D03*
X78550000Y-92063207D03*
X78150000Y-92063207D03*
X77750000Y-92063207D03*
X77350000Y-92063207D03*
X76950000Y-92063207D03*
X76550000Y-92063207D03*
X76150000Y-92063207D03*
X75750000Y-92063207D03*
D30*
X75115000Y-92798207D03*
X75115000Y-93198207D03*
X75115000Y-93598207D03*
X75115000Y-93998207D03*
X75115000Y-94398207D03*
X75115000Y-94798207D03*
X75115000Y-95198207D03*
X75115000Y-95598207D03*
X75115000Y-95998207D03*
X75115000Y-96398207D03*
X75115000Y-96798207D03*
X75115000Y-97198207D03*
D31*
X75750000Y-97933207D03*
X76150000Y-97933207D03*
X76550000Y-97933207D03*
X76950000Y-97933207D03*
X77350000Y-97933207D03*
X77750000Y-97933207D03*
X78150000Y-97933207D03*
X78550000Y-97933207D03*
X78950000Y-97933207D03*
X79350000Y-97933207D03*
D32*
X77550000Y-94998207D03*
%TD*%
D14*
%TO.C,C508*%
X117683415Y-43825900D03*
X117683415Y-42865900D03*
%TD*%
%TO.C,C218*%
X76122500Y-100178207D03*
X76122500Y-99218207D03*
%TD*%
D25*
%TO.C,C232*%
X83040000Y-82840000D03*
X84000000Y-82840000D03*
%TD*%
D33*
%TO.C,U801*%
X95704200Y-92153300D03*
X95704200Y-91645300D03*
X95704200Y-91137300D03*
D34*
X95224000Y-90403100D03*
X94716000Y-90403100D03*
X94208000Y-90403100D03*
X93700000Y-90403100D03*
D33*
X93219800Y-91137300D03*
X93219800Y-91645300D03*
X93219800Y-92153300D03*
D34*
X93700000Y-92887500D03*
X94208000Y-92887500D03*
X94716000Y-92887500D03*
X95224000Y-92887500D03*
D35*
X94462000Y-91645300D03*
%TD*%
D36*
%TO.C,L203*%
X82250000Y-92638207D03*
X84400000Y-92638207D03*
%TD*%
D15*
%TO.C,R906*%
X62790000Y-49590000D03*
X63810000Y-49590000D03*
%TD*%
D21*
%TO.C,C903*%
X95867500Y-56185000D03*
X97417500Y-56185000D03*
%TD*%
D12*
%TO.C,TP208*%
X75875000Y-132610000D03*
%TD*%
D37*
%TO.C,BT201*%
X71050000Y-87288207D03*
D38*
X70050000Y-87288207D03*
%TD*%
D25*
%TO.C,C402*%
X100193415Y-74377400D03*
X101153415Y-74377400D03*
%TD*%
D22*
%TO.C,C602*%
X70500000Y-63700000D03*
X69540000Y-63700000D03*
%TD*%
D15*
%TO.C,R701*%
X50837500Y-109400000D03*
X51857500Y-109400000D03*
%TD*%
D39*
%TO.C,J901*%
X90817500Y-47385000D03*
D40*
X89317500Y-48860000D03*
D39*
X87817500Y-47385000D03*
D40*
X89317500Y-45910000D03*
%TD*%
D11*
%TO.C,C225*%
X74550000Y-89283207D03*
X74550000Y-90243207D03*
%TD*%
D15*
%TO.C,R704*%
X17500000Y-97100000D03*
X18520000Y-97100000D03*
%TD*%
D25*
%TO.C,C905*%
X96757500Y-54985000D03*
X97717500Y-54985000D03*
%TD*%
D22*
%TO.C,C403*%
X99933415Y-63277400D03*
X98973415Y-63277400D03*
%TD*%
D25*
%TO.C,C701*%
X53837500Y-110100000D03*
X54797500Y-110100000D03*
%TD*%
D22*
%TO.C,C419*%
X110533415Y-74377400D03*
X109573415Y-74377400D03*
%TD*%
D12*
%TO.C,TP210*%
X78925000Y-129560000D03*
%TD*%
%TO.C,TP707*%
X131850000Y-21550000D03*
%TD*%
D21*
%TO.C,C236*%
X77235000Y-85110000D03*
X78785000Y-85110000D03*
%TD*%
D41*
%TO.C,L202*%
X82650000Y-96313207D03*
X82650000Y-98463207D03*
%TD*%
D15*
%TO.C,R702*%
X17500000Y-93120000D03*
X18520000Y-93120000D03*
%TD*%
D42*
%TO.C,D701*%
X49237500Y-104700000D03*
X46437500Y-104700000D03*
%TD*%
D43*
%TO.C,J2*%
X100899999Y-37100000D03*
X99900001Y-37100000D03*
X98900001Y-37100000D03*
X97900000Y-37100000D03*
X96900000Y-37100000D03*
X95900002Y-37100000D03*
X94900001Y-37100000D03*
X93900001Y-37100000D03*
X92900000Y-37100000D03*
X91900000Y-37100000D03*
X90900002Y-37100000D03*
X89900001Y-37100000D03*
X88900000Y-37100000D03*
X87900000Y-37100000D03*
X86899999Y-37100000D03*
X85900001Y-37100000D03*
X84900001Y-37100000D03*
X83900000Y-37100000D03*
X82900000Y-37100000D03*
X81899999Y-37100000D03*
D44*
X100899999Y-33350000D03*
X99900001Y-33350000D03*
X98900001Y-33350000D03*
X97900000Y-33350000D03*
X96900000Y-33350000D03*
X95900002Y-33350000D03*
X94900001Y-33350000D03*
X93900001Y-33350000D03*
X92900000Y-33350000D03*
X91900000Y-33350000D03*
X90900002Y-33350000D03*
X89900001Y-33350000D03*
X88900000Y-33350000D03*
X87900000Y-33350000D03*
X86899999Y-33350000D03*
X85900001Y-33350000D03*
X84900001Y-33350000D03*
X83900000Y-33350000D03*
X82900000Y-33350000D03*
X81899999Y-33350000D03*
%TD*%
D45*
%TO.C,R901*%
X102417500Y-46685000D03*
X102417500Y-45665000D03*
%TD*%
D15*
%TO.C,R517*%
X107800000Y-49980000D03*
X108820000Y-49980000D03*
%TD*%
%TO.C,R908*%
X65700000Y-47600000D03*
X66720000Y-47600000D03*
%TD*%
D46*
%TO.C,C332*%
X69487500Y-61200000D03*
X71687500Y-61200000D03*
%TD*%
D47*
%TO.C,TP203*%
X75550000Y-84688207D03*
%TD*%
D41*
%TO.C,L206*%
X84120000Y-84265000D03*
X84120000Y-86415000D03*
%TD*%
D15*
%TO.C,R604*%
X9120000Y-94820000D03*
X10140000Y-94820000D03*
%TD*%
D12*
%TO.C,TP805*%
X185510000Y-53680000D03*
%TD*%
%TO.C,TP703*%
X128800000Y-24600000D03*
%TD*%
D17*
%TO.C,R209*%
X72650000Y-86780707D03*
X72650000Y-87800707D03*
%TD*%
D12*
%TO.C,TP211*%
X78925000Y-132610000D03*
%TD*%
D17*
%TO.C,R713*%
X69300000Y-70200000D03*
X69300000Y-71220000D03*
%TD*%
D22*
%TO.C,C237*%
X82367500Y-79010000D03*
X81407500Y-79010000D03*
%TD*%
D25*
%TO.C,C428*%
X104793415Y-64177400D03*
X105753415Y-64177400D03*
%TD*%
D12*
%TO.C,TP708*%
X131850000Y-24600000D03*
%TD*%
D21*
%TO.C,C422*%
X109673415Y-61577400D03*
X111223415Y-61577400D03*
%TD*%
D17*
%TO.C,R210*%
X74650000Y-86778207D03*
X74650000Y-87798207D03*
%TD*%
D12*
%TO.C,TP202*%
X65000000Y-114000000D03*
%TD*%
D20*
%TO.C,C212*%
X82350000Y-89013207D03*
X82350000Y-90563207D03*
%TD*%
D24*
%TO.C,C211*%
X83625000Y-94688207D03*
X82075000Y-94688207D03*
%TD*%
D11*
%TO.C,C217*%
X76350000Y-89283207D03*
X76350000Y-90243207D03*
%TD*%
D20*
%TO.C,C230*%
X69350000Y-91513207D03*
X69350000Y-93063207D03*
%TD*%
D15*
%TO.C,R903*%
X92717500Y-44985000D03*
X93737500Y-44985000D03*
%TD*%
D25*
%TO.C,C702*%
X11820000Y-87220000D03*
X12780000Y-87220000D03*
%TD*%
D21*
%TO.C,C214*%
X71575000Y-91588207D03*
X73125000Y-91588207D03*
%TD*%
D48*
%TO.C,C902*%
X102617500Y-54185000D03*
X102617500Y-52635000D03*
%TD*%
D12*
%TO.C,TP709*%
X131850000Y-27650000D03*
%TD*%
D15*
%TO.C,R904*%
X62790000Y-45610000D03*
X63810000Y-45610000D03*
%TD*%
D49*
%TO.C,D801*%
X87700000Y-92500000D03*
X86656400Y-92500000D03*
%TD*%
D18*
%TO.C,S602*%
X70650000Y-30462500D03*
X70650000Y-34312500D03*
X69200000Y-30462500D03*
X69200000Y-34312500D03*
D19*
X69125000Y-30362500D03*
X69125000Y-34412500D03*
%TD*%
D11*
%TO.C,C802*%
X93100000Y-88700000D03*
X93100000Y-89660000D03*
%TD*%
D15*
%TO.C,R715*%
X134407000Y-30190000D03*
X135427000Y-30190000D03*
%TD*%
D22*
%TO.C,C420*%
X104325000Y-74377400D03*
X103365000Y-74377400D03*
%TD*%
D15*
%TO.C,R515*%
X107800000Y-46000000D03*
X108820000Y-46000000D03*
%TD*%
D24*
%TO.C,C425*%
X108848415Y-75677400D03*
X107298415Y-75677400D03*
%TD*%
D15*
%TO.C,R519*%
X107800000Y-53960000D03*
X108820000Y-53960000D03*
%TD*%
D50*
%TO.C,L901*%
X101117500Y-55485000D03*
X99667500Y-55485000D03*
%TD*%
D12*
%TO.C,TP801*%
X179410000Y-53680000D03*
%TD*%
D25*
%TO.C,C406*%
X115020000Y-69770000D03*
X115980000Y-69770000D03*
%TD*%
D12*
%TO.C,TP806*%
X185510000Y-56730000D03*
%TD*%
%TO.C,TP902*%
X51600000Y-50750000D03*
%TD*%
D11*
%TO.C,C220*%
X72675000Y-89283207D03*
X72675000Y-90243207D03*
%TD*%
D12*
%TO.C,TP706*%
X131850000Y-18500000D03*
%TD*%
D15*
%TO.C,R516*%
X107800000Y-47990000D03*
X108820000Y-47990000D03*
%TD*%
D51*
%TO.C,U901*%
X100167500Y-53485000D03*
X100167500Y-52885000D03*
X100167500Y-52285000D03*
X100167500Y-51685000D03*
X100167500Y-51085000D03*
X100167500Y-50485000D03*
X100167500Y-49885000D03*
X100167500Y-49285000D03*
X100167500Y-48685000D03*
X100167500Y-48085000D03*
X100167500Y-47485000D03*
X100167500Y-46885000D03*
D52*
X99492500Y-46710000D03*
X98892500Y-46710000D03*
X98292500Y-46710000D03*
X97692500Y-46710000D03*
X97092500Y-46710000D03*
X96492500Y-46710000D03*
X95892500Y-46710000D03*
X95292500Y-46710000D03*
X94692500Y-46710000D03*
X94092500Y-46710000D03*
D51*
X93417500Y-46885000D03*
X93417500Y-47485000D03*
X93417500Y-48085000D03*
X93417500Y-48685000D03*
X93417500Y-49285000D03*
X93417500Y-49885000D03*
X93417500Y-50485000D03*
X93417500Y-51085000D03*
X93417500Y-51685000D03*
X93417500Y-52285000D03*
X93417500Y-52885000D03*
X93417500Y-53485000D03*
D52*
X94092500Y-53660000D03*
X94692500Y-53660000D03*
X95292500Y-53660000D03*
X95892500Y-53660000D03*
X96492500Y-53660000D03*
X97092500Y-53660000D03*
X97692500Y-53660000D03*
X98292500Y-53660000D03*
X98892500Y-53660000D03*
X99492500Y-53660000D03*
D51*
X98967500Y-51685000D03*
X98967500Y-51085000D03*
X98967500Y-50485000D03*
X98967500Y-49885000D03*
X98967500Y-49285000D03*
X98967500Y-48685000D03*
D52*
X98292500Y-47910000D03*
X97692500Y-47910000D03*
X97092500Y-47910000D03*
X96492500Y-47910000D03*
X95892500Y-47910000D03*
X95292500Y-47910000D03*
D51*
X94617500Y-48685000D03*
X94617500Y-49285000D03*
X94617500Y-49885000D03*
X94617500Y-50485000D03*
X94617500Y-51085000D03*
X94617500Y-51685000D03*
D52*
X95292500Y-52460000D03*
X95892500Y-52460000D03*
X96492500Y-52460000D03*
X97092500Y-52460000D03*
X97692500Y-52460000D03*
X98292500Y-52460000D03*
D51*
X97792500Y-51185000D03*
X97792500Y-50185000D03*
X97792500Y-49185000D03*
X96792500Y-49185000D03*
X95792500Y-49185000D03*
X95792500Y-50185000D03*
X95792500Y-51185000D03*
X96792500Y-51185000D03*
X96792500Y-50185000D03*
%TD*%
D12*
%TO.C,TP904*%
X54650000Y-50750000D03*
%TD*%
D37*
%TO.C,TH201*%
X71050000Y-89588207D03*
D38*
X70050000Y-89588207D03*
%TD*%
D22*
%TO.C,C404*%
X116000000Y-71330000D03*
X115040000Y-71330000D03*
%TD*%
D15*
%TO.C,R401*%
X11420000Y-91220000D03*
X12440000Y-91220000D03*
%TD*%
D53*
%TO.C,J801*%
X87800000Y-94612500D03*
X88600000Y-94612500D03*
D54*
X89750000Y-94612500D03*
X90750000Y-94612500D03*
X91250000Y-94612500D03*
X92250000Y-94612500D03*
D53*
X94200000Y-94612500D03*
X93400000Y-94612500D03*
D54*
X92750000Y-94612500D03*
X91750000Y-94612500D03*
X90250000Y-94612500D03*
X89250000Y-94612500D03*
D55*
X86680000Y-95187500D03*
X95320000Y-95187500D03*
%TD*%
D45*
%TO.C,R513*%
X110683415Y-44935900D03*
X110683415Y-43915900D03*
%TD*%
D48*
%TO.C,C222*%
X79350000Y-90013207D03*
X79350000Y-88463207D03*
%TD*%
D45*
%TO.C,R602*%
X70300000Y-75750000D03*
X70300000Y-74730000D03*
%TD*%
D27*
%TO.C,L205*%
X73100000Y-93688207D03*
X70950000Y-93688207D03*
%TD*%
D15*
%TO.C,R202*%
X74150000Y-82188207D03*
X75170000Y-82188207D03*
%TD*%
D24*
%TO.C,C234*%
X81795000Y-85110000D03*
X80245000Y-85110000D03*
%TD*%
D14*
%TO.C,C205*%
X73650000Y-87768207D03*
X73650000Y-86808207D03*
%TD*%
D18*
%TO.C,S201*%
X46050000Y-114762500D03*
X46050000Y-118612500D03*
X44600000Y-114762500D03*
X44600000Y-118612500D03*
D19*
X44525000Y-114662500D03*
X44525000Y-118712500D03*
%TD*%
D20*
%TO.C,C229*%
X69350000Y-95713207D03*
X69350000Y-97263207D03*
%TD*%
D56*
%TO.C,L301*%
X71750000Y-74650000D03*
X71750000Y-73074998D03*
%TD*%
D42*
%TO.C,D203*%
X40937500Y-114900000D03*
X38137500Y-114900000D03*
%TD*%
D57*
%TO.C,Y701*%
X70550000Y-68600000D03*
X70550000Y-70450000D03*
X72000000Y-70450000D03*
X72000000Y-68600000D03*
%TD*%
D15*
%TO.C,R514*%
X107800000Y-44010000D03*
X108820000Y-44010000D03*
%TD*%
%TO.C,R218*%
X76320000Y-82000000D03*
X77340000Y-82000000D03*
%TD*%
D12*
%TO.C,TP906*%
X57700000Y-50750000D03*
%TD*%
D25*
%TO.C,C705*%
X71240000Y-71700000D03*
X72200000Y-71700000D03*
%TD*%
D58*
%TO.C,D2*%
X69300000Y-79570000D03*
X69300000Y-78600000D03*
%TD*%
D59*
%TO.C,U401*%
X108873415Y-65577400D03*
X108873415Y-66377400D03*
X108873415Y-67177400D03*
X108873415Y-70377400D03*
X108873415Y-71177400D03*
X108873415Y-71977400D03*
X108073415Y-65577400D03*
X108073415Y-66377400D03*
X108073415Y-67177400D03*
X108073415Y-70377400D03*
X108073415Y-71177400D03*
X108073415Y-71977400D03*
X107273415Y-65577400D03*
X107273415Y-66377400D03*
X107273415Y-67177400D03*
X107273415Y-70377400D03*
X107273415Y-71177400D03*
X107273415Y-71977400D03*
X106473415Y-65577400D03*
X106473415Y-66377400D03*
X106473415Y-67177400D03*
X106473415Y-70377400D03*
X106473415Y-71177400D03*
X106473415Y-71977400D03*
X105673415Y-65577400D03*
X105673415Y-66377400D03*
X105673415Y-67177400D03*
X105673415Y-70377400D03*
X105673415Y-71177400D03*
X105673415Y-71977400D03*
X104873415Y-65577400D03*
X104873415Y-66377400D03*
X104873415Y-67177400D03*
X104873415Y-70377400D03*
X104873415Y-71177400D03*
X104873415Y-71977400D03*
X104073415Y-65577400D03*
X104073415Y-66377400D03*
X104073415Y-67177400D03*
X104073415Y-70377400D03*
X104073415Y-71177400D03*
X104073415Y-71977400D03*
X103273415Y-65577400D03*
X103273415Y-66377400D03*
X103273415Y-67177400D03*
X103273415Y-70377400D03*
X103273415Y-71177400D03*
X103273415Y-71977400D03*
X102473415Y-65577400D03*
X102473415Y-66377400D03*
X102473415Y-67177400D03*
X102473415Y-70377400D03*
X102473415Y-71177400D03*
X102473415Y-71977400D03*
X101673415Y-65577400D03*
X101673415Y-66377400D03*
X101673415Y-67177400D03*
X101673415Y-70377400D03*
X101673415Y-71177400D03*
X101673415Y-71977400D03*
X100873415Y-65577400D03*
X100873415Y-66377400D03*
X100873415Y-67177400D03*
X100873415Y-70377400D03*
X100873415Y-71177400D03*
X100873415Y-71977400D03*
X100073415Y-65577400D03*
X100073415Y-66377400D03*
X100073415Y-67177400D03*
X100073415Y-70377400D03*
X100073415Y-71177400D03*
X100073415Y-71977400D03*
X99273415Y-65577400D03*
X99273415Y-66377400D03*
X99273415Y-67177400D03*
X99273415Y-70377400D03*
X99273415Y-71177400D03*
X99273415Y-71977400D03*
X98473415Y-65577400D03*
X98473415Y-66377400D03*
X98473415Y-67177400D03*
X98473415Y-70377400D03*
X98473415Y-71177400D03*
X98473415Y-71977400D03*
X97673415Y-65577400D03*
X97673415Y-66377400D03*
X97673415Y-67177400D03*
X97673415Y-70377400D03*
X97673415Y-71177400D03*
X97673415Y-71977400D03*
X96873415Y-65577400D03*
X96873415Y-66377400D03*
X96873415Y-67177400D03*
X96873415Y-70377400D03*
X96873415Y-71177400D03*
X96873415Y-71977400D03*
%TD*%
D23*
%TO.C,D601*%
X69300000Y-72830000D03*
X69300000Y-73800000D03*
%TD*%
D45*
%TO.C,R221*%
X70300000Y-77720000D03*
X70300000Y-76700000D03*
%TD*%
D12*
%TO.C,TP602*%
X188550000Y-111040000D03*
%TD*%
%TO.C,TP710*%
X131850000Y-30700000D03*
%TD*%
D26*
%TO.C,R216*%
X77330000Y-83900000D03*
X76310000Y-83900000D03*
%TD*%
D12*
%TO.C,TP402*%
X175880000Y-119000000D03*
%TD*%
%TO.C,TP206*%
X72825000Y-135660000D03*
%TD*%
D25*
%TO.C,C426*%
X96593415Y-74377400D03*
X97553415Y-74377400D03*
%TD*%
D18*
%TO.C,S604*%
X70750000Y-42462500D03*
X70750000Y-46312500D03*
X69300000Y-42462500D03*
X69300000Y-46312500D03*
D19*
X69225000Y-42362500D03*
X69225000Y-46412500D03*
%TD*%
D17*
%TO.C,R902*%
X101417500Y-45685000D03*
X101417500Y-46705000D03*
%TD*%
D25*
%TO.C,C429*%
X110568415Y-62877400D03*
X111528415Y-62877400D03*
%TD*%
D15*
%TO.C,R201*%
X74140000Y-81188207D03*
X75160000Y-81188207D03*
%TD*%
D12*
%TO.C,TP701*%
X123060000Y-100690000D03*
%TD*%
D60*
%TO.C,R212*%
X70450000Y-85213207D03*
X70450000Y-83563207D03*
%TD*%
D61*
%TO.C,S702*%
X129187500Y-122260000D03*
X138087500Y-122260000D03*
X129187500Y-124800000D03*
X138087500Y-124800000D03*
X129187500Y-127340000D03*
X138087500Y-127340000D03*
%TD*%
D12*
%TO.C,TP705*%
X128800000Y-30700000D03*
%TD*%
D62*
%TO.C,U201*%
X74150000Y-83643207D03*
D63*
X73650000Y-83568207D03*
X73150000Y-83568207D03*
X72650000Y-83568207D03*
X72150000Y-83568207D03*
X72150000Y-85288207D03*
X72650000Y-85288207D03*
X73150000Y-85288207D03*
X73650000Y-85288207D03*
X74150000Y-85288207D03*
%TD*%
D26*
%TO.C,R714*%
X72220000Y-67300000D03*
X71200000Y-67300000D03*
%TD*%
D12*
%TO.C,TP403*%
X127030000Y-50120000D03*
%TD*%
D17*
%TO.C,R220*%
X70300000Y-78580000D03*
X70300000Y-79600000D03*
%TD*%
D12*
%TO.C,TP704*%
X128800000Y-27650000D03*
%TD*%
%TO.C,TP401*%
X175880000Y-115950000D03*
%TD*%
D64*
%TO.C,U3*%
X81350000Y-80000001D03*
X80850001Y-80000001D03*
X80350000Y-80000001D03*
X79850000Y-80000001D03*
X79349999Y-80000001D03*
X78850000Y-80000001D03*
D65*
X78200001Y-80650000D03*
X78200001Y-81149999D03*
X78200001Y-81650000D03*
X78200001Y-82150000D03*
X78200001Y-82650001D03*
X78200001Y-83150000D03*
D64*
X78850000Y-83799999D03*
X79349999Y-83799999D03*
X79850000Y-83799999D03*
X80350000Y-83799999D03*
X80850001Y-83799999D03*
X81350000Y-83799999D03*
D65*
X81999999Y-83150000D03*
X81999999Y-82650001D03*
X81999999Y-82150000D03*
X81999999Y-81650000D03*
X81999999Y-81149999D03*
X81999999Y-80650000D03*
D66*
X80100000Y-81900000D03*
D67*
X80100000Y-80800000D03*
X81200000Y-81900000D03*
X80100000Y-81900000D03*
X79000000Y-81900000D03*
X80100000Y-83000000D03*
%TD*%
D15*
%TO.C,R706*%
X129922500Y-126290000D03*
X130942500Y-126290000D03*
%TD*%
D12*
%TO.C,TP907*%
X60750000Y-47700000D03*
%TD*%
D15*
%TO.C,R217*%
X76310000Y-83000000D03*
X77330000Y-83000000D03*
%TD*%
D68*
%TO.C,J701*%
X135550000Y-20600000D03*
X141900000Y-20600000D03*
D69*
X134915000Y-22635000D03*
X134915000Y-18565000D03*
X136185000Y-22635000D03*
X136185000Y-18565000D03*
X137455000Y-22635000D03*
X137455000Y-18565000D03*
X138725000Y-22635000D03*
X138725000Y-18565000D03*
X139995000Y-22635000D03*
X139995000Y-18565000D03*
X141265000Y-22635000D03*
X141265000Y-18565000D03*
X142535000Y-22635000D03*
X142535000Y-18565000D03*
%TD*%
D15*
%TO.C,R909*%
X65700000Y-49590000D03*
X66720000Y-49590000D03*
%TD*%
D11*
%TO.C,C803*%
X106600000Y-109800000D03*
X106600000Y-110760000D03*
%TD*%
D14*
%TO.C,C223*%
X77122500Y-100178207D03*
X77122500Y-99218207D03*
%TD*%
D15*
%TO.C,R603*%
X8720000Y-93020000D03*
X9740000Y-93020000D03*
%TD*%
D25*
%TO.C,C405*%
X115020000Y-67800000D03*
X115980000Y-67800000D03*
%TD*%
D70*
%TO.C,U1*%
X76033417Y-42217406D03*
X77033415Y-42217406D03*
X84033401Y-42217406D03*
X85033399Y-42217406D03*
X76033417Y-43217404D03*
X85033399Y-43217404D03*
X77033415Y-45217400D03*
X78033413Y-45217400D03*
X79033411Y-45217400D03*
X80033409Y-45217400D03*
X81033407Y-45217400D03*
X82033405Y-45217400D03*
X83033403Y-45217400D03*
X84033401Y-45217400D03*
X77033415Y-46217398D03*
X78033413Y-46217398D03*
X79033411Y-46217398D03*
X80033409Y-46217398D03*
X81033407Y-46217398D03*
X82033405Y-46217398D03*
X83033403Y-46217398D03*
X84033401Y-46217398D03*
X77033415Y-47217396D03*
X78033413Y-47217396D03*
X79033411Y-47217396D03*
X80033409Y-47217396D03*
X81033407Y-47217396D03*
X82033405Y-47217396D03*
X83033403Y-47217396D03*
X84033401Y-47217396D03*
X77033415Y-48217394D03*
X78033413Y-48217394D03*
X79033411Y-48217394D03*
X80033409Y-48217394D03*
X81033407Y-48217394D03*
X82033405Y-48217394D03*
X83033403Y-48217394D03*
X84033401Y-48217394D03*
X77033415Y-49217392D03*
X78033413Y-49217392D03*
X79033411Y-49217392D03*
X80033409Y-49217392D03*
X81033407Y-49217392D03*
X82033405Y-49217392D03*
X83033403Y-49217392D03*
X84033401Y-49217392D03*
X77033415Y-50217390D03*
X78033413Y-50217390D03*
X79033411Y-50217390D03*
X80033409Y-50217390D03*
X81033407Y-50217390D03*
X82033405Y-50217390D03*
X83033403Y-50217390D03*
X84033401Y-50217390D03*
X77033415Y-51217388D03*
X78033413Y-51217388D03*
X79033411Y-51217388D03*
X80033409Y-51217388D03*
X81033407Y-51217388D03*
X82033405Y-51217388D03*
X83033403Y-51217388D03*
X84033401Y-51217388D03*
X77033415Y-52217386D03*
X78033413Y-52217386D03*
X79033411Y-52217386D03*
X80033409Y-52217386D03*
X81033407Y-52217386D03*
X82033405Y-52217386D03*
X83033403Y-52217386D03*
X84033401Y-52217386D03*
X77033415Y-53217384D03*
X78033413Y-53217384D03*
X79033411Y-53217384D03*
X80033409Y-53217384D03*
X81033407Y-53217384D03*
X82033405Y-53217384D03*
X83033403Y-53217384D03*
X84033401Y-53217384D03*
X77033415Y-54217382D03*
X78033413Y-54217382D03*
X79033411Y-54217382D03*
X80033409Y-54217382D03*
X81033407Y-54217382D03*
X82033405Y-54217382D03*
X83033403Y-54217382D03*
X84033401Y-54217382D03*
X77033415Y-55217380D03*
X78033413Y-55217380D03*
X79033411Y-55217380D03*
X80033409Y-55217380D03*
X81033407Y-55217380D03*
X82033405Y-55217380D03*
X83033403Y-55217380D03*
X84033401Y-55217380D03*
X76033417Y-57217376D03*
X85033399Y-57217376D03*
X76033417Y-58217374D03*
X77033415Y-58217374D03*
X84033401Y-58217374D03*
X85033399Y-58217374D03*
%TD*%
D45*
%TO.C,R601*%
X70300000Y-73830000D03*
X70300000Y-72810000D03*
%TD*%
D11*
%TO.C,C221*%
X77250000Y-89283207D03*
X77250000Y-90243207D03*
%TD*%
D15*
%TO.C,R405*%
X115290000Y-74000000D03*
X116310000Y-74000000D03*
%TD*%
D45*
%TO.C,R712*%
X69300000Y-69300000D03*
X69300000Y-68280000D03*
%TD*%
M02*
