<svg width="11" height="11" viewBox="0 0 11 11" fill="none" xmlns="http://www.w3.org/2000/svg">
<g clip-path="url(#clip0_131_1102)">
<path d="M10.5416 4.58331V6.41665" stroke="#5DF182" stroke-linecap="round" stroke-linejoin="round"/>
<path d="M0.458374 7.33333V3.66667C0.458374 3.16041 0.868779 2.75 1.37504 2.75H8.25004C8.75632 2.75 9.16671 3.16041 9.16671 3.66667V7.33333C9.16671 7.83961 8.75632 8.25 8.25004 8.25H1.37504C0.868779 8.25 0.458374 7.83961 0.458374 7.33333Z" stroke="#5DF182"/>
<path d="M1.83337 6.6V4.4C1.83337 4.24812 1.9565 4.125 2.10837 4.125H6.14171C6.2936 4.125 6.41671 4.24812 6.41671 4.4V6.6C6.41671 6.75189 6.2936 6.875 6.14171 6.875H2.10837C1.9565 6.875 1.83337 6.75189 1.83337 6.6Z" fill="#5DF182" stroke="#5DF182"/>
</g>
<defs>
<clipPath id="clip0_131_1102">
<rect width="11" height="11" fill="white"/>
</clipPath>
</defs>
</svg>
