<svg width="28" height="18" viewBox="0 0 28 18" fill="none" xmlns="http://www.w3.org/2000/svg">
<g clip-path="url(#clip0_135_488)">
<path d="M25.9355 4.83032C26.5029 4.83032 27.0202 5.05325 27.3939 5.41169C27.7676 5.77013 28 6.26627 28 6.81048V15.848C28 16.3922 27.7676 16.8883 27.3939 17.2468C27.0202 17.6052 26.5029 17.8281 25.9355 17.8281H2.06445C1.49707 17.8281 0.979818 17.6052 0.60612 17.2468C0.232422 16.8905 0 16.3944 0 15.8502V6.81048C0 6.26627 0.232422 5.77013 0.60612 5.41169C0.979818 5.05325 1.49707 4.83032 2.06445 4.83032C15.8594 4.83032 22.0186 4.83032 25.9355 4.83032ZM21.0182 5.6696H2.06445C1.73633 5.6696 1.4401 5.79855 1.22363 6.00618C1.00716 6.21163 0.875 6.49794 0.875 6.81048V15.848C0.875 16.1627 1.00944 16.4468 1.22591 16.6545C1.44238 16.8621 1.73861 16.991 2.06673 16.991H25.9355C26.2637 16.991 26.5599 16.8621 26.7764 16.6545C26.9928 16.4468 27.1273 16.1627 27.1273 15.848V6.81048C27.1273 6.49576 26.9928 6.21163 26.7764 6.00399C26.5599 5.79636 26.2637 5.66741 25.9355 5.66741H22.9186C22.39 5.6696 21.5469 5.6696 21.0182 5.6696ZM2.79362 6.95692H4.55957C4.80111 6.95692 4.99707 7.14488 4.99707 7.37656V8.80594C4.99707 9.03762 4.80111 9.22558 4.55957 9.22558H2.79362C2.55208 9.22558 2.35612 9.03762 2.35612 8.80594V7.37656C2.35612 7.14488 2.55208 6.95692 2.79362 6.95692ZM6.29134 6.95692H8.05729C8.29883 6.95692 8.49479 7.14488 8.49479 7.37656V8.80594C8.49479 9.03762 8.29883 9.22558 8.05729 9.22558H6.29134C6.04981 9.22558 5.85384 9.03762 5.85384 8.80594V7.37656C5.85384 7.14488 6.04981 6.95692 6.29134 6.95692ZM9.79134 6.95692H11.5573C11.7988 6.95692 11.9948 7.14488 11.9948 7.37656V8.80594C11.9948 9.03762 11.7988 9.22558 11.5573 9.22558H9.79134C9.54981 9.22558 9.35384 9.03762 9.35384 8.80594V7.37656C9.35384 7.14488 9.54981 6.95692 9.79134 6.95692ZM13.2891 6.95692H15.055C15.2965 6.95692 15.4925 7.14488 15.4925 7.37656V8.80594C15.4925 9.03762 15.2965 9.22558 15.055 9.22558H13.2891C13.0475 9.22558 12.8516 9.03762 12.8516 8.80594V7.37656C12.8538 7.14488 13.0475 6.95692 13.2891 6.95692ZM16.7891 6.95692H18.555C18.7966 6.95692 18.9925 7.14488 18.9925 7.37656V8.80594C18.9925 9.03762 18.7966 9.22558 18.555 9.22558H16.7891C16.5475 9.22558 16.3516 9.03762 16.3516 8.80594V7.37656C16.3516 7.14488 16.5475 6.95692 16.7891 6.95692ZM20.2891 6.95692H22.055C22.2966 6.95692 22.4925 7.14488 22.4925 7.37656V8.80594C22.4925 9.03762 22.2966 9.22558 22.055 9.22558H20.2891C20.0475 9.22558 19.8516 9.03762 19.8516 8.80594V7.37656C19.8516 7.14488 20.0475 6.95692 20.2891 6.95692ZM23.7868 6.95692H25.5527C25.7943 6.95692 25.9902 7.14488 25.9902 7.37656V8.80594C25.9902 9.03762 25.7943 9.22558 25.5527 9.22558H23.7868C23.5452 9.22558 23.3493 9.03762 23.3493 8.80594V7.37656C23.3493 7.14488 23.5452 6.95692 23.7868 6.95692ZM23.7868 10.043H25.5527C25.7943 10.043 25.9902 10.2331 25.9902 10.467V14.9868C25.9902 15.2207 25.7943 15.4109 25.5527 15.4109H23.7868C23.5452 15.4109 23.3493 15.2207 23.3493 14.9868V10.467C23.3493 10.2331 23.5452 10.043 23.7868 10.043ZM2.79362 10.0802H4.55957C4.80111 10.0802 4.99707 10.2681 4.99707 10.4998V11.9292C4.99707 12.1609 4.80111 12.3488 4.55957 12.3488H2.79362C2.55208 12.3488 2.35612 12.1609 2.35612 11.9292V10.4998C2.35612 10.2681 2.55208 10.0802 2.79362 10.0802ZM6.29134 10.0802H8.05729C8.29883 10.0802 8.49479 10.2681 8.49479 10.4998V11.9292C8.49479 12.1609 8.29883 12.3488 8.05729 12.3488H6.29134C6.04981 12.3488 5.85384 12.1609 5.85384 11.9292V10.4998C5.85384 10.2681 6.04981 10.0802 6.29134 10.0802ZM9.79134 10.0802H11.5573C11.7988 10.0802 11.9948 10.2681 11.9948 10.4998V11.9292C11.9948 12.1609 11.7988 12.3488 11.5573 12.3488H9.79134C9.54981 12.3488 9.35384 12.1609 9.35384 11.9292V10.4998C9.35384 10.2681 9.54981 10.0802 9.79134 10.0802ZM13.2891 10.0802H15.055C15.2965 10.0802 15.4925 10.2681 15.4925 10.4998V11.9292C15.4925 12.1609 15.2965 12.3488 15.055 12.3488H13.2891C13.0475 12.3488 12.8516 12.1609 12.8516 11.9292V10.4998C12.8538 10.2681 13.0475 10.0802 13.2891 10.0802ZM16.7891 10.0802H18.555C18.7966 10.0802 18.9925 10.2681 18.9925 10.4998V11.9292C18.9925 12.1609 18.7966 12.3488 18.555 12.3488H16.7891C16.5475 12.3488 16.3516 12.1609 16.3516 11.9292V10.4998C16.3516 10.2681 16.5475 10.0802 16.7891 10.0802ZM20.2891 10.0802H22.055C22.2966 10.0802 22.4925 10.2681 22.4925 10.4998V11.9292C22.4925 12.1609 22.2966 12.3488 22.055 12.3488H20.2891C20.0475 12.3488 19.8516 12.1609 19.8516 11.9292V10.4998C19.8516 10.2681 20.0475 10.0802 20.2891 10.0802ZM2.79362 13.1706H4.55957C4.80111 13.1706 4.99707 13.3586 4.99707 13.5902V15.0196C4.99707 15.2513 4.80111 15.4393 4.55957 15.4393H2.79362C2.55208 15.4393 2.35612 15.2513 2.35612 15.0196V13.5902C2.35612 13.3586 2.55208 13.1706 2.79362 13.1706ZM6.29134 13.1706H15.0573C15.2966 13.1706 15.4902 13.3586 15.4902 13.5902V15.0196C15.4902 15.2513 15.2966 15.4393 15.0573 15.4393H6.29134C6.05208 15.4393 5.8584 15.2513 5.8584 15.0196V13.5902C5.8584 13.3586 6.05208 13.1706 6.29134 13.1706ZM16.7891 13.1706H18.555C18.7966 13.1706 18.9925 13.3586 18.9925 13.5902V15.0196C18.9925 15.2513 18.7966 15.4393 18.555 15.4393H16.7891C16.5475 15.4393 16.3516 15.2513 16.3516 15.0196V13.5902C16.3516 13.3586 16.5475 13.1706 16.7891 13.1706ZM20.2891 13.1706H22.055C22.2966 13.1706 22.4925 13.3586 22.4925 13.5902V15.0196C22.4925 15.2513 22.2966 15.4393 22.055 15.4393H20.2891C20.0475 15.4393 19.8516 15.2513 19.8516 15.0196V13.5902C19.8516 13.3586 20.0475 13.1706 20.2891 13.1706Z" fill="#4F46E5"/>
</g>
<path d="M12.5003 5.33022C12.8754 4.67454 10.248 3.96373 10.5001 2.8303C10.7522 1.69688 12.7529 1.1858 12 0.330322" stroke="#4F46E5"/>
<defs>
<clipPath id="clip0_135_488">
<rect width="28" height="13" fill="white" transform="translate(0 4.83032)"/>
</clipPath>
</defs>
</svg>
