<svg width="11" height="11" viewBox="0 0 11 11" fill="none" xmlns="http://www.w3.org/2000/svg">
<path fill-rule="evenodd" clip-rule="evenodd" d="M3.66663 1.03125C1.958 1.03125 0.572876 2.41637 0.572876 4.125V6.875C0.572876 8.58362 1.958 9.96875 3.66663 9.96875H7.33329C9.04191 9.96875 10.427 8.58362 10.427 6.875V4.125C10.427 2.41637 9.04191 1.03125 7.33329 1.03125H3.66663ZM5.76006 6.98995C5.88707 6.84883 5.87561 6.63149 5.73449 6.50448C5.59337 6.37748 5.37603 6.38889 5.24902 6.53001L5.24444 6.5351C5.11743 6.67622 5.12889 6.89356 5.27001 7.02057C5.41113 7.14757 5.62848 7.13611 5.75548 6.99504L5.76006 6.98995ZM7.52758 5.37634C6.51916 4.16623 4.48078 4.16624 3.47238 5.3763C3.35083 5.52214 3.13407 5.54185 2.98823 5.4203C2.84239 5.29875 2.82269 5.082 2.94423 4.93616C4.22749 3.39628 6.77243 3.39627 8.05572 4.9362C8.17727 5.08205 8.15756 5.29879 8.01172 5.42034C7.86583 5.54189 7.64908 5.52218 7.52758 5.37634ZM4.39998 6.27917C4.94996 5.54583 6.04996 5.54583 6.59996 6.27917C6.7139 6.43106 6.92936 6.46186 7.08121 6.34792C7.2331 6.23402 7.2639 6.01856 7.14996 5.86667C6.32496 4.76667 4.67496 4.76667 3.84998 5.86667C3.73607 6.01856 3.76685 6.23402 3.91873 6.34792C4.07061 6.46186 4.28607 6.43106 4.39998 6.27917Z" fill="#807DE6"/>
</svg>
