G04 #@! TF.GenerationSoftware,KiCad,Pcbnew,9.0.7*
G04 #@! TF.CreationDate,2026-02-27T16:16:51-07:00*
G04 #@! TF.ProjectId,MPU_MOD,4d50555f-4d4f-4442-9e6b-696361645f70,rev?*
G04 #@! TF.SameCoordinates,Original*
G04 #@! TF.FileFunction,Copper,L3,Inr*
G04 #@! TF.FilePolarity,Positive*
%FSLAX46Y46*%
G04 Gerber Fmt 4.6, Leading zero omitted, Abs format (unit mm)*
G04 Created by KiCad (PCBNEW 9.0.7) date 2026-02-27 16:16:51*
%MOMM*%
%LPD*%
G01*
G04 APERTURE LIST*
G04 Aperture macros list*
%AMFreePoly0*
4,1,229,0.026192,1.103996,0.026383,1.103985,0.052383,1.101985,0.052573,1.101967,0.078573,1.098967,0.078944,1.098910,0.104944,1.093910,0.105167,1.093862,0.130167,1.087862,0.130300,1.087828,0.156300,1.080828,0.156756,1.080682,0.180756,1.071682,0.180923,1.071615,0.204923,1.061615,0.205083,1.061545,0.229083,1.050545,0.229460,1.050353,0.252460,1.037353,0.252684,1.037218,
0.296684,1.009218,0.297030,1.008977,0.318030,0.992977,0.318238,0.992810,0.338238,0.975810,0.338439,0.975630,0.357439,0.957630,0.357630,0.957439,0.375630,0.938439,0.375810,0.938238,0.392810,0.918238,0.392977,0.918030,0.408977,0.897030,0.409218,0.896684,0.437218,0.852684,0.437353,0.852460,0.450353,0.829460,0.450545,0.829083,0.461545,0.805083,0.461615,0.804923,
0.471615,0.780923,0.471682,0.780756,0.480682,0.756756,0.480828,0.756300,0.487828,0.730300,0.487862,0.730167,0.493862,0.705167,0.493910,0.704944,0.498910,0.678944,0.498967,0.678573,0.501967,0.652573,0.501985,0.652383,0.503985,0.626383,0.503996,0.626192,0.504996,0.600192,0.505000,0.600000,0.505000,-0.600000,0.504996,-0.600192,0.503996,-0.626192,0.503985,-0.626383,
0.501985,-0.652383,0.501967,-0.652573,0.498967,-0.678573,0.498910,-0.678944,0.493910,-0.704944,0.493862,-0.705167,0.487862,-0.730167,0.487828,-0.730300,0.480828,-0.756300,0.480682,-0.756756,0.471682,-0.780756,0.471615,-0.780923,0.461615,-0.804923,0.461545,-0.805083,0.450545,-0.829083,0.450353,-0.829460,0.437353,-0.852460,0.437218,-0.852684,0.409218,-0.896684,0.408977,-0.897030,
0.392977,-0.918030,0.392810,-0.918238,0.375810,-0.938238,0.375630,-0.938439,0.357630,-0.957439,0.357439,-0.957630,0.338439,-0.975630,0.338238,-0.975810,0.318238,-0.992810,0.318030,-0.992977,0.297030,-1.008977,0.296684,-1.009218,0.252684,-1.037218,0.252460,-1.037353,0.229460,-1.050353,0.229083,-1.050545,0.205083,-1.061545,0.204923,-1.061615,0.180923,-1.071615,0.180756,-1.071682,
0.156756,-1.080682,0.156300,-1.080828,0.130300,-1.087828,0.130167,-1.087862,0.105167,-1.093862,0.104944,-1.093910,0.078944,-1.098910,0.078573,-1.098967,0.052573,-1.101967,0.052383,-1.101985,0.026383,-1.103985,0.026192,-1.103996,0.000192,-1.104996,-0.000192,-1.104996,-0.026192,-1.103996,-0.026383,-1.103985,-0.052383,-1.101985,-0.052573,-1.101967,-0.078573,-1.098967,-0.078944,-1.098910,
-0.104944,-1.093910,-0.105167,-1.093862,-0.130167,-1.087862,-0.130300,-1.087828,-0.156300,-1.080828,-0.156756,-1.080682,-0.180756,-1.071682,-0.180923,-1.071615,-0.204923,-1.061615,-0.205083,-1.061545,-0.229083,-1.050545,-0.229460,-1.050353,-0.252460,-1.037353,-0.252684,-1.037218,-0.296684,-1.009218,-0.297030,-1.008977,-0.318030,-0.992977,-0.318238,-0.992810,-0.338238,-0.975810,-0.338439,-0.975630,
-0.357439,-0.957630,-0.357630,-0.957439,-0.375630,-0.938439,-0.375810,-0.938238,-0.392810,-0.918238,-0.392977,-0.918030,-0.408977,-0.897030,-0.409218,-0.896684,-0.437218,-0.852684,-0.437353,-0.852460,-0.450353,-0.829460,-0.450545,-0.829083,-0.461545,-0.805083,-0.461615,-0.804923,-0.471615,-0.780923,-0.471682,-0.780756,-0.480682,-0.756756,-0.480828,-0.756300,-0.487828,-0.730300,-0.487862,-0.730167,
-0.493862,-0.705167,-0.493910,-0.704944,-0.498910,-0.678944,-0.498967,-0.678573,-0.501967,-0.652573,-0.501985,-0.652383,-0.503985,-0.626383,-0.503996,-0.626192,-0.504996,-0.600192,-0.505000,-0.600000,-0.505000,0.600000,-0.504996,0.600192,-0.503996,0.626192,-0.503985,0.626383,-0.501985,0.652383,-0.501967,0.652573,-0.498967,0.678573,-0.498910,0.678944,-0.493910,0.704944,-0.493862,0.705167,
-0.487862,0.730167,-0.487828,0.730300,-0.480828,0.756300,-0.480682,0.756756,-0.471682,0.780756,-0.471615,0.780923,-0.461615,0.804923,-0.461545,0.805083,-0.450545,0.829083,-0.450353,0.829460,-0.437353,0.852460,-0.437218,0.852684,-0.409218,0.896684,-0.408977,0.897030,-0.392977,0.918030,-0.392810,0.918238,-0.375810,0.938238,-0.375630,0.938439,-0.357630,0.957439,-0.357439,0.957630,
-0.338439,0.975630,-0.338238,0.975810,-0.318238,0.992810,-0.318030,0.992977,-0.297030,1.008977,-0.296684,1.009218,-0.252684,1.037218,-0.252460,1.037353,-0.229460,1.050353,-0.229083,1.050545,-0.205083,1.061545,-0.204923,1.061615,-0.180923,1.071615,-0.180756,1.071682,-0.156756,1.080682,-0.156300,1.080828,-0.130300,1.087828,-0.130167,1.087862,-0.105167,1.093862,-0.104944,1.093910,
-0.078944,1.098910,-0.078573,1.098967,-0.052573,1.101967,-0.052383,1.101985,-0.026383,1.103985,-0.026192,1.103996,-0.000192,1.104996,0.000192,1.104996,0.026192,1.103996,0.026192,1.103996,$1*%
%AMFreePoly1*
4,1,229,0.026192,0.903996,0.026383,0.903985,0.052383,0.901985,0.052573,0.901967,0.078573,0.898967,0.078944,0.898910,0.104944,0.893910,0.105167,0.893862,0.130167,0.887862,0.130300,0.887828,0.156300,0.880828,0.156756,0.880682,0.180756,0.871682,0.180923,0.871615,0.204923,0.861615,0.205083,0.861545,0.229083,0.850545,0.229460,0.850353,0.252460,0.837353,0.252684,0.837218,
0.296684,0.809218,0.297030,0.808977,0.318030,0.792977,0.318238,0.792810,0.338238,0.775810,0.338439,0.775630,0.357439,0.757630,0.357630,0.757439,0.375630,0.738439,0.375810,0.738238,0.392810,0.718238,0.392977,0.718030,0.408977,0.697030,0.409218,0.696684,0.437218,0.652684,0.437353,0.652460,0.450353,0.629460,0.450545,0.629083,0.461545,0.605083,0.461615,0.604923,
0.471615,0.580923,0.471682,0.580756,0.480682,0.556756,0.480828,0.556300,0.487828,0.530300,0.487862,0.530167,0.493862,0.505167,0.493910,0.504944,0.498910,0.478944,0.498967,0.478573,0.501967,0.452573,0.501985,0.452383,0.503985,0.426383,0.503996,0.426192,0.504996,0.400192,0.505000,0.400000,0.505000,-0.400000,0.504996,-0.400192,0.503996,-0.426192,0.503985,-0.426383,
0.501985,-0.452383,0.501967,-0.452573,0.498967,-0.478573,0.498910,-0.478944,0.493910,-0.504944,0.493862,-0.505167,0.487862,-0.530167,0.487828,-0.530300,0.480828,-0.556300,0.480682,-0.556756,0.471682,-0.580756,0.471615,-0.580923,0.461615,-0.604923,0.461545,-0.605083,0.450545,-0.629083,0.450353,-0.629460,0.437353,-0.652460,0.437218,-0.652684,0.409218,-0.696684,0.408977,-0.697030,
0.392977,-0.718030,0.392810,-0.718238,0.375810,-0.738238,0.375630,-0.738439,0.357630,-0.757439,0.357439,-0.757630,0.338439,-0.775630,0.338238,-0.775810,0.318238,-0.792810,0.318030,-0.792977,0.297030,-0.808977,0.296684,-0.809218,0.252684,-0.837218,0.252460,-0.837353,0.229460,-0.850353,0.229083,-0.850545,0.205083,-0.861545,0.204923,-0.861615,0.180923,-0.871615,0.180756,-0.871682,
0.156756,-0.880682,0.156300,-0.880828,0.130300,-0.887828,0.130167,-0.887862,0.105167,-0.893862,0.104944,-0.893910,0.078944,-0.898910,0.078573,-0.898967,0.052573,-0.901967,0.052383,-0.901985,0.026383,-0.903985,0.026192,-0.903996,0.000192,-0.904996,-0.000192,-0.904996,-0.026192,-0.903996,-0.026383,-0.903985,-0.052383,-0.901985,-0.052573,-0.901967,-0.078573,-0.898967,-0.078944,-0.898910,
-0.104944,-0.893910,-0.105167,-0.893862,-0.130167,-0.887862,-0.130300,-0.887828,-0.156300,-0.880828,-0.156756,-0.880682,-0.180756,-0.871682,-0.180923,-0.871615,-0.204923,-0.861615,-0.205083,-0.861545,-0.229083,-0.850545,-0.229460,-0.850353,-0.252460,-0.837353,-0.252684,-0.837218,-0.296684,-0.809218,-0.297030,-0.808977,-0.318030,-0.792977,-0.318238,-0.792810,-0.338238,-0.775810,-0.338439,-0.775630,
-0.357439,-0.757630,-0.357630,-0.757439,-0.375630,-0.738439,-0.375810,-0.738238,-0.392810,-0.718238,-0.392977,-0.718030,-0.408977,-0.697030,-0.409218,-0.696684,-0.437218,-0.652684,-0.437353,-0.652460,-0.450353,-0.629460,-0.450545,-0.629083,-0.461545,-0.605083,-0.461615,-0.604923,-0.471615,-0.580923,-0.471682,-0.580756,-0.480682,-0.556756,-0.480828,-0.556300,-0.487828,-0.530300,-0.487862,-0.530167,
-0.493862,-0.505167,-0.493910,-0.504944,-0.498910,-0.478944,-0.498967,-0.478573,-0.501967,-0.452573,-0.501985,-0.452383,-0.503985,-0.426383,-0.503996,-0.426192,-0.504996,-0.400192,-0.505000,-0.400000,-0.505000,0.400000,-0.504996,0.400192,-0.503996,0.426192,-0.503985,0.426383,-0.501985,0.452383,-0.501967,0.452573,-0.498967,0.478573,-0.498910,0.478944,-0.493910,0.504944,-0.493862,0.505167,
-0.487862,0.530167,-0.487828,0.530300,-0.480828,0.556300,-0.480682,0.556756,-0.471682,0.580756,-0.471615,0.580923,-0.461615,0.604923,-0.461545,0.605083,-0.450545,0.629083,-0.450353,0.629460,-0.437353,0.652460,-0.437218,0.652684,-0.409218,0.696684,-0.408977,0.697030,-0.392977,0.718030,-0.392810,0.718238,-0.375810,0.738238,-0.375630,0.738439,-0.357630,0.757439,-0.357439,0.757630,
-0.338439,0.775630,-0.338238,0.775810,-0.318238,0.792810,-0.318030,0.792977,-0.297030,0.808977,-0.296684,0.809218,-0.252684,0.837218,-0.252460,0.837353,-0.229460,0.850353,-0.229083,0.850545,-0.205083,0.861545,-0.204923,0.861615,-0.180923,0.871615,-0.180756,0.871682,-0.156756,0.880682,-0.156300,0.880828,-0.130300,0.887828,-0.130167,0.887862,-0.105167,0.893862,-0.104944,0.893910,
-0.078944,0.898910,-0.078573,0.898967,-0.052573,0.901967,-0.052383,0.901985,-0.026383,0.903985,-0.026192,0.903996,-0.000192,0.904996,0.000192,0.904996,0.026192,0.903996,0.026192,0.903996,$1*%
G04 Aperture macros list end*
G04 #@! TA.AperFunction,ComponentPad*
%ADD10FreePoly0,0.000000*%
G04 #@! TD*
G04 #@! TA.AperFunction,ComponentPad*
%ADD11FreePoly1,0.000000*%
G04 #@! TD*
G04 #@! TA.AperFunction,ComponentPad*
%ADD12C,0.800000*%
G04 #@! TD*
G04 #@! TA.AperFunction,ComponentPad*
%ADD13C,5.400000*%
G04 #@! TD*
G04 #@! TA.AperFunction,ViaPad*
%ADD14C,0.400000*%
G04 #@! TD*
G04 #@! TA.AperFunction,Conductor*
%ADD15C,0.200000*%
G04 #@! TD*
G04 #@! TA.AperFunction,Conductor*
%ADD16C,0.118400*%
G04 #@! TD*
G04 #@! TA.AperFunction,Conductor*
%ADD17C,0.114800*%
G04 #@! TD*
G04 #@! TA.AperFunction,Conductor*
%ADD18C,0.125200*%
G04 #@! TD*
G04 #@! TA.AperFunction,Conductor*
%ADD19C,0.105400*%
G04 #@! TD*
G04 #@! TA.AperFunction,Conductor*
%ADD20C,0.102900*%
G04 #@! TD*
G04 APERTURE END LIST*
D10*
G04 #@! TO.N,GND*
G04 #@! TO.C,J1101*
X96240000Y-127410000D03*
D11*
X107480000Y-123410000D03*
X96240000Y-123410000D03*
D10*
X107480000Y-127410000D03*
G04 #@! TD*
D12*
G04 #@! TO.N,GND*
G04 #@! TO.C,H101*
X61395000Y-88785000D03*
X61988109Y-87353109D03*
X61988109Y-90216891D03*
X63420000Y-86760000D03*
D13*
X63420000Y-88785000D03*
D12*
X63420000Y-90810000D03*
X64851891Y-87353109D03*
X64851891Y-90216891D03*
X65445000Y-88785000D03*
G04 #@! TD*
D10*
G04 #@! TO.N,GND*
G04 #@! TO.C,J1102*
X82280000Y-127410000D03*
D11*
X93520000Y-123410000D03*
X82280000Y-123410000D03*
D10*
X93520000Y-127410000D03*
G04 #@! TD*
D14*
G04 #@! TO.N,GND*
X92650000Y-121300000D03*
X84700000Y-121950000D03*
X62590000Y-118160000D03*
X92079493Y-102104493D03*
X106400000Y-76600000D03*
X68500000Y-109200000D03*
X96170000Y-107030000D03*
X69285000Y-105335000D03*
X108750000Y-118160000D03*
X109130000Y-108760000D03*
X96130000Y-85210000D03*
X73355000Y-104155000D03*
X101750000Y-95700000D03*
X66200000Y-63800000D03*
X91250000Y-94015000D03*
X68400000Y-117300000D03*
X61090000Y-119260000D03*
X71020000Y-84510000D03*
X71090000Y-110850000D03*
X98950000Y-66900000D03*
X98466992Y-93316992D03*
X68377500Y-100835000D03*
X76700000Y-62300000D03*
X61090000Y-118160000D03*
X83145000Y-72425000D03*
X86250000Y-96440000D03*
X75715000Y-112335000D03*
X104530000Y-114660000D03*
X91550000Y-121300000D03*
X100890000Y-102940000D03*
X91286993Y-102896993D03*
X66800000Y-60200000D03*
X85200000Y-85150000D03*
X100350000Y-109310000D03*
X62590000Y-126960000D03*
X100940000Y-73730000D03*
X89100000Y-75100000D03*
X90110000Y-115600000D03*
X93260000Y-79030000D03*
X102500000Y-92500000D03*
X89100000Y-78700000D03*
X87170000Y-95290000D03*
X104050000Y-93335000D03*
X65590000Y-111580000D03*
X82020000Y-70620000D03*
X75355000Y-105155000D03*
X87060000Y-80530000D03*
X93550000Y-67000000D03*
X74600000Y-63200000D03*
X72950000Y-116600000D03*
X73990000Y-126960000D03*
X103270000Y-91720000D03*
X105650000Y-71200000D03*
X107586670Y-114609586D03*
X97810000Y-120600000D03*
X104500000Y-76500000D03*
X81900000Y-84600000D03*
X93550408Y-71699593D03*
X91250000Y-93250000D03*
X95000000Y-62300000D03*
X71890000Y-111650000D03*
X68502500Y-105335000D03*
X76410000Y-124640000D03*
X66200000Y-63000000D03*
X75390000Y-96935000D03*
X76355000Y-105155000D03*
X93666993Y-93316993D03*
X66220000Y-113030000D03*
X61090000Y-126960000D03*
X81550000Y-67300000D03*
X93450000Y-80440000D03*
X95276992Y-96506992D03*
X69285000Y-103535000D03*
X75570000Y-124610000D03*
X68555000Y-106955000D03*
X68180000Y-101530000D03*
X92900000Y-81690000D03*
X73990000Y-118160000D03*
X95286992Y-98096992D03*
X95170000Y-70100000D03*
X78950000Y-67300000D03*
X101780000Y-80160000D03*
X101786993Y-78416993D03*
X64300000Y-111140000D03*
X69400000Y-63800000D03*
X70390000Y-74765000D03*
X100070000Y-98090000D03*
X103210000Y-94885000D03*
X69290000Y-98535000D03*
X99520000Y-61110000D03*
X94790000Y-86520000D03*
X93970000Y-111220000D03*
X68490000Y-123110000D03*
X93500000Y-70150000D03*
X102767400Y-70336585D03*
X89200000Y-71250000D03*
X95301992Y-94881992D03*
X99170000Y-72520000D03*
X68800000Y-63800000D03*
X104270000Y-106830000D03*
X100800000Y-70930000D03*
X80180000Y-104562500D03*
X93670000Y-94920000D03*
X76790000Y-96935000D03*
X68377500Y-102335000D03*
X80180000Y-103662500D03*
X68502500Y-103535000D03*
X105890000Y-61100000D03*
X92100000Y-121300000D03*
X64090000Y-123660000D03*
X74600000Y-65600000D03*
X71090000Y-111650000D03*
X97600000Y-68800000D03*
X76355000Y-104155000D03*
X72885000Y-115420000D03*
X93670000Y-100510000D03*
X108810000Y-115650000D03*
X100090000Y-102130000D03*
X100051993Y-99731993D03*
X107320000Y-91320000D03*
X92060000Y-95710000D03*
X103271992Y-93311992D03*
X90100000Y-64450000D03*
X102700000Y-68700000D03*
X102470408Y-102119592D03*
X96870000Y-93320000D03*
X64300000Y-110070000D03*
X77601500Y-82095000D03*
X89100000Y-73100000D03*
X108890000Y-112892500D03*
X75570000Y-127170000D03*
X100060000Y-118320000D03*
X105350000Y-114660000D03*
X93350000Y-72916585D03*
X105430000Y-120120000D03*
X64310000Y-110600000D03*
X100029000Y-114010000D03*
X106440000Y-113430000D03*
X93666992Y-98116992D03*
X86050000Y-118300000D03*
X75450000Y-110635000D03*
X84100000Y-121300000D03*
X66290000Y-123110000D03*
X100840000Y-70120000D03*
X105990000Y-101620000D03*
X92080000Y-101300000D03*
X90050000Y-88980000D03*
X85600000Y-82300000D03*
X64090000Y-125860000D03*
X68200000Y-63800000D03*
X69290000Y-97935000D03*
X97750000Y-111220000D03*
X100890000Y-101290000D03*
X67550000Y-61100000D03*
X76125000Y-111535000D03*
X74690000Y-98060000D03*
X84100000Y-64450000D03*
X105990000Y-102440000D03*
X98486992Y-98096992D03*
X107330000Y-96990000D03*
X61330000Y-105030000D03*
X88820000Y-80710000D03*
X67200000Y-66400000D03*
X87730000Y-82130000D03*
X68350000Y-114700000D03*
X88600000Y-79600000D03*
X101680000Y-99720000D03*
X98030000Y-108040000D03*
X96090407Y-101339593D03*
X105650000Y-73200000D03*
X74600000Y-62400000D03*
X69015000Y-99335000D03*
X72890000Y-125860000D03*
X83000000Y-121300000D03*
X98460000Y-102910000D03*
X105060000Y-122187500D03*
X106700000Y-75850000D03*
X101550000Y-119670000D03*
X102910000Y-119660000D03*
X73355000Y-105155000D03*
X74600000Y-64800000D03*
X90760000Y-109100000D03*
X103280000Y-102930000D03*
X91250000Y-119700000D03*
X76355000Y-103155000D03*
X91250000Y-120500000D03*
X101680000Y-96510000D03*
X88980000Y-119770000D03*
X86930000Y-78870000D03*
X74600000Y-61600000D03*
X87950000Y-116680000D03*
X89540000Y-98250000D03*
X101000000Y-74516585D03*
X89100000Y-77000000D03*
X78275000Y-126710000D03*
X101820000Y-81815000D03*
X96100000Y-102140000D03*
X85290000Y-83460000D03*
X71515000Y-112335000D03*
X71890000Y-110850000D03*
X94480000Y-102120000D03*
X87100000Y-64450000D03*
X96870000Y-96500000D03*
X64090000Y-120360000D03*
X66450000Y-61290000D03*
X77601500Y-82915000D03*
X74690000Y-96935000D03*
X98451993Y-99731993D03*
X88730000Y-95710000D03*
X105430000Y-120940000D03*
X99209000Y-114010000D03*
X105700000Y-72200000D03*
X95270000Y-102110000D03*
X88600000Y-74000000D03*
X64990000Y-109920000D03*
X91000000Y-121300000D03*
X98660000Y-122187500D03*
X69035000Y-122555000D03*
X74355000Y-104155000D03*
X74540000Y-82095000D03*
X96870000Y-94920000D03*
X104910000Y-89450000D03*
X93671992Y-101311992D03*
X64090000Y-121460000D03*
X87950000Y-117500000D03*
X92860000Y-102140000D03*
X104040000Y-103720000D03*
X75355000Y-103155000D03*
X61360000Y-103340000D03*
X101655408Y-101304592D03*
X93650000Y-102920000D03*
X80180000Y-105562500D03*
X83145000Y-80205000D03*
X71700000Y-115590000D03*
X76125000Y-110635000D03*
X94440000Y-102910000D03*
X84650000Y-121300000D03*
X106700000Y-81250000D03*
X71590000Y-110110000D03*
X102480000Y-99710000D03*
X69285000Y-108035000D03*
X98486993Y-96496993D03*
X74540000Y-82915000D03*
X74060000Y-87430000D03*
X73355000Y-103155000D03*
X95266993Y-93316993D03*
X98466993Y-101316993D03*
X99240000Y-118320000D03*
X70870000Y-70220000D03*
X95690000Y-109220000D03*
X71590000Y-81995000D03*
X85720000Y-99130000D03*
X88160000Y-96820000D03*
X69040000Y-97185000D03*
X66860000Y-117260000D03*
X98520000Y-103740000D03*
X84080000Y-120040000D03*
X96881992Y-98101992D03*
X88760000Y-118360000D03*
X102900000Y-121250000D03*
X94360000Y-76530000D03*
X75990000Y-96935000D03*
X100091993Y-101291993D03*
X87120000Y-118430000D03*
X88600000Y-77800000D03*
X106870000Y-93730000D03*
X102465407Y-93314593D03*
X85600000Y-64450000D03*
X92900000Y-101300000D03*
X88600000Y-76100000D03*
X101656993Y-93326993D03*
X88600000Y-72200000D03*
X95254492Y-99729492D03*
X93690000Y-99715000D03*
X100041992Y-93341992D03*
X66200000Y-64600000D03*
X91300000Y-92545000D03*
X64320000Y-114350000D03*
X74355000Y-103155000D03*
X74600000Y-64000000D03*
X101700000Y-100520000D03*
X72890000Y-119260000D03*
X75450000Y-111535000D03*
X105700000Y-74200000D03*
X96866992Y-99716992D03*
X82975000Y-121875000D03*
X74355000Y-105155000D03*
X64090000Y-124760000D03*
X66290000Y-122010000D03*
X101920000Y-70120000D03*
X82600000Y-64500000D03*
X64980000Y-111580000D03*
X108710000Y-122290000D03*
X64090000Y-119260000D03*
X102720000Y-61100000D03*
X69590000Y-122010000D03*
X92866993Y-103716993D03*
X101240000Y-120120000D03*
X93656992Y-96526992D03*
X95870000Y-119570000D03*
X106400000Y-79900000D03*
X92700000Y-109020000D03*
X106400000Y-77600000D03*
X83550000Y-121300000D03*
X68225000Y-66425000D03*
X61090000Y-125860000D03*
X75790000Y-109910000D03*
X86790000Y-119740000D03*
X90470000Y-100510000D03*
X93420000Y-74516585D03*
X69370000Y-83355000D03*
X90456993Y-103726993D03*
X100070000Y-96500000D03*
X81760000Y-87500000D03*
X96865408Y-102914592D03*
X75355000Y-104155000D03*
X95870000Y-111220000D03*
X103250000Y-98120000D03*
X101680000Y-98110000D03*
X88600000Y-64450000D03*
X91100000Y-121950000D03*
X98481993Y-94901993D03*
G04 #@! TO.N,VDD_USB*
X104890000Y-95695000D03*
X79220000Y-104562500D03*
X104930000Y-93155000D03*
G04 #@! TO.N,VDDA*
X70245000Y-106235000D03*
G04 #@! TO.N,3V3*
X71100000Y-60700000D03*
X73700000Y-112700000D03*
X79665000Y-82575000D03*
X74790000Y-112100000D03*
X70245000Y-108035000D03*
X78580000Y-120010000D03*
X75460000Y-85925000D03*
X75570000Y-125510000D03*
X76725000Y-126710000D03*
X102320000Y-61680000D03*
X71700000Y-60700000D03*
X74790000Y-112700000D03*
X74570000Y-85915000D03*
X73700000Y-112100000D03*
X71100000Y-83375000D03*
X74195000Y-107395000D03*
X74250000Y-112100000D03*
X103080000Y-108050000D03*
X74250000Y-112700000D03*
X78400000Y-85915000D03*
X77330000Y-118050000D03*
X74250000Y-111500000D03*
X75570000Y-126270000D03*
X77590000Y-122350000D03*
X71640000Y-85905000D03*
X77600000Y-120500000D03*
X70500000Y-60700000D03*
X76410000Y-125540000D03*
X74790000Y-111500000D03*
X79290000Y-85925000D03*
X69900000Y-60700000D03*
X82220000Y-85925000D03*
X77570000Y-125340000D03*
X73700000Y-111500000D03*
X71800000Y-83375000D03*
G04 #@! TO.N,VIN*
X90300000Y-121950000D03*
X104530000Y-120120000D03*
X63710000Y-112510000D03*
X104530000Y-120970000D03*
X74925000Y-99400000D03*
X74400000Y-100615000D03*
X72465000Y-101160000D03*
X90300000Y-121400000D03*
X99370000Y-120620000D03*
X94020000Y-119550000D03*
X74475000Y-99825000D03*
X79220000Y-105562500D03*
X85500000Y-120100000D03*
X75500000Y-108600000D03*
X90350000Y-120500000D03*
X71590000Y-108560000D03*
X85500000Y-121950000D03*
X105652500Y-108980000D03*
X70245000Y-105335000D03*
X72015000Y-100785000D03*
X70565000Y-99335000D03*
X85500000Y-121375000D03*
X75750000Y-108100000D03*
X85500000Y-120775000D03*
X76050000Y-108575000D03*
X98850000Y-120610000D03*
X90350000Y-119700000D03*
X72955000Y-107455000D03*
G04 #@! TO.N,VTT_DDR*
X90050000Y-74000000D03*
X70015000Y-102335000D03*
X90050000Y-75050000D03*
X90050000Y-76100000D03*
G04 #@! TO.N,VREF_DDR*
X104860000Y-91680000D03*
X104450000Y-78390000D03*
X93110000Y-75316585D03*
X70245000Y-103535000D03*
G04 #@! TO.N,VDD_DDR*
X92980000Y-80100000D03*
X95140000Y-75690000D03*
X106700000Y-74950000D03*
X101780000Y-80916585D03*
X99266993Y-93316993D03*
X93540000Y-69190000D03*
X89200000Y-70350000D03*
X99150000Y-77290000D03*
X94371992Y-70911992D03*
X70800000Y-96400000D03*
X102800000Y-75370000D03*
X101920000Y-71296585D03*
X99850000Y-66900000D03*
X100851993Y-93331993D03*
X85600000Y-81400000D03*
X70015000Y-100835000D03*
X94460000Y-93265000D03*
X100890000Y-72530000D03*
X98440000Y-74920000D03*
X88820000Y-81610000D03*
X73675000Y-100900000D03*
X86930000Y-79770000D03*
X102780000Y-71291585D03*
X70175000Y-96400000D03*
X99950000Y-70110000D03*
X92850000Y-93300000D03*
X85200000Y-84250000D03*
X102700000Y-69600000D03*
X95150000Y-72500000D03*
X96066993Y-93316993D03*
X70490000Y-97185000D03*
X93370000Y-73590000D03*
X106700000Y-82150000D03*
X73300000Y-96400000D03*
X71425000Y-96400000D03*
X101820000Y-79390000D03*
X93540000Y-70920000D03*
X72050000Y-96400000D03*
X97666993Y-93316993D03*
X72675000Y-96400000D03*
X100880000Y-71720000D03*
G04 #@! TO.N,VDD_CORE*
X75600000Y-100935000D03*
X97671993Y-94911993D03*
X97670000Y-98140000D03*
X92880000Y-94890000D03*
X92835000Y-99715000D03*
X94455000Y-101315000D03*
X79500000Y-99000000D03*
X79490000Y-97775000D03*
X96060000Y-96500000D03*
X94440000Y-96500000D03*
X92835000Y-98115000D03*
X79490000Y-97175000D03*
X79489000Y-96575000D03*
X93700000Y-102100000D03*
X92870000Y-96510000D03*
X94465000Y-99715000D03*
X96060000Y-98100000D03*
X94466993Y-98116993D03*
X99264493Y-96519493D03*
X97670000Y-96520000D03*
X100874493Y-94909493D03*
X96076992Y-94906992D03*
X99230000Y-94920000D03*
X79490000Y-98375000D03*
X96061993Y-99721993D03*
X95275407Y-101324593D03*
G04 #@! TO.N,VDD*
X78450000Y-112100000D03*
X77125000Y-107450000D03*
X99256993Y-99726993D03*
X96800000Y-101250000D03*
X86760000Y-102630000D03*
X89680000Y-95725000D03*
X97650000Y-101310000D03*
X91410000Y-108530000D03*
X78990000Y-112100000D03*
X95200000Y-105900000D03*
X94470000Y-94920000D03*
X78450000Y-112700000D03*
X100030000Y-104480000D03*
X96810000Y-111220000D03*
X77900000Y-112100000D03*
X100841992Y-96541992D03*
X94920000Y-111220000D03*
X78950000Y-102880000D03*
X97656992Y-99726992D03*
X93030000Y-111220000D03*
X100861993Y-98121993D03*
X97670000Y-102130000D03*
X103039999Y-106840000D03*
X99270000Y-98130000D03*
X99270000Y-101310000D03*
X100870000Y-99700000D03*
X77900000Y-112700000D03*
X107100000Y-119900000D03*
X77900000Y-111500000D03*
X78450000Y-111500000D03*
X78990000Y-111500000D03*
X108890000Y-111540000D03*
G04 #@! TO.N,NRST*
X104420000Y-116450000D03*
X108530000Y-119110000D03*
X98240000Y-105410000D03*
X99070000Y-116220000D03*
G04 #@! TO.N,I2C1_SDA*
X81750000Y-72200000D03*
X83600000Y-70300000D03*
X91100000Y-66550000D03*
G04 #@! TO.N,I2C1_SCL*
X91600000Y-66950000D03*
X105510000Y-99070000D03*
X109180000Y-96280000D03*
G04 #@! TO.N,Net-(U202-~{PONKEY})*
X70890000Y-103960000D03*
X61380000Y-101652500D03*
G04 #@! TO.N,SDMMC3_CMD*
X89695000Y-102905000D03*
X78630000Y-121030000D03*
G04 #@! TO.N,SDMMC3_D0*
X89650000Y-102130000D03*
X78440000Y-118580000D03*
G04 #@! TO.N,SDMMC3_D1*
X92090000Y-100490000D03*
X78480000Y-119230000D03*
G04 #@! TO.N,SDMMC3_D2*
X92060000Y-99710000D03*
X78300000Y-123370000D03*
G04 #@! TO.N,PWR_ON*
X97800000Y-104750000D03*
X94030000Y-109320000D03*
X77905000Y-101655000D03*
G04 #@! TO.N,/RCC_BOOT_RST_DEBUG/T_JTMS{slash}T_SWDIO*
X92090000Y-93295000D03*
X82700000Y-96650000D03*
G04 #@! TO.N,/RCC_BOOT_RST_DEBUG/T_JCLK{slash}T_SWCLK*
X82100000Y-97100000D03*
X92120000Y-92475000D03*
G04 #@! TO.N,/RCC_BOOT_RST_DEBUG/T_JTDO{slash}T_SWO*
X82150000Y-97950000D03*
X92100000Y-93935000D03*
G04 #@! TO.N,/RCC_BOOT_RST_DEBUG/T_JTDI{slash}NC*
X81550000Y-99400000D03*
X92080000Y-94955000D03*
G04 #@! TO.N,UART4_RX_STM*
X98600000Y-117820000D03*
X107130000Y-94460000D03*
X107560000Y-99510000D03*
X102470000Y-94105000D03*
G04 #@! TO.N,UART4_TX_STM*
X104040000Y-100480000D03*
X98560000Y-118820000D03*
G04 #@! TO.N,USB_D-*
X87675000Y-118800000D03*
X87125000Y-120300000D03*
G04 #@! TO.N,USB_D+*
X87675000Y-120300000D03*
X88225000Y-118800000D03*
G04 #@! TO.N,/DDR/DDR_A9*
X94340000Y-80540000D03*
X94460000Y-91650000D03*
G04 #@! TO.N,PMIC_PA0_WKUP_INTR*
X101675000Y-102900000D03*
X77905000Y-101005000D03*
G04 #@! TO.N,/DDR/DDR_DQ1*
X95136993Y-71736993D03*
X89860000Y-87790000D03*
G04 #@! TO.N,SDMMC1_D1*
X70390000Y-72565000D03*
X87700000Y-95600000D03*
G04 #@! TO.N,uSD_DETECT*
X81340000Y-83440000D03*
X74707500Y-71192500D03*
G04 #@! TO.N,/DDR/DDR_DQ4*
X99960000Y-70920000D03*
X94080000Y-88240000D03*
G04 #@! TO.N,/DDR/DDR_A7*
X93350000Y-81280000D03*
X92850000Y-91580000D03*
G04 #@! TO.N,/DDR/DDR_DQ7*
X96137400Y-70296585D03*
X89940000Y-88390000D03*
G04 #@! TO.N,/DDR/DDR_A5*
X94390000Y-79740000D03*
X95290000Y-91690000D03*
G04 #@! TO.N,/DDR/DDR_A4*
X101330000Y-80500000D03*
X100842400Y-90891585D03*
G04 #@! TO.N,SDMMC1_D0*
X70350000Y-73700000D03*
X91230000Y-95740000D03*
G04 #@! TO.N,/DDR/DDR_BA0*
X94350000Y-78070000D03*
X94740000Y-89090000D03*
G04 #@! TO.N,/DDR/DDR_A1*
X99127400Y-79716585D03*
X98467400Y-91716585D03*
G04 #@! TO.N,/DDR/DDR_A6*
X101420000Y-81360000D03*
X100092400Y-91691585D03*
G04 #@! TO.N,SDMMC1_D2*
X92070000Y-96500000D03*
X70390000Y-80265000D03*
G04 #@! TO.N,/DDR/DDR_DQ6*
X98307400Y-72586585D03*
X92530000Y-88290000D03*
G04 #@! TO.N,/DDR/DDR_WEN*
X95990000Y-77290000D03*
X96857400Y-91706585D03*
G04 #@! TO.N,/DDR/DDR_A14*
X100017400Y-90916585D03*
X100790000Y-82940000D03*
G04 #@! TO.N,/DDR/DDR_DQM0*
X96150000Y-72580000D03*
X90470000Y-88380000D03*
G04 #@! TO.N,/DDR/DDR_RASN*
X97627400Y-90096585D03*
X95980000Y-75680000D03*
G04 #@! TO.N,/DDR/DDR_A0*
X95150000Y-78870000D03*
X95240000Y-90090000D03*
G04 #@! TO.N,SYS_I2C4_SCL*
X103270000Y-96550000D03*
X84600000Y-100650000D03*
X75990000Y-100535000D03*
G04 #@! TO.N,/DDR/DDR_DQ2*
X93060000Y-88280000D03*
X99167400Y-70136585D03*
G04 #@! TO.N,/DDR/DDR_DQS0_P*
X98110000Y-71080000D03*
X91250000Y-89330000D03*
G04 #@! TO.N,/DDR/DDR_RESETN*
X94030000Y-92000000D03*
X97600000Y-87730000D03*
G04 #@! TO.N,/DDR/DDR_CSN*
X95157400Y-77326585D03*
X96037400Y-90906585D03*
G04 #@! TO.N,/DDR/DDR_A13*
X92420000Y-82120000D03*
X93580000Y-91690000D03*
G04 #@! TO.N,/DDR/DDR_DQS0_N*
X90790000Y-89100000D03*
X98093293Y-70563293D03*
G04 #@! TO.N,/DDR/DDR_CLK_N*
X99110000Y-76510000D03*
X97392400Y-89050000D03*
G04 #@! TO.N,/DDR/DDR_DQ3*
X94347400Y-70106585D03*
X89300000Y-87300000D03*
G04 #@! TO.N,/DDR/DDR_A10*
X98842400Y-89191585D03*
X99187400Y-78136585D03*
G04 #@! TO.N,/DDR/DDR_A3*
X94390000Y-78890000D03*
X94490000Y-90090000D03*
G04 #@! TO.N,SYS_I2C4_SDA*
X102430000Y-95785000D03*
X76390000Y-100935000D03*
X85600000Y-100250000D03*
G04 #@! TO.N,/DDR/DDR_CASN*
X96867400Y-90886585D03*
X95990000Y-76500000D03*
G04 #@! TO.N,SDMMC1_CMD*
X86500000Y-97050000D03*
X70390000Y-78065000D03*
G04 #@! TO.N,/DDR/DDR_A8*
X102030000Y-82450000D03*
X101667400Y-91716585D03*
G04 #@! TO.N,/DDR/DDR_ODT*
X95490000Y-89090000D03*
X94367400Y-77316585D03*
G04 #@! TO.N,/DDR/DDR_A12*
X98477400Y-90916585D03*
X99165000Y-78915000D03*
G04 #@! TO.N,/DDR/DDR_A11*
X99267400Y-90091585D03*
X99890000Y-82760000D03*
G04 #@! TO.N,SDMMC1_CK*
X70390000Y-75865000D03*
X91250000Y-97325000D03*
G04 #@! TO.N,/DDR/DDR_CLK_P*
X97942400Y-89050000D03*
X98440000Y-76520000D03*
G04 #@! TO.N,/DDR/DDR_BA2*
X95137400Y-78086585D03*
X96027400Y-91756585D03*
G04 #@! TO.N,/DDR/DDR_DQ5*
X93570000Y-88260000D03*
X99987400Y-71696585D03*
G04 #@! TO.N,/DDR/DDR_CKE*
X101800000Y-77550001D03*
X100517400Y-89060000D03*
G04 #@! TO.N,/DDR/DDR_DQ0*
X94390000Y-71690000D03*
X89460000Y-92040000D03*
G04 #@! TO.N,/DDR/DDR_BA1*
X100900000Y-79660000D03*
X99292400Y-90916585D03*
G04 #@! TO.N,SDMMC1_D3*
X90450000Y-95735000D03*
X81750000Y-86900000D03*
X70390000Y-79165000D03*
X73580000Y-86800000D03*
G04 #@! TO.N,/DDR/DDR_A2*
X95240000Y-90940000D03*
X95140000Y-79740000D03*
G04 #@! TO.N,PMIC_WAKEUP*
X97700000Y-102950000D03*
X79570000Y-101490000D03*
G04 #@! TO.N,SDMMC3_D3*
X78330000Y-124260000D03*
X90480000Y-102120000D03*
G04 #@! TO.N,SDMMC3_CK*
X89260000Y-103350000D03*
X77350000Y-121580000D03*
G04 #@! TO.N,UART8_TX_STM*
X66850000Y-126400000D03*
X90420000Y-104560000D03*
G04 #@! TO.N,UART8_RX_STM*
X91280000Y-102100000D03*
X67390000Y-127730000D03*
G04 #@! TO.N,UART8_CTS_STM*
X88760000Y-111310000D03*
X65750000Y-126400000D03*
X92870000Y-104510000D03*
G04 #@! TO.N,UART8_RTS_STM*
X92080000Y-102900000D03*
X66280000Y-127720000D03*
G04 #@! TO.N,2V8*
X79850000Y-67300000D03*
X92650000Y-67000000D03*
X70245000Y-109010000D03*
G04 #@! TO.N,unconnected-(C214-Pad2)*
X70245000Y-104435000D03*
G04 #@! TO.N,1V8*
X99210000Y-61700000D03*
X70245000Y-107135000D03*
X98000000Y-65900000D03*
X80650000Y-67300000D03*
X105460000Y-61830000D03*
G04 #@! TO.N,Net-(J501-VDD)*
X70100000Y-76965000D03*
X70650000Y-76965000D03*
G04 #@! TO.N,Net-(D601-K)*
X101810000Y-105440000D03*
X103100000Y-109050000D03*
G04 #@! TO.N,Net-(D602-K)*
X102200000Y-109070000D03*
X100870000Y-104430000D03*
G04 #@! TO.N,DSI_CK_P*
X87515545Y-81075545D03*
X85985000Y-83470000D03*
G04 #@! TO.N,DSI_CK_N*
X87904455Y-81464455D03*
X86535000Y-83470000D03*
G04 #@! TO.N,/MPU_PWR/VDDA*
X98470000Y-102110000D03*
X99310000Y-102960000D03*
X101320000Y-104820000D03*
G04 #@! TO.N,I2S2_SDI*
X92080000Y-97310000D03*
G04 #@! TO.N,I2S2_WS*
X92080000Y-98120000D03*
G04 #@! TO.N,I2S2_CK*
X91250000Y-98100000D03*
G04 #@! TO.N,I2S3_SDO*
X69030000Y-126390000D03*
X88900000Y-98620000D03*
G04 #@! TO.N,I2S3_CK*
X70140000Y-125320000D03*
X88460000Y-99070000D03*
G04 #@! TO.N,I2S3_SDI*
X90480000Y-98120000D03*
X70130000Y-126410000D03*
G04 #@! TO.N,I2S3_WS*
X91280000Y-99690000D03*
X69040000Y-125320000D03*
G04 #@! TO.N,USB_M_D+*
X101230000Y-120720000D03*
X102120000Y-120770000D03*
X101980000Y-120130000D03*
G04 #@! TO.N,USB_M_D-*
X101240000Y-121290000D03*
X102530000Y-120130000D03*
X102110000Y-121290000D03*
G04 #@! TO.N,UART7_RX_STM*
X108890000Y-100550000D03*
X107630000Y-105940000D03*
X102460000Y-97310000D03*
G04 #@! TO.N,UART7_TX_STM*
X109130000Y-108060000D03*
X102430000Y-96460000D03*
X105700000Y-99710000D03*
X108880000Y-102110000D03*
G04 #@! TO.N,SYS_I2C6_SCL*
X107320000Y-100700000D03*
X104070000Y-91720000D03*
X107270000Y-103070000D03*
X105660000Y-106970000D03*
G04 #@! TO.N,SYS_I2C6_SDA*
X105960000Y-100730000D03*
X103270000Y-92520000D03*
G04 #@! TO.N,FDCAN2_TX*
X105370000Y-100910000D03*
X101700000Y-94930000D03*
G04 #@! TO.N,FDCAN2_RX*
X104070000Y-101320000D03*
G04 #@! TO.N,ETH1_TXD1*
X102460000Y-98090000D03*
G04 #@! TO.N,ETH1_CRS_DV*
X102470000Y-100520000D03*
G04 #@! TO.N,ETH1_TXD0*
X103270000Y-103700000D03*
G04 #@! TO.N,ETH1_RXD1*
X104050000Y-102090000D03*
G04 #@! TO.N,ETH1_MDC*
X104040000Y-102940000D03*
G04 #@! TO.N,ETH1_REF_CLK*
X103270000Y-102100000D03*
G04 #@! TO.N,SPI5_SCK*
X105430000Y-98140000D03*
G04 #@! TO.N,SPI5_MISO*
X103250000Y-97290000D03*
G04 #@! TO.N,SPI5_MOSI*
X109320000Y-105980000D03*
X108880000Y-101370000D03*
X105760000Y-97730000D03*
G04 #@! TO.N,Net-(U202-~{RST})*
X97780000Y-115560000D03*
X77300000Y-100970000D03*
X91500000Y-109660000D03*
G04 #@! TO.N,Net-(U901A-CONFIG0)*
X71500000Y-120400000D03*
G04 #@! TO.N,/LCD/LED_A*
X76100000Y-67500000D03*
X68900000Y-67500000D03*
G04 #@! TO.N,/LCD/TP_INT*
X97760000Y-64000000D03*
G04 #@! TO.N,/LCD/RESET*
X105470000Y-64320000D03*
X81200000Y-66600000D03*
G04 #@! TO.N,/LCD/LED_K*
X78800000Y-66600000D03*
X69674999Y-61585343D03*
G04 #@! TO.N,/LCD/TP_RES*
X98570000Y-64510000D03*
G04 #@! TO.N,LCD_RST*
X109150000Y-95500000D03*
X105085000Y-98565000D03*
G04 #@! TO.N,LCD_TP_INTR*
X108450000Y-94450000D03*
X105750000Y-96850000D03*
G04 #@! TO.N,LCD_BL_PWM*
X65500000Y-66400000D03*
X104050000Y-97350000D03*
G04 #@! TO.N,Net-(U1001-FB)*
X69000000Y-61600000D03*
X67130000Y-62324999D03*
G04 #@! TO.N,LCD_TP_RST*
X108350000Y-93600000D03*
X104050000Y-96500000D03*
G04 #@! TO.N,1V8_WIFI*
X66900000Y-110510000D03*
X74200000Y-115500000D03*
X67500000Y-111100000D03*
X73800000Y-114900000D03*
X66900000Y-111100000D03*
X73990000Y-119260000D03*
X73500000Y-118800000D03*
X73850000Y-116600000D03*
X69940000Y-114500000D03*
G04 #@! TO.N,1V8_WIFI_EN*
X88300000Y-111980000D03*
X63620000Y-113350000D03*
X92870000Y-102910000D03*
G04 #@! TO.N,WIFI_PDn*
X83570000Y-105760000D03*
X89680000Y-100510000D03*
G04 #@! TO.N,Net-(U901A-PDN)*
X64680000Y-120880000D03*
X65330000Y-116610000D03*
G04 #@! TO.N,WLAN_WAKE_HOST*
X75360000Y-115890000D03*
X67250000Y-124000000D03*
G04 #@! TO.N,BT_WAKE_HOST*
X70870000Y-124040000D03*
X79200000Y-124800000D03*
G04 #@! TO.N,BT_RESET*
X88630000Y-101700000D03*
X75490000Y-114610000D03*
X65740000Y-124140000D03*
X91230000Y-101380000D03*
G04 #@! TO.N,WLAN_RESET*
X75700000Y-115400000D03*
X90540000Y-102880000D03*
X89620000Y-104500000D03*
X66640000Y-124000000D03*
G04 #@! TO.N,WLAN_DEV_WAKE*
X65720000Y-125310000D03*
X87780000Y-101010000D03*
X76390000Y-114180000D03*
X91310000Y-100520000D03*
G04 #@! TO.N,MOD_ADC9{slash}TIM3_CH3*
X105410000Y-107990000D03*
G04 #@! TO.N,Net-(U301A-VBAT)*
X95260000Y-102920000D03*
X90580000Y-105980000D03*
G04 #@! TO.N,Net-(U301A-VREF+)*
X100090000Y-103740000D03*
G04 #@! TO.N,Net-(U301A-VDD1V2_DSI_PHY)*
X90450000Y-92595000D03*
G04 #@! TO.N,Net-(U301A-VDDA1V1_REG)*
X104060000Y-95735000D03*
G04 #@! TO.N,Net-(U301A-VDDA1V8_DSI)*
X91250000Y-94915000D03*
X103250000Y-95735000D03*
G04 #@! TO.N,Net-(U301E-NRST_CORE)*
X96080000Y-103730000D03*
G04 #@! TO.N,Net-(U301C-PA4)*
X101675000Y-102100000D03*
X99550000Y-111200000D03*
X88300000Y-112720000D03*
G04 #@! TO.N,Net-(U301C-PA5)*
X99000000Y-110700000D03*
X100875000Y-102125000D03*
X90900000Y-114600000D03*
G04 #@! TO.N,Net-(U301E-BOOT0)*
X96870000Y-103720000D03*
G04 #@! TO.N,Net-(U301E-BOOT1)*
X96890000Y-102070000D03*
G04 #@! TO.N,Net-(U301E-BOOT2)*
X97680000Y-103700000D03*
G04 #@! TO.N,Net-(U301E-PWR_LP)*
X100470000Y-105020000D03*
G04 #@! TD*
D15*
G04 #@! TO.N,3V3*
X74195000Y-107395000D02*
X74195000Y-111540000D01*
X74195000Y-111540000D02*
X74290000Y-111635000D01*
G04 #@! TO.N,VDD_CORE*
X75600000Y-100935000D02*
X75595000Y-100935000D01*
G04 #@! TO.N,VDD*
X78105000Y-103755000D02*
X78105000Y-108355000D01*
X77990000Y-109160000D02*
X77990000Y-111635000D01*
X78950000Y-102880000D02*
X78950000Y-102910000D01*
X78490000Y-108740000D02*
X78490000Y-111635000D01*
X77125000Y-107450000D02*
X77100000Y-107475000D01*
X78950000Y-102910000D02*
X78105000Y-103755000D01*
X77100000Y-107475000D02*
X77100000Y-108270000D01*
X77100000Y-108270000D02*
X77990000Y-109160000D01*
X78105000Y-108355000D02*
X78490000Y-108740000D01*
D16*
G04 #@! TO.N,NRST*
X99070000Y-116030000D02*
X99070000Y-116220000D01*
X105870000Y-116450000D02*
X108530000Y-119110000D01*
X98500000Y-115460000D02*
X99070000Y-116030000D01*
X98500000Y-115460000D02*
X98500000Y-105660000D01*
X98500000Y-105660000D02*
X98250000Y-105410000D01*
X98250000Y-105410000D02*
X98240000Y-105410000D01*
X104420000Y-116450000D02*
X105870000Y-116450000D01*
G04 #@! TO.N,I2C1_SDA*
X83600000Y-70300000D02*
X83600000Y-70350000D01*
X83600000Y-70350000D02*
X81750000Y-72200000D01*
X90800000Y-66850000D02*
X91100000Y-66550000D01*
X83650000Y-70300000D02*
X87100000Y-66850000D01*
X87100000Y-66850000D02*
X90800000Y-66850000D01*
X83600000Y-70300000D02*
X83650000Y-70300000D01*
G04 #@! TO.N,I2C1_SCL*
X107205001Y-98124999D02*
X106260000Y-99070000D01*
X107795001Y-98124999D02*
X107205001Y-98124999D01*
X106260000Y-99070000D02*
X105510000Y-99070000D01*
X109160000Y-96760000D02*
X107795001Y-98124999D01*
X109180000Y-96280000D02*
X109160000Y-96300000D01*
X109160000Y-96300000D02*
X109160000Y-96760000D01*
G04 #@! TO.N,Net-(U202-~{PONKEY})*
X61380000Y-101935000D02*
X63405000Y-103960000D01*
X70890000Y-103960000D02*
X63405000Y-103960000D01*
X61380000Y-101652500D02*
X61380000Y-101935000D01*
G04 #@! TO.N,SDMMC3_CMD*
X83860000Y-111127604D02*
X84236749Y-111127604D01*
X84476748Y-112087604D02*
X84476748Y-111967604D01*
X83860000Y-113527604D02*
X84236749Y-113527604D01*
D17*
X85032950Y-103797623D02*
X84943854Y-103886718D01*
X84142029Y-104688613D02*
X84052933Y-104777708D01*
X87255000Y-102905000D02*
X86945000Y-103215000D01*
D16*
X83620000Y-112687604D02*
X83620000Y-112567604D01*
X83860000Y-112327604D02*
X84236748Y-112327604D01*
X83620000Y-111487604D02*
X83620000Y-111367604D01*
X84476749Y-110887604D02*
X84476749Y-110767604D01*
D17*
X85834843Y-103352180D02*
X86143139Y-103660476D01*
X86054045Y-104105954D02*
X86054045Y-104105955D01*
X85697663Y-104105955D02*
X85389331Y-103797623D01*
D16*
X84236749Y-109327604D02*
X83860000Y-109327604D01*
X84236749Y-112927604D02*
X83860000Y-112927604D01*
X84236748Y-111727604D02*
X83860000Y-111727604D01*
D17*
X83395000Y-115585000D02*
X78950000Y-120030000D01*
X85163090Y-104996909D02*
X85163090Y-104996910D01*
D16*
X84476749Y-113287604D02*
X84476749Y-113167604D01*
X83620000Y-109087604D02*
X83620000Y-108967604D01*
D17*
X78950000Y-120710000D02*
X78630000Y-121030000D01*
D16*
X83395000Y-115585000D02*
X83620000Y-115360000D01*
X83620000Y-106540000D02*
X84090000Y-106070000D01*
D17*
X84943854Y-104243100D02*
X85252185Y-104551431D01*
D16*
X83620000Y-108671899D02*
X83620000Y-106540000D01*
D17*
X84052933Y-105134090D02*
X84361229Y-105442386D01*
D16*
X83860000Y-109927604D02*
X84236749Y-109927604D01*
X84236749Y-110527604D02*
X83860000Y-110527604D01*
X83620000Y-108967604D02*
X83620000Y-108671899D01*
X83620000Y-115360000D02*
X83620000Y-113767604D01*
D17*
X84272135Y-105887864D02*
X84090000Y-106070000D01*
X84806708Y-104996910D02*
X84498411Y-104688613D01*
X78950000Y-120030000D02*
X78950000Y-120710000D01*
X85252185Y-104907812D02*
X85163090Y-104996909D01*
X85923939Y-102906703D02*
X85834843Y-102995798D01*
D16*
X83620000Y-110287604D02*
X83620000Y-110167604D01*
D17*
X89695000Y-102905000D02*
X87255000Y-102905000D01*
D16*
X84476749Y-109687604D02*
X84476749Y-109567604D01*
D17*
X86588618Y-103215000D02*
X86280321Y-102906703D01*
X86143139Y-104016858D02*
X86054045Y-104105954D01*
X84361229Y-105798768D02*
X84272135Y-105887864D01*
D16*
X84236749Y-109927604D02*
G75*
G03*
X84476804Y-109687604I51J240004D01*
G01*
X83620000Y-113767604D02*
G75*
G02*
X83860000Y-113527600I240000J4D01*
G01*
X84236749Y-113527604D02*
G75*
G03*
X84476804Y-113287604I51J240004D01*
G01*
D17*
X84943854Y-103886718D02*
G75*
G03*
X84943863Y-104243091I178146J-178182D01*
G01*
D16*
X83620000Y-111367604D02*
G75*
G02*
X83860000Y-111127600I240000J4D01*
G01*
X84476749Y-110767604D02*
G75*
G03*
X84236749Y-110527651I-239949J4D01*
G01*
D17*
X86945000Y-103215000D02*
G75*
G02*
X86588618Y-103215000I-178191J178191D01*
G01*
X85389331Y-103797623D02*
G75*
G03*
X85032951Y-103797623I-178190J-178190D01*
G01*
D16*
X83860000Y-111727604D02*
G75*
G02*
X83619996Y-111487604I0J240004D01*
G01*
X83620000Y-110167604D02*
G75*
G02*
X83860000Y-109927600I240000J4D01*
G01*
X84236749Y-111127604D02*
G75*
G03*
X84476804Y-110887604I51J240004D01*
G01*
D17*
X86054045Y-104105955D02*
G75*
G02*
X85697663Y-104105955I-178191J178191D01*
G01*
D16*
X84476749Y-109567604D02*
G75*
G03*
X84236749Y-109327651I-239949J4D01*
G01*
D17*
X84052933Y-104777708D02*
G75*
G03*
X84052932Y-105134091I178167J-178192D01*
G01*
D16*
X84476748Y-111967604D02*
G75*
G03*
X84236748Y-111727552I-240048J4D01*
G01*
X84476749Y-113167604D02*
G75*
G03*
X84236749Y-112927651I-239949J4D01*
G01*
D17*
X86280321Y-102906703D02*
G75*
G03*
X85923939Y-102906703I-178191J-178191D01*
G01*
X85252185Y-104551431D02*
G75*
G02*
X85252164Y-104907790I-178185J-178169D01*
G01*
X85834843Y-102995798D02*
G75*
G03*
X85834832Y-103352191I178157J-178202D01*
G01*
D16*
X83860000Y-109327604D02*
G75*
G02*
X83619996Y-109087604I0J240004D01*
G01*
D17*
X84498411Y-104688613D02*
G75*
G03*
X84142029Y-104688613I-178191J-178191D01*
G01*
X85163090Y-104996910D02*
G75*
G02*
X84806708Y-104996910I-178191J178191D01*
G01*
X84361229Y-105442386D02*
G75*
G02*
X84361252Y-105798791I-178229J-178214D01*
G01*
X86143139Y-103660476D02*
G75*
G02*
X86143172Y-104016891I-178239J-178224D01*
G01*
D16*
X83860000Y-110527604D02*
G75*
G02*
X83619996Y-110287604I0J240004D01*
G01*
X84236748Y-112327604D02*
G75*
G03*
X84476704Y-112087604I-48J240004D01*
G01*
X83860000Y-112927604D02*
G75*
G02*
X83619996Y-112687604I0J240004D01*
G01*
X83620000Y-112567604D02*
G75*
G02*
X83860000Y-112327600I240000J4D01*
G01*
G04 #@! TO.N,SDMMC3_D0*
X81056974Y-116072438D02*
X81438812Y-116454276D01*
X80208445Y-116581556D02*
X80208444Y-116581556D01*
X86809808Y-101060000D02*
X86929808Y-101060000D01*
X81990359Y-114799644D02*
X81905505Y-114884496D01*
X89650000Y-102130000D02*
X89070000Y-102130000D01*
X88060000Y-102130000D02*
X87870000Y-102130000D01*
X81056975Y-115733026D02*
X81056974Y-115733026D01*
X82950000Y-113840000D02*
X82754034Y-114035966D01*
X79317488Y-118575600D02*
X78935651Y-118193763D01*
X81141829Y-115648174D02*
X81056975Y-115733026D01*
X78440000Y-118350000D02*
X78440000Y-118580000D01*
X87409808Y-102130000D02*
X87529808Y-102130000D01*
X88660000Y-102540000D02*
X88470000Y-102540000D01*
X81014548Y-116878540D02*
X80632711Y-116496703D01*
X80590281Y-117642218D02*
X80505430Y-117727070D01*
X78596239Y-118193764D02*
X78511385Y-118278616D01*
X86329808Y-102130000D02*
X85900000Y-102130000D01*
X79359915Y-117430086D02*
X79359914Y-117430086D01*
X79359914Y-117769498D02*
X79741752Y-118151336D01*
X87870000Y-102130000D02*
X87530582Y-102130000D01*
X82287341Y-115945158D02*
X82202490Y-116030010D01*
X80293299Y-116496704D02*
X80208445Y-116581556D01*
X82754034Y-114375378D02*
X83135872Y-114757216D01*
X78511385Y-118278616D02*
X78440000Y-118350000D01*
X80208444Y-116920968D02*
X80590282Y-117302806D01*
X82711608Y-115181480D02*
X82329771Y-114799643D01*
X81905504Y-115223908D02*
X82287342Y-115605746D01*
X81863078Y-116030010D02*
X81481241Y-115648173D01*
X79741751Y-118490748D02*
X79656900Y-118575600D01*
X87529808Y-102130000D02*
X87530582Y-102130000D01*
X83135871Y-115096628D02*
X83051020Y-115181480D01*
X80166018Y-117727070D02*
X79784181Y-117345233D01*
X81905505Y-114884496D02*
X81905504Y-114884496D01*
X86569808Y-101890000D02*
X86569808Y-101300000D01*
X87169808Y-101300000D02*
X87169808Y-101890000D01*
X85900000Y-102130000D02*
X82950000Y-105080000D01*
X82950000Y-105080000D02*
X82950000Y-113840000D01*
X81438811Y-116793688D02*
X81353960Y-116878540D01*
X79444769Y-117345234D02*
X79359915Y-117430086D01*
X83135872Y-114757216D02*
G75*
G02*
X83135850Y-115096606I-169672J-169684D01*
G01*
X79741752Y-118151336D02*
G75*
G02*
X79741710Y-118490707I-169752J-169664D01*
G01*
X80590282Y-117302806D02*
G75*
G02*
X80590270Y-117642206I-169682J-169694D01*
G01*
X81353960Y-116878540D02*
G75*
G02*
X81014548Y-116878540I-169706J169701D01*
G01*
X81056974Y-115733026D02*
G75*
G03*
X81057006Y-116072406I169726J-169674D01*
G01*
X79359914Y-117430086D02*
G75*
G03*
X79359906Y-117769506I169686J-169714D01*
G01*
X80632711Y-116496703D02*
G75*
G03*
X80293293Y-116496698I-169711J-169697D01*
G01*
X82202490Y-116030010D02*
G75*
G02*
X81863078Y-116030010I-169706J169701D01*
G01*
X79784181Y-117345233D02*
G75*
G03*
X79444794Y-117345258I-169681J-169667D01*
G01*
X88265000Y-102335000D02*
G75*
G03*
X88060000Y-102130000I-205000J0D01*
G01*
X80505430Y-117727070D02*
G75*
G02*
X80166018Y-117727070I-169706J169701D01*
G01*
X81905504Y-114884496D02*
G75*
G03*
X81905506Y-115223906I169696J-169704D01*
G01*
X88865000Y-102335000D02*
G75*
G02*
X88660000Y-102540000I-205000J0D01*
G01*
X86329808Y-102130000D02*
G75*
G03*
X86569800Y-101890000I-8J240000D01*
G01*
X86929808Y-101060000D02*
G75*
G02*
X87169800Y-101300000I-8J-240000D01*
G01*
X89070000Y-102130000D02*
G75*
G03*
X88865000Y-102335000I0J-205000D01*
G01*
X83051020Y-115181480D02*
G75*
G02*
X82711608Y-115181480I-169706J169701D01*
G01*
X82754034Y-114035966D02*
G75*
G03*
X82754006Y-114375406I169666J-169734D01*
G01*
X78935651Y-118193763D02*
G75*
G03*
X78596194Y-118193718I-169751J-169737D01*
G01*
X88470000Y-102540000D02*
G75*
G02*
X88265000Y-102335000I0J205000D01*
G01*
X79656900Y-118575600D02*
G75*
G02*
X79317488Y-118575600I-169706J169701D01*
G01*
X86569808Y-101300000D02*
G75*
G02*
X86809808Y-101060008I239992J0D01*
G01*
X80208444Y-116581556D02*
G75*
G03*
X80208406Y-116921006I169656J-169744D01*
G01*
X81438812Y-116454276D02*
G75*
G02*
X81438830Y-116793706I-169712J-169724D01*
G01*
X87169808Y-101890000D02*
G75*
G03*
X87409808Y-102129992I239992J0D01*
G01*
X81481241Y-115648173D02*
G75*
G03*
X81141794Y-115648138I-169741J-169727D01*
G01*
X82329771Y-114799643D02*
G75*
G03*
X81990394Y-114799678I-169671J-169657D01*
G01*
X82287342Y-115605746D02*
G75*
G02*
X82287390Y-115945206I-169742J-169754D01*
G01*
D17*
G04 #@! TO.N,SDMMC3_D1*
X79459977Y-116240611D02*
X79193007Y-115973641D01*
X78692855Y-117347145D02*
X78610000Y-117430000D01*
X77890000Y-118800000D02*
X78320000Y-119230000D01*
X79035712Y-117004285D02*
X78950860Y-117089139D01*
X79617264Y-115549368D02*
X79884241Y-115816345D01*
X78610000Y-117430000D02*
X78470000Y-117430000D01*
X80550615Y-114276545D02*
X80465762Y-114361397D01*
X80647918Y-115392081D02*
X80647918Y-115392082D01*
X81314322Y-113852310D02*
X81581299Y-114119287D01*
X79799389Y-116240610D02*
X79799389Y-116240611D01*
X92090000Y-100490000D02*
X91630000Y-100950000D01*
X80732769Y-115307228D02*
X80647918Y-115392081D01*
X78470000Y-117430000D02*
X77890000Y-118010000D01*
X78768743Y-116397905D02*
X79035712Y-116664874D01*
X82005564Y-113695024D02*
X81738586Y-113428046D01*
X77890000Y-118010000D02*
X77890000Y-118800000D01*
X78853596Y-115973641D02*
X78768743Y-116058493D01*
X81157035Y-114543553D02*
X80890027Y-114276545D01*
X89290000Y-100950000D02*
X88850000Y-100510000D01*
X88850000Y-100510000D02*
X86770000Y-100510000D01*
X91630000Y-100950000D02*
X89290000Y-100950000D01*
X81581299Y-114458698D02*
X81496447Y-114543552D01*
X80465762Y-114700809D02*
X80732769Y-114967816D01*
X81496447Y-114543552D02*
X81496447Y-114543553D01*
X79702117Y-115125104D02*
X79617264Y-115209956D01*
X78320000Y-119230000D02*
X78480000Y-119230000D01*
X79884241Y-116155756D02*
X79799389Y-116240610D01*
X86770000Y-100510000D02*
X82380000Y-104900000D01*
X78950860Y-117089139D02*
X78692855Y-117347145D01*
X80308506Y-115392082D02*
X80041528Y-115125104D01*
X82380000Y-113660000D02*
X82344976Y-113695024D01*
X81399175Y-113428046D02*
X81314322Y-113512898D01*
X82380000Y-104900000D02*
X82380000Y-113660000D01*
X81314322Y-113512898D02*
G75*
G03*
X81314326Y-113852306I169678J-169702D01*
G01*
X79884241Y-115816345D02*
G75*
G02*
X79884291Y-116155805I-169741J-169755D01*
G01*
X79799389Y-116240611D02*
G75*
G02*
X79459977Y-116240611I-169706J169704D01*
G01*
X81738586Y-113428046D02*
G75*
G03*
X81399176Y-113428046I-169705J-169703D01*
G01*
X80465762Y-114361397D02*
G75*
G03*
X80465765Y-114700806I169738J-169703D01*
G01*
X78768743Y-116058493D02*
G75*
G03*
X78768742Y-116397906I169657J-169707D01*
G01*
X82344976Y-113695024D02*
G75*
G02*
X82005564Y-113695024I-169706J169704D01*
G01*
X79035712Y-116664874D02*
G75*
G02*
X79035733Y-117004305I-169712J-169726D01*
G01*
X80041528Y-115125104D02*
G75*
G03*
X79702118Y-115125104I-169705J-169703D01*
G01*
X81496447Y-114543553D02*
G75*
G02*
X81157035Y-114543553I-169706J169704D01*
G01*
X80890027Y-114276545D02*
G75*
G03*
X80550615Y-114276545I-169706J-169704D01*
G01*
X79617264Y-115209956D02*
G75*
G03*
X79617226Y-115549406I169736J-169744D01*
G01*
X81581299Y-114119287D02*
G75*
G02*
X81581307Y-114458706I-169699J-169713D01*
G01*
X79193007Y-115973641D02*
G75*
G03*
X78853597Y-115973641I-169705J-169703D01*
G01*
X80732769Y-114967816D02*
G75*
G02*
X80732747Y-115307206I-169669J-169684D01*
G01*
X80647918Y-115392082D02*
G75*
G02*
X80308506Y-115392082I-169706J169704D01*
G01*
G04 #@! TO.N,SDMMC3_D2*
X76790000Y-122130000D02*
X78030000Y-123370000D01*
X78030000Y-123370000D02*
X78300000Y-123370000D01*
X92060000Y-99710000D02*
X92030000Y-99710000D01*
X92030000Y-99710000D02*
X91650000Y-100090000D01*
X81880000Y-104680000D02*
X81880000Y-112350000D01*
X81880000Y-112350000D02*
X76790000Y-117440000D01*
X91650000Y-100090000D02*
X86470000Y-100090000D01*
X76790000Y-117440000D02*
X76790000Y-122130000D01*
X86470000Y-100090000D02*
X81880000Y-104680000D01*
D16*
G04 #@! TO.N,/RCC_BOOT_RST_DEBUG/T_JTMS{slash}T_SWDIO*
X91720000Y-93630000D02*
X85820000Y-93630000D01*
X92055000Y-93295000D02*
X91720000Y-93630000D01*
X85820000Y-93630000D02*
X82800000Y-96650000D01*
X82800000Y-96650000D02*
X82700000Y-96650000D01*
X92035000Y-93295000D02*
X92090000Y-93295000D01*
X92090000Y-93295000D02*
X92055000Y-93295000D01*
G04 #@! TO.N,/RCC_BOOT_RST_DEBUG/T_JCLK{slash}T_SWCLK*
X92105000Y-92475000D02*
X92120000Y-92475000D01*
X91650000Y-92020000D02*
X92105000Y-92475000D01*
X82100000Y-96400000D02*
X85300000Y-93200000D01*
X90280000Y-92020000D02*
X91650000Y-92020000D01*
X85300000Y-93200000D02*
X89100000Y-93200000D01*
X89100000Y-93200000D02*
X90280000Y-92020000D01*
X82100000Y-97100000D02*
X82100000Y-96400000D01*
G04 #@! TO.N,/RCC_BOOT_RST_DEBUG/T_JTDO{slash}T_SWO*
X82150000Y-97920000D02*
X82150000Y-97950000D01*
X85600000Y-94470000D02*
X82150000Y-97920000D01*
X92065000Y-93935000D02*
X92100000Y-93935000D01*
X85600000Y-94470000D02*
X91530000Y-94470000D01*
X91530000Y-94470000D02*
X92065000Y-93935000D01*
X92100000Y-93935000D02*
X92085000Y-93935000D01*
G04 #@! TO.N,/RCC_BOOT_RST_DEBUG/T_JTDI{slash}NC*
X92080000Y-94970000D02*
X91740000Y-95310000D01*
X90460000Y-94900000D02*
X86050000Y-94900000D01*
X91740000Y-95310000D02*
X90870000Y-95310000D01*
X92080000Y-94955000D02*
X92080000Y-95030000D01*
X92080000Y-94955000D02*
X92080000Y-94970000D01*
X86050000Y-94900000D02*
X81550000Y-99400000D01*
X90870000Y-95310000D02*
X90460000Y-94900000D01*
G04 #@! TO.N,UART4_RX_STM*
X107130000Y-94460000D02*
X106260000Y-94460000D01*
X107790000Y-103470000D02*
X107790000Y-102460000D01*
X106730000Y-101400000D02*
X106730000Y-100340000D01*
X107790000Y-102460000D02*
X106730000Y-101400000D01*
X107560000Y-103700000D02*
X107790000Y-103470000D01*
X105520000Y-112430000D02*
X106625000Y-111325000D01*
X98600000Y-117820000D02*
X100470000Y-117820000D01*
X106625000Y-104215000D02*
X107140000Y-103700000D01*
X107140000Y-103700000D02*
X107560000Y-103700000D01*
X102265000Y-116025000D02*
X102265000Y-114665000D01*
X102265000Y-114665000D02*
X104500000Y-112430000D01*
X106730000Y-100340000D02*
X107560000Y-99510000D01*
X100470000Y-117820000D02*
X102265000Y-116025000D01*
X106625000Y-111325000D02*
X106625000Y-104215000D01*
X106260000Y-94460000D02*
X105905000Y-94105000D01*
X105905000Y-94105000D02*
X102470000Y-94105000D01*
X104500000Y-112430000D02*
X105520000Y-112430000D01*
G04 #@! TO.N,UART4_TX_STM*
X107930000Y-98970000D02*
X108250000Y-99290000D01*
X106070000Y-100230000D02*
X107330000Y-98970000D01*
X105135000Y-113085000D02*
X103200000Y-115020000D01*
X104690000Y-100230000D02*
X106070000Y-100230000D01*
X108250000Y-111070000D02*
X106235000Y-113085000D01*
X103200000Y-115020000D02*
X103200000Y-116120000D01*
X103200000Y-116120000D02*
X100530000Y-118790000D01*
X104040000Y-100480000D02*
X104440000Y-100480000D01*
X100530000Y-118790000D02*
X98590000Y-118790000D01*
X107330000Y-98970000D02*
X107930000Y-98970000D01*
X108250000Y-99290000D02*
X108250000Y-111070000D01*
X98590000Y-118790000D02*
X98560000Y-118820000D01*
X104440000Y-100480000D02*
X104690000Y-100230000D01*
X106235000Y-113085000D02*
X105135000Y-113085000D01*
D18*
G04 #@! TO.N,USB_D-*
X87125000Y-120300000D02*
X87277400Y-120147600D01*
X87277400Y-119400834D02*
X87675000Y-119003234D01*
X87675000Y-119003234D02*
X87675000Y-118800000D01*
X87277400Y-120147600D02*
X87277400Y-119400834D01*
G04 #@! TO.N,USB_D+*
X87522600Y-119502400D02*
X88225000Y-118800000D01*
X87522600Y-120147600D02*
X87522600Y-119502400D01*
X87675000Y-120300000D02*
X87522600Y-120147600D01*
D16*
G04 #@! TO.N,PMIC_PA0_WKUP_INTR*
X77905000Y-101005000D02*
X77930000Y-101030000D01*
G04 #@! TO.N,/DDR/DDR_DQ1*
X95136993Y-71736993D02*
X95136993Y-71743007D01*
D19*
X93696841Y-83057265D02*
X93611988Y-83142117D01*
X93611988Y-83481529D02*
X93745522Y-83615063D01*
X93660671Y-84039328D02*
X93660671Y-84039329D01*
X94169788Y-83190800D02*
X94036253Y-83057265D01*
X94770000Y-82930000D02*
X94509200Y-83190800D01*
X92848338Y-83905820D02*
X92763485Y-83990672D01*
X92771731Y-84928269D02*
X89910000Y-87790000D01*
X93745522Y-83954475D02*
X93660671Y-84039328D01*
X92763485Y-84330084D02*
X92896993Y-84463592D01*
X95136993Y-71743007D02*
X94770000Y-72110000D01*
D16*
X89910000Y-87790000D02*
X89860000Y-87790000D01*
D19*
X93321259Y-84039329D02*
X93187750Y-83905820D01*
X92896993Y-84803004D02*
X92812142Y-84887857D01*
X92812142Y-84887857D02*
X92771731Y-84928269D01*
X94770000Y-72110000D02*
X94770000Y-82930000D01*
X93745522Y-83615063D02*
G75*
G02*
X93745553Y-83954506I-169722J-169737D01*
G01*
X93660671Y-84039329D02*
G75*
G02*
X93321259Y-84039329I-169706J169704D01*
G01*
X93611988Y-83142117D02*
G75*
G03*
X93612011Y-83481506I169712J-169683D01*
G01*
X92763485Y-83990672D02*
G75*
G03*
X92763463Y-84330106I169715J-169728D01*
G01*
X94509200Y-83190800D02*
G75*
G02*
X94169788Y-83190800I-169706J169704D01*
G01*
X94036253Y-83057265D02*
G75*
G03*
X93696841Y-83057265I-169706J-169704D01*
G01*
X93187750Y-83905820D02*
G75*
G03*
X92848338Y-83905820I-169706J-169704D01*
G01*
X92896993Y-84463592D02*
G75*
G02*
X92896995Y-84803006I-169693J-169708D01*
G01*
G04 #@! TO.N,/DDR/DDR_DQ4*
X94080000Y-88240000D02*
X96300000Y-88240000D01*
X100490000Y-81640000D02*
X100490000Y-71450000D01*
X101280000Y-82430000D02*
X100490000Y-81640000D01*
X96300000Y-88240000D02*
X101280000Y-83260000D01*
X100490000Y-71450000D02*
X99960000Y-70920000D01*
X101280000Y-83260000D02*
X101280000Y-82430000D01*
G04 #@! TO.N,/DDR/DDR_DQ7*
X95540000Y-70893985D02*
X95583042Y-70850943D01*
X95540000Y-82790000D02*
X95540000Y-72165576D01*
X89940000Y-88390000D02*
X95540000Y-82790000D01*
X95780000Y-71925576D02*
X95798745Y-71925576D01*
X95798745Y-71325576D02*
X95780000Y-71325576D01*
X95583042Y-70850943D02*
X96137400Y-70296585D01*
X95540000Y-71085576D02*
X95540000Y-70965576D01*
X95540000Y-70965576D02*
X95540000Y-70893985D01*
X96038745Y-71685576D02*
X96038745Y-71565576D01*
X95798745Y-71925576D02*
G75*
G03*
X96038676Y-71685576I-45J239976D01*
G01*
X95540000Y-72165576D02*
G75*
G02*
X95780000Y-71925600I240000J-24D01*
G01*
X96038745Y-71565576D02*
G75*
G03*
X95798745Y-71325555I-240045J-24D01*
G01*
X95780000Y-71325576D02*
G75*
G02*
X95540024Y-71085576I0J239976D01*
G01*
G04 #@! TO.N,/DDR/DDR_DQ6*
X92530000Y-88290000D02*
X92530000Y-88110000D01*
X97751620Y-80190000D02*
X97751620Y-80070000D01*
X97860000Y-76970000D02*
X97860000Y-74660000D01*
X97991647Y-78630000D02*
X98130000Y-78630000D01*
X95000000Y-86970000D02*
X98370000Y-83600000D01*
X98130000Y-80430000D02*
X97991620Y-80430000D01*
X97751620Y-81390000D02*
X97751620Y-81270000D01*
X98370000Y-78270000D02*
X98370000Y-77740000D01*
X98370000Y-81990000D02*
X98370000Y-81870000D01*
X92530000Y-88110000D02*
X93670000Y-86970000D01*
X98370000Y-83600000D02*
X98370000Y-83070000D01*
X98370000Y-77740000D02*
X98370000Y-77480000D01*
X98370000Y-80790000D02*
X98370000Y-80670000D01*
X97991620Y-82230000D02*
X98130000Y-82230000D01*
X97991620Y-81030000D02*
X98130000Y-81030000D01*
X98307400Y-74212600D02*
X98307400Y-72586585D01*
X97751647Y-78990000D02*
X97751647Y-78870000D01*
X93670000Y-86970000D02*
X95000000Y-86970000D01*
X97860000Y-74660000D02*
X98307400Y-74212600D01*
X98370000Y-77480000D02*
X97860000Y-76970000D01*
X98130000Y-82830000D02*
X97991620Y-82830000D01*
X98370000Y-79590000D02*
X98370000Y-79470000D01*
X97751620Y-82590000D02*
X97751620Y-82470000D01*
X98370000Y-78390000D02*
X98370000Y-78270000D01*
X98130000Y-81630000D02*
X97991620Y-81630000D01*
X97991620Y-79830000D02*
X98130000Y-79830000D01*
X98130000Y-79230000D02*
X97991647Y-79230000D01*
X98130000Y-78630000D02*
G75*
G03*
X98370000Y-78390000I0J240000D01*
G01*
X98370000Y-83070000D02*
G75*
G03*
X98130000Y-82830000I-240000J0D01*
G01*
X97751620Y-80070000D02*
G75*
G02*
X97991620Y-79830020I239980J0D01*
G01*
X98130000Y-82230000D02*
G75*
G03*
X98370000Y-81990000I0J240000D01*
G01*
X97991647Y-79230000D02*
G75*
G02*
X97751600Y-78990000I-47J240000D01*
G01*
X98130000Y-81030000D02*
G75*
G03*
X98370000Y-80790000I0J240000D01*
G01*
X98370000Y-79470000D02*
G75*
G03*
X98130000Y-79230000I-240000J0D01*
G01*
X97751620Y-82470000D02*
G75*
G02*
X97991620Y-82230020I239980J0D01*
G01*
X97991620Y-80430000D02*
G75*
G02*
X97751600Y-80190000I-20J240000D01*
G01*
X98130000Y-79830000D02*
G75*
G03*
X98370000Y-79590000I0J240000D01*
G01*
X97751647Y-78870000D02*
G75*
G02*
X97991647Y-78630047I239953J0D01*
G01*
X97991620Y-82830000D02*
G75*
G02*
X97751600Y-82590000I-20J240000D01*
G01*
X97751620Y-81270000D02*
G75*
G02*
X97991620Y-81030020I239980J0D01*
G01*
X98370000Y-80670000D02*
G75*
G03*
X98130000Y-80430000I-240000J0D01*
G01*
X97991620Y-81630000D02*
G75*
G02*
X97751600Y-81390000I-20J240000D01*
G01*
X98370000Y-81870000D02*
G75*
G03*
X98130000Y-81630000I-240000J0D01*
G01*
G04 #@! TO.N,/DDR/DDR_DQM0*
X96150000Y-72629185D02*
X96380000Y-72859185D01*
X96380000Y-82640000D02*
X90640000Y-88380000D01*
X96470000Y-75500000D02*
X96470000Y-77991308D01*
X96150000Y-72580000D02*
X96150000Y-72629185D01*
X95912562Y-73457149D02*
X95912562Y-73589711D01*
X96380000Y-81979224D02*
X96380000Y-82281308D01*
X96380000Y-75257201D02*
X96380000Y-75389711D01*
X96380000Y-79179148D02*
X96380000Y-79481308D01*
X96380000Y-80579224D02*
X96380000Y-80881308D01*
X96380000Y-82281308D02*
X96380000Y-82330000D01*
X95982084Y-81279224D02*
X95982084Y-81581308D01*
X96380000Y-72859185D02*
X96380000Y-72989711D01*
X96380000Y-75389711D02*
X96380000Y-75410000D01*
X96380000Y-82330000D02*
X96380000Y-82640000D01*
X95982160Y-78479148D02*
X95982160Y-78781308D01*
X96470000Y-77991308D02*
X96380000Y-78081308D01*
X95912510Y-74657201D02*
X95912510Y-74789711D01*
X95982084Y-79879224D02*
X95982084Y-80181308D01*
X96380000Y-74057149D02*
X96380000Y-74189711D01*
X96380000Y-75410000D02*
X96470000Y-75500000D01*
D16*
X90640000Y-88380000D02*
X90470000Y-88380000D01*
D19*
X95982084Y-81581308D02*
G75*
G03*
X96181042Y-81780216I198916J8D01*
G01*
X96181080Y-78280228D02*
G75*
G03*
X95982228Y-78479148I20J-198872D01*
G01*
X96380000Y-78081308D02*
G75*
G02*
X96181080Y-78280200I-198900J8D01*
G01*
X96146255Y-75023456D02*
G75*
G02*
X96380044Y-75257201I45J-233744D01*
G01*
X96181042Y-79680266D02*
G75*
G03*
X95982066Y-79879224I-42J-198934D01*
G01*
X95912510Y-74789711D02*
G75*
G03*
X96146255Y-75023490I233790J11D01*
G01*
X96146255Y-74423456D02*
G75*
G03*
X95912556Y-74657201I45J-233744D01*
G01*
X96380000Y-80881308D02*
G75*
G02*
X96181042Y-81080300I-199000J8D01*
G01*
X95912562Y-73589711D02*
G75*
G03*
X96146281Y-73823438I233738J11D01*
G01*
X95982160Y-78781308D02*
G75*
G03*
X96181080Y-78980240I198940J8D01*
G01*
X96181042Y-80380266D02*
G75*
G02*
X96379934Y-80579224I-42J-198934D01*
G01*
X96181042Y-81780266D02*
G75*
G02*
X96379934Y-81979224I-42J-198934D01*
G01*
X96146281Y-73223430D02*
G75*
G03*
X95912630Y-73457149I19J-233670D01*
G01*
X95982084Y-80181308D02*
G75*
G03*
X96181042Y-80380216I198916J8D01*
G01*
X96380000Y-79481308D02*
G75*
G02*
X96181042Y-79680300I-199000J8D01*
G01*
X96380000Y-72989711D02*
G75*
G02*
X96146281Y-73223400I-233700J11D01*
G01*
X96181042Y-81080266D02*
G75*
G03*
X95982066Y-81279224I-42J-198934D01*
G01*
X96181080Y-78980228D02*
G75*
G02*
X96379972Y-79179148I20J-198872D01*
G01*
X96380000Y-74189711D02*
G75*
G02*
X96146255Y-74423400I-233700J11D01*
G01*
X96146281Y-73823430D02*
G75*
G02*
X96379970Y-74057149I19J-233670D01*
G01*
D16*
G04 #@! TO.N,SYS_I2C4_SCL*
X103250000Y-96550000D02*
X103270000Y-96550000D01*
D19*
G04 #@! TO.N,/DDR/DDR_DQ2*
X95220000Y-87420000D02*
X98742400Y-83897600D01*
X93670000Y-87420000D02*
X95220000Y-87420000D01*
X98742400Y-83897600D02*
X98742400Y-81067600D01*
X93060000Y-88280000D02*
X93060000Y-88030000D01*
X99640000Y-72170000D02*
X99167400Y-71697400D01*
X93060000Y-88030000D02*
X93670000Y-87420000D01*
X99640000Y-80170000D02*
X99640000Y-72170000D01*
X98742400Y-81067600D02*
X99640000Y-80170000D01*
X99167400Y-71697400D02*
X99167400Y-70136585D01*
D20*
G04 #@! TO.N,/DDR/DDR_DQS0_P*
X97810000Y-70780000D02*
X97680000Y-70780000D01*
X94536486Y-85446835D02*
X94674250Y-85309073D01*
X94822989Y-85309073D02*
X94960751Y-85171310D01*
X97620000Y-70840000D02*
X97306450Y-71153550D01*
X95161662Y-84821662D02*
X95506520Y-84476804D01*
X95506520Y-84476804D02*
X95506520Y-84476450D01*
X95098515Y-84884808D02*
X95161662Y-84821662D01*
X91250000Y-88733324D02*
X94249986Y-85733338D01*
X97306450Y-71153550D02*
X97306450Y-83621050D01*
X91250000Y-89330000D02*
X91250000Y-88733324D01*
X97306450Y-83621050D02*
X96451050Y-84476450D01*
X94674250Y-85309073D02*
X94674251Y-85309073D01*
X96451050Y-84476450D02*
X95506520Y-84476450D01*
X98110000Y-71080000D02*
X97810000Y-70780000D01*
X94398724Y-85733338D02*
X94536486Y-85595575D01*
X97680000Y-70780000D02*
X97620000Y-70840000D01*
X94960751Y-85022570D02*
X95098515Y-84884808D01*
X94960751Y-85096940D02*
G75*
G02*
X94960796Y-85022615I37149J37140D01*
G01*
X94324355Y-85733338D02*
G75*
G03*
X94398724Y-85733338I37184J37186D01*
G01*
X94748620Y-85309073D02*
G75*
G03*
X94822989Y-85309074I37185J37186D01*
G01*
X94536486Y-85521205D02*
G75*
G02*
X94536466Y-85446815I37214J37205D01*
G01*
X94249986Y-85733338D02*
G75*
G02*
X94324355Y-85733337I37185J-37186D01*
G01*
X94960751Y-85171310D02*
G75*
G03*
X94960776Y-85096915I-37151J37210D01*
G01*
X94674251Y-85309073D02*
G75*
G02*
X94748620Y-85309072I37185J-37186D01*
G01*
X94536486Y-85595575D02*
G75*
G03*
X94536476Y-85521215I-37186J37175D01*
G01*
D16*
G04 #@! TO.N,/DDR/DDR_RESETN*
X94230000Y-92280000D02*
X97090000Y-92280000D01*
X94030000Y-91945000D02*
X94020000Y-91935000D01*
X94040000Y-92090000D02*
X94230000Y-92280000D01*
X94030000Y-92000000D02*
X94040000Y-92010000D01*
X94040000Y-92010000D02*
X94040000Y-92090000D01*
X96890000Y-88460000D02*
X97520000Y-87830000D01*
X97540000Y-87730000D02*
X97600000Y-87730000D01*
X97090000Y-92280000D02*
X97430000Y-91940000D01*
X94020000Y-91935000D02*
X94020000Y-91920000D01*
X94030000Y-92000000D02*
X94030000Y-91945000D01*
X97520000Y-87750000D02*
X97540000Y-87730000D01*
X96890000Y-90100000D02*
X96890000Y-88460000D01*
X97430000Y-91940000D02*
X97430000Y-90640000D01*
X97430000Y-90640000D02*
X96890000Y-90100000D01*
X97520000Y-87830000D02*
X97520000Y-87750000D01*
D20*
G04 #@! TO.N,/DDR/DDR_DQS0_N*
X97033550Y-71046450D02*
X97033550Y-83506450D01*
X95393126Y-84203550D02*
X95393480Y-84203550D01*
X98086586Y-70570000D02*
X97510000Y-70570000D01*
X97033550Y-83506450D02*
X96336450Y-84203550D01*
X90976600Y-88913400D02*
X90976600Y-88620076D01*
X90790000Y-89100000D02*
X90976600Y-88913400D01*
X97510000Y-70570000D02*
X97033550Y-71046450D01*
X90976600Y-88620076D02*
X95393126Y-84203550D01*
X98093293Y-70563293D02*
X98086586Y-70570000D01*
X96336450Y-84203550D02*
X95393480Y-84203550D01*
D19*
G04 #@! TO.N,/DDR/DDR_DQ3*
X93980000Y-70473985D02*
X94347400Y-70106585D01*
X89300000Y-87300000D02*
X89300000Y-84360000D01*
X92510000Y-81150000D02*
X92510000Y-76910000D01*
X92510000Y-76910000D02*
X93980000Y-75440000D01*
X89300000Y-84360000D02*
X92510000Y-81150000D01*
X93980000Y-75440000D02*
X93980000Y-70473985D01*
D16*
G04 #@! TO.N,SYS_I2C4_SDA*
X102365000Y-95785000D02*
X102430000Y-95785000D01*
X102485000Y-95785000D02*
X102430000Y-95785000D01*
D19*
G04 #@! TO.N,/DDR/DDR_DQ5*
X93880000Y-87820000D02*
X95750000Y-87820000D01*
X100010000Y-80590000D02*
X100010000Y-71719185D01*
X100010000Y-71719185D02*
X99987400Y-71696585D01*
X99380000Y-81220000D02*
X100010000Y-80590000D01*
X95750000Y-87820000D02*
X99380000Y-84190000D01*
X93570000Y-88260000D02*
X93570000Y-88130000D01*
X99380000Y-84190000D02*
X99380000Y-81220000D01*
X93570000Y-88130000D02*
X93880000Y-87820000D01*
G04 #@! TO.N,/DDR/DDR_CKE*
X102339628Y-87237775D02*
X102424479Y-87152922D01*
X102815407Y-86470000D02*
X102815407Y-86590000D01*
X100865422Y-85870000D02*
X100865422Y-85990000D01*
X100727420Y-88510569D02*
X100407328Y-88190477D01*
X102815407Y-79214593D02*
X102815407Y-84190000D01*
X102575407Y-84430000D02*
X101105407Y-84430000D01*
X102815407Y-86761993D02*
X102815407Y-86679876D01*
X101255867Y-87002544D02*
X101340720Y-86917692D01*
X101680132Y-86917691D02*
X102000216Y-87237775D01*
X102815407Y-85270000D02*
X102815407Y-85390000D01*
X101575950Y-87662039D02*
X101255867Y-87341956D01*
X100865407Y-84670000D02*
X100865407Y-84790000D01*
X101575949Y-88001452D02*
X101575949Y-88001451D01*
X101800000Y-77550001D02*
X102270001Y-77550001D01*
X102360000Y-78759185D02*
X102815407Y-79214593D01*
X101105407Y-85030000D02*
X102575407Y-85030000D01*
X102815407Y-86590000D02*
X102815407Y-86679876D01*
X102424479Y-87152922D02*
X102678990Y-86898410D01*
X100831592Y-87766214D02*
X101151685Y-88086307D01*
X100517400Y-89060000D02*
X100727419Y-88849981D01*
X101491097Y-88086306D02*
X101575949Y-88001452D01*
X102678990Y-86898410D02*
X102815407Y-86761993D01*
X102360000Y-77640000D02*
X102360000Y-78759185D01*
X102270001Y-77550001D02*
X102360000Y-77640000D01*
X101105422Y-86230000D02*
X102575407Y-86230000D01*
X102575407Y-85630000D02*
X101105422Y-85630000D01*
X100407327Y-87851067D02*
X100492182Y-87766213D01*
X100492182Y-87766213D02*
G75*
G02*
X100831606Y-87766200I169718J-169687D01*
G01*
X100407328Y-88190477D02*
G75*
G02*
X100407355Y-87851096I169672J169677D01*
G01*
X100865422Y-85990000D02*
G75*
G03*
X101105422Y-86229978I239978J0D01*
G01*
X100727419Y-88849981D02*
G75*
G03*
X100727395Y-88510594I-169719J169681D01*
G01*
X101105407Y-84430000D02*
G75*
G03*
X100865400Y-84670000I-7J-240000D01*
G01*
X102575407Y-86230000D02*
G75*
G02*
X102815400Y-86470000I-7J-240000D01*
G01*
X101105422Y-85630000D02*
G75*
G03*
X100865400Y-85870000I-22J-240000D01*
G01*
X102815407Y-85390000D02*
G75*
G02*
X102575407Y-85630007I-240007J0D01*
G01*
X101151685Y-88086307D02*
G75*
G03*
X101491106Y-88086316I169715J169707D01*
G01*
X100865407Y-84790000D02*
G75*
G03*
X101105407Y-85029993I239993J0D01*
G01*
X102000216Y-87237775D02*
G75*
G03*
X102339628Y-87237775I169706J169701D01*
G01*
X102815407Y-84190000D02*
G75*
G02*
X102575407Y-84430007I-240007J0D01*
G01*
X102575407Y-85030000D02*
G75*
G02*
X102815400Y-85270000I-7J-240000D01*
G01*
X101575949Y-88001451D02*
G75*
G03*
X101575995Y-87661995I-169749J169751D01*
G01*
X101340720Y-86917692D02*
G75*
G02*
X101680105Y-86917717I169680J-169708D01*
G01*
X101255867Y-87341956D02*
G75*
G02*
X101255917Y-87002594I169733J169656D01*
G01*
G04 #@! TO.N,/DDR/DDR_DQ0*
X89460000Y-87660000D02*
X90300000Y-86820000D01*
X93850000Y-81730000D02*
X93850000Y-76300000D01*
X94390000Y-75760000D02*
X94390000Y-71690000D01*
X90300000Y-86820000D02*
X90300000Y-85280000D01*
X90300000Y-85280000D02*
X93850000Y-81730000D01*
X89460000Y-92040000D02*
X89460000Y-87660000D01*
X93850000Y-76300000D02*
X94390000Y-75760000D01*
G04 #@! TO.N,SDMMC1_D3*
X73680000Y-86900000D02*
X73580000Y-86800000D01*
X81750000Y-86900000D02*
X73680000Y-86900000D01*
D17*
G04 #@! TO.N,SDMMC3_D3*
X78330000Y-124260000D02*
X78960000Y-123630000D01*
X79940000Y-121160000D02*
X79940000Y-120610000D01*
X89210011Y-105766029D02*
X88644979Y-105200997D01*
X88150006Y-105695973D02*
X88715037Y-106261004D01*
X90110000Y-102490000D02*
X90480000Y-102120000D01*
X87655029Y-105794967D02*
X87754026Y-105695973D01*
X87230111Y-107745929D02*
X86665079Y-107180897D01*
X87754026Y-105695973D02*
X87754027Y-105695973D01*
X87131117Y-108240904D02*
X87230111Y-108141909D01*
X89111017Y-106261004D02*
X89210011Y-106162009D01*
X87160056Y-106685923D02*
X87725106Y-107250973D01*
X88644979Y-104805017D02*
X88743976Y-104706023D01*
X86665079Y-106784917D02*
X86764076Y-106685923D01*
X88121086Y-107250973D02*
X88220080Y-107151978D01*
X86764076Y-106685923D02*
X86764077Y-106685923D01*
X88985285Y-104464715D02*
X90110000Y-103340000D01*
X85650000Y-114900000D02*
X85650000Y-107800000D01*
X86170106Y-107675873D02*
X86735137Y-108240904D01*
X79940000Y-120610000D02*
X85650000Y-114900000D01*
X88220080Y-106755998D02*
X87655029Y-106190947D01*
X78960000Y-123630000D02*
X78960000Y-122140000D01*
X78960000Y-122140000D02*
X79940000Y-121160000D01*
X90110000Y-103340000D02*
X90110000Y-102490000D01*
X88743976Y-104706023D02*
X88985285Y-104464715D01*
X85650000Y-107800000D02*
X85774127Y-107675873D01*
X87655029Y-106190947D02*
G75*
G02*
X87655072Y-105795010I197971J197947D01*
G01*
X88715037Y-106261004D02*
G75*
G03*
X89111017Y-106261004I197990J197990D01*
G01*
X86735137Y-108240904D02*
G75*
G03*
X87131117Y-108240904I197990J197990D01*
G01*
X89210011Y-106162009D02*
G75*
G03*
X89210030Y-105766010I-198011J198009D01*
G01*
X87725106Y-107250973D02*
G75*
G03*
X88121086Y-107250973I197990J197990D01*
G01*
X88644979Y-105200997D02*
G75*
G02*
X88644972Y-104805010I198021J197997D01*
G01*
X86764077Y-106685923D02*
G75*
G02*
X87160057Y-106685922I197990J-197989D01*
G01*
X88220080Y-107151978D02*
G75*
G03*
X88220068Y-106756010I-197980J197978D01*
G01*
X87754027Y-105695973D02*
G75*
G02*
X88150007Y-105695972I197990J-197989D01*
G01*
X85774127Y-107675873D02*
G75*
G02*
X86170107Y-107675872I197990J-197989D01*
G01*
X87230111Y-108141909D02*
G75*
G03*
X87230130Y-107745910I-198011J198009D01*
G01*
X86665079Y-107180897D02*
G75*
G02*
X86665072Y-106784910I198021J197997D01*
G01*
G04 #@! TO.N,SDMMC3_CK*
X79460000Y-120960000D02*
X79460000Y-120260000D01*
X87560000Y-103340000D02*
X89250000Y-103340000D01*
X87991486Y-104325443D02*
X87410755Y-103744712D01*
X87028919Y-104126551D02*
X87609649Y-104707281D01*
X77350000Y-121580000D02*
X77350000Y-121280000D01*
X86647079Y-104202918D02*
X86723448Y-104126551D01*
X85119727Y-105730270D02*
X85196096Y-105653903D01*
X86265243Y-104890227D02*
X86845941Y-105470925D01*
X85501567Y-105653903D02*
X86082322Y-106234658D01*
X87915119Y-104707281D02*
X87991486Y-104630913D01*
X78840000Y-121580000D02*
X79460000Y-120960000D01*
X85883404Y-104966593D02*
X85959772Y-104890227D01*
X85196096Y-105653903D02*
X85196097Y-105653903D01*
X85700452Y-106616465D02*
X85119727Y-106035740D01*
X86723448Y-104126551D02*
X86723449Y-104126551D01*
X86387793Y-106234658D02*
X86464160Y-106158290D01*
X87151411Y-105470925D02*
X87227778Y-105394557D01*
X77530000Y-121100000D02*
X77950000Y-121100000D01*
X78430000Y-121580000D02*
X78840000Y-121580000D01*
X85040000Y-114680000D02*
X85040000Y-108310000D01*
X79460000Y-120260000D02*
X85040000Y-114680000D01*
X84737891Y-106417579D02*
X85318615Y-106998303D01*
X87227778Y-105089087D02*
X86647079Y-104508388D01*
X85040000Y-108310000D02*
X84380000Y-107650000D01*
X87487124Y-103362875D02*
X87510000Y-103340000D01*
X89250000Y-103340000D02*
X89260000Y-103350000D01*
X87410755Y-103439242D02*
X87487124Y-103362875D01*
X87510000Y-103340000D02*
X87560000Y-103340000D01*
X84380000Y-107650000D02*
X84380000Y-106470000D01*
X77950000Y-121100000D02*
X78430000Y-121580000D01*
X77350000Y-121280000D02*
X77530000Y-121100000D01*
X85624085Y-106998303D02*
X85700452Y-106921935D01*
X84380000Y-106470000D02*
X84432421Y-106417579D01*
X86464160Y-105852820D02*
X85883404Y-105272064D01*
X85959772Y-104890227D02*
X85959773Y-104890227D01*
X86845941Y-105470925D02*
G75*
G03*
X87151411Y-105470925I152735J152735D01*
G01*
X86647079Y-104508388D02*
G75*
G02*
X86647126Y-104202965I152721J152688D01*
G01*
X85318615Y-106998303D02*
G75*
G03*
X85624085Y-106998303I152735J152735D01*
G01*
X87227778Y-105394557D02*
G75*
G03*
X87227800Y-105089065I-152778J152757D01*
G01*
X86082322Y-106234658D02*
G75*
G03*
X86387793Y-106234659I152736J152736D01*
G01*
X87410755Y-103744712D02*
G75*
G02*
X87410778Y-103439265I152745J152712D01*
G01*
X85700452Y-106921935D02*
G75*
G03*
X85700452Y-106616465I-152752J152735D01*
G01*
X84432421Y-106417579D02*
G75*
G02*
X84737891Y-106417579I152735J-152735D01*
G01*
X87609649Y-104707281D02*
G75*
G03*
X87915119Y-104707281I152735J152735D01*
G01*
X85119727Y-106035740D02*
G75*
G02*
X85119722Y-105730265I152773J152740D01*
G01*
X85883404Y-105272064D02*
G75*
G02*
X85883375Y-104966564I152696J152764D01*
G01*
X86464160Y-106158290D02*
G75*
G03*
X86464115Y-105852865I-152760J152690D01*
G01*
X87991486Y-104630913D02*
G75*
G03*
X87991464Y-104325465I-152686J152713D01*
G01*
X85959773Y-104890227D02*
G75*
G02*
X86265243Y-104890227I152735J-152735D01*
G01*
X85196097Y-105653903D02*
G75*
G02*
X85501567Y-105653903I152735J-152735D01*
G01*
X86723449Y-104126551D02*
G75*
G02*
X87028919Y-104126551I152735J-152735D01*
G01*
G04 #@! TO.N,UART8_TX_STM*
X78800000Y-126050000D02*
X80060000Y-124790000D01*
X70550000Y-127350000D02*
X71460000Y-126440000D01*
X76640000Y-126050000D02*
X78800000Y-126050000D01*
X80060000Y-121700000D02*
X86570000Y-115190000D01*
X66850000Y-126400000D02*
X67800000Y-127350000D01*
X89970000Y-104980000D02*
X90390000Y-104560000D01*
X74270000Y-126440000D02*
X74550000Y-126720000D01*
X75970000Y-126720000D02*
X76640000Y-126050000D01*
X74550000Y-126720000D02*
X75970000Y-126720000D01*
X90390000Y-104560000D02*
X90420000Y-104560000D01*
X89970000Y-106650000D02*
X89970000Y-104980000D01*
X67800000Y-127350000D02*
X70550000Y-127350000D01*
X80060000Y-124790000D02*
X80060000Y-121700000D01*
X86570000Y-110050000D02*
X89970000Y-106650000D01*
X86570000Y-115190000D02*
X86570000Y-110050000D01*
X71460000Y-126440000D02*
X74270000Y-126440000D01*
G04 #@! TO.N,UART8_RX_STM*
X67460000Y-127800000D02*
X67390000Y-127730000D01*
X91660000Y-105710000D02*
X87180000Y-110190000D01*
X78480000Y-127800000D02*
X67460000Y-127800000D01*
X80660000Y-125620000D02*
X78480000Y-127800000D01*
X87180000Y-115340000D02*
X80660000Y-121860000D01*
X91280000Y-102100000D02*
X91660000Y-102480000D01*
X91660000Y-102480000D02*
X91660000Y-105710000D01*
X80660000Y-121860000D02*
X80660000Y-125620000D01*
X87180000Y-110190000D02*
X87180000Y-115340000D01*
G04 #@! TO.N,UART8_CTS_STM*
X65720000Y-126430000D02*
X65750000Y-126400000D01*
X92870000Y-106250000D02*
X88760000Y-110360000D01*
X88760000Y-110360000D02*
X88760000Y-111310000D01*
X92870000Y-104510000D02*
X92870000Y-106250000D01*
G04 #@! TO.N,UART8_RTS_STM*
X92080000Y-106130000D02*
X87770000Y-110440000D01*
X92080000Y-102900000D02*
X92080000Y-106130000D01*
X87770000Y-115600000D02*
X81280000Y-122090000D01*
X81280000Y-122090000D02*
X81280000Y-126050000D01*
X67020000Y-128460000D02*
X66280000Y-127720000D01*
X87770000Y-110440000D02*
X87770000Y-115600000D01*
X81280000Y-126050000D02*
X78870000Y-128460000D01*
X78870000Y-128460000D02*
X67020000Y-128460000D01*
D16*
G04 #@! TO.N,Net-(D601-K)*
X103100000Y-109050000D02*
X101810000Y-107760000D01*
X101810000Y-105440000D02*
X101810000Y-107760000D01*
G04 #@! TO.N,Net-(D602-K)*
X100870000Y-104430000D02*
X100930000Y-104490000D01*
X100930000Y-104490000D02*
X100930000Y-107800000D01*
X100930000Y-107800000D02*
X102200000Y-109070000D01*
D20*
G04 #@! TO.N,DSI_CK_P*
X86123550Y-82663480D02*
X86123550Y-83331450D01*
X87515545Y-81075545D02*
X87515545Y-81271485D01*
X86123550Y-83331450D02*
X85985000Y-83470000D01*
X87515545Y-81271485D02*
X86123550Y-82663480D01*
G04 #@! TO.N,DSI_CK_N*
X86396450Y-82776520D02*
X86396450Y-83331450D01*
X87708515Y-81464455D02*
X86396450Y-82776520D01*
X87904455Y-81464455D02*
X87708515Y-81464455D01*
X86396450Y-83331450D02*
X86535000Y-83470000D01*
D15*
G04 #@! TO.N,/MPU_PWR/VDDA*
X101290000Y-104790000D02*
X101290000Y-104080000D01*
X101320000Y-104820000D02*
X101290000Y-104790000D01*
X100170000Y-102960000D02*
X99310000Y-102960000D01*
X101290000Y-104080000D02*
X100170000Y-102960000D01*
D16*
G04 #@! TO.N,I2S2_CK*
X91250000Y-98100000D02*
X91190000Y-98100000D01*
D17*
G04 #@! TO.N,I2S3_SDO*
X88400000Y-98100000D02*
X84900000Y-98100000D01*
X88900000Y-98600000D02*
X88400000Y-98100000D01*
X80250000Y-112200000D02*
X75280000Y-117170000D01*
X67850000Y-125680000D02*
X68560000Y-126390000D01*
X67850000Y-124970000D02*
X67850000Y-125680000D01*
X79700000Y-107960000D02*
X80250000Y-108510000D01*
X84900000Y-98100000D02*
X80200000Y-102800000D01*
X75280000Y-117170000D02*
X75280000Y-118790000D01*
X72860000Y-121210000D02*
X71610000Y-121210000D01*
X80200000Y-102800000D02*
X80200000Y-102920000D01*
X75280000Y-118790000D02*
X72860000Y-121210000D01*
X79700000Y-103420000D02*
X79700000Y-107960000D01*
X80200000Y-102920000D02*
X79700000Y-103420000D01*
X68560000Y-126390000D02*
X69030000Y-126390000D01*
X80250000Y-108510000D02*
X80250000Y-112200000D01*
X88900000Y-98620000D02*
X88900000Y-98600000D01*
X71610000Y-121210000D02*
X67850000Y-124970000D01*
G04 #@! TO.N,I2S3_CK*
X85050000Y-98650000D02*
X80810000Y-102890000D01*
X88040000Y-98650000D02*
X85050000Y-98650000D01*
X68790000Y-125860000D02*
X69600000Y-125860000D01*
X75680000Y-119180000D02*
X73128137Y-121731863D01*
X68440000Y-125023726D02*
X68440000Y-125510000D01*
X69600000Y-125860000D02*
X70140000Y-125320000D01*
X80810000Y-102890000D02*
X80810000Y-112200000D01*
X75680000Y-117330000D02*
X75680000Y-119180000D01*
X73128137Y-121731863D02*
X71731863Y-121731863D01*
X80810000Y-112200000D02*
X75680000Y-117330000D01*
X68440000Y-125510000D02*
X68790000Y-125860000D01*
X88460000Y-99070000D02*
X88040000Y-98650000D01*
X71731863Y-121731863D02*
X68440000Y-125023726D01*
G04 #@! TO.N,I2S3_SDI*
X68240000Y-126900000D02*
X69640000Y-126900000D01*
X89960000Y-97600000D02*
X84500000Y-97600000D01*
X73220000Y-117650000D02*
X67850000Y-123020000D01*
X79500000Y-102600000D02*
X79500000Y-103030000D01*
X79730000Y-108990000D02*
X79730000Y-112190000D01*
X74270000Y-117650000D02*
X73220000Y-117650000D01*
X78670000Y-103860000D02*
X78670000Y-107930000D01*
X69640000Y-126900000D02*
X70130000Y-126410000D01*
X90480000Y-98120000D02*
X89960000Y-97600000D01*
X67850000Y-124180000D02*
X67200000Y-124830000D01*
X67850000Y-123020000D02*
X67850000Y-124180000D01*
X67200000Y-125860000D02*
X68240000Y-126900000D01*
X67200000Y-124830000D02*
X67200000Y-125860000D01*
X79500000Y-103030000D02*
X78670000Y-103860000D01*
X78670000Y-107930000D02*
X79730000Y-108990000D01*
X84500000Y-97600000D02*
X79500000Y-102600000D01*
X79730000Y-112190000D02*
X74270000Y-117650000D01*
G04 #@! TO.N,I2S3_WS*
X69040000Y-125320000D02*
X69040000Y-125220000D01*
X91210000Y-99620000D02*
X91280000Y-99690000D01*
X81310000Y-112280000D02*
X81310000Y-103300000D01*
X81310000Y-103300000D02*
X84990000Y-99620000D01*
X76180000Y-117410000D02*
X81310000Y-112280000D01*
X84990000Y-99620000D02*
X91210000Y-99620000D01*
X71980000Y-122280000D02*
X73320000Y-122280000D01*
X73320000Y-122280000D02*
X76180000Y-119420000D01*
X76180000Y-119420000D02*
X76180000Y-117410000D01*
X69040000Y-125220000D02*
X71980000Y-122280000D01*
D18*
G04 #@! TO.N,USB_M_D+*
X101460000Y-120950000D02*
X101940000Y-120950000D01*
X101940000Y-120950000D02*
X102120000Y-120770000D01*
X101980000Y-120130000D02*
X102120000Y-120270000D01*
X101230000Y-120720000D02*
X101460000Y-120950000D01*
X102120000Y-120270000D02*
X102120000Y-120770000D01*
G04 #@! TO.N,USB_M_D-*
X101240000Y-121290000D02*
X101350000Y-121180000D01*
X102530000Y-120130000D02*
X102500000Y-120160000D01*
X102500000Y-120160000D02*
X102500000Y-120940000D01*
X102500000Y-120940000D02*
X102150000Y-121290000D01*
X102150000Y-121290000D02*
X102110000Y-121290000D01*
X101350000Y-121180000D02*
X102000000Y-121180000D01*
X102000000Y-121180000D02*
X102110000Y-121290000D01*
D16*
G04 #@! TO.N,UART7_TX_STM*
X102430000Y-96460000D02*
X102060000Y-96830000D01*
X108880000Y-102110000D02*
X108820000Y-102170000D01*
X108820000Y-102170000D02*
X108820000Y-106300000D01*
X109120000Y-108050000D02*
X109130000Y-108060000D01*
X103400000Y-99710000D02*
X105700000Y-99710000D01*
X102060000Y-98370000D02*
X103400000Y-99710000D01*
X108820000Y-106300000D02*
X109120000Y-106600000D01*
X109120000Y-106600000D02*
X109120000Y-108050000D01*
X102060000Y-96830000D02*
X102060000Y-98370000D01*
G04 #@! TO.N,SYS_I2C6_SCL*
X105670000Y-104220000D02*
X106820000Y-103070000D01*
X106820000Y-103070000D02*
X107270000Y-103070000D01*
X105670000Y-106960000D02*
X105670000Y-104220000D01*
X105660000Y-106970000D02*
X105670000Y-106960000D01*
G04 #@! TO.N,FDCAN2_TX*
X101440000Y-100920000D02*
X105360000Y-100920000D01*
X101700000Y-94930000D02*
X101270000Y-95360000D01*
X105360000Y-100920000D02*
X105370000Y-100910000D01*
X101270000Y-100750000D02*
X101440000Y-100920000D01*
X101270000Y-95360000D02*
X101270000Y-100750000D01*
G04 #@! TO.N,ETH1_REF_CLK*
X103270000Y-102100000D02*
X103270000Y-102140000D01*
G04 #@! TO.N,SPI5_MISO*
X103250000Y-97290000D02*
X103260000Y-97280000D01*
G04 #@! TO.N,SPI5_MOSI*
X109320000Y-105980000D02*
X109420000Y-105880000D01*
X109240000Y-101370000D02*
X108880000Y-101370000D01*
X108880000Y-101370000D02*
X108990000Y-101370000D01*
X109420000Y-105880000D02*
X109420000Y-101550000D01*
X109420000Y-101550000D02*
X109240000Y-101370000D01*
G04 #@! TO.N,Net-(U202-~{RST})*
X96560000Y-115560000D02*
X91500000Y-110500000D01*
X97780000Y-115560000D02*
X96560000Y-115560000D01*
X91500000Y-110500000D02*
X91500000Y-109660000D01*
D15*
G04 #@! TO.N,/LCD/LED_A*
X76100000Y-67500000D02*
X68900000Y-67500000D01*
D16*
G04 #@! TO.N,/LCD/RESET*
X82650000Y-63150000D02*
X81200000Y-64600000D01*
X105470000Y-64320000D02*
X105020000Y-64320000D01*
X81200000Y-64600000D02*
X81200000Y-66600000D01*
X97500000Y-63150000D02*
X82650000Y-63150000D01*
X103350000Y-62650000D02*
X98000000Y-62650000D01*
X105020000Y-64320000D02*
X103350000Y-62650000D01*
X98000000Y-62650000D02*
X97500000Y-63150000D01*
D15*
G04 #@! TO.N,/LCD/LED_K*
X78800000Y-66600000D02*
X74689656Y-66600000D01*
X74689656Y-66600000D02*
X69674999Y-61585343D01*
D16*
G04 #@! TO.N,LCD_RST*
X107505000Y-97575000D02*
X106905000Y-97575000D01*
X105090000Y-98560000D02*
X105085000Y-98565000D01*
X105920000Y-98560000D02*
X105090000Y-98560000D01*
X108500000Y-96120000D02*
X108500000Y-96580000D01*
X109150000Y-95500000D02*
X109120000Y-95500000D01*
X106905000Y-97575000D02*
X105920000Y-98560000D01*
X108500000Y-96580000D02*
X107505000Y-97575000D01*
X109120000Y-95500000D02*
X108500000Y-96120000D01*
G04 #@! TO.N,LCD_TP_INTR*
X108450000Y-94450000D02*
X108400000Y-94450000D01*
X106000000Y-96850000D02*
X105750000Y-96850000D01*
X106150000Y-96700000D02*
X106000000Y-96850000D01*
X108400000Y-94450000D02*
X106150000Y-96700000D01*
G04 #@! TO.N,LCD_BL_PWM*
X95950000Y-65900000D02*
X97850000Y-67800000D01*
X87000000Y-65900000D02*
X95950000Y-65900000D01*
X65500000Y-66800000D02*
X66900000Y-68200000D01*
X104140000Y-97260000D02*
X104050000Y-97350000D01*
X65500000Y-66400000D02*
X65500000Y-66800000D01*
X97850000Y-67800000D02*
X103950000Y-67800000D01*
X109050000Y-72900000D02*
X109050000Y-94550000D01*
X109050000Y-94550000D02*
X106340000Y-97260000D01*
X84700000Y-68200000D02*
X87000000Y-65900000D01*
X106340000Y-97260000D02*
X104140000Y-97260000D01*
X66900000Y-68200000D02*
X84700000Y-68200000D01*
X103950000Y-67800000D02*
X109050000Y-72900000D01*
D15*
G04 #@! TO.N,Net-(U1001-FB)*
X68990000Y-61600000D02*
X68265001Y-62324999D01*
X68265001Y-62324999D02*
X67130000Y-62324999D01*
X69000000Y-61600000D02*
X68990000Y-61600000D01*
D16*
G04 #@! TO.N,LCD_TP_RST*
X104400000Y-96150000D02*
X104050000Y-96500000D01*
X108350000Y-93600000D02*
X108350000Y-93850000D01*
X108350000Y-93850000D02*
X106050000Y-96150000D01*
X106050000Y-96150000D02*
X104400000Y-96150000D01*
D17*
G04 #@! TO.N,1V8_WIFI_EN*
X93640000Y-103600000D02*
X92950000Y-102910000D01*
X88960000Y-111980000D02*
X89390000Y-111550000D01*
X89390000Y-111120000D02*
X93640000Y-106870000D01*
X89390000Y-111550000D02*
X89390000Y-111120000D01*
X92950000Y-102910000D02*
X92870000Y-102910000D01*
X88300000Y-111980000D02*
X88960000Y-111980000D01*
X93640000Y-106870000D02*
X93640000Y-103600000D01*
G04 #@! TO.N,Net-(U901A-PDN)*
X65310000Y-116630000D02*
X65330000Y-116610000D01*
X64680000Y-120880000D02*
X64680000Y-117260000D01*
X64680000Y-117260000D02*
X65310000Y-116630000D01*
G04 #@! TO.N,WLAN_WAKE_HOST*
X75350000Y-115890000D02*
X74020000Y-117220000D01*
X67250000Y-122880000D02*
X67250000Y-124000000D01*
X72910000Y-117220000D02*
X67250000Y-122880000D01*
X75360000Y-115890000D02*
X75350000Y-115890000D01*
X74020000Y-117220000D02*
X72910000Y-117220000D01*
G04 #@! TO.N,BT_WAKE_HOST*
X71410000Y-123500000D02*
X76450000Y-123500000D01*
X76450000Y-123500000D02*
X77750000Y-124800000D01*
X77750000Y-124800000D02*
X79200000Y-124800000D01*
X70870000Y-124040000D02*
X71410000Y-123500000D01*
G04 #@! TO.N,BT_RESET*
X65740000Y-120670000D02*
X65740000Y-124140000D01*
X89170000Y-101700000D02*
X89490000Y-101380000D01*
X75490000Y-114610000D02*
X75120000Y-114240000D01*
X88630000Y-101700000D02*
X89170000Y-101700000D01*
X89490000Y-101380000D02*
X91230000Y-101380000D01*
X72170000Y-114240000D02*
X65740000Y-120670000D01*
X75120000Y-114240000D02*
X72170000Y-114240000D01*
G04 #@! TO.N,WLAN_RESET*
X72870000Y-116050000D02*
X74360000Y-116050000D01*
X74360000Y-116050000D02*
X75010000Y-115400000D01*
X90730000Y-104180000D02*
X91000000Y-103910000D01*
X75010000Y-115400000D02*
X75700000Y-115400000D01*
X66710000Y-123930000D02*
X66710000Y-122210000D01*
X66710000Y-122210000D02*
X72870000Y-116050000D01*
X91000000Y-103340000D02*
X90540000Y-102880000D01*
X66640000Y-124000000D02*
X66710000Y-123930000D01*
X91000000Y-103910000D02*
X91000000Y-103340000D01*
X89940000Y-104180000D02*
X90730000Y-104180000D01*
X89620000Y-104500000D02*
X89940000Y-104180000D01*
G04 #@! TO.N,WLAN_DEV_WAKE*
X65170000Y-119880000D02*
X65170000Y-124780000D01*
X75930000Y-113680000D02*
X71370000Y-113680000D01*
X65170000Y-124780000D02*
X65700000Y-125310000D01*
X76390000Y-114140000D02*
X75930000Y-113680000D01*
X71370000Y-113680000D02*
X65170000Y-119880000D01*
X76390000Y-114180000D02*
X76390000Y-114140000D01*
X65700000Y-125310000D02*
X65720000Y-125310000D01*
G04 #@! TO.N,Net-(U301A-VBAT)*
X90580000Y-105980000D02*
X90590000Y-105990000D01*
D16*
G04 #@! TO.N,Net-(U301C-PA4)*
X88300000Y-113000000D02*
X92600000Y-117300000D01*
X101300000Y-112950000D02*
X99550000Y-111200000D01*
X101300000Y-116020000D02*
X101300000Y-112950000D01*
X92600000Y-117300000D02*
X100020000Y-117300000D01*
X88300000Y-112720000D02*
X88300000Y-113000000D01*
X100020000Y-117300000D02*
X101300000Y-116020000D01*
G04 #@! TO.N,Net-(U301C-PA5)*
X100500000Y-113600000D02*
X100500000Y-115880000D01*
X99000000Y-110700000D02*
X99000000Y-112100000D01*
X93050000Y-116750000D02*
X90900000Y-114600000D01*
X99000000Y-112100000D02*
X100500000Y-113600000D01*
X99630000Y-116750000D02*
X93050000Y-116750000D01*
X100500000Y-115880000D02*
X99630000Y-116750000D01*
G04 #@! TD*
G04 #@! TA.AperFunction,Conductor*
G04 #@! TO.N,3V3*
G36*
X74203225Y-107402131D02*
G01*
X74329646Y-107527115D01*
X74333120Y-107535367D01*
X74332401Y-107539473D01*
X74297818Y-107633496D01*
X74291746Y-107640078D01*
X74286837Y-107641157D01*
X74103163Y-107641157D01*
X74094890Y-107637730D01*
X74092182Y-107633496D01*
X74057598Y-107539471D01*
X74057958Y-107530525D01*
X74060348Y-107527120D01*
X74186774Y-107402131D01*
X74195067Y-107398752D01*
X74203225Y-107402131D01*
G37*
G04 #@! TD.AperFunction*
G04 #@! TD*
G04 #@! TA.AperFunction,Conductor*
G04 #@! TO.N,3V3*
G36*
X74297847Y-111263890D02*
G01*
X74298505Y-111264605D01*
X74349277Y-111324597D01*
X74352006Y-111333126D01*
X74350305Y-111338295D01*
X74256240Y-111490876D01*
X74248982Y-111496120D01*
X74240141Y-111494695D01*
X74239979Y-111494594D01*
X74087851Y-111397349D01*
X74082726Y-111390006D01*
X74082510Y-111386342D01*
X74093954Y-111271008D01*
X74098181Y-111263113D01*
X74105597Y-111260463D01*
X74289574Y-111260463D01*
X74297847Y-111263890D01*
G37*
G04 #@! TD.AperFunction*
G04 #@! TD*
G04 #@! TA.AperFunction,Conductor*
G04 #@! TO.N,VDD*
G36*
X78085857Y-111278387D02*
G01*
X78089284Y-111286660D01*
X78089263Y-111287355D01*
X78081528Y-111417366D01*
X78077616Y-111425421D01*
X78074395Y-111427452D01*
X77910653Y-111496507D01*
X77901699Y-111496564D01*
X77895381Y-111490400D01*
X77825190Y-111329318D01*
X77825027Y-111320364D01*
X77829474Y-111314877D01*
X77852004Y-111300018D01*
X77887070Y-111276893D01*
X77893511Y-111274960D01*
X78077584Y-111274960D01*
X78085857Y-111278387D01*
G37*
G04 #@! TD.AperFunction*
G04 #@! TD*
G04 #@! TA.AperFunction,Conductor*
G04 #@! TO.N,VDD*
G36*
X78588312Y-111257677D02*
G01*
X78591589Y-111264084D01*
X78609734Y-111376389D01*
X78607671Y-111385103D01*
X78605086Y-111387702D01*
X78459589Y-111493994D01*
X78450887Y-111496108D01*
X78443240Y-111491449D01*
X78443138Y-111491308D01*
X78339224Y-111344532D01*
X78337240Y-111335799D01*
X78339015Y-111331315D01*
X78386531Y-111259494D01*
X78393954Y-111254485D01*
X78396289Y-111254250D01*
X78580039Y-111254250D01*
X78588312Y-111257677D01*
G37*
G04 #@! TD.AperFunction*
G04 #@! TD*
G04 #@! TA.AperFunction,Conductor*
G04 #@! TO.N,VDD*
G36*
X78947625Y-102882989D02*
G01*
X78951725Y-102890900D01*
X78967335Y-103068857D01*
X78964644Y-103077398D01*
X78961687Y-103079919D01*
X78869480Y-103135086D01*
X78860621Y-103136393D01*
X78855200Y-103133319D01*
X78725314Y-103003433D01*
X78721887Y-102995160D01*
X78722468Y-102991518D01*
X78727262Y-102976883D01*
X78751428Y-102903117D01*
X78757261Y-102896322D01*
X78761567Y-102895102D01*
X78939096Y-102880263D01*
X78947625Y-102882989D01*
G37*
G04 #@! TD.AperFunction*
G04 #@! TD*
G04 #@! TA.AperFunction,Conductor*
G04 #@! TO.N,VDD*
G36*
X77132395Y-107458047D02*
G01*
X77245281Y-107596149D01*
X77247863Y-107604724D01*
X77246541Y-107609069D01*
X77203305Y-107689972D01*
X77196383Y-107695653D01*
X77192986Y-107696157D01*
X77009294Y-107696157D01*
X77001021Y-107692730D01*
X76997897Y-107687104D01*
X76973287Y-107581150D01*
X76974754Y-107572316D01*
X76977287Y-107569437D01*
X77115944Y-107456383D01*
X77124520Y-107453812D01*
X77132395Y-107458047D01*
G37*
G04 #@! TD.AperFunction*
G04 #@! TD*
G04 #@! TA.AperFunction,Conductor*
G04 #@! TO.N,NRST*
G36*
X108403619Y-118894937D02*
G01*
X108521782Y-118912361D01*
X108529465Y-118916957D01*
X108531774Y-118924002D01*
X108530773Y-119099140D01*
X108527299Y-119107393D01*
X108519140Y-119110773D01*
X108344002Y-119111774D01*
X108335709Y-119108394D01*
X108332361Y-119101783D01*
X108314938Y-118983619D01*
X108317122Y-118974935D01*
X108318233Y-118973647D01*
X108393641Y-118898239D01*
X108401913Y-118894813D01*
X108403619Y-118894937D01*
G37*
G04 #@! TD.AperFunction*
G04 #@! TD*
G04 #@! TA.AperFunction,Conductor*
G04 #@! TO.N,NRST*
G36*
X99078618Y-115954622D02*
G01*
X99174125Y-116046950D01*
X99177691Y-116055164D01*
X99175753Y-116061814D01*
X99080405Y-116206037D01*
X99072984Y-116211049D01*
X99064193Y-116209345D01*
X99060923Y-116206095D01*
X98964717Y-116062415D01*
X98962962Y-116053634D01*
X98966902Y-116046956D01*
X98986627Y-116030348D01*
X99062214Y-115954760D01*
X99070486Y-115951334D01*
X99078618Y-115954622D01*
G37*
G04 #@! TD.AperFunction*
G04 #@! TD*
G04 #@! TA.AperFunction,Conductor*
G04 #@! TO.N,NRST*
G36*
X98434463Y-105406129D02*
G01*
X98437981Y-105412559D01*
X98459807Y-105531154D01*
X98457934Y-105539911D01*
X98456573Y-105541545D01*
X98381173Y-105616945D01*
X98372900Y-105620372D01*
X98371613Y-105620301D01*
X98254023Y-105607283D01*
X98246177Y-105602967D01*
X98243613Y-105595925D01*
X98242354Y-105541545D01*
X98239560Y-105420863D01*
X98242795Y-105412516D01*
X98250861Y-105408902D01*
X98426079Y-105402984D01*
X98434463Y-105406129D01*
G37*
G04 #@! TD.AperFunction*
G04 #@! TD*
G04 #@! TA.AperFunction,Conductor*
G04 #@! TO.N,NRST*
G36*
X104565560Y-116316057D02*
G01*
X104661436Y-116387292D01*
X104666032Y-116394975D01*
X104666157Y-116396682D01*
X104666157Y-116503317D01*
X104662730Y-116511590D01*
X104661439Y-116512704D01*
X104567132Y-116582775D01*
X104565563Y-116583941D01*
X104556878Y-116586124D01*
X104550265Y-116582775D01*
X104480996Y-116512709D01*
X104427131Y-116458225D01*
X104423752Y-116449933D01*
X104427132Y-116441774D01*
X104550266Y-116317223D01*
X104558518Y-116313750D01*
X104565560Y-116316057D01*
G37*
G04 #@! TD.AperFunction*
G04 #@! TD*
G04 #@! TA.AperFunction,Conductor*
G04 #@! TO.N,I2C1_SDA*
G36*
X81885064Y-71987122D02*
G01*
X81886359Y-71988240D01*
X81961759Y-72063640D01*
X81965186Y-72071913D01*
X81965061Y-72073620D01*
X81947639Y-72191781D01*
X81943042Y-72199465D01*
X81935997Y-72201774D01*
X81760859Y-72200773D01*
X81752606Y-72197299D01*
X81749226Y-72189142D01*
X81748226Y-72014001D01*
X81751606Y-72005709D01*
X81758216Y-72002361D01*
X81876379Y-71984938D01*
X81885064Y-71987122D01*
G37*
G04 #@! TD.AperFunction*
G04 #@! TD*
G04 #@! TA.AperFunction,Conductor*
G04 #@! TO.N,I2C1_SDA*
G36*
X83597305Y-70303475D02*
G01*
X83602301Y-70310907D01*
X83602420Y-70311609D01*
X83626749Y-70486499D01*
X83624495Y-70495165D01*
X83618836Y-70499219D01*
X83499648Y-70538654D01*
X83490717Y-70537999D01*
X83487700Y-70535819D01*
X83412294Y-70460413D01*
X83408878Y-70452659D01*
X83404286Y-70349022D01*
X83407344Y-70340606D01*
X83413658Y-70337037D01*
X83588519Y-70301752D01*
X83597305Y-70303475D01*
G37*
G04 #@! TD.AperFunction*
G04 #@! TD*
G04 #@! TA.AperFunction,Conductor*
G04 #@! TO.N,I2C1_SDA*
G36*
X91089142Y-66549226D02*
G01*
X91097393Y-66552700D01*
X91100773Y-66560859D01*
X91101775Y-66735997D01*
X91098395Y-66744290D01*
X91091782Y-66747639D01*
X90973620Y-66765061D01*
X90964935Y-66762877D01*
X90963640Y-66761759D01*
X90888240Y-66686359D01*
X90884813Y-66678086D01*
X90884938Y-66676379D01*
X90902361Y-66558215D01*
X90906957Y-66550534D01*
X90914001Y-66548225D01*
X91089142Y-66549226D01*
G37*
G04 #@! TD.AperFunction*
G04 #@! TD*
G04 #@! TA.AperFunction,Conductor*
G04 #@! TO.N,I2C1_SDA*
G36*
X83752659Y-70108878D02*
G01*
X83760413Y-70112294D01*
X83835819Y-70187700D01*
X83839246Y-70195973D01*
X83838654Y-70199648D01*
X83799219Y-70318835D01*
X83793367Y-70325613D01*
X83786499Y-70326748D01*
X83611609Y-70302420D01*
X83603887Y-70297886D01*
X83601633Y-70289220D01*
X83601748Y-70288536D01*
X83637037Y-70113659D01*
X83642032Y-70106229D01*
X83649021Y-70104286D01*
X83752659Y-70108878D01*
G37*
G04 #@! TD.AperFunction*
G04 #@! TD*
G04 #@! TA.AperFunction,Conductor*
G04 #@! TO.N,I2C1_SCL*
G36*
X105655560Y-98936057D02*
G01*
X105751436Y-99007292D01*
X105756032Y-99014975D01*
X105756157Y-99016682D01*
X105756157Y-99123317D01*
X105752730Y-99131590D01*
X105751439Y-99132704D01*
X105657132Y-99202775D01*
X105655563Y-99203941D01*
X105646878Y-99206124D01*
X105640265Y-99202775D01*
X105570996Y-99132709D01*
X105517131Y-99078225D01*
X105513752Y-99069933D01*
X105517132Y-99061774D01*
X105640266Y-98937223D01*
X105648518Y-98933750D01*
X105655560Y-98936057D01*
G37*
G04 #@! TD.AperFunction*
G04 #@! TD*
G04 #@! TA.AperFunction,Conductor*
G04 #@! TO.N,I2C1_SCL*
G36*
X109187565Y-96287849D02*
G01*
X109301574Y-96421215D01*
X109304345Y-96429731D01*
X109301300Y-96436731D01*
X109222677Y-96522370D01*
X109214557Y-96526146D01*
X109214058Y-96526157D01*
X109107431Y-96526157D01*
X109099158Y-96522730D01*
X109097393Y-96520468D01*
X109034318Y-96415145D01*
X109033008Y-96406287D01*
X109036795Y-96400204D01*
X109171114Y-96286520D01*
X109179642Y-96283792D01*
X109187565Y-96287849D01*
G37*
G04 #@! TD.AperFunction*
G04 #@! TD*
G04 #@! TA.AperFunction,Conductor*
G04 #@! TO.N,Net-(U202-~{PONKEY})*
G36*
X70759734Y-103827224D02*
G01*
X70882867Y-103951774D01*
X70886247Y-103960067D01*
X70882867Y-103968226D01*
X70759734Y-104092775D01*
X70751481Y-104096249D01*
X70744436Y-104093940D01*
X70648565Y-104022708D01*
X70643968Y-104015024D01*
X70643843Y-104013317D01*
X70643843Y-103906682D01*
X70647270Y-103898409D01*
X70648560Y-103897295D01*
X70744437Y-103826058D01*
X70753121Y-103823875D01*
X70759734Y-103827224D01*
G37*
G04 #@! TD.AperFunction*
G04 #@! TD*
G04 #@! TA.AperFunction,Conductor*
G04 #@! TO.N,Net-(U202-~{PONKEY})*
G36*
X61388226Y-101659632D02*
G01*
X61512775Y-101782765D01*
X61516249Y-101791018D01*
X61513941Y-101798062D01*
X61442707Y-101893935D01*
X61435024Y-101898532D01*
X61433317Y-101898657D01*
X61326683Y-101898657D01*
X61318410Y-101895230D01*
X61317292Y-101893935D01*
X61246059Y-101798063D01*
X61243875Y-101789378D01*
X61247222Y-101782767D01*
X61371774Y-101659631D01*
X61380067Y-101656252D01*
X61388226Y-101659632D01*
G37*
G04 #@! TD.AperFunction*
G04 #@! TD*
G04 #@! TA.AperFunction,Conductor*
G04 #@! TO.N,SDMMC3_CMD*
G36*
X78766381Y-120818414D02*
G01*
X78767577Y-120819458D01*
X78840541Y-120892422D01*
X78843968Y-120900695D01*
X78843860Y-120902279D01*
X78827547Y-121021658D01*
X78823032Y-121029391D01*
X78815888Y-121031774D01*
X78640859Y-121030773D01*
X78632606Y-121027299D01*
X78629226Y-121019142D01*
X78628226Y-120844109D01*
X78631606Y-120835818D01*
X78638340Y-120832452D01*
X78757720Y-120816139D01*
X78766381Y-120818414D01*
G37*
G04 #@! TD.AperFunction*
G04 #@! TD*
G04 #@! TA.AperFunction,Conductor*
G04 #@! TO.N,SDMMC3_CMD*
G36*
X89564811Y-102772302D02*
G01*
X89687867Y-102896774D01*
X89691247Y-102905067D01*
X89687867Y-102913226D01*
X89564811Y-103037697D01*
X89556558Y-103041171D01*
X89549414Y-103038788D01*
X89453466Y-102965911D01*
X89448951Y-102958178D01*
X89448843Y-102956594D01*
X89448843Y-102853405D01*
X89452270Y-102845132D01*
X89453460Y-102844092D01*
X89549415Y-102771210D01*
X89558075Y-102768936D01*
X89564811Y-102772302D01*
G37*
G04 #@! TD.AperFunction*
G04 #@! TD*
G04 #@! TA.AperFunction,Conductor*
G04 #@! TO.N,SDMMC3_D0*
G36*
X89519734Y-101997224D02*
G01*
X89642867Y-102121774D01*
X89646247Y-102130067D01*
X89642867Y-102138226D01*
X89519734Y-102262775D01*
X89511481Y-102266249D01*
X89504436Y-102263940D01*
X89408565Y-102192708D01*
X89403968Y-102185024D01*
X89403843Y-102183317D01*
X89403843Y-102076682D01*
X89407270Y-102068409D01*
X89408560Y-102067295D01*
X89504437Y-101996058D01*
X89513121Y-101993875D01*
X89519734Y-101997224D01*
G37*
G04 #@! TD.AperFunction*
G04 #@! TD*
G04 #@! TA.AperFunction,Conductor*
G04 #@! TO.N,SDMMC3_D0*
G36*
X78417852Y-118305184D02*
G01*
X78419167Y-118306317D01*
X78493284Y-118380436D01*
X78540258Y-118407461D01*
X78545721Y-118414557D01*
X78544565Y-118423436D01*
X78544146Y-118424112D01*
X78447561Y-118568358D01*
X78440110Y-118573325D01*
X78431329Y-118571570D01*
X78429229Y-118569770D01*
X78312898Y-118443346D01*
X78309818Y-118434938D01*
X78312101Y-118428468D01*
X78401490Y-118307630D01*
X78409163Y-118303019D01*
X78417852Y-118305184D01*
G37*
G04 #@! TD.AperFunction*
G04 #@! TD*
G04 #@! TA.AperFunction,Conductor*
G04 #@! TO.N,SDMMC3_D1*
G36*
X78375394Y-119073427D02*
G01*
X78375437Y-119073490D01*
X78454589Y-119191701D01*
X78473488Y-119219925D01*
X78475243Y-119228706D01*
X78470276Y-119236157D01*
X78469239Y-119236776D01*
X78314823Y-119318508D01*
X78305908Y-119319349D01*
X78300183Y-119315437D01*
X78214379Y-119207244D01*
X78211923Y-119198633D01*
X78215272Y-119191702D01*
X78288295Y-119118679D01*
X78289985Y-119117281D01*
X78359145Y-119070320D01*
X78367912Y-119068508D01*
X78375394Y-119073427D01*
G37*
G04 #@! TD.AperFunction*
G04 #@! TD*
G04 #@! TA.AperFunction,Conductor*
G04 #@! TO.N,SDMMC3_D1*
G36*
X92079142Y-100489226D02*
G01*
X92087393Y-100492700D01*
X92090773Y-100500859D01*
X92091775Y-100675888D01*
X92088395Y-100684181D01*
X92081659Y-100687547D01*
X91962279Y-100703860D01*
X91953618Y-100701585D01*
X91952422Y-100700541D01*
X91879458Y-100627577D01*
X91876031Y-100619304D01*
X91876139Y-100617720D01*
X91892452Y-100498339D01*
X91896967Y-100490608D01*
X91904108Y-100488225D01*
X92079142Y-100489226D01*
G37*
G04 #@! TD.AperFunction*
G04 #@! TD*
G04 #@! TA.AperFunction,Conductor*
G04 #@! TO.N,SDMMC3_D2*
G36*
X78169811Y-123237302D02*
G01*
X78292867Y-123361774D01*
X78296247Y-123370067D01*
X78292867Y-123378226D01*
X78169811Y-123502697D01*
X78161558Y-123506171D01*
X78154414Y-123503788D01*
X78058466Y-123430911D01*
X78053951Y-123423178D01*
X78053843Y-123421594D01*
X78053843Y-123318405D01*
X78057270Y-123310132D01*
X78058460Y-123309092D01*
X78154415Y-123236210D01*
X78163075Y-123233936D01*
X78169811Y-123237302D01*
G37*
G04 #@! TD.AperFunction*
G04 #@! TD*
G04 #@! TA.AperFunction,Conductor*
G04 #@! TO.N,SDMMC3_D2*
G36*
X92049100Y-99708274D02*
G01*
X92057041Y-99712410D01*
X92059736Y-99720904D01*
X92045125Y-99895711D01*
X92041021Y-99903669D01*
X92033774Y-99906432D01*
X91916553Y-99909514D01*
X91908192Y-99906306D01*
X91907972Y-99906091D01*
X91835014Y-99833133D01*
X91831587Y-99824860D01*
X91831924Y-99822071D01*
X91861452Y-99701764D01*
X91866751Y-99694548D01*
X91873834Y-99692900D01*
X92049100Y-99708274D01*
G37*
G04 #@! TD.AperFunction*
G04 #@! TD*
G04 #@! TA.AperFunction,Conductor*
G04 #@! TO.N,/RCC_BOOT_RST_DEBUG/T_JTMS{slash}T_SWDIO*
G36*
X92079082Y-93293121D02*
G01*
X92086970Y-93297360D01*
X92089552Y-93305918D01*
X92072182Y-93480795D01*
X92067954Y-93488689D01*
X92060741Y-93491337D01*
X91945265Y-93493334D01*
X91936934Y-93490051D01*
X91936790Y-93489909D01*
X91861395Y-93414514D01*
X91857968Y-93406241D01*
X91858386Y-93403140D01*
X91891219Y-93283974D01*
X91896721Y-93276909D01*
X91903670Y-93275442D01*
X92079082Y-93293121D01*
G37*
G04 #@! TD.AperFunction*
G04 #@! TD*
G04 #@! TA.AperFunction,Conductor*
G04 #@! TO.N,/RCC_BOOT_RST_DEBUG/T_JTMS{slash}T_SWDIO*
G36*
X82869947Y-96492540D02*
G01*
X82875095Y-96495542D01*
X82950564Y-96571011D01*
X82953991Y-96579284D01*
X82952664Y-96584696D01*
X82892653Y-96699712D01*
X82885788Y-96705462D01*
X82878866Y-96705491D01*
X82710457Y-96654112D01*
X82703544Y-96648420D01*
X82702672Y-96639535D01*
X82753324Y-96472077D01*
X82758998Y-96465152D01*
X82767646Y-96464191D01*
X82869947Y-96492540D01*
G37*
G04 #@! TD.AperFunction*
G04 #@! TD*
G04 #@! TA.AperFunction,Conductor*
G04 #@! TO.N,/RCC_BOOT_RST_DEBUG/T_JCLK{slash}T_SWCLK*
G36*
X91985763Y-92267083D02*
G01*
X92103019Y-92277899D01*
X92110941Y-92282072D01*
X92113635Y-92289107D01*
X92120268Y-92464127D01*
X92117157Y-92472524D01*
X92109131Y-92476257D01*
X91933874Y-92484584D01*
X91925448Y-92481553D01*
X91921851Y-92475217D01*
X91897824Y-92356451D01*
X91899543Y-92347666D01*
X91901014Y-92345866D01*
X91976419Y-92270461D01*
X91984691Y-92267035D01*
X91985763Y-92267083D01*
G37*
G04 #@! TD.AperFunction*
G04 #@! TD*
G04 #@! TA.AperFunction,Conductor*
G04 #@! TO.N,/RCC_BOOT_RST_DEBUG/T_JCLK{slash}T_SWCLK*
G36*
X82161590Y-96857270D02*
G01*
X82162708Y-96858565D01*
X82233940Y-96954436D01*
X82236124Y-96963121D01*
X82232775Y-96969734D01*
X82108226Y-97092867D01*
X82099933Y-97096247D01*
X82091774Y-97092867D01*
X81967224Y-96969734D01*
X81963750Y-96961481D01*
X81966058Y-96954438D01*
X82037292Y-96858565D01*
X82044976Y-96853968D01*
X82046683Y-96853843D01*
X82153317Y-96853843D01*
X82161590Y-96857270D01*
G37*
G04 #@! TD.AperFunction*
G04 #@! TD*
G04 #@! TA.AperFunction,Conductor*
G04 #@! TO.N,/RCC_BOOT_RST_DEBUG/T_JTDO{slash}T_SWO*
G36*
X82269598Y-97722000D02*
G01*
X82271919Y-97723800D01*
X82347316Y-97799197D01*
X82350743Y-97807470D01*
X82350735Y-97807894D01*
X82346532Y-97923881D01*
X82342808Y-97932024D01*
X82335815Y-97935116D01*
X82160904Y-97949736D01*
X82152374Y-97947011D01*
X82148274Y-97939100D01*
X82132891Y-97763723D01*
X82135582Y-97755184D01*
X82141631Y-97751372D01*
X82260734Y-97720742D01*
X82269598Y-97722000D01*
G37*
G04 #@! TD.AperFunction*
G04 #@! TD*
G04 #@! TA.AperFunction,Conductor*
G04 #@! TO.N,/RCC_BOOT_RST_DEBUG/T_JTDO{slash}T_SWO*
G36*
X92089082Y-93933121D02*
G01*
X92096970Y-93937360D01*
X92099552Y-93945918D01*
X92082182Y-94120795D01*
X92077954Y-94128689D01*
X92070741Y-94131337D01*
X91955265Y-94133334D01*
X91946934Y-94130051D01*
X91946790Y-94129909D01*
X91871395Y-94054514D01*
X91867968Y-94046241D01*
X91868386Y-94043140D01*
X91901219Y-93923974D01*
X91906721Y-93916909D01*
X91913670Y-93915442D01*
X92089082Y-93933121D01*
G37*
G04 #@! TD.AperFunction*
G04 #@! TD*
G04 #@! TA.AperFunction,Conductor*
G04 #@! TO.N,/RCC_BOOT_RST_DEBUG/T_JTDI{slash}NC*
G36*
X92077524Y-94957842D02*
G01*
X92081257Y-94965868D01*
X92089586Y-95141125D01*
X92086556Y-95149551D01*
X92080219Y-95153148D01*
X91961454Y-95177175D01*
X91952666Y-95175456D01*
X91950861Y-95173980D01*
X91875462Y-95098581D01*
X91872035Y-95090308D01*
X91872084Y-95089233D01*
X91882899Y-94971979D01*
X91887072Y-94964058D01*
X91894104Y-94961365D01*
X92069129Y-94954731D01*
X92077524Y-94957842D01*
G37*
G04 #@! TD.AperFunction*
G04 #@! TD*
G04 #@! TA.AperFunction,Conductor*
G04 #@! TO.N,/RCC_BOOT_RST_DEBUG/T_JTDI{slash}NC*
G36*
X81685064Y-99187122D02*
G01*
X81686359Y-99188240D01*
X81761759Y-99263640D01*
X81765186Y-99271913D01*
X81765061Y-99273620D01*
X81747639Y-99391781D01*
X81743042Y-99399465D01*
X81735997Y-99401774D01*
X81560859Y-99400773D01*
X81552606Y-99397299D01*
X81549226Y-99389142D01*
X81548226Y-99214001D01*
X81551606Y-99205709D01*
X81558216Y-99202361D01*
X81676379Y-99184938D01*
X81685064Y-99187122D01*
G37*
G04 #@! TD.AperFunction*
G04 #@! TD*
G04 #@! TA.AperFunction,Conductor*
G04 #@! TO.N,UART4_RX_STM*
G36*
X106999734Y-94327224D02*
G01*
X107122867Y-94451774D01*
X107126247Y-94460067D01*
X107122867Y-94468226D01*
X106999734Y-94592775D01*
X106991481Y-94596249D01*
X106984436Y-94593940D01*
X106888565Y-94522708D01*
X106883968Y-94515024D01*
X106883843Y-94513317D01*
X106883843Y-94406682D01*
X106887270Y-94398409D01*
X106888560Y-94397295D01*
X106984437Y-94326058D01*
X106993121Y-94323875D01*
X106999734Y-94327224D01*
G37*
G04 #@! TD.AperFunction*
G04 #@! TD*
G04 #@! TA.AperFunction,Conductor*
G04 #@! TO.N,UART4_RX_STM*
G36*
X98745560Y-117686057D02*
G01*
X98841436Y-117757292D01*
X98846032Y-117764975D01*
X98846157Y-117766682D01*
X98846157Y-117873317D01*
X98842730Y-117881590D01*
X98841439Y-117882704D01*
X98747132Y-117952775D01*
X98745563Y-117953941D01*
X98736878Y-117956124D01*
X98730265Y-117952775D01*
X98660996Y-117882709D01*
X98607131Y-117828225D01*
X98603752Y-117819933D01*
X98607132Y-117811774D01*
X98730266Y-117687223D01*
X98738518Y-117683750D01*
X98745560Y-117686057D01*
G37*
G04 #@! TD.AperFunction*
G04 #@! TD*
G04 #@! TA.AperFunction,Conductor*
G04 #@! TO.N,UART4_RX_STM*
G36*
X107549142Y-99509226D02*
G01*
X107557393Y-99512700D01*
X107560773Y-99520859D01*
X107561775Y-99695997D01*
X107558395Y-99704290D01*
X107551782Y-99707639D01*
X107433620Y-99725061D01*
X107424935Y-99722877D01*
X107423640Y-99721759D01*
X107348240Y-99646359D01*
X107344813Y-99638086D01*
X107344938Y-99636379D01*
X107362361Y-99518215D01*
X107366957Y-99510534D01*
X107374001Y-99508225D01*
X107549142Y-99509226D01*
G37*
G04 #@! TD.AperFunction*
G04 #@! TD*
G04 #@! TA.AperFunction,Conductor*
G04 #@! TO.N,UART4_RX_STM*
G36*
X102615560Y-93971057D02*
G01*
X102711436Y-94042292D01*
X102716032Y-94049975D01*
X102716157Y-94051682D01*
X102716157Y-94158317D01*
X102712730Y-94166590D01*
X102711439Y-94167704D01*
X102617132Y-94237775D01*
X102615563Y-94238941D01*
X102606878Y-94241124D01*
X102600265Y-94237775D01*
X102530996Y-94167709D01*
X102477131Y-94113225D01*
X102473752Y-94104933D01*
X102477132Y-94096774D01*
X102600266Y-93972223D01*
X102608518Y-93968750D01*
X102615560Y-93971057D01*
G37*
G04 #@! TD.AperFunction*
G04 #@! TD*
G04 #@! TA.AperFunction,Conductor*
G04 #@! TO.N,UART4_TX_STM*
G36*
X104185560Y-100346057D02*
G01*
X104281436Y-100417292D01*
X104286032Y-100424975D01*
X104286157Y-100426682D01*
X104286157Y-100533317D01*
X104282730Y-100541590D01*
X104281439Y-100542704D01*
X104187132Y-100612775D01*
X104185563Y-100613941D01*
X104176878Y-100616124D01*
X104170265Y-100612775D01*
X104100996Y-100542709D01*
X104047131Y-100488225D01*
X104043752Y-100479933D01*
X104047132Y-100471774D01*
X104170266Y-100347223D01*
X104178518Y-100343750D01*
X104185560Y-100346057D01*
G37*
G04 #@! TD.AperFunction*
G04 #@! TD*
G04 #@! TA.AperFunction,Conductor*
G04 #@! TO.N,UART4_TX_STM*
G36*
X98690161Y-118668731D02*
G01*
X98799977Y-118727493D01*
X98805655Y-118734418D01*
X98806157Y-118737809D01*
X98806157Y-118844440D01*
X98802834Y-118852608D01*
X98733064Y-118924169D01*
X98724835Y-118927700D01*
X98718214Y-118925747D01*
X98655427Y-118884045D01*
X98569554Y-118827010D01*
X98564559Y-118819579D01*
X98566282Y-118810792D01*
X98566816Y-118810052D01*
X98675446Y-118671818D01*
X98683251Y-118667431D01*
X98690161Y-118668731D01*
G37*
G04 #@! TD.AperFunction*
G04 #@! TD*
G04 #@! TA.AperFunction,Conductor*
G04 #@! TO.N,USB_D-*
G36*
X87176009Y-120106942D02*
G01*
X87214800Y-120116969D01*
X87326903Y-120116969D01*
X87335176Y-120120396D01*
X87338603Y-120128669D01*
X87338529Y-120129984D01*
X87322230Y-120274134D01*
X87317895Y-120281969D01*
X87311636Y-120284473D01*
X87140537Y-120299624D01*
X87131994Y-120296941D01*
X87127851Y-120289002D01*
X87128028Y-120285699D01*
X87128271Y-120284473D01*
X87161612Y-120115999D01*
X87166578Y-120108550D01*
X87175359Y-120106795D01*
X87176009Y-120106942D01*
G37*
G04 #@! TD.AperFunction*
G04 #@! TD*
G04 #@! TA.AperFunction,Conductor*
G04 #@! TO.N,USB_D-*
G36*
X87682861Y-118809637D02*
G01*
X87685635Y-118812238D01*
X87790260Y-118948647D01*
X87792576Y-118957298D01*
X87789751Y-118963507D01*
X87697152Y-119068507D01*
X87689110Y-119072445D01*
X87680638Y-119069543D01*
X87680104Y-119069041D01*
X87600385Y-118989322D01*
X87600384Y-118989321D01*
X87574052Y-118972708D01*
X87568885Y-118965397D01*
X87570401Y-118956571D01*
X87570540Y-118956356D01*
X87666631Y-118812847D01*
X87674080Y-118807882D01*
X87682861Y-118809637D01*
G37*
G04 #@! TD.AperFunction*
G04 #@! TD*
G04 #@! TA.AperFunction,Conductor*
G04 #@! TO.N,USB_D+*
G36*
X88214142Y-118799226D02*
G01*
X88222393Y-118802700D01*
X88225773Y-118810859D01*
X88226777Y-118986204D01*
X88223397Y-118994497D01*
X88217020Y-118997809D01*
X88101154Y-119017322D01*
X88092427Y-119015316D01*
X88090938Y-119014057D01*
X88010942Y-118934061D01*
X88007515Y-118925788D01*
X88007676Y-118923856D01*
X88027190Y-118807979D01*
X88031944Y-118800391D01*
X88038792Y-118798223D01*
X88214142Y-118799226D01*
G37*
G04 #@! TD.AperFunction*
G04 #@! TD*
G04 #@! TA.AperFunction,Conductor*
G04 #@! TO.N,USB_D+*
G36*
X87632850Y-120108192D02*
G01*
X87638239Y-120115344D01*
X87638388Y-120116001D01*
X87671971Y-120285699D01*
X87670216Y-120294480D01*
X87662765Y-120299447D01*
X87659462Y-120299624D01*
X87488363Y-120284473D01*
X87480424Y-120280330D01*
X87477769Y-120274133D01*
X87461471Y-120129983D01*
X87463947Y-120121378D01*
X87471783Y-120117043D01*
X87473097Y-120116969D01*
X87585199Y-120116969D01*
X87585200Y-120116969D01*
X87623984Y-120106944D01*
X87632850Y-120108192D01*
G37*
G04 #@! TD.AperFunction*
G04 #@! TD*
G04 #@! TA.AperFunction,Conductor*
G04 #@! TO.N,/DDR/DDR_DQ1*
G36*
X90017502Y-87603333D02*
G01*
X90024841Y-87606723D01*
X90091447Y-87673329D01*
X90094874Y-87681602D01*
X90094420Y-87684831D01*
X90058958Y-87808334D01*
X90053381Y-87815340D01*
X90046100Y-87816693D01*
X89871609Y-87792420D01*
X89863887Y-87787886D01*
X89861633Y-87779220D01*
X89861748Y-87778536D01*
X89896964Y-87604019D01*
X89901960Y-87596588D01*
X89909364Y-87594671D01*
X90017502Y-87603333D01*
G37*
G04 #@! TD.AperFunction*
G04 #@! TD*
G04 #@! TA.AperFunction,Conductor*
G04 #@! TO.N,/DDR/DDR_DQ1*
G36*
X95134442Y-71739750D02*
G01*
X95137962Y-71747853D01*
X95141926Y-71922646D01*
X95138688Y-71930994D01*
X95131746Y-71934512D01*
X95008919Y-71950575D01*
X95000272Y-71948250D01*
X94999129Y-71947247D01*
X94932537Y-71880655D01*
X94929110Y-71872382D01*
X94929155Y-71871357D01*
X94939908Y-71749105D01*
X94944046Y-71741167D01*
X94951424Y-71738434D01*
X95126131Y-71736419D01*
X95134442Y-71739750D01*
G37*
G04 #@! TD.AperFunction*
G04 #@! TD*
G04 #@! TA.AperFunction,Conductor*
G04 #@! TO.N,/DDR/DDR_DQ4*
G36*
X94225634Y-88106604D02*
G01*
X94321781Y-88183787D01*
X94326088Y-88191638D01*
X94326157Y-88192911D01*
X94326157Y-88287088D01*
X94322730Y-88295361D01*
X94321781Y-88296212D01*
X94225634Y-88373395D01*
X94217037Y-88375902D01*
X94209990Y-88372497D01*
X94087131Y-88248225D01*
X94083752Y-88239933D01*
X94087132Y-88231774D01*
X94209992Y-88107501D01*
X94218243Y-88104028D01*
X94225634Y-88106604D01*
G37*
G04 #@! TD.AperFunction*
G04 #@! TD*
G04 #@! TA.AperFunction,Conductor*
G04 #@! TO.N,/DDR/DDR_DQ4*
G36*
X100153899Y-70921607D02*
G01*
X100157304Y-70928655D01*
X100170712Y-71051218D01*
X100168205Y-71059814D01*
X100167354Y-71060763D01*
X100100763Y-71127354D01*
X100092490Y-71130781D01*
X100091218Y-71130712D01*
X99968655Y-71117304D01*
X99960803Y-71112997D01*
X99958227Y-71105606D01*
X99959226Y-70930856D01*
X99962700Y-70922606D01*
X99970856Y-70919226D01*
X100145606Y-70918227D01*
X100153899Y-70921607D01*
G37*
G04 #@! TD.AperFunction*
G04 #@! TD*
G04 #@! TA.AperFunction,Conductor*
G04 #@! TO.N,/DDR/DDR_DQ7*
G36*
X90079814Y-88181794D02*
G01*
X90080763Y-88182645D01*
X90147354Y-88249236D01*
X90150781Y-88257509D01*
X90150712Y-88258781D01*
X90137304Y-88381344D01*
X90132997Y-88389196D01*
X90125606Y-88391772D01*
X89950859Y-88390773D01*
X89942606Y-88387299D01*
X89939226Y-88379142D01*
X89938227Y-88204392D01*
X89941607Y-88196100D01*
X89948653Y-88192695D01*
X90071218Y-88179287D01*
X90079814Y-88181794D01*
G37*
G04 #@! TD.AperFunction*
G04 #@! TD*
G04 #@! TA.AperFunction,Conductor*
G04 #@! TO.N,/DDR/DDR_DQ7*
G36*
X96126542Y-70295811D02*
G01*
X96134793Y-70299285D01*
X96138173Y-70307444D01*
X96139172Y-70482191D01*
X96135792Y-70490484D01*
X96128744Y-70493889D01*
X96006181Y-70507297D01*
X95997585Y-70504790D01*
X95996636Y-70503939D01*
X95930045Y-70437348D01*
X95926618Y-70429075D01*
X95926687Y-70427803D01*
X95939854Y-70307444D01*
X95940095Y-70305238D01*
X95944402Y-70297388D01*
X95951792Y-70294812D01*
X96126542Y-70295811D01*
G37*
G04 #@! TD.AperFunction*
G04 #@! TD*
G04 #@! TA.AperFunction,Conductor*
G04 #@! TO.N,/DDR/DDR_DQ6*
G36*
X92551806Y-88028782D02*
G01*
X92618630Y-88095606D01*
X92618914Y-88095900D01*
X92686919Y-88168832D01*
X92690055Y-88177220D01*
X92686341Y-88185368D01*
X92684872Y-88186533D01*
X92539332Y-88283984D01*
X92530551Y-88285739D01*
X92523100Y-88280772D01*
X92522896Y-88280456D01*
X92429206Y-88130315D01*
X92427733Y-88121482D01*
X92431639Y-88115136D01*
X92536040Y-88028070D01*
X92544588Y-88025403D01*
X92551806Y-88028782D01*
G37*
G04 #@! TD.AperFunction*
G04 #@! TD*
G04 #@! TA.AperFunction,Conductor*
G04 #@! TO.N,/DDR/DDR_DQ6*
G36*
X98315626Y-72593717D02*
G01*
X98439897Y-72716575D01*
X98443371Y-72724828D01*
X98440795Y-72732219D01*
X98363613Y-72828366D01*
X98355762Y-72832673D01*
X98354489Y-72832742D01*
X98260311Y-72832742D01*
X98252038Y-72829315D01*
X98251187Y-72828366D01*
X98174004Y-72732219D01*
X98171497Y-72723622D01*
X98174900Y-72716577D01*
X98299174Y-72593716D01*
X98307467Y-72590337D01*
X98315626Y-72593717D01*
G37*
G04 #@! TD.AperFunction*
G04 #@! TD*
G04 #@! TA.AperFunction,Conductor*
G04 #@! TO.N,/DDR/DDR_DQM0*
G36*
X96161486Y-72581753D02*
G01*
X96336012Y-72616970D01*
X96343443Y-72621966D01*
X96345362Y-72629338D01*
X96337063Y-72737073D01*
X96333671Y-72744447D01*
X96267063Y-72811055D01*
X96258790Y-72814482D01*
X96255591Y-72814036D01*
X96132084Y-72778934D01*
X96125063Y-72773376D01*
X96123691Y-72766092D01*
X96147601Y-72591636D01*
X96152120Y-72583906D01*
X96160782Y-72581634D01*
X96161486Y-72581753D01*
G37*
G04 #@! TD.AperFunction*
G04 #@! TD*
G04 #@! TA.AperFunction,Conductor*
G04 #@! TO.N,/DDR/DDR_DQM0*
G36*
X90590207Y-88221154D02*
G01*
X90591073Y-88221794D01*
X90663779Y-88280843D01*
X90664676Y-88281652D01*
X90731421Y-88348397D01*
X90734848Y-88356670D01*
X90732334Y-88363917D01*
X90647314Y-88471685D01*
X90639499Y-88476057D01*
X90632289Y-88474577D01*
X90480140Y-88386954D01*
X90474681Y-88379855D01*
X90475840Y-88370976D01*
X90476244Y-88370325D01*
X90573977Y-88224364D01*
X90581426Y-88219399D01*
X90590207Y-88221154D01*
G37*
G04 #@! TD.AperFunction*
G04 #@! TD*
G04 #@! TA.AperFunction,Conductor*
G04 #@! TO.N,/DDR/DDR_DQ2*
G36*
X93115362Y-88037270D02*
G01*
X93116213Y-88038219D01*
X93193395Y-88134365D01*
X93195902Y-88142962D01*
X93192497Y-88150009D01*
X93068226Y-88272867D01*
X93059933Y-88276247D01*
X93051774Y-88272867D01*
X92927502Y-88150009D01*
X92924028Y-88141756D01*
X92926604Y-88134365D01*
X93003787Y-88038219D01*
X93011639Y-88033912D01*
X93012911Y-88033843D01*
X93107089Y-88033843D01*
X93115362Y-88037270D01*
G37*
G04 #@! TD.AperFunction*
G04 #@! TD*
G04 #@! TA.AperFunction,Conductor*
G04 #@! TO.N,/DDR/DDR_DQ2*
G36*
X99175626Y-70143717D02*
G01*
X99299897Y-70266575D01*
X99303371Y-70274828D01*
X99300795Y-70282219D01*
X99223613Y-70378366D01*
X99215762Y-70382673D01*
X99214489Y-70382742D01*
X99120311Y-70382742D01*
X99112038Y-70379315D01*
X99111187Y-70378366D01*
X99034004Y-70282219D01*
X99031497Y-70273622D01*
X99034900Y-70266577D01*
X99159174Y-70143716D01*
X99167467Y-70140337D01*
X99175626Y-70143717D01*
G37*
G04 #@! TD.AperFunction*
G04 #@! TD*
G04 #@! TA.AperFunction,Conductor*
G04 #@! TO.N,/DDR/DDR_DQS0_P*
G36*
X91304161Y-89087270D02*
G01*
X91304961Y-89088155D01*
X91383291Y-89184353D01*
X91385857Y-89192933D01*
X91382444Y-89200061D01*
X91258226Y-89322867D01*
X91249933Y-89326247D01*
X91241774Y-89322867D01*
X91117555Y-89200061D01*
X91114081Y-89191808D01*
X91116707Y-89184354D01*
X91195039Y-89088155D01*
X91202920Y-89083904D01*
X91204112Y-89083843D01*
X91295888Y-89083843D01*
X91304161Y-89087270D01*
G37*
G04 #@! TD.AperFunction*
G04 #@! TD*
G04 #@! TA.AperFunction,Conductor*
G04 #@! TO.N,/DDR/DDR_DQS0_P*
G36*
X97977846Y-70870126D02*
G01*
X98101264Y-70882761D01*
X98109145Y-70887012D01*
X98111772Y-70894467D01*
X98110773Y-71069140D01*
X98107299Y-71077393D01*
X98099140Y-71080773D01*
X97924467Y-71081772D01*
X97916174Y-71078392D01*
X97912761Y-71071264D01*
X97900127Y-70947853D01*
X97902693Y-70939273D01*
X97903483Y-70938398D01*
X97968389Y-70873492D01*
X97976661Y-70870066D01*
X97977846Y-70870126D01*
G37*
G04 #@! TD.AperFunction*
G04 #@! TD*
G04 #@! TA.AperFunction,Conductor*
G04 #@! TO.N,/DDR/DDR_RESETN*
G36*
X94040718Y-92002074D02*
G01*
X94212322Y-92043853D01*
X94219549Y-92049140D01*
X94221059Y-92057348D01*
X94201440Y-92163484D01*
X94198208Y-92169630D01*
X94122679Y-92245159D01*
X94114406Y-92248586D01*
X94109763Y-92247625D01*
X93993785Y-92197479D01*
X93987551Y-92191050D01*
X93987022Y-92184132D01*
X94026648Y-92010856D01*
X94031832Y-92003558D01*
X94040661Y-92002061D01*
X94040718Y-92002074D01*
G37*
G04 #@! TD.AperFunction*
G04 #@! TD*
G04 #@! TA.AperFunction,Conductor*
G04 #@! TO.N,/DDR/DDR_RESETN*
G36*
X97597561Y-87732891D02*
G01*
X97601414Y-87740876D01*
X97612124Y-87916173D01*
X97609208Y-87924639D01*
X97602966Y-87928311D01*
X97484061Y-87954539D01*
X97475244Y-87952975D01*
X97473268Y-87951387D01*
X97397868Y-87875987D01*
X97394441Y-87867714D01*
X97394472Y-87866877D01*
X97403085Y-87749980D01*
X97407110Y-87741983D01*
X97414132Y-87739158D01*
X97589120Y-87729905D01*
X97597561Y-87732891D01*
G37*
G04 #@! TD.AperFunction*
G04 #@! TD*
G04 #@! TA.AperFunction,Conductor*
G04 #@! TO.N,/DDR/DDR_DQS0_N*
G36*
X97959796Y-70434494D02*
G01*
X98085932Y-70555287D01*
X98089537Y-70563484D01*
X98086376Y-70571738D01*
X97966810Y-70699297D01*
X97963237Y-70700914D01*
X97959849Y-70702889D01*
X97959233Y-70702726D01*
X97958652Y-70702990D01*
X97951190Y-70700608D01*
X97937480Y-70690178D01*
X97936291Y-70689139D01*
X97896980Y-70649828D01*
X97896979Y-70649827D01*
X97885934Y-70645252D01*
X97870847Y-70639002D01*
X97868241Y-70637505D01*
X97851752Y-70624961D01*
X97847243Y-70617224D01*
X97847136Y-70615649D01*
X97847136Y-70523873D01*
X97850563Y-70515600D01*
X97851134Y-70515065D01*
X97944018Y-70434122D01*
X97952506Y-70431272D01*
X97959796Y-70434494D01*
G37*
G04 #@! TD.AperFunction*
G04 #@! TD*
G04 #@! TA.AperFunction,Conductor*
G04 #@! TO.N,/DDR/DDR_DQS0_N*
G36*
X90930726Y-88892693D02*
G01*
X90931611Y-88893493D01*
X90996506Y-88958388D01*
X90999933Y-88966661D01*
X90999872Y-88967853D01*
X90987238Y-89091264D01*
X90982987Y-89099145D01*
X90975532Y-89101772D01*
X90800859Y-89100773D01*
X90792606Y-89097299D01*
X90789226Y-89089142D01*
X90788227Y-88914465D01*
X90791607Y-88906174D01*
X90798734Y-88902761D01*
X90922147Y-88890127D01*
X90930726Y-88892693D01*
G37*
G04 #@! TD.AperFunction*
G04 #@! TD*
G04 #@! TA.AperFunction,Conductor*
G04 #@! TO.N,/DDR/DDR_DQ3*
G36*
X94336542Y-70105811D02*
G01*
X94344793Y-70109285D01*
X94348173Y-70117444D01*
X94349172Y-70292191D01*
X94345792Y-70300484D01*
X94338744Y-70303889D01*
X94216181Y-70317297D01*
X94207585Y-70314790D01*
X94206636Y-70313939D01*
X94140045Y-70247348D01*
X94136618Y-70239075D01*
X94136687Y-70237803D01*
X94149854Y-70117444D01*
X94150095Y-70115238D01*
X94154402Y-70107388D01*
X94161792Y-70104812D01*
X94336542Y-70105811D01*
G37*
G04 #@! TD.AperFunction*
G04 #@! TD*
G04 #@! TA.AperFunction,Conductor*
G04 #@! TO.N,/DDR/DDR_DQ3*
G36*
X89355362Y-87057270D02*
G01*
X89356213Y-87058219D01*
X89433395Y-87154365D01*
X89435902Y-87162962D01*
X89432497Y-87170009D01*
X89308226Y-87292867D01*
X89299933Y-87296247D01*
X89291774Y-87292867D01*
X89167502Y-87170009D01*
X89164028Y-87161756D01*
X89166604Y-87154365D01*
X89243787Y-87058219D01*
X89251639Y-87053912D01*
X89252911Y-87053843D01*
X89347089Y-87053843D01*
X89355362Y-87057270D01*
G37*
G04 #@! TD.AperFunction*
G04 #@! TD*
G04 #@! TA.AperFunction,Conductor*
G04 #@! TO.N,/DDR/DDR_DQ5*
G36*
X99996416Y-71703156D02*
G01*
X99997416Y-71703899D01*
X100131600Y-71815280D01*
X100135777Y-71823201D01*
X100134001Y-71830559D01*
X100066147Y-71937318D01*
X100058817Y-71942462D01*
X100056273Y-71942742D01*
X99962097Y-71942742D01*
X99953883Y-71939374D01*
X99951797Y-71937318D01*
X99883154Y-71869649D01*
X99879668Y-71861401D01*
X99881621Y-71854845D01*
X99980198Y-71706428D01*
X99987629Y-71701433D01*
X99996416Y-71703156D01*
G37*
G04 #@! TD.AperFunction*
G04 #@! TD*
G04 #@! TA.AperFunction,Conductor*
G04 #@! TO.N,/DDR/DDR_DQ5*
G36*
X93632778Y-88005652D02*
G01*
X93699385Y-88072259D01*
X93701694Y-88075540D01*
X93731996Y-88139776D01*
X93732426Y-88148721D01*
X93727924Y-88154490D01*
X93581125Y-88252784D01*
X93572344Y-88254539D01*
X93564893Y-88249572D01*
X93563815Y-88247563D01*
X93497560Y-88088594D01*
X93497541Y-88079639D01*
X93502308Y-88074081D01*
X93618456Y-88003910D01*
X93627308Y-88002566D01*
X93632778Y-88005652D01*
G37*
G04 #@! TD.AperFunction*
G04 #@! TD*
G04 #@! TA.AperFunction,Conductor*
G04 #@! TO.N,/DDR/DDR_CKE*
G36*
X101945634Y-77416605D02*
G01*
X102041781Y-77493788D01*
X102046088Y-77501639D01*
X102046157Y-77502912D01*
X102046157Y-77597089D01*
X102042730Y-77605362D01*
X102041781Y-77606213D01*
X101945634Y-77683396D01*
X101937037Y-77685903D01*
X101929990Y-77682498D01*
X101807131Y-77558226D01*
X101803752Y-77549934D01*
X101807132Y-77541775D01*
X101929992Y-77417502D01*
X101938243Y-77414029D01*
X101945634Y-77416605D01*
G37*
G04 #@! TD.AperFunction*
G04 #@! TD*
G04 #@! TA.AperFunction,Conductor*
G04 #@! TO.N,/DDR/DDR_CKE*
G36*
X100657214Y-88851794D02*
G01*
X100658163Y-88852645D01*
X100724754Y-88919236D01*
X100728181Y-88927509D01*
X100728112Y-88928781D01*
X100714704Y-89051344D01*
X100710397Y-89059196D01*
X100703006Y-89061772D01*
X100528259Y-89060773D01*
X100520006Y-89057299D01*
X100516626Y-89049142D01*
X100515627Y-88874392D01*
X100519007Y-88866100D01*
X100526053Y-88862695D01*
X100648618Y-88849287D01*
X100657214Y-88851794D01*
G37*
G04 #@! TD.AperFunction*
G04 #@! TD*
G04 #@! TA.AperFunction,Conductor*
G04 #@! TO.N,/DDR/DDR_DQ0*
G36*
X94398226Y-71697132D02*
G01*
X94522497Y-71819990D01*
X94525971Y-71828243D01*
X94523395Y-71835634D01*
X94446213Y-71931781D01*
X94438362Y-71936088D01*
X94437089Y-71936157D01*
X94342911Y-71936157D01*
X94334638Y-71932730D01*
X94333787Y-71931781D01*
X94256604Y-71835634D01*
X94254097Y-71827037D01*
X94257500Y-71819992D01*
X94381774Y-71697131D01*
X94390067Y-71693752D01*
X94398226Y-71697132D01*
G37*
G04 #@! TD.AperFunction*
G04 #@! TD*
G04 #@! TA.AperFunction,Conductor*
G04 #@! TO.N,/DDR/DDR_DQ0*
G36*
X89515362Y-91797270D02*
G01*
X89516213Y-91798219D01*
X89593395Y-91894365D01*
X89595902Y-91902962D01*
X89592497Y-91910009D01*
X89468226Y-92032867D01*
X89459933Y-92036247D01*
X89451774Y-92032867D01*
X89327502Y-91910009D01*
X89324028Y-91901756D01*
X89326604Y-91894365D01*
X89403787Y-91798219D01*
X89411639Y-91793912D01*
X89412911Y-91793843D01*
X89507089Y-91793843D01*
X89515362Y-91797270D01*
G37*
G04 #@! TD.AperFunction*
G04 #@! TD*
G04 #@! TA.AperFunction,Conductor*
G04 #@! TO.N,SDMMC1_D3*
G36*
X73774384Y-86764825D02*
G01*
X73779121Y-86771323D01*
X73786721Y-86797840D01*
X73800445Y-86845719D01*
X73800898Y-86848943D01*
X73800898Y-86943169D01*
X73797471Y-86951442D01*
X73791564Y-86954627D01*
X73657257Y-86982361D01*
X73648462Y-86980678D01*
X73643923Y-86974974D01*
X73583779Y-86812879D01*
X73584114Y-86803930D01*
X73590678Y-86797840D01*
X73592466Y-86797334D01*
X73765604Y-86763070D01*
X73774384Y-86764825D01*
G37*
G04 #@! TD.AperFunction*
G04 #@! TD*
G04 #@! TA.AperFunction,Conductor*
G04 #@! TO.N,SDMMC1_D3*
G36*
X81620009Y-86767502D02*
G01*
X81742867Y-86891774D01*
X81746247Y-86900067D01*
X81742867Y-86908226D01*
X81620009Y-87032497D01*
X81611756Y-87035971D01*
X81604365Y-87033395D01*
X81508219Y-86956212D01*
X81503912Y-86948360D01*
X81503843Y-86947088D01*
X81503843Y-86852911D01*
X81507270Y-86844638D01*
X81508219Y-86843787D01*
X81604365Y-86766603D01*
X81612961Y-86764097D01*
X81620009Y-86767502D01*
G37*
G04 #@! TD.AperFunction*
G04 #@! TD*
G04 #@! TA.AperFunction,Conductor*
G04 #@! TO.N,SDMMC3_D3*
G36*
X78466381Y-124048414D02*
G01*
X78467577Y-124049458D01*
X78540541Y-124122422D01*
X78543968Y-124130695D01*
X78543860Y-124132279D01*
X78527547Y-124251658D01*
X78523032Y-124259391D01*
X78515888Y-124261774D01*
X78340859Y-124260773D01*
X78332606Y-124257299D01*
X78329226Y-124249142D01*
X78328226Y-124074109D01*
X78331606Y-124065818D01*
X78338340Y-124062452D01*
X78457720Y-124046139D01*
X78466381Y-124048414D01*
G37*
G04 #@! TD.AperFunction*
G04 #@! TD*
G04 #@! TA.AperFunction,Conductor*
G04 #@! TO.N,SDMMC3_D3*
G36*
X90469142Y-102119226D02*
G01*
X90477393Y-102122700D01*
X90480773Y-102130859D01*
X90481775Y-102305888D01*
X90478395Y-102314181D01*
X90471659Y-102317547D01*
X90352279Y-102333860D01*
X90343618Y-102331585D01*
X90342422Y-102330541D01*
X90269458Y-102257577D01*
X90266031Y-102249304D01*
X90266139Y-102247720D01*
X90282452Y-102128339D01*
X90286967Y-102120608D01*
X90294108Y-102118225D01*
X90469142Y-102119226D01*
G37*
G04 #@! TD.AperFunction*
G04 #@! TD*
G04 #@! TA.AperFunction,Conductor*
G04 #@! TO.N,SDMMC3_CK*
G36*
X89134937Y-103212008D02*
G01*
X89253185Y-103341446D01*
X89256235Y-103349865D01*
X89252523Y-103357897D01*
X89124463Y-103477212D01*
X89116074Y-103480345D01*
X89108945Y-103477596D01*
X89018001Y-103400906D01*
X89013885Y-103392953D01*
X89013843Y-103391962D01*
X89013843Y-103288774D01*
X89017270Y-103280501D01*
X89018934Y-103279119D01*
X89119697Y-103210239D01*
X89128460Y-103208400D01*
X89134937Y-103212008D01*
G37*
G04 #@! TD.AperFunction*
G04 #@! TD*
G04 #@! TA.AperFunction,Conductor*
G04 #@! TO.N,SDMMC3_CK*
G36*
X77409867Y-121337270D02*
G01*
X77410911Y-121338466D01*
X77483788Y-121434414D01*
X77486063Y-121443075D01*
X77482697Y-121449811D01*
X77358226Y-121572867D01*
X77349933Y-121576247D01*
X77341774Y-121572867D01*
X77217302Y-121449811D01*
X77213828Y-121441558D01*
X77216210Y-121434415D01*
X77289089Y-121338466D01*
X77296822Y-121333951D01*
X77298406Y-121333843D01*
X77401594Y-121333843D01*
X77409867Y-121337270D01*
G37*
G04 #@! TD.AperFunction*
G04 #@! TD*
G04 #@! TA.AperFunction,Conductor*
G04 #@! TO.N,UART8_TX_STM*
G36*
X67044181Y-126401605D02*
G01*
X67047547Y-126408341D01*
X67063860Y-126527720D01*
X67061585Y-126536381D01*
X67060541Y-126537577D01*
X66987577Y-126610541D01*
X66979304Y-126613968D01*
X66977720Y-126613860D01*
X66858341Y-126597547D01*
X66850608Y-126593032D01*
X66848225Y-126585890D01*
X66849226Y-126410856D01*
X66852700Y-126402606D01*
X66860856Y-126399226D01*
X67035889Y-126398225D01*
X67044181Y-126401605D01*
G37*
G04 #@! TD.AperFunction*
G04 #@! TD*
G04 #@! TA.AperFunction,Conductor*
G04 #@! TO.N,UART8_TX_STM*
G36*
X90409100Y-104558274D02*
G01*
X90417041Y-104562410D01*
X90419736Y-104570904D01*
X90405125Y-104745711D01*
X90401021Y-104753669D01*
X90393774Y-104756432D01*
X90276553Y-104759514D01*
X90268192Y-104756306D01*
X90267972Y-104756091D01*
X90195014Y-104683133D01*
X90191587Y-104674860D01*
X90191924Y-104672071D01*
X90221452Y-104551764D01*
X90226751Y-104544548D01*
X90233834Y-104542900D01*
X90409100Y-104558274D01*
G37*
G04 #@! TD.AperFunction*
G04 #@! TD*
G04 #@! TA.AperFunction,Conductor*
G04 #@! TO.N,UART8_RX_STM*
G36*
X67569006Y-127645996D02*
G01*
X67616239Y-127730000D01*
X67621822Y-127739928D01*
X67623324Y-127745662D01*
X67623324Y-127848948D01*
X67619897Y-127857221D01*
X67615300Y-127860055D01*
X67491776Y-127900937D01*
X67482845Y-127900284D01*
X67477792Y-127895365D01*
X67394525Y-127740289D01*
X67393630Y-127731379D01*
X67399278Y-127724457D01*
X67553256Y-127641431D01*
X67562164Y-127640521D01*
X67569006Y-127645996D01*
G37*
G04 #@! TD.AperFunction*
G04 #@! TD*
G04 #@! TA.AperFunction,Conductor*
G04 #@! TO.N,UART8_RX_STM*
G36*
X91474181Y-102101605D02*
G01*
X91477547Y-102108341D01*
X91493860Y-102227720D01*
X91491585Y-102236381D01*
X91490541Y-102237577D01*
X91417577Y-102310541D01*
X91409304Y-102313968D01*
X91407720Y-102313860D01*
X91288341Y-102297547D01*
X91280608Y-102293032D01*
X91278225Y-102285890D01*
X91279226Y-102110856D01*
X91282700Y-102102606D01*
X91290856Y-102099226D01*
X91465889Y-102098225D01*
X91474181Y-102101605D01*
G37*
G04 #@! TD.AperFunction*
G04 #@! TD*
G04 #@! TA.AperFunction,Conductor*
G04 #@! TO.N,UART8_CTS_STM*
G36*
X88819867Y-111067270D02*
G01*
X88820911Y-111068466D01*
X88893788Y-111164414D01*
X88896063Y-111173075D01*
X88892697Y-111179811D01*
X88768226Y-111302867D01*
X88759933Y-111306247D01*
X88751774Y-111302867D01*
X88627302Y-111179811D01*
X88623828Y-111171558D01*
X88626210Y-111164415D01*
X88699089Y-111068466D01*
X88706822Y-111063951D01*
X88708406Y-111063843D01*
X88811594Y-111063843D01*
X88819867Y-111067270D01*
G37*
G04 #@! TD.AperFunction*
G04 #@! TD*
G04 #@! TA.AperFunction,Conductor*
G04 #@! TO.N,UART8_CTS_STM*
G36*
X92878226Y-104517132D02*
G01*
X93002697Y-104640188D01*
X93006171Y-104648441D01*
X93003788Y-104655585D01*
X92930911Y-104751534D01*
X92923178Y-104756049D01*
X92921594Y-104756157D01*
X92818406Y-104756157D01*
X92810133Y-104752730D01*
X92809089Y-104751534D01*
X92736211Y-104655585D01*
X92733936Y-104646924D01*
X92737300Y-104640190D01*
X92861774Y-104517131D01*
X92870067Y-104513752D01*
X92878226Y-104517132D01*
G37*
G04 #@! TD.AperFunction*
G04 #@! TD*
G04 #@! TA.AperFunction,Conductor*
G04 #@! TO.N,UART8_RTS_STM*
G36*
X92088226Y-102907132D02*
G01*
X92212697Y-103030188D01*
X92216171Y-103038441D01*
X92213788Y-103045585D01*
X92140911Y-103141534D01*
X92133178Y-103146049D01*
X92131594Y-103146157D01*
X92028406Y-103146157D01*
X92020133Y-103142730D01*
X92019089Y-103141534D01*
X91946211Y-103045585D01*
X91943936Y-103036924D01*
X91947300Y-103030190D01*
X92071774Y-102907131D01*
X92080067Y-102903752D01*
X92088226Y-102907132D01*
G37*
G04 #@! TD.AperFunction*
G04 #@! TD*
G04 #@! TA.AperFunction,Conductor*
G04 #@! TO.N,UART8_RTS_STM*
G36*
X66474181Y-127721605D02*
G01*
X66477547Y-127728341D01*
X66493860Y-127847720D01*
X66491585Y-127856381D01*
X66490541Y-127857577D01*
X66417577Y-127930541D01*
X66409304Y-127933968D01*
X66407720Y-127933860D01*
X66288341Y-127917547D01*
X66280608Y-127913032D01*
X66278225Y-127905890D01*
X66279226Y-127730856D01*
X66282700Y-127722606D01*
X66290856Y-127719226D01*
X66465889Y-127718225D01*
X66474181Y-127721605D01*
G37*
G04 #@! TD.AperFunction*
G04 #@! TD*
G04 #@! TA.AperFunction,Conductor*
G04 #@! TO.N,Net-(D601-K)*
G36*
X102973619Y-108834937D02*
G01*
X103091782Y-108852361D01*
X103099465Y-108856957D01*
X103101774Y-108864002D01*
X103100773Y-109039140D01*
X103097299Y-109047393D01*
X103089140Y-109050773D01*
X102914002Y-109051774D01*
X102905709Y-109048394D01*
X102902361Y-109041783D01*
X102884938Y-108923619D01*
X102887122Y-108914935D01*
X102888233Y-108913647D01*
X102963641Y-108838239D01*
X102971913Y-108834813D01*
X102973619Y-108834937D01*
G37*
G04 #@! TD.AperFunction*
G04 #@! TD*
G04 #@! TA.AperFunction,Conductor*
G04 #@! TO.N,Net-(D601-K)*
G36*
X101818226Y-105447132D02*
G01*
X101942775Y-105570265D01*
X101946249Y-105578518D01*
X101943941Y-105585562D01*
X101872707Y-105681435D01*
X101865024Y-105686032D01*
X101863317Y-105686157D01*
X101756683Y-105686157D01*
X101748410Y-105682730D01*
X101747292Y-105681435D01*
X101676059Y-105585563D01*
X101673875Y-105576878D01*
X101677222Y-105570267D01*
X101801774Y-105447131D01*
X101810067Y-105443752D01*
X101818226Y-105447132D01*
G37*
G04 #@! TD.AperFunction*
G04 #@! TD*
G04 #@! TA.AperFunction,Conductor*
G04 #@! TO.N,Net-(D602-K)*
G36*
X100880017Y-104435043D02*
G01*
X101031869Y-104526658D01*
X101037183Y-104533866D01*
X101036778Y-104540790D01*
X100992049Y-104659880D01*
X100985932Y-104666420D01*
X100981096Y-104667466D01*
X100874302Y-104667466D01*
X100867875Y-104665543D01*
X100778077Y-104606509D01*
X100773046Y-104599100D01*
X100774430Y-104590781D01*
X100863994Y-104439165D01*
X100871152Y-104433787D01*
X100880017Y-104435043D01*
G37*
G04 #@! TD.AperFunction*
G04 #@! TD*
G04 #@! TA.AperFunction,Conductor*
G04 #@! TO.N,Net-(D602-K)*
G36*
X102073619Y-108854937D02*
G01*
X102191782Y-108872361D01*
X102199465Y-108876957D01*
X102201774Y-108884002D01*
X102200773Y-109059140D01*
X102197299Y-109067393D01*
X102189140Y-109070773D01*
X102014002Y-109071774D01*
X102005709Y-109068394D01*
X102002361Y-109061783D01*
X101984938Y-108943619D01*
X101987122Y-108934935D01*
X101988233Y-108933647D01*
X102063641Y-108858239D01*
X102071913Y-108854813D01*
X102073619Y-108854937D01*
G37*
G04 #@! TD.AperFunction*
G04 #@! TD*
G04 #@! TA.AperFunction,Conductor*
G04 #@! TO.N,DSI_CK_P*
G36*
X86072093Y-83281141D02*
G01*
X86072095Y-83281142D01*
X86072100Y-83281142D01*
X86163771Y-83281142D01*
X86172044Y-83284569D01*
X86175461Y-83292362D01*
X86180748Y-83421029D01*
X86177664Y-83429436D01*
X86171397Y-83432973D01*
X86002229Y-83467484D01*
X85993438Y-83465780D01*
X85988426Y-83458359D01*
X85988413Y-83453754D01*
X86021846Y-83284815D01*
X86026812Y-83277367D01*
X86035078Y-83275522D01*
X86072093Y-83281141D01*
G37*
G04 #@! TD.AperFunction*
G04 #@! TD*
G04 #@! TA.AperFunction,Conductor*
G04 #@! TO.N,DSI_CK_P*
G36*
X87522700Y-81086237D02*
G01*
X87525950Y-81089507D01*
X87621165Y-81233529D01*
X87622869Y-81242320D01*
X87619331Y-81248587D01*
X87524611Y-81335829D01*
X87516205Y-81338913D01*
X87508412Y-81335496D01*
X87443591Y-81270675D01*
X87413440Y-81248473D01*
X87408811Y-81240808D01*
X87410656Y-81232542D01*
X87506469Y-81089448D01*
X87513919Y-81084482D01*
X87522700Y-81086237D01*
G37*
G04 #@! TD.AperFunction*
G04 #@! TD*
G04 #@! TA.AperFunction,Conductor*
G04 #@! TO.N,DSI_CK_N*
G36*
X86493615Y-83277668D02*
G01*
X86498154Y-83284818D01*
X86531586Y-83453749D01*
X86529831Y-83462530D01*
X86522380Y-83467497D01*
X86517770Y-83467484D01*
X86348602Y-83432973D01*
X86341181Y-83427961D01*
X86339251Y-83421032D01*
X86344539Y-83292362D01*
X86348303Y-83284236D01*
X86356229Y-83281142D01*
X86447905Y-83281142D01*
X86447905Y-83281141D01*
X86484921Y-83275522D01*
X86493615Y-83277668D01*
G37*
G04 #@! TD.AperFunction*
G04 #@! TD*
G04 #@! TA.AperFunction,Conductor*
G04 #@! TO.N,DSI_CK_N*
G36*
X87746469Y-81358833D02*
G01*
X87890492Y-81454049D01*
X87895504Y-81461470D01*
X87893800Y-81470261D01*
X87890550Y-81473531D01*
X87747457Y-81569343D01*
X87738676Y-81571098D01*
X87731526Y-81566558D01*
X87709328Y-81536413D01*
X87709325Y-81536409D01*
X87644503Y-81471587D01*
X87641076Y-81463314D01*
X87644170Y-81455388D01*
X87731412Y-81360668D01*
X87739538Y-81356904D01*
X87746469Y-81358833D01*
G37*
G04 #@! TD.AperFunction*
G04 #@! TD*
G04 #@! TA.AperFunction,Conductor*
G04 #@! TO.N,/MPU_PWR/VDDA*
G36*
X101391493Y-104577270D02*
G01*
X101393371Y-104579724D01*
X101438138Y-104657819D01*
X101439279Y-104666701D01*
X101437210Y-104670837D01*
X101327222Y-104811747D01*
X101319430Y-104816160D01*
X101310801Y-104813771D01*
X101169801Y-104702967D01*
X101165414Y-104695163D01*
X101165575Y-104691395D01*
X101188064Y-104583163D01*
X101193102Y-104575760D01*
X101199519Y-104573843D01*
X101383220Y-104573843D01*
X101391493Y-104577270D01*
G37*
G04 #@! TD.AperFunction*
G04 #@! TD*
G04 #@! TA.AperFunction,Conductor*
G04 #@! TO.N,/MPU_PWR/VDDA*
G36*
X99454469Y-102822597D02*
G01*
X99548496Y-102857182D01*
X99555078Y-102863254D01*
X99556157Y-102868163D01*
X99556157Y-103051836D01*
X99552730Y-103060109D01*
X99548496Y-103062817D01*
X99454473Y-103097401D01*
X99445525Y-103097041D01*
X99442116Y-103094648D01*
X99317131Y-102968225D01*
X99313752Y-102959933D01*
X99317132Y-102951774D01*
X99442117Y-102825351D01*
X99450367Y-102821879D01*
X99454469Y-102822597D01*
G37*
G04 #@! TD.AperFunction*
G04 #@! TD*
G04 #@! TA.AperFunction,Conductor*
G04 #@! TO.N,I2S3_SDO*
G36*
X88782717Y-98396647D02*
G01*
X88902833Y-98421772D01*
X88910230Y-98426820D01*
X88912116Y-98433937D01*
X88901414Y-98609123D01*
X88897489Y-98617172D01*
X88889118Y-98620094D01*
X88714242Y-98610845D01*
X88706161Y-98606986D01*
X88703183Y-98599902D01*
X88695687Y-98481801D01*
X88698583Y-98473330D01*
X88699075Y-98472805D01*
X88772054Y-98399826D01*
X88780326Y-98396400D01*
X88782717Y-98396647D01*
G37*
G04 #@! TD.AperFunction*
G04 #@! TD*
G04 #@! TA.AperFunction,Conductor*
G04 #@! TO.N,I2S3_SDO*
G36*
X68899811Y-126257302D02*
G01*
X69022867Y-126381774D01*
X69026247Y-126390067D01*
X69022867Y-126398226D01*
X68899811Y-126522697D01*
X68891558Y-126526171D01*
X68884414Y-126523788D01*
X68788466Y-126450911D01*
X68783951Y-126443178D01*
X68783843Y-126441594D01*
X68783843Y-126338405D01*
X68787270Y-126330132D01*
X68788460Y-126329092D01*
X68884415Y-126256210D01*
X68893075Y-126253936D01*
X68899811Y-126257302D01*
G37*
G04 #@! TD.AperFunction*
G04 #@! TD*
G04 #@! TA.AperFunction,Conductor*
G04 #@! TO.N,I2S3_CK*
G36*
X70129142Y-125319226D02*
G01*
X70137393Y-125322700D01*
X70140773Y-125330859D01*
X70141775Y-125505888D01*
X70138395Y-125514181D01*
X70131659Y-125517547D01*
X70012279Y-125533860D01*
X70003618Y-125531585D01*
X70002422Y-125530541D01*
X69929458Y-125457577D01*
X69926031Y-125449304D01*
X69926139Y-125447720D01*
X69942452Y-125328339D01*
X69946967Y-125320608D01*
X69954108Y-125318225D01*
X70129142Y-125319226D01*
G37*
G04 #@! TD.AperFunction*
G04 #@! TD*
G04 #@! TA.AperFunction,Conductor*
G04 #@! TO.N,I2S3_CK*
G36*
X88332279Y-98856139D02*
G01*
X88351079Y-98858708D01*
X88451659Y-98872452D01*
X88459391Y-98876967D01*
X88461774Y-98884111D01*
X88460773Y-99059140D01*
X88457299Y-99067393D01*
X88449140Y-99070773D01*
X88274111Y-99071774D01*
X88265818Y-99068394D01*
X88262452Y-99061659D01*
X88246139Y-98942279D01*
X88248414Y-98933618D01*
X88249451Y-98932429D01*
X88322423Y-98859457D01*
X88330695Y-98856031D01*
X88332279Y-98856139D01*
G37*
G04 #@! TD.AperFunction*
G04 #@! TD*
G04 #@! TA.AperFunction,Conductor*
G04 #@! TO.N,I2S3_SDI*
G36*
X70119142Y-126409226D02*
G01*
X70127393Y-126412700D01*
X70130773Y-126420859D01*
X70131775Y-126595888D01*
X70128395Y-126604181D01*
X70121659Y-126607547D01*
X70002279Y-126623860D01*
X69993618Y-126621585D01*
X69992422Y-126620541D01*
X69919458Y-126547577D01*
X69916031Y-126539304D01*
X69916139Y-126537720D01*
X69932452Y-126418339D01*
X69936967Y-126410608D01*
X69944108Y-126408225D01*
X70119142Y-126409226D01*
G37*
G04 #@! TD.AperFunction*
G04 #@! TD*
G04 #@! TA.AperFunction,Conductor*
G04 #@! TO.N,I2S3_SDI*
G36*
X90352279Y-97906139D02*
G01*
X90371079Y-97908708D01*
X90471659Y-97922452D01*
X90479391Y-97926967D01*
X90481774Y-97934111D01*
X90480773Y-98109140D01*
X90477299Y-98117393D01*
X90469140Y-98120773D01*
X90294111Y-98121774D01*
X90285818Y-98118394D01*
X90282452Y-98111659D01*
X90266139Y-97992279D01*
X90268414Y-97983618D01*
X90269451Y-97982429D01*
X90342423Y-97909457D01*
X90350695Y-97906031D01*
X90352279Y-97906139D01*
G37*
G04 #@! TD.AperFunction*
G04 #@! TD*
G04 #@! TA.AperFunction,Conductor*
G04 #@! TO.N,I2S3_WS*
G36*
X91187153Y-99519714D02*
G01*
X91192206Y-99524633D01*
X91275474Y-99679710D01*
X91276369Y-99688620D01*
X91270719Y-99695543D01*
X91116743Y-99778566D01*
X91107834Y-99779476D01*
X91100992Y-99774002D01*
X91048178Y-99680071D01*
X91046676Y-99674337D01*
X91046676Y-99571051D01*
X91050103Y-99562778D01*
X91054699Y-99559944D01*
X91178222Y-99519061D01*
X91187153Y-99519714D01*
G37*
G04 #@! TD.AperFunction*
G04 #@! TD*
G04 #@! TA.AperFunction,Conductor*
G04 #@! TO.N,I2S3_WS*
G36*
X69120188Y-125070635D02*
G01*
X69193217Y-125143664D01*
X69196196Y-125148731D01*
X69225706Y-125252295D01*
X69224678Y-125261190D01*
X69217841Y-125266700D01*
X69050465Y-125317327D01*
X69041554Y-125316442D01*
X69035887Y-125309542D01*
X68984542Y-125141242D01*
X68985406Y-125132329D01*
X68990439Y-125127394D01*
X69106623Y-125068472D01*
X69115552Y-125067788D01*
X69120188Y-125070635D01*
G37*
G04 #@! TD.AperFunction*
G04 #@! TD*
G04 #@! TA.AperFunction,Conductor*
G04 #@! TO.N,USB_M_D+*
G36*
X102109142Y-120769226D02*
G01*
X102117393Y-120772700D01*
X102120773Y-120780859D01*
X102121777Y-120956204D01*
X102118397Y-120964497D01*
X102112020Y-120967809D01*
X101996154Y-120987322D01*
X101987427Y-120985316D01*
X101985938Y-120984057D01*
X101905942Y-120904061D01*
X101902515Y-120895788D01*
X101902676Y-120893856D01*
X101922190Y-120777979D01*
X101926944Y-120770391D01*
X101933792Y-120768223D01*
X102109142Y-120769226D01*
G37*
G04 #@! TD.AperFunction*
G04 #@! TD*
G04 #@! TA.AperFunction,Conductor*
G04 #@! TO.N,USB_M_D+*
G36*
X101424497Y-120721603D02*
G01*
X101427809Y-120727980D01*
X101447322Y-120843845D01*
X101445316Y-120852572D01*
X101444057Y-120854061D01*
X101364061Y-120934057D01*
X101355788Y-120937484D01*
X101353845Y-120937322D01*
X101237980Y-120917809D01*
X101230391Y-120913055D01*
X101228223Y-120906206D01*
X101229226Y-120730856D01*
X101232700Y-120722606D01*
X101240856Y-120719226D01*
X101416206Y-120718223D01*
X101424497Y-120721603D01*
G37*
G04 #@! TD.AperFunction*
G04 #@! TD*
G04 #@! TA.AperFunction,Conductor*
G04 #@! TO.N,USB_M_D+*
G36*
X102184840Y-120527270D02*
G01*
X102186099Y-120528759D01*
X102254229Y-120624484D01*
X102256235Y-120633211D01*
X102252923Y-120639588D01*
X102128226Y-120762867D01*
X102119933Y-120766247D01*
X102111774Y-120762867D01*
X101987076Y-120639588D01*
X101983602Y-120631335D01*
X101985769Y-120624485D01*
X102053901Y-120528758D01*
X102061490Y-120524005D01*
X102063433Y-120523843D01*
X102176567Y-120523843D01*
X102184840Y-120527270D01*
G37*
G04 #@! TD.AperFunction*
G04 #@! TD*
G04 #@! TA.AperFunction,Conductor*
G04 #@! TO.N,USB_M_D-*
G36*
X102537198Y-120138222D02*
G01*
X102537222Y-120138252D01*
X102645729Y-120277264D01*
X102648118Y-120285894D01*
X102644841Y-120292674D01*
X102566037Y-120372668D01*
X102557790Y-120376157D01*
X102444581Y-120376157D01*
X102436308Y-120372730D01*
X102434149Y-120369755D01*
X102378450Y-120260072D01*
X102377760Y-120251143D01*
X102381651Y-120245577D01*
X102520772Y-120136251D01*
X102529392Y-120133834D01*
X102537198Y-120138222D01*
G37*
G04 #@! TD.AperFunction*
G04 #@! TD*
G04 #@! TA.AperFunction,Conductor*
G04 #@! TO.N,USB_M_D-*
G36*
X102263163Y-121095046D02*
G01*
X102263304Y-121095185D01*
X102343293Y-121175174D01*
X102346720Y-121183447D01*
X102346172Y-121186986D01*
X102309067Y-121303918D01*
X102303298Y-121310767D01*
X102296593Y-121312004D01*
X102120937Y-121292031D01*
X102113104Y-121287692D01*
X102110634Y-121279084D01*
X102110636Y-121279065D01*
X102130828Y-121104026D01*
X102135180Y-121096200D01*
X102142252Y-121093669D01*
X102254833Y-121091760D01*
X102263163Y-121095046D01*
G37*
G04 #@! TD.AperFunction*
G04 #@! TD*
G04 #@! TA.AperFunction,Conductor*
G04 #@! TO.N,USB_M_D-*
G36*
X101426887Y-121114554D02*
G01*
X101427239Y-121114700D01*
X101428416Y-121114700D01*
X101446165Y-121116391D01*
X101454075Y-121120587D01*
X101456755Y-121128038D01*
X101456755Y-121241225D01*
X101456436Y-121243938D01*
X101438766Y-121318068D01*
X101433514Y-121325321D01*
X101425114Y-121326832D01*
X101251918Y-121292556D01*
X101244467Y-121287589D01*
X101242712Y-121278808D01*
X101243054Y-121277490D01*
X101296891Y-121111373D01*
X101302701Y-121104561D01*
X101309128Y-121103335D01*
X101426887Y-121114554D01*
G37*
G04 #@! TD.AperFunction*
G04 #@! TD*
G04 #@! TA.AperFunction,Conductor*
G04 #@! TO.N,USB_M_D-*
G36*
X102049429Y-121105962D02*
G01*
X102053108Y-121111375D01*
X102106939Y-121277472D01*
X102106230Y-121286398D01*
X102099416Y-121292209D01*
X102098080Y-121292556D01*
X101924885Y-121326832D01*
X101916104Y-121325077D01*
X101911233Y-121318068D01*
X101893564Y-121243938D01*
X101893245Y-121241225D01*
X101893245Y-121128038D01*
X101894763Y-121124372D01*
X101895925Y-121120587D01*
X101896445Y-121120310D01*
X101896672Y-121119765D01*
X101903834Y-121116391D01*
X101921028Y-121114752D01*
X101922138Y-121114700D01*
X101972759Y-121114700D01*
X101972761Y-121114700D01*
X101986436Y-121109035D01*
X101989786Y-121108202D01*
X102040869Y-121103335D01*
X102049429Y-121105962D01*
G37*
G04 #@! TD.AperFunction*
G04 #@! TD*
G04 #@! TA.AperFunction,Conductor*
G04 #@! TO.N,UART7_TX_STM*
G36*
X102419142Y-96459226D02*
G01*
X102427393Y-96462700D01*
X102430773Y-96470859D01*
X102431775Y-96645997D01*
X102428395Y-96654290D01*
X102421782Y-96657639D01*
X102303620Y-96675061D01*
X102294935Y-96672877D01*
X102293640Y-96671759D01*
X102218240Y-96596359D01*
X102214813Y-96588086D01*
X102214938Y-96586379D01*
X102232361Y-96468215D01*
X102236957Y-96460534D01*
X102244001Y-96458225D01*
X102419142Y-96459226D01*
G37*
G04 #@! TD.AperFunction*
G04 #@! TD*
G04 #@! TA.AperFunction,Conductor*
G04 #@! TO.N,UART7_TX_STM*
G36*
X108885950Y-102119074D02*
G01*
X108886003Y-102119162D01*
X108940658Y-102211684D01*
X108975569Y-102270781D01*
X108976826Y-102279647D01*
X108971922Y-102286509D01*
X108882125Y-102345543D01*
X108875698Y-102347466D01*
X108768904Y-102347466D01*
X108760631Y-102344039D01*
X108757951Y-102339880D01*
X108713220Y-102220790D01*
X108713519Y-102211840D01*
X108718127Y-102206660D01*
X108869889Y-102115099D01*
X108878742Y-102113760D01*
X108885950Y-102119074D01*
G37*
G04 #@! TD.AperFunction*
G04 #@! TD*
G04 #@! TA.AperFunction,Conductor*
G04 #@! TO.N,UART7_TX_STM*
G36*
X105569734Y-99577224D02*
G01*
X105692867Y-99701774D01*
X105696247Y-99710067D01*
X105692867Y-99718226D01*
X105569734Y-99842775D01*
X105561481Y-99846249D01*
X105554436Y-99843940D01*
X105458565Y-99772708D01*
X105453968Y-99765024D01*
X105453843Y-99763317D01*
X105453843Y-99656682D01*
X105457270Y-99648409D01*
X105458560Y-99647295D01*
X105554437Y-99576058D01*
X105563121Y-99573875D01*
X105569734Y-99577224D01*
G37*
G04 #@! TD.AperFunction*
G04 #@! TD*
G04 #@! TA.AperFunction,Conductor*
G04 #@! TO.N,UART7_TX_STM*
G36*
X109181961Y-107817270D02*
G01*
X109182710Y-107818093D01*
X109257746Y-107908960D01*
X109260371Y-107917521D01*
X109257284Y-107924386D01*
X109137897Y-108052523D01*
X109129750Y-108056240D01*
X109121446Y-108053185D01*
X108991927Y-107934862D01*
X108988130Y-107926752D01*
X108990087Y-107919727D01*
X109057326Y-107819045D01*
X109064771Y-107814068D01*
X109067056Y-107813843D01*
X109173688Y-107813843D01*
X109181961Y-107817270D01*
G37*
G04 #@! TD.AperFunction*
G04 #@! TD*
G04 #@! TA.AperFunction,Conductor*
G04 #@! TO.N,SYS_I2C6_SCL*
G36*
X107139734Y-102937224D02*
G01*
X107262867Y-103061774D01*
X107266247Y-103070067D01*
X107262867Y-103078226D01*
X107139734Y-103202775D01*
X107131481Y-103206249D01*
X107124436Y-103203940D01*
X107028565Y-103132708D01*
X107023968Y-103125024D01*
X107023843Y-103123317D01*
X107023843Y-103016682D01*
X107027270Y-103008409D01*
X107028560Y-103007295D01*
X107124437Y-102936058D01*
X107133121Y-102933875D01*
X107139734Y-102937224D01*
G37*
G04 #@! TD.AperFunction*
G04 #@! TD*
G04 #@! TA.AperFunction,Conductor*
G04 #@! TO.N,SYS_I2C6_SCL*
G36*
X105731217Y-106727270D02*
G01*
X105732674Y-106729045D01*
X105799910Y-106829726D01*
X105801655Y-106838509D01*
X105798071Y-106844862D01*
X105668553Y-106963185D01*
X105660134Y-106966235D01*
X105652102Y-106962523D01*
X105542475Y-106844862D01*
X105532713Y-106834385D01*
X105529581Y-106825997D01*
X105532252Y-106818960D01*
X105607290Y-106728093D01*
X105615201Y-106723896D01*
X105616312Y-106723843D01*
X105722944Y-106723843D01*
X105731217Y-106727270D01*
G37*
G04 #@! TD.AperFunction*
G04 #@! TD*
G04 #@! TA.AperFunction,Conductor*
G04 #@! TO.N,FDCAN2_TX*
G36*
X105234386Y-100782714D02*
G01*
X105362523Y-100902102D01*
X105366240Y-100910249D01*
X105363185Y-100918553D01*
X105244862Y-101048071D01*
X105236752Y-101051868D01*
X105229726Y-101049910D01*
X105129045Y-100982673D01*
X105124068Y-100975228D01*
X105123843Y-100972943D01*
X105123843Y-100866312D01*
X105127270Y-100858039D01*
X105128093Y-100857290D01*
X105218960Y-100782252D01*
X105227521Y-100779627D01*
X105234386Y-100782714D01*
G37*
G04 #@! TD.AperFunction*
G04 #@! TD*
G04 #@! TA.AperFunction,Conductor*
G04 #@! TO.N,FDCAN2_TX*
G36*
X101689142Y-94929226D02*
G01*
X101697393Y-94932700D01*
X101700773Y-94940859D01*
X101701775Y-95115997D01*
X101698395Y-95124290D01*
X101691782Y-95127639D01*
X101573620Y-95145061D01*
X101564935Y-95142877D01*
X101563640Y-95141759D01*
X101488240Y-95066359D01*
X101484813Y-95058086D01*
X101484938Y-95056379D01*
X101502361Y-94938215D01*
X101506957Y-94930534D01*
X101514001Y-94928225D01*
X101689142Y-94929226D01*
G37*
G04 #@! TD.AperFunction*
G04 #@! TD*
G04 #@! TA.AperFunction,Conductor*
G04 #@! TO.N,SPI5_MOSI*
G36*
X109025560Y-101236057D02*
G01*
X109121436Y-101307292D01*
X109126032Y-101314975D01*
X109126157Y-101316682D01*
X109126157Y-101423317D01*
X109122730Y-101431590D01*
X109121439Y-101432704D01*
X109027132Y-101502775D01*
X109025563Y-101503941D01*
X109016878Y-101506124D01*
X109010265Y-101502775D01*
X108940996Y-101432709D01*
X108887131Y-101378225D01*
X108883752Y-101369933D01*
X108887132Y-101361774D01*
X109010266Y-101237223D01*
X109018518Y-101233750D01*
X109025560Y-101236057D01*
G37*
G04 #@! TD.AperFunction*
G04 #@! TD*
G04 #@! TA.AperFunction,Conductor*
G04 #@! TO.N,SPI5_MOSI*
G36*
X109477537Y-105762529D02*
G01*
X109480809Y-105768907D01*
X109502831Y-105903069D01*
X109500790Y-105911788D01*
X109495356Y-105915933D01*
X109332879Y-105976220D01*
X109323931Y-105975885D01*
X109317840Y-105969321D01*
X109317334Y-105967529D01*
X109283026Y-105794171D01*
X109284781Y-105785390D01*
X109291037Y-105780726D01*
X109359106Y-105759626D01*
X109362570Y-105759102D01*
X109469264Y-105759102D01*
X109477537Y-105762529D01*
G37*
G04 #@! TD.AperFunction*
G04 #@! TD*
G04 #@! TA.AperFunction,Conductor*
G04 #@! TO.N,Net-(U202-~{RST})*
G36*
X97649734Y-115427224D02*
G01*
X97772867Y-115551774D01*
X97776247Y-115560067D01*
X97772867Y-115568226D01*
X97649734Y-115692775D01*
X97641481Y-115696249D01*
X97634436Y-115693940D01*
X97538565Y-115622708D01*
X97533968Y-115615024D01*
X97533843Y-115613317D01*
X97533843Y-115506682D01*
X97537270Y-115498409D01*
X97538560Y-115497295D01*
X97634437Y-115426058D01*
X97643121Y-115423875D01*
X97649734Y-115427224D01*
G37*
G04 #@! TD.AperFunction*
G04 #@! TD*
G04 #@! TA.AperFunction,Conductor*
G04 #@! TO.N,Net-(U202-~{RST})*
G36*
X91508226Y-109667132D02*
G01*
X91632775Y-109790265D01*
X91636249Y-109798518D01*
X91633941Y-109805562D01*
X91562707Y-109901435D01*
X91555024Y-109906032D01*
X91553317Y-109906157D01*
X91446683Y-109906157D01*
X91438410Y-109902730D01*
X91437292Y-109901435D01*
X91366059Y-109805563D01*
X91363875Y-109796878D01*
X91367222Y-109790267D01*
X91491774Y-109667131D01*
X91500067Y-109663752D01*
X91508226Y-109667132D01*
G37*
G04 #@! TD.AperFunction*
G04 #@! TD*
G04 #@! TA.AperFunction,Conductor*
G04 #@! TO.N,/LCD/LED_A*
G36*
X75964474Y-67362958D02*
G01*
X75967882Y-67365350D01*
X76044969Y-67443324D01*
X76092867Y-67491774D01*
X76096247Y-67500067D01*
X76092867Y-67508226D01*
X75967885Y-67634646D01*
X75959632Y-67638120D01*
X75955526Y-67637401D01*
X75861504Y-67602817D01*
X75854922Y-67596745D01*
X75853843Y-67591836D01*
X75853843Y-67408163D01*
X75857270Y-67399890D01*
X75861504Y-67397182D01*
X75955528Y-67362598D01*
X75964474Y-67362958D01*
G37*
G04 #@! TD.AperFunction*
G04 #@! TD*
G04 #@! TA.AperFunction,Conductor*
G04 #@! TO.N,/LCD/LED_A*
G36*
X69044469Y-67362597D02*
G01*
X69138496Y-67397182D01*
X69145078Y-67403254D01*
X69146157Y-67408163D01*
X69146157Y-67591836D01*
X69142730Y-67600109D01*
X69138496Y-67602817D01*
X69044473Y-67637401D01*
X69035525Y-67637041D01*
X69032116Y-67634648D01*
X68907131Y-67508225D01*
X68903752Y-67499933D01*
X68907132Y-67491774D01*
X69032117Y-67365351D01*
X69040367Y-67361879D01*
X69044469Y-67362597D01*
G37*
G04 #@! TD.AperFunction*
G04 #@! TD*
G04 #@! TA.AperFunction,Conductor*
G04 #@! TO.N,/LCD/RESET*
G36*
X105339734Y-64187224D02*
G01*
X105462867Y-64311774D01*
X105466247Y-64320067D01*
X105462867Y-64328226D01*
X105339734Y-64452775D01*
X105331481Y-64456249D01*
X105324436Y-64453940D01*
X105228565Y-64382708D01*
X105223968Y-64375024D01*
X105223843Y-64373317D01*
X105223843Y-64266682D01*
X105227270Y-64258409D01*
X105228560Y-64257295D01*
X105324437Y-64186058D01*
X105333121Y-64183875D01*
X105339734Y-64187224D01*
G37*
G04 #@! TD.AperFunction*
G04 #@! TD*
G04 #@! TA.AperFunction,Conductor*
G04 #@! TO.N,/LCD/RESET*
G36*
X81261590Y-66357270D02*
G01*
X81262708Y-66358565D01*
X81333940Y-66454436D01*
X81336124Y-66463121D01*
X81332775Y-66469734D01*
X81208226Y-66592867D01*
X81199933Y-66596247D01*
X81191774Y-66592867D01*
X81067224Y-66469734D01*
X81063750Y-66461481D01*
X81066058Y-66454438D01*
X81137292Y-66358565D01*
X81144976Y-66353968D01*
X81146683Y-66353843D01*
X81253317Y-66353843D01*
X81261590Y-66357270D01*
G37*
G04 #@! TD.AperFunction*
G04 #@! TD*
G04 #@! TA.AperFunction,Conductor*
G04 #@! TO.N,/LCD/LED_K*
G36*
X78664474Y-66462958D02*
G01*
X78667882Y-66465350D01*
X78744969Y-66543324D01*
X78792867Y-66591774D01*
X78796247Y-66600067D01*
X78792867Y-66608226D01*
X78667885Y-66734646D01*
X78659632Y-66738120D01*
X78655526Y-66737401D01*
X78561504Y-66702817D01*
X78554922Y-66696745D01*
X78553843Y-66691836D01*
X78553843Y-66508163D01*
X78557270Y-66499890D01*
X78561504Y-66497182D01*
X78655528Y-66462598D01*
X78664474Y-66462958D01*
G37*
G04 #@! TD.AperFunction*
G04 #@! TD*
G04 #@! TA.AperFunction,Conductor*
G04 #@! TO.N,/LCD/LED_K*
G36*
X69871919Y-61586933D02*
G01*
X69874314Y-61590344D01*
X69916344Y-61681282D01*
X69916704Y-61690230D01*
X69913996Y-61694464D01*
X69784120Y-61824340D01*
X69775847Y-61827767D01*
X69770938Y-61826688D01*
X69680000Y-61784658D01*
X69673928Y-61778076D01*
X69673209Y-61773970D01*
X69674225Y-61596199D01*
X69677699Y-61587949D01*
X69685855Y-61584569D01*
X69863626Y-61583553D01*
X69871919Y-61586933D01*
G37*
G04 #@! TD.AperFunction*
G04 #@! TD*
G04 #@! TA.AperFunction,Conductor*
G04 #@! TO.N,LCD_RST*
G36*
X105227893Y-98428045D02*
G01*
X105326196Y-98497305D01*
X105330985Y-98504871D01*
X105331157Y-98506869D01*
X105331157Y-98613502D01*
X105327730Y-98621775D01*
X105326672Y-98622713D01*
X105233275Y-98695873D01*
X105224649Y-98698277D01*
X105217909Y-98695055D01*
X105092300Y-98573061D01*
X105088752Y-98564839D01*
X105091967Y-98556612D01*
X105212676Y-98429552D01*
X105220856Y-98425915D01*
X105227893Y-98428045D01*
G37*
G04 #@! TD.AperFunction*
G04 #@! TD*
G04 #@! TA.AperFunction,Conductor*
G04 #@! TO.N,LCD_RST*
G36*
X109139100Y-95498274D02*
G01*
X109147041Y-95502410D01*
X109149736Y-95510904D01*
X109135116Y-95685815D01*
X109131012Y-95693774D01*
X109123881Y-95696532D01*
X109007894Y-95700735D01*
X108999502Y-95697610D01*
X108999197Y-95697316D01*
X108923800Y-95621919D01*
X108920373Y-95613646D01*
X108920740Y-95610740D01*
X108951372Y-95491630D01*
X108956751Y-95484472D01*
X108963722Y-95482890D01*
X109139100Y-95498274D01*
G37*
G04 #@! TD.AperFunction*
G04 #@! TD*
G04 #@! TA.AperFunction,Conductor*
G04 #@! TO.N,LCD_TP_INTR*
G36*
X105895560Y-96716057D02*
G01*
X105991436Y-96787292D01*
X105996032Y-96794975D01*
X105996157Y-96796682D01*
X105996157Y-96903317D01*
X105992730Y-96911590D01*
X105991439Y-96912704D01*
X105897132Y-96982775D01*
X105895563Y-96983941D01*
X105886878Y-96986124D01*
X105880265Y-96982775D01*
X105810996Y-96912709D01*
X105757131Y-96858225D01*
X105753752Y-96849933D01*
X105757132Y-96841774D01*
X105880266Y-96717223D01*
X105888518Y-96713750D01*
X105895560Y-96716057D01*
G37*
G04 #@! TD.AperFunction*
G04 #@! TD*
G04 #@! TA.AperFunction,Conductor*
G04 #@! TO.N,LCD_TP_INTR*
G36*
X108438391Y-94447579D02*
G01*
X108446112Y-94452113D01*
X108448366Y-94460779D01*
X108448247Y-94461481D01*
X108412963Y-94636338D01*
X108407967Y-94643770D01*
X108400976Y-94645713D01*
X108297341Y-94641121D01*
X108289586Y-94637705D01*
X108214180Y-94562299D01*
X108210753Y-94554026D01*
X108211344Y-94550355D01*
X108250780Y-94431164D01*
X108256632Y-94424387D01*
X108263499Y-94423252D01*
X108438391Y-94447579D01*
G37*
G04 #@! TD.AperFunction*
G04 #@! TD*
G04 #@! TA.AperFunction,Conductor*
G04 #@! TO.N,LCD_BL_PWM*
G36*
X65508226Y-66407132D02*
G01*
X65632775Y-66530265D01*
X65636249Y-66538518D01*
X65633941Y-66545562D01*
X65562707Y-66641435D01*
X65555024Y-66646032D01*
X65553317Y-66646157D01*
X65446683Y-66646157D01*
X65438410Y-66642730D01*
X65437292Y-66641435D01*
X65366059Y-66545563D01*
X65363875Y-66536878D01*
X65367222Y-66530267D01*
X65491774Y-66407131D01*
X65500067Y-66403752D01*
X65508226Y-66407132D01*
G37*
G04 #@! TD.AperFunction*
G04 #@! TD*
G04 #@! TA.AperFunction,Conductor*
G04 #@! TO.N,LCD_BL_PWM*
G36*
X104265779Y-97198826D02*
G01*
X104273156Y-97203902D01*
X104275040Y-97210269D01*
X104275040Y-97316875D01*
X104274151Y-97321348D01*
X104249825Y-97380150D01*
X104243496Y-97386484D01*
X104236743Y-97387154D01*
X104063091Y-97352788D01*
X104055640Y-97347821D01*
X104053885Y-97339040D01*
X104054581Y-97336765D01*
X104062970Y-97316875D01*
X104121614Y-97177814D01*
X104127987Y-97171523D01*
X104134832Y-97170918D01*
X104265779Y-97198826D01*
G37*
G04 #@! TD.AperFunction*
G04 #@! TD*
G04 #@! TA.AperFunction,Conductor*
G04 #@! TO.N,Net-(U1001-FB)*
G36*
X68989137Y-61598902D02*
G01*
X68997290Y-61602606D01*
X69000439Y-61610866D01*
X68996327Y-61788558D01*
X68992710Y-61796749D01*
X68989136Y-61799084D01*
X68898886Y-61836750D01*
X68889932Y-61836774D01*
X68886107Y-61834226D01*
X68756229Y-61704348D01*
X68752802Y-61696075D01*
X68754067Y-61690783D01*
X68800471Y-61599293D01*
X68807267Y-61593467D01*
X68811293Y-61592895D01*
X68989137Y-61598902D01*
G37*
G04 #@! TD.AperFunction*
G04 #@! TD*
G04 #@! TA.AperFunction,Conductor*
G04 #@! TO.N,Net-(U1001-FB)*
G36*
X67274469Y-62187596D02*
G01*
X67368496Y-62222181D01*
X67375078Y-62228253D01*
X67376157Y-62233162D01*
X67376157Y-62416835D01*
X67372730Y-62425108D01*
X67368496Y-62427816D01*
X67274473Y-62462400D01*
X67265525Y-62462040D01*
X67262116Y-62459647D01*
X67137131Y-62333224D01*
X67133752Y-62324932D01*
X67137132Y-62316773D01*
X67262117Y-62190350D01*
X67270367Y-62186878D01*
X67274469Y-62187596D01*
G37*
G04 #@! TD.AperFunction*
G04 #@! TD*
G04 #@! TA.AperFunction,Conductor*
G04 #@! TO.N,LCD_TP_RST*
G36*
X104185064Y-96287122D02*
G01*
X104186359Y-96288240D01*
X104261759Y-96363640D01*
X104265186Y-96371913D01*
X104265061Y-96373620D01*
X104247639Y-96491781D01*
X104243042Y-96499465D01*
X104235997Y-96501774D01*
X104060859Y-96500773D01*
X104052606Y-96497299D01*
X104049226Y-96489142D01*
X104048226Y-96314001D01*
X104051606Y-96305709D01*
X104058216Y-96302361D01*
X104176379Y-96284938D01*
X104185064Y-96287122D01*
G37*
G04 #@! TD.AperFunction*
G04 #@! TD*
G04 #@! TA.AperFunction,Conductor*
G04 #@! TO.N,LCD_TP_RST*
G36*
X108358226Y-93607132D02*
G01*
X108482775Y-93730265D01*
X108486249Y-93738518D01*
X108483941Y-93745562D01*
X108412707Y-93841435D01*
X108405024Y-93846032D01*
X108403317Y-93846157D01*
X108296683Y-93846157D01*
X108288410Y-93842730D01*
X108287292Y-93841435D01*
X108216059Y-93745563D01*
X108213875Y-93736878D01*
X108217222Y-93730267D01*
X108341774Y-93607131D01*
X108350067Y-93603752D01*
X108358226Y-93607132D01*
G37*
G04 #@! TD.AperFunction*
G04 #@! TD*
G04 #@! TA.AperFunction,Conductor*
G04 #@! TO.N,1V8_WIFI_EN*
G36*
X93062849Y-102868544D02*
G01*
X93067420Y-102873934D01*
X93116475Y-102991090D01*
X93116509Y-103000045D01*
X93113956Y-103003882D01*
X93040865Y-103076973D01*
X93034813Y-103080187D01*
X92927420Y-103100952D01*
X92918647Y-103099158D01*
X92913831Y-103092234D01*
X92872099Y-102920819D01*
X92873472Y-102911972D01*
X92880699Y-102906685D01*
X92880747Y-102906673D01*
X93054022Y-102867047D01*
X93062849Y-102868544D01*
G37*
G04 #@! TD.AperFunction*
G04 #@! TD*
G04 #@! TA.AperFunction,Conductor*
G04 #@! TO.N,1V8_WIFI_EN*
G36*
X88445585Y-111846211D02*
G01*
X88467584Y-111862920D01*
X88541534Y-111919089D01*
X88546049Y-111926821D01*
X88546157Y-111928405D01*
X88546157Y-112031594D01*
X88542730Y-112039867D01*
X88541534Y-112040911D01*
X88445585Y-112113788D01*
X88436924Y-112116063D01*
X88430188Y-112112697D01*
X88307132Y-111988226D01*
X88303752Y-111979933D01*
X88307132Y-111971774D01*
X88359219Y-111919088D01*
X88430189Y-111847301D01*
X88438441Y-111843828D01*
X88445585Y-111846211D01*
G37*
G04 #@! TD.AperFunction*
G04 #@! TD*
G04 #@! TA.AperFunction,Conductor*
G04 #@! TO.N,Net-(U901A-PDN)*
G36*
X64739867Y-120637270D02*
G01*
X64740911Y-120638466D01*
X64813788Y-120734414D01*
X64816063Y-120743075D01*
X64812697Y-120749811D01*
X64688226Y-120872867D01*
X64679933Y-120876247D01*
X64671774Y-120872867D01*
X64547302Y-120749811D01*
X64543828Y-120741558D01*
X64546210Y-120734415D01*
X64619089Y-120638466D01*
X64626822Y-120633951D01*
X64628406Y-120633843D01*
X64731594Y-120633843D01*
X64739867Y-120637270D01*
G37*
G04 #@! TD.AperFunction*
G04 #@! TD*
G04 #@! TA.AperFunction,Conductor*
G04 #@! TO.N,Net-(U901A-PDN)*
G36*
X65319142Y-116609226D02*
G01*
X65327393Y-116612700D01*
X65330773Y-116620859D01*
X65331775Y-116795888D01*
X65328395Y-116804181D01*
X65321659Y-116807547D01*
X65202279Y-116823860D01*
X65193618Y-116821585D01*
X65192422Y-116820541D01*
X65119458Y-116747577D01*
X65116031Y-116739304D01*
X65116139Y-116737720D01*
X65132452Y-116618339D01*
X65136967Y-116610608D01*
X65144108Y-116608225D01*
X65319142Y-116609226D01*
G37*
G04 #@! TD.AperFunction*
G04 #@! TD*
G04 #@! TA.AperFunction,Conductor*
G04 #@! TO.N,WLAN_WAKE_HOST*
G36*
X75349137Y-115888902D02*
G01*
X75357290Y-115892606D01*
X75360439Y-115900866D01*
X75356391Y-116075817D01*
X75352774Y-116084008D01*
X75345861Y-116087188D01*
X75227046Y-116099094D01*
X75218472Y-116096509D01*
X75217606Y-116095725D01*
X75144642Y-116022761D01*
X75141215Y-116014488D01*
X75141385Y-116012503D01*
X75162106Y-115892686D01*
X75166893Y-115885119D01*
X75174029Y-115882988D01*
X75349137Y-115888902D01*
G37*
G04 #@! TD.AperFunction*
G04 #@! TD*
G04 #@! TA.AperFunction,Conductor*
G04 #@! TO.N,WLAN_WAKE_HOST*
G36*
X67309867Y-123757270D02*
G01*
X67310911Y-123758466D01*
X67383788Y-123854414D01*
X67386063Y-123863075D01*
X67382697Y-123869811D01*
X67258226Y-123992867D01*
X67249933Y-123996247D01*
X67241774Y-123992867D01*
X67117302Y-123869811D01*
X67113828Y-123861558D01*
X67116210Y-123854415D01*
X67189089Y-123758466D01*
X67196822Y-123753951D01*
X67198406Y-123753843D01*
X67301594Y-123753843D01*
X67309867Y-123757270D01*
G37*
G04 #@! TD.AperFunction*
G04 #@! TD*
G04 #@! TA.AperFunction,Conductor*
G04 #@! TO.N,BT_WAKE_HOST*
G36*
X79069811Y-124667302D02*
G01*
X79192867Y-124791774D01*
X79196247Y-124800067D01*
X79192867Y-124808226D01*
X79069811Y-124932697D01*
X79061558Y-124936171D01*
X79054414Y-124933788D01*
X78958466Y-124860911D01*
X78953951Y-124853178D01*
X78953843Y-124851594D01*
X78953843Y-124748405D01*
X78957270Y-124740132D01*
X78958460Y-124739092D01*
X79054415Y-124666210D01*
X79063075Y-124663936D01*
X79069811Y-124667302D01*
G37*
G04 #@! TD.AperFunction*
G04 #@! TD*
G04 #@! TA.AperFunction,Conductor*
G04 #@! TO.N,BT_WAKE_HOST*
G36*
X71006381Y-123828414D02*
G01*
X71007577Y-123829458D01*
X71080541Y-123902422D01*
X71083968Y-123910695D01*
X71083860Y-123912279D01*
X71067547Y-124031658D01*
X71063032Y-124039391D01*
X71055888Y-124041774D01*
X70880859Y-124040773D01*
X70872606Y-124037299D01*
X70869226Y-124029142D01*
X70868226Y-123854109D01*
X70871606Y-123845818D01*
X70878340Y-123842452D01*
X70997720Y-123826139D01*
X71006381Y-123828414D01*
G37*
G04 #@! TD.AperFunction*
G04 #@! TD*
G04 #@! TA.AperFunction,Conductor*
G04 #@! TO.N,BT_RESET*
G36*
X65799867Y-123897270D02*
G01*
X65800911Y-123898466D01*
X65873788Y-123994414D01*
X65876063Y-124003075D01*
X65872697Y-124009811D01*
X65748226Y-124132867D01*
X65739933Y-124136247D01*
X65731774Y-124132867D01*
X65607302Y-124009811D01*
X65603828Y-124001558D01*
X65606210Y-123994415D01*
X65679089Y-123898466D01*
X65686822Y-123893951D01*
X65688406Y-123893843D01*
X65791594Y-123893843D01*
X65799867Y-123897270D01*
G37*
G04 #@! TD.AperFunction*
G04 #@! TD*
G04 #@! TA.AperFunction,Conductor*
G04 #@! TO.N,BT_RESET*
G36*
X75362279Y-114396139D02*
G01*
X75381079Y-114398708D01*
X75481659Y-114412452D01*
X75489391Y-114416967D01*
X75491774Y-114424111D01*
X75490773Y-114599140D01*
X75487299Y-114607393D01*
X75479140Y-114610773D01*
X75304111Y-114611774D01*
X75295818Y-114608394D01*
X75292452Y-114601659D01*
X75276139Y-114482279D01*
X75278414Y-114473618D01*
X75279451Y-114472429D01*
X75352423Y-114399457D01*
X75360695Y-114396031D01*
X75362279Y-114396139D01*
G37*
G04 #@! TD.AperFunction*
G04 #@! TD*
G04 #@! TA.AperFunction,Conductor*
G04 #@! TO.N,BT_RESET*
G36*
X88775585Y-101566211D02*
G01*
X88797584Y-101582920D01*
X88871534Y-101639089D01*
X88876049Y-101646821D01*
X88876157Y-101648405D01*
X88876157Y-101751594D01*
X88872730Y-101759867D01*
X88871534Y-101760911D01*
X88775585Y-101833788D01*
X88766924Y-101836063D01*
X88760188Y-101832697D01*
X88637132Y-101708226D01*
X88633752Y-101699933D01*
X88637132Y-101691774D01*
X88689219Y-101639088D01*
X88760189Y-101567301D01*
X88768441Y-101563828D01*
X88775585Y-101566211D01*
G37*
G04 #@! TD.AperFunction*
G04 #@! TD*
G04 #@! TA.AperFunction,Conductor*
G04 #@! TO.N,BT_RESET*
G36*
X91099811Y-101247302D02*
G01*
X91222867Y-101371774D01*
X91226247Y-101380067D01*
X91222867Y-101388226D01*
X91099811Y-101512697D01*
X91091558Y-101516171D01*
X91084414Y-101513788D01*
X90988466Y-101440911D01*
X90983951Y-101433178D01*
X90983843Y-101431594D01*
X90983843Y-101328405D01*
X90987270Y-101320132D01*
X90988460Y-101319092D01*
X91084415Y-101246210D01*
X91093075Y-101243936D01*
X91099811Y-101247302D01*
G37*
G04 #@! TD.AperFunction*
G04 #@! TD*
G04 #@! TA.AperFunction,Conductor*
G04 #@! TO.N,WLAN_RESET*
G36*
X75569811Y-115267302D02*
G01*
X75692867Y-115391774D01*
X75696247Y-115400067D01*
X75692867Y-115408226D01*
X75569811Y-115532697D01*
X75561558Y-115536171D01*
X75554414Y-115533788D01*
X75458466Y-115460911D01*
X75453951Y-115453178D01*
X75453843Y-115451594D01*
X75453843Y-115348405D01*
X75457270Y-115340132D01*
X75458460Y-115339092D01*
X75554415Y-115266210D01*
X75563075Y-115263936D01*
X75569811Y-115267302D01*
G37*
G04 #@! TD.AperFunction*
G04 #@! TD*
G04 #@! TA.AperFunction,Conductor*
G04 #@! TO.N,WLAN_RESET*
G36*
X66767222Y-123770103D02*
G01*
X66770056Y-123774700D01*
X66810937Y-123898222D01*
X66810284Y-123907153D01*
X66805365Y-123912206D01*
X66650289Y-123995474D01*
X66641379Y-123996369D01*
X66634456Y-123990719D01*
X66589614Y-123907556D01*
X66551431Y-123836742D01*
X66550522Y-123827834D01*
X66555993Y-123820994D01*
X66649931Y-123768176D01*
X66655663Y-123766676D01*
X66758949Y-123766676D01*
X66767222Y-123770103D01*
G37*
G04 #@! TD.AperFunction*
G04 #@! TD*
G04 #@! TA.AperFunction,Conductor*
G04 #@! TO.N,WLAN_RESET*
G36*
X90734181Y-102881605D02*
G01*
X90737547Y-102888341D01*
X90753860Y-103007720D01*
X90751585Y-103016381D01*
X90750541Y-103017577D01*
X90677577Y-103090541D01*
X90669304Y-103093968D01*
X90667720Y-103093860D01*
X90548341Y-103077547D01*
X90540608Y-103073032D01*
X90538225Y-103065890D01*
X90539226Y-102890856D01*
X90542700Y-102882606D01*
X90550856Y-102879226D01*
X90725889Y-102878225D01*
X90734181Y-102881605D01*
G37*
G04 #@! TD.AperFunction*
G04 #@! TD*
G04 #@! TA.AperFunction,Conductor*
G04 #@! TO.N,WLAN_RESET*
G36*
X89756381Y-104288414D02*
G01*
X89757577Y-104289458D01*
X89830541Y-104362422D01*
X89833968Y-104370695D01*
X89833860Y-104372279D01*
X89817547Y-104491658D01*
X89813032Y-104499391D01*
X89805888Y-104501774D01*
X89630859Y-104500773D01*
X89622606Y-104497299D01*
X89619226Y-104489142D01*
X89618226Y-104314109D01*
X89621606Y-104305818D01*
X89628340Y-104302452D01*
X89747720Y-104286139D01*
X89756381Y-104288414D01*
G37*
G04 #@! TD.AperFunction*
G04 #@! TD*
G04 #@! TA.AperFunction,Conductor*
G04 #@! TO.N,WLAN_DEV_WAKE*
G36*
X65581778Y-125105686D02*
G01*
X65699902Y-125113183D01*
X65707942Y-125117128D01*
X65710845Y-125124242D01*
X65720094Y-125299118D01*
X65717109Y-125307561D01*
X65709123Y-125311414D01*
X65533937Y-125322115D01*
X65525471Y-125319199D01*
X65521772Y-125312832D01*
X65496648Y-125192719D01*
X65498308Y-125183922D01*
X65499822Y-125182058D01*
X65572790Y-125109090D01*
X65581062Y-125105664D01*
X65581778Y-125105686D01*
G37*
G04 #@! TD.AperFunction*
G04 #@! TD*
G04 #@! TA.AperFunction,Conductor*
G04 #@! TO.N,WLAN_DEV_WAKE*
G36*
X76283120Y-113947211D02*
G01*
X76403517Y-113981144D01*
X76410550Y-113986686D01*
X76411968Y-113993727D01*
X76392147Y-114168037D01*
X76387807Y-114175870D01*
X76379200Y-114178340D01*
X76378208Y-114178184D01*
X76203356Y-114142901D01*
X76195924Y-114137905D01*
X76193971Y-114131278D01*
X76195290Y-114031283D01*
X76198715Y-114023165D01*
X76271681Y-113950199D01*
X76279953Y-113946773D01*
X76283120Y-113947211D01*
G37*
G04 #@! TD.AperFunction*
G04 #@! TD*
G04 #@! TA.AperFunction,Conductor*
G04 #@! TO.N,Net-(U301C-PA4)*
G36*
X99744290Y-111201605D02*
G01*
X99747639Y-111208218D01*
X99765061Y-111326379D01*
X99762877Y-111335064D01*
X99761759Y-111336359D01*
X99686359Y-111411759D01*
X99678086Y-111415186D01*
X99676379Y-111415061D01*
X99558218Y-111397639D01*
X99550534Y-111393042D01*
X99548225Y-111385997D01*
X99548516Y-111335064D01*
X99549226Y-111210856D01*
X99552700Y-111202606D01*
X99560856Y-111199226D01*
X99735997Y-111198225D01*
X99744290Y-111201605D01*
G37*
G04 #@! TD.AperFunction*
G04 #@! TD*
G04 #@! TA.AperFunction,Conductor*
G04 #@! TO.N,Net-(U301C-PA4)*
G36*
X88308226Y-112727132D02*
G01*
X88432775Y-112850265D01*
X88436249Y-112858518D01*
X88433941Y-112865562D01*
X88362707Y-112961435D01*
X88355024Y-112966032D01*
X88353317Y-112966157D01*
X88246683Y-112966157D01*
X88238410Y-112962730D01*
X88237292Y-112961435D01*
X88166059Y-112865563D01*
X88163875Y-112856878D01*
X88167222Y-112850267D01*
X88291774Y-112727131D01*
X88300067Y-112723752D01*
X88308226Y-112727132D01*
G37*
G04 #@! TD.AperFunction*
G04 #@! TD*
G04 #@! TA.AperFunction,Conductor*
G04 #@! TO.N,Net-(U301C-PA5)*
G36*
X99008226Y-110707132D02*
G01*
X99132775Y-110830265D01*
X99136249Y-110838518D01*
X99133941Y-110845562D01*
X99062707Y-110941435D01*
X99055024Y-110946032D01*
X99053317Y-110946157D01*
X98946683Y-110946157D01*
X98938410Y-110942730D01*
X98937292Y-110941435D01*
X98866059Y-110845563D01*
X98863875Y-110836878D01*
X98867222Y-110830267D01*
X98991774Y-110707131D01*
X99000067Y-110703752D01*
X99008226Y-110707132D01*
G37*
G04 #@! TD.AperFunction*
G04 #@! TD*
G04 #@! TA.AperFunction,Conductor*
G04 #@! TO.N,Net-(U301C-PA5)*
G36*
X91094290Y-114601605D02*
G01*
X91097639Y-114608218D01*
X91115061Y-114726379D01*
X91112877Y-114735064D01*
X91111759Y-114736359D01*
X91036359Y-114811759D01*
X91028086Y-114815186D01*
X91026379Y-114815061D01*
X90908218Y-114797639D01*
X90900534Y-114793042D01*
X90898225Y-114785997D01*
X90898516Y-114735064D01*
X90899226Y-114610856D01*
X90902700Y-114602606D01*
X90910856Y-114599226D01*
X91085997Y-114598225D01*
X91094290Y-114601605D01*
G37*
G04 #@! TD.AperFunction*
G04 #@! TD*
M02*
