G04 #@! TF.GenerationSoftware,KiCad,Pcbnew,9.0.7*
G04 #@! TF.CreationDate,2026-02-27T16:16:51-07:00*
G04 #@! TF.ProjectId,MPU_MOD,4d50555f-4d4f-4442-9e6b-696361645f70,rev?*
G04 #@! TF.SameCoordinates,Original*
G04 #@! TF.FileFunction,Copper,L6,Inr*
G04 #@! TF.FilePolarity,Positive*
%FSLAX46Y46*%
G04 Gerber Fmt 4.6, Leading zero omitted, Abs format (unit mm)*
G04 Created by KiCad (PCBNEW 9.0.7) date 2026-02-27 16:16:51*
%MOMM*%
%LPD*%
G01*
G04 APERTURE LIST*
G04 Aperture macros list*
%AMFreePoly0*
4,1,229,0.026192,1.103996,0.026383,1.103985,0.052383,1.101985,0.052573,1.101967,0.078573,1.098967,0.078944,1.098910,0.104944,1.093910,0.105167,1.093862,0.130167,1.087862,0.130300,1.087828,0.156300,1.080828,0.156756,1.080682,0.180756,1.071682,0.180923,1.071615,0.204923,1.061615,0.205083,1.061545,0.229083,1.050545,0.229460,1.050353,0.252460,1.037353,0.252684,1.037218,
0.296684,1.009218,0.297030,1.008977,0.318030,0.992977,0.318238,0.992810,0.338238,0.975810,0.338439,0.975630,0.357439,0.957630,0.357630,0.957439,0.375630,0.938439,0.375810,0.938238,0.392810,0.918238,0.392977,0.918030,0.408977,0.897030,0.409218,0.896684,0.437218,0.852684,0.437353,0.852460,0.450353,0.829460,0.450545,0.829083,0.461545,0.805083,0.461615,0.804923,
0.471615,0.780923,0.471682,0.780756,0.480682,0.756756,0.480828,0.756300,0.487828,0.730300,0.487862,0.730167,0.493862,0.705167,0.493910,0.704944,0.498910,0.678944,0.498967,0.678573,0.501967,0.652573,0.501985,0.652383,0.503985,0.626383,0.503996,0.626192,0.504996,0.600192,0.505000,0.600000,0.505000,-0.600000,0.504996,-0.600192,0.503996,-0.626192,0.503985,-0.626383,
0.501985,-0.652383,0.501967,-0.652573,0.498967,-0.678573,0.498910,-0.678944,0.493910,-0.704944,0.493862,-0.705167,0.487862,-0.730167,0.487828,-0.730300,0.480828,-0.756300,0.480682,-0.756756,0.471682,-0.780756,0.471615,-0.780923,0.461615,-0.804923,0.461545,-0.805083,0.450545,-0.829083,0.450353,-0.829460,0.437353,-0.852460,0.437218,-0.852684,0.409218,-0.896684,0.408977,-0.897030,
0.392977,-0.918030,0.392810,-0.918238,0.375810,-0.938238,0.375630,-0.938439,0.357630,-0.957439,0.357439,-0.957630,0.338439,-0.975630,0.338238,-0.975810,0.318238,-0.992810,0.318030,-0.992977,0.297030,-1.008977,0.296684,-1.009218,0.252684,-1.037218,0.252460,-1.037353,0.229460,-1.050353,0.229083,-1.050545,0.205083,-1.061545,0.204923,-1.061615,0.180923,-1.071615,0.180756,-1.071682,
0.156756,-1.080682,0.156300,-1.080828,0.130300,-1.087828,0.130167,-1.087862,0.105167,-1.093862,0.104944,-1.093910,0.078944,-1.098910,0.078573,-1.098967,0.052573,-1.101967,0.052383,-1.101985,0.026383,-1.103985,0.026192,-1.103996,0.000192,-1.104996,-0.000192,-1.104996,-0.026192,-1.103996,-0.026383,-1.103985,-0.052383,-1.101985,-0.052573,-1.101967,-0.078573,-1.098967,-0.078944,-1.098910,
-0.104944,-1.093910,-0.105167,-1.093862,-0.130167,-1.087862,-0.130300,-1.087828,-0.156300,-1.080828,-0.156756,-1.080682,-0.180756,-1.071682,-0.180923,-1.071615,-0.204923,-1.061615,-0.205083,-1.061545,-0.229083,-1.050545,-0.229460,-1.050353,-0.252460,-1.037353,-0.252684,-1.037218,-0.296684,-1.009218,-0.297030,-1.008977,-0.318030,-0.992977,-0.318238,-0.992810,-0.338238,-0.975810,-0.338439,-0.975630,
-0.357439,-0.957630,-0.357630,-0.957439,-0.375630,-0.938439,-0.375810,-0.938238,-0.392810,-0.918238,-0.392977,-0.918030,-0.408977,-0.897030,-0.409218,-0.896684,-0.437218,-0.852684,-0.437353,-0.852460,-0.450353,-0.829460,-0.450545,-0.829083,-0.461545,-0.805083,-0.461615,-0.804923,-0.471615,-0.780923,-0.471682,-0.780756,-0.480682,-0.756756,-0.480828,-0.756300,-0.487828,-0.730300,-0.487862,-0.730167,
-0.493862,-0.705167,-0.493910,-0.704944,-0.498910,-0.678944,-0.498967,-0.678573,-0.501967,-0.652573,-0.501985,-0.652383,-0.503985,-0.626383,-0.503996,-0.626192,-0.504996,-0.600192,-0.505000,-0.600000,-0.505000,0.600000,-0.504996,0.600192,-0.503996,0.626192,-0.503985,0.626383,-0.501985,0.652383,-0.501967,0.652573,-0.498967,0.678573,-0.498910,0.678944,-0.493910,0.704944,-0.493862,0.705167,
-0.487862,0.730167,-0.487828,0.730300,-0.480828,0.756300,-0.480682,0.756756,-0.471682,0.780756,-0.471615,0.780923,-0.461615,0.804923,-0.461545,0.805083,-0.450545,0.829083,-0.450353,0.829460,-0.437353,0.852460,-0.437218,0.852684,-0.409218,0.896684,-0.408977,0.897030,-0.392977,0.918030,-0.392810,0.918238,-0.375810,0.938238,-0.375630,0.938439,-0.357630,0.957439,-0.357439,0.957630,
-0.338439,0.975630,-0.338238,0.975810,-0.318238,0.992810,-0.318030,0.992977,-0.297030,1.008977,-0.296684,1.009218,-0.252684,1.037218,-0.252460,1.037353,-0.229460,1.050353,-0.229083,1.050545,-0.205083,1.061545,-0.204923,1.061615,-0.180923,1.071615,-0.180756,1.071682,-0.156756,1.080682,-0.156300,1.080828,-0.130300,1.087828,-0.130167,1.087862,-0.105167,1.093862,-0.104944,1.093910,
-0.078944,1.098910,-0.078573,1.098967,-0.052573,1.101967,-0.052383,1.101985,-0.026383,1.103985,-0.026192,1.103996,-0.000192,1.104996,0.000192,1.104996,0.026192,1.103996,0.026192,1.103996,$1*%
%AMFreePoly1*
4,1,229,0.026192,0.903996,0.026383,0.903985,0.052383,0.901985,0.052573,0.901967,0.078573,0.898967,0.078944,0.898910,0.104944,0.893910,0.105167,0.893862,0.130167,0.887862,0.130300,0.887828,0.156300,0.880828,0.156756,0.880682,0.180756,0.871682,0.180923,0.871615,0.204923,0.861615,0.205083,0.861545,0.229083,0.850545,0.229460,0.850353,0.252460,0.837353,0.252684,0.837218,
0.296684,0.809218,0.297030,0.808977,0.318030,0.792977,0.318238,0.792810,0.338238,0.775810,0.338439,0.775630,0.357439,0.757630,0.357630,0.757439,0.375630,0.738439,0.375810,0.738238,0.392810,0.718238,0.392977,0.718030,0.408977,0.697030,0.409218,0.696684,0.437218,0.652684,0.437353,0.652460,0.450353,0.629460,0.450545,0.629083,0.461545,0.605083,0.461615,0.604923,
0.471615,0.580923,0.471682,0.580756,0.480682,0.556756,0.480828,0.556300,0.487828,0.530300,0.487862,0.530167,0.493862,0.505167,0.493910,0.504944,0.498910,0.478944,0.498967,0.478573,0.501967,0.452573,0.501985,0.452383,0.503985,0.426383,0.503996,0.426192,0.504996,0.400192,0.505000,0.400000,0.505000,-0.400000,0.504996,-0.400192,0.503996,-0.426192,0.503985,-0.426383,
0.501985,-0.452383,0.501967,-0.452573,0.498967,-0.478573,0.498910,-0.478944,0.493910,-0.504944,0.493862,-0.505167,0.487862,-0.530167,0.487828,-0.530300,0.480828,-0.556300,0.480682,-0.556756,0.471682,-0.580756,0.471615,-0.580923,0.461615,-0.604923,0.461545,-0.605083,0.450545,-0.629083,0.450353,-0.629460,0.437353,-0.652460,0.437218,-0.652684,0.409218,-0.696684,0.408977,-0.697030,
0.392977,-0.718030,0.392810,-0.718238,0.375810,-0.738238,0.375630,-0.738439,0.357630,-0.757439,0.357439,-0.757630,0.338439,-0.775630,0.338238,-0.775810,0.318238,-0.792810,0.318030,-0.792977,0.297030,-0.808977,0.296684,-0.809218,0.252684,-0.837218,0.252460,-0.837353,0.229460,-0.850353,0.229083,-0.850545,0.205083,-0.861545,0.204923,-0.861615,0.180923,-0.871615,0.180756,-0.871682,
0.156756,-0.880682,0.156300,-0.880828,0.130300,-0.887828,0.130167,-0.887862,0.105167,-0.893862,0.104944,-0.893910,0.078944,-0.898910,0.078573,-0.898967,0.052573,-0.901967,0.052383,-0.901985,0.026383,-0.903985,0.026192,-0.903996,0.000192,-0.904996,-0.000192,-0.904996,-0.026192,-0.903996,-0.026383,-0.903985,-0.052383,-0.901985,-0.052573,-0.901967,-0.078573,-0.898967,-0.078944,-0.898910,
-0.104944,-0.893910,-0.105167,-0.893862,-0.130167,-0.887862,-0.130300,-0.887828,-0.156300,-0.880828,-0.156756,-0.880682,-0.180756,-0.871682,-0.180923,-0.871615,-0.204923,-0.861615,-0.205083,-0.861545,-0.229083,-0.850545,-0.229460,-0.850353,-0.252460,-0.837353,-0.252684,-0.837218,-0.296684,-0.809218,-0.297030,-0.808977,-0.318030,-0.792977,-0.318238,-0.792810,-0.338238,-0.775810,-0.338439,-0.775630,
-0.357439,-0.757630,-0.357630,-0.757439,-0.375630,-0.738439,-0.375810,-0.738238,-0.392810,-0.718238,-0.392977,-0.718030,-0.408977,-0.697030,-0.409218,-0.696684,-0.437218,-0.652684,-0.437353,-0.652460,-0.450353,-0.629460,-0.450545,-0.629083,-0.461545,-0.605083,-0.461615,-0.604923,-0.471615,-0.580923,-0.471682,-0.580756,-0.480682,-0.556756,-0.480828,-0.556300,-0.487828,-0.530300,-0.487862,-0.530167,
-0.493862,-0.505167,-0.493910,-0.504944,-0.498910,-0.478944,-0.498967,-0.478573,-0.501967,-0.452573,-0.501985,-0.452383,-0.503985,-0.426383,-0.503996,-0.426192,-0.504996,-0.400192,-0.505000,-0.400000,-0.505000,0.400000,-0.504996,0.400192,-0.503996,0.426192,-0.503985,0.426383,-0.501985,0.452383,-0.501967,0.452573,-0.498967,0.478573,-0.498910,0.478944,-0.493910,0.504944,-0.493862,0.505167,
-0.487862,0.530167,-0.487828,0.530300,-0.480828,0.556300,-0.480682,0.556756,-0.471682,0.580756,-0.471615,0.580923,-0.461615,0.604923,-0.461545,0.605083,-0.450545,0.629083,-0.450353,0.629460,-0.437353,0.652460,-0.437218,0.652684,-0.409218,0.696684,-0.408977,0.697030,-0.392977,0.718030,-0.392810,0.718238,-0.375810,0.738238,-0.375630,0.738439,-0.357630,0.757439,-0.357439,0.757630,
-0.338439,0.775630,-0.338238,0.775810,-0.318238,0.792810,-0.318030,0.792977,-0.297030,0.808977,-0.296684,0.809218,-0.252684,0.837218,-0.252460,0.837353,-0.229460,0.850353,-0.229083,0.850545,-0.205083,0.861545,-0.204923,0.861615,-0.180923,0.871615,-0.180756,0.871682,-0.156756,0.880682,-0.156300,0.880828,-0.130300,0.887828,-0.130167,0.887862,-0.105167,0.893862,-0.104944,0.893910,
-0.078944,0.898910,-0.078573,0.898967,-0.052573,0.901967,-0.052383,0.901985,-0.026383,0.903985,-0.026192,0.903996,-0.000192,0.904996,0.000192,0.904996,0.026192,0.903996,0.026192,0.903996,$1*%
G04 Aperture macros list end*
G04 #@! TA.AperFunction,ComponentPad*
%ADD10FreePoly0,0.000000*%
G04 #@! TD*
G04 #@! TA.AperFunction,ComponentPad*
%ADD11FreePoly1,0.000000*%
G04 #@! TD*
G04 #@! TA.AperFunction,ComponentPad*
%ADD12C,0.800000*%
G04 #@! TD*
G04 #@! TA.AperFunction,ComponentPad*
%ADD13C,5.400000*%
G04 #@! TD*
G04 #@! TA.AperFunction,ViaPad*
%ADD14C,0.400000*%
G04 #@! TD*
G04 #@! TA.AperFunction,Conductor*
%ADD15C,0.500000*%
G04 #@! TD*
G04 #@! TA.AperFunction,Conductor*
%ADD16C,0.200000*%
G04 #@! TD*
G04 #@! TA.AperFunction,Conductor*
%ADD17C,0.118400*%
G04 #@! TD*
G04 APERTURE END LIST*
D10*
G04 #@! TO.N,GND*
G04 #@! TO.C,J1101*
X96240000Y-127410000D03*
D11*
X107480000Y-123410000D03*
X96240000Y-123410000D03*
D10*
X107480000Y-127410000D03*
G04 #@! TD*
D12*
G04 #@! TO.N,GND*
G04 #@! TO.C,H101*
X61395000Y-88785000D03*
X61988109Y-87353109D03*
X61988109Y-90216891D03*
X63420000Y-86760000D03*
D13*
X63420000Y-88785000D03*
D12*
X63420000Y-90810000D03*
X64851891Y-87353109D03*
X64851891Y-90216891D03*
X65445000Y-88785000D03*
G04 #@! TD*
D10*
G04 #@! TO.N,GND*
G04 #@! TO.C,J1102*
X82280000Y-127410000D03*
D11*
X93520000Y-123410000D03*
X82280000Y-123410000D03*
D10*
X93520000Y-127410000D03*
G04 #@! TD*
D14*
G04 #@! TO.N,GND*
X92650000Y-121300000D03*
X84700000Y-121950000D03*
X62590000Y-118160000D03*
X92079493Y-102104493D03*
X106400000Y-76600000D03*
X68500000Y-109200000D03*
X96170000Y-107030000D03*
X69285000Y-105335000D03*
X108750000Y-118160000D03*
X109130000Y-108760000D03*
X96130000Y-85210000D03*
X73355000Y-104155000D03*
X101750000Y-95700000D03*
X66200000Y-63800000D03*
X91250000Y-94015000D03*
X68400000Y-117300000D03*
X61090000Y-119260000D03*
X71020000Y-84510000D03*
X71090000Y-110850000D03*
X98950000Y-66900000D03*
X98466992Y-93316992D03*
X68377500Y-100835000D03*
X76700000Y-62300000D03*
X61090000Y-118160000D03*
X83145000Y-72425000D03*
X86250000Y-96440000D03*
X75715000Y-112335000D03*
X104530000Y-114660000D03*
X91550000Y-121300000D03*
X100890000Y-102940000D03*
X91286993Y-102896993D03*
X66800000Y-60200000D03*
X85200000Y-85150000D03*
X100350000Y-109310000D03*
X62590000Y-126960000D03*
X100940000Y-73730000D03*
X89100000Y-75100000D03*
X90110000Y-115600000D03*
X93260000Y-79030000D03*
X102500000Y-92500000D03*
X89100000Y-78700000D03*
X87170000Y-95290000D03*
X104050000Y-93335000D03*
X65590000Y-111580000D03*
X82020000Y-70620000D03*
X75355000Y-105155000D03*
X87060000Y-80530000D03*
X93550000Y-67000000D03*
X74600000Y-63200000D03*
X72950000Y-116600000D03*
X73990000Y-126960000D03*
X103270000Y-91720000D03*
X105650000Y-71200000D03*
X107586670Y-114609586D03*
X97810000Y-120600000D03*
X104500000Y-76500000D03*
X81900000Y-84600000D03*
X93550408Y-71699593D03*
X91250000Y-93250000D03*
X95000000Y-62300000D03*
X71890000Y-111650000D03*
X68502500Y-105335000D03*
X76410000Y-124640000D03*
X66200000Y-63000000D03*
X75390000Y-96935000D03*
X76355000Y-105155000D03*
X93666993Y-93316993D03*
X66220000Y-113030000D03*
X61090000Y-126960000D03*
X81550000Y-67300000D03*
X93450000Y-80440000D03*
X95276992Y-96506992D03*
X69285000Y-103535000D03*
X75570000Y-124610000D03*
X68555000Y-106955000D03*
X68180000Y-101530000D03*
X92900000Y-81690000D03*
X73990000Y-118160000D03*
X95286992Y-98096992D03*
X95170000Y-70100000D03*
X78950000Y-67300000D03*
X101780000Y-80160000D03*
X101786993Y-78416993D03*
X64300000Y-111140000D03*
X69400000Y-63800000D03*
X70390000Y-74765000D03*
X100070000Y-98090000D03*
X103210000Y-94885000D03*
X69290000Y-98535000D03*
X99520000Y-61110000D03*
X94790000Y-86520000D03*
X93970000Y-111220000D03*
X68490000Y-123110000D03*
X93500000Y-70150000D03*
X102767400Y-70336585D03*
X89200000Y-71250000D03*
X95301992Y-94881992D03*
X99170000Y-72520000D03*
X68800000Y-63800000D03*
X104270000Y-106830000D03*
X100800000Y-70930000D03*
X80180000Y-104562500D03*
X93670000Y-94920000D03*
X76790000Y-96935000D03*
X68377500Y-102335000D03*
X80180000Y-103662500D03*
X68502500Y-103535000D03*
X105890000Y-61100000D03*
X92100000Y-121300000D03*
X64090000Y-123660000D03*
X74600000Y-65600000D03*
X71090000Y-111650000D03*
X97600000Y-68800000D03*
X76355000Y-104155000D03*
X72885000Y-115420000D03*
X93670000Y-100510000D03*
X108810000Y-115650000D03*
X100090000Y-102130000D03*
X100051993Y-99731993D03*
X107320000Y-91320000D03*
X92060000Y-95710000D03*
X103271992Y-93311992D03*
X90100000Y-64450000D03*
X102700000Y-68700000D03*
X102470408Y-102119592D03*
X96870000Y-93320000D03*
X64300000Y-110070000D03*
X77601500Y-82095000D03*
X89100000Y-73100000D03*
X108890000Y-112892500D03*
X75570000Y-127170000D03*
X100060000Y-118320000D03*
X105350000Y-114660000D03*
X93350000Y-72916585D03*
X105430000Y-120120000D03*
X64310000Y-110600000D03*
X100029000Y-114010000D03*
X106440000Y-113430000D03*
X93666992Y-98116992D03*
X86050000Y-118300000D03*
X75450000Y-110635000D03*
X84100000Y-121300000D03*
X66290000Y-123110000D03*
X100840000Y-70120000D03*
X105990000Y-101620000D03*
X92080000Y-101300000D03*
X90050000Y-88980000D03*
X85600000Y-82300000D03*
X64090000Y-125860000D03*
X68200000Y-63800000D03*
X69290000Y-97935000D03*
X97750000Y-111220000D03*
X100890000Y-101290000D03*
X67550000Y-61100000D03*
X76125000Y-111535000D03*
X74690000Y-98060000D03*
X84100000Y-64450000D03*
X105990000Y-102440000D03*
X98486992Y-98096992D03*
X107330000Y-96990000D03*
X61330000Y-105030000D03*
X88820000Y-80710000D03*
X67200000Y-66400000D03*
X87730000Y-82130000D03*
X68350000Y-114700000D03*
X88600000Y-79600000D03*
X101680000Y-99720000D03*
X98030000Y-108040000D03*
X96090407Y-101339593D03*
X105650000Y-73200000D03*
X74600000Y-62400000D03*
X69015000Y-99335000D03*
X72890000Y-125860000D03*
X83000000Y-121300000D03*
X98460000Y-102910000D03*
X105060000Y-122187500D03*
X106700000Y-75850000D03*
X101550000Y-119670000D03*
X102910000Y-119660000D03*
X73355000Y-105155000D03*
X74600000Y-64800000D03*
X90760000Y-109100000D03*
X103280000Y-102930000D03*
X91250000Y-119700000D03*
X76355000Y-103155000D03*
X91250000Y-120500000D03*
X101680000Y-96510000D03*
X88980000Y-119770000D03*
X86930000Y-78870000D03*
X74600000Y-61600000D03*
X87950000Y-116680000D03*
X89540000Y-98250000D03*
X101000000Y-74516585D03*
X89100000Y-77000000D03*
X78275000Y-126710000D03*
X101820000Y-81815000D03*
X96100000Y-102140000D03*
X85290000Y-83460000D03*
X71515000Y-112335000D03*
X71890000Y-110850000D03*
X94480000Y-102120000D03*
X87100000Y-64450000D03*
X96870000Y-96500000D03*
X64090000Y-120360000D03*
X66450000Y-61290000D03*
X77601500Y-82915000D03*
X74690000Y-96935000D03*
X98451993Y-99731993D03*
X88730000Y-95710000D03*
X105430000Y-120940000D03*
X99209000Y-114010000D03*
X105700000Y-72200000D03*
X95270000Y-102110000D03*
X88600000Y-74000000D03*
X64990000Y-109920000D03*
X91000000Y-121300000D03*
X98660000Y-122187500D03*
X69035000Y-122555000D03*
X74355000Y-104155000D03*
X74540000Y-82095000D03*
X96870000Y-94920000D03*
X104910000Y-89450000D03*
X93671992Y-101311992D03*
X64090000Y-121460000D03*
X87950000Y-117500000D03*
X92860000Y-102140000D03*
X104040000Y-103720000D03*
X75355000Y-103155000D03*
X61360000Y-103340000D03*
X101655408Y-101304592D03*
X93650000Y-102920000D03*
X80180000Y-105562500D03*
X83145000Y-80205000D03*
X71700000Y-115590000D03*
X76125000Y-110635000D03*
X94440000Y-102910000D03*
X84650000Y-121300000D03*
X106700000Y-81250000D03*
X71590000Y-110110000D03*
X102480000Y-99710000D03*
X69285000Y-108035000D03*
X98486993Y-96496993D03*
X74540000Y-82915000D03*
X74060000Y-87430000D03*
X73355000Y-103155000D03*
X95266993Y-93316993D03*
X98466993Y-101316993D03*
X99240000Y-118320000D03*
X70870000Y-70220000D03*
X95690000Y-109220000D03*
X71590000Y-81995000D03*
X85720000Y-99130000D03*
X88160000Y-96820000D03*
X69040000Y-97185000D03*
X66860000Y-117260000D03*
X98520000Y-103740000D03*
X84080000Y-120040000D03*
X96881992Y-98101992D03*
X88760000Y-118360000D03*
X102900000Y-121250000D03*
X94360000Y-76530000D03*
X75990000Y-96935000D03*
X100091993Y-101291993D03*
X87120000Y-118430000D03*
X88600000Y-77800000D03*
X106870000Y-93730000D03*
X102465407Y-93314593D03*
X85600000Y-64450000D03*
X92900000Y-101300000D03*
X88600000Y-76100000D03*
X101656993Y-93326993D03*
X88600000Y-72200000D03*
X95254492Y-99729492D03*
X93690000Y-99715000D03*
X100041992Y-93341992D03*
X66200000Y-64600000D03*
X91300000Y-92545000D03*
X64320000Y-114350000D03*
X74355000Y-103155000D03*
X74600000Y-64000000D03*
X101700000Y-100520000D03*
X72890000Y-119260000D03*
X75450000Y-111535000D03*
X105700000Y-74200000D03*
X96866992Y-99716992D03*
X82975000Y-121875000D03*
X74355000Y-105155000D03*
X64090000Y-124760000D03*
X66290000Y-122010000D03*
X101920000Y-70120000D03*
X82600000Y-64500000D03*
X64980000Y-111580000D03*
X108710000Y-122290000D03*
X64090000Y-119260000D03*
X102720000Y-61100000D03*
X69590000Y-122010000D03*
X92866993Y-103716993D03*
X101240000Y-120120000D03*
X93656992Y-96526992D03*
X95870000Y-119570000D03*
X106400000Y-79900000D03*
X92700000Y-109020000D03*
X106400000Y-77600000D03*
X83550000Y-121300000D03*
X68225000Y-66425000D03*
X61090000Y-125860000D03*
X75790000Y-109910000D03*
X86790000Y-119740000D03*
X90470000Y-100510000D03*
X93420000Y-74516585D03*
X69370000Y-83355000D03*
X90456993Y-103726993D03*
X100070000Y-96500000D03*
X81760000Y-87500000D03*
X96865408Y-102914592D03*
X75355000Y-104155000D03*
X95870000Y-111220000D03*
X103250000Y-98120000D03*
X101680000Y-98110000D03*
X88600000Y-64450000D03*
X91100000Y-121950000D03*
X98481993Y-94901993D03*
G04 #@! TO.N,VDD_USB*
X104890000Y-95695000D03*
X79220000Y-104562500D03*
X104930000Y-93155000D03*
G04 #@! TO.N,VDDA*
X70245000Y-106235000D03*
G04 #@! TO.N,3V3*
X71100000Y-60700000D03*
X73700000Y-112700000D03*
X79665000Y-82575000D03*
X74790000Y-112100000D03*
X70245000Y-108035000D03*
X78580000Y-120010000D03*
X75460000Y-85925000D03*
X75570000Y-125510000D03*
X76725000Y-126710000D03*
X102320000Y-61680000D03*
X71700000Y-60700000D03*
X74790000Y-112700000D03*
X74570000Y-85915000D03*
X73700000Y-112100000D03*
X71100000Y-83375000D03*
X74195000Y-107395000D03*
X74250000Y-112100000D03*
X103080000Y-108050000D03*
X74250000Y-112700000D03*
X78400000Y-85915000D03*
X77330000Y-118050000D03*
X74250000Y-111500000D03*
X75570000Y-126270000D03*
X77590000Y-122350000D03*
X71640000Y-85905000D03*
X77600000Y-120500000D03*
X70500000Y-60700000D03*
X76410000Y-125540000D03*
X74790000Y-111500000D03*
X79290000Y-85925000D03*
X69900000Y-60700000D03*
X82220000Y-85925000D03*
X77570000Y-125340000D03*
X73700000Y-111500000D03*
X71800000Y-83375000D03*
G04 #@! TO.N,VIN*
X90300000Y-121950000D03*
X104530000Y-120120000D03*
X63710000Y-112510000D03*
X104530000Y-120970000D03*
X74925000Y-99400000D03*
X74400000Y-100615000D03*
X72465000Y-101160000D03*
X90300000Y-121400000D03*
X99370000Y-120620000D03*
X94020000Y-119550000D03*
X74475000Y-99825000D03*
X79220000Y-105562500D03*
X85500000Y-120100000D03*
X75500000Y-108600000D03*
X90350000Y-120500000D03*
X71590000Y-108560000D03*
X85500000Y-121950000D03*
X105652500Y-108980000D03*
X70245000Y-105335000D03*
X72015000Y-100785000D03*
X70565000Y-99335000D03*
X85500000Y-121375000D03*
X75750000Y-108100000D03*
X85500000Y-120775000D03*
X76050000Y-108575000D03*
X98850000Y-120610000D03*
X90350000Y-119700000D03*
X72955000Y-107455000D03*
G04 #@! TO.N,VTT_DDR*
X90050000Y-74000000D03*
X70015000Y-102335000D03*
X90050000Y-75050000D03*
X90050000Y-76100000D03*
G04 #@! TO.N,VREF_DDR*
X104860000Y-91680000D03*
X104450000Y-78390000D03*
X93110000Y-75316585D03*
X70245000Y-103535000D03*
G04 #@! TO.N,VDD_DDR*
X92980000Y-80100000D03*
X95140000Y-75690000D03*
X106700000Y-74950000D03*
X101780000Y-80916585D03*
X99266993Y-93316993D03*
X93540000Y-69190000D03*
X89200000Y-70350000D03*
X99150000Y-77290000D03*
X94371992Y-70911992D03*
X70800000Y-96400000D03*
X102800000Y-75370000D03*
X101920000Y-71296585D03*
X99850000Y-66900000D03*
X100851993Y-93331993D03*
X85600000Y-81400000D03*
X70015000Y-100835000D03*
X94460000Y-93265000D03*
X100890000Y-72530000D03*
X98440000Y-74920000D03*
X88820000Y-81610000D03*
X73675000Y-100900000D03*
X86930000Y-79770000D03*
X102780000Y-71291585D03*
X70175000Y-96400000D03*
X99950000Y-70110000D03*
X92850000Y-93300000D03*
X85200000Y-84250000D03*
X102700000Y-69600000D03*
X95150000Y-72500000D03*
X96066993Y-93316993D03*
X70490000Y-97185000D03*
X93370000Y-73590000D03*
X106700000Y-82150000D03*
X73300000Y-96400000D03*
X71425000Y-96400000D03*
X101820000Y-79390000D03*
X93540000Y-70920000D03*
X72050000Y-96400000D03*
X97666993Y-93316993D03*
X72675000Y-96400000D03*
X100880000Y-71720000D03*
G04 #@! TO.N,VDD_CORE*
X75600000Y-100935000D03*
X97671993Y-94911993D03*
X97670000Y-98140000D03*
X92880000Y-94890000D03*
X92835000Y-99715000D03*
X94455000Y-101315000D03*
X79500000Y-99000000D03*
X79490000Y-97775000D03*
X96060000Y-96500000D03*
X94440000Y-96500000D03*
X92835000Y-98115000D03*
X79490000Y-97175000D03*
X79489000Y-96575000D03*
X93700000Y-102100000D03*
X92870000Y-96510000D03*
X94465000Y-99715000D03*
X96060000Y-98100000D03*
X94466993Y-98116993D03*
X99264493Y-96519493D03*
X97670000Y-96520000D03*
X100874493Y-94909493D03*
X96076992Y-94906992D03*
X99230000Y-94920000D03*
X79490000Y-98375000D03*
X96061993Y-99721993D03*
X95275407Y-101324593D03*
G04 #@! TO.N,VDD*
X78450000Y-112100000D03*
X77125000Y-107450000D03*
X99256993Y-99726993D03*
X96800000Y-101250000D03*
X86760000Y-102630000D03*
X89680000Y-95725000D03*
X97650000Y-101310000D03*
X91410000Y-108530000D03*
X78990000Y-112100000D03*
X95200000Y-105900000D03*
X94470000Y-94920000D03*
X78450000Y-112700000D03*
X100030000Y-104480000D03*
X96810000Y-111220000D03*
X77900000Y-112100000D03*
X100841992Y-96541992D03*
X94920000Y-111220000D03*
X78950000Y-102880000D03*
X97656992Y-99726992D03*
X93030000Y-111220000D03*
X100861993Y-98121993D03*
X97670000Y-102130000D03*
X103039999Y-106840000D03*
X99270000Y-98130000D03*
X99270000Y-101310000D03*
X100870000Y-99700000D03*
X77900000Y-112700000D03*
X107100000Y-119900000D03*
X77900000Y-111500000D03*
X78450000Y-111500000D03*
X78990000Y-111500000D03*
X108890000Y-111540000D03*
G04 #@! TO.N,NRST*
X104420000Y-116450000D03*
X108530000Y-119110000D03*
X98240000Y-105410000D03*
X99070000Y-116220000D03*
G04 #@! TO.N,I2C1_SDA*
X81750000Y-72200000D03*
X83600000Y-70300000D03*
X91100000Y-66550000D03*
G04 #@! TO.N,I2C1_SCL*
X91600000Y-66950000D03*
X105510000Y-99070000D03*
X109180000Y-96280000D03*
G04 #@! TO.N,Net-(U202-~{PONKEY})*
X70890000Y-103960000D03*
X61380000Y-101652500D03*
G04 #@! TO.N,SDMMC3_CMD*
X89695000Y-102905000D03*
X78630000Y-121030000D03*
G04 #@! TO.N,SDMMC3_D0*
X89650000Y-102130000D03*
X78440000Y-118580000D03*
G04 #@! TO.N,SDMMC3_D1*
X92090000Y-100490000D03*
X78480000Y-119230000D03*
G04 #@! TO.N,SDMMC3_D2*
X92060000Y-99710000D03*
X78300000Y-123370000D03*
G04 #@! TO.N,PWR_ON*
X97800000Y-104750000D03*
X94030000Y-109320000D03*
X77905000Y-101655000D03*
G04 #@! TO.N,/RCC_BOOT_RST_DEBUG/T_JTMS{slash}T_SWDIO*
X92090000Y-93295000D03*
X82700000Y-96650000D03*
G04 #@! TO.N,/RCC_BOOT_RST_DEBUG/T_JCLK{slash}T_SWCLK*
X82100000Y-97100000D03*
X92120000Y-92475000D03*
G04 #@! TO.N,/RCC_BOOT_RST_DEBUG/T_JTDO{slash}T_SWO*
X82150000Y-97950000D03*
X92100000Y-93935000D03*
G04 #@! TO.N,/RCC_BOOT_RST_DEBUG/T_JTDI{slash}NC*
X81550000Y-99400000D03*
X92080000Y-94955000D03*
G04 #@! TO.N,UART4_RX_STM*
X98600000Y-117820000D03*
X107130000Y-94460000D03*
X107560000Y-99510000D03*
X102470000Y-94105000D03*
G04 #@! TO.N,UART4_TX_STM*
X104040000Y-100480000D03*
X98560000Y-118820000D03*
G04 #@! TO.N,USB_D-*
X87675000Y-118800000D03*
X87125000Y-120300000D03*
G04 #@! TO.N,USB_D+*
X87675000Y-120300000D03*
X88225000Y-118800000D03*
G04 #@! TO.N,/DDR/DDR_A9*
X94340000Y-80540000D03*
X94460000Y-91650000D03*
G04 #@! TO.N,PMIC_PA0_WKUP_INTR*
X101675000Y-102900000D03*
X77905000Y-101005000D03*
G04 #@! TO.N,/DDR/DDR_DQ1*
X95136993Y-71736993D03*
X89860000Y-87790000D03*
G04 #@! TO.N,SDMMC1_D1*
X70390000Y-72565000D03*
X87700000Y-95600000D03*
G04 #@! TO.N,uSD_DETECT*
X81340000Y-83440000D03*
X74707500Y-71192500D03*
G04 #@! TO.N,/DDR/DDR_DQ4*
X99960000Y-70920000D03*
X94080000Y-88240000D03*
G04 #@! TO.N,/DDR/DDR_A7*
X93350000Y-81280000D03*
X92850000Y-91580000D03*
G04 #@! TO.N,/DDR/DDR_DQ7*
X96137400Y-70296585D03*
X89940000Y-88390000D03*
G04 #@! TO.N,/DDR/DDR_A5*
X94390000Y-79740000D03*
X95290000Y-91690000D03*
G04 #@! TO.N,/DDR/DDR_A4*
X101330000Y-80500000D03*
X100842400Y-90891585D03*
G04 #@! TO.N,SDMMC1_D0*
X70350000Y-73700000D03*
X91230000Y-95740000D03*
G04 #@! TO.N,/DDR/DDR_BA0*
X94350000Y-78070000D03*
X94740000Y-89090000D03*
G04 #@! TO.N,/DDR/DDR_A1*
X99127400Y-79716585D03*
X98467400Y-91716585D03*
G04 #@! TO.N,/DDR/DDR_A6*
X101420000Y-81360000D03*
X100092400Y-91691585D03*
G04 #@! TO.N,SDMMC1_D2*
X92070000Y-96500000D03*
X70390000Y-80265000D03*
G04 #@! TO.N,/DDR/DDR_DQ6*
X98307400Y-72586585D03*
X92530000Y-88290000D03*
G04 #@! TO.N,/DDR/DDR_WEN*
X95990000Y-77290000D03*
X96857400Y-91706585D03*
G04 #@! TO.N,/DDR/DDR_A14*
X100017400Y-90916585D03*
X100790000Y-82940000D03*
G04 #@! TO.N,/DDR/DDR_DQM0*
X96150000Y-72580000D03*
X90470000Y-88380000D03*
G04 #@! TO.N,/DDR/DDR_RASN*
X97627400Y-90096585D03*
X95980000Y-75680000D03*
G04 #@! TO.N,/DDR/DDR_A0*
X95150000Y-78870000D03*
X95240000Y-90090000D03*
G04 #@! TO.N,SYS_I2C4_SCL*
X103270000Y-96550000D03*
X84600000Y-100650000D03*
X75990000Y-100535000D03*
G04 #@! TO.N,/DDR/DDR_DQ2*
X93060000Y-88280000D03*
X99167400Y-70136585D03*
G04 #@! TO.N,/DDR/DDR_DQS0_P*
X98110000Y-71080000D03*
X91250000Y-89330000D03*
G04 #@! TO.N,/DDR/DDR_RESETN*
X94030000Y-92000000D03*
X97600000Y-87730000D03*
G04 #@! TO.N,/DDR/DDR_CSN*
X95157400Y-77326585D03*
X96037400Y-90906585D03*
G04 #@! TO.N,/DDR/DDR_A13*
X92420000Y-82120000D03*
X93580000Y-91690000D03*
G04 #@! TO.N,/DDR/DDR_DQS0_N*
X90790000Y-89100000D03*
X98093293Y-70563293D03*
G04 #@! TO.N,/DDR/DDR_CLK_N*
X99110000Y-76510000D03*
X97392400Y-89050000D03*
G04 #@! TO.N,/DDR/DDR_DQ3*
X94347400Y-70106585D03*
X89300000Y-87300000D03*
G04 #@! TO.N,/DDR/DDR_A10*
X98842400Y-89191585D03*
X99187400Y-78136585D03*
G04 #@! TO.N,/DDR/DDR_A3*
X94390000Y-78890000D03*
X94490000Y-90090000D03*
G04 #@! TO.N,SYS_I2C4_SDA*
X102430000Y-95785000D03*
X76390000Y-100935000D03*
X85600000Y-100250000D03*
G04 #@! TO.N,/DDR/DDR_CASN*
X96867400Y-90886585D03*
X95990000Y-76500000D03*
G04 #@! TO.N,SDMMC1_CMD*
X86500000Y-97050000D03*
X70390000Y-78065000D03*
G04 #@! TO.N,/DDR/DDR_A8*
X102030000Y-82450000D03*
X101667400Y-91716585D03*
G04 #@! TO.N,/DDR/DDR_ODT*
X95490000Y-89090000D03*
X94367400Y-77316585D03*
G04 #@! TO.N,/DDR/DDR_A12*
X98477400Y-90916585D03*
X99165000Y-78915000D03*
G04 #@! TO.N,/DDR/DDR_A11*
X99267400Y-90091585D03*
X99890000Y-82760000D03*
G04 #@! TO.N,SDMMC1_CK*
X70390000Y-75865000D03*
X91250000Y-97325000D03*
G04 #@! TO.N,/DDR/DDR_CLK_P*
X97942400Y-89050000D03*
X98440000Y-76520000D03*
G04 #@! TO.N,/DDR/DDR_BA2*
X95137400Y-78086585D03*
X96027400Y-91756585D03*
G04 #@! TO.N,/DDR/DDR_DQ5*
X93570000Y-88260000D03*
X99987400Y-71696585D03*
G04 #@! TO.N,/DDR/DDR_CKE*
X101800000Y-77550001D03*
X100517400Y-89060000D03*
G04 #@! TO.N,/DDR/DDR_DQ0*
X94390000Y-71690000D03*
X89460000Y-92040000D03*
G04 #@! TO.N,/DDR/DDR_BA1*
X100900000Y-79660000D03*
X99292400Y-90916585D03*
G04 #@! TO.N,SDMMC1_D3*
X90450000Y-95735000D03*
X81750000Y-86900000D03*
X70390000Y-79165000D03*
X73580000Y-86800000D03*
G04 #@! TO.N,/DDR/DDR_A2*
X95240000Y-90940000D03*
X95140000Y-79740000D03*
G04 #@! TO.N,PMIC_WAKEUP*
X97700000Y-102950000D03*
X79570000Y-101490000D03*
G04 #@! TO.N,SDMMC3_D3*
X78330000Y-124260000D03*
X90480000Y-102120000D03*
G04 #@! TO.N,SDMMC3_CK*
X89260000Y-103350000D03*
X77350000Y-121580000D03*
G04 #@! TO.N,UART8_TX_STM*
X66850000Y-126400000D03*
X90420000Y-104560000D03*
G04 #@! TO.N,UART8_RX_STM*
X91280000Y-102100000D03*
X67390000Y-127730000D03*
G04 #@! TO.N,UART8_CTS_STM*
X88760000Y-111310000D03*
X65750000Y-126400000D03*
X92870000Y-104510000D03*
G04 #@! TO.N,UART8_RTS_STM*
X92080000Y-102900000D03*
X66280000Y-127720000D03*
G04 #@! TO.N,2V8*
X79850000Y-67300000D03*
X92650000Y-67000000D03*
X70245000Y-109010000D03*
G04 #@! TO.N,unconnected-(C214-Pad2)*
X70245000Y-104435000D03*
G04 #@! TO.N,1V8*
X99210000Y-61700000D03*
X70245000Y-107135000D03*
X98000000Y-65900000D03*
X80650000Y-67300000D03*
X105460000Y-61830000D03*
G04 #@! TO.N,Net-(J501-VDD)*
X70100000Y-76965000D03*
X70650000Y-76965000D03*
G04 #@! TO.N,Net-(D601-K)*
X101810000Y-105440000D03*
X103100000Y-109050000D03*
G04 #@! TO.N,Net-(D602-K)*
X102200000Y-109070000D03*
X100870000Y-104430000D03*
G04 #@! TO.N,DSI_CK_P*
X87515545Y-81075545D03*
X85985000Y-83470000D03*
G04 #@! TO.N,DSI_CK_N*
X87904455Y-81464455D03*
X86535000Y-83470000D03*
G04 #@! TO.N,/MPU_PWR/VDDA*
X98470000Y-102110000D03*
X99310000Y-102960000D03*
X101320000Y-104820000D03*
G04 #@! TO.N,I2S2_SDI*
X92080000Y-97310000D03*
G04 #@! TO.N,I2S2_WS*
X92080000Y-98120000D03*
G04 #@! TO.N,I2S2_CK*
X91250000Y-98100000D03*
G04 #@! TO.N,I2S3_SDO*
X69030000Y-126390000D03*
X88900000Y-98620000D03*
G04 #@! TO.N,I2S3_CK*
X70140000Y-125320000D03*
X88460000Y-99070000D03*
G04 #@! TO.N,I2S3_SDI*
X90480000Y-98120000D03*
X70130000Y-126410000D03*
G04 #@! TO.N,I2S3_WS*
X91280000Y-99690000D03*
X69040000Y-125320000D03*
G04 #@! TO.N,USB_M_D+*
X101230000Y-120720000D03*
X102120000Y-120770000D03*
X101980000Y-120130000D03*
G04 #@! TO.N,USB_M_D-*
X101240000Y-121290000D03*
X102530000Y-120130000D03*
X102110000Y-121290000D03*
G04 #@! TO.N,UART7_RX_STM*
X108890000Y-100550000D03*
X107630000Y-105940000D03*
X102460000Y-97310000D03*
G04 #@! TO.N,UART7_TX_STM*
X109130000Y-108060000D03*
X102430000Y-96460000D03*
X105700000Y-99710000D03*
X108880000Y-102110000D03*
G04 #@! TO.N,SYS_I2C6_SCL*
X107320000Y-100700000D03*
X104070000Y-91720000D03*
X107270000Y-103070000D03*
X105660000Y-106970000D03*
G04 #@! TO.N,SYS_I2C6_SDA*
X105960000Y-100730000D03*
X103270000Y-92520000D03*
G04 #@! TO.N,FDCAN2_TX*
X105370000Y-100910000D03*
X101700000Y-94930000D03*
G04 #@! TO.N,FDCAN2_RX*
X104070000Y-101320000D03*
G04 #@! TO.N,ETH1_TXD1*
X102460000Y-98090000D03*
G04 #@! TO.N,ETH1_CRS_DV*
X102470000Y-100520000D03*
G04 #@! TO.N,ETH1_TXD0*
X103270000Y-103700000D03*
G04 #@! TO.N,ETH1_RXD1*
X104050000Y-102090000D03*
G04 #@! TO.N,ETH1_MDC*
X104040000Y-102940000D03*
G04 #@! TO.N,ETH1_REF_CLK*
X103270000Y-102100000D03*
G04 #@! TO.N,SPI5_SCK*
X105430000Y-98140000D03*
G04 #@! TO.N,SPI5_MISO*
X103250000Y-97290000D03*
G04 #@! TO.N,SPI5_MOSI*
X109320000Y-105980000D03*
X108880000Y-101370000D03*
X105760000Y-97730000D03*
G04 #@! TO.N,Net-(U202-~{RST})*
X97780000Y-115560000D03*
X77300000Y-100970000D03*
X91500000Y-109660000D03*
G04 #@! TO.N,Net-(U901A-CONFIG0)*
X71500000Y-120400000D03*
G04 #@! TO.N,/LCD/LED_A*
X76100000Y-67500000D03*
X68900000Y-67500000D03*
G04 #@! TO.N,/LCD/TP_INT*
X97760000Y-64000000D03*
G04 #@! TO.N,/LCD/RESET*
X105470000Y-64320000D03*
X81200000Y-66600000D03*
G04 #@! TO.N,/LCD/LED_K*
X78800000Y-66600000D03*
X69674999Y-61585343D03*
G04 #@! TO.N,/LCD/TP_RES*
X98570000Y-64510000D03*
G04 #@! TO.N,LCD_RST*
X109150000Y-95500000D03*
X105085000Y-98565000D03*
G04 #@! TO.N,LCD_TP_INTR*
X108450000Y-94450000D03*
X105750000Y-96850000D03*
G04 #@! TO.N,LCD_BL_PWM*
X65500000Y-66400000D03*
X104050000Y-97350000D03*
G04 #@! TO.N,Net-(U1001-FB)*
X69000000Y-61600000D03*
X67130000Y-62324999D03*
G04 #@! TO.N,LCD_TP_RST*
X108350000Y-93600000D03*
X104050000Y-96500000D03*
G04 #@! TO.N,1V8_WIFI*
X66900000Y-110510000D03*
X74200000Y-115500000D03*
X67500000Y-111100000D03*
X73800000Y-114900000D03*
X66900000Y-111100000D03*
X73990000Y-119260000D03*
X73500000Y-118800000D03*
X73850000Y-116600000D03*
X69940000Y-114500000D03*
G04 #@! TO.N,1V8_WIFI_EN*
X88300000Y-111980000D03*
X63620000Y-113350000D03*
X92870000Y-102910000D03*
G04 #@! TO.N,WIFI_PDn*
X83570000Y-105760000D03*
X89680000Y-100510000D03*
G04 #@! TO.N,Net-(U901A-PDN)*
X64680000Y-120880000D03*
X65330000Y-116610000D03*
G04 #@! TO.N,WLAN_WAKE_HOST*
X75360000Y-115890000D03*
X67250000Y-124000000D03*
G04 #@! TO.N,BT_WAKE_HOST*
X70870000Y-124040000D03*
X79200000Y-124800000D03*
G04 #@! TO.N,BT_RESET*
X88630000Y-101700000D03*
X75490000Y-114610000D03*
X65740000Y-124140000D03*
X91230000Y-101380000D03*
G04 #@! TO.N,WLAN_RESET*
X75700000Y-115400000D03*
X90540000Y-102880000D03*
X89620000Y-104500000D03*
X66640000Y-124000000D03*
G04 #@! TO.N,WLAN_DEV_WAKE*
X65720000Y-125310000D03*
X87780000Y-101010000D03*
X76390000Y-114180000D03*
X91310000Y-100520000D03*
G04 #@! TO.N,MOD_ADC9{slash}TIM3_CH3*
X105410000Y-107990000D03*
G04 #@! TO.N,Net-(U301A-VBAT)*
X95260000Y-102920000D03*
X90580000Y-105980000D03*
G04 #@! TO.N,Net-(U301A-VREF+)*
X100090000Y-103740000D03*
G04 #@! TO.N,Net-(U301A-VDD1V2_DSI_PHY)*
X90450000Y-92595000D03*
G04 #@! TO.N,Net-(U301A-VDDA1V1_REG)*
X104060000Y-95735000D03*
G04 #@! TO.N,Net-(U301A-VDDA1V8_DSI)*
X91250000Y-94915000D03*
X103250000Y-95735000D03*
G04 #@! TO.N,Net-(U301E-NRST_CORE)*
X96080000Y-103730000D03*
G04 #@! TO.N,Net-(U301C-PA4)*
X101675000Y-102100000D03*
X99550000Y-111200000D03*
X88300000Y-112720000D03*
G04 #@! TO.N,Net-(U301C-PA5)*
X99000000Y-110700000D03*
X100875000Y-102125000D03*
X90900000Y-114600000D03*
G04 #@! TO.N,Net-(U301E-BOOT0)*
X96870000Y-103720000D03*
G04 #@! TO.N,Net-(U301E-BOOT1)*
X96890000Y-102070000D03*
G04 #@! TO.N,Net-(U301E-BOOT2)*
X97680000Y-103700000D03*
G04 #@! TO.N,Net-(U301E-PWR_LP)*
X100470000Y-105020000D03*
G04 #@! TD*
D15*
G04 #@! TO.N,VDD_USB*
X89610000Y-98880000D02*
X88640000Y-99850000D01*
X88640000Y-99850000D02*
X87800000Y-99850000D01*
X84890000Y-102760000D02*
X80040000Y-102760000D01*
X104910000Y-93175000D02*
X104910000Y-97620000D01*
X104910000Y-97620000D02*
X103650000Y-98880000D01*
X79220000Y-103580000D02*
X79220000Y-104562500D01*
X104930000Y-93155000D02*
X104910000Y-93175000D01*
X87800000Y-99850000D02*
X84890000Y-102760000D01*
X103650000Y-98880000D02*
X89610000Y-98880000D01*
X80040000Y-102760000D02*
X79220000Y-103580000D01*
D16*
G04 #@! TO.N,3V3*
X85250000Y-113300000D02*
X75455000Y-113300000D01*
X102380000Y-108050000D02*
X101810000Y-108620000D01*
X96405000Y-110405000D02*
X88145000Y-110405000D01*
X101810000Y-108620000D02*
X98190000Y-108620000D01*
X98190000Y-108620000D02*
X96405000Y-110405000D01*
X75455000Y-113300000D02*
X74790000Y-112635000D01*
X103080000Y-108050000D02*
X102380000Y-108050000D01*
X88145000Y-110405000D02*
X85250000Y-113300000D01*
D15*
G04 #@! TO.N,VIN*
X101300000Y-112500000D02*
X96900000Y-112500000D01*
X104820000Y-108980000D02*
X101300000Y-112500000D01*
X90350000Y-120500000D02*
X90350000Y-119700000D01*
X96900000Y-112500000D02*
X90350000Y-119050000D01*
X90350000Y-119050000D02*
X90350000Y-119700000D01*
X105652500Y-108980000D02*
X104820000Y-108980000D01*
D17*
G04 #@! TO.N,PWR_ON*
X77905000Y-101655000D02*
X77320000Y-102240000D01*
X94030000Y-109320000D02*
X94000000Y-109290000D01*
X94000000Y-109290000D02*
X94000000Y-107930000D01*
X79240000Y-107930000D02*
X94590000Y-107930000D01*
X94590000Y-107930000D02*
X97770000Y-104750000D01*
X77320000Y-106010000D02*
X79240000Y-107930000D01*
X97770000Y-104750000D02*
X97800000Y-104750000D01*
X77320000Y-102240000D02*
X77320000Y-106010000D01*
G04 #@! TO.N,UART4_RX_STM*
X107840000Y-99230000D02*
X107840000Y-95800000D01*
X107840000Y-95800000D02*
X107130000Y-95090000D01*
X107130000Y-95090000D02*
X107130000Y-94460000D01*
X107560000Y-99510000D02*
X107840000Y-99230000D01*
G04 #@! TO.N,PMIC_PA0_WKUP_INTR*
X78470000Y-101430000D02*
X78470000Y-101890000D01*
X77905000Y-101005000D02*
X78045000Y-101005000D01*
X100750000Y-103480000D02*
X101095000Y-103480000D01*
X101095000Y-103480000D02*
X101675000Y-102900000D01*
X77880000Y-105780000D02*
X79340000Y-107240000D01*
X78470000Y-101890000D02*
X77880000Y-102480000D01*
X79340000Y-107240000D02*
X92780000Y-107240000D01*
X77880000Y-102480000D02*
X77880000Y-105780000D01*
X92780000Y-107240000D02*
X95710000Y-104310000D01*
X95710000Y-104310000D02*
X98730000Y-104310000D01*
X99770000Y-103270000D02*
X100540000Y-103270000D01*
X98730000Y-104310000D02*
X99770000Y-103270000D01*
X100540000Y-103270000D02*
X100750000Y-103480000D01*
X78045000Y-101005000D02*
X78470000Y-101430000D01*
G04 #@! TO.N,SYS_I2C4_SCL*
X78650000Y-100650000D02*
X84600000Y-100650000D01*
X102910000Y-96890000D02*
X102160000Y-96890000D01*
X93170000Y-97100000D02*
X92570000Y-97700000D01*
X103250000Y-96550000D02*
X102910000Y-96890000D01*
X101950000Y-97100000D02*
X93170000Y-97100000D01*
X102160000Y-96890000D02*
X101950000Y-97100000D01*
X85900000Y-100650000D02*
X84600000Y-100650000D01*
X88850000Y-97700000D02*
X85900000Y-100650000D01*
X92570000Y-97700000D02*
X88850000Y-97700000D01*
X75990000Y-100535000D02*
X78535000Y-100535000D01*
X78535000Y-100535000D02*
X78650000Y-100650000D01*
G04 #@! TO.N,SYS_I2C4_SDA*
X85390000Y-100250000D02*
X85600000Y-100250000D01*
X90615000Y-97135000D02*
X88715000Y-97135000D01*
X102365000Y-95785000D02*
X102050000Y-96100000D01*
X74900000Y-100500000D02*
X75350000Y-100050000D01*
X88715000Y-97135000D02*
X85600000Y-100250000D01*
X85190000Y-100050000D02*
X85390000Y-100250000D01*
X75200000Y-101500000D02*
X74900000Y-101200000D01*
X101250000Y-95900000D02*
X92650000Y-95900000D01*
X102050000Y-96100000D02*
X101450000Y-96100000D01*
X76390000Y-100935000D02*
X75825000Y-101500000D01*
X91650000Y-96100000D02*
X90615000Y-97135000D01*
X92650000Y-95900000D02*
X92450000Y-96100000D01*
X74900000Y-101200000D02*
X74900000Y-100500000D01*
X101450000Y-96100000D02*
X101250000Y-95900000D01*
X75350000Y-100050000D02*
X85190000Y-100050000D01*
X92450000Y-96100000D02*
X91650000Y-96100000D01*
X75825000Y-101500000D02*
X75200000Y-101500000D01*
G04 #@! TO.N,PMIC_WAKEUP*
X92570000Y-106500000D02*
X79380000Y-106500000D01*
X79550000Y-101490000D02*
X79570000Y-101490000D01*
X78470000Y-105590000D02*
X78470000Y-102570000D01*
X78470000Y-102570000D02*
X79550000Y-101490000D01*
X97270000Y-102520000D02*
X96550000Y-102520000D01*
X97700000Y-102950000D02*
X97270000Y-102520000D01*
X79380000Y-106500000D02*
X78470000Y-105590000D01*
X96550000Y-102520000D02*
X92570000Y-106500000D01*
G04 #@! TO.N,UART8_CTS_STM*
X72540000Y-127130000D02*
X73190000Y-127780000D01*
X65750000Y-126400000D02*
X66480000Y-127130000D01*
X80800000Y-126810000D02*
X80800000Y-121340000D01*
X80800000Y-121340000D02*
X89030000Y-113110000D01*
X79830000Y-127780000D02*
X80800000Y-126810000D01*
X66480000Y-127130000D02*
X72540000Y-127130000D01*
X73190000Y-127780000D02*
X79830000Y-127780000D01*
X89030000Y-111580000D02*
X88760000Y-111310000D01*
X89030000Y-113110000D02*
X89030000Y-111580000D01*
G04 #@! TO.N,UART7_RX_STM*
X108950000Y-100550000D02*
X109410000Y-101010000D01*
X109410000Y-101010000D02*
X109410000Y-104160000D01*
X109410000Y-104160000D02*
X107630000Y-105940000D01*
X108890000Y-100550000D02*
X108950000Y-100550000D01*
G04 #@! TO.N,UART7_TX_STM*
X107190000Y-102110000D02*
X108880000Y-102110000D01*
X104830000Y-100580000D02*
X104830000Y-102420000D01*
X104830000Y-102420000D02*
X105470000Y-103060000D01*
X105700000Y-99710000D02*
X104830000Y-100580000D01*
X105470000Y-103060000D02*
X106240000Y-103060000D01*
X106240000Y-103060000D02*
X107190000Y-102110000D01*
G04 #@! TO.N,SYS_I2C6_SCL*
X106820000Y-95450000D02*
X106820000Y-100200000D01*
X106210000Y-94840000D02*
X106820000Y-95450000D01*
X104510000Y-92110000D02*
X105580000Y-92110000D01*
X106820000Y-100200000D02*
X107320000Y-100700000D01*
X104120000Y-91720000D02*
X104510000Y-92110000D01*
X105580000Y-92110000D02*
X106210000Y-92740000D01*
X106210000Y-92740000D02*
X106210000Y-94840000D01*
X104070000Y-91720000D02*
X104120000Y-91720000D01*
G04 #@! TO.N,SYS_I2C6_SDA*
X106270000Y-95860000D02*
X106270000Y-100420000D01*
X103270000Y-92520000D02*
X103350000Y-92600000D01*
X106270000Y-100420000D02*
X105960000Y-100730000D01*
X105280000Y-92600000D02*
X105635000Y-92955000D01*
X105635000Y-92955000D02*
X105635000Y-95225000D01*
X105635000Y-95225000D02*
X106270000Y-95860000D01*
X103350000Y-92600000D02*
X105280000Y-92600000D01*
G04 #@! TO.N,Net-(U202-~{RST})*
X76810000Y-101460000D02*
X76810000Y-106310000D01*
X76810000Y-106310000D02*
X80160000Y-109660000D01*
X77300000Y-100970000D02*
X76810000Y-101460000D01*
X80160000Y-109660000D02*
X91500000Y-109660000D01*
G04 #@! TO.N,1V8_WIFI_EN*
X64550000Y-113350000D02*
X68000000Y-116800000D01*
X63620000Y-113350000D02*
X64550000Y-113350000D01*
X77000000Y-116200000D02*
X77040000Y-116200000D01*
X71700000Y-116800000D02*
X72100000Y-117200000D01*
X79310000Y-113930000D02*
X86280000Y-113930000D01*
X86280000Y-113930000D02*
X88230000Y-111980000D01*
X88230000Y-111980000D02*
X88300000Y-111980000D01*
X76000000Y-117200000D02*
X77000000Y-116200000D01*
X77040000Y-116200000D02*
X79310000Y-113930000D01*
X72100000Y-117200000D02*
X76000000Y-117200000D01*
X68000000Y-116800000D02*
X71700000Y-116800000D01*
G04 #@! TO.N,WIFI_PDn*
X89680000Y-100510000D02*
X89090000Y-101100000D01*
X89090000Y-102060000D02*
X85390000Y-105760000D01*
X89090000Y-101100000D02*
X89090000Y-102060000D01*
X85390000Y-105760000D02*
X83570000Y-105760000D01*
G04 #@! TO.N,WLAN_DEV_WAKE*
X87780000Y-101010000D02*
X88360000Y-101010000D01*
X90840000Y-100050000D02*
X91310000Y-100520000D01*
X88360000Y-101010000D02*
X89320000Y-100050000D01*
X89320000Y-100050000D02*
X90840000Y-100050000D01*
D16*
G04 #@! TO.N,Net-(U301A-VBAT)*
X90590000Y-105990000D02*
X92210000Y-105990000D01*
X95260000Y-102940000D02*
X95260000Y-102920000D01*
X92210000Y-105990000D02*
X95260000Y-102940000D01*
G04 #@! TD*
G04 #@! TA.AperFunction,Conductor*
G04 #@! TO.N,3V3*
G36*
X74987844Y-112667426D02*
G01*
X74990481Y-112669964D01*
X75059090Y-112760689D01*
X75061347Y-112769355D01*
X75058031Y-112776019D01*
X74927985Y-112906065D01*
X74919712Y-112909492D01*
X74917983Y-112909364D01*
X74837272Y-112897307D01*
X74829596Y-112892695D01*
X74827535Y-112888060D01*
X74791671Y-112711033D01*
X74793387Y-112702246D01*
X74800815Y-112697245D01*
X74801059Y-112697198D01*
X74979099Y-112665502D01*
X74987844Y-112667426D01*
G37*
G04 #@! TD.AperFunction*
G04 #@! TD*
G04 #@! TA.AperFunction,Conductor*
G04 #@! TO.N,3V3*
G36*
X102944474Y-107912958D02*
G01*
X102947882Y-107915350D01*
X103024969Y-107993324D01*
X103072867Y-108041774D01*
X103076247Y-108050067D01*
X103072867Y-108058226D01*
X102947885Y-108184646D01*
X102939632Y-108188120D01*
X102935526Y-108187401D01*
X102841504Y-108152817D01*
X102834922Y-108146745D01*
X102833843Y-108141836D01*
X102833843Y-107958163D01*
X102837270Y-107949890D01*
X102841504Y-107947182D01*
X102935528Y-107912598D01*
X102944474Y-107912958D01*
G37*
G04 #@! TD.AperFunction*
G04 #@! TD*
G04 #@! TA.AperFunction,Conductor*
G04 #@! TO.N,PWR_ON*
G36*
X77894142Y-101654226D02*
G01*
X77902393Y-101657700D01*
X77905773Y-101665859D01*
X77906775Y-101840997D01*
X77903395Y-101849290D01*
X77896782Y-101852639D01*
X77778620Y-101870061D01*
X77769935Y-101867877D01*
X77768640Y-101866759D01*
X77693240Y-101791359D01*
X77689813Y-101783086D01*
X77689938Y-101781379D01*
X77707361Y-101663215D01*
X77711957Y-101655534D01*
X77719001Y-101653225D01*
X77894142Y-101654226D01*
G37*
G04 #@! TD.AperFunction*
G04 #@! TD*
G04 #@! TA.AperFunction,Conductor*
G04 #@! TO.N,PWR_ON*
G36*
X94062608Y-109077166D02*
G01*
X94134169Y-109146935D01*
X94137700Y-109155164D01*
X94135747Y-109161785D01*
X94037011Y-109310443D01*
X94029579Y-109315439D01*
X94020792Y-109313716D01*
X94020036Y-109313169D01*
X93881819Y-109204553D01*
X93877431Y-109196747D01*
X93878731Y-109189837D01*
X93937493Y-109080022D01*
X93944418Y-109074345D01*
X93947809Y-109073843D01*
X94054440Y-109073843D01*
X94062608Y-109077166D01*
G37*
G04 #@! TD.AperFunction*
G04 #@! TD*
G04 #@! TA.AperFunction,Conductor*
G04 #@! TO.N,PWR_ON*
G36*
X97789100Y-104748274D02*
G01*
X97797041Y-104752410D01*
X97799736Y-104760904D01*
X97785116Y-104935815D01*
X97781012Y-104943774D01*
X97773881Y-104946532D01*
X97657894Y-104950735D01*
X97649502Y-104947610D01*
X97649197Y-104947316D01*
X97573800Y-104871919D01*
X97570373Y-104863646D01*
X97570740Y-104860740D01*
X97601372Y-104741630D01*
X97606751Y-104734472D01*
X97613722Y-104732890D01*
X97789100Y-104748274D01*
G37*
G04 #@! TD.AperFunction*
G04 #@! TD*
G04 #@! TA.AperFunction,Conductor*
G04 #@! TO.N,UART4_RX_STM*
G36*
X107138226Y-94467132D02*
G01*
X107262775Y-94590265D01*
X107266249Y-94598518D01*
X107263941Y-94605562D01*
X107192707Y-94701435D01*
X107185024Y-94706032D01*
X107183317Y-94706157D01*
X107076683Y-94706157D01*
X107068410Y-94702730D01*
X107067292Y-94701435D01*
X106996059Y-94605563D01*
X106993875Y-94596878D01*
X106997222Y-94590267D01*
X107121774Y-94467131D01*
X107130067Y-94463752D01*
X107138226Y-94467132D01*
G37*
G04 #@! TD.AperFunction*
G04 #@! TD*
G04 #@! TA.AperFunction,Conductor*
G04 #@! TO.N,UART4_RX_STM*
G36*
X107695064Y-99297122D02*
G01*
X107696359Y-99298240D01*
X107771759Y-99373640D01*
X107775186Y-99381913D01*
X107775061Y-99383620D01*
X107757639Y-99501781D01*
X107753042Y-99509465D01*
X107745997Y-99511774D01*
X107570859Y-99510773D01*
X107562606Y-99507299D01*
X107559226Y-99499142D01*
X107558226Y-99324001D01*
X107561606Y-99315709D01*
X107568216Y-99312361D01*
X107686379Y-99294938D01*
X107695064Y-99297122D01*
G37*
G04 #@! TD.AperFunction*
G04 #@! TD*
G04 #@! TA.AperFunction,Conductor*
G04 #@! TO.N,PMIC_PA0_WKUP_INTR*
G36*
X101664142Y-102899226D02*
G01*
X101672393Y-102902700D01*
X101675773Y-102910859D01*
X101676775Y-103085997D01*
X101673395Y-103094290D01*
X101666782Y-103097639D01*
X101548620Y-103115061D01*
X101539935Y-103112877D01*
X101538640Y-103111759D01*
X101463240Y-103036359D01*
X101459813Y-103028086D01*
X101459938Y-103026379D01*
X101477361Y-102908215D01*
X101481957Y-102900534D01*
X101489001Y-102898225D01*
X101664142Y-102899226D01*
G37*
G04 #@! TD.AperFunction*
G04 #@! TD*
G04 #@! TA.AperFunction,Conductor*
G04 #@! TO.N,PMIC_PA0_WKUP_INTR*
G36*
X78088968Y-100930929D02*
G01*
X78167623Y-101041572D01*
X78169623Y-101050300D01*
X78166360Y-101056624D01*
X78090920Y-101132064D01*
X78088013Y-101134188D01*
X78025392Y-101166505D01*
X78016468Y-101167254D01*
X78010305Y-101162619D01*
X77936541Y-101052454D01*
X77911970Y-101015758D01*
X77910215Y-101006977D01*
X77915182Y-100999526D01*
X77916850Y-100998597D01*
X78074599Y-100927052D01*
X78083549Y-100926756D01*
X78088968Y-100930929D01*
G37*
G04 #@! TD.AperFunction*
G04 #@! TD*
G04 #@! TA.AperFunction,Conductor*
G04 #@! TO.N,SYS_I2C4_SCL*
G36*
X84469734Y-100517224D02*
G01*
X84592867Y-100641774D01*
X84596247Y-100650067D01*
X84592867Y-100658226D01*
X84469734Y-100782775D01*
X84461481Y-100786249D01*
X84454436Y-100783940D01*
X84358565Y-100712708D01*
X84353968Y-100705024D01*
X84353843Y-100703317D01*
X84353843Y-100596682D01*
X84357270Y-100588409D01*
X84358560Y-100587295D01*
X84454437Y-100516058D01*
X84463121Y-100513875D01*
X84469734Y-100517224D01*
G37*
G04 #@! TD.AperFunction*
G04 #@! TD*
G04 #@! TA.AperFunction,Conductor*
G04 #@! TO.N,SYS_I2C4_SCL*
G36*
X103259123Y-96548585D02*
G01*
X103267172Y-96552510D01*
X103270094Y-96560881D01*
X103260841Y-96735864D01*
X103256982Y-96743944D01*
X103250017Y-96746914D01*
X103133145Y-96755526D01*
X103124642Y-96752717D01*
X103124012Y-96752131D01*
X103048612Y-96676731D01*
X103045185Y-96668458D01*
X103045458Y-96665947D01*
X103071688Y-96547032D01*
X103076816Y-96539693D01*
X103083823Y-96537876D01*
X103259123Y-96548585D01*
G37*
G04 #@! TD.AperFunction*
G04 #@! TD*
G04 #@! TA.AperFunction,Conductor*
G04 #@! TO.N,SYS_I2C4_SCL*
G36*
X84745560Y-100516057D02*
G01*
X84841436Y-100587292D01*
X84846032Y-100594975D01*
X84846157Y-100596682D01*
X84846157Y-100703317D01*
X84842730Y-100711590D01*
X84841439Y-100712704D01*
X84747132Y-100782775D01*
X84745563Y-100783941D01*
X84736878Y-100786124D01*
X84730265Y-100782775D01*
X84660996Y-100712709D01*
X84607131Y-100658225D01*
X84603752Y-100649933D01*
X84607132Y-100641774D01*
X84730266Y-100517223D01*
X84738518Y-100513750D01*
X84745560Y-100516057D01*
G37*
G04 #@! TD.AperFunction*
G04 #@! TD*
G04 #@! TA.AperFunction,Conductor*
G04 #@! TO.N,SYS_I2C4_SCL*
G36*
X76135560Y-100401057D02*
G01*
X76231436Y-100472292D01*
X76236032Y-100479975D01*
X76236157Y-100481682D01*
X76236157Y-100588317D01*
X76232730Y-100596590D01*
X76231439Y-100597704D01*
X76137132Y-100667775D01*
X76135563Y-100668941D01*
X76126878Y-100671124D01*
X76120265Y-100667775D01*
X76050996Y-100597709D01*
X75997131Y-100543225D01*
X75993752Y-100534933D01*
X75997132Y-100526774D01*
X76120266Y-100402223D01*
X76128518Y-100398750D01*
X76135560Y-100401057D01*
G37*
G04 #@! TD.AperFunction*
G04 #@! TD*
G04 #@! TA.AperFunction,Conductor*
G04 #@! TO.N,SYS_I2C4_SDA*
G36*
X85443429Y-100145402D02*
G01*
X85443709Y-100145584D01*
X85498951Y-100182573D01*
X85587487Y-100241855D01*
X85592454Y-100249306D01*
X85590699Y-100258087D01*
X85588318Y-100260688D01*
X85454701Y-100368342D01*
X85446108Y-100370864D01*
X85439686Y-100368062D01*
X85409074Y-100341461D01*
X85332043Y-100274522D01*
X85328047Y-100266511D01*
X85330887Y-100258019D01*
X85331431Y-100257434D01*
X85406293Y-100182573D01*
X85427301Y-100149091D01*
X85434599Y-100143908D01*
X85443429Y-100145402D01*
G37*
G04 #@! TD.AperFunction*
G04 #@! TD*
G04 #@! TA.AperFunction,Conductor*
G04 #@! TO.N,SYS_I2C4_SDA*
G36*
X102418912Y-95782193D02*
G01*
X102426456Y-95787017D01*
X102428380Y-95795763D01*
X102428328Y-95796035D01*
X102392977Y-95970525D01*
X102387976Y-95977953D01*
X102380126Y-95979820D01*
X102271358Y-95966865D01*
X102264469Y-95963520D01*
X102188948Y-95887999D01*
X102185521Y-95879726D01*
X102186269Y-95875610D01*
X102230417Y-95758345D01*
X102236538Y-95751811D01*
X102243415Y-95750950D01*
X102418912Y-95782193D01*
G37*
G04 #@! TD.AperFunction*
G04 #@! TD*
G04 #@! TA.AperFunction,Conductor*
G04 #@! TO.N,SYS_I2C4_SDA*
G36*
X85735064Y-100037122D02*
G01*
X85736359Y-100038240D01*
X85811759Y-100113640D01*
X85815186Y-100121913D01*
X85815061Y-100123620D01*
X85797639Y-100241781D01*
X85793042Y-100249465D01*
X85785997Y-100251774D01*
X85610859Y-100250773D01*
X85602606Y-100247299D01*
X85599226Y-100239142D01*
X85598226Y-100064001D01*
X85601606Y-100055709D01*
X85608216Y-100052361D01*
X85726379Y-100034938D01*
X85735064Y-100037122D01*
G37*
G04 #@! TD.AperFunction*
G04 #@! TD*
G04 #@! TA.AperFunction,Conductor*
G04 #@! TO.N,SYS_I2C4_SDA*
G36*
X76379142Y-100934226D02*
G01*
X76387393Y-100937700D01*
X76390773Y-100945859D01*
X76391775Y-101120997D01*
X76388395Y-101129290D01*
X76381782Y-101132639D01*
X76263620Y-101150061D01*
X76254935Y-101147877D01*
X76253640Y-101146759D01*
X76178240Y-101071359D01*
X76174813Y-101063086D01*
X76174938Y-101061379D01*
X76192361Y-100943215D01*
X76196957Y-100935534D01*
X76204001Y-100933225D01*
X76379142Y-100934226D01*
G37*
G04 #@! TD.AperFunction*
G04 #@! TD*
G04 #@! TA.AperFunction,Conductor*
G04 #@! TO.N,PMIC_WAKEUP*
G36*
X79559123Y-101488585D02*
G01*
X79567172Y-101492510D01*
X79570094Y-101500881D01*
X79560841Y-101675864D01*
X79556982Y-101683944D01*
X79550017Y-101686914D01*
X79433145Y-101695526D01*
X79424642Y-101692717D01*
X79424012Y-101692131D01*
X79348612Y-101616731D01*
X79345185Y-101608458D01*
X79345458Y-101605947D01*
X79371688Y-101487032D01*
X79376816Y-101479693D01*
X79383823Y-101477876D01*
X79559123Y-101488585D01*
G37*
G04 #@! TD.AperFunction*
G04 #@! TD*
G04 #@! TA.AperFunction,Conductor*
G04 #@! TO.N,PMIC_WAKEUP*
G36*
X97573619Y-102734937D02*
G01*
X97691782Y-102752361D01*
X97699465Y-102756957D01*
X97701774Y-102764002D01*
X97700773Y-102939140D01*
X97697299Y-102947393D01*
X97689140Y-102950773D01*
X97514002Y-102951774D01*
X97505709Y-102948394D01*
X97502361Y-102941783D01*
X97484938Y-102823619D01*
X97487122Y-102814935D01*
X97488233Y-102813647D01*
X97563641Y-102738239D01*
X97571913Y-102734813D01*
X97573619Y-102734937D01*
G37*
G04 #@! TD.AperFunction*
G04 #@! TD*
G04 #@! TA.AperFunction,Conductor*
G04 #@! TO.N,UART8_CTS_STM*
G36*
X65944290Y-126401605D02*
G01*
X65947639Y-126408218D01*
X65965061Y-126526379D01*
X65962877Y-126535064D01*
X65961759Y-126536359D01*
X65886359Y-126611759D01*
X65878086Y-126615186D01*
X65876379Y-126615061D01*
X65758218Y-126597639D01*
X65750534Y-126593042D01*
X65748225Y-126585997D01*
X65748516Y-126535064D01*
X65749226Y-126410856D01*
X65752700Y-126402606D01*
X65760856Y-126399226D01*
X65935997Y-126398225D01*
X65944290Y-126401605D01*
G37*
G04 #@! TD.AperFunction*
G04 #@! TD*
G04 #@! TA.AperFunction,Conductor*
G04 #@! TO.N,UART8_CTS_STM*
G36*
X88954290Y-111311605D02*
G01*
X88957639Y-111318218D01*
X88975061Y-111436379D01*
X88972877Y-111445064D01*
X88971759Y-111446359D01*
X88896359Y-111521759D01*
X88888086Y-111525186D01*
X88886379Y-111525061D01*
X88768218Y-111507639D01*
X88760534Y-111503042D01*
X88758225Y-111495997D01*
X88758516Y-111445064D01*
X88759226Y-111320856D01*
X88762700Y-111312606D01*
X88770856Y-111309226D01*
X88945997Y-111308225D01*
X88954290Y-111311605D01*
G37*
G04 #@! TD.AperFunction*
G04 #@! TD*
G04 #@! TA.AperFunction,Conductor*
G04 #@! TO.N,UART7_RX_STM*
G36*
X109085291Y-100520466D02*
G01*
X109089471Y-100525982D01*
X109132381Y-100644201D01*
X109131982Y-100653147D01*
X109129656Y-100656466D01*
X109054191Y-100731931D01*
X109046989Y-100735309D01*
X108939479Y-100745195D01*
X108930927Y-100742540D01*
X108926940Y-100735859D01*
X108891691Y-100561177D01*
X108893414Y-100552392D01*
X108900846Y-100547396D01*
X108901244Y-100547323D01*
X109076572Y-100518430D01*
X109085291Y-100520466D01*
G37*
G04 #@! TD.AperFunction*
G04 #@! TD*
G04 #@! TA.AperFunction,Conductor*
G04 #@! TO.N,UART7_RX_STM*
G36*
X107765064Y-105727122D02*
G01*
X107766359Y-105728240D01*
X107841759Y-105803640D01*
X107845186Y-105811913D01*
X107845061Y-105813620D01*
X107827639Y-105931781D01*
X107823042Y-105939465D01*
X107815997Y-105941774D01*
X107640859Y-105940773D01*
X107632606Y-105937299D01*
X107629226Y-105929142D01*
X107628226Y-105754001D01*
X107631606Y-105745709D01*
X107638216Y-105742361D01*
X107756379Y-105724938D01*
X107765064Y-105727122D01*
G37*
G04 #@! TD.AperFunction*
G04 #@! TD*
G04 #@! TA.AperFunction,Conductor*
G04 #@! TO.N,UART7_TX_STM*
G36*
X108749734Y-101977224D02*
G01*
X108872867Y-102101774D01*
X108876247Y-102110067D01*
X108872867Y-102118226D01*
X108749734Y-102242775D01*
X108741481Y-102246249D01*
X108734436Y-102243940D01*
X108638565Y-102172708D01*
X108633968Y-102165024D01*
X108633843Y-102163317D01*
X108633843Y-102056682D01*
X108637270Y-102048409D01*
X108638560Y-102047295D01*
X108734437Y-101976058D01*
X108743121Y-101973875D01*
X108749734Y-101977224D01*
G37*
G04 #@! TD.AperFunction*
G04 #@! TD*
G04 #@! TA.AperFunction,Conductor*
G04 #@! TO.N,UART7_TX_STM*
G36*
X105689142Y-99709226D02*
G01*
X105697393Y-99712700D01*
X105700773Y-99720859D01*
X105701775Y-99895997D01*
X105698395Y-99904290D01*
X105691782Y-99907639D01*
X105573620Y-99925061D01*
X105564935Y-99922877D01*
X105563640Y-99921759D01*
X105488240Y-99846359D01*
X105484813Y-99838086D01*
X105484938Y-99836379D01*
X105502361Y-99718215D01*
X105506957Y-99710534D01*
X105514001Y-99708225D01*
X105689142Y-99709226D01*
G37*
G04 #@! TD.AperFunction*
G04 #@! TD*
G04 #@! TA.AperFunction,Conductor*
G04 #@! TO.N,SYS_I2C6_SCL*
G36*
X107193619Y-100484937D02*
G01*
X107311782Y-100502361D01*
X107319465Y-100506957D01*
X107321774Y-100514002D01*
X107320773Y-100689140D01*
X107317299Y-100697393D01*
X107309140Y-100700773D01*
X107134002Y-100701774D01*
X107125709Y-100698394D01*
X107122361Y-100691783D01*
X107104938Y-100573619D01*
X107107122Y-100564935D01*
X107108233Y-100563647D01*
X107183641Y-100488239D01*
X107191913Y-100484813D01*
X107193619Y-100484937D01*
G37*
G04 #@! TD.AperFunction*
G04 #@! TD*
G04 #@! TA.AperFunction,Conductor*
G04 #@! TO.N,SYS_I2C6_SCL*
G36*
X104265165Y-91695504D02*
G01*
X104269219Y-91701163D01*
X104308654Y-91820351D01*
X104307999Y-91829282D01*
X104305819Y-91832299D01*
X104230413Y-91907705D01*
X104222658Y-91911121D01*
X104119023Y-91915713D01*
X104110606Y-91912655D01*
X104107036Y-91906339D01*
X104071752Y-91731479D01*
X104073475Y-91722694D01*
X104080907Y-91717698D01*
X104081585Y-91717582D01*
X104256500Y-91693250D01*
X104265165Y-91695504D01*
G37*
G04 #@! TD.AperFunction*
G04 #@! TD*
G04 #@! TA.AperFunction,Conductor*
G04 #@! TO.N,SYS_I2C6_SDA*
G36*
X106095064Y-100517122D02*
G01*
X106096359Y-100518240D01*
X106171759Y-100593640D01*
X106175186Y-100601913D01*
X106175061Y-100603620D01*
X106157639Y-100721781D01*
X106153042Y-100729465D01*
X106145997Y-100731774D01*
X105970859Y-100730773D01*
X105962606Y-100727299D01*
X105959226Y-100719142D01*
X105958226Y-100544001D01*
X105961606Y-100535709D01*
X105968216Y-100532361D01*
X106086379Y-100514938D01*
X106095064Y-100517122D01*
G37*
G04 #@! TD.AperFunction*
G04 #@! TD*
G04 #@! TA.AperFunction,Conductor*
G04 #@! TO.N,SYS_I2C6_SDA*
G36*
X103451617Y-92443940D02*
G01*
X103497984Y-92538360D01*
X103499182Y-92543517D01*
X103499182Y-92650189D01*
X103495755Y-92658462D01*
X103490472Y-92661501D01*
X103363072Y-92695171D01*
X103354197Y-92693971D01*
X103349522Y-92688895D01*
X103273990Y-92530468D01*
X103273524Y-92521526D01*
X103279423Y-92514917D01*
X103435988Y-92438579D01*
X103444926Y-92438035D01*
X103451617Y-92443940D01*
G37*
G04 #@! TD.AperFunction*
G04 #@! TD*
G04 #@! TA.AperFunction,Conductor*
G04 #@! TO.N,Net-(U202-~{RST})*
G36*
X77289142Y-100969226D02*
G01*
X77297393Y-100972700D01*
X77300773Y-100980859D01*
X77301775Y-101155997D01*
X77298395Y-101164290D01*
X77291782Y-101167639D01*
X77173620Y-101185061D01*
X77164935Y-101182877D01*
X77163640Y-101181759D01*
X77088240Y-101106359D01*
X77084813Y-101098086D01*
X77084938Y-101096379D01*
X77102361Y-100978215D01*
X77106957Y-100970534D01*
X77114001Y-100968225D01*
X77289142Y-100969226D01*
G37*
G04 #@! TD.AperFunction*
G04 #@! TD*
G04 #@! TA.AperFunction,Conductor*
G04 #@! TO.N,Net-(U202-~{RST})*
G36*
X91369734Y-109527224D02*
G01*
X91492867Y-109651774D01*
X91496247Y-109660067D01*
X91492867Y-109668226D01*
X91369734Y-109792775D01*
X91361481Y-109796249D01*
X91354436Y-109793940D01*
X91258565Y-109722708D01*
X91253968Y-109715024D01*
X91253843Y-109713317D01*
X91253843Y-109606682D01*
X91257270Y-109598409D01*
X91258560Y-109597295D01*
X91354437Y-109526058D01*
X91363121Y-109523875D01*
X91369734Y-109527224D01*
G37*
G04 #@! TD.AperFunction*
G04 #@! TD*
G04 #@! TA.AperFunction,Conductor*
G04 #@! TO.N,1V8_WIFI_EN*
G36*
X63765560Y-113216057D02*
G01*
X63861436Y-113287292D01*
X63866032Y-113294975D01*
X63866157Y-113296682D01*
X63866157Y-113403317D01*
X63862730Y-113411590D01*
X63861439Y-113412704D01*
X63767132Y-113482775D01*
X63765563Y-113483941D01*
X63756878Y-113486124D01*
X63750265Y-113482775D01*
X63680996Y-113412709D01*
X63627131Y-113358225D01*
X63623752Y-113349933D01*
X63627132Y-113341774D01*
X63750266Y-113217223D01*
X63758518Y-113213750D01*
X63765560Y-113216057D01*
G37*
G04 #@! TD.AperFunction*
G04 #@! TD*
G04 #@! TA.AperFunction,Conductor*
G04 #@! TO.N,1V8_WIFI_EN*
G36*
X88288940Y-111977042D02*
G01*
X88296422Y-111981962D01*
X88298234Y-111990732D01*
X88298178Y-111991003D01*
X88260724Y-112164466D01*
X88255629Y-112171830D01*
X88247657Y-112173583D01*
X88139744Y-112158396D01*
X88133102Y-112155083D01*
X88057554Y-112079535D01*
X88054127Y-112071262D01*
X88054927Y-112067009D01*
X88088111Y-111981962D01*
X88100305Y-111950707D01*
X88106505Y-111944247D01*
X88113401Y-111943469D01*
X88288940Y-111977042D01*
G37*
G04 #@! TD.AperFunction*
G04 #@! TD*
G04 #@! TA.AperFunction,Conductor*
G04 #@! TO.N,WIFI_PDn*
G36*
X89669142Y-100509226D02*
G01*
X89677393Y-100512700D01*
X89680773Y-100520859D01*
X89681775Y-100695997D01*
X89678395Y-100704290D01*
X89671782Y-100707639D01*
X89553620Y-100725061D01*
X89544935Y-100722877D01*
X89543640Y-100721759D01*
X89468240Y-100646359D01*
X89464813Y-100638086D01*
X89464938Y-100636379D01*
X89482361Y-100518215D01*
X89486957Y-100510534D01*
X89494001Y-100508225D01*
X89669142Y-100509226D01*
G37*
G04 #@! TD.AperFunction*
G04 #@! TD*
G04 #@! TA.AperFunction,Conductor*
G04 #@! TO.N,WIFI_PDn*
G36*
X83715560Y-105626057D02*
G01*
X83811436Y-105697292D01*
X83816032Y-105704975D01*
X83816157Y-105706682D01*
X83816157Y-105813317D01*
X83812730Y-105821590D01*
X83811439Y-105822704D01*
X83717132Y-105892775D01*
X83715563Y-105893941D01*
X83706878Y-105896124D01*
X83700265Y-105892775D01*
X83630996Y-105822709D01*
X83577131Y-105768225D01*
X83573752Y-105759933D01*
X83577132Y-105751774D01*
X83700266Y-105627223D01*
X83708518Y-105623750D01*
X83715560Y-105626057D01*
G37*
G04 #@! TD.AperFunction*
G04 #@! TD*
G04 #@! TA.AperFunction,Conductor*
G04 #@! TO.N,WLAN_DEV_WAKE*
G36*
X87925560Y-100876057D02*
G01*
X88021436Y-100947292D01*
X88026032Y-100954975D01*
X88026157Y-100956682D01*
X88026157Y-101063317D01*
X88022730Y-101071590D01*
X88021439Y-101072704D01*
X87927132Y-101142775D01*
X87925563Y-101143941D01*
X87916878Y-101146124D01*
X87910265Y-101142775D01*
X87840996Y-101072709D01*
X87787131Y-101018225D01*
X87783752Y-101009933D01*
X87787132Y-101001774D01*
X87910266Y-100877223D01*
X87918518Y-100873750D01*
X87925560Y-100876057D01*
G37*
G04 #@! TD.AperFunction*
G04 #@! TD*
G04 #@! TA.AperFunction,Conductor*
G04 #@! TO.N,WLAN_DEV_WAKE*
G36*
X91183619Y-100304937D02*
G01*
X91301782Y-100322361D01*
X91309465Y-100326957D01*
X91311774Y-100334002D01*
X91310773Y-100509140D01*
X91307299Y-100517393D01*
X91299140Y-100520773D01*
X91124002Y-100521774D01*
X91115709Y-100518394D01*
X91112361Y-100511783D01*
X91094938Y-100393619D01*
X91097122Y-100384935D01*
X91098233Y-100383647D01*
X91173641Y-100308239D01*
X91181913Y-100304813D01*
X91183619Y-100304937D01*
G37*
G04 #@! TD.AperFunction*
G04 #@! TD*
G04 #@! TA.AperFunction,Conductor*
G04 #@! TO.N,Net-(U301A-VBAT)*
G36*
X90730133Y-105848728D02*
G01*
X90819078Y-105886957D01*
X90825325Y-105893371D01*
X90826157Y-105897705D01*
X90826157Y-106081383D01*
X90822730Y-106089656D01*
X90817928Y-106092556D01*
X90719011Y-106123287D01*
X90710094Y-106122469D01*
X90706902Y-106120005D01*
X90586814Y-105988553D01*
X90583764Y-105980134D01*
X90587475Y-105972103D01*
X90717542Y-105850916D01*
X90725928Y-105847785D01*
X90730133Y-105848728D01*
G37*
G04 #@! TD.AperFunction*
G04 #@! TD*
G04 #@! TA.AperFunction,Conductor*
G04 #@! TO.N,Net-(U301A-VBAT)*
G36*
X95257561Y-102922891D02*
G01*
X95261414Y-102930876D01*
X95272283Y-103108778D01*
X95269367Y-103117244D01*
X95266263Y-103119732D01*
X95174356Y-103170512D01*
X95165458Y-103171513D01*
X95160425Y-103168544D01*
X95030544Y-103038663D01*
X95027117Y-103030390D01*
X95027851Y-103026311D01*
X95061163Y-102936895D01*
X95067263Y-102930340D01*
X95071505Y-102929297D01*
X95249120Y-102919905D01*
X95257561Y-102922891D01*
G37*
G04 #@! TD.AperFunction*
G04 #@! TD*
M02*
