%TF.GenerationSoftware,KiCad,Pcbnew,9.0.7*%
%TF.CreationDate,2026-02-27T16:16:51-07:00*%
%TF.ProjectId,MPU_MOD,4d50555f-4d4f-4442-9e6b-696361645f70,rev?*%
%TF.SameCoordinates,Original*%
%TF.FileFunction,Drillmap*%
%TF.FilePolarity,Positive*%
%FSLAX45Y45*%
G04 Gerber Fmt 4.5, Leading zero omitted, Abs format (unit mm)*
G04 Created by KiCad (PCBNEW 9.0.7) date 2026-02-27 16:16:51*
%MOMM*%
%LPD*%
G01*
G04 APERTURE LIST*
%ADD10C,0.050000*%
%ADD11C,0.010000*%
%ADD12C,0.200000*%
%ADD13C,0.100000*%
%ADD14C,0.102000*%
G04 APERTURE END LIST*
D10*
X6000000Y-5900000D02*
X11000000Y-5900000D01*
X11000000Y-12900000D01*
X6000000Y-12900000D01*
X6000000Y-5900000D01*
D11*
X9724000Y-12901000D02*
X9724000Y-12286000D01*
X9804000Y-12286000D02*
X10568000Y-12286000D01*
X10648000Y-12286000D02*
X10648000Y-12901000D01*
D10*
X10648000Y-12901000D02*
X9724000Y-12901000D01*
D11*
X9723946Y-12286006D02*
G75*
G02*
X9756500Y-12245945I36304J3756D01*
G01*
X9756501Y-12245945D02*
G75*
G02*
X9789055Y-12273996I2250J-30305D01*
G01*
X9804000Y-12286000D02*
G75*
G02*
X9789000Y-12274000I-1500J13500D01*
G01*
X10583000Y-12274000D02*
G75*
G02*
X10568000Y-12286000I-13500J1500D01*
G01*
X10583000Y-12274000D02*
G75*
G02*
X10615500Y-12246000I30250J-2250D01*
G01*
X10615500Y-12246000D02*
G75*
G02*
X10648000Y-12286000I-3750J-36250D01*
G01*
X8328000Y-12901000D02*
X8328000Y-12286000D01*
X8408000Y-12286000D02*
X9172000Y-12286000D01*
X9252000Y-12286000D02*
X9252000Y-12901000D01*
D10*
X9252000Y-12901000D02*
X8328000Y-12901000D01*
D11*
X8327945Y-12286006D02*
G75*
G02*
X8360500Y-12245945I36304J3756D01*
G01*
X8360500Y-12245945D02*
G75*
G02*
X8393055Y-12273996I2250J-30305D01*
G01*
X8408000Y-12286000D02*
G75*
G02*
X8393000Y-12274000I-1500J13500D01*
G01*
X9187000Y-12274000D02*
G75*
G02*
X9172000Y-12286000I-13500J1500D01*
G01*
X9187000Y-12274000D02*
G75*
G02*
X9219500Y-12246000I30250J-2250D01*
G01*
X9219500Y-12246000D02*
G75*
G02*
X9252000Y-12286000I-3750J-36250D01*
G01*
D12*
D13*
X10697750Y-10415500D02*
X10762750Y-10480500D01*
X10762750Y-10415500D02*
X10697750Y-10480500D01*
X10697750Y-10815500D02*
X10762750Y-10880500D01*
X10762750Y-10815500D02*
X10697750Y-10880500D01*
D14*
X10500000Y-11145500D02*
G75*
G02*
X10398000Y-11145500I-51000J0D01*
G01*
X10398000Y-11145500D02*
G75*
G02*
X10500000Y-11145500I51000J0D01*
G01*
X10500000Y-11780500D02*
G75*
G02*
X10398000Y-11780500I-51000J0D01*
G01*
X10398000Y-11780500D02*
G75*
G02*
X10500000Y-11780500I51000J0D01*
G01*
D12*
X6258277Y-13214984D02*
X6258277Y-13014984D01*
X6258277Y-13014984D02*
X6305896Y-13014984D01*
X6305896Y-13014984D02*
X6334467Y-13024508D01*
X6334467Y-13024508D02*
X6353515Y-13043555D01*
X6353515Y-13043555D02*
X6363039Y-13062603D01*
X6363039Y-13062603D02*
X6372562Y-13100698D01*
X6372562Y-13100698D02*
X6372562Y-13129269D01*
X6372562Y-13129269D02*
X6363039Y-13167365D01*
X6363039Y-13167365D02*
X6353515Y-13186412D01*
X6353515Y-13186412D02*
X6334467Y-13205460D01*
X6334467Y-13205460D02*
X6305896Y-13214984D01*
X6305896Y-13214984D02*
X6258277Y-13214984D01*
X6458277Y-13214984D02*
X6458277Y-13081650D01*
X6458277Y-13119746D02*
X6467801Y-13100698D01*
X6467801Y-13100698D02*
X6477324Y-13091174D01*
X6477324Y-13091174D02*
X6496372Y-13081650D01*
X6496372Y-13081650D02*
X6515420Y-13081650D01*
X6582086Y-13214984D02*
X6582086Y-13081650D01*
X6582086Y-13014984D02*
X6572562Y-13024508D01*
X6572562Y-13024508D02*
X6582086Y-13034031D01*
X6582086Y-13034031D02*
X6591610Y-13024508D01*
X6591610Y-13024508D02*
X6582086Y-13014984D01*
X6582086Y-13014984D02*
X6582086Y-13034031D01*
X6705896Y-13214984D02*
X6686848Y-13205460D01*
X6686848Y-13205460D02*
X6677324Y-13186412D01*
X6677324Y-13186412D02*
X6677324Y-13014984D01*
X6810658Y-13214984D02*
X6791610Y-13205460D01*
X6791610Y-13205460D02*
X6782086Y-13186412D01*
X6782086Y-13186412D02*
X6782086Y-13014984D01*
X7039229Y-13214984D02*
X7039229Y-13014984D01*
X7039229Y-13014984D02*
X7105896Y-13157841D01*
X7105896Y-13157841D02*
X7172562Y-13014984D01*
X7172562Y-13014984D02*
X7172562Y-13214984D01*
X7353515Y-13214984D02*
X7353515Y-13110222D01*
X7353515Y-13110222D02*
X7343991Y-13091174D01*
X7343991Y-13091174D02*
X7324943Y-13081650D01*
X7324943Y-13081650D02*
X7286848Y-13081650D01*
X7286848Y-13081650D02*
X7267801Y-13091174D01*
X7353515Y-13205460D02*
X7334467Y-13214984D01*
X7334467Y-13214984D02*
X7286848Y-13214984D01*
X7286848Y-13214984D02*
X7267801Y-13205460D01*
X7267801Y-13205460D02*
X7258277Y-13186412D01*
X7258277Y-13186412D02*
X7258277Y-13167365D01*
X7258277Y-13167365D02*
X7267801Y-13148317D01*
X7267801Y-13148317D02*
X7286848Y-13138793D01*
X7286848Y-13138793D02*
X7334467Y-13138793D01*
X7334467Y-13138793D02*
X7353515Y-13129269D01*
X7448753Y-13081650D02*
X7448753Y-13281650D01*
X7448753Y-13091174D02*
X7467801Y-13081650D01*
X7467801Y-13081650D02*
X7505896Y-13081650D01*
X7505896Y-13081650D02*
X7524943Y-13091174D01*
X7524943Y-13091174D02*
X7534467Y-13100698D01*
X7534467Y-13100698D02*
X7543991Y-13119746D01*
X7543991Y-13119746D02*
X7543991Y-13176888D01*
X7543991Y-13176888D02*
X7534467Y-13195936D01*
X7534467Y-13195936D02*
X7524943Y-13205460D01*
X7524943Y-13205460D02*
X7505896Y-13214984D01*
X7505896Y-13214984D02*
X7467801Y-13214984D01*
X7467801Y-13214984D02*
X7448753Y-13205460D01*
X7629705Y-13195936D02*
X7639229Y-13205460D01*
X7639229Y-13205460D02*
X7629705Y-13214984D01*
X7629705Y-13214984D02*
X7620182Y-13205460D01*
X7620182Y-13205460D02*
X7629705Y-13195936D01*
X7629705Y-13195936D02*
X7629705Y-13214984D01*
X7629705Y-13091174D02*
X7639229Y-13100698D01*
X7639229Y-13100698D02*
X7629705Y-13110222D01*
X7629705Y-13110222D02*
X7620182Y-13100698D01*
X7620182Y-13100698D02*
X7629705Y-13091174D01*
X7629705Y-13091174D02*
X7629705Y-13110222D01*
D13*
X5932500Y-13511000D02*
X5997500Y-13576000D01*
X5997500Y-13511000D02*
X5932500Y-13576000D01*
D12*
X6296372Y-13434984D02*
X6315420Y-13434984D01*
X6315420Y-13434984D02*
X6334467Y-13444508D01*
X6334467Y-13444508D02*
X6343991Y-13454031D01*
X6343991Y-13454031D02*
X6353515Y-13473079D01*
X6353515Y-13473079D02*
X6363039Y-13511174D01*
X6363039Y-13511174D02*
X6363039Y-13558793D01*
X6363039Y-13558793D02*
X6353515Y-13596888D01*
X6353515Y-13596888D02*
X6343991Y-13615936D01*
X6343991Y-13615936D02*
X6334467Y-13625460D01*
X6334467Y-13625460D02*
X6315420Y-13634984D01*
X6315420Y-13634984D02*
X6296372Y-13634984D01*
X6296372Y-13634984D02*
X6277324Y-13625460D01*
X6277324Y-13625460D02*
X6267801Y-13615936D01*
X6267801Y-13615936D02*
X6258277Y-13596888D01*
X6258277Y-13596888D02*
X6248753Y-13558793D01*
X6248753Y-13558793D02*
X6248753Y-13511174D01*
X6248753Y-13511174D02*
X6258277Y-13473079D01*
X6258277Y-13473079D02*
X6267801Y-13454031D01*
X6267801Y-13454031D02*
X6277324Y-13444508D01*
X6277324Y-13444508D02*
X6296372Y-13434984D01*
X6448753Y-13615936D02*
X6458277Y-13625460D01*
X6458277Y-13625460D02*
X6448753Y-13634984D01*
X6448753Y-13634984D02*
X6439229Y-13625460D01*
X6439229Y-13625460D02*
X6448753Y-13615936D01*
X6448753Y-13615936D02*
X6448753Y-13634984D01*
X6629705Y-13434984D02*
X6591610Y-13434984D01*
X6591610Y-13434984D02*
X6572562Y-13444508D01*
X6572562Y-13444508D02*
X6563039Y-13454031D01*
X6563039Y-13454031D02*
X6543991Y-13482603D01*
X6543991Y-13482603D02*
X6534467Y-13520698D01*
X6534467Y-13520698D02*
X6534467Y-13596888D01*
X6534467Y-13596888D02*
X6543991Y-13615936D01*
X6543991Y-13615936D02*
X6553515Y-13625460D01*
X6553515Y-13625460D02*
X6572562Y-13634984D01*
X6572562Y-13634984D02*
X6610658Y-13634984D01*
X6610658Y-13634984D02*
X6629705Y-13625460D01*
X6629705Y-13625460D02*
X6639229Y-13615936D01*
X6639229Y-13615936D02*
X6648753Y-13596888D01*
X6648753Y-13596888D02*
X6648753Y-13549269D01*
X6648753Y-13549269D02*
X6639229Y-13530222D01*
X6639229Y-13530222D02*
X6629705Y-13520698D01*
X6629705Y-13520698D02*
X6610658Y-13511174D01*
X6610658Y-13511174D02*
X6572562Y-13511174D01*
X6572562Y-13511174D02*
X6553515Y-13520698D01*
X6553515Y-13520698D02*
X6543991Y-13530222D01*
X6543991Y-13530222D02*
X6534467Y-13549269D01*
X6829705Y-13434984D02*
X6734467Y-13434984D01*
X6734467Y-13434984D02*
X6724943Y-13530222D01*
X6724943Y-13530222D02*
X6734467Y-13520698D01*
X6734467Y-13520698D02*
X6753515Y-13511174D01*
X6753515Y-13511174D02*
X6801134Y-13511174D01*
X6801134Y-13511174D02*
X6820182Y-13520698D01*
X6820182Y-13520698D02*
X6829705Y-13530222D01*
X6829705Y-13530222D02*
X6839229Y-13549269D01*
X6839229Y-13549269D02*
X6839229Y-13596888D01*
X6839229Y-13596888D02*
X6829705Y-13615936D01*
X6829705Y-13615936D02*
X6820182Y-13625460D01*
X6820182Y-13625460D02*
X6801134Y-13634984D01*
X6801134Y-13634984D02*
X6753515Y-13634984D01*
X6753515Y-13634984D02*
X6734467Y-13625460D01*
X6734467Y-13625460D02*
X6724943Y-13615936D01*
X6963039Y-13434984D02*
X6982086Y-13434984D01*
X6982086Y-13434984D02*
X7001134Y-13444508D01*
X7001134Y-13444508D02*
X7010658Y-13454031D01*
X7010658Y-13454031D02*
X7020182Y-13473079D01*
X7020182Y-13473079D02*
X7029705Y-13511174D01*
X7029705Y-13511174D02*
X7029705Y-13558793D01*
X7029705Y-13558793D02*
X7020182Y-13596888D01*
X7020182Y-13596888D02*
X7010658Y-13615936D01*
X7010658Y-13615936D02*
X7001134Y-13625460D01*
X7001134Y-13625460D02*
X6982086Y-13634984D01*
X6982086Y-13634984D02*
X6963039Y-13634984D01*
X6963039Y-13634984D02*
X6943991Y-13625460D01*
X6943991Y-13625460D02*
X6934467Y-13615936D01*
X6934467Y-13615936D02*
X6924943Y-13596888D01*
X6924943Y-13596888D02*
X6915420Y-13558793D01*
X6915420Y-13558793D02*
X6915420Y-13511174D01*
X6915420Y-13511174D02*
X6924943Y-13473079D01*
X6924943Y-13473079D02*
X6934467Y-13454031D01*
X6934467Y-13454031D02*
X6943991Y-13444508D01*
X6943991Y-13444508D02*
X6963039Y-13434984D01*
X7115420Y-13634984D02*
X7115420Y-13501650D01*
X7115420Y-13520698D02*
X7124943Y-13511174D01*
X7124943Y-13511174D02*
X7143991Y-13501650D01*
X7143991Y-13501650D02*
X7172563Y-13501650D01*
X7172563Y-13501650D02*
X7191610Y-13511174D01*
X7191610Y-13511174D02*
X7201134Y-13530222D01*
X7201134Y-13530222D02*
X7201134Y-13634984D01*
X7201134Y-13530222D02*
X7210658Y-13511174D01*
X7210658Y-13511174D02*
X7229705Y-13501650D01*
X7229705Y-13501650D02*
X7258277Y-13501650D01*
X7258277Y-13501650D02*
X7277324Y-13511174D01*
X7277324Y-13511174D02*
X7286848Y-13530222D01*
X7286848Y-13530222D02*
X7286848Y-13634984D01*
X7382086Y-13634984D02*
X7382086Y-13501650D01*
X7382086Y-13520698D02*
X7391610Y-13511174D01*
X7391610Y-13511174D02*
X7410658Y-13501650D01*
X7410658Y-13501650D02*
X7439229Y-13501650D01*
X7439229Y-13501650D02*
X7458277Y-13511174D01*
X7458277Y-13511174D02*
X7467801Y-13530222D01*
X7467801Y-13530222D02*
X7467801Y-13634984D01*
X7467801Y-13530222D02*
X7477324Y-13511174D01*
X7477324Y-13511174D02*
X7496372Y-13501650D01*
X7496372Y-13501650D02*
X7524943Y-13501650D01*
X7524943Y-13501650D02*
X7543991Y-13511174D01*
X7543991Y-13511174D02*
X7553515Y-13530222D01*
X7553515Y-13530222D02*
X7553515Y-13634984D01*
X7943991Y-13425460D02*
X7772563Y-13682603D01*
X8201134Y-13434984D02*
X8220182Y-13434984D01*
X8220182Y-13434984D02*
X8239229Y-13444508D01*
X8239229Y-13444508D02*
X8248753Y-13454031D01*
X8248753Y-13454031D02*
X8258277Y-13473079D01*
X8258277Y-13473079D02*
X8267801Y-13511174D01*
X8267801Y-13511174D02*
X8267801Y-13558793D01*
X8267801Y-13558793D02*
X8258277Y-13596888D01*
X8258277Y-13596888D02*
X8248753Y-13615936D01*
X8248753Y-13615936D02*
X8239229Y-13625460D01*
X8239229Y-13625460D02*
X8220182Y-13634984D01*
X8220182Y-13634984D02*
X8201134Y-13634984D01*
X8201134Y-13634984D02*
X8182086Y-13625460D01*
X8182086Y-13625460D02*
X8172563Y-13615936D01*
X8172563Y-13615936D02*
X8163039Y-13596888D01*
X8163039Y-13596888D02*
X8153515Y-13558793D01*
X8153515Y-13558793D02*
X8153515Y-13511174D01*
X8153515Y-13511174D02*
X8163039Y-13473079D01*
X8163039Y-13473079D02*
X8172563Y-13454031D01*
X8172563Y-13454031D02*
X8182086Y-13444508D01*
X8182086Y-13444508D02*
X8201134Y-13434984D01*
X8353515Y-13615936D02*
X8363039Y-13625460D01*
X8363039Y-13625460D02*
X8353515Y-13634984D01*
X8353515Y-13634984D02*
X8343991Y-13625460D01*
X8343991Y-13625460D02*
X8353515Y-13615936D01*
X8353515Y-13615936D02*
X8353515Y-13634984D01*
X8486848Y-13434984D02*
X8505896Y-13434984D01*
X8505896Y-13434984D02*
X8524944Y-13444508D01*
X8524944Y-13444508D02*
X8534468Y-13454031D01*
X8534468Y-13454031D02*
X8543991Y-13473079D01*
X8543991Y-13473079D02*
X8553515Y-13511174D01*
X8553515Y-13511174D02*
X8553515Y-13558793D01*
X8553515Y-13558793D02*
X8543991Y-13596888D01*
X8543991Y-13596888D02*
X8534468Y-13615936D01*
X8534468Y-13615936D02*
X8524944Y-13625460D01*
X8524944Y-13625460D02*
X8505896Y-13634984D01*
X8505896Y-13634984D02*
X8486848Y-13634984D01*
X8486848Y-13634984D02*
X8467801Y-13625460D01*
X8467801Y-13625460D02*
X8458277Y-13615936D01*
X8458277Y-13615936D02*
X8448753Y-13596888D01*
X8448753Y-13596888D02*
X8439229Y-13558793D01*
X8439229Y-13558793D02*
X8439229Y-13511174D01*
X8439229Y-13511174D02*
X8448753Y-13473079D01*
X8448753Y-13473079D02*
X8458277Y-13454031D01*
X8458277Y-13454031D02*
X8467801Y-13444508D01*
X8467801Y-13444508D02*
X8486848Y-13434984D01*
X8629706Y-13454031D02*
X8639229Y-13444508D01*
X8639229Y-13444508D02*
X8658277Y-13434984D01*
X8658277Y-13434984D02*
X8705896Y-13434984D01*
X8705896Y-13434984D02*
X8724944Y-13444508D01*
X8724944Y-13444508D02*
X8734468Y-13454031D01*
X8734468Y-13454031D02*
X8743991Y-13473079D01*
X8743991Y-13473079D02*
X8743991Y-13492127D01*
X8743991Y-13492127D02*
X8734468Y-13520698D01*
X8734468Y-13520698D02*
X8620182Y-13634984D01*
X8620182Y-13634984D02*
X8743991Y-13634984D01*
X8924944Y-13434984D02*
X8829706Y-13434984D01*
X8829706Y-13434984D02*
X8820182Y-13530222D01*
X8820182Y-13530222D02*
X8829706Y-13520698D01*
X8829706Y-13520698D02*
X8848753Y-13511174D01*
X8848753Y-13511174D02*
X8896372Y-13511174D01*
X8896372Y-13511174D02*
X8915420Y-13520698D01*
X8915420Y-13520698D02*
X8924944Y-13530222D01*
X8924944Y-13530222D02*
X8934468Y-13549269D01*
X8934468Y-13549269D02*
X8934468Y-13596888D01*
X8934468Y-13596888D02*
X8924944Y-13615936D01*
X8924944Y-13615936D02*
X8915420Y-13625460D01*
X8915420Y-13625460D02*
X8896372Y-13634984D01*
X8896372Y-13634984D02*
X8848753Y-13634984D01*
X8848753Y-13634984D02*
X8829706Y-13625460D01*
X8829706Y-13625460D02*
X8820182Y-13615936D01*
X9105896Y-13434984D02*
X9067801Y-13434984D01*
X9067801Y-13434984D02*
X9048753Y-13444508D01*
X9048753Y-13444508D02*
X9039229Y-13454031D01*
X9039229Y-13454031D02*
X9020182Y-13482603D01*
X9020182Y-13482603D02*
X9010658Y-13520698D01*
X9010658Y-13520698D02*
X9010658Y-13596888D01*
X9010658Y-13596888D02*
X9020182Y-13615936D01*
X9020182Y-13615936D02*
X9029706Y-13625460D01*
X9029706Y-13625460D02*
X9048753Y-13634984D01*
X9048753Y-13634984D02*
X9086849Y-13634984D01*
X9086849Y-13634984D02*
X9105896Y-13625460D01*
X9105896Y-13625460D02*
X9115420Y-13615936D01*
X9115420Y-13615936D02*
X9124944Y-13596888D01*
X9124944Y-13596888D02*
X9124944Y-13549269D01*
X9124944Y-13549269D02*
X9115420Y-13530222D01*
X9115420Y-13530222D02*
X9105896Y-13520698D01*
X9105896Y-13520698D02*
X9086849Y-13511174D01*
X9086849Y-13511174D02*
X9048753Y-13511174D01*
X9048753Y-13511174D02*
X9029706Y-13520698D01*
X9029706Y-13520698D02*
X9020182Y-13530222D01*
X9020182Y-13530222D02*
X9010658Y-13549269D01*
X9201134Y-13434984D02*
X9201134Y-13473079D01*
X9277325Y-13434984D02*
X9277325Y-13473079D01*
X9572563Y-13711174D02*
X9563039Y-13701650D01*
X9563039Y-13701650D02*
X9543991Y-13673079D01*
X9543991Y-13673079D02*
X9534468Y-13654031D01*
X9534468Y-13654031D02*
X9524944Y-13625460D01*
X9524944Y-13625460D02*
X9515420Y-13577841D01*
X9515420Y-13577841D02*
X9515420Y-13539746D01*
X9515420Y-13539746D02*
X9524944Y-13492127D01*
X9524944Y-13492127D02*
X9534468Y-13463555D01*
X9534468Y-13463555D02*
X9543991Y-13444508D01*
X9543991Y-13444508D02*
X9563039Y-13415936D01*
X9563039Y-13415936D02*
X9572563Y-13406412D01*
X9639230Y-13454031D02*
X9648753Y-13444508D01*
X9648753Y-13444508D02*
X9667801Y-13434984D01*
X9667801Y-13434984D02*
X9715420Y-13434984D01*
X9715420Y-13434984D02*
X9734468Y-13444508D01*
X9734468Y-13444508D02*
X9743991Y-13454031D01*
X9743991Y-13454031D02*
X9753515Y-13473079D01*
X9753515Y-13473079D02*
X9753515Y-13492127D01*
X9753515Y-13492127D02*
X9743991Y-13520698D01*
X9743991Y-13520698D02*
X9629706Y-13634984D01*
X9629706Y-13634984D02*
X9753515Y-13634984D01*
X9991611Y-13634984D02*
X9991611Y-13434984D01*
X10077325Y-13634984D02*
X10077325Y-13530222D01*
X10077325Y-13530222D02*
X10067801Y-13511174D01*
X10067801Y-13511174D02*
X10048753Y-13501650D01*
X10048753Y-13501650D02*
X10020182Y-13501650D01*
X10020182Y-13501650D02*
X10001134Y-13511174D01*
X10001134Y-13511174D02*
X9991611Y-13520698D01*
X10201134Y-13634984D02*
X10182087Y-13625460D01*
X10182087Y-13625460D02*
X10172563Y-13615936D01*
X10172563Y-13615936D02*
X10163039Y-13596888D01*
X10163039Y-13596888D02*
X10163039Y-13539746D01*
X10163039Y-13539746D02*
X10172563Y-13520698D01*
X10172563Y-13520698D02*
X10182087Y-13511174D01*
X10182087Y-13511174D02*
X10201134Y-13501650D01*
X10201134Y-13501650D02*
X10229706Y-13501650D01*
X10229706Y-13501650D02*
X10248753Y-13511174D01*
X10248753Y-13511174D02*
X10258277Y-13520698D01*
X10258277Y-13520698D02*
X10267801Y-13539746D01*
X10267801Y-13539746D02*
X10267801Y-13596888D01*
X10267801Y-13596888D02*
X10258277Y-13615936D01*
X10258277Y-13615936D02*
X10248753Y-13625460D01*
X10248753Y-13625460D02*
X10229706Y-13634984D01*
X10229706Y-13634984D02*
X10201134Y-13634984D01*
X10382087Y-13634984D02*
X10363039Y-13625460D01*
X10363039Y-13625460D02*
X10353515Y-13606412D01*
X10353515Y-13606412D02*
X10353515Y-13434984D01*
X10534468Y-13625460D02*
X10515420Y-13634984D01*
X10515420Y-13634984D02*
X10477325Y-13634984D01*
X10477325Y-13634984D02*
X10458277Y-13625460D01*
X10458277Y-13625460D02*
X10448753Y-13606412D01*
X10448753Y-13606412D02*
X10448753Y-13530222D01*
X10448753Y-13530222D02*
X10458277Y-13511174D01*
X10458277Y-13511174D02*
X10477325Y-13501650D01*
X10477325Y-13501650D02*
X10515420Y-13501650D01*
X10515420Y-13501650D02*
X10534468Y-13511174D01*
X10534468Y-13511174D02*
X10543992Y-13530222D01*
X10543992Y-13530222D02*
X10543992Y-13549269D01*
X10543992Y-13549269D02*
X10448753Y-13568317D01*
X10620182Y-13625460D02*
X10639230Y-13634984D01*
X10639230Y-13634984D02*
X10677325Y-13634984D01*
X10677325Y-13634984D02*
X10696373Y-13625460D01*
X10696373Y-13625460D02*
X10705896Y-13606412D01*
X10705896Y-13606412D02*
X10705896Y-13596888D01*
X10705896Y-13596888D02*
X10696373Y-13577841D01*
X10696373Y-13577841D02*
X10677325Y-13568317D01*
X10677325Y-13568317D02*
X10648753Y-13568317D01*
X10648753Y-13568317D02*
X10629706Y-13558793D01*
X10629706Y-13558793D02*
X10620182Y-13539746D01*
X10620182Y-13539746D02*
X10620182Y-13530222D01*
X10620182Y-13530222D02*
X10629706Y-13511174D01*
X10629706Y-13511174D02*
X10648753Y-13501650D01*
X10648753Y-13501650D02*
X10677325Y-13501650D01*
X10677325Y-13501650D02*
X10696373Y-13511174D01*
X10772563Y-13711174D02*
X10782087Y-13701650D01*
X10782087Y-13701650D02*
X10801134Y-13673079D01*
X10801134Y-13673079D02*
X10810658Y-13654031D01*
X10810658Y-13654031D02*
X10820182Y-13625460D01*
X10820182Y-13625460D02*
X10829706Y-13577841D01*
X10829706Y-13577841D02*
X10829706Y-13539746D01*
X10829706Y-13539746D02*
X10820182Y-13492127D01*
X10820182Y-13492127D02*
X10810658Y-13463555D01*
X10810658Y-13463555D02*
X10801134Y-13444508D01*
X10801134Y-13444508D02*
X10782087Y-13415936D01*
X10782087Y-13415936D02*
X10772563Y-13406412D01*
X11134468Y-13711174D02*
X11124944Y-13701650D01*
X11124944Y-13701650D02*
X11105896Y-13673079D01*
X11105896Y-13673079D02*
X11096373Y-13654031D01*
X11096373Y-13654031D02*
X11086849Y-13625460D01*
X11086849Y-13625460D02*
X11077325Y-13577841D01*
X11077325Y-13577841D02*
X11077325Y-13539746D01*
X11077325Y-13539746D02*
X11086849Y-13492127D01*
X11086849Y-13492127D02*
X11096373Y-13463555D01*
X11096373Y-13463555D02*
X11105896Y-13444508D01*
X11105896Y-13444508D02*
X11124944Y-13415936D01*
X11124944Y-13415936D02*
X11134468Y-13406412D01*
X11210658Y-13501650D02*
X11210658Y-13634984D01*
X11210658Y-13520698D02*
X11220182Y-13511174D01*
X11220182Y-13511174D02*
X11239230Y-13501650D01*
X11239230Y-13501650D02*
X11267801Y-13501650D01*
X11267801Y-13501650D02*
X11286849Y-13511174D01*
X11286849Y-13511174D02*
X11296372Y-13530222D01*
X11296372Y-13530222D02*
X11296372Y-13634984D01*
X11420182Y-13634984D02*
X11401134Y-13625460D01*
X11401134Y-13625460D02*
X11391611Y-13615936D01*
X11391611Y-13615936D02*
X11382087Y-13596888D01*
X11382087Y-13596888D02*
X11382087Y-13539746D01*
X11382087Y-13539746D02*
X11391611Y-13520698D01*
X11391611Y-13520698D02*
X11401134Y-13511174D01*
X11401134Y-13511174D02*
X11420182Y-13501650D01*
X11420182Y-13501650D02*
X11448753Y-13501650D01*
X11448753Y-13501650D02*
X11467801Y-13511174D01*
X11467801Y-13511174D02*
X11477325Y-13520698D01*
X11477325Y-13520698D02*
X11486849Y-13539746D01*
X11486849Y-13539746D02*
X11486849Y-13596888D01*
X11486849Y-13596888D02*
X11477325Y-13615936D01*
X11477325Y-13615936D02*
X11467801Y-13625460D01*
X11467801Y-13625460D02*
X11448753Y-13634984D01*
X11448753Y-13634984D02*
X11420182Y-13634984D01*
X11543992Y-13501650D02*
X11620182Y-13501650D01*
X11572563Y-13434984D02*
X11572563Y-13606412D01*
X11572563Y-13606412D02*
X11582087Y-13625460D01*
X11582087Y-13625460D02*
X11601134Y-13634984D01*
X11601134Y-13634984D02*
X11620182Y-13634984D01*
X11839230Y-13501650D02*
X11839230Y-13701650D01*
X11839230Y-13511174D02*
X11858277Y-13501650D01*
X11858277Y-13501650D02*
X11896373Y-13501650D01*
X11896373Y-13501650D02*
X11915420Y-13511174D01*
X11915420Y-13511174D02*
X11924944Y-13520698D01*
X11924944Y-13520698D02*
X11934468Y-13539746D01*
X11934468Y-13539746D02*
X11934468Y-13596888D01*
X11934468Y-13596888D02*
X11924944Y-13615936D01*
X11924944Y-13615936D02*
X11915420Y-13625460D01*
X11915420Y-13625460D02*
X11896373Y-13634984D01*
X11896373Y-13634984D02*
X11858277Y-13634984D01*
X11858277Y-13634984D02*
X11839230Y-13625460D01*
X12048753Y-13634984D02*
X12029706Y-13625460D01*
X12029706Y-13625460D02*
X12020182Y-13606412D01*
X12020182Y-13606412D02*
X12020182Y-13434984D01*
X12210658Y-13634984D02*
X12210658Y-13530222D01*
X12210658Y-13530222D02*
X12201134Y-13511174D01*
X12201134Y-13511174D02*
X12182087Y-13501650D01*
X12182087Y-13501650D02*
X12143992Y-13501650D01*
X12143992Y-13501650D02*
X12124944Y-13511174D01*
X12210658Y-13625460D02*
X12191611Y-13634984D01*
X12191611Y-13634984D02*
X12143992Y-13634984D01*
X12143992Y-13634984D02*
X12124944Y-13625460D01*
X12124944Y-13625460D02*
X12115420Y-13606412D01*
X12115420Y-13606412D02*
X12115420Y-13587365D01*
X12115420Y-13587365D02*
X12124944Y-13568317D01*
X12124944Y-13568317D02*
X12143992Y-13558793D01*
X12143992Y-13558793D02*
X12191611Y-13558793D01*
X12191611Y-13558793D02*
X12210658Y-13549269D01*
X12277325Y-13501650D02*
X12353515Y-13501650D01*
X12305896Y-13434984D02*
X12305896Y-13606412D01*
X12305896Y-13606412D02*
X12315420Y-13625460D01*
X12315420Y-13625460D02*
X12334468Y-13634984D01*
X12334468Y-13634984D02*
X12353515Y-13634984D01*
X12496373Y-13625460D02*
X12477325Y-13634984D01*
X12477325Y-13634984D02*
X12439230Y-13634984D01*
X12439230Y-13634984D02*
X12420182Y-13625460D01*
X12420182Y-13625460D02*
X12410658Y-13606412D01*
X12410658Y-13606412D02*
X12410658Y-13530222D01*
X12410658Y-13530222D02*
X12420182Y-13511174D01*
X12420182Y-13511174D02*
X12439230Y-13501650D01*
X12439230Y-13501650D02*
X12477325Y-13501650D01*
X12477325Y-13501650D02*
X12496373Y-13511174D01*
X12496373Y-13511174D02*
X12505896Y-13530222D01*
X12505896Y-13530222D02*
X12505896Y-13549269D01*
X12505896Y-13549269D02*
X12410658Y-13568317D01*
X12677325Y-13634984D02*
X12677325Y-13434984D01*
X12677325Y-13625460D02*
X12658277Y-13634984D01*
X12658277Y-13634984D02*
X12620182Y-13634984D01*
X12620182Y-13634984D02*
X12601134Y-13625460D01*
X12601134Y-13625460D02*
X12591611Y-13615936D01*
X12591611Y-13615936D02*
X12582087Y-13596888D01*
X12582087Y-13596888D02*
X12582087Y-13539746D01*
X12582087Y-13539746D02*
X12591611Y-13520698D01*
X12591611Y-13520698D02*
X12601134Y-13511174D01*
X12601134Y-13511174D02*
X12620182Y-13501650D01*
X12620182Y-13501650D02*
X12658277Y-13501650D01*
X12658277Y-13501650D02*
X12677325Y-13511174D01*
X12753515Y-13711174D02*
X12763039Y-13701650D01*
X12763039Y-13701650D02*
X12782087Y-13673079D01*
X12782087Y-13673079D02*
X12791611Y-13654031D01*
X12791611Y-13654031D02*
X12801134Y-13625460D01*
X12801134Y-13625460D02*
X12810658Y-13577841D01*
X12810658Y-13577841D02*
X12810658Y-13539746D01*
X12810658Y-13539746D02*
X12801134Y-13492127D01*
X12801134Y-13492127D02*
X12791611Y-13463555D01*
X12791611Y-13463555D02*
X12782087Y-13444508D01*
X12782087Y-13444508D02*
X12763039Y-13415936D01*
X12763039Y-13415936D02*
X12753515Y-13406412D01*
D14*
X5997500Y-13807500D02*
G75*
G02*
X5895500Y-13807500I-51000J0D01*
G01*
X5895500Y-13807500D02*
G75*
G02*
X5997500Y-13807500I51000J0D01*
G01*
D12*
X6363039Y-13898984D02*
X6248753Y-13898984D01*
X6305896Y-13898984D02*
X6305896Y-13698984D01*
X6305896Y-13698984D02*
X6286848Y-13727555D01*
X6286848Y-13727555D02*
X6267801Y-13746603D01*
X6267801Y-13746603D02*
X6248753Y-13756127D01*
X6448753Y-13879936D02*
X6458277Y-13889460D01*
X6458277Y-13889460D02*
X6448753Y-13898984D01*
X6448753Y-13898984D02*
X6439229Y-13889460D01*
X6439229Y-13889460D02*
X6448753Y-13879936D01*
X6448753Y-13879936D02*
X6448753Y-13898984D01*
X6582086Y-13698984D02*
X6601134Y-13698984D01*
X6601134Y-13698984D02*
X6620182Y-13708508D01*
X6620182Y-13708508D02*
X6629705Y-13718031D01*
X6629705Y-13718031D02*
X6639229Y-13737079D01*
X6639229Y-13737079D02*
X6648753Y-13775174D01*
X6648753Y-13775174D02*
X6648753Y-13822793D01*
X6648753Y-13822793D02*
X6639229Y-13860888D01*
X6639229Y-13860888D02*
X6629705Y-13879936D01*
X6629705Y-13879936D02*
X6620182Y-13889460D01*
X6620182Y-13889460D02*
X6601134Y-13898984D01*
X6601134Y-13898984D02*
X6582086Y-13898984D01*
X6582086Y-13898984D02*
X6563039Y-13889460D01*
X6563039Y-13889460D02*
X6553515Y-13879936D01*
X6553515Y-13879936D02*
X6543991Y-13860888D01*
X6543991Y-13860888D02*
X6534467Y-13822793D01*
X6534467Y-13822793D02*
X6534467Y-13775174D01*
X6534467Y-13775174D02*
X6543991Y-13737079D01*
X6543991Y-13737079D02*
X6553515Y-13718031D01*
X6553515Y-13718031D02*
X6563039Y-13708508D01*
X6563039Y-13708508D02*
X6582086Y-13698984D01*
X6724943Y-13718031D02*
X6734467Y-13708508D01*
X6734467Y-13708508D02*
X6753515Y-13698984D01*
X6753515Y-13698984D02*
X6801134Y-13698984D01*
X6801134Y-13698984D02*
X6820182Y-13708508D01*
X6820182Y-13708508D02*
X6829705Y-13718031D01*
X6829705Y-13718031D02*
X6839229Y-13737079D01*
X6839229Y-13737079D02*
X6839229Y-13756127D01*
X6839229Y-13756127D02*
X6829705Y-13784698D01*
X6829705Y-13784698D02*
X6715420Y-13898984D01*
X6715420Y-13898984D02*
X6839229Y-13898984D01*
X6963039Y-13698984D02*
X6982086Y-13698984D01*
X6982086Y-13698984D02*
X7001134Y-13708508D01*
X7001134Y-13708508D02*
X7010658Y-13718031D01*
X7010658Y-13718031D02*
X7020182Y-13737079D01*
X7020182Y-13737079D02*
X7029705Y-13775174D01*
X7029705Y-13775174D02*
X7029705Y-13822793D01*
X7029705Y-13822793D02*
X7020182Y-13860888D01*
X7020182Y-13860888D02*
X7010658Y-13879936D01*
X7010658Y-13879936D02*
X7001134Y-13889460D01*
X7001134Y-13889460D02*
X6982086Y-13898984D01*
X6982086Y-13898984D02*
X6963039Y-13898984D01*
X6963039Y-13898984D02*
X6943991Y-13889460D01*
X6943991Y-13889460D02*
X6934467Y-13879936D01*
X6934467Y-13879936D02*
X6924943Y-13860888D01*
X6924943Y-13860888D02*
X6915420Y-13822793D01*
X6915420Y-13822793D02*
X6915420Y-13775174D01*
X6915420Y-13775174D02*
X6924943Y-13737079D01*
X6924943Y-13737079D02*
X6934467Y-13718031D01*
X6934467Y-13718031D02*
X6943991Y-13708508D01*
X6943991Y-13708508D02*
X6963039Y-13698984D01*
X7115420Y-13898984D02*
X7115420Y-13765650D01*
X7115420Y-13784698D02*
X7124943Y-13775174D01*
X7124943Y-13775174D02*
X7143991Y-13765650D01*
X7143991Y-13765650D02*
X7172563Y-13765650D01*
X7172563Y-13765650D02*
X7191610Y-13775174D01*
X7191610Y-13775174D02*
X7201134Y-13794222D01*
X7201134Y-13794222D02*
X7201134Y-13898984D01*
X7201134Y-13794222D02*
X7210658Y-13775174D01*
X7210658Y-13775174D02*
X7229705Y-13765650D01*
X7229705Y-13765650D02*
X7258277Y-13765650D01*
X7258277Y-13765650D02*
X7277324Y-13775174D01*
X7277324Y-13775174D02*
X7286848Y-13794222D01*
X7286848Y-13794222D02*
X7286848Y-13898984D01*
X7382086Y-13898984D02*
X7382086Y-13765650D01*
X7382086Y-13784698D02*
X7391610Y-13775174D01*
X7391610Y-13775174D02*
X7410658Y-13765650D01*
X7410658Y-13765650D02*
X7439229Y-13765650D01*
X7439229Y-13765650D02*
X7458277Y-13775174D01*
X7458277Y-13775174D02*
X7467801Y-13794222D01*
X7467801Y-13794222D02*
X7467801Y-13898984D01*
X7467801Y-13794222D02*
X7477324Y-13775174D01*
X7477324Y-13775174D02*
X7496372Y-13765650D01*
X7496372Y-13765650D02*
X7524943Y-13765650D01*
X7524943Y-13765650D02*
X7543991Y-13775174D01*
X7543991Y-13775174D02*
X7553515Y-13794222D01*
X7553515Y-13794222D02*
X7553515Y-13898984D01*
X7943991Y-13689460D02*
X7772563Y-13946603D01*
X8201134Y-13698984D02*
X8220182Y-13698984D01*
X8220182Y-13698984D02*
X8239229Y-13708508D01*
X8239229Y-13708508D02*
X8248753Y-13718031D01*
X8248753Y-13718031D02*
X8258277Y-13737079D01*
X8258277Y-13737079D02*
X8267801Y-13775174D01*
X8267801Y-13775174D02*
X8267801Y-13822793D01*
X8267801Y-13822793D02*
X8258277Y-13860888D01*
X8258277Y-13860888D02*
X8248753Y-13879936D01*
X8248753Y-13879936D02*
X8239229Y-13889460D01*
X8239229Y-13889460D02*
X8220182Y-13898984D01*
X8220182Y-13898984D02*
X8201134Y-13898984D01*
X8201134Y-13898984D02*
X8182086Y-13889460D01*
X8182086Y-13889460D02*
X8172563Y-13879936D01*
X8172563Y-13879936D02*
X8163039Y-13860888D01*
X8163039Y-13860888D02*
X8153515Y-13822793D01*
X8153515Y-13822793D02*
X8153515Y-13775174D01*
X8153515Y-13775174D02*
X8163039Y-13737079D01*
X8163039Y-13737079D02*
X8172563Y-13718031D01*
X8172563Y-13718031D02*
X8182086Y-13708508D01*
X8182086Y-13708508D02*
X8201134Y-13698984D01*
X8353515Y-13879936D02*
X8363039Y-13889460D01*
X8363039Y-13889460D02*
X8353515Y-13898984D01*
X8353515Y-13898984D02*
X8343991Y-13889460D01*
X8343991Y-13889460D02*
X8353515Y-13879936D01*
X8353515Y-13879936D02*
X8353515Y-13898984D01*
X8486848Y-13698984D02*
X8505896Y-13698984D01*
X8505896Y-13698984D02*
X8524944Y-13708508D01*
X8524944Y-13708508D02*
X8534468Y-13718031D01*
X8534468Y-13718031D02*
X8543991Y-13737079D01*
X8543991Y-13737079D02*
X8553515Y-13775174D01*
X8553515Y-13775174D02*
X8553515Y-13822793D01*
X8553515Y-13822793D02*
X8543991Y-13860888D01*
X8543991Y-13860888D02*
X8534468Y-13879936D01*
X8534468Y-13879936D02*
X8524944Y-13889460D01*
X8524944Y-13889460D02*
X8505896Y-13898984D01*
X8505896Y-13898984D02*
X8486848Y-13898984D01*
X8486848Y-13898984D02*
X8467801Y-13889460D01*
X8467801Y-13889460D02*
X8458277Y-13879936D01*
X8458277Y-13879936D02*
X8448753Y-13860888D01*
X8448753Y-13860888D02*
X8439229Y-13822793D01*
X8439229Y-13822793D02*
X8439229Y-13775174D01*
X8439229Y-13775174D02*
X8448753Y-13737079D01*
X8448753Y-13737079D02*
X8458277Y-13718031D01*
X8458277Y-13718031D02*
X8467801Y-13708508D01*
X8467801Y-13708508D02*
X8486848Y-13698984D01*
X8724944Y-13765650D02*
X8724944Y-13898984D01*
X8677325Y-13689460D02*
X8629706Y-13832317D01*
X8629706Y-13832317D02*
X8753515Y-13832317D01*
X8867801Y-13698984D02*
X8886849Y-13698984D01*
X8886849Y-13698984D02*
X8905896Y-13708508D01*
X8905896Y-13708508D02*
X8915420Y-13718031D01*
X8915420Y-13718031D02*
X8924944Y-13737079D01*
X8924944Y-13737079D02*
X8934468Y-13775174D01*
X8934468Y-13775174D02*
X8934468Y-13822793D01*
X8934468Y-13822793D02*
X8924944Y-13860888D01*
X8924944Y-13860888D02*
X8915420Y-13879936D01*
X8915420Y-13879936D02*
X8905896Y-13889460D01*
X8905896Y-13889460D02*
X8886849Y-13898984D01*
X8886849Y-13898984D02*
X8867801Y-13898984D01*
X8867801Y-13898984D02*
X8848753Y-13889460D01*
X8848753Y-13889460D02*
X8839229Y-13879936D01*
X8839229Y-13879936D02*
X8829706Y-13860888D01*
X8829706Y-13860888D02*
X8820182Y-13822793D01*
X8820182Y-13822793D02*
X8820182Y-13775174D01*
X8820182Y-13775174D02*
X8829706Y-13737079D01*
X8829706Y-13737079D02*
X8839229Y-13718031D01*
X8839229Y-13718031D02*
X8848753Y-13708508D01*
X8848753Y-13708508D02*
X8867801Y-13698984D01*
X9010658Y-13718031D02*
X9020182Y-13708508D01*
X9020182Y-13708508D02*
X9039229Y-13698984D01*
X9039229Y-13698984D02*
X9086849Y-13698984D01*
X9086849Y-13698984D02*
X9105896Y-13708508D01*
X9105896Y-13708508D02*
X9115420Y-13718031D01*
X9115420Y-13718031D02*
X9124944Y-13737079D01*
X9124944Y-13737079D02*
X9124944Y-13756127D01*
X9124944Y-13756127D02*
X9115420Y-13784698D01*
X9115420Y-13784698D02*
X9001134Y-13898984D01*
X9001134Y-13898984D02*
X9124944Y-13898984D01*
X9201134Y-13698984D02*
X9201134Y-13737079D01*
X9277325Y-13698984D02*
X9277325Y-13737079D01*
X9572563Y-13975174D02*
X9563039Y-13965650D01*
X9563039Y-13965650D02*
X9543991Y-13937079D01*
X9543991Y-13937079D02*
X9534468Y-13918031D01*
X9534468Y-13918031D02*
X9524944Y-13889460D01*
X9524944Y-13889460D02*
X9515420Y-13841841D01*
X9515420Y-13841841D02*
X9515420Y-13803746D01*
X9515420Y-13803746D02*
X9524944Y-13756127D01*
X9524944Y-13756127D02*
X9534468Y-13727555D01*
X9534468Y-13727555D02*
X9543991Y-13708508D01*
X9543991Y-13708508D02*
X9563039Y-13679936D01*
X9563039Y-13679936D02*
X9572563Y-13670412D01*
X9639230Y-13718031D02*
X9648753Y-13708508D01*
X9648753Y-13708508D02*
X9667801Y-13698984D01*
X9667801Y-13698984D02*
X9715420Y-13698984D01*
X9715420Y-13698984D02*
X9734468Y-13708508D01*
X9734468Y-13708508D02*
X9743991Y-13718031D01*
X9743991Y-13718031D02*
X9753515Y-13737079D01*
X9753515Y-13737079D02*
X9753515Y-13756127D01*
X9753515Y-13756127D02*
X9743991Y-13784698D01*
X9743991Y-13784698D02*
X9629706Y-13898984D01*
X9629706Y-13898984D02*
X9753515Y-13898984D01*
X9991611Y-13898984D02*
X9991611Y-13698984D01*
X10077325Y-13898984D02*
X10077325Y-13794222D01*
X10077325Y-13794222D02*
X10067801Y-13775174D01*
X10067801Y-13775174D02*
X10048753Y-13765650D01*
X10048753Y-13765650D02*
X10020182Y-13765650D01*
X10020182Y-13765650D02*
X10001134Y-13775174D01*
X10001134Y-13775174D02*
X9991611Y-13784698D01*
X10201134Y-13898984D02*
X10182087Y-13889460D01*
X10182087Y-13889460D02*
X10172563Y-13879936D01*
X10172563Y-13879936D02*
X10163039Y-13860888D01*
X10163039Y-13860888D02*
X10163039Y-13803746D01*
X10163039Y-13803746D02*
X10172563Y-13784698D01*
X10172563Y-13784698D02*
X10182087Y-13775174D01*
X10182087Y-13775174D02*
X10201134Y-13765650D01*
X10201134Y-13765650D02*
X10229706Y-13765650D01*
X10229706Y-13765650D02*
X10248753Y-13775174D01*
X10248753Y-13775174D02*
X10258277Y-13784698D01*
X10258277Y-13784698D02*
X10267801Y-13803746D01*
X10267801Y-13803746D02*
X10267801Y-13860888D01*
X10267801Y-13860888D02*
X10258277Y-13879936D01*
X10258277Y-13879936D02*
X10248753Y-13889460D01*
X10248753Y-13889460D02*
X10229706Y-13898984D01*
X10229706Y-13898984D02*
X10201134Y-13898984D01*
X10382087Y-13898984D02*
X10363039Y-13889460D01*
X10363039Y-13889460D02*
X10353515Y-13870412D01*
X10353515Y-13870412D02*
X10353515Y-13698984D01*
X10534468Y-13889460D02*
X10515420Y-13898984D01*
X10515420Y-13898984D02*
X10477325Y-13898984D01*
X10477325Y-13898984D02*
X10458277Y-13889460D01*
X10458277Y-13889460D02*
X10448753Y-13870412D01*
X10448753Y-13870412D02*
X10448753Y-13794222D01*
X10448753Y-13794222D02*
X10458277Y-13775174D01*
X10458277Y-13775174D02*
X10477325Y-13765650D01*
X10477325Y-13765650D02*
X10515420Y-13765650D01*
X10515420Y-13765650D02*
X10534468Y-13775174D01*
X10534468Y-13775174D02*
X10543992Y-13794222D01*
X10543992Y-13794222D02*
X10543992Y-13813269D01*
X10543992Y-13813269D02*
X10448753Y-13832317D01*
X10620182Y-13889460D02*
X10639230Y-13898984D01*
X10639230Y-13898984D02*
X10677325Y-13898984D01*
X10677325Y-13898984D02*
X10696373Y-13889460D01*
X10696373Y-13889460D02*
X10705896Y-13870412D01*
X10705896Y-13870412D02*
X10705896Y-13860888D01*
X10705896Y-13860888D02*
X10696373Y-13841841D01*
X10696373Y-13841841D02*
X10677325Y-13832317D01*
X10677325Y-13832317D02*
X10648753Y-13832317D01*
X10648753Y-13832317D02*
X10629706Y-13822793D01*
X10629706Y-13822793D02*
X10620182Y-13803746D01*
X10620182Y-13803746D02*
X10620182Y-13794222D01*
X10620182Y-13794222D02*
X10629706Y-13775174D01*
X10629706Y-13775174D02*
X10648753Y-13765650D01*
X10648753Y-13765650D02*
X10677325Y-13765650D01*
X10677325Y-13765650D02*
X10696373Y-13775174D01*
X10772563Y-13975174D02*
X10782087Y-13965650D01*
X10782087Y-13965650D02*
X10801134Y-13937079D01*
X10801134Y-13937079D02*
X10810658Y-13918031D01*
X10810658Y-13918031D02*
X10820182Y-13889460D01*
X10820182Y-13889460D02*
X10829706Y-13841841D01*
X10829706Y-13841841D02*
X10829706Y-13803746D01*
X10829706Y-13803746D02*
X10820182Y-13756127D01*
X10820182Y-13756127D02*
X10810658Y-13727555D01*
X10810658Y-13727555D02*
X10801134Y-13708508D01*
X10801134Y-13708508D02*
X10782087Y-13679936D01*
X10782087Y-13679936D02*
X10772563Y-13670412D01*
X11134468Y-13975174D02*
X11124944Y-13965650D01*
X11124944Y-13965650D02*
X11105896Y-13937079D01*
X11105896Y-13937079D02*
X11096373Y-13918031D01*
X11096373Y-13918031D02*
X11086849Y-13889460D01*
X11086849Y-13889460D02*
X11077325Y-13841841D01*
X11077325Y-13841841D02*
X11077325Y-13803746D01*
X11077325Y-13803746D02*
X11086849Y-13756127D01*
X11086849Y-13756127D02*
X11096373Y-13727555D01*
X11096373Y-13727555D02*
X11105896Y-13708508D01*
X11105896Y-13708508D02*
X11124944Y-13679936D01*
X11124944Y-13679936D02*
X11134468Y-13670412D01*
X11210658Y-13765650D02*
X11210658Y-13898984D01*
X11210658Y-13784698D02*
X11220182Y-13775174D01*
X11220182Y-13775174D02*
X11239230Y-13765650D01*
X11239230Y-13765650D02*
X11267801Y-13765650D01*
X11267801Y-13765650D02*
X11286849Y-13775174D01*
X11286849Y-13775174D02*
X11296372Y-13794222D01*
X11296372Y-13794222D02*
X11296372Y-13898984D01*
X11420182Y-13898984D02*
X11401134Y-13889460D01*
X11401134Y-13889460D02*
X11391611Y-13879936D01*
X11391611Y-13879936D02*
X11382087Y-13860888D01*
X11382087Y-13860888D02*
X11382087Y-13803746D01*
X11382087Y-13803746D02*
X11391611Y-13784698D01*
X11391611Y-13784698D02*
X11401134Y-13775174D01*
X11401134Y-13775174D02*
X11420182Y-13765650D01*
X11420182Y-13765650D02*
X11448753Y-13765650D01*
X11448753Y-13765650D02*
X11467801Y-13775174D01*
X11467801Y-13775174D02*
X11477325Y-13784698D01*
X11477325Y-13784698D02*
X11486849Y-13803746D01*
X11486849Y-13803746D02*
X11486849Y-13860888D01*
X11486849Y-13860888D02*
X11477325Y-13879936D01*
X11477325Y-13879936D02*
X11467801Y-13889460D01*
X11467801Y-13889460D02*
X11448753Y-13898984D01*
X11448753Y-13898984D02*
X11420182Y-13898984D01*
X11543992Y-13765650D02*
X11620182Y-13765650D01*
X11572563Y-13698984D02*
X11572563Y-13870412D01*
X11572563Y-13870412D02*
X11582087Y-13889460D01*
X11582087Y-13889460D02*
X11601134Y-13898984D01*
X11601134Y-13898984D02*
X11620182Y-13898984D01*
X11839230Y-13765650D02*
X11839230Y-13965650D01*
X11839230Y-13775174D02*
X11858277Y-13765650D01*
X11858277Y-13765650D02*
X11896373Y-13765650D01*
X11896373Y-13765650D02*
X11915420Y-13775174D01*
X11915420Y-13775174D02*
X11924944Y-13784698D01*
X11924944Y-13784698D02*
X11934468Y-13803746D01*
X11934468Y-13803746D02*
X11934468Y-13860888D01*
X11934468Y-13860888D02*
X11924944Y-13879936D01*
X11924944Y-13879936D02*
X11915420Y-13889460D01*
X11915420Y-13889460D02*
X11896373Y-13898984D01*
X11896373Y-13898984D02*
X11858277Y-13898984D01*
X11858277Y-13898984D02*
X11839230Y-13889460D01*
X12048753Y-13898984D02*
X12029706Y-13889460D01*
X12029706Y-13889460D02*
X12020182Y-13870412D01*
X12020182Y-13870412D02*
X12020182Y-13698984D01*
X12210658Y-13898984D02*
X12210658Y-13794222D01*
X12210658Y-13794222D02*
X12201134Y-13775174D01*
X12201134Y-13775174D02*
X12182087Y-13765650D01*
X12182087Y-13765650D02*
X12143992Y-13765650D01*
X12143992Y-13765650D02*
X12124944Y-13775174D01*
X12210658Y-13889460D02*
X12191611Y-13898984D01*
X12191611Y-13898984D02*
X12143992Y-13898984D01*
X12143992Y-13898984D02*
X12124944Y-13889460D01*
X12124944Y-13889460D02*
X12115420Y-13870412D01*
X12115420Y-13870412D02*
X12115420Y-13851365D01*
X12115420Y-13851365D02*
X12124944Y-13832317D01*
X12124944Y-13832317D02*
X12143992Y-13822793D01*
X12143992Y-13822793D02*
X12191611Y-13822793D01*
X12191611Y-13822793D02*
X12210658Y-13813269D01*
X12277325Y-13765650D02*
X12353515Y-13765650D01*
X12305896Y-13698984D02*
X12305896Y-13870412D01*
X12305896Y-13870412D02*
X12315420Y-13889460D01*
X12315420Y-13889460D02*
X12334468Y-13898984D01*
X12334468Y-13898984D02*
X12353515Y-13898984D01*
X12496373Y-13889460D02*
X12477325Y-13898984D01*
X12477325Y-13898984D02*
X12439230Y-13898984D01*
X12439230Y-13898984D02*
X12420182Y-13889460D01*
X12420182Y-13889460D02*
X12410658Y-13870412D01*
X12410658Y-13870412D02*
X12410658Y-13794222D01*
X12410658Y-13794222D02*
X12420182Y-13775174D01*
X12420182Y-13775174D02*
X12439230Y-13765650D01*
X12439230Y-13765650D02*
X12477325Y-13765650D01*
X12477325Y-13765650D02*
X12496373Y-13775174D01*
X12496373Y-13775174D02*
X12505896Y-13794222D01*
X12505896Y-13794222D02*
X12505896Y-13813269D01*
X12505896Y-13813269D02*
X12410658Y-13832317D01*
X12677325Y-13898984D02*
X12677325Y-13698984D01*
X12677325Y-13889460D02*
X12658277Y-13898984D01*
X12658277Y-13898984D02*
X12620182Y-13898984D01*
X12620182Y-13898984D02*
X12601134Y-13889460D01*
X12601134Y-13889460D02*
X12591611Y-13879936D01*
X12591611Y-13879936D02*
X12582087Y-13860888D01*
X12582087Y-13860888D02*
X12582087Y-13803746D01*
X12582087Y-13803746D02*
X12591611Y-13784698D01*
X12591611Y-13784698D02*
X12601134Y-13775174D01*
X12601134Y-13775174D02*
X12620182Y-13765650D01*
X12620182Y-13765650D02*
X12658277Y-13765650D01*
X12658277Y-13765650D02*
X12677325Y-13775174D01*
X12753515Y-13975174D02*
X12763039Y-13965650D01*
X12763039Y-13965650D02*
X12782087Y-13937079D01*
X12782087Y-13937079D02*
X12791611Y-13918031D01*
X12791611Y-13918031D02*
X12801134Y-13889460D01*
X12801134Y-13889460D02*
X12810658Y-13841841D01*
X12810658Y-13841841D02*
X12810658Y-13803746D01*
X12810658Y-13803746D02*
X12801134Y-13756127D01*
X12801134Y-13756127D02*
X12791611Y-13727555D01*
X12791611Y-13727555D02*
X12782087Y-13708508D01*
X12782087Y-13708508D02*
X12763039Y-13679936D01*
X12763039Y-13679936D02*
X12753515Y-13670412D01*
M02*
