M48
; DRILL file {KiCad 9.0.7} date 2026-02-27T16:16:51-0700
; FORMAT={-:-/ absolute / metric / decimal}
; #@! TF.CreationDate,2026-02-27T16:16:51-07:00
; #@! TF.GenerationSoftware,Kicad,Pcbnew,9.0.7
; #@! TF.FileFunction,Plated,1,8,PTH
FMAT,2
METRIC
; #@! TA.AperFunction,Plated,PTH,ViaDrill
T1C0.300
; #@! TA.AperFunction,Plated,PTH,ComponentDrill
T2C0.500
; #@! TA.AperFunction,Plated,PTH,ComponentDrill
T3C0.600
; #@! TA.AperFunction,Plated,PTH,ComponentDrill
T4C2.700
%
G90
G05
T1
X61.09Y-118.16
X61.09Y-119.26
X61.09Y-125.86
X61.09Y-126.96
X61.33Y-105.03
X61.36Y-103.34
X61.38Y-101.652
X62.59Y-118.16
X62.59Y-126.96
X63.62Y-113.35
X63.71Y-112.51
X64.09Y-119.26
X64.09Y-120.36
X64.09Y-121.46
X64.09Y-123.66
X64.09Y-124.76
X64.09Y-125.86
X64.3Y-110.07
X64.3Y-111.14
X64.31Y-110.6
X64.32Y-114.35
X64.68Y-120.88
X64.98Y-111.58
X64.99Y-109.92
X65.33Y-116.61
X65.5Y-66.4
X65.59Y-111.58
X65.72Y-125.31
X65.74Y-124.14
X65.75Y-126.4
X66.2Y-63.0
X66.2Y-63.8
X66.2Y-64.6
X66.22Y-113.03
X66.28Y-127.72
X66.29Y-122.01
X66.29Y-123.11
X66.45Y-61.29
X66.64Y-124.0
X66.8Y-60.2
X66.85Y-126.4
X66.86Y-117.26
X66.9Y-110.51
X66.9Y-111.1
X67.13Y-62.325
X67.2Y-66.4
X67.25Y-124.0
X67.39Y-127.73
X67.5Y-111.1
X67.55Y-61.1
X68.18Y-101.53
X68.2Y-63.8
X68.225Y-66.425
X68.35Y-114.7
X68.377Y-100.835
X68.377Y-102.335
X68.4Y-117.3
X68.49Y-123.11
X68.5Y-109.2
X68.502Y-103.535
X68.502Y-105.335
X68.555Y-106.955
X68.8Y-63.8
X68.9Y-67.5
X69.0Y-61.6
X69.015Y-99.335
X69.03Y-126.39
X69.035Y-122.555
X69.04Y-97.185
X69.04Y-125.32
X69.285Y-103.535
X69.285Y-105.335
X69.285Y-108.035
X69.29Y-97.935
X69.29Y-98.535
X69.37Y-83.355
X69.4Y-63.8
X69.59Y-122.01
X69.675Y-61.585
X69.9Y-60.7
X69.94Y-114.5
X70.015Y-100.835
X70.015Y-102.335
X70.1Y-76.965
X70.13Y-126.41
X70.14Y-125.32
X70.175Y-96.4
X70.245Y-103.535
X70.245Y-104.435
X70.245Y-105.335
X70.245Y-106.235
X70.245Y-107.135
X70.245Y-108.035
X70.245Y-109.01
X70.35Y-73.7
X70.39Y-72.565
X70.39Y-74.765
X70.39Y-75.865
X70.39Y-78.065
X70.39Y-79.165
X70.39Y-80.265
X70.49Y-97.185
X70.5Y-60.7
X70.565Y-99.335
X70.65Y-76.965
X70.8Y-96.4
X70.87Y-70.22
X70.87Y-124.04
X70.89Y-103.96
X71.02Y-84.51
X71.09Y-110.85
X71.09Y-111.65
X71.1Y-60.7
X71.1Y-83.375
X71.425Y-96.4
X71.5Y-120.4
X71.515Y-112.335
X71.59Y-81.995
X71.59Y-108.56
X71.59Y-110.11
X71.64Y-85.905
X71.7Y-60.7
X71.7Y-115.59
X71.8Y-83.375
X71.89Y-110.85
X71.89Y-111.65
X72.015Y-100.785
X72.05Y-96.4
X72.465Y-101.16
X72.675Y-96.4
X72.885Y-115.42
X72.89Y-119.26
X72.89Y-125.86
X72.95Y-116.6
X72.955Y-107.455
X73.3Y-96.4
X73.355Y-103.155
X73.355Y-104.155
X73.355Y-105.155
X73.5Y-118.8
X73.58Y-86.8
X73.675Y-100.9
X73.7Y-111.5
X73.7Y-112.1
X73.7Y-112.7
X73.8Y-114.9
X73.85Y-116.6
X73.99Y-118.16
X73.99Y-119.26
X73.99Y-126.96
X74.06Y-87.43
X74.195Y-107.395
X74.2Y-115.5
X74.25Y-111.5
X74.25Y-112.1
X74.25Y-112.7
X74.355Y-103.155
X74.355Y-104.155
X74.355Y-105.155
X74.4Y-100.615
X74.475Y-99.825
X74.54Y-82.095
X74.54Y-82.915
X74.57Y-85.915
X74.6Y-61.6
X74.6Y-62.4
X74.6Y-63.2
X74.6Y-64.0
X74.6Y-64.8
X74.6Y-65.6
X74.69Y-96.935
X74.69Y-98.06
X74.707Y-71.192
X74.79Y-111.5
X74.79Y-112.1
X74.79Y-112.7
X74.925Y-99.4
X75.355Y-103.155
X75.355Y-104.155
X75.355Y-105.155
X75.36Y-115.89
X75.39Y-96.935
X75.45Y-110.635
X75.45Y-111.535
X75.46Y-85.925
X75.49Y-114.61
X75.5Y-108.6
X75.57Y-124.61
X75.57Y-125.51
X75.57Y-126.27
X75.57Y-127.17
X75.6Y-100.935
X75.7Y-115.4
X75.715Y-112.335
X75.75Y-108.1
X75.79Y-109.91
X75.99Y-96.935
X75.99Y-100.535
X76.05Y-108.575
X76.1Y-67.5
X76.125Y-110.635
X76.125Y-111.535
X76.355Y-103.155
X76.355Y-104.155
X76.355Y-105.155
X76.39Y-100.935
X76.39Y-114.18
X76.41Y-124.64
X76.41Y-125.54
X76.7Y-62.3
X76.725Y-126.71
X76.79Y-96.935
X77.125Y-107.45
X77.3Y-100.97
X77.33Y-118.05
X77.35Y-121.58
X77.57Y-125.34
X77.59Y-122.35
X77.6Y-120.5
X77.602Y-82.095
X77.602Y-82.915
X77.9Y-111.5
X77.9Y-112.1
X77.9Y-112.7
X77.905Y-101.005
X77.905Y-101.655
X78.275Y-126.71
X78.3Y-123.37
X78.33Y-124.26
X78.4Y-85.915
X78.44Y-118.58
X78.45Y-111.5
X78.45Y-112.1
X78.45Y-112.7
X78.48Y-119.23
X78.58Y-120.01
X78.63Y-121.03
X78.8Y-66.6
X78.95Y-67.3
X78.95Y-102.88
X78.99Y-111.5
X78.99Y-112.1
X79.2Y-124.8
X79.22Y-104.562
X79.22Y-105.562
X79.29Y-85.925
X79.489Y-96.575
X79.49Y-97.175
X79.49Y-97.775
X79.49Y-98.375
X79.5Y-99.0
X79.57Y-101.49
X79.665Y-82.575
X79.85Y-67.3
X80.18Y-103.662
X80.18Y-104.562
X80.18Y-105.562
X80.65Y-67.3
X81.2Y-66.6
X81.34Y-83.44
X81.55Y-67.3
X81.55Y-99.4
X81.75Y-72.2
X81.75Y-86.9
X81.76Y-87.5
X81.9Y-84.6
X82.02Y-70.62
X82.1Y-97.1
X82.15Y-97.95
X82.22Y-85.925
X82.6Y-64.5
X82.7Y-96.65
X82.975Y-121.875
X83.0Y-121.3
X83.145Y-72.425
X83.145Y-80.205
X83.55Y-121.3
X83.57Y-105.76
X83.6Y-70.3
X84.08Y-120.04
X84.1Y-64.45
X84.1Y-121.3
X84.6Y-100.65
X84.65Y-121.3
X84.7Y-121.95
X85.2Y-84.25
X85.2Y-85.15
X85.29Y-83.46
X85.5Y-120.1
X85.5Y-120.775
X85.5Y-121.375
X85.5Y-121.95
X85.6Y-64.45
X85.6Y-81.4
X85.6Y-82.3
X85.6Y-100.25
X85.72Y-99.13
X85.985Y-83.47
X86.05Y-118.3
X86.25Y-96.44
X86.5Y-97.05
X86.535Y-83.47
X86.76Y-102.63
X86.79Y-119.74
X86.93Y-78.87
X86.93Y-79.77
X87.06Y-80.53
X87.1Y-64.45
X87.12Y-118.43
X87.125Y-120.3
X87.17Y-95.29
X87.516Y-81.076
X87.675Y-118.8
X87.675Y-120.3
X87.7Y-95.6
X87.73Y-82.13
X87.78Y-101.01
X87.904Y-81.464
X87.95Y-116.68
X87.95Y-117.5
X88.16Y-96.82
X88.225Y-118.8
X88.3Y-111.98
X88.3Y-112.72
X88.46Y-99.07
X88.6Y-64.45
X88.6Y-72.2
X88.6Y-74.0
X88.6Y-76.1
X88.6Y-77.8
X88.6Y-79.6
X88.63Y-101.7
X88.73Y-95.71
X88.76Y-111.31
X88.76Y-118.36
X88.82Y-80.71
X88.82Y-81.61
X88.9Y-98.62
X88.98Y-119.77
X89.1Y-73.1
X89.1Y-75.1
X89.1Y-77.0
X89.1Y-78.7
X89.2Y-70.35
X89.2Y-71.25
X89.26Y-103.35
X89.3Y-87.3
X89.46Y-92.04
X89.54Y-98.25
X89.62Y-104.5
X89.65Y-102.13
X89.68Y-95.725
X89.68Y-100.51
X89.695Y-102.905
X89.86Y-87.79
X89.94Y-88.39
X90.05Y-74.0
X90.05Y-75.05
X90.05Y-76.1
X90.05Y-88.98
X90.1Y-64.45
X90.11Y-115.6
X90.3Y-121.4
X90.3Y-121.95
X90.35Y-119.7
X90.35Y-120.5
X90.42Y-104.56
X90.45Y-92.595
X90.45Y-95.735
X90.457Y-103.727
X90.47Y-88.38
X90.47Y-100.51
X90.48Y-98.12
X90.48Y-102.12
X90.54Y-102.88
X90.58Y-105.98
X90.76Y-109.1
X90.79Y-89.1
X90.9Y-114.6
X91.0Y-121.3
X91.1Y-66.55
X91.1Y-121.95
X91.23Y-95.74
X91.23Y-101.38
X91.25Y-89.33
X91.25Y-93.25
X91.25Y-94.015
X91.25Y-94.915
X91.25Y-97.325
X91.25Y-98.1
X91.25Y-119.7
X91.25Y-120.5
X91.28Y-99.69
X91.28Y-102.1
X91.287Y-102.897
X91.3Y-92.545
X91.31Y-100.52
X91.41Y-108.53
X91.5Y-109.66
X91.55Y-121.3
X91.6Y-66.95
X92.06Y-95.71
X92.06Y-99.71
X92.07Y-96.5
X92.079Y-102.104
X92.08Y-94.955
X92.08Y-97.31
X92.08Y-98.12
X92.08Y-101.3
X92.08Y-102.9
X92.09Y-93.295
X92.09Y-100.49
X92.1Y-93.935
X92.1Y-121.3
X92.12Y-92.475
X92.42Y-82.12
X92.53Y-88.29
X92.65Y-67.0
X92.65Y-121.3
X92.7Y-109.02
X92.835Y-98.115
X92.835Y-99.715
X92.85Y-91.58
X92.85Y-93.3
X92.86Y-102.14
X92.867Y-103.717
X92.87Y-96.51
X92.87Y-102.91
X92.87Y-104.51
X92.88Y-94.89
X92.9Y-81.69
X92.9Y-101.3
X92.98Y-80.1
X93.03Y-111.22
X93.06Y-88.28
X93.11Y-75.317
X93.26Y-79.03
X93.35Y-72.917
X93.35Y-81.28
X93.37Y-73.59
X93.42Y-74.517
X93.45Y-80.44
X93.5Y-70.15
X93.54Y-69.19
X93.54Y-70.92
X93.55Y-67.0
X93.55Y-71.7
X93.57Y-88.26
X93.58Y-91.69
X93.65Y-102.92
X93.657Y-96.527
X93.667Y-98.117
X93.667Y-93.317
X93.67Y-94.92
X93.67Y-100.51
X93.672Y-101.312
X93.69Y-99.715
X93.7Y-102.1
X93.97Y-111.22
X94.02Y-119.55
X94.03Y-92.0
X94.03Y-109.32
X94.08Y-88.24
X94.34Y-80.54
X94.347Y-70.107
X94.35Y-78.07
X94.36Y-76.53
X94.367Y-77.317
X94.372Y-70.912
X94.39Y-71.69
X94.39Y-78.89
X94.39Y-79.74
X94.44Y-96.5
X94.44Y-102.91
X94.455Y-101.315
X94.46Y-91.65
X94.46Y-93.265
X94.465Y-99.715
X94.467Y-98.117
X94.47Y-94.92
X94.48Y-102.12
X94.49Y-90.09
X94.74Y-89.09
X94.79Y-86.52
X94.92Y-111.22
X95.0Y-62.3
X95.137Y-71.737
X95.137Y-78.087
X95.14Y-75.69
X95.14Y-79.74
X95.15Y-72.5
X95.15Y-78.87
X95.157Y-77.327
X95.17Y-70.1
X95.2Y-105.9
X95.24Y-90.09
X95.24Y-90.94
X95.254Y-99.729
X95.26Y-102.92
X95.267Y-93.317
X95.27Y-102.11
X95.275Y-101.325
X95.277Y-96.507
X95.287Y-98.097
X95.29Y-91.69
X95.302Y-94.882
X95.49Y-89.09
X95.69Y-109.22
X95.87Y-111.22
X95.87Y-119.57
X95.98Y-75.68
X95.99Y-76.5
X95.99Y-77.29
X96.027Y-91.757
X96.037Y-90.907
X96.06Y-96.5
X96.06Y-98.1
X96.062Y-99.722
X96.067Y-93.317
X96.077Y-94.907
X96.08Y-103.73
X96.09Y-101.34
X96.1Y-102.14
X96.13Y-85.21
X96.137Y-70.297
X96.15Y-72.58
X96.17Y-107.03
X96.8Y-101.25
X96.81Y-111.22
X96.857Y-91.707
X96.865Y-102.915
X96.867Y-99.717
X96.867Y-90.887
X96.87Y-93.32
X96.87Y-94.92
X96.87Y-96.5
X96.87Y-103.72
X96.882Y-98.102
X96.89Y-102.07
X97.392Y-89.05
X97.6Y-68.8
X97.6Y-87.73
X97.627Y-90.097
X97.65Y-101.31
X97.657Y-99.727
X97.667Y-93.317
X97.67Y-96.52
X97.67Y-98.14
X97.67Y-102.13
X97.672Y-94.912
X97.68Y-103.7
X97.7Y-102.95
X97.75Y-111.22
X97.76Y-64.0
X97.78Y-115.56
X97.8Y-104.75
X97.81Y-120.6
X97.942Y-89.05
X98.0Y-65.9
X98.03Y-108.04
X98.093Y-70.563
X98.11Y-71.08
X98.24Y-105.41
X98.307Y-72.587
X98.44Y-74.92
X98.44Y-76.52
X98.452Y-99.732
X98.46Y-102.91
X98.467Y-93.317
X98.467Y-101.317
X98.467Y-91.717
X98.47Y-102.11
X98.477Y-90.917
X98.482Y-94.902
X98.487Y-98.097
X98.487Y-96.497
X98.52Y-103.74
X98.56Y-118.82
X98.57Y-64.51
X98.6Y-117.82
X98.66Y-122.188
X98.842Y-89.192
X98.85Y-120.61
X98.95Y-66.9
X99.0Y-110.7
X99.07Y-116.22
X99.11Y-76.51
X99.127Y-79.717
X99.15Y-77.29
X99.165Y-78.915
X99.167Y-70.137
X99.17Y-72.52
X99.187Y-78.137
X99.209Y-114.01
X99.21Y-61.7
X99.23Y-94.92
X99.24Y-118.32
X99.257Y-99.727
X99.264Y-96.519
X99.267Y-93.317
X99.267Y-90.092
X99.27Y-98.13
X99.27Y-101.31
X99.292Y-90.917
X99.31Y-102.96
X99.37Y-120.62
X99.52Y-61.11
X99.55Y-111.2
X99.85Y-66.9
X99.89Y-82.76
X99.95Y-70.11
X99.96Y-70.92
X99.987Y-71.697
X100.017Y-90.917
X100.029Y-114.01
X100.03Y-104.48
X100.042Y-93.342
X100.052Y-99.732
X100.06Y-118.32
X100.07Y-96.5
X100.07Y-98.09
X100.09Y-102.13
X100.09Y-103.74
X100.092Y-101.292
X100.092Y-91.692
X100.35Y-109.31
X100.47Y-105.02
X100.517Y-89.06
X100.79Y-82.94
X100.8Y-70.93
X100.84Y-70.12
X100.842Y-96.542
X100.842Y-90.892
X100.852Y-93.332
X100.862Y-98.122
X100.87Y-99.7
X100.87Y-104.43
X100.874Y-94.909
X100.875Y-102.125
X100.88Y-71.72
X100.89Y-72.53
X100.89Y-101.29
X100.89Y-102.94
X100.9Y-79.66
X100.94Y-73.73
X101.0Y-74.517
X101.23Y-120.72
X101.24Y-120.12
X101.24Y-121.29
X101.32Y-104.82
X101.33Y-80.5
X101.42Y-81.36
X101.55Y-119.67
X101.655Y-101.305
X101.657Y-93.327
X101.667Y-91.717
X101.675Y-102.1
X101.675Y-102.9
X101.68Y-96.51
X101.68Y-98.11
X101.68Y-99.72
X101.7Y-94.93
X101.7Y-100.52
X101.75Y-95.7
X101.78Y-80.16
X101.78Y-80.917
X101.787Y-78.417
X101.8Y-77.55
X101.81Y-105.44
X101.82Y-79.39
X101.82Y-81.815
X101.92Y-70.12
X101.92Y-71.297
X101.98Y-120.13
X102.03Y-82.45
X102.11Y-121.29
X102.12Y-120.77
X102.2Y-109.07
X102.32Y-61.68
X102.43Y-95.785
X102.43Y-96.46
X102.46Y-97.31
X102.46Y-98.09
X102.465Y-93.315
X102.47Y-94.105
X102.47Y-100.52
X102.47Y-102.12
X102.48Y-99.71
X102.5Y-92.5
X102.53Y-120.13
X102.7Y-68.7
X102.7Y-69.6
X102.72Y-61.1
X102.767Y-70.337
X102.78Y-71.292
X102.8Y-75.37
X102.9Y-121.25
X102.91Y-119.66
X103.04Y-106.84
X103.08Y-108.05
X103.1Y-109.05
X103.21Y-94.885
X103.25Y-95.735
X103.25Y-97.29
X103.25Y-98.12
X103.27Y-91.72
X103.27Y-92.52
X103.27Y-96.55
X103.27Y-102.1
X103.27Y-103.7
X103.272Y-93.312
X103.28Y-102.93
X104.04Y-100.48
X104.04Y-102.94
X104.04Y-103.72
X104.05Y-93.335
X104.05Y-96.5
X104.05Y-97.35
X104.05Y-102.09
X104.06Y-95.735
X104.07Y-91.72
X104.07Y-101.32
X104.27Y-106.83
X104.42Y-116.45
X104.45Y-78.39
X104.5Y-76.5
X104.53Y-114.66
X104.53Y-120.12
X104.53Y-120.97
X104.86Y-91.68
X104.89Y-95.695
X104.91Y-89.45
X104.93Y-93.155
X105.06Y-122.188
X105.085Y-98.565
X105.35Y-114.66
X105.37Y-100.91
X105.41Y-107.99
X105.43Y-98.14
X105.43Y-120.12
X105.43Y-120.94
X105.46Y-61.83
X105.47Y-64.32
X105.51Y-99.07
X105.65Y-71.2
X105.65Y-73.2
X105.652Y-108.98
X105.66Y-106.97
X105.7Y-72.2
X105.7Y-74.2
X105.7Y-99.71
X105.75Y-96.85
X105.76Y-97.73
X105.89Y-61.1
X105.96Y-100.73
X105.99Y-101.62
X105.99Y-102.44
X106.4Y-76.6
X106.4Y-77.6
X106.4Y-79.9
X106.44Y-113.43
X106.7Y-74.95
X106.7Y-75.85
X106.7Y-81.25
X106.7Y-82.15
X106.87Y-93.73
X107.1Y-119.9
X107.13Y-94.46
X107.27Y-103.07
X107.32Y-91.32
X107.32Y-100.7
X107.33Y-96.99
X107.56Y-99.51
X107.587Y-114.61
X107.63Y-105.94
X108.35Y-93.6
X108.45Y-94.45
X108.53Y-119.11
X108.71Y-122.29
X108.75Y-118.16
X108.81Y-115.65
X108.88Y-101.37
X108.88Y-102.11
X108.89Y-100.55
X108.89Y-111.54
X108.89Y-112.892
X109.13Y-108.06
X109.13Y-108.76
X109.15Y-95.5
X109.18Y-96.28
X109.32Y-105.98
T2
X61.395Y-88.785
X61.988Y-87.353
X61.988Y-90.217
X63.42Y-86.76
X63.42Y-90.81
X64.852Y-87.353
X64.852Y-90.217
X65.445Y-88.785
T4
X63.42Y-88.785
T3
G00X82.28Y-123.01
M15
G01X82.28Y-123.81
M16
G05
G00X82.28Y-126.81
M15
G01X82.28Y-128.01
M16
G05
G00X93.52Y-123.01
M15
G01X93.52Y-123.81
M16
G05
G00X93.52Y-126.81
M15
G01X93.52Y-128.01
M16
G05
G00X96.24Y-123.01
M15
G01X96.24Y-123.81
M16
G05
G00X96.24Y-126.81
M15
G01X96.24Y-128.01
M16
G05
G00X107.48Y-123.01
M15
G01X107.48Y-123.81
M16
G05
G00X107.48Y-126.81
M15
G01X107.48Y-128.01
M16
G05
M30
