%TF.GenerationSoftware,KiCad,Pcbnew,9.0.1*%
%TF.CreationDate,2025-07-01T18:44:37-06:00*%
%TF.ProjectId,MPU_MOD,4d50555f-4d4f-4442-9e6b-696361645f70,rev?*%
%TF.SameCoordinates,Original*%
%TF.FileFunction,Soldermask,Bot*%
%TF.FilePolarity,Negative*%
%FSLAX46Y46*%
G04 Gerber Fmt 4.6, Leading zero omitted, Abs format (unit mm)*
G04 Created by KiCad (PCBNEW 9.0.1) date 2025-07-01 18:44:37*
%MOMM*%
%LPD*%
G01*
G04 APERTURE LIST*
G04 Aperture macros list*
%AMRoundRect*
0 Rectangle with rounded corners*
0 $1 Rounding radius*
0 $2 $3 $4 $5 $6 $7 $8 $9 X,Y pos of 4 corners*
0 Add a 4 corners polygon primitive as box body*
4,1,4,$2,$3,$4,$5,$6,$7,$8,$9,$2,$3,0*
0 Add four circle primitives for the rounded corners*
1,1,$1+$1,$2,$3*
1,1,$1+$1,$4,$5*
1,1,$1+$1,$6,$7*
1,1,$1+$1,$8,$9*
0 Add four rect primitives between the rounded corners*
20,1,$1+$1,$2,$3,$4,$5,0*
20,1,$1+$1,$4,$5,$6,$7,0*
20,1,$1+$1,$6,$7,$8,$9,0*
20,1,$1+$1,$8,$9,$2,$3,0*%
G04 Aperture macros list end*
%ADD10C,0.010000*%
%ADD11C,1.104000*%
%ADD12R,0.850000X0.850000*%
%ADD13C,0.850000*%
%ADD14C,0.499999*%
%ADD15RoundRect,0.135000X-0.185000X0.135000X-0.185000X-0.135000X0.185000X-0.135000X0.185000X0.135000X0*%
%ADD16RoundRect,0.135000X0.185000X-0.135000X0.185000X0.135000X-0.185000X0.135000X-0.185000X-0.135000X0*%
%ADD17RoundRect,0.140000X0.170000X-0.140000X0.170000X0.140000X-0.170000X0.140000X-0.170000X-0.140000X0*%
%ADD18RoundRect,0.135000X-0.135000X-0.185000X0.135000X-0.185000X0.135000X0.185000X-0.135000X0.185000X0*%
%ADD19RoundRect,0.135000X0.135000X0.185000X-0.135000X0.185000X-0.135000X-0.185000X0.135000X-0.185000X0*%
%ADD20RoundRect,0.140000X-0.170000X0.140000X-0.170000X-0.140000X0.170000X-0.140000X0.170000X0.140000X0*%
%ADD21RoundRect,0.140000X-0.021213X0.219203X-0.219203X0.021213X0.021213X-0.219203X0.219203X-0.021213X0*%
%ADD22RoundRect,0.140000X0.140000X0.170000X-0.140000X0.170000X-0.140000X-0.170000X0.140000X-0.170000X0*%
%ADD23RoundRect,0.135000X0.035355X-0.226274X0.226274X-0.035355X-0.035355X0.226274X-0.226274X0.035355X0*%
%ADD24RoundRect,0.140000X-0.140000X-0.170000X0.140000X-0.170000X0.140000X0.170000X-0.140000X0.170000X0*%
%ADD25RoundRect,0.140000X0.021213X-0.219203X0.219203X-0.021213X-0.021213X0.219203X-0.219203X0.021213X0*%
%ADD26RoundRect,0.102000X-1.100000X0.575000X-1.100000X-0.575000X1.100000X-0.575000X1.100000X0.575000X0*%
%ADD27RoundRect,0.102000X-0.600000X0.575000X-0.600000X-0.575000X0.600000X-0.575000X0.600000X0.575000X0*%
%ADD28RoundRect,0.102000X-0.575000X0.750000X-0.575000X-0.750000X0.575000X-0.750000X0.575000X0.750000X0*%
%ADD29RoundRect,0.102000X-1.250000X0.575000X-1.250000X-0.575000X1.250000X-0.575000X1.250000X0.575000X0*%
%ADD30RoundRect,0.102000X-0.620000X0.400000X-0.620000X-0.400000X0.620000X-0.400000X0.620000X0.400000X0*%
%ADD31RoundRect,0.102000X-0.625000X0.575000X-0.625000X-0.575000X0.625000X-0.575000X0.625000X0.575000X0*%
%ADD32R,0.406400X0.838200*%
%ADD33RoundRect,0.140000X0.219203X0.021213X0.021213X0.219203X-0.219203X-0.021213X-0.021213X-0.219203X0*%
G04 APERTURE END LIST*
D10*
%TO.C,J3*%
X84661000Y-94401000D02*
X84693000Y-94403000D01*
X84724000Y-94407000D01*
X84755000Y-94413000D01*
X84785000Y-94420000D01*
X84815000Y-94429000D01*
X84845000Y-94440000D01*
X84874000Y-94452000D01*
X84902000Y-94465000D01*
X84930000Y-94480000D01*
X84957000Y-94497000D01*
X84983000Y-94515000D01*
X85008000Y-94534000D01*
X85031000Y-94554000D01*
X85054000Y-94576000D01*
X85076000Y-94599000D01*
X85096000Y-94622000D01*
X85115000Y-94647000D01*
X85133000Y-94673000D01*
X85150000Y-94700000D01*
X85165000Y-94728000D01*
X85178000Y-94756000D01*
X85190000Y-94785000D01*
X85201000Y-94815000D01*
X85210000Y-94845000D01*
X85217000Y-94875000D01*
X85223000Y-94906000D01*
X85227000Y-94937000D01*
X85229000Y-94969000D01*
X85230000Y-95000000D01*
X85230000Y-95800000D01*
X85229000Y-95831000D01*
X85227000Y-95863000D01*
X85223000Y-95894000D01*
X85217000Y-95925000D01*
X85210000Y-95955000D01*
X85201000Y-95985000D01*
X85190000Y-96015000D01*
X85178000Y-96044000D01*
X85165000Y-96072000D01*
X85150000Y-96100000D01*
X85133000Y-96127000D01*
X85115000Y-96153000D01*
X85096000Y-96178000D01*
X85076000Y-96201000D01*
X85054000Y-96224000D01*
X85031000Y-96246000D01*
X85008000Y-96266000D01*
X84983000Y-96285000D01*
X84957000Y-96303000D01*
X84930000Y-96320000D01*
X84902000Y-96335000D01*
X84874000Y-96348000D01*
X84845000Y-96360000D01*
X84815000Y-96371000D01*
X84785000Y-96380000D01*
X84755000Y-96387000D01*
X84724000Y-96393000D01*
X84693000Y-96397000D01*
X84661000Y-96399000D01*
X84630000Y-96400000D01*
X84599000Y-96399000D01*
X84567000Y-96397000D01*
X84536000Y-96393000D01*
X84505000Y-96387000D01*
X84475000Y-96380000D01*
X84445000Y-96371000D01*
X84415000Y-96360000D01*
X84386000Y-96348000D01*
X84358000Y-96335000D01*
X84330000Y-96320000D01*
X84303000Y-96303000D01*
X84277000Y-96285000D01*
X84252000Y-96266000D01*
X84229000Y-96246000D01*
X84206000Y-96224000D01*
X84184000Y-96201000D01*
X84164000Y-96178000D01*
X84145000Y-96153000D01*
X84127000Y-96127000D01*
X84110000Y-96100000D01*
X84095000Y-96072000D01*
X84082000Y-96044000D01*
X84070000Y-96015000D01*
X84059000Y-95985000D01*
X84050000Y-95955000D01*
X84043000Y-95925000D01*
X84037000Y-95894000D01*
X84033000Y-95863000D01*
X84031000Y-95831000D01*
X84030000Y-95800000D01*
X84030000Y-95000000D01*
X84031000Y-94969000D01*
X84033000Y-94937000D01*
X84037000Y-94906000D01*
X84043000Y-94875000D01*
X84050000Y-94845000D01*
X84059000Y-94815000D01*
X84070000Y-94785000D01*
X84082000Y-94756000D01*
X84095000Y-94728000D01*
X84110000Y-94700000D01*
X84127000Y-94673000D01*
X84145000Y-94647000D01*
X84164000Y-94622000D01*
X84184000Y-94599000D01*
X84206000Y-94576000D01*
X84229000Y-94554000D01*
X84252000Y-94534000D01*
X84277000Y-94515000D01*
X84303000Y-94497000D01*
X84330000Y-94480000D01*
X84358000Y-94465000D01*
X84386000Y-94452000D01*
X84415000Y-94440000D01*
X84445000Y-94429000D01*
X84475000Y-94420000D01*
X84505000Y-94413000D01*
X84536000Y-94407000D01*
X84567000Y-94403000D01*
X84599000Y-94401000D01*
X84630000Y-94400000D01*
X84661000Y-94401000D01*
G36*
X84661000Y-94401000D02*
G01*
X84693000Y-94403000D01*
X84724000Y-94407000D01*
X84755000Y-94413000D01*
X84785000Y-94420000D01*
X84815000Y-94429000D01*
X84845000Y-94440000D01*
X84874000Y-94452000D01*
X84902000Y-94465000D01*
X84930000Y-94480000D01*
X84957000Y-94497000D01*
X84983000Y-94515000D01*
X85008000Y-94534000D01*
X85031000Y-94554000D01*
X85054000Y-94576000D01*
X85076000Y-94599000D01*
X85096000Y-94622000D01*
X85115000Y-94647000D01*
X85133000Y-94673000D01*
X85150000Y-94700000D01*
X85165000Y-94728000D01*
X85178000Y-94756000D01*
X85190000Y-94785000D01*
X85201000Y-94815000D01*
X85210000Y-94845000D01*
X85217000Y-94875000D01*
X85223000Y-94906000D01*
X85227000Y-94937000D01*
X85229000Y-94969000D01*
X85230000Y-95000000D01*
X85230000Y-95800000D01*
X85229000Y-95831000D01*
X85227000Y-95863000D01*
X85223000Y-95894000D01*
X85217000Y-95925000D01*
X85210000Y-95955000D01*
X85201000Y-95985000D01*
X85190000Y-96015000D01*
X85178000Y-96044000D01*
X85165000Y-96072000D01*
X85150000Y-96100000D01*
X85133000Y-96127000D01*
X85115000Y-96153000D01*
X85096000Y-96178000D01*
X85076000Y-96201000D01*
X85054000Y-96224000D01*
X85031000Y-96246000D01*
X85008000Y-96266000D01*
X84983000Y-96285000D01*
X84957000Y-96303000D01*
X84930000Y-96320000D01*
X84902000Y-96335000D01*
X84874000Y-96348000D01*
X84845000Y-96360000D01*
X84815000Y-96371000D01*
X84785000Y-96380000D01*
X84755000Y-96387000D01*
X84724000Y-96393000D01*
X84693000Y-96397000D01*
X84661000Y-96399000D01*
X84630000Y-96400000D01*
X84599000Y-96399000D01*
X84567000Y-96397000D01*
X84536000Y-96393000D01*
X84505000Y-96387000D01*
X84475000Y-96380000D01*
X84445000Y-96371000D01*
X84415000Y-96360000D01*
X84386000Y-96348000D01*
X84358000Y-96335000D01*
X84330000Y-96320000D01*
X84303000Y-96303000D01*
X84277000Y-96285000D01*
X84252000Y-96266000D01*
X84229000Y-96246000D01*
X84206000Y-96224000D01*
X84184000Y-96201000D01*
X84164000Y-96178000D01*
X84145000Y-96153000D01*
X84127000Y-96127000D01*
X84110000Y-96100000D01*
X84095000Y-96072000D01*
X84082000Y-96044000D01*
X84070000Y-96015000D01*
X84059000Y-95985000D01*
X84050000Y-95955000D01*
X84043000Y-95925000D01*
X84037000Y-95894000D01*
X84033000Y-95863000D01*
X84031000Y-95831000D01*
X84030000Y-95800000D01*
X84030000Y-95000000D01*
X84031000Y-94969000D01*
X84033000Y-94937000D01*
X84037000Y-94906000D01*
X84043000Y-94875000D01*
X84050000Y-94845000D01*
X84059000Y-94815000D01*
X84070000Y-94785000D01*
X84082000Y-94756000D01*
X84095000Y-94728000D01*
X84110000Y-94700000D01*
X84127000Y-94673000D01*
X84145000Y-94647000D01*
X84164000Y-94622000D01*
X84184000Y-94599000D01*
X84206000Y-94576000D01*
X84229000Y-94554000D01*
X84252000Y-94534000D01*
X84277000Y-94515000D01*
X84303000Y-94497000D01*
X84330000Y-94480000D01*
X84358000Y-94465000D01*
X84386000Y-94452000D01*
X84415000Y-94440000D01*
X84445000Y-94429000D01*
X84475000Y-94420000D01*
X84505000Y-94413000D01*
X84536000Y-94407000D01*
X84567000Y-94403000D01*
X84599000Y-94401000D01*
X84630000Y-94400000D01*
X84661000Y-94401000D01*
G37*
X84661000Y-98201000D02*
X84693000Y-98203000D01*
X84724000Y-98207000D01*
X84755000Y-98213000D01*
X84785000Y-98220000D01*
X84815000Y-98229000D01*
X84845000Y-98240000D01*
X84874000Y-98252000D01*
X84902000Y-98265000D01*
X84930000Y-98280000D01*
X84957000Y-98297000D01*
X84983000Y-98315000D01*
X85008000Y-98334000D01*
X85031000Y-98354000D01*
X85054000Y-98376000D01*
X85076000Y-98399000D01*
X85096000Y-98422000D01*
X85115000Y-98447000D01*
X85133000Y-98473000D01*
X85150000Y-98500000D01*
X85165000Y-98528000D01*
X85178000Y-98556000D01*
X85190000Y-98585000D01*
X85201000Y-98615000D01*
X85210000Y-98645000D01*
X85217000Y-98675000D01*
X85223000Y-98706000D01*
X85227000Y-98737000D01*
X85229000Y-98769000D01*
X85230000Y-98800000D01*
X85230000Y-100000000D01*
X85229000Y-100031000D01*
X85227000Y-100063000D01*
X85223000Y-100094000D01*
X85217000Y-100125000D01*
X85210000Y-100155000D01*
X85201000Y-100185000D01*
X85190000Y-100215000D01*
X85178000Y-100244000D01*
X85165000Y-100272000D01*
X85150000Y-100300000D01*
X85133000Y-100327000D01*
X85115000Y-100353000D01*
X85096000Y-100378000D01*
X85076000Y-100401000D01*
X85054000Y-100424000D01*
X85031000Y-100446000D01*
X85008000Y-100466000D01*
X84983000Y-100485000D01*
X84957000Y-100503000D01*
X84930000Y-100520000D01*
X84902000Y-100535000D01*
X84874000Y-100548000D01*
X84845000Y-100560000D01*
X84815000Y-100571000D01*
X84785000Y-100580000D01*
X84755000Y-100587000D01*
X84724000Y-100593000D01*
X84693000Y-100597000D01*
X84661000Y-100599000D01*
X84630000Y-100600000D01*
X84599000Y-100599000D01*
X84567000Y-100597000D01*
X84536000Y-100593000D01*
X84505000Y-100587000D01*
X84475000Y-100580000D01*
X84445000Y-100571000D01*
X84415000Y-100560000D01*
X84386000Y-100548000D01*
X84358000Y-100535000D01*
X84330000Y-100520000D01*
X84303000Y-100503000D01*
X84277000Y-100485000D01*
X84252000Y-100466000D01*
X84229000Y-100446000D01*
X84206000Y-100424000D01*
X84184000Y-100401000D01*
X84164000Y-100378000D01*
X84145000Y-100353000D01*
X84127000Y-100327000D01*
X84110000Y-100300000D01*
X84095000Y-100272000D01*
X84082000Y-100244000D01*
X84070000Y-100215000D01*
X84059000Y-100185000D01*
X84050000Y-100155000D01*
X84043000Y-100125000D01*
X84037000Y-100094000D01*
X84033000Y-100063000D01*
X84031000Y-100031000D01*
X84030000Y-100000000D01*
X84030000Y-98800000D01*
X84031000Y-98769000D01*
X84033000Y-98737000D01*
X84037000Y-98706000D01*
X84043000Y-98675000D01*
X84050000Y-98645000D01*
X84059000Y-98615000D01*
X84070000Y-98585000D01*
X84082000Y-98556000D01*
X84095000Y-98528000D01*
X84110000Y-98500000D01*
X84127000Y-98473000D01*
X84145000Y-98447000D01*
X84164000Y-98422000D01*
X84184000Y-98399000D01*
X84206000Y-98376000D01*
X84229000Y-98354000D01*
X84252000Y-98334000D01*
X84277000Y-98315000D01*
X84303000Y-98297000D01*
X84330000Y-98280000D01*
X84358000Y-98265000D01*
X84386000Y-98252000D01*
X84415000Y-98240000D01*
X84445000Y-98229000D01*
X84475000Y-98220000D01*
X84505000Y-98213000D01*
X84536000Y-98207000D01*
X84567000Y-98203000D01*
X84599000Y-98201000D01*
X84630000Y-98200000D01*
X84661000Y-98201000D01*
G36*
X84661000Y-98201000D02*
G01*
X84693000Y-98203000D01*
X84724000Y-98207000D01*
X84755000Y-98213000D01*
X84785000Y-98220000D01*
X84815000Y-98229000D01*
X84845000Y-98240000D01*
X84874000Y-98252000D01*
X84902000Y-98265000D01*
X84930000Y-98280000D01*
X84957000Y-98297000D01*
X84983000Y-98315000D01*
X85008000Y-98334000D01*
X85031000Y-98354000D01*
X85054000Y-98376000D01*
X85076000Y-98399000D01*
X85096000Y-98422000D01*
X85115000Y-98447000D01*
X85133000Y-98473000D01*
X85150000Y-98500000D01*
X85165000Y-98528000D01*
X85178000Y-98556000D01*
X85190000Y-98585000D01*
X85201000Y-98615000D01*
X85210000Y-98645000D01*
X85217000Y-98675000D01*
X85223000Y-98706000D01*
X85227000Y-98737000D01*
X85229000Y-98769000D01*
X85230000Y-98800000D01*
X85230000Y-100000000D01*
X85229000Y-100031000D01*
X85227000Y-100063000D01*
X85223000Y-100094000D01*
X85217000Y-100125000D01*
X85210000Y-100155000D01*
X85201000Y-100185000D01*
X85190000Y-100215000D01*
X85178000Y-100244000D01*
X85165000Y-100272000D01*
X85150000Y-100300000D01*
X85133000Y-100327000D01*
X85115000Y-100353000D01*
X85096000Y-100378000D01*
X85076000Y-100401000D01*
X85054000Y-100424000D01*
X85031000Y-100446000D01*
X85008000Y-100466000D01*
X84983000Y-100485000D01*
X84957000Y-100503000D01*
X84930000Y-100520000D01*
X84902000Y-100535000D01*
X84874000Y-100548000D01*
X84845000Y-100560000D01*
X84815000Y-100571000D01*
X84785000Y-100580000D01*
X84755000Y-100587000D01*
X84724000Y-100593000D01*
X84693000Y-100597000D01*
X84661000Y-100599000D01*
X84630000Y-100600000D01*
X84599000Y-100599000D01*
X84567000Y-100597000D01*
X84536000Y-100593000D01*
X84505000Y-100587000D01*
X84475000Y-100580000D01*
X84445000Y-100571000D01*
X84415000Y-100560000D01*
X84386000Y-100548000D01*
X84358000Y-100535000D01*
X84330000Y-100520000D01*
X84303000Y-100503000D01*
X84277000Y-100485000D01*
X84252000Y-100466000D01*
X84229000Y-100446000D01*
X84206000Y-100424000D01*
X84184000Y-100401000D01*
X84164000Y-100378000D01*
X84145000Y-100353000D01*
X84127000Y-100327000D01*
X84110000Y-100300000D01*
X84095000Y-100272000D01*
X84082000Y-100244000D01*
X84070000Y-100215000D01*
X84059000Y-100185000D01*
X84050000Y-100155000D01*
X84043000Y-100125000D01*
X84037000Y-100094000D01*
X84033000Y-100063000D01*
X84031000Y-100031000D01*
X84030000Y-100000000D01*
X84030000Y-98800000D01*
X84031000Y-98769000D01*
X84033000Y-98737000D01*
X84037000Y-98706000D01*
X84043000Y-98675000D01*
X84050000Y-98645000D01*
X84059000Y-98615000D01*
X84070000Y-98585000D01*
X84082000Y-98556000D01*
X84095000Y-98528000D01*
X84110000Y-98500000D01*
X84127000Y-98473000D01*
X84145000Y-98447000D01*
X84164000Y-98422000D01*
X84184000Y-98399000D01*
X84206000Y-98376000D01*
X84229000Y-98354000D01*
X84252000Y-98334000D01*
X84277000Y-98315000D01*
X84303000Y-98297000D01*
X84330000Y-98280000D01*
X84358000Y-98265000D01*
X84386000Y-98252000D01*
X84415000Y-98240000D01*
X84445000Y-98229000D01*
X84475000Y-98220000D01*
X84505000Y-98213000D01*
X84536000Y-98207000D01*
X84567000Y-98203000D01*
X84599000Y-98201000D01*
X84630000Y-98200000D01*
X84661000Y-98201000D01*
G37*
X95901000Y-94401000D02*
X95933000Y-94403000D01*
X95964000Y-94407000D01*
X95995000Y-94413000D01*
X96025000Y-94420000D01*
X96055000Y-94429000D01*
X96085000Y-94440000D01*
X96114000Y-94452000D01*
X96142000Y-94465000D01*
X96170000Y-94480000D01*
X96197000Y-94497000D01*
X96223000Y-94515000D01*
X96248000Y-94534000D01*
X96271000Y-94554000D01*
X96294000Y-94576000D01*
X96316000Y-94599000D01*
X96336000Y-94622000D01*
X96355000Y-94647000D01*
X96373000Y-94673000D01*
X96390000Y-94700000D01*
X96405000Y-94728000D01*
X96418000Y-94756000D01*
X96430000Y-94785000D01*
X96441000Y-94815000D01*
X96450000Y-94845000D01*
X96457000Y-94875000D01*
X96463000Y-94906000D01*
X96467000Y-94937000D01*
X96469000Y-94969000D01*
X96470000Y-95000000D01*
X96470000Y-95800000D01*
X96469000Y-95831000D01*
X96467000Y-95863000D01*
X96463000Y-95894000D01*
X96457000Y-95925000D01*
X96450000Y-95955000D01*
X96441000Y-95985000D01*
X96430000Y-96015000D01*
X96418000Y-96044000D01*
X96405000Y-96072000D01*
X96390000Y-96100000D01*
X96373000Y-96127000D01*
X96355000Y-96153000D01*
X96336000Y-96178000D01*
X96316000Y-96201000D01*
X96294000Y-96224000D01*
X96271000Y-96246000D01*
X96248000Y-96266000D01*
X96223000Y-96285000D01*
X96197000Y-96303000D01*
X96170000Y-96320000D01*
X96142000Y-96335000D01*
X96114000Y-96348000D01*
X96085000Y-96360000D01*
X96055000Y-96371000D01*
X96025000Y-96380000D01*
X95995000Y-96387000D01*
X95964000Y-96393000D01*
X95933000Y-96397000D01*
X95901000Y-96399000D01*
X95870000Y-96400000D01*
X95839000Y-96399000D01*
X95807000Y-96397000D01*
X95776000Y-96393000D01*
X95745000Y-96387000D01*
X95715000Y-96380000D01*
X95685000Y-96371000D01*
X95655000Y-96360000D01*
X95626000Y-96348000D01*
X95598000Y-96335000D01*
X95570000Y-96320000D01*
X95543000Y-96303000D01*
X95517000Y-96285000D01*
X95492000Y-96266000D01*
X95469000Y-96246000D01*
X95446000Y-96224000D01*
X95424000Y-96201000D01*
X95404000Y-96178000D01*
X95385000Y-96153000D01*
X95367000Y-96127000D01*
X95350000Y-96100000D01*
X95335000Y-96072000D01*
X95322000Y-96044000D01*
X95310000Y-96015000D01*
X95299000Y-95985000D01*
X95290000Y-95955000D01*
X95283000Y-95925000D01*
X95277000Y-95894000D01*
X95273000Y-95863000D01*
X95271000Y-95831000D01*
X95270000Y-95800000D01*
X95270000Y-95000000D01*
X95271000Y-94969000D01*
X95273000Y-94937000D01*
X95277000Y-94906000D01*
X95283000Y-94875000D01*
X95290000Y-94845000D01*
X95299000Y-94815000D01*
X95310000Y-94785000D01*
X95322000Y-94756000D01*
X95335000Y-94728000D01*
X95350000Y-94700000D01*
X95367000Y-94673000D01*
X95385000Y-94647000D01*
X95404000Y-94622000D01*
X95424000Y-94599000D01*
X95446000Y-94576000D01*
X95469000Y-94554000D01*
X95492000Y-94534000D01*
X95517000Y-94515000D01*
X95543000Y-94497000D01*
X95570000Y-94480000D01*
X95598000Y-94465000D01*
X95626000Y-94452000D01*
X95655000Y-94440000D01*
X95685000Y-94429000D01*
X95715000Y-94420000D01*
X95745000Y-94413000D01*
X95776000Y-94407000D01*
X95807000Y-94403000D01*
X95839000Y-94401000D01*
X95870000Y-94400000D01*
X95901000Y-94401000D01*
G36*
X95901000Y-94401000D02*
G01*
X95933000Y-94403000D01*
X95964000Y-94407000D01*
X95995000Y-94413000D01*
X96025000Y-94420000D01*
X96055000Y-94429000D01*
X96085000Y-94440000D01*
X96114000Y-94452000D01*
X96142000Y-94465000D01*
X96170000Y-94480000D01*
X96197000Y-94497000D01*
X96223000Y-94515000D01*
X96248000Y-94534000D01*
X96271000Y-94554000D01*
X96294000Y-94576000D01*
X96316000Y-94599000D01*
X96336000Y-94622000D01*
X96355000Y-94647000D01*
X96373000Y-94673000D01*
X96390000Y-94700000D01*
X96405000Y-94728000D01*
X96418000Y-94756000D01*
X96430000Y-94785000D01*
X96441000Y-94815000D01*
X96450000Y-94845000D01*
X96457000Y-94875000D01*
X96463000Y-94906000D01*
X96467000Y-94937000D01*
X96469000Y-94969000D01*
X96470000Y-95000000D01*
X96470000Y-95800000D01*
X96469000Y-95831000D01*
X96467000Y-95863000D01*
X96463000Y-95894000D01*
X96457000Y-95925000D01*
X96450000Y-95955000D01*
X96441000Y-95985000D01*
X96430000Y-96015000D01*
X96418000Y-96044000D01*
X96405000Y-96072000D01*
X96390000Y-96100000D01*
X96373000Y-96127000D01*
X96355000Y-96153000D01*
X96336000Y-96178000D01*
X96316000Y-96201000D01*
X96294000Y-96224000D01*
X96271000Y-96246000D01*
X96248000Y-96266000D01*
X96223000Y-96285000D01*
X96197000Y-96303000D01*
X96170000Y-96320000D01*
X96142000Y-96335000D01*
X96114000Y-96348000D01*
X96085000Y-96360000D01*
X96055000Y-96371000D01*
X96025000Y-96380000D01*
X95995000Y-96387000D01*
X95964000Y-96393000D01*
X95933000Y-96397000D01*
X95901000Y-96399000D01*
X95870000Y-96400000D01*
X95839000Y-96399000D01*
X95807000Y-96397000D01*
X95776000Y-96393000D01*
X95745000Y-96387000D01*
X95715000Y-96380000D01*
X95685000Y-96371000D01*
X95655000Y-96360000D01*
X95626000Y-96348000D01*
X95598000Y-96335000D01*
X95570000Y-96320000D01*
X95543000Y-96303000D01*
X95517000Y-96285000D01*
X95492000Y-96266000D01*
X95469000Y-96246000D01*
X95446000Y-96224000D01*
X95424000Y-96201000D01*
X95404000Y-96178000D01*
X95385000Y-96153000D01*
X95367000Y-96127000D01*
X95350000Y-96100000D01*
X95335000Y-96072000D01*
X95322000Y-96044000D01*
X95310000Y-96015000D01*
X95299000Y-95985000D01*
X95290000Y-95955000D01*
X95283000Y-95925000D01*
X95277000Y-95894000D01*
X95273000Y-95863000D01*
X95271000Y-95831000D01*
X95270000Y-95800000D01*
X95270000Y-95000000D01*
X95271000Y-94969000D01*
X95273000Y-94937000D01*
X95277000Y-94906000D01*
X95283000Y-94875000D01*
X95290000Y-94845000D01*
X95299000Y-94815000D01*
X95310000Y-94785000D01*
X95322000Y-94756000D01*
X95335000Y-94728000D01*
X95350000Y-94700000D01*
X95367000Y-94673000D01*
X95385000Y-94647000D01*
X95404000Y-94622000D01*
X95424000Y-94599000D01*
X95446000Y-94576000D01*
X95469000Y-94554000D01*
X95492000Y-94534000D01*
X95517000Y-94515000D01*
X95543000Y-94497000D01*
X95570000Y-94480000D01*
X95598000Y-94465000D01*
X95626000Y-94452000D01*
X95655000Y-94440000D01*
X95685000Y-94429000D01*
X95715000Y-94420000D01*
X95745000Y-94413000D01*
X95776000Y-94407000D01*
X95807000Y-94403000D01*
X95839000Y-94401000D01*
X95870000Y-94400000D01*
X95901000Y-94401000D01*
G37*
X95901000Y-98201000D02*
X95933000Y-98203000D01*
X95964000Y-98207000D01*
X95995000Y-98213000D01*
X96025000Y-98220000D01*
X96055000Y-98229000D01*
X96085000Y-98240000D01*
X96114000Y-98252000D01*
X96142000Y-98265000D01*
X96170000Y-98280000D01*
X96197000Y-98297000D01*
X96223000Y-98315000D01*
X96248000Y-98334000D01*
X96271000Y-98354000D01*
X96294000Y-98376000D01*
X96316000Y-98399000D01*
X96336000Y-98422000D01*
X96355000Y-98447000D01*
X96373000Y-98473000D01*
X96390000Y-98500000D01*
X96405000Y-98528000D01*
X96418000Y-98556000D01*
X96430000Y-98585000D01*
X96441000Y-98615000D01*
X96450000Y-98645000D01*
X96457000Y-98675000D01*
X96463000Y-98706000D01*
X96467000Y-98737000D01*
X96469000Y-98769000D01*
X96470000Y-98800000D01*
X96470000Y-100000000D01*
X96469000Y-100031000D01*
X96467000Y-100063000D01*
X96463000Y-100094000D01*
X96457000Y-100125000D01*
X96450000Y-100155000D01*
X96441000Y-100185000D01*
X96430000Y-100215000D01*
X96418000Y-100244000D01*
X96405000Y-100272000D01*
X96390000Y-100300000D01*
X96373000Y-100327000D01*
X96355000Y-100353000D01*
X96336000Y-100378000D01*
X96316000Y-100401000D01*
X96294000Y-100424000D01*
X96271000Y-100446000D01*
X96248000Y-100466000D01*
X96223000Y-100485000D01*
X96197000Y-100503000D01*
X96170000Y-100520000D01*
X96142000Y-100535000D01*
X96114000Y-100548000D01*
X96085000Y-100560000D01*
X96055000Y-100571000D01*
X96025000Y-100580000D01*
X95995000Y-100587000D01*
X95964000Y-100593000D01*
X95933000Y-100597000D01*
X95901000Y-100599000D01*
X95870000Y-100600000D01*
X95839000Y-100599000D01*
X95807000Y-100597000D01*
X95776000Y-100593000D01*
X95745000Y-100587000D01*
X95715000Y-100580000D01*
X95685000Y-100571000D01*
X95655000Y-100560000D01*
X95626000Y-100548000D01*
X95598000Y-100535000D01*
X95570000Y-100520000D01*
X95543000Y-100503000D01*
X95517000Y-100485000D01*
X95492000Y-100466000D01*
X95469000Y-100446000D01*
X95446000Y-100424000D01*
X95424000Y-100401000D01*
X95404000Y-100378000D01*
X95385000Y-100353000D01*
X95367000Y-100327000D01*
X95350000Y-100300000D01*
X95335000Y-100272000D01*
X95322000Y-100244000D01*
X95310000Y-100215000D01*
X95299000Y-100185000D01*
X95290000Y-100155000D01*
X95283000Y-100125000D01*
X95277000Y-100094000D01*
X95273000Y-100063000D01*
X95271000Y-100031000D01*
X95270000Y-100000000D01*
X95270000Y-98800000D01*
X95271000Y-98769000D01*
X95273000Y-98737000D01*
X95277000Y-98706000D01*
X95283000Y-98675000D01*
X95290000Y-98645000D01*
X95299000Y-98615000D01*
X95310000Y-98585000D01*
X95322000Y-98556000D01*
X95335000Y-98528000D01*
X95350000Y-98500000D01*
X95367000Y-98473000D01*
X95385000Y-98447000D01*
X95404000Y-98422000D01*
X95424000Y-98399000D01*
X95446000Y-98376000D01*
X95469000Y-98354000D01*
X95492000Y-98334000D01*
X95517000Y-98315000D01*
X95543000Y-98297000D01*
X95570000Y-98280000D01*
X95598000Y-98265000D01*
X95626000Y-98252000D01*
X95655000Y-98240000D01*
X95685000Y-98229000D01*
X95715000Y-98220000D01*
X95745000Y-98213000D01*
X95776000Y-98207000D01*
X95807000Y-98203000D01*
X95839000Y-98201000D01*
X95870000Y-98200000D01*
X95901000Y-98201000D01*
G36*
X95901000Y-98201000D02*
G01*
X95933000Y-98203000D01*
X95964000Y-98207000D01*
X95995000Y-98213000D01*
X96025000Y-98220000D01*
X96055000Y-98229000D01*
X96085000Y-98240000D01*
X96114000Y-98252000D01*
X96142000Y-98265000D01*
X96170000Y-98280000D01*
X96197000Y-98297000D01*
X96223000Y-98315000D01*
X96248000Y-98334000D01*
X96271000Y-98354000D01*
X96294000Y-98376000D01*
X96316000Y-98399000D01*
X96336000Y-98422000D01*
X96355000Y-98447000D01*
X96373000Y-98473000D01*
X96390000Y-98500000D01*
X96405000Y-98528000D01*
X96418000Y-98556000D01*
X96430000Y-98585000D01*
X96441000Y-98615000D01*
X96450000Y-98645000D01*
X96457000Y-98675000D01*
X96463000Y-98706000D01*
X96467000Y-98737000D01*
X96469000Y-98769000D01*
X96470000Y-98800000D01*
X96470000Y-100000000D01*
X96469000Y-100031000D01*
X96467000Y-100063000D01*
X96463000Y-100094000D01*
X96457000Y-100125000D01*
X96450000Y-100155000D01*
X96441000Y-100185000D01*
X96430000Y-100215000D01*
X96418000Y-100244000D01*
X96405000Y-100272000D01*
X96390000Y-100300000D01*
X96373000Y-100327000D01*
X96355000Y-100353000D01*
X96336000Y-100378000D01*
X96316000Y-100401000D01*
X96294000Y-100424000D01*
X96271000Y-100446000D01*
X96248000Y-100466000D01*
X96223000Y-100485000D01*
X96197000Y-100503000D01*
X96170000Y-100520000D01*
X96142000Y-100535000D01*
X96114000Y-100548000D01*
X96085000Y-100560000D01*
X96055000Y-100571000D01*
X96025000Y-100580000D01*
X95995000Y-100587000D01*
X95964000Y-100593000D01*
X95933000Y-100597000D01*
X95901000Y-100599000D01*
X95870000Y-100600000D01*
X95839000Y-100599000D01*
X95807000Y-100597000D01*
X95776000Y-100593000D01*
X95745000Y-100587000D01*
X95715000Y-100580000D01*
X95685000Y-100571000D01*
X95655000Y-100560000D01*
X95626000Y-100548000D01*
X95598000Y-100535000D01*
X95570000Y-100520000D01*
X95543000Y-100503000D01*
X95517000Y-100485000D01*
X95492000Y-100466000D01*
X95469000Y-100446000D01*
X95446000Y-100424000D01*
X95424000Y-100401000D01*
X95404000Y-100378000D01*
X95385000Y-100353000D01*
X95367000Y-100327000D01*
X95350000Y-100300000D01*
X95335000Y-100272000D01*
X95322000Y-100244000D01*
X95310000Y-100215000D01*
X95299000Y-100185000D01*
X95290000Y-100155000D01*
X95283000Y-100125000D01*
X95277000Y-100094000D01*
X95273000Y-100063000D01*
X95271000Y-100031000D01*
X95270000Y-100000000D01*
X95270000Y-98800000D01*
X95271000Y-98769000D01*
X95273000Y-98737000D01*
X95277000Y-98706000D01*
X95283000Y-98675000D01*
X95290000Y-98645000D01*
X95299000Y-98615000D01*
X95310000Y-98585000D01*
X95322000Y-98556000D01*
X95335000Y-98528000D01*
X95350000Y-98500000D01*
X95367000Y-98473000D01*
X95385000Y-98447000D01*
X95404000Y-98422000D01*
X95424000Y-98399000D01*
X95446000Y-98376000D01*
X95469000Y-98354000D01*
X95492000Y-98334000D01*
X95517000Y-98315000D01*
X95543000Y-98297000D01*
X95570000Y-98280000D01*
X95598000Y-98265000D01*
X95626000Y-98252000D01*
X95655000Y-98240000D01*
X95685000Y-98229000D01*
X95715000Y-98220000D01*
X95745000Y-98213000D01*
X95776000Y-98207000D01*
X95807000Y-98203000D01*
X95839000Y-98201000D01*
X95870000Y-98200000D01*
X95901000Y-98201000D01*
G37*
%TD*%
D11*
%TO.C,S601*%
X69225000Y-54462500D03*
X69225000Y-58512500D03*
%TD*%
%TO.C,S605*%
X69225000Y-36362500D03*
X69225000Y-40412500D03*
%TD*%
%TO.C,S603*%
X69225000Y-48362500D03*
X69225000Y-52412500D03*
%TD*%
D12*
%TO.C,BT201*%
X99560000Y-85470000D03*
D13*
X98560000Y-85470000D03*
%TD*%
D11*
%TO.C,S602*%
X111350000Y-38355000D03*
X111350000Y-34305000D03*
%TD*%
D12*
%TO.C,TH201*%
X99560000Y-87770000D03*
D13*
X98560000Y-87770000D03*
%TD*%
D11*
%TO.C,S604*%
X69225000Y-42362500D03*
X69225000Y-46412500D03*
%TD*%
D14*
%TO.C,U3*%
X84045900Y-88980700D03*
X85145900Y-87880700D03*
X85145900Y-88980700D03*
X85145900Y-90080700D03*
X86245900Y-88980700D03*
%TD*%
D15*
%TO.C,R407*%
X104000000Y-74380000D03*
X104000000Y-75400000D03*
%TD*%
D16*
%TO.C,R406*%
X103096585Y-63582600D03*
X103096585Y-62562602D03*
%TD*%
D17*
%TO.C,C413*%
X106840000Y-61560000D03*
X106840000Y-60600000D03*
%TD*%
D18*
%TO.C,R509*%
X74403415Y-48147400D03*
X75423415Y-48147400D03*
%TD*%
D16*
%TO.C,R504*%
X85723415Y-53087400D03*
X85723415Y-52067400D03*
%TD*%
D19*
%TO.C,R508*%
X75393415Y-46897400D03*
X74373415Y-46897400D03*
%TD*%
D15*
%TO.C,R502*%
X85703415Y-54117400D03*
X85703415Y-55137400D03*
%TD*%
%TO.C,R505*%
X86703415Y-53637400D03*
X86703415Y-54657400D03*
%TD*%
D20*
%TO.C,C411*%
X102910000Y-60500000D03*
X102910000Y-61460000D03*
%TD*%
D21*
%TO.C,C319*%
X84778822Y-66521178D03*
X84100000Y-67200000D03*
%TD*%
%TO.C,C317*%
X80228822Y-67971178D03*
X79550000Y-68650000D03*
%TD*%
D20*
%TO.C,C412*%
X101623415Y-76417400D03*
X101623415Y-77377400D03*
%TD*%
%TO.C,C327*%
X77300000Y-70740000D03*
X77300000Y-71700000D03*
%TD*%
D22*
%TO.C,C416*%
X111333415Y-70777400D03*
X110373415Y-70777400D03*
%TD*%
D20*
%TO.C,C323*%
X85900000Y-64790000D03*
X85900000Y-65750000D03*
%TD*%
D15*
%TO.C,R414*%
X96298415Y-74367400D03*
X96298415Y-75387400D03*
%TD*%
D19*
%TO.C,R511*%
X78303415Y-42917400D03*
X77283415Y-42917400D03*
%TD*%
D16*
%TO.C,R424*%
X105946585Y-63582600D03*
X105946585Y-62562602D03*
%TD*%
%TO.C,R408*%
X101196585Y-63582600D03*
X101196585Y-62562602D03*
%TD*%
D20*
%TO.C,C339*%
X74850000Y-72340000D03*
X74850000Y-73300000D03*
%TD*%
D15*
%TO.C,R430*%
X107073415Y-74357400D03*
X107073415Y-75377400D03*
%TD*%
D23*
%TO.C,R403*%
X103219376Y-72310624D03*
X103940624Y-71589376D03*
%TD*%
D20*
%TO.C,C417*%
X96753415Y-76417400D03*
X96753415Y-77377400D03*
%TD*%
%TO.C,C334*%
X86250000Y-61940000D03*
X86250000Y-62900000D03*
%TD*%
D21*
%TO.C,C305*%
X83152944Y-66571178D03*
X82474122Y-67250000D03*
%TD*%
D17*
%TO.C,C502*%
X78503415Y-47677400D03*
X78503415Y-46717400D03*
%TD*%
D15*
%TO.C,R422*%
X101500000Y-74367400D03*
X101500000Y-75387400D03*
%TD*%
%TO.C,R501*%
X81033415Y-56927400D03*
X81033415Y-57947400D03*
%TD*%
D20*
%TO.C,C418*%
X98723415Y-76417400D03*
X98723415Y-77377400D03*
%TD*%
D15*
%TO.C,R418*%
X105920000Y-74370000D03*
X105920000Y-75390000D03*
%TD*%
D17*
%TO.C,C511*%
X77473415Y-48707400D03*
X77473415Y-47747400D03*
%TD*%
D22*
%TO.C,C510*%
X86013415Y-47917400D03*
X85053415Y-47917400D03*
%TD*%
D17*
%TO.C,C316*%
X84450000Y-74160000D03*
X84450000Y-73200000D03*
%TD*%
%TO.C,C335*%
X85650000Y-76100000D03*
X85650000Y-75140000D03*
%TD*%
D15*
%TO.C,R416*%
X104970000Y-74370000D03*
X104970000Y-75390000D03*
%TD*%
D17*
%TO.C,C506*%
X79583415Y-51687400D03*
X79583415Y-50727400D03*
%TD*%
D21*
%TO.C,C309*%
X78778822Y-66121178D03*
X78100000Y-66800000D03*
%TD*%
D24*
%TO.C,C336*%
X82300000Y-75650000D03*
X83260000Y-75650000D03*
%TD*%
D25*
%TO.C,C301*%
X78221178Y-69978822D03*
X78900000Y-69300000D03*
%TD*%
D15*
%TO.C,R410*%
X98273415Y-74367400D03*
X98273415Y-75387400D03*
%TD*%
D26*
%TO.C,J501*%
X109660000Y-41595000D03*
D27*
X98510000Y-41995000D03*
D28*
X97385000Y-43800000D03*
X97385000Y-51580000D03*
D26*
X98180000Y-55885000D03*
D29*
X109510000Y-55885000D03*
D30*
X110140000Y-51640000D03*
X110140000Y-50540000D03*
X110140000Y-49440000D03*
X110140000Y-48340000D03*
X110140000Y-47240000D03*
X110140000Y-46140000D03*
X110140000Y-45040000D03*
X110140000Y-43940000D03*
D31*
X107510000Y-41995000D03*
%TD*%
D16*
%TO.C,R503*%
X86673415Y-52517400D03*
X86673415Y-51497400D03*
%TD*%
D21*
%TO.C,C315*%
X83128822Y-68071178D03*
X82450000Y-68750000D03*
%TD*%
D22*
%TO.C,C329*%
X72650000Y-62350000D03*
X71690000Y-62350000D03*
%TD*%
D15*
%TO.C,R426*%
X100210000Y-74360000D03*
X100210000Y-75380000D03*
%TD*%
D17*
%TO.C,C414*%
X104870000Y-61560000D03*
X104870000Y-60600000D03*
%TD*%
D16*
%TO.C,R423*%
X104996585Y-63582600D03*
X104996585Y-62562602D03*
%TD*%
D20*
%TO.C,C324*%
X85900000Y-72200000D03*
X85900000Y-73160000D03*
%TD*%
%TO.C,C410*%
X100940000Y-60500000D03*
X100940000Y-61460000D03*
%TD*%
D16*
%TO.C,R419*%
X97346585Y-63582600D03*
X97346585Y-62562602D03*
%TD*%
D18*
%TO.C,R404*%
X99940001Y-73410000D03*
X100959999Y-73410000D03*
%TD*%
D24*
%TO.C,C338*%
X82340000Y-74700000D03*
X83300000Y-74700000D03*
%TD*%
%TO.C,C514*%
X77523415Y-55877400D03*
X78483415Y-55877400D03*
%TD*%
D17*
%TO.C,C503*%
X79523415Y-48667400D03*
X79523415Y-47707400D03*
%TD*%
D32*
%TO.C,D801*%
X87821800Y-92500000D03*
X86778200Y-92500000D03*
%TD*%
D22*
%TO.C,C330*%
X77210000Y-68550000D03*
X76250000Y-68550000D03*
%TD*%
D17*
%TO.C,C512*%
X83563415Y-48617400D03*
X83563415Y-47657400D03*
%TD*%
D20*
%TO.C,C322*%
X85900000Y-66640000D03*
X85900000Y-67600000D03*
%TD*%
D15*
%TO.C,R510*%
X74153415Y-57577400D03*
X74153415Y-58597400D03*
%TD*%
D19*
%TO.C,R507*%
X75393415Y-44907400D03*
X74373415Y-44907400D03*
%TD*%
D24*
%TO.C,C328*%
X76250000Y-69500000D03*
X77210000Y-69500000D03*
%TD*%
D16*
%TO.C,R409*%
X102146585Y-63582600D03*
X102146585Y-62562602D03*
%TD*%
D25*
%TO.C,C331*%
X83750000Y-65950000D03*
X84428822Y-65271178D03*
%TD*%
D20*
%TO.C,C505*%
X81443415Y-47727400D03*
X81443415Y-48687400D03*
%TD*%
D21*
%TO.C,C314*%
X83978822Y-64121178D03*
X83300000Y-64800000D03*
%TD*%
D15*
%TO.C,R412*%
X97288415Y-74377400D03*
X97288415Y-75397400D03*
%TD*%
D16*
%TO.C,R415*%
X99296585Y-63602598D03*
X99296585Y-62582600D03*
%TD*%
D22*
%TO.C,C303*%
X81510000Y-72966291D03*
X80550000Y-72966291D03*
%TD*%
D21*
%TO.C,C308*%
X84728822Y-68171178D03*
X84050000Y-68850000D03*
%TD*%
D20*
%TO.C,C507*%
X82533415Y-52717400D03*
X82533415Y-53677400D03*
%TD*%
%TO.C,C408*%
X105603415Y-76487400D03*
X105603415Y-77447400D03*
%TD*%
D17*
%TO.C,C509*%
X78523415Y-45767400D03*
X78523415Y-44807400D03*
%TD*%
D20*
%TO.C,C409*%
X98970000Y-60500000D03*
X98970000Y-61460000D03*
%TD*%
%TO.C,C415*%
X107423415Y-76517400D03*
X107423415Y-77477400D03*
%TD*%
D17*
%TO.C,C333*%
X74850000Y-71050000D03*
X74850000Y-70090000D03*
%TD*%
D16*
%TO.C,R421*%
X104046585Y-63582600D03*
X104046585Y-62562602D03*
%TD*%
D18*
%TO.C,R428*%
X109750000Y-68225000D03*
X110769998Y-68225000D03*
%TD*%
D21*
%TO.C,C312*%
X82428822Y-64121178D03*
X81750000Y-64800000D03*
%TD*%
D16*
%TO.C,R411*%
X100246585Y-63582600D03*
X100246585Y-62562602D03*
%TD*%
%TO.C,R425*%
X106896585Y-63582600D03*
X106896585Y-62562602D03*
%TD*%
D20*
%TO.C,C325*%
X85300000Y-62700000D03*
X85300000Y-63660000D03*
%TD*%
%TO.C,C326*%
X75850000Y-70740000D03*
X75850000Y-71700000D03*
%TD*%
D16*
%TO.C,R512*%
X75123415Y-58617400D03*
X75123415Y-57597400D03*
%TD*%
D25*
%TO.C,C313*%
X80950000Y-68850000D03*
X81628822Y-68171178D03*
%TD*%
D21*
%TO.C,C311*%
X80825121Y-65730042D03*
X80146299Y-66408864D03*
%TD*%
D20*
%TO.C,C320*%
X85900000Y-70340000D03*
X85900000Y-71300000D03*
%TD*%
D25*
%TO.C,C304*%
X77726057Y-72829106D03*
X78404879Y-72150284D03*
%TD*%
D15*
%TO.C,R417*%
X102453415Y-74367400D03*
X102453415Y-75387400D03*
%TD*%
D22*
%TO.C,C513*%
X83643415Y-55817400D03*
X82683415Y-55817400D03*
%TD*%
%TO.C,C302*%
X83350000Y-72966291D03*
X82390000Y-72966291D03*
%TD*%
D18*
%TO.C,R427*%
X109750000Y-67250000D03*
X110769998Y-67250000D03*
%TD*%
D20*
%TO.C,C407*%
X103633415Y-76487400D03*
X103633415Y-77447400D03*
%TD*%
%TO.C,C337*%
X83200000Y-62390000D03*
X83200000Y-63350000D03*
%TD*%
D21*
%TO.C,C307*%
X83940380Y-70650000D03*
X83261558Y-71328822D03*
%TD*%
D20*
%TO.C,C321*%
X85900000Y-68490000D03*
X85900000Y-69450000D03*
%TD*%
D18*
%TO.C,R429*%
X109750000Y-66275000D03*
X110769998Y-66275000D03*
%TD*%
D19*
%TO.C,R506*%
X75393415Y-42917400D03*
X74373415Y-42917400D03*
%TD*%
D33*
%TO.C,C306*%
X79450000Y-65500000D03*
X78771178Y-64821178D03*
%TD*%
D22*
%TO.C,C504*%
X78483415Y-52617400D03*
X77523415Y-52617400D03*
%TD*%
D15*
%TO.C,R420*%
X99223415Y-74367400D03*
X99223415Y-75387400D03*
%TD*%
D25*
%TO.C,C318*%
X80921708Y-70424759D03*
X81600530Y-69745937D03*
%TD*%
D21*
%TO.C,C310*%
X82428822Y-65721178D03*
X81750000Y-66400000D03*
%TD*%
D16*
%TO.C,R413*%
X98346585Y-63582600D03*
X98346585Y-62562602D03*
%TD*%
M02*
