%TF.GenerationSoftware,KiCad,Pcbnew,9.0.1*%
%TF.CreationDate,2025-07-01T18:44:36-06:00*%
%TF.ProjectId,MPU_MOD,4d50555f-4d4f-4442-9e6b-696361645f70,rev?*%
%TF.SameCoordinates,Original*%
%TF.FileFunction,Paste,Top*%
%TF.FilePolarity,Positive*%
%FSLAX46Y46*%
G04 Gerber Fmt 4.6, Leading zero omitted, Abs format (unit mm)*
G04 Created by KiCad (PCBNEW 9.0.1) date 2025-07-01 18:44:36*
%MOMM*%
%LPD*%
G01*
G04 APERTURE LIST*
G04 Aperture macros list*
%AMRoundRect*
0 Rectangle with rounded corners*
0 $1 Rounding radius*
0 $2 $3 $4 $5 $6 $7 $8 $9 X,Y pos of 4 corners*
0 Add a 4 corners polygon primitive as box body*
4,1,4,$2,$3,$4,$5,$6,$7,$8,$9,$2,$3,0*
0 Add four circle primitives for the rounded corners*
1,1,$1+$1,$2,$3*
1,1,$1+$1,$4,$5*
1,1,$1+$1,$6,$7*
1,1,$1+$1,$8,$9*
0 Add four rect primitives between the rounded corners*
20,1,$1+$1,$2,$3,$4,$5,0*
20,1,$1+$1,$4,$5,$6,$7,0*
20,1,$1+$1,$6,$7,$8,$9,0*
20,1,$1+$1,$8,$9,$2,$3,0*%
G04 Aperture macros list end*
%ADD10C,0.010000*%
%ADD11C,0.000000*%
%ADD12RoundRect,0.140000X0.140000X0.170000X-0.140000X0.170000X-0.140000X-0.170000X0.140000X-0.170000X0*%
%ADD13R,1.250000X1.000000*%
%ADD14C,0.320002*%
%ADD15RoundRect,0.140000X0.170000X-0.140000X0.170000X0.140000X-0.170000X0.140000X-0.170000X-0.140000X0*%
%ADD16RoundRect,0.135000X0.135000X0.185000X-0.135000X0.185000X-0.135000X-0.185000X0.135000X-0.185000X0*%
%ADD17R,1.050000X1.650000*%
%ADD18RoundRect,0.225000X0.225000X0.250000X-0.225000X0.250000X-0.225000X-0.250000X0.225000X-0.250000X0*%
%ADD19RoundRect,0.225000X-0.250000X0.225000X-0.250000X-0.225000X0.250000X-0.225000X0.250000X0.225000X0*%
%ADD20R,0.600000X1.100000*%
%ADD21R,0.300000X1.100000*%
%ADD22RoundRect,0.140000X-0.170000X0.140000X-0.170000X-0.140000X0.170000X-0.140000X0.170000X0.140000X0*%
%ADD23RoundRect,0.147500X-0.172500X0.147500X-0.172500X-0.147500X0.172500X-0.147500X0.172500X0.147500X0*%
%ADD24RoundRect,0.135000X-0.135000X-0.185000X0.135000X-0.185000X0.135000X0.185000X-0.135000X0.185000X0*%
%ADD25RoundRect,0.140000X-0.140000X-0.170000X0.140000X-0.170000X0.140000X0.170000X-0.140000X0.170000X0*%
%ADD26RoundRect,0.135000X-0.185000X0.135000X-0.185000X-0.135000X0.185000X-0.135000X0.185000X0.135000X0*%
%ADD27RoundRect,0.125000X-0.125000X-0.125000X0.125000X-0.125000X0.125000X0.125000X-0.125000X0.125000X0*%
%ADD28RoundRect,0.250000X0.850000X-0.375000X0.850000X0.375000X-0.850000X0.375000X-0.850000X-0.375000X0*%
%ADD29R,1.750000X2.000000*%
%ADD30RoundRect,0.028750X0.086250X-0.391250X0.086250X0.391250X-0.086250X0.391250X-0.086250X-0.391250X0*%
%ADD31RoundRect,0.028750X0.391250X-0.086250X0.391250X0.086250X-0.391250X0.086250X-0.391250X-0.086250X0*%
%ADD32R,0.604800X0.178600*%
%ADD33R,0.178600X0.604800*%
%ADD34R,1.447800X1.447800*%
%ADD35RoundRect,0.250000X-0.850000X0.375000X-0.850000X-0.375000X0.850000X-0.375000X0.850000X0.375000X0*%
%ADD36RoundRect,0.225000X-0.225000X-0.250000X0.225000X-0.250000X0.225000X0.250000X-0.225000X0.250000X0*%
%ADD37R,1.000000X1.000000*%
%ADD38R,2.200000X1.050000*%
%ADD39RoundRect,0.225000X0.250000X-0.225000X0.250000X0.225000X-0.250000X0.225000X-0.250000X-0.225000X0*%
%ADD40RoundRect,0.250000X0.375000X0.850000X-0.375000X0.850000X-0.375000X-0.850000X0.375000X-0.850000X0*%
%ADD41R,0.600000X1.850000*%
%ADD42R,0.600000X1.650000*%
%ADD43RoundRect,0.135000X0.185000X-0.135000X0.185000X0.135000X-0.185000X0.135000X-0.185000X-0.135000X0*%
%ADD44R,1.400000X1.400000*%
%ADD45RoundRect,0.125000X-0.125000X0.125000X-0.125000X-0.125000X0.125000X-0.125000X0.125000X0.125000X0*%
%ADD46RoundRect,0.250000X-0.375000X-0.850000X0.375000X-0.850000X0.375000X0.850000X-0.375000X0.850000X0*%
%ADD47RoundRect,0.137500X0.137500X0.662500X-0.137500X0.662500X-0.137500X-0.662500X0.137500X-0.662500X0*%
%ADD48R,0.450000X0.300000*%
%ADD49R,0.300000X0.450000*%
%ADD50RoundRect,0.218750X0.256250X-0.218750X0.256250X0.218750X-0.256250X0.218750X-0.256250X-0.218750X0*%
%ADD51RoundRect,0.200000X-0.200000X-0.250000X0.200000X-0.250000X0.200000X0.250000X-0.200000X0.250000X0*%
%ADD52RoundRect,0.147500X0.172500X-0.147500X0.172500X0.147500X-0.172500X0.147500X-0.172500X-0.147500X0*%
%ADD53C,0.420000*%
%ADD54RoundRect,0.200000X0.275000X-0.200000X0.275000X0.200000X-0.275000X0.200000X-0.275000X-0.200000X0*%
%ADD55RoundRect,0.009100X-0.120900X0.570900X-0.120900X-0.570900X0.120900X-0.570900X0.120900X0.570900X0*%
%ADD56RoundRect,0.009100X-0.120900X0.495900X-0.120900X-0.495900X0.120900X-0.495900X0.120900X0.495900X0*%
%ADD57O,0.599999X0.240000*%
%ADD58O,0.240000X0.599999*%
%ADD59C,0.355600*%
G04 APERTURE END LIST*
D10*
%TO.C,U203*%
X74250000Y-92560000D02*
X72720000Y-92560000D01*
X72720000Y-91530000D01*
X74250000Y-91530000D01*
X74250000Y-92560000D01*
G36*
X74250000Y-92560000D02*
G01*
X72720000Y-92560000D01*
X72720000Y-91530000D01*
X74250000Y-91530000D01*
X74250000Y-92560000D01*
G37*
X74250000Y-94070000D02*
X72720000Y-94070000D01*
X72720000Y-93040000D01*
X74250000Y-93040000D01*
X74250000Y-94070000D01*
G36*
X74250000Y-94070000D02*
G01*
X72720000Y-94070000D01*
X72720000Y-93040000D01*
X74250000Y-93040000D01*
X74250000Y-94070000D01*
G37*
X76260000Y-92560000D02*
X74730000Y-92560000D01*
X74730000Y-91530000D01*
X76260000Y-91530000D01*
X76260000Y-92560000D01*
G36*
X76260000Y-92560000D02*
G01*
X74730000Y-92560000D01*
X74730000Y-91530000D01*
X76260000Y-91530000D01*
X76260000Y-92560000D01*
G37*
X76260000Y-94070000D02*
X74730000Y-94070000D01*
X74730000Y-93040000D01*
X76260000Y-93040000D01*
X76260000Y-94070000D01*
G36*
X76260000Y-94070000D02*
G01*
X74730000Y-94070000D01*
X74730000Y-93040000D01*
X76260000Y-93040000D01*
X76260000Y-94070000D01*
G37*
%TO.C,U502*%
X110380000Y-46618900D02*
X109820000Y-46618900D01*
X109820000Y-46432900D01*
X110380000Y-46432900D01*
X110380000Y-46618900D01*
G36*
X110380000Y-46618900D02*
G01*
X109820000Y-46618900D01*
X109820000Y-46432900D01*
X110380000Y-46432900D01*
X110380000Y-46618900D01*
G37*
X110380000Y-47118900D02*
X109820000Y-47118900D01*
X109820000Y-46932900D01*
X110380000Y-46932900D01*
X110380000Y-47118900D01*
G36*
X110380000Y-47118900D02*
G01*
X109820000Y-47118900D01*
X109820000Y-46932900D01*
X110380000Y-46932900D01*
X110380000Y-47118900D01*
G37*
X110380000Y-47712900D02*
X109820000Y-47712900D01*
X109820000Y-47338900D01*
X110380000Y-47338900D01*
X110380000Y-47712900D01*
G36*
X110380000Y-47712900D02*
G01*
X109820000Y-47712900D01*
X109820000Y-47338900D01*
X110380000Y-47338900D01*
X110380000Y-47712900D01*
G37*
X110380000Y-48118900D02*
X109820000Y-48118900D01*
X109820000Y-47932900D01*
X110380000Y-47932900D01*
X110380000Y-48118900D01*
G36*
X110380000Y-48118900D02*
G01*
X109820000Y-48118900D01*
X109820000Y-47932900D01*
X110380000Y-47932900D01*
X110380000Y-48118900D01*
G37*
X110380000Y-48618900D02*
X109820000Y-48618900D01*
X109820000Y-48432900D01*
X110380000Y-48432900D01*
X110380000Y-48618900D01*
G36*
X110380000Y-48618900D02*
G01*
X109820000Y-48618900D01*
X109820000Y-48432900D01*
X110380000Y-48432900D01*
X110380000Y-48618900D01*
G37*
X111200000Y-46618900D02*
X110640000Y-46618900D01*
X110640000Y-46432900D01*
X111200000Y-46432900D01*
X111200000Y-46618900D01*
G36*
X111200000Y-46618900D02*
G01*
X110640000Y-46618900D01*
X110640000Y-46432900D01*
X111200000Y-46432900D01*
X111200000Y-46618900D01*
G37*
X111200000Y-47118900D02*
X110640000Y-47118900D01*
X110640000Y-46932900D01*
X111200000Y-46932900D01*
X111200000Y-47118900D01*
G36*
X111200000Y-47118900D02*
G01*
X110640000Y-47118900D01*
X110640000Y-46932900D01*
X111200000Y-46932900D01*
X111200000Y-47118900D01*
G37*
X111200000Y-47712900D02*
X110640000Y-47712900D01*
X110640000Y-47338900D01*
X111200000Y-47338900D01*
X111200000Y-47712900D01*
G36*
X111200000Y-47712900D02*
G01*
X110640000Y-47712900D01*
X110640000Y-47338900D01*
X111200000Y-47338900D01*
X111200000Y-47712900D01*
G37*
X111200000Y-48118900D02*
X110640000Y-48118900D01*
X110640000Y-47932900D01*
X111200000Y-47932900D01*
X111200000Y-48118900D01*
G36*
X111200000Y-48118900D02*
G01*
X110640000Y-48118900D01*
X110640000Y-47932900D01*
X111200000Y-47932900D01*
X111200000Y-48118900D01*
G37*
X111200000Y-48618900D02*
X110640000Y-48618900D01*
X110640000Y-48432900D01*
X111200000Y-48432900D01*
X111200000Y-48618900D01*
G36*
X111200000Y-48618900D02*
G01*
X110640000Y-48618900D01*
X110640000Y-48432900D01*
X111200000Y-48432900D01*
X111200000Y-48618900D01*
G37*
%TO.C,U503*%
X110563415Y-50018900D02*
X110003415Y-50018900D01*
X110003415Y-49832900D01*
X110563415Y-49832900D01*
X110563415Y-50018900D01*
G36*
X110563415Y-50018900D02*
G01*
X110003415Y-50018900D01*
X110003415Y-49832900D01*
X110563415Y-49832900D01*
X110563415Y-50018900D01*
G37*
X110563415Y-50518900D02*
X110003415Y-50518900D01*
X110003415Y-50332900D01*
X110563415Y-50332900D01*
X110563415Y-50518900D01*
G36*
X110563415Y-50518900D02*
G01*
X110003415Y-50518900D01*
X110003415Y-50332900D01*
X110563415Y-50332900D01*
X110563415Y-50518900D01*
G37*
X110563415Y-51112900D02*
X110003415Y-51112900D01*
X110003415Y-50738900D01*
X110563415Y-50738900D01*
X110563415Y-51112900D01*
G36*
X110563415Y-51112900D02*
G01*
X110003415Y-51112900D01*
X110003415Y-50738900D01*
X110563415Y-50738900D01*
X110563415Y-51112900D01*
G37*
X110563415Y-51518900D02*
X110003415Y-51518900D01*
X110003415Y-51332900D01*
X110563415Y-51332900D01*
X110563415Y-51518900D01*
G36*
X110563415Y-51518900D02*
G01*
X110003415Y-51518900D01*
X110003415Y-51332900D01*
X110563415Y-51332900D01*
X110563415Y-51518900D01*
G37*
X110563415Y-52018900D02*
X110003415Y-52018900D01*
X110003415Y-51832900D01*
X110563415Y-51832900D01*
X110563415Y-52018900D01*
G36*
X110563415Y-52018900D02*
G01*
X110003415Y-52018900D01*
X110003415Y-51832900D01*
X110563415Y-51832900D01*
X110563415Y-52018900D01*
G37*
X111383415Y-50018900D02*
X110823415Y-50018900D01*
X110823415Y-49832900D01*
X111383415Y-49832900D01*
X111383415Y-50018900D01*
G36*
X111383415Y-50018900D02*
G01*
X110823415Y-50018900D01*
X110823415Y-49832900D01*
X111383415Y-49832900D01*
X111383415Y-50018900D01*
G37*
X111383415Y-50518900D02*
X110823415Y-50518900D01*
X110823415Y-50332900D01*
X111383415Y-50332900D01*
X111383415Y-50518900D01*
G36*
X111383415Y-50518900D02*
G01*
X110823415Y-50518900D01*
X110823415Y-50332900D01*
X111383415Y-50332900D01*
X111383415Y-50518900D01*
G37*
X111383415Y-51112900D02*
X110823415Y-51112900D01*
X110823415Y-50738900D01*
X111383415Y-50738900D01*
X111383415Y-51112900D01*
G36*
X111383415Y-51112900D02*
G01*
X110823415Y-51112900D01*
X110823415Y-50738900D01*
X111383415Y-50738900D01*
X111383415Y-51112900D01*
G37*
X111383415Y-51518900D02*
X110823415Y-51518900D01*
X110823415Y-51332900D01*
X111383415Y-51332900D01*
X111383415Y-51518900D01*
G36*
X111383415Y-51518900D02*
G01*
X110823415Y-51518900D01*
X110823415Y-51332900D01*
X111383415Y-51332900D01*
X111383415Y-51518900D01*
G37*
X111383415Y-52018900D02*
X110823415Y-52018900D01*
X110823415Y-51832900D01*
X111383415Y-51832900D01*
X111383415Y-52018900D01*
G36*
X111383415Y-52018900D02*
G01*
X110823415Y-52018900D01*
X110823415Y-51832900D01*
X111383415Y-51832900D01*
X111383415Y-52018900D01*
G37*
%TO.C,U802*%
X90093000Y-92247500D02*
X89907000Y-92247500D01*
X89907000Y-91687500D01*
X90093000Y-91687500D01*
X90093000Y-92247500D01*
G36*
X90093000Y-92247500D02*
G01*
X89907000Y-92247500D01*
X89907000Y-91687500D01*
X90093000Y-91687500D01*
X90093000Y-92247500D01*
G37*
X90093000Y-93067500D02*
X89907000Y-93067500D01*
X89907000Y-92507500D01*
X90093000Y-92507500D01*
X90093000Y-93067500D01*
G36*
X90093000Y-93067500D02*
G01*
X89907000Y-93067500D01*
X89907000Y-92507500D01*
X90093000Y-92507500D01*
X90093000Y-93067500D01*
G37*
X90593000Y-92247500D02*
X90407000Y-92247500D01*
X90407000Y-91687500D01*
X90593000Y-91687500D01*
X90593000Y-92247500D01*
G36*
X90593000Y-92247500D02*
G01*
X90407000Y-92247500D01*
X90407000Y-91687500D01*
X90593000Y-91687500D01*
X90593000Y-92247500D01*
G37*
X90593000Y-93067500D02*
X90407000Y-93067500D01*
X90407000Y-92507500D01*
X90593000Y-92507500D01*
X90593000Y-93067500D01*
G36*
X90593000Y-93067500D02*
G01*
X90407000Y-93067500D01*
X90407000Y-92507500D01*
X90593000Y-92507500D01*
X90593000Y-93067500D01*
G37*
X91187000Y-92247500D02*
X90813000Y-92247500D01*
X90813000Y-91687500D01*
X91187000Y-91687500D01*
X91187000Y-92247500D01*
G36*
X91187000Y-92247500D02*
G01*
X90813000Y-92247500D01*
X90813000Y-91687500D01*
X91187000Y-91687500D01*
X91187000Y-92247500D01*
G37*
X91187000Y-93067500D02*
X90813000Y-93067500D01*
X90813000Y-92507500D01*
X91187000Y-92507500D01*
X91187000Y-93067500D01*
G36*
X91187000Y-93067500D02*
G01*
X90813000Y-93067500D01*
X90813000Y-92507500D01*
X91187000Y-92507500D01*
X91187000Y-93067500D01*
G37*
X91593000Y-92247500D02*
X91407000Y-92247500D01*
X91407000Y-91687500D01*
X91593000Y-91687500D01*
X91593000Y-92247500D01*
G36*
X91593000Y-92247500D02*
G01*
X91407000Y-92247500D01*
X91407000Y-91687500D01*
X91593000Y-91687500D01*
X91593000Y-92247500D01*
G37*
X91593000Y-93067500D02*
X91407000Y-93067500D01*
X91407000Y-92507500D01*
X91593000Y-92507500D01*
X91593000Y-93067500D01*
G36*
X91593000Y-93067500D02*
G01*
X91407000Y-93067500D01*
X91407000Y-92507500D01*
X91593000Y-92507500D01*
X91593000Y-93067500D01*
G37*
X92093000Y-92247500D02*
X91907000Y-92247500D01*
X91907000Y-91687500D01*
X92093000Y-91687500D01*
X92093000Y-92247500D01*
G36*
X92093000Y-92247500D02*
G01*
X91907000Y-92247500D01*
X91907000Y-91687500D01*
X92093000Y-91687500D01*
X92093000Y-92247500D01*
G37*
X92093000Y-93067500D02*
X91907000Y-93067500D01*
X91907000Y-92507500D01*
X92093000Y-92507500D01*
X92093000Y-93067500D01*
G36*
X92093000Y-93067500D02*
G01*
X91907000Y-93067500D01*
X91907000Y-92507500D01*
X92093000Y-92507500D01*
X92093000Y-93067500D01*
G37*
D11*
%TO.C,U3*%
G36*
X85045903Y-88880700D02*
G01*
X83857902Y-88880700D01*
X83857902Y-87692699D01*
X85045903Y-87692699D01*
X85045903Y-88880700D01*
G37*
G36*
X85045903Y-90268698D02*
G01*
X83857902Y-90268698D01*
X83857902Y-89080697D01*
X85045903Y-89080697D01*
X85045903Y-90268698D01*
G37*
G36*
X86433901Y-88880700D02*
G01*
X85245900Y-88880700D01*
X85245900Y-87692699D01*
X86433901Y-87692699D01*
X86433901Y-88880700D01*
G37*
G36*
X86433901Y-90268698D02*
G01*
X85245900Y-90268698D01*
X85245900Y-89080697D01*
X86433901Y-89080697D01*
X86433901Y-90268698D01*
G37*
%TD*%
D12*
%TO.C,C216*%
X80205000Y-88900000D03*
X79245000Y-88900000D03*
%TD*%
D13*
%TO.C,Y601*%
X71800000Y-63500000D03*
X71800000Y-65000000D03*
%TD*%
D14*
%TO.C,U301*%
X74473415Y-61677400D03*
X75273415Y-61677400D03*
X76073415Y-61677400D03*
X76873415Y-61677400D03*
X77673415Y-61677400D03*
X78473415Y-61677400D03*
X79273415Y-61677400D03*
X80073415Y-61677400D03*
X80873415Y-61677400D03*
X81673415Y-61677400D03*
X82473415Y-61677400D03*
X83273415Y-61677400D03*
X84073415Y-61677400D03*
X84873415Y-61677400D03*
X85673415Y-61677400D03*
X86473415Y-61677400D03*
X87273415Y-61677400D03*
X88073415Y-61677400D03*
X88873415Y-61677400D03*
X74473415Y-62477400D03*
X75273415Y-62477400D03*
X76073415Y-62477400D03*
X76873415Y-62477400D03*
X77673415Y-62477400D03*
X78473415Y-62477400D03*
X79273415Y-62477400D03*
X80073415Y-62477400D03*
X80873415Y-62477400D03*
X81673415Y-62477400D03*
X82473415Y-62477400D03*
X83273415Y-62477400D03*
X84073415Y-62477400D03*
X84873415Y-62477400D03*
X85673415Y-62477400D03*
X86473415Y-62477400D03*
X87273415Y-62477400D03*
X88073415Y-62477400D03*
X88873415Y-62477400D03*
X74473415Y-63277400D03*
X75273415Y-63277400D03*
X76073415Y-63277400D03*
X76873415Y-63277400D03*
X77673415Y-63277400D03*
X78473415Y-63277400D03*
X79273415Y-63277400D03*
X80073415Y-63277400D03*
X80873415Y-63277400D03*
X81673415Y-63277400D03*
X82473415Y-63277400D03*
X83273415Y-63277400D03*
X84073415Y-63277400D03*
X84873415Y-63277400D03*
X85673415Y-63277400D03*
X86473415Y-63277400D03*
X87273415Y-63277400D03*
X88073415Y-63277400D03*
X88873415Y-63277400D03*
X74473415Y-64077400D03*
X75273415Y-64077400D03*
X76073415Y-64077400D03*
X76873415Y-64077400D03*
X77673415Y-64077400D03*
X78473415Y-64077400D03*
X79273415Y-64077400D03*
X80073415Y-64077400D03*
X80873415Y-64077400D03*
X81673415Y-64077400D03*
X82473415Y-64077400D03*
X83273415Y-64077400D03*
X84073415Y-64077400D03*
X84873415Y-64077400D03*
X85673415Y-64077400D03*
X86473415Y-64077400D03*
X87273415Y-64077400D03*
X88073415Y-64077400D03*
X88873415Y-64077400D03*
X74473415Y-64877400D03*
X75273415Y-64877400D03*
X76073415Y-64877400D03*
X76873415Y-64877400D03*
X77673415Y-64877400D03*
X78473415Y-64877400D03*
X79273415Y-64877400D03*
X80073415Y-64877400D03*
X80873415Y-64877400D03*
X81673415Y-64877400D03*
X82473415Y-64877400D03*
X83273415Y-64877400D03*
X84073415Y-64877400D03*
X84873415Y-64877400D03*
X85673415Y-64877400D03*
X86473415Y-64877400D03*
X87273415Y-64877400D03*
X88073415Y-64877400D03*
X74473415Y-65677400D03*
X75273415Y-65677400D03*
X76073415Y-65677400D03*
X76873415Y-65677400D03*
X77673415Y-65677400D03*
X78473415Y-65677400D03*
X79273415Y-65677400D03*
X80073415Y-65677400D03*
X80873415Y-65677400D03*
X81673415Y-65677400D03*
X82473415Y-65677400D03*
X83273415Y-65677400D03*
X84073415Y-65677400D03*
X84873415Y-65677400D03*
X85673415Y-65677400D03*
X87273415Y-65677400D03*
X88073415Y-65677400D03*
X88873415Y-65677400D03*
X74473415Y-66477400D03*
X75273415Y-66477400D03*
X76073415Y-66477400D03*
X76873415Y-66477400D03*
X77673415Y-66477400D03*
X78473415Y-66477400D03*
X79273415Y-66477400D03*
X80073415Y-66477400D03*
X80873415Y-66477400D03*
X81673415Y-66477400D03*
X82473415Y-66477400D03*
X83273415Y-66477400D03*
X84073415Y-66477400D03*
X84873415Y-66477400D03*
X85673415Y-66477400D03*
X86473415Y-66477400D03*
X87273415Y-66477400D03*
X88073415Y-66477400D03*
X88873415Y-66477400D03*
X74473415Y-67277400D03*
X75273415Y-67277400D03*
X76073415Y-67277400D03*
X76873415Y-67277400D03*
X77673415Y-67277400D03*
X78473415Y-67277400D03*
X79273415Y-67277400D03*
X80073415Y-67277400D03*
X80873415Y-67277400D03*
X81673415Y-67277400D03*
X82473415Y-67277400D03*
X83273415Y-67277400D03*
X84073415Y-67277400D03*
X84873415Y-67277400D03*
X85673415Y-67277400D03*
X87273415Y-67277400D03*
X88073415Y-67277400D03*
X88873415Y-67277400D03*
X74473415Y-68077400D03*
X75273415Y-68077400D03*
X76073415Y-68077400D03*
X76873415Y-68077400D03*
X77673415Y-68077400D03*
X78473415Y-68077400D03*
X79273415Y-68077400D03*
X80073415Y-68077400D03*
X80873415Y-68077400D03*
X81673415Y-68077400D03*
X82473415Y-68077400D03*
X83273415Y-68077400D03*
X84073415Y-68077400D03*
X84873415Y-68077400D03*
X85673415Y-68077400D03*
X86473415Y-68077400D03*
X87273415Y-68077400D03*
X88073415Y-68077400D03*
X88873415Y-68077400D03*
X74473415Y-68877400D03*
X75273415Y-68877400D03*
X76073415Y-68877400D03*
X76873415Y-68877400D03*
X77673415Y-68877400D03*
X78473415Y-68877400D03*
X79273415Y-68877400D03*
X80073415Y-68877400D03*
X80873415Y-68877400D03*
X81673415Y-68877400D03*
X82473415Y-68877400D03*
X83273415Y-68877400D03*
X84073415Y-68877400D03*
X84873415Y-68877400D03*
X85673415Y-68877400D03*
X87273415Y-68877400D03*
X88073415Y-68877400D03*
X88873415Y-68877400D03*
X74473415Y-69677400D03*
X75273415Y-69677400D03*
X76073415Y-69677400D03*
X76873415Y-69677400D03*
X77673415Y-69677400D03*
X78473415Y-69677400D03*
X79273415Y-69677400D03*
X80073415Y-69677400D03*
X80873415Y-69677400D03*
X81673415Y-69677400D03*
X82473415Y-69677400D03*
X83273415Y-69677400D03*
X84073415Y-69677400D03*
X84873415Y-69677400D03*
X85673415Y-69677400D03*
X86473415Y-69677400D03*
X87273415Y-69677400D03*
X88073415Y-69677400D03*
X88873415Y-69677400D03*
X74473415Y-70477400D03*
X75273415Y-70477400D03*
X76073415Y-70477400D03*
X76873415Y-70477400D03*
X77673415Y-70477400D03*
X78473415Y-70477400D03*
X79273415Y-70477400D03*
X80073415Y-70477400D03*
X80873415Y-70477400D03*
X81673415Y-70477400D03*
X82473415Y-70477400D03*
X83273415Y-70477400D03*
X84073415Y-70477400D03*
X84873415Y-70477400D03*
X85673415Y-70477400D03*
X87273415Y-70477400D03*
X88073415Y-70477400D03*
X88873415Y-70477400D03*
X74473415Y-71277400D03*
X75273415Y-71277400D03*
X76073415Y-71277400D03*
X76873415Y-71277400D03*
X77673415Y-71277400D03*
X78473415Y-71277400D03*
X79273415Y-71277400D03*
X80073415Y-71277400D03*
X80873415Y-71277400D03*
X81673415Y-71277400D03*
X82473415Y-71277400D03*
X83273415Y-71277400D03*
X84073415Y-71277400D03*
X84873415Y-71277400D03*
X85673415Y-71277400D03*
X86473415Y-71277400D03*
X87273415Y-71277400D03*
X88073415Y-71277400D03*
X88873415Y-71277400D03*
X74473415Y-72077400D03*
X75273415Y-72077400D03*
X76073415Y-72077400D03*
X76873415Y-72077400D03*
X77673415Y-72077400D03*
X78473415Y-72077400D03*
X79273415Y-72077400D03*
X80073415Y-72077400D03*
X80873415Y-72077400D03*
X81673415Y-72077400D03*
X82473415Y-72077400D03*
X83273415Y-72077400D03*
X84073415Y-72077400D03*
X84873415Y-72077400D03*
X85673415Y-72077400D03*
X87273415Y-72077400D03*
X88073415Y-72077400D03*
X88873415Y-72077400D03*
X74473415Y-72877400D03*
X75273415Y-72877400D03*
X76073415Y-72877400D03*
X76873415Y-72877400D03*
X77673415Y-72877400D03*
X78473415Y-72877400D03*
X79273415Y-72877400D03*
X80073415Y-72877400D03*
X80873415Y-72877400D03*
X81673415Y-72877400D03*
X82473415Y-72877400D03*
X83273415Y-72877400D03*
X84073415Y-72877400D03*
X84873415Y-72877400D03*
X85673415Y-72877400D03*
X86473415Y-72877400D03*
X87273415Y-72877400D03*
X88073415Y-72877400D03*
X74473415Y-73677400D03*
X75273415Y-73677400D03*
X76073415Y-73677400D03*
X76873415Y-73677400D03*
X77673415Y-73677400D03*
X78473415Y-73677400D03*
X79273415Y-73677400D03*
X80073415Y-73677400D03*
X80873415Y-73677400D03*
X81673415Y-73677400D03*
X82473415Y-73677400D03*
X83273415Y-73677400D03*
X84073415Y-73677400D03*
X84873415Y-73677400D03*
X85673415Y-73677400D03*
X86473415Y-73677400D03*
X87273415Y-73677400D03*
X88073415Y-73677400D03*
X88873415Y-73677400D03*
X74473415Y-74477400D03*
X75273415Y-74477400D03*
X76073415Y-74477400D03*
X76873415Y-74477400D03*
X77673415Y-74477400D03*
X78473415Y-74477400D03*
X79273415Y-74477400D03*
X80073415Y-74477400D03*
X80873415Y-74477400D03*
X81673415Y-74477400D03*
X82473415Y-74477400D03*
X83273415Y-74477400D03*
X84073415Y-74477400D03*
X84873415Y-74477400D03*
X85673415Y-74477400D03*
X86473415Y-74477400D03*
X87273415Y-74477400D03*
X88073415Y-74477400D03*
X88873415Y-74477400D03*
X74473415Y-75277400D03*
X75273415Y-75277400D03*
X76073415Y-75277400D03*
X76873415Y-75277400D03*
X77673415Y-75277400D03*
X78473415Y-75277400D03*
X79273415Y-75277400D03*
X80073415Y-75277400D03*
X80873415Y-75277400D03*
X81673415Y-75277400D03*
X82473415Y-75277400D03*
X83273415Y-75277400D03*
X84073415Y-75277400D03*
X84873415Y-75277400D03*
X85673415Y-75277400D03*
X86473415Y-75277400D03*
X87273415Y-75277400D03*
X88073415Y-75277400D03*
X88873415Y-75277400D03*
X74473415Y-76077400D03*
X75273415Y-76077400D03*
X76073415Y-76077400D03*
X76873415Y-76077400D03*
X77673415Y-76077400D03*
X78473415Y-76077400D03*
X79273415Y-76077400D03*
X80073415Y-76077400D03*
X80873415Y-76077400D03*
X81673415Y-76077400D03*
X82473415Y-76077400D03*
X83273415Y-76077400D03*
X84073415Y-76077400D03*
X84873415Y-76077400D03*
X85673415Y-76077400D03*
X86473415Y-76077400D03*
X87273415Y-76077400D03*
X88073415Y-76077400D03*
X88873415Y-76077400D03*
%TD*%
D15*
%TO.C,C901*%
X98617500Y-55885000D03*
X98617500Y-54925000D03*
%TD*%
D16*
%TO.C,R215*%
X70310000Y-95325000D03*
X69290000Y-95325000D03*
%TD*%
D17*
%TO.C,S601*%
X70750000Y-54562500D03*
X70750000Y-58412500D03*
X69300000Y-54562500D03*
X69300000Y-58412500D03*
%TD*%
D18*
%TO.C,C228*%
X80450000Y-99750000D03*
X78900000Y-99750000D03*
%TD*%
%TO.C,C227*%
X72700000Y-100000000D03*
X71150000Y-100000000D03*
%TD*%
D19*
%TO.C,C213*%
X73700000Y-87025000D03*
X73700000Y-88575000D03*
%TD*%
D20*
%TO.C,J3*%
X87050000Y-94250000D03*
X87850000Y-94250000D03*
D21*
X89000000Y-94250000D03*
X90000000Y-94250000D03*
X90500000Y-94250000D03*
X91500000Y-94250000D03*
D20*
X93450000Y-94250000D03*
X92650000Y-94250000D03*
D21*
X92000000Y-94250000D03*
X91000000Y-94250000D03*
X89500000Y-94250000D03*
X88500000Y-94250000D03*
%TD*%
D22*
%TO.C,C235*%
X84795900Y-85080700D03*
X84795900Y-86040700D03*
%TD*%
D23*
%TO.C,D1*%
X69300000Y-76700000D03*
X69300000Y-77670000D03*
%TD*%
D19*
%TO.C,C233*%
X90030900Y-87373200D03*
X90030900Y-88923200D03*
%TD*%
D18*
%TO.C,C215*%
X81025000Y-96100000D03*
X79475000Y-96100000D03*
%TD*%
D12*
%TO.C,C430*%
X108253415Y-74377400D03*
X107293415Y-74377400D03*
%TD*%
D24*
%TO.C,R711*%
X69300000Y-66300000D03*
X70320000Y-66300000D03*
%TD*%
D25*
%TO.C,C226*%
X69310000Y-93272500D03*
X70270000Y-93272500D03*
%TD*%
D12*
%TO.C,C219*%
X80205000Y-93400000D03*
X79245000Y-93400000D03*
%TD*%
D25*
%TO.C,C703*%
X69340000Y-67300000D03*
X70300000Y-67300000D03*
%TD*%
%TO.C,C704*%
X71240000Y-66300000D03*
X72200000Y-66300000D03*
%TD*%
D26*
%TO.C,R402*%
X102073415Y-74367400D03*
X102073415Y-75387400D03*
%TD*%
D25*
%TO.C,C423*%
X108440000Y-63550000D03*
X109400000Y-63550000D03*
%TD*%
D12*
%TO.C,C224*%
X80205000Y-90700000D03*
X79245000Y-90700000D03*
%TD*%
D27*
%TO.C,TP802*%
X84300000Y-101587500D03*
%TD*%
D25*
%TO.C,C424*%
X98393415Y-74377400D03*
X99353415Y-74377400D03*
%TD*%
D24*
%TO.C,R518*%
X107800000Y-51970000D03*
X108820000Y-51970000D03*
%TD*%
D22*
%TO.C,C204*%
X104160000Y-84990000D03*
X104160000Y-85950000D03*
%TD*%
D26*
%TO.C,R219*%
X83945900Y-91760700D03*
X83945900Y-92780700D03*
%TD*%
D17*
%TO.C,S605*%
X70750000Y-36462500D03*
X70750000Y-40312500D03*
X69300000Y-36462500D03*
X69300000Y-40312500D03*
%TD*%
D23*
%TO.C,D602*%
X69300000Y-74760000D03*
X69300000Y-75730000D03*
%TD*%
D28*
%TO.C,L204*%
X71625000Y-88350000D03*
X71625000Y-86200000D03*
%TD*%
D25*
%TO.C,C421*%
X106620000Y-63550000D03*
X107580000Y-63550000D03*
%TD*%
D29*
%TO.C,J1*%
X102300000Y-98250000D03*
X110650000Y-91900000D03*
X102300000Y-95500000D03*
X110650000Y-98250000D03*
X110650000Y-89300000D03*
X102300000Y-90450000D03*
%TD*%
D15*
%TO.C,C904*%
X101417500Y-53345000D03*
X101417500Y-52385000D03*
%TD*%
D12*
%TO.C,C515*%
X94960000Y-88500000D03*
X94000000Y-88500000D03*
%TD*%
D17*
%TO.C,S603*%
X70750000Y-48462500D03*
X70750000Y-52312500D03*
X69300000Y-48462500D03*
X69300000Y-52312500D03*
%TD*%
D25*
%TO.C,C601*%
X69500000Y-64900000D03*
X70460000Y-64900000D03*
%TD*%
D22*
%TO.C,C238*%
X83825900Y-85080700D03*
X83825900Y-86040700D03*
%TD*%
D30*
%TO.C,U203*%
X72290000Y-95235000D03*
X72690000Y-95235000D03*
X73090000Y-95235000D03*
X73490000Y-95235000D03*
X73890000Y-95235000D03*
X74290000Y-95235000D03*
X74690000Y-95235000D03*
X75090000Y-95235000D03*
X75490000Y-95235000D03*
X75890000Y-95235000D03*
X76290000Y-95235000D03*
X76690000Y-95235000D03*
D31*
X77425000Y-94600000D03*
X77425000Y-94200000D03*
X77425000Y-93800000D03*
X77425000Y-93400000D03*
X77425000Y-93000000D03*
X77425000Y-92600000D03*
X77425000Y-92200000D03*
X77425000Y-91800000D03*
X77425000Y-91400000D03*
X77425000Y-91000000D03*
D30*
X76690000Y-90365000D03*
X76290000Y-90365000D03*
X75890000Y-90365000D03*
X75490000Y-90365000D03*
X75090000Y-90365000D03*
X74690000Y-90365000D03*
X74290000Y-90365000D03*
X73890000Y-90365000D03*
X73490000Y-90365000D03*
X73090000Y-90365000D03*
X72690000Y-90365000D03*
X72290000Y-90365000D03*
D31*
X71555000Y-91000000D03*
X71555000Y-91400000D03*
X71555000Y-91800000D03*
X71555000Y-92200000D03*
X71555000Y-92600000D03*
X71555000Y-93000000D03*
X71555000Y-93400000D03*
X71555000Y-93800000D03*
X71555000Y-94200000D03*
X71555000Y-94600000D03*
%TD*%
D15*
%TO.C,C508*%
X105790000Y-43510000D03*
X105790000Y-42550000D03*
%TD*%
D25*
%TO.C,C218*%
X69310000Y-91372500D03*
X70270000Y-91372500D03*
%TD*%
D15*
%TO.C,C232*%
X86085900Y-86040700D03*
X86085900Y-85080700D03*
%TD*%
D32*
%TO.C,U801*%
X95704200Y-92153300D03*
X95704200Y-91645300D03*
X95704200Y-91137300D03*
D33*
X95224000Y-90403100D03*
X94716000Y-90403100D03*
X94208000Y-90403100D03*
X93700000Y-90403100D03*
D32*
X93219800Y-91137300D03*
X93219800Y-91645300D03*
X93219800Y-92153300D03*
D33*
X93700000Y-92887500D03*
X94208000Y-92887500D03*
X94716000Y-92887500D03*
X95224000Y-92887500D03*
D34*
X94462000Y-91645300D03*
%TD*%
D35*
%TO.C,L203*%
X76850000Y-97500000D03*
X76850000Y-99650000D03*
%TD*%
D36*
%TO.C,C903*%
X95867500Y-56185000D03*
X97417500Y-56185000D03*
%TD*%
D25*
%TO.C,C402*%
X100193415Y-74377400D03*
X101153415Y-74377400D03*
%TD*%
D12*
%TO.C,C602*%
X70500000Y-63700000D03*
X69540000Y-63700000D03*
%TD*%
D37*
%TO.C,J901*%
X90817500Y-47385000D03*
D38*
X89317500Y-48860000D03*
D37*
X87817500Y-47385000D03*
D38*
X89317500Y-45910000D03*
%TD*%
D12*
%TO.C,C225*%
X80205000Y-89800000D03*
X79245000Y-89800000D03*
%TD*%
D25*
%TO.C,C905*%
X96757500Y-54985000D03*
X97717500Y-54985000D03*
%TD*%
%TO.C,C403*%
X102567172Y-63530000D03*
X103527172Y-63530000D03*
%TD*%
D12*
%TO.C,C419*%
X110570000Y-74550000D03*
X109610000Y-74550000D03*
%TD*%
D39*
%TO.C,C236*%
X88355900Y-91845700D03*
X88355900Y-90295700D03*
%TD*%
D40*
%TO.C,L202*%
X73175000Y-97900000D03*
X71025000Y-97900000D03*
%TD*%
D41*
%TO.C,J2*%
X100899999Y-37100000D03*
X99900001Y-37100000D03*
X98900001Y-37100000D03*
X97900000Y-37100000D03*
X96900000Y-37100000D03*
X95900002Y-37100000D03*
X94900001Y-37100000D03*
X93900001Y-37100000D03*
X92900000Y-37100000D03*
X91900000Y-37100000D03*
X90900002Y-37100000D03*
X89900001Y-37100000D03*
X88900000Y-37100000D03*
X87900000Y-37100000D03*
X86899999Y-37100000D03*
X85900001Y-37100000D03*
X84900001Y-37100000D03*
X83900000Y-37100000D03*
X82900000Y-37100000D03*
X81899999Y-37100000D03*
D42*
X100899999Y-33350000D03*
X99900001Y-33350000D03*
X98900001Y-33350000D03*
X97900000Y-33350000D03*
X96900000Y-33350000D03*
X95900002Y-33350000D03*
X94900001Y-33350000D03*
X93900001Y-33350000D03*
X92900000Y-33350000D03*
X91900000Y-33350000D03*
X90900002Y-33350000D03*
X89900001Y-33350000D03*
X88900000Y-33350000D03*
X87900000Y-33350000D03*
X86899999Y-33350000D03*
X85900001Y-33350000D03*
X84900001Y-33350000D03*
X83900000Y-33350000D03*
X82900000Y-33350000D03*
X81899999Y-33350000D03*
%TD*%
D43*
%TO.C,R901*%
X102417500Y-46685000D03*
X102417500Y-45665000D03*
%TD*%
D24*
%TO.C,R517*%
X107800000Y-49980000D03*
X108820000Y-49980000D03*
%TD*%
D44*
%TO.C,C332*%
X69487500Y-61200000D03*
X71687500Y-61200000D03*
%TD*%
D45*
%TO.C,TP203*%
X47655000Y-85978207D03*
%TD*%
D46*
%TO.C,L206*%
X87510900Y-84960700D03*
X89660900Y-84960700D03*
%TD*%
D26*
%TO.C,R209*%
X101160000Y-84962500D03*
X101160000Y-85982500D03*
%TD*%
%TO.C,R713*%
X69300000Y-70200000D03*
X69300000Y-71220000D03*
%TD*%
D22*
%TO.C,C237*%
X82255900Y-86713200D03*
X82255900Y-87673200D03*
%TD*%
D12*
%TO.C,C428*%
X105760000Y-63550000D03*
X104800000Y-63550000D03*
%TD*%
D36*
%TO.C,C422*%
X107995000Y-62300000D03*
X109545000Y-62300000D03*
%TD*%
D26*
%TO.C,R210*%
X103160000Y-84960000D03*
X103160000Y-85980000D03*
%TD*%
D18*
%TO.C,C212*%
X80475000Y-97600000D03*
X78925000Y-97600000D03*
%TD*%
D39*
%TO.C,C211*%
X74800000Y-98875000D03*
X74800000Y-97325000D03*
%TD*%
D12*
%TO.C,C217*%
X80205000Y-91600000D03*
X79245000Y-91600000D03*
%TD*%
D18*
%TO.C,C230*%
X77975000Y-84600000D03*
X76425000Y-84600000D03*
%TD*%
D24*
%TO.C,R903*%
X92717500Y-44985000D03*
X93737500Y-44985000D03*
%TD*%
D19*
%TO.C,C214*%
X77900000Y-86825000D03*
X77900000Y-88375000D03*
%TD*%
D39*
%TO.C,C902*%
X102617500Y-54185000D03*
X102617500Y-52635000D03*
%TD*%
D17*
%TO.C,S602*%
X109825000Y-38255000D03*
X109825000Y-34405000D03*
X111275000Y-38255000D03*
X111275000Y-34405000D03*
%TD*%
D22*
%TO.C,C802*%
X93100000Y-88700000D03*
X93100000Y-89660000D03*
%TD*%
D12*
%TO.C,C420*%
X104180000Y-74378400D03*
X103220000Y-74378400D03*
%TD*%
D24*
%TO.C,R515*%
X107800000Y-46000000D03*
X108820000Y-46000000D03*
%TD*%
D18*
%TO.C,C425*%
X108848415Y-75677400D03*
X107298415Y-75677400D03*
%TD*%
D24*
%TO.C,R519*%
X107800000Y-53960000D03*
X108820000Y-53960000D03*
%TD*%
D47*
%TO.C,L901*%
X101117500Y-55485000D03*
X99667500Y-55485000D03*
%TD*%
D12*
%TO.C,C220*%
X80205000Y-87925000D03*
X79245000Y-87925000D03*
%TD*%
D24*
%TO.C,R516*%
X107800000Y-47990000D03*
X108820000Y-47990000D03*
%TD*%
D48*
%TO.C,U901*%
X100167500Y-53485000D03*
X100167500Y-52885000D03*
X100167500Y-52285000D03*
X100167500Y-51685000D03*
X100167500Y-51085000D03*
X100167500Y-50485000D03*
X100167500Y-49885000D03*
X100167500Y-49285000D03*
X100167500Y-48685000D03*
X100167500Y-48085000D03*
X100167500Y-47485000D03*
X100167500Y-46885000D03*
D49*
X99492500Y-46710000D03*
X98892500Y-46710000D03*
X98292500Y-46710000D03*
X97692500Y-46710000D03*
X97092500Y-46710000D03*
X96492500Y-46710000D03*
X95892500Y-46710000D03*
X95292500Y-46710000D03*
X94692500Y-46710000D03*
X94092500Y-46710000D03*
D48*
X93417500Y-46885000D03*
X93417500Y-47485000D03*
X93417500Y-48085000D03*
X93417500Y-48685000D03*
X93417500Y-49285000D03*
X93417500Y-49885000D03*
X93417500Y-50485000D03*
X93417500Y-51085000D03*
X93417500Y-51685000D03*
X93417500Y-52285000D03*
X93417500Y-52885000D03*
X93417500Y-53485000D03*
D49*
X94092500Y-53660000D03*
X94692500Y-53660000D03*
X95292500Y-53660000D03*
X95892500Y-53660000D03*
X96492500Y-53660000D03*
X97092500Y-53660000D03*
X97692500Y-53660000D03*
X98292500Y-53660000D03*
X98892500Y-53660000D03*
X99492500Y-53660000D03*
D48*
X98967500Y-51685000D03*
X98967500Y-51085000D03*
X98967500Y-50485000D03*
X98967500Y-49885000D03*
X98967500Y-49285000D03*
X98967500Y-48685000D03*
D49*
X98292500Y-47910000D03*
X97692500Y-47910000D03*
X97092500Y-47910000D03*
X96492500Y-47910000D03*
X95892500Y-47910000D03*
X95292500Y-47910000D03*
D48*
X94617500Y-48685000D03*
X94617500Y-49285000D03*
X94617500Y-49885000D03*
X94617500Y-50485000D03*
X94617500Y-51085000D03*
X94617500Y-51685000D03*
D49*
X95292500Y-52460000D03*
X95892500Y-52460000D03*
X96492500Y-52460000D03*
X97092500Y-52460000D03*
X97692500Y-52460000D03*
X98292500Y-52460000D03*
D48*
X97792500Y-51185000D03*
X97792500Y-50185000D03*
X97792500Y-49185000D03*
X96792500Y-49185000D03*
X95792500Y-49185000D03*
X95792500Y-50185000D03*
X95792500Y-51185000D03*
X96792500Y-51185000D03*
X96792500Y-50185000D03*
%TD*%
D43*
%TO.C,R513*%
X110683415Y-44935900D03*
X110683415Y-43915900D03*
%TD*%
D36*
%TO.C,C222*%
X79475000Y-94600000D03*
X81025000Y-94600000D03*
%TD*%
D43*
%TO.C,R602*%
X70300000Y-75750000D03*
X70300000Y-74730000D03*
%TD*%
D28*
%TO.C,L205*%
X75800000Y-88350000D03*
X75800000Y-86200000D03*
%TD*%
D24*
%TO.C,R202*%
X102660000Y-80370000D03*
X103680000Y-80370000D03*
%TD*%
D19*
%TO.C,C234*%
X88355900Y-87285700D03*
X88355900Y-88835700D03*
%TD*%
D15*
%TO.C,C205*%
X102160000Y-85950000D03*
X102160000Y-84990000D03*
%TD*%
D18*
%TO.C,C229*%
X73775000Y-84600000D03*
X72225000Y-84600000D03*
%TD*%
D50*
%TO.C,L301*%
X71750000Y-74650000D03*
X71750000Y-73074998D03*
%TD*%
D51*
%TO.C,Y701*%
X70550000Y-68600000D03*
X70550000Y-70450000D03*
X72000000Y-70450000D03*
X72000000Y-68600000D03*
%TD*%
D24*
%TO.C,R514*%
X107800000Y-44010000D03*
X108820000Y-44010000D03*
%TD*%
D43*
%TO.C,R218*%
X85245900Y-92760700D03*
X85245900Y-91740700D03*
%TD*%
D25*
%TO.C,C705*%
X71240000Y-71700000D03*
X72200000Y-71700000D03*
%TD*%
D52*
%TO.C,D2*%
X69300000Y-79570000D03*
X69300000Y-78600000D03*
%TD*%
D53*
%TO.C,U401*%
X108873415Y-65577400D03*
X108873415Y-66377400D03*
X108873415Y-67177400D03*
X108873415Y-70377400D03*
X108873415Y-71177400D03*
X108873415Y-71977400D03*
X108073415Y-65577400D03*
X108073415Y-66377400D03*
X108073415Y-67177400D03*
X108073415Y-70377400D03*
X108073415Y-71177400D03*
X108073415Y-71977400D03*
X107273415Y-65577400D03*
X107273415Y-66377400D03*
X107273415Y-67177400D03*
X107273415Y-70377400D03*
X107273415Y-71177400D03*
X107273415Y-71977400D03*
X106473415Y-65577400D03*
X106473415Y-66377400D03*
X106473415Y-67177400D03*
X106473415Y-70377400D03*
X106473415Y-71177400D03*
X106473415Y-71977400D03*
X105673415Y-65577400D03*
X105673415Y-66377400D03*
X105673415Y-67177400D03*
X105673415Y-70377400D03*
X105673415Y-71177400D03*
X105673415Y-71977400D03*
X104873415Y-65577400D03*
X104873415Y-66377400D03*
X104873415Y-67177400D03*
X104873415Y-70377400D03*
X104873415Y-71177400D03*
X104873415Y-71977400D03*
X104073415Y-65577400D03*
X104073415Y-66377400D03*
X104073415Y-67177400D03*
X104073415Y-70377400D03*
X104073415Y-71177400D03*
X104073415Y-71977400D03*
X103273415Y-65577400D03*
X103273415Y-66377400D03*
X103273415Y-67177400D03*
X103273415Y-70377400D03*
X103273415Y-71177400D03*
X103273415Y-71977400D03*
X102473415Y-65577400D03*
X102473415Y-66377400D03*
X102473415Y-67177400D03*
X102473415Y-70377400D03*
X102473415Y-71177400D03*
X102473415Y-71977400D03*
X101673415Y-65577400D03*
X101673415Y-66377400D03*
X101673415Y-67177400D03*
X101673415Y-70377400D03*
X101673415Y-71177400D03*
X101673415Y-71977400D03*
X100873415Y-65577400D03*
X100873415Y-66377400D03*
X100873415Y-67177400D03*
X100873415Y-70377400D03*
X100873415Y-71177400D03*
X100873415Y-71977400D03*
X100073415Y-65577400D03*
X100073415Y-66377400D03*
X100073415Y-67177400D03*
X100073415Y-70377400D03*
X100073415Y-71177400D03*
X100073415Y-71977400D03*
X99273415Y-65577400D03*
X99273415Y-66377400D03*
X99273415Y-67177400D03*
X99273415Y-70377400D03*
X99273415Y-71177400D03*
X99273415Y-71977400D03*
X98473415Y-65577400D03*
X98473415Y-66377400D03*
X98473415Y-67177400D03*
X98473415Y-70377400D03*
X98473415Y-71177400D03*
X98473415Y-71977400D03*
X97673415Y-65577400D03*
X97673415Y-66377400D03*
X97673415Y-67177400D03*
X97673415Y-70377400D03*
X97673415Y-71177400D03*
X97673415Y-71977400D03*
X96873415Y-65577400D03*
X96873415Y-66377400D03*
X96873415Y-67177400D03*
X96873415Y-70377400D03*
X96873415Y-71177400D03*
X96873415Y-71977400D03*
%TD*%
D23*
%TO.C,D601*%
X69300000Y-72830000D03*
X69300000Y-73800000D03*
%TD*%
D43*
%TO.C,R221*%
X70300000Y-77720000D03*
X70300000Y-76700000D03*
%TD*%
D26*
%TO.C,R216*%
X87145900Y-91750700D03*
X87145900Y-92770700D03*
%TD*%
D25*
%TO.C,C426*%
X96593415Y-74377400D03*
X97553415Y-74377400D03*
%TD*%
D17*
%TO.C,S604*%
X70750000Y-42462500D03*
X70750000Y-46312500D03*
X69300000Y-42462500D03*
X69300000Y-46312500D03*
%TD*%
D26*
%TO.C,R902*%
X101417500Y-45685000D03*
X101417500Y-46705000D03*
%TD*%
D12*
%TO.C,C429*%
X99350000Y-63250000D03*
X98390000Y-63250000D03*
%TD*%
D24*
%TO.C,R201*%
X102650000Y-79370000D03*
X103670000Y-79370000D03*
%TD*%
D54*
%TO.C,R212*%
X98960000Y-83395000D03*
X98960000Y-81745000D03*
%TD*%
D55*
%TO.C,U201*%
X102660000Y-81825000D03*
D56*
X102160000Y-81750000D03*
X101660000Y-81750000D03*
X101160000Y-81750000D03*
X100660000Y-81750000D03*
X100660000Y-83470000D03*
X101160000Y-83470000D03*
X101660000Y-83470000D03*
X102160000Y-83470000D03*
X102660000Y-83470000D03*
%TD*%
D16*
%TO.C,R714*%
X72220000Y-67300000D03*
X71200000Y-67300000D03*
%TD*%
D26*
%TO.C,R220*%
X70300000Y-78580000D03*
X70300000Y-79600000D03*
%TD*%
D57*
%TO.C,U3*%
X83245901Y-87730700D03*
X83245901Y-88230699D03*
X83245901Y-88730700D03*
X83245901Y-89230700D03*
X83245901Y-89730701D03*
X83245901Y-90230700D03*
D58*
X83895900Y-90880699D03*
X84395899Y-90880699D03*
X84895900Y-90880699D03*
X85395900Y-90880699D03*
X85895901Y-90880699D03*
X86395900Y-90880699D03*
D57*
X87045899Y-90230700D03*
X87045899Y-89730701D03*
X87045899Y-89230700D03*
X87045899Y-88730700D03*
X87045899Y-88230699D03*
X87045899Y-87730700D03*
D58*
X86395900Y-87080701D03*
X85895901Y-87080701D03*
X85395900Y-87080701D03*
X84895900Y-87080701D03*
X84395899Y-87080701D03*
X83895900Y-87080701D03*
%TD*%
D43*
%TO.C,R217*%
X86245900Y-92770700D03*
X86245900Y-91750700D03*
%TD*%
D25*
%TO.C,C223*%
X69310000Y-92372500D03*
X70270000Y-92372500D03*
%TD*%
D59*
%TO.C,U1*%
X76033417Y-42217406D03*
X77033415Y-42217406D03*
X84033401Y-42217406D03*
X85033399Y-42217406D03*
X76033417Y-43217404D03*
X85033399Y-43217404D03*
X77033415Y-45217400D03*
X78033413Y-45217400D03*
X79033411Y-45217400D03*
X80033409Y-45217400D03*
X81033407Y-45217400D03*
X82033405Y-45217400D03*
X83033403Y-45217400D03*
X84033401Y-45217400D03*
X77033415Y-46217398D03*
X78033413Y-46217398D03*
X79033411Y-46217398D03*
X80033409Y-46217398D03*
X81033407Y-46217398D03*
X82033405Y-46217398D03*
X83033403Y-46217398D03*
X84033401Y-46217398D03*
X77033415Y-47217396D03*
X78033413Y-47217396D03*
X79033411Y-47217396D03*
X80033409Y-47217396D03*
X81033407Y-47217396D03*
X82033405Y-47217396D03*
X83033403Y-47217396D03*
X84033401Y-47217396D03*
X77033415Y-48217394D03*
X78033413Y-48217394D03*
X79033411Y-48217394D03*
X80033409Y-48217394D03*
X81033407Y-48217394D03*
X82033405Y-48217394D03*
X83033403Y-48217394D03*
X84033401Y-48217394D03*
X77033415Y-49217392D03*
X78033413Y-49217392D03*
X79033411Y-49217392D03*
X80033409Y-49217392D03*
X81033407Y-49217392D03*
X82033405Y-49217392D03*
X83033403Y-49217392D03*
X84033401Y-49217392D03*
X77033415Y-50217390D03*
X78033413Y-50217390D03*
X79033411Y-50217390D03*
X80033409Y-50217390D03*
X81033407Y-50217390D03*
X82033405Y-50217390D03*
X83033403Y-50217390D03*
X84033401Y-50217390D03*
X77033415Y-51217388D03*
X78033413Y-51217388D03*
X79033411Y-51217388D03*
X80033409Y-51217388D03*
X81033407Y-51217388D03*
X82033405Y-51217388D03*
X83033403Y-51217388D03*
X84033401Y-51217388D03*
X77033415Y-52217386D03*
X78033413Y-52217386D03*
X79033411Y-52217386D03*
X80033409Y-52217386D03*
X81033407Y-52217386D03*
X82033405Y-52217386D03*
X83033403Y-52217386D03*
X84033401Y-52217386D03*
X77033415Y-53217384D03*
X78033413Y-53217384D03*
X79033411Y-53217384D03*
X80033409Y-53217384D03*
X81033407Y-53217384D03*
X82033405Y-53217384D03*
X83033403Y-53217384D03*
X84033401Y-53217384D03*
X77033415Y-54217382D03*
X78033413Y-54217382D03*
X79033411Y-54217382D03*
X80033409Y-54217382D03*
X81033407Y-54217382D03*
X82033405Y-54217382D03*
X83033403Y-54217382D03*
X84033401Y-54217382D03*
X77033415Y-55217380D03*
X78033413Y-55217380D03*
X79033411Y-55217380D03*
X80033409Y-55217380D03*
X81033407Y-55217380D03*
X82033405Y-55217380D03*
X83033403Y-55217380D03*
X84033401Y-55217380D03*
X76033417Y-57217376D03*
X85033399Y-57217376D03*
X76033417Y-58217374D03*
X77033415Y-58217374D03*
X84033401Y-58217374D03*
X85033399Y-58217374D03*
%TD*%
D43*
%TO.C,R601*%
X70300000Y-73830000D03*
X70300000Y-72810000D03*
%TD*%
D12*
%TO.C,C221*%
X80205000Y-92500000D03*
X79245000Y-92500000D03*
%TD*%
D24*
%TO.C,R405*%
X108710000Y-77950000D03*
X109730000Y-77950000D03*
%TD*%
D43*
%TO.C,R712*%
X69300000Y-69300000D03*
X69300000Y-68280000D03*
%TD*%
M02*
