%TF.GenerationSoftware,KiCad,Pcbnew,9.0.1*%
%TF.CreationDate,2025-07-01T18:44:37-06:00*%
%TF.ProjectId,MPU_MOD,4d50555f-4d4f-4442-9e6b-696361645f70,rev?*%
%TF.SameCoordinates,Original*%
%TF.FileFunction,Paste,Bot*%
%TF.FilePolarity,Positive*%
%FSLAX46Y46*%
G04 Gerber Fmt 4.6, Leading zero omitted, Abs format (unit mm)*
G04 Created by KiCad (PCBNEW 9.0.1) date 2025-07-01 18:44:37*
%MOMM*%
%LPD*%
G01*
G04 APERTURE LIST*
G04 Aperture macros list*
%AMRoundRect*
0 Rectangle with rounded corners*
0 $1 Rounding radius*
0 $2 $3 $4 $5 $6 $7 $8 $9 X,Y pos of 4 corners*
0 Add a 4 corners polygon primitive as box body*
4,1,4,$2,$3,$4,$5,$6,$7,$8,$9,$2,$3,0*
0 Add four circle primitives for the rounded corners*
1,1,$1+$1,$2,$3*
1,1,$1+$1,$4,$5*
1,1,$1+$1,$6,$7*
1,1,$1+$1,$8,$9*
0 Add four rect primitives between the rounded corners*
20,1,$1+$1,$2,$3,$4,$5,0*
20,1,$1+$1,$4,$5,$6,$7,0*
20,1,$1+$1,$6,$7,$8,$9,0*
20,1,$1+$1,$8,$9,$2,$3,0*%
G04 Aperture macros list end*
%ADD10RoundRect,0.135000X-0.185000X0.135000X-0.185000X-0.135000X0.185000X-0.135000X0.185000X0.135000X0*%
%ADD11RoundRect,0.135000X0.185000X-0.135000X0.185000X0.135000X-0.185000X0.135000X-0.185000X-0.135000X0*%
%ADD12RoundRect,0.140000X0.170000X-0.140000X0.170000X0.140000X-0.170000X0.140000X-0.170000X-0.140000X0*%
%ADD13RoundRect,0.135000X-0.135000X-0.185000X0.135000X-0.185000X0.135000X0.185000X-0.135000X0.185000X0*%
%ADD14RoundRect,0.135000X0.135000X0.185000X-0.135000X0.185000X-0.135000X-0.185000X0.135000X-0.185000X0*%
%ADD15RoundRect,0.140000X-0.170000X0.140000X-0.170000X-0.140000X0.170000X-0.140000X0.170000X0.140000X0*%
%ADD16RoundRect,0.140000X-0.021213X0.219203X-0.219203X0.021213X0.021213X-0.219203X0.219203X-0.021213X0*%
%ADD17RoundRect,0.140000X0.140000X0.170000X-0.140000X0.170000X-0.140000X-0.170000X0.140000X-0.170000X0*%
%ADD18RoundRect,0.135000X0.035355X-0.226274X0.226274X-0.035355X-0.035355X0.226274X-0.226274X0.035355X0*%
%ADD19RoundRect,0.140000X-0.140000X-0.170000X0.140000X-0.170000X0.140000X0.170000X-0.140000X0.170000X0*%
%ADD20RoundRect,0.140000X0.021213X-0.219203X0.219203X-0.021213X-0.021213X0.219203X-0.219203X0.021213X0*%
%ADD21R,2.200000X1.150000*%
%ADD22R,1.200000X1.150000*%
%ADD23R,1.150000X1.500000*%
%ADD24R,2.500000X1.150000*%
%ADD25R,1.240000X0.800000*%
%ADD26R,1.250000X1.150000*%
%ADD27R,0.406400X0.838200*%
%ADD28RoundRect,0.140000X0.219203X0.021213X0.021213X0.219203X-0.219203X-0.021213X-0.021213X-0.219203X0*%
G04 APERTURE END LIST*
D10*
%TO.C,R407*%
X104000000Y-74380000D03*
X104000000Y-75400000D03*
%TD*%
D11*
%TO.C,R406*%
X103096585Y-63582600D03*
X103096585Y-62562602D03*
%TD*%
D12*
%TO.C,C413*%
X106840000Y-61560000D03*
X106840000Y-60600000D03*
%TD*%
D13*
%TO.C,R509*%
X74403415Y-48147400D03*
X75423415Y-48147400D03*
%TD*%
D11*
%TO.C,R504*%
X85723415Y-53087400D03*
X85723415Y-52067400D03*
%TD*%
D14*
%TO.C,R508*%
X75393415Y-46897400D03*
X74373415Y-46897400D03*
%TD*%
D10*
%TO.C,R502*%
X85703415Y-54117400D03*
X85703415Y-55137400D03*
%TD*%
%TO.C,R505*%
X86703415Y-53637400D03*
X86703415Y-54657400D03*
%TD*%
D15*
%TO.C,C411*%
X102910000Y-60500000D03*
X102910000Y-61460000D03*
%TD*%
D16*
%TO.C,C319*%
X84778822Y-66521178D03*
X84100000Y-67200000D03*
%TD*%
%TO.C,C317*%
X80228822Y-67971178D03*
X79550000Y-68650000D03*
%TD*%
D15*
%TO.C,C412*%
X101623415Y-76417400D03*
X101623415Y-77377400D03*
%TD*%
%TO.C,C327*%
X77300000Y-70740000D03*
X77300000Y-71700000D03*
%TD*%
D17*
%TO.C,C416*%
X111333415Y-70777400D03*
X110373415Y-70777400D03*
%TD*%
D15*
%TO.C,C323*%
X85900000Y-64790000D03*
X85900000Y-65750000D03*
%TD*%
D10*
%TO.C,R414*%
X96298415Y-74367400D03*
X96298415Y-75387400D03*
%TD*%
D14*
%TO.C,R511*%
X78303415Y-42917400D03*
X77283415Y-42917400D03*
%TD*%
D11*
%TO.C,R424*%
X105946585Y-63582600D03*
X105946585Y-62562602D03*
%TD*%
%TO.C,R408*%
X101196585Y-63582600D03*
X101196585Y-62562602D03*
%TD*%
D15*
%TO.C,C339*%
X74850000Y-72340000D03*
X74850000Y-73300000D03*
%TD*%
D10*
%TO.C,R430*%
X107073415Y-74357400D03*
X107073415Y-75377400D03*
%TD*%
D18*
%TO.C,R403*%
X103219376Y-72310624D03*
X103940624Y-71589376D03*
%TD*%
D15*
%TO.C,C417*%
X96753415Y-76417400D03*
X96753415Y-77377400D03*
%TD*%
%TO.C,C334*%
X86250000Y-61940000D03*
X86250000Y-62900000D03*
%TD*%
D16*
%TO.C,C305*%
X83152944Y-66571178D03*
X82474122Y-67250000D03*
%TD*%
D12*
%TO.C,C502*%
X78503415Y-47677400D03*
X78503415Y-46717400D03*
%TD*%
D10*
%TO.C,R422*%
X101500000Y-74367400D03*
X101500000Y-75387400D03*
%TD*%
%TO.C,R501*%
X81033415Y-56927400D03*
X81033415Y-57947400D03*
%TD*%
D15*
%TO.C,C418*%
X98723415Y-76417400D03*
X98723415Y-77377400D03*
%TD*%
D10*
%TO.C,R418*%
X105920000Y-74370000D03*
X105920000Y-75390000D03*
%TD*%
D12*
%TO.C,C511*%
X77473415Y-48707400D03*
X77473415Y-47747400D03*
%TD*%
D17*
%TO.C,C510*%
X86013415Y-47917400D03*
X85053415Y-47917400D03*
%TD*%
D12*
%TO.C,C316*%
X84450000Y-74160000D03*
X84450000Y-73200000D03*
%TD*%
%TO.C,C335*%
X85650000Y-76100000D03*
X85650000Y-75140000D03*
%TD*%
D10*
%TO.C,R416*%
X104970000Y-74370000D03*
X104970000Y-75390000D03*
%TD*%
D12*
%TO.C,C506*%
X79583415Y-51687400D03*
X79583415Y-50727400D03*
%TD*%
D16*
%TO.C,C309*%
X78778822Y-66121178D03*
X78100000Y-66800000D03*
%TD*%
D19*
%TO.C,C336*%
X82300000Y-75650000D03*
X83260000Y-75650000D03*
%TD*%
D20*
%TO.C,C301*%
X78221178Y-69978822D03*
X78900000Y-69300000D03*
%TD*%
D10*
%TO.C,R410*%
X98273415Y-74367400D03*
X98273415Y-75387400D03*
%TD*%
D21*
%TO.C,J501*%
X109660000Y-41595000D03*
D22*
X98510000Y-41995000D03*
D23*
X97385000Y-43800000D03*
X97385000Y-51580000D03*
D21*
X98180000Y-55885000D03*
D24*
X109510000Y-55885000D03*
D25*
X110140000Y-51640000D03*
X110140000Y-50540000D03*
X110140000Y-49440000D03*
X110140000Y-48340000D03*
X110140000Y-47240000D03*
X110140000Y-46140000D03*
X110140000Y-45040000D03*
X110140000Y-43940000D03*
D26*
X107510000Y-41995000D03*
%TD*%
D11*
%TO.C,R503*%
X86673415Y-52517400D03*
X86673415Y-51497400D03*
%TD*%
D16*
%TO.C,C315*%
X83128822Y-68071178D03*
X82450000Y-68750000D03*
%TD*%
D17*
%TO.C,C329*%
X72650000Y-62350000D03*
X71690000Y-62350000D03*
%TD*%
D10*
%TO.C,R426*%
X100210000Y-74360000D03*
X100210000Y-75380000D03*
%TD*%
D12*
%TO.C,C414*%
X104870000Y-61560000D03*
X104870000Y-60600000D03*
%TD*%
D11*
%TO.C,R423*%
X104996585Y-63582600D03*
X104996585Y-62562602D03*
%TD*%
D15*
%TO.C,C324*%
X85900000Y-72200000D03*
X85900000Y-73160000D03*
%TD*%
%TO.C,C410*%
X100940000Y-60500000D03*
X100940000Y-61460000D03*
%TD*%
D11*
%TO.C,R419*%
X97346585Y-63582600D03*
X97346585Y-62562602D03*
%TD*%
D13*
%TO.C,R404*%
X99940001Y-73410000D03*
X100959999Y-73410000D03*
%TD*%
D19*
%TO.C,C338*%
X82340000Y-74700000D03*
X83300000Y-74700000D03*
%TD*%
%TO.C,C514*%
X77523415Y-55877400D03*
X78483415Y-55877400D03*
%TD*%
D12*
%TO.C,C503*%
X79523415Y-48667400D03*
X79523415Y-47707400D03*
%TD*%
D27*
%TO.C,D801*%
X87821800Y-92500000D03*
X86778200Y-92500000D03*
%TD*%
D17*
%TO.C,C330*%
X77210000Y-68550000D03*
X76250000Y-68550000D03*
%TD*%
D12*
%TO.C,C512*%
X83563415Y-48617400D03*
X83563415Y-47657400D03*
%TD*%
D15*
%TO.C,C322*%
X85900000Y-66640000D03*
X85900000Y-67600000D03*
%TD*%
D10*
%TO.C,R510*%
X74153415Y-57577400D03*
X74153415Y-58597400D03*
%TD*%
D14*
%TO.C,R507*%
X75393415Y-44907400D03*
X74373415Y-44907400D03*
%TD*%
D19*
%TO.C,C328*%
X76250000Y-69500000D03*
X77210000Y-69500000D03*
%TD*%
D11*
%TO.C,R409*%
X102146585Y-63582600D03*
X102146585Y-62562602D03*
%TD*%
D20*
%TO.C,C331*%
X83750000Y-65950000D03*
X84428822Y-65271178D03*
%TD*%
D15*
%TO.C,C505*%
X81443415Y-47727400D03*
X81443415Y-48687400D03*
%TD*%
D16*
%TO.C,C314*%
X83978822Y-64121178D03*
X83300000Y-64800000D03*
%TD*%
D10*
%TO.C,R412*%
X97288415Y-74377400D03*
X97288415Y-75397400D03*
%TD*%
D11*
%TO.C,R415*%
X99296585Y-63602598D03*
X99296585Y-62582600D03*
%TD*%
D17*
%TO.C,C303*%
X81510000Y-72966291D03*
X80550000Y-72966291D03*
%TD*%
D16*
%TO.C,C308*%
X84728822Y-68171178D03*
X84050000Y-68850000D03*
%TD*%
D15*
%TO.C,C507*%
X82533415Y-52717400D03*
X82533415Y-53677400D03*
%TD*%
%TO.C,C408*%
X105603415Y-76487400D03*
X105603415Y-77447400D03*
%TD*%
D12*
%TO.C,C509*%
X78523415Y-45767400D03*
X78523415Y-44807400D03*
%TD*%
D15*
%TO.C,C409*%
X98970000Y-60500000D03*
X98970000Y-61460000D03*
%TD*%
%TO.C,C415*%
X107423415Y-76517400D03*
X107423415Y-77477400D03*
%TD*%
D12*
%TO.C,C333*%
X74850000Y-71050000D03*
X74850000Y-70090000D03*
%TD*%
D11*
%TO.C,R421*%
X104046585Y-63582600D03*
X104046585Y-62562602D03*
%TD*%
D13*
%TO.C,R428*%
X109750000Y-68225000D03*
X110769998Y-68225000D03*
%TD*%
D16*
%TO.C,C312*%
X82428822Y-64121178D03*
X81750000Y-64800000D03*
%TD*%
D11*
%TO.C,R411*%
X100246585Y-63582600D03*
X100246585Y-62562602D03*
%TD*%
%TO.C,R425*%
X106896585Y-63582600D03*
X106896585Y-62562602D03*
%TD*%
D15*
%TO.C,C325*%
X85300000Y-62700000D03*
X85300000Y-63660000D03*
%TD*%
%TO.C,C326*%
X75850000Y-70740000D03*
X75850000Y-71700000D03*
%TD*%
D11*
%TO.C,R512*%
X75123415Y-58617400D03*
X75123415Y-57597400D03*
%TD*%
D20*
%TO.C,C313*%
X80950000Y-68850000D03*
X81628822Y-68171178D03*
%TD*%
D16*
%TO.C,C311*%
X80825121Y-65730042D03*
X80146299Y-66408864D03*
%TD*%
D15*
%TO.C,C320*%
X85900000Y-70340000D03*
X85900000Y-71300000D03*
%TD*%
D20*
%TO.C,C304*%
X77726057Y-72829106D03*
X78404879Y-72150284D03*
%TD*%
D10*
%TO.C,R417*%
X102453415Y-74367400D03*
X102453415Y-75387400D03*
%TD*%
D17*
%TO.C,C513*%
X83643415Y-55817400D03*
X82683415Y-55817400D03*
%TD*%
%TO.C,C302*%
X83350000Y-72966291D03*
X82390000Y-72966291D03*
%TD*%
D13*
%TO.C,R427*%
X109750000Y-67250000D03*
X110769998Y-67250000D03*
%TD*%
D15*
%TO.C,C407*%
X103633415Y-76487400D03*
X103633415Y-77447400D03*
%TD*%
%TO.C,C337*%
X83200000Y-62390000D03*
X83200000Y-63350000D03*
%TD*%
D16*
%TO.C,C307*%
X83940380Y-70650000D03*
X83261558Y-71328822D03*
%TD*%
D15*
%TO.C,C321*%
X85900000Y-68490000D03*
X85900000Y-69450000D03*
%TD*%
D13*
%TO.C,R429*%
X109750000Y-66275000D03*
X110769998Y-66275000D03*
%TD*%
D14*
%TO.C,R506*%
X75393415Y-42917400D03*
X74373415Y-42917400D03*
%TD*%
D28*
%TO.C,C306*%
X79450000Y-65500000D03*
X78771178Y-64821178D03*
%TD*%
D17*
%TO.C,C504*%
X78483415Y-52617400D03*
X77523415Y-52617400D03*
%TD*%
D10*
%TO.C,R420*%
X99223415Y-74367400D03*
X99223415Y-75387400D03*
%TD*%
D20*
%TO.C,C318*%
X80921708Y-70424759D03*
X81600530Y-69745937D03*
%TD*%
D16*
%TO.C,C310*%
X82428822Y-65721178D03*
X81750000Y-66400000D03*
%TD*%
D11*
%TO.C,R413*%
X98346585Y-63582600D03*
X98346585Y-62562602D03*
%TD*%
M02*
