<?xml version="1.0" standalone="no"?>
 <!DOCTYPE svg PUBLIC "-//W3C//DTD SVG 1.1//EN" 
 "http://www.w3.org/Graphics/SVG/1.1/DTD/svg11.dtd"> 
<svg
  xmlns:svg="http://www.w3.org/2000/svg"
  xmlns="http://www.w3.org/2000/svg"
  xmlns:xlink="http://www.w3.org/1999/xlink"
  version="1.1"
  width="52.2478mm" height="70.7898mm" viewBox="0.0000 0.0000 52.2478 70.7898">
<title>SVG Image created as MPU_MOD-Edge_Cuts.svg date 2026/02/11 17:44:34 </title>
  <desc>Image generated by PCBNEW </desc>
<g style="fill:#000000; fill-opacity:1.0000;stroke:#000000; stroke-opacity:1.0000;
stroke-linecap:round; stroke-linejoin:round;"
 transform="translate(0 0) scale(1 1)">
<path style="fill:none; 
stroke:#D0D2CD; stroke-width:0.0500; stroke-opacity:1; 
stroke-linecap:round; stroke-linejoin:round;fill:none"
d="M 0.9335,0.0250
50.9335,0.0250
50.9335,70.0250
0.9335,70.0250
Z" /> 
</g>
<g style="fill:none; 
stroke:#D0D2CD; stroke-width:0.0100; stroke-opacity:1; 
stroke-linecap:round; stroke-linejoin:round;">
<path d="M38.1735 70.0350
L38.1735 63.8850
" />
<path d="M38.9735 63.8850
L46.6135 63.8850
" />
<path d="M47.4135 63.8850
L47.4135 70.0350
" />
</g>
<g style="fill:none; 
stroke:#D0D2CD; stroke-width:0.0500; stroke-opacity:1; 
stroke-linecap:round; stroke-linejoin:round;">
<path d="M47.4135 70.0350
L38.1735 70.0350
" />
</g>
<g style="fill:none; 
stroke:#D0D2CD; stroke-width:0.0100; stroke-opacity:1; 
stroke-linecap:round; stroke-linejoin:round;">
<path d="M38.4985 63.4844 A0.3650 0.3650 0.0 0 0 38.1730 63.8851" />
<path d="M38.8240 63.7650 A0.3039 0.3039 0.0 0 0 38.4985 63.4844" />
<path d="M38.8235 63.7650 A0.1358 0.1358 0.0 0 0 38.9735 63.8850" />
<path d="M46.6135 63.8850 A0.1358 0.1358 0.0 0 0 46.7635 63.7650" />
<path d="M47.0885 63.4850 A0.3033 0.3033 0.0 0 0 46.7635 63.7650" />
<path d="M47.4135 63.8850 A0.3644 0.3644 0.0 0 0 47.0885 63.4850" />
<path d="M24.2135 70.0350
L24.2135 63.8850
" />
<path d="M25.0135 63.8850
L32.6535 63.8850
" />
<path d="M33.4535 63.8850
L33.4535 70.0350
" />
</g>
<g style="fill:none; 
stroke:#D0D2CD; stroke-width:0.0500; stroke-opacity:1; 
stroke-linecap:round; stroke-linejoin:round;">
<path d="M33.4535 70.0350
L24.2135 70.0350
" />
</g>
<g style="fill:none; 
stroke:#D0D2CD; stroke-width:0.0100; stroke-opacity:1; 
stroke-linecap:round; stroke-linejoin:round;">
<path d="M24.5385 63.4844 A0.3650 0.3650 0.0 0 0 24.2130 63.8851" />
<path d="M24.8640 63.7650 A0.3039 0.3039 0.0 0 0 24.5385 63.4844" />
<path d="M24.8635 63.7650 A0.1358 0.1358 0.0 0 0 25.0135 63.8850" />
<path d="M32.6535 63.8850 A0.1358 0.1358 0.0 0 0 32.8035 63.7650" />
<path d="M33.1285 63.4850 A0.3033 0.3033 0.0 0 0 32.8035 63.7650" />
<path d="M33.4535 63.8850 A0.3644 0.3644 0.0 0 0 33.1285 63.4850" />
</g> 
</svg>
