%TF.GenerationSoftware,KiCad,Pcbnew,9.0.7*%
%TF.CreationDate,2026-01-26T18:53:02-07:00*%
%TF.ProjectId,MPU_MOD,4d50555f-4d4f-4442-9e6b-696361645f70,rev?*%
%TF.SameCoordinates,Original*%
%TF.FileFunction,Paste,Bot*%
%TF.FilePolarity,Positive*%
%FSLAX46Y46*%
G04 Gerber Fmt 4.6, Leading zero omitted, Abs format (unit mm)*
G04 Created by KiCad (PCBNEW 9.0.7) date 2026-01-26 18:53:02*
%MOMM*%
%LPD*%
G01*
G04 APERTURE LIST*
G04 Aperture macros list*
%AMRoundRect*
0 Rectangle with rounded corners*
0 $1 Rounding radius*
0 $2 $3 $4 $5 $6 $7 $8 $9 X,Y pos of 4 corners*
0 Add a 4 corners polygon primitive as box body*
4,1,4,$2,$3,$4,$5,$6,$7,$8,$9,$2,$3,0*
0 Add four circle primitives for the rounded corners*
1,1,$1+$1,$2,$3*
1,1,$1+$1,$4,$5*
1,1,$1+$1,$6,$7*
1,1,$1+$1,$8,$9*
0 Add four rect primitives between the rounded corners*
20,1,$1+$1,$2,$3,$4,$5,0*
20,1,$1+$1,$4,$5,$6,$7,0*
20,1,$1+$1,$6,$7,$8,$9,0*
20,1,$1+$1,$8,$9,$2,$3,0*%
G04 Aperture macros list end*
%ADD10C,0.010000*%
%ADD11R,0.510000X0.560000*%
%ADD12R,0.560000X0.510000*%
%ADD13R,0.406400X0.838200*%
%ADD14R,2.790000X0.740000*%
%ADD15RoundRect,0.135000X-0.185000X0.135000X-0.185000X-0.135000X0.185000X-0.135000X0.185000X0.135000X0*%
%ADD16RoundRect,0.135000X0.185000X-0.135000X0.185000X0.135000X-0.185000X0.135000X-0.185000X-0.135000X0*%
%ADD17RoundRect,0.075000X0.175000X0.175000X-0.175000X0.175000X-0.175000X-0.175000X0.175000X-0.175000X0*%
%ADD18RoundRect,0.135000X-0.135000X-0.185000X0.135000X-0.185000X0.135000X0.185000X-0.135000X0.185000X0*%
%ADD19RoundRect,0.135000X0.135000X0.185000X-0.135000X0.185000X-0.135000X-0.185000X0.135000X-0.185000X0*%
%ADD20RoundRect,0.075000X0.175000X-0.175000X0.175000X0.175000X-0.175000X0.175000X-0.175000X-0.175000X0*%
%ADD21R,0.800000X0.800000*%
%ADD22R,2.000000X1.100000*%
%ADD23RoundRect,0.135000X0.226274X0.035355X0.035355X0.226274X-0.226274X-0.035355X-0.035355X-0.226274X0*%
%ADD24RoundRect,0.075000X-0.175000X0.175000X-0.175000X-0.175000X0.175000X-0.175000X0.175000X0.175000X0*%
%ADD25RoundRect,0.075000X-0.175000X-0.175000X0.175000X-0.175000X0.175000X0.175000X-0.175000X0.175000X0*%
%ADD26RoundRect,0.050000X-0.250000X0.100000X-0.250000X-0.100000X0.250000X-0.100000X0.250000X0.100000X0*%
%ADD27R,0.838200X0.406400*%
%ADD28R,1.300000X0.600000*%
G04 APERTURE END LIST*
D10*
%TO.C,J701*%
X103853000Y-113730000D02*
X101063000Y-113730000D01*
X101063000Y-112990000D01*
X103853000Y-112990000D01*
X103853000Y-113730000D01*
G36*
X103853000Y-113730000D02*
G01*
X101063000Y-113730000D01*
X101063000Y-112990000D01*
X103853000Y-112990000D01*
X103853000Y-113730000D01*
G37*
X103853000Y-115000000D02*
X101063000Y-115000000D01*
X101063000Y-114260000D01*
X103853000Y-114260000D01*
X103853000Y-115000000D01*
G36*
X103853000Y-115000000D02*
G01*
X101063000Y-115000000D01*
X101063000Y-114260000D01*
X103853000Y-114260000D01*
X103853000Y-115000000D01*
G37*
X103853000Y-116270000D02*
X101063000Y-116270000D01*
X101063000Y-115530000D01*
X103853000Y-115530000D01*
X103853000Y-116270000D01*
G36*
X103853000Y-116270000D02*
G01*
X101063000Y-116270000D01*
X101063000Y-115530000D01*
X103853000Y-115530000D01*
X103853000Y-116270000D01*
G37*
X103853000Y-117540000D02*
X101063000Y-117540000D01*
X101063000Y-116800000D01*
X103853000Y-116800000D01*
X103853000Y-117540000D01*
G36*
X103853000Y-117540000D02*
G01*
X101063000Y-117540000D01*
X101063000Y-116800000D01*
X103853000Y-116800000D01*
X103853000Y-117540000D01*
G37*
X103853000Y-118810000D02*
X101063000Y-118810000D01*
X101063000Y-118070000D01*
X103853000Y-118070000D01*
X103853000Y-118810000D01*
G36*
X103853000Y-118810000D02*
G01*
X101063000Y-118810000D01*
X101063000Y-118070000D01*
X103853000Y-118070000D01*
X103853000Y-118810000D01*
G37*
X107917000Y-113730000D02*
X105127000Y-113730000D01*
X105127000Y-112990000D01*
X107917000Y-112990000D01*
X107917000Y-113730000D01*
G36*
X107917000Y-113730000D02*
G01*
X105127000Y-113730000D01*
X105127000Y-112990000D01*
X107917000Y-112990000D01*
X107917000Y-113730000D01*
G37*
X107917000Y-115000000D02*
X105127000Y-115000000D01*
X105127000Y-114260000D01*
X107917000Y-114260000D01*
X107917000Y-115000000D01*
G36*
X107917000Y-115000000D02*
G01*
X105127000Y-115000000D01*
X105127000Y-114260000D01*
X107917000Y-114260000D01*
X107917000Y-115000000D01*
G37*
X107917000Y-116270000D02*
X105127000Y-116270000D01*
X105127000Y-115530000D01*
X107917000Y-115530000D01*
X107917000Y-116270000D01*
G36*
X107917000Y-116270000D02*
G01*
X105127000Y-116270000D01*
X105127000Y-115530000D01*
X107917000Y-115530000D01*
X107917000Y-116270000D01*
G37*
X107917000Y-117540000D02*
X105127000Y-117540000D01*
X105127000Y-116800000D01*
X107917000Y-116800000D01*
X107917000Y-117540000D01*
G36*
X107917000Y-117540000D02*
G01*
X105127000Y-117540000D01*
X105127000Y-116800000D01*
X107917000Y-116800000D01*
X107917000Y-117540000D01*
G37*
X107917000Y-118810000D02*
X105127000Y-118810000D01*
X105127000Y-118070000D01*
X107917000Y-118070000D01*
X107917000Y-118810000D01*
G36*
X107917000Y-118810000D02*
G01*
X105127000Y-118810000D01*
X105127000Y-118070000D01*
X107917000Y-118070000D01*
X107917000Y-118810000D01*
G37*
%TO.C,U702*%
X99489000Y-113103000D02*
X98929000Y-113103000D01*
X98929000Y-112917000D01*
X99489000Y-112917000D01*
X99489000Y-113103000D01*
G36*
X99489000Y-113103000D02*
G01*
X98929000Y-113103000D01*
X98929000Y-112917000D01*
X99489000Y-112917000D01*
X99489000Y-113103000D01*
G37*
X99489000Y-113603000D02*
X98929000Y-113603000D01*
X98929000Y-113417000D01*
X99489000Y-113417000D01*
X99489000Y-113603000D01*
G36*
X99489000Y-113603000D02*
G01*
X98929000Y-113603000D01*
X98929000Y-113417000D01*
X99489000Y-113417000D01*
X99489000Y-113603000D01*
G37*
X99489000Y-114197000D02*
X98929000Y-114197000D01*
X98929000Y-113823000D01*
X99489000Y-113823000D01*
X99489000Y-114197000D01*
G36*
X99489000Y-114197000D02*
G01*
X98929000Y-114197000D01*
X98929000Y-113823000D01*
X99489000Y-113823000D01*
X99489000Y-114197000D01*
G37*
X99489000Y-114603000D02*
X98929000Y-114603000D01*
X98929000Y-114417000D01*
X99489000Y-114417000D01*
X99489000Y-114603000D01*
G36*
X99489000Y-114603000D02*
G01*
X98929000Y-114603000D01*
X98929000Y-114417000D01*
X99489000Y-114417000D01*
X99489000Y-114603000D01*
G37*
X99489000Y-115103000D02*
X98929000Y-115103000D01*
X98929000Y-114917000D01*
X99489000Y-114917000D01*
X99489000Y-115103000D01*
G36*
X99489000Y-115103000D02*
G01*
X98929000Y-115103000D01*
X98929000Y-114917000D01*
X99489000Y-114917000D01*
X99489000Y-115103000D01*
G37*
X100309000Y-113103000D02*
X99749000Y-113103000D01*
X99749000Y-112917000D01*
X100309000Y-112917000D01*
X100309000Y-113103000D01*
G36*
X100309000Y-113103000D02*
G01*
X99749000Y-113103000D01*
X99749000Y-112917000D01*
X100309000Y-112917000D01*
X100309000Y-113103000D01*
G37*
X100309000Y-113603000D02*
X99749000Y-113603000D01*
X99749000Y-113417000D01*
X100309000Y-113417000D01*
X100309000Y-113603000D01*
G36*
X100309000Y-113603000D02*
G01*
X99749000Y-113603000D01*
X99749000Y-113417000D01*
X100309000Y-113417000D01*
X100309000Y-113603000D01*
G37*
X100309000Y-114197000D02*
X99749000Y-114197000D01*
X99749000Y-113823000D01*
X100309000Y-113823000D01*
X100309000Y-114197000D01*
G36*
X100309000Y-114197000D02*
G01*
X99749000Y-114197000D01*
X99749000Y-113823000D01*
X100309000Y-113823000D01*
X100309000Y-114197000D01*
G37*
X100309000Y-114603000D02*
X99749000Y-114603000D01*
X99749000Y-114417000D01*
X100309000Y-114417000D01*
X100309000Y-114603000D01*
G36*
X100309000Y-114603000D02*
G01*
X99749000Y-114603000D01*
X99749000Y-114417000D01*
X100309000Y-114417000D01*
X100309000Y-114603000D01*
G37*
X100309000Y-115103000D02*
X99749000Y-115103000D01*
X99749000Y-114917000D01*
X100309000Y-114917000D01*
X100309000Y-115103000D01*
G36*
X100309000Y-115103000D02*
G01*
X99749000Y-115103000D01*
X99749000Y-114917000D01*
X100309000Y-114917000D01*
X100309000Y-115103000D01*
G37*
%TO.C,U501*%
X76694500Y-82375000D02*
X76508500Y-82375000D01*
X76508500Y-81815000D01*
X76694500Y-81815000D01*
X76694500Y-82375000D01*
G36*
X76694500Y-82375000D02*
G01*
X76508500Y-82375000D01*
X76508500Y-81815000D01*
X76694500Y-81815000D01*
X76694500Y-82375000D01*
G37*
X76694500Y-83195000D02*
X76508500Y-83195000D01*
X76508500Y-82635000D01*
X76694500Y-82635000D01*
X76694500Y-83195000D01*
G36*
X76694500Y-83195000D02*
G01*
X76508500Y-83195000D01*
X76508500Y-82635000D01*
X76694500Y-82635000D01*
X76694500Y-83195000D01*
G37*
X77194500Y-82375000D02*
X77008500Y-82375000D01*
X77008500Y-81815000D01*
X77194500Y-81815000D01*
X77194500Y-82375000D01*
G36*
X77194500Y-82375000D02*
G01*
X77008500Y-82375000D01*
X77008500Y-81815000D01*
X77194500Y-81815000D01*
X77194500Y-82375000D01*
G37*
X77194500Y-83195000D02*
X77008500Y-83195000D01*
X77008500Y-82635000D01*
X77194500Y-82635000D01*
X77194500Y-83195000D01*
G36*
X77194500Y-83195000D02*
G01*
X77008500Y-83195000D01*
X77008500Y-82635000D01*
X77194500Y-82635000D01*
X77194500Y-83195000D01*
G37*
X77788500Y-82375000D02*
X77414500Y-82375000D01*
X77414500Y-81815000D01*
X77788500Y-81815000D01*
X77788500Y-82375000D01*
G36*
X77788500Y-82375000D02*
G01*
X77414500Y-82375000D01*
X77414500Y-81815000D01*
X77788500Y-81815000D01*
X77788500Y-82375000D01*
G37*
X77788500Y-83195000D02*
X77414500Y-83195000D01*
X77414500Y-82635000D01*
X77788500Y-82635000D01*
X77788500Y-83195000D01*
G36*
X77788500Y-83195000D02*
G01*
X77414500Y-83195000D01*
X77414500Y-82635000D01*
X77788500Y-82635000D01*
X77788500Y-83195000D01*
G37*
X78194500Y-82375000D02*
X78008500Y-82375000D01*
X78008500Y-81815000D01*
X78194500Y-81815000D01*
X78194500Y-82375000D01*
G36*
X78194500Y-82375000D02*
G01*
X78008500Y-82375000D01*
X78008500Y-81815000D01*
X78194500Y-81815000D01*
X78194500Y-82375000D01*
G37*
X78194500Y-83195000D02*
X78008500Y-83195000D01*
X78008500Y-82635000D01*
X78194500Y-82635000D01*
X78194500Y-83195000D01*
G36*
X78194500Y-83195000D02*
G01*
X78008500Y-83195000D01*
X78008500Y-82635000D01*
X78194500Y-82635000D01*
X78194500Y-83195000D01*
G37*
X78694500Y-82375000D02*
X78508500Y-82375000D01*
X78508500Y-81815000D01*
X78694500Y-81815000D01*
X78694500Y-82375000D01*
G36*
X78694500Y-82375000D02*
G01*
X78508500Y-82375000D01*
X78508500Y-81815000D01*
X78694500Y-81815000D01*
X78694500Y-82375000D01*
G37*
X78694500Y-83195000D02*
X78508500Y-83195000D01*
X78508500Y-82635000D01*
X78694500Y-82635000D01*
X78694500Y-83195000D01*
G36*
X78694500Y-83195000D02*
G01*
X78508500Y-83195000D01*
X78508500Y-82635000D01*
X78694500Y-82635000D01*
X78694500Y-83195000D01*
G37*
%TO.C,U502*%
X73633000Y-82375000D02*
X73447000Y-82375000D01*
X73447000Y-81815000D01*
X73633000Y-81815000D01*
X73633000Y-82375000D01*
G36*
X73633000Y-82375000D02*
G01*
X73447000Y-82375000D01*
X73447000Y-81815000D01*
X73633000Y-81815000D01*
X73633000Y-82375000D01*
G37*
X73633000Y-83195000D02*
X73447000Y-83195000D01*
X73447000Y-82635000D01*
X73633000Y-82635000D01*
X73633000Y-83195000D01*
G36*
X73633000Y-83195000D02*
G01*
X73447000Y-83195000D01*
X73447000Y-82635000D01*
X73633000Y-82635000D01*
X73633000Y-83195000D01*
G37*
X74133000Y-82375000D02*
X73947000Y-82375000D01*
X73947000Y-81815000D01*
X74133000Y-81815000D01*
X74133000Y-82375000D01*
G36*
X74133000Y-82375000D02*
G01*
X73947000Y-82375000D01*
X73947000Y-81815000D01*
X74133000Y-81815000D01*
X74133000Y-82375000D01*
G37*
X74133000Y-83195000D02*
X73947000Y-83195000D01*
X73947000Y-82635000D01*
X74133000Y-82635000D01*
X74133000Y-83195000D01*
G36*
X74133000Y-83195000D02*
G01*
X73947000Y-83195000D01*
X73947000Y-82635000D01*
X74133000Y-82635000D01*
X74133000Y-83195000D01*
G37*
X74727000Y-82375000D02*
X74353000Y-82375000D01*
X74353000Y-81815000D01*
X74727000Y-81815000D01*
X74727000Y-82375000D01*
G36*
X74727000Y-82375000D02*
G01*
X74353000Y-82375000D01*
X74353000Y-81815000D01*
X74727000Y-81815000D01*
X74727000Y-82375000D01*
G37*
X74727000Y-83195000D02*
X74353000Y-83195000D01*
X74353000Y-82635000D01*
X74727000Y-82635000D01*
X74727000Y-83195000D01*
G36*
X74727000Y-83195000D02*
G01*
X74353000Y-83195000D01*
X74353000Y-82635000D01*
X74727000Y-82635000D01*
X74727000Y-83195000D01*
G37*
X75133000Y-82375000D02*
X74947000Y-82375000D01*
X74947000Y-81815000D01*
X75133000Y-81815000D01*
X75133000Y-82375000D01*
G36*
X75133000Y-82375000D02*
G01*
X74947000Y-82375000D01*
X74947000Y-81815000D01*
X75133000Y-81815000D01*
X75133000Y-82375000D01*
G37*
X75133000Y-83195000D02*
X74947000Y-83195000D01*
X74947000Y-82635000D01*
X75133000Y-82635000D01*
X75133000Y-83195000D01*
G36*
X75133000Y-83195000D02*
G01*
X74947000Y-83195000D01*
X74947000Y-82635000D01*
X75133000Y-82635000D01*
X75133000Y-83195000D01*
G37*
X75633000Y-82375000D02*
X75447000Y-82375000D01*
X75447000Y-81815000D01*
X75633000Y-81815000D01*
X75633000Y-82375000D01*
G36*
X75633000Y-82375000D02*
G01*
X75447000Y-82375000D01*
X75447000Y-81815000D01*
X75633000Y-81815000D01*
X75633000Y-82375000D01*
G37*
X75633000Y-83195000D02*
X75447000Y-83195000D01*
X75447000Y-82635000D01*
X75633000Y-82635000D01*
X75633000Y-83195000D01*
G36*
X75633000Y-83195000D02*
G01*
X75447000Y-83195000D01*
X75447000Y-82635000D01*
X75633000Y-82635000D01*
X75633000Y-83195000D01*
G37*
%TO.C,U5*%
X106790000Y-96083000D02*
X106230000Y-96083000D01*
X106230000Y-95897000D01*
X106790000Y-95897000D01*
X106790000Y-96083000D01*
G36*
X106790000Y-96083000D02*
G01*
X106230000Y-96083000D01*
X106230000Y-95897000D01*
X106790000Y-95897000D01*
X106790000Y-96083000D01*
G37*
X106790000Y-96583000D02*
X106230000Y-96583000D01*
X106230000Y-96397000D01*
X106790000Y-96397000D01*
X106790000Y-96583000D01*
G36*
X106790000Y-96583000D02*
G01*
X106230000Y-96583000D01*
X106230000Y-96397000D01*
X106790000Y-96397000D01*
X106790000Y-96583000D01*
G37*
X106790000Y-97177000D02*
X106230000Y-97177000D01*
X106230000Y-96803000D01*
X106790000Y-96803000D01*
X106790000Y-97177000D01*
G36*
X106790000Y-97177000D02*
G01*
X106230000Y-97177000D01*
X106230000Y-96803000D01*
X106790000Y-96803000D01*
X106790000Y-97177000D01*
G37*
X106790000Y-97583000D02*
X106230000Y-97583000D01*
X106230000Y-97397000D01*
X106790000Y-97397000D01*
X106790000Y-97583000D01*
G36*
X106790000Y-97583000D02*
G01*
X106230000Y-97583000D01*
X106230000Y-97397000D01*
X106790000Y-97397000D01*
X106790000Y-97583000D01*
G37*
X106790000Y-98083000D02*
X106230000Y-98083000D01*
X106230000Y-97897000D01*
X106790000Y-97897000D01*
X106790000Y-98083000D01*
G36*
X106790000Y-98083000D02*
G01*
X106230000Y-98083000D01*
X106230000Y-97897000D01*
X106790000Y-97897000D01*
X106790000Y-98083000D01*
G37*
X107610000Y-96083000D02*
X107050000Y-96083000D01*
X107050000Y-95897000D01*
X107610000Y-95897000D01*
X107610000Y-96083000D01*
G36*
X107610000Y-96083000D02*
G01*
X107050000Y-96083000D01*
X107050000Y-95897000D01*
X107610000Y-95897000D01*
X107610000Y-96083000D01*
G37*
X107610000Y-96583000D02*
X107050000Y-96583000D01*
X107050000Y-96397000D01*
X107610000Y-96397000D01*
X107610000Y-96583000D01*
G36*
X107610000Y-96583000D02*
G01*
X107050000Y-96583000D01*
X107050000Y-96397000D01*
X107610000Y-96397000D01*
X107610000Y-96583000D01*
G37*
X107610000Y-97177000D02*
X107050000Y-97177000D01*
X107050000Y-96803000D01*
X107610000Y-96803000D01*
X107610000Y-97177000D01*
G36*
X107610000Y-97177000D02*
G01*
X107050000Y-97177000D01*
X107050000Y-96803000D01*
X107610000Y-96803000D01*
X107610000Y-97177000D01*
G37*
X107610000Y-97583000D02*
X107050000Y-97583000D01*
X107050000Y-97397000D01*
X107610000Y-97397000D01*
X107610000Y-97583000D01*
G36*
X107610000Y-97583000D02*
G01*
X107050000Y-97583000D01*
X107050000Y-97397000D01*
X107610000Y-97397000D01*
X107610000Y-97583000D01*
G37*
X107610000Y-98083000D02*
X107050000Y-98083000D01*
X107050000Y-97897000D01*
X107610000Y-97897000D01*
X107610000Y-98083000D01*
G36*
X107610000Y-98083000D02*
G01*
X107050000Y-98083000D01*
X107050000Y-97897000D01*
X107610000Y-97897000D01*
X107610000Y-98083000D01*
G37*
%TO.C,U3*%
X105083000Y-101900000D02*
X104897000Y-101900000D01*
X104897000Y-101340000D01*
X105083000Y-101340000D01*
X105083000Y-101900000D01*
G36*
X105083000Y-101900000D02*
G01*
X104897000Y-101900000D01*
X104897000Y-101340000D01*
X105083000Y-101340000D01*
X105083000Y-101900000D01*
G37*
X105083000Y-102720000D02*
X104897000Y-102720000D01*
X104897000Y-102160000D01*
X105083000Y-102160000D01*
X105083000Y-102720000D01*
G36*
X105083000Y-102720000D02*
G01*
X104897000Y-102720000D01*
X104897000Y-102160000D01*
X105083000Y-102160000D01*
X105083000Y-102720000D01*
G37*
X105583000Y-101900000D02*
X105397000Y-101900000D01*
X105397000Y-101340000D01*
X105583000Y-101340000D01*
X105583000Y-101900000D01*
G36*
X105583000Y-101900000D02*
G01*
X105397000Y-101900000D01*
X105397000Y-101340000D01*
X105583000Y-101340000D01*
X105583000Y-101900000D01*
G37*
X105583000Y-102720000D02*
X105397000Y-102720000D01*
X105397000Y-102160000D01*
X105583000Y-102160000D01*
X105583000Y-102720000D01*
G36*
X105583000Y-102720000D02*
G01*
X105397000Y-102720000D01*
X105397000Y-102160000D01*
X105583000Y-102160000D01*
X105583000Y-102720000D01*
G37*
X106177000Y-101900000D02*
X105803000Y-101900000D01*
X105803000Y-101340000D01*
X106177000Y-101340000D01*
X106177000Y-101900000D01*
G36*
X106177000Y-101900000D02*
G01*
X105803000Y-101900000D01*
X105803000Y-101340000D01*
X106177000Y-101340000D01*
X106177000Y-101900000D01*
G37*
X106177000Y-102720000D02*
X105803000Y-102720000D01*
X105803000Y-102160000D01*
X106177000Y-102160000D01*
X106177000Y-102720000D01*
G36*
X106177000Y-102720000D02*
G01*
X105803000Y-102720000D01*
X105803000Y-102160000D01*
X106177000Y-102160000D01*
X106177000Y-102720000D01*
G37*
X106583000Y-101900000D02*
X106397000Y-101900000D01*
X106397000Y-101340000D01*
X106583000Y-101340000D01*
X106583000Y-101900000D01*
G36*
X106583000Y-101900000D02*
G01*
X106397000Y-101900000D01*
X106397000Y-101340000D01*
X106583000Y-101340000D01*
X106583000Y-101900000D01*
G37*
X106583000Y-102720000D02*
X106397000Y-102720000D01*
X106397000Y-102160000D01*
X106583000Y-102160000D01*
X106583000Y-102720000D01*
G36*
X106583000Y-102720000D02*
G01*
X106397000Y-102720000D01*
X106397000Y-102160000D01*
X106583000Y-102160000D01*
X106583000Y-102720000D01*
G37*
X107083000Y-101900000D02*
X106897000Y-101900000D01*
X106897000Y-101340000D01*
X107083000Y-101340000D01*
X107083000Y-101900000D01*
G36*
X107083000Y-101900000D02*
G01*
X106897000Y-101900000D01*
X106897000Y-101340000D01*
X107083000Y-101340000D01*
X107083000Y-101900000D01*
G37*
X107083000Y-102720000D02*
X106897000Y-102720000D01*
X106897000Y-102160000D01*
X107083000Y-102160000D01*
X107083000Y-102720000D01*
G36*
X107083000Y-102720000D02*
G01*
X106897000Y-102720000D01*
X106897000Y-102160000D01*
X107083000Y-102160000D01*
X107083000Y-102720000D01*
G37*
%TO.C,U703*%
X99520000Y-117413000D02*
X98960000Y-117413000D01*
X98960000Y-117227000D01*
X99520000Y-117227000D01*
X99520000Y-117413000D01*
G36*
X99520000Y-117413000D02*
G01*
X98960000Y-117413000D01*
X98960000Y-117227000D01*
X99520000Y-117227000D01*
X99520000Y-117413000D01*
G37*
X99520000Y-117913000D02*
X98960000Y-117913000D01*
X98960000Y-117727000D01*
X99520000Y-117727000D01*
X99520000Y-117913000D01*
G36*
X99520000Y-117913000D02*
G01*
X98960000Y-117913000D01*
X98960000Y-117727000D01*
X99520000Y-117727000D01*
X99520000Y-117913000D01*
G37*
X99520000Y-118507000D02*
X98960000Y-118507000D01*
X98960000Y-118133000D01*
X99520000Y-118133000D01*
X99520000Y-118507000D01*
G36*
X99520000Y-118507000D02*
G01*
X98960000Y-118507000D01*
X98960000Y-118133000D01*
X99520000Y-118133000D01*
X99520000Y-118507000D01*
G37*
X99520000Y-118913000D02*
X98960000Y-118913000D01*
X98960000Y-118727000D01*
X99520000Y-118727000D01*
X99520000Y-118913000D01*
G36*
X99520000Y-118913000D02*
G01*
X98960000Y-118913000D01*
X98960000Y-118727000D01*
X99520000Y-118727000D01*
X99520000Y-118913000D01*
G37*
X99520000Y-119413000D02*
X98960000Y-119413000D01*
X98960000Y-119227000D01*
X99520000Y-119227000D01*
X99520000Y-119413000D01*
G36*
X99520000Y-119413000D02*
G01*
X98960000Y-119413000D01*
X98960000Y-119227000D01*
X99520000Y-119227000D01*
X99520000Y-119413000D01*
G37*
X100340000Y-117413000D02*
X99780000Y-117413000D01*
X99780000Y-117227000D01*
X100340000Y-117227000D01*
X100340000Y-117413000D01*
G36*
X100340000Y-117413000D02*
G01*
X99780000Y-117413000D01*
X99780000Y-117227000D01*
X100340000Y-117227000D01*
X100340000Y-117413000D01*
G37*
X100340000Y-117913000D02*
X99780000Y-117913000D01*
X99780000Y-117727000D01*
X100340000Y-117727000D01*
X100340000Y-117913000D01*
G36*
X100340000Y-117913000D02*
G01*
X99780000Y-117913000D01*
X99780000Y-117727000D01*
X100340000Y-117727000D01*
X100340000Y-117913000D01*
G37*
X100340000Y-118507000D02*
X99780000Y-118507000D01*
X99780000Y-118133000D01*
X100340000Y-118133000D01*
X100340000Y-118507000D01*
G36*
X100340000Y-118507000D02*
G01*
X99780000Y-118507000D01*
X99780000Y-118133000D01*
X100340000Y-118133000D01*
X100340000Y-118507000D01*
G37*
X100340000Y-118913000D02*
X99780000Y-118913000D01*
X99780000Y-118727000D01*
X100340000Y-118727000D01*
X100340000Y-118913000D01*
G36*
X100340000Y-118913000D02*
G01*
X99780000Y-118913000D01*
X99780000Y-118727000D01*
X100340000Y-118727000D01*
X100340000Y-118913000D01*
G37*
X100340000Y-119413000D02*
X99780000Y-119413000D01*
X99780000Y-119227000D01*
X100340000Y-119227000D01*
X100340000Y-119413000D01*
G36*
X100340000Y-119413000D02*
G01*
X99780000Y-119413000D01*
X99780000Y-119227000D01*
X100340000Y-119227000D01*
X100340000Y-119413000D01*
G37*
%TD*%
D11*
%TO.C,C339*%
X99410000Y-103765000D03*
X98510000Y-103765000D03*
%TD*%
%TO.C,C340*%
X91330000Y-92565000D03*
X90430000Y-92565000D03*
%TD*%
D12*
%TO.C,C342*%
X104060000Y-95735000D03*
X104060000Y-94835000D03*
%TD*%
%TO.C,C343*%
X91250000Y-94915000D03*
X91250000Y-94015000D03*
%TD*%
%TO.C,C344*%
X103250000Y-95735000D03*
X103250000Y-94835000D03*
%TD*%
D11*
%TO.C,C345*%
X99420000Y-104575000D03*
X98520000Y-104575000D03*
%TD*%
%TO.C,C410*%
X104750000Y-75200000D03*
X105650000Y-75200000D03*
%TD*%
%TO.C,C411*%
X104750000Y-73200000D03*
X105650000Y-73200000D03*
%TD*%
%TO.C,C412*%
X89150000Y-79600000D03*
X90050000Y-79600000D03*
%TD*%
%TO.C,C413*%
X90050000Y-77800000D03*
X89150000Y-77800000D03*
%TD*%
%TO.C,C414*%
X90050000Y-76100000D03*
X89150000Y-76100000D03*
%TD*%
%TO.C,C415*%
X104750000Y-77600000D03*
X105650000Y-77600000D03*
%TD*%
%TO.C,C416*%
X90050000Y-72200000D03*
X89150000Y-72200000D03*
%TD*%
%TO.C,C417*%
X90050000Y-74000000D03*
X89150000Y-74000000D03*
%TD*%
%TO.C,C418*%
X104750000Y-71200000D03*
X105650000Y-71200000D03*
%TD*%
D12*
%TO.C,C419*%
X97600000Y-67900000D03*
X97600000Y-68800000D03*
%TD*%
D11*
%TO.C,C420*%
X104750000Y-81836585D03*
X105650000Y-81836585D03*
%TD*%
%TO.C,C421*%
X104750000Y-79866585D03*
X105650000Y-79866585D03*
%TD*%
D12*
%TO.C,C702*%
X96080000Y-102830000D03*
X96080000Y-103730000D03*
%TD*%
D11*
%TO.C,C1101*%
X90350000Y-119650000D03*
X91250000Y-119650000D03*
%TD*%
%TO.C,C1102*%
X91250000Y-120500000D03*
X90350000Y-120500000D03*
%TD*%
D13*
%TO.C,D1101*%
X85421800Y-120100000D03*
X84378200Y-120100000D03*
%TD*%
D14*
%TO.C,J701*%
X106525000Y-110820000D03*
X102455000Y-110820000D03*
X106525000Y-112090000D03*
X102455000Y-112090000D03*
X106525000Y-113360000D03*
X102455000Y-113360000D03*
X106525000Y-114630000D03*
X102455000Y-114630000D03*
X106525000Y-115900000D03*
X102455000Y-115900000D03*
X106525000Y-117170000D03*
X102455000Y-117170000D03*
X106525000Y-118440000D03*
X102455000Y-118440000D03*
%TD*%
D15*
%TO.C,R702*%
X93030000Y-110200000D03*
X93030000Y-111220000D03*
%TD*%
%TO.C,R703*%
X94920000Y-110200000D03*
X94920000Y-111220000D03*
%TD*%
%TO.C,R704*%
X96810000Y-110200000D03*
X96810000Y-111220000D03*
%TD*%
D16*
%TO.C,R705*%
X97750000Y-111220000D03*
X97750000Y-110200000D03*
%TD*%
D15*
%TO.C,R706*%
X95870000Y-110200000D03*
X95870000Y-111220000D03*
%TD*%
D16*
%TO.C,R707*%
X93970000Y-111220000D03*
X93970000Y-110200000D03*
%TD*%
D17*
%TO.C,TP703*%
X97680000Y-108650000D03*
%TD*%
%TO.C,TP704*%
X99490000Y-105380000D03*
%TD*%
%TO.C,TP705*%
X96030000Y-108630000D03*
%TD*%
%TO.C,TP706*%
X94600000Y-108530000D03*
%TD*%
D18*
%TO.C,R407*%
X102770000Y-74590000D03*
X103790000Y-74590000D03*
%TD*%
D19*
%TO.C,R406*%
X91972601Y-75493415D03*
X90952601Y-75493415D03*
%TD*%
D17*
%TO.C,TP1001*%
X99360000Y-64500000D03*
%TD*%
D19*
%TO.C,R203*%
X100110000Y-116200000D03*
X99090000Y-116200000D03*
%TD*%
D17*
%TO.C,TP201*%
X72000000Y-107500000D03*
%TD*%
%TO.C,TP601*%
X101500000Y-108000000D03*
%TD*%
%TO.C,TP701*%
X93840000Y-108540000D03*
%TD*%
%TO.C,TP210*%
X79000000Y-113500000D03*
%TD*%
D11*
%TO.C,C321*%
X95260000Y-95710000D03*
X94360000Y-95710000D03*
%TD*%
%TO.C,C322*%
X101750000Y-95700000D03*
X100850000Y-95700000D03*
%TD*%
%TO.C,C319*%
X95250000Y-98920000D03*
X94350000Y-98920000D03*
%TD*%
%TO.C,C333*%
X99310000Y-102920000D03*
X100210000Y-102920000D03*
%TD*%
D17*
%TO.C,TP1005*%
X91500000Y-64850000D03*
%TD*%
D11*
%TO.C,C327*%
X95240000Y-92620000D03*
X94340000Y-92620000D03*
%TD*%
D18*
%TO.C,R414*%
X102757400Y-82291585D03*
X103777400Y-82291585D03*
%TD*%
D20*
%TO.C,TP605*%
X85200000Y-99550000D03*
%TD*%
D19*
%TO.C,R506*%
X80310000Y-85925000D03*
X79290000Y-85925000D03*
%TD*%
%TO.C,R424*%
X91972601Y-72643415D03*
X90952601Y-72643415D03*
%TD*%
%TO.C,R408*%
X91972601Y-77393415D03*
X90952601Y-77393415D03*
%TD*%
D21*
%TO.C,D501*%
X69690000Y-81995000D03*
D22*
X71590000Y-81995000D03*
%TD*%
D23*
%TO.C,R403*%
X100700624Y-75370624D03*
X99979376Y-74649376D03*
%TD*%
D24*
%TO.C,TP603*%
X84000000Y-99500000D03*
%TD*%
D11*
%TO.C,C331*%
X101780000Y-93425000D03*
X100880000Y-93425000D03*
%TD*%
%TO.C,C307*%
X100130000Y-95700000D03*
X99230000Y-95700000D03*
%TD*%
D18*
%TO.C,R422*%
X102757400Y-77090000D03*
X103777400Y-77090000D03*
%TD*%
D11*
%TO.C,C501*%
X69370000Y-83355000D03*
X70270000Y-83355000D03*
%TD*%
D18*
%TO.C,R418*%
X102760000Y-72670000D03*
X103780000Y-72670000D03*
%TD*%
D16*
%TO.C,R712*%
X108750000Y-118160000D03*
X108750000Y-117140000D03*
%TD*%
D11*
%TO.C,C318*%
X98510000Y-95700000D03*
X97610000Y-95700000D03*
%TD*%
%TO.C,C341*%
X104910000Y-93845000D03*
X104010000Y-93845000D03*
%TD*%
D18*
%TO.C,R416*%
X102760000Y-73620000D03*
X103780000Y-73620000D03*
%TD*%
D12*
%TO.C,C203*%
X63240000Y-103400000D03*
X63240000Y-102500000D03*
%TD*%
D17*
%TO.C,TP1002*%
X97780000Y-63220000D03*
%TD*%
D11*
%TO.C,C330*%
X96920000Y-93415000D03*
X96020000Y-93415000D03*
%TD*%
%TO.C,C311*%
X93590000Y-98920000D03*
X92690000Y-98920000D03*
%TD*%
%TO.C,C301*%
X95970000Y-100520000D03*
X96870000Y-100520000D03*
%TD*%
D25*
%TO.C,TP702*%
X78555000Y-101705000D03*
%TD*%
D18*
%TO.C,R410*%
X102757400Y-80316585D03*
X103777400Y-80316585D03*
%TD*%
D17*
%TO.C,TP1004*%
X91100000Y-65700000D03*
%TD*%
%TO.C,TP209*%
X70000000Y-95400000D03*
%TD*%
D11*
%TO.C,C305*%
X93610000Y-94895000D03*
X94510000Y-94895000D03*
%TD*%
D17*
%TO.C,TP707*%
X98460000Y-108660000D03*
%TD*%
D18*
%TO.C,R505*%
X77380000Y-85915000D03*
X78400000Y-85915000D03*
%TD*%
D11*
%TO.C,C317*%
X96880000Y-97310000D03*
X95980000Y-97310000D03*
%TD*%
D19*
%TO.C,R501*%
X80685000Y-82575000D03*
X79665000Y-82575000D03*
%TD*%
D11*
%TO.C,C335*%
X88730000Y-95680000D03*
X89630000Y-95680000D03*
%TD*%
D18*
%TO.C,R426*%
X102750000Y-78380000D03*
X103770000Y-78380000D03*
%TD*%
D19*
%TO.C,R423*%
X91972601Y-73593415D03*
X90952601Y-73593415D03*
%TD*%
D11*
%TO.C,C328*%
X101780000Y-92600000D03*
X100880000Y-92600000D03*
%TD*%
D17*
%TO.C,TP1003*%
X105450000Y-63560000D03*
%TD*%
D19*
%TO.C,R419*%
X91972601Y-81243415D03*
X90952601Y-81243415D03*
%TD*%
D16*
%TO.C,R404*%
X101800000Y-78650000D03*
X101800000Y-77630000D03*
%TD*%
D17*
%TO.C,TP1006*%
X91900000Y-65700000D03*
%TD*%
D11*
%TO.C,C306*%
X101770000Y-97310000D03*
X100870000Y-97310000D03*
%TD*%
D17*
%TO.C,TP208*%
X80300000Y-96800000D03*
%TD*%
D11*
%TO.C,C336*%
X97610000Y-100520000D03*
X98510000Y-100520000D03*
%TD*%
%TO.C,C326*%
X96920000Y-92600000D03*
X96020000Y-92600000D03*
%TD*%
D18*
%TO.C,R503*%
X73550000Y-85915000D03*
X74570000Y-85915000D03*
%TD*%
D24*
%TO.C,TP604*%
X86300000Y-99500000D03*
%TD*%
D18*
%TO.C,R507*%
X81200000Y-85925000D03*
X82220000Y-85925000D03*
%TD*%
D11*
%TO.C,C334*%
X99250000Y-100520000D03*
X100150000Y-100520000D03*
%TD*%
D19*
%TO.C,R409*%
X91972601Y-76443415D03*
X90952601Y-76443415D03*
%TD*%
D17*
%TO.C,TP206*%
X69300000Y-106200000D03*
%TD*%
%TO.C,TP1101*%
X89600000Y-119700000D03*
%TD*%
D11*
%TO.C,C337*%
X99240000Y-97310000D03*
X100140000Y-97310000D03*
%TD*%
%TO.C,C316*%
X95260000Y-97310000D03*
X94360000Y-97310000D03*
%TD*%
D18*
%TO.C,R412*%
X102767400Y-81301585D03*
X103787400Y-81301585D03*
%TD*%
D19*
%TO.C,R415*%
X91992599Y-79293415D03*
X90972599Y-79293415D03*
%TD*%
D11*
%TO.C,C303*%
X100160000Y-98910000D03*
X99260000Y-98910000D03*
%TD*%
%TO.C,C310*%
X98510000Y-97310000D03*
X97610000Y-97310000D03*
%TD*%
D19*
%TO.C,R421*%
X91972601Y-74543415D03*
X90952601Y-74543415D03*
%TD*%
D16*
%TO.C,R428*%
X96615000Y-68840001D03*
X96615000Y-67820001D03*
%TD*%
D11*
%TO.C,C314*%
X93600000Y-95710000D03*
X92700000Y-95710000D03*
%TD*%
D19*
%TO.C,R502*%
X72660000Y-85905000D03*
X71640000Y-85905000D03*
%TD*%
%TO.C,R411*%
X91972601Y-78343415D03*
X90952601Y-78343415D03*
%TD*%
%TO.C,R425*%
X91972601Y-71693415D03*
X90952601Y-71693415D03*
%TD*%
D11*
%TO.C,C329*%
X93610000Y-92675000D03*
X92710000Y-92675000D03*
%TD*%
%TO.C,C332*%
X99310000Y-102100000D03*
X100210000Y-102100000D03*
%TD*%
D17*
%TO.C,TP211*%
X72960000Y-112670000D03*
%TD*%
D11*
%TO.C,C315*%
X96870000Y-98920000D03*
X95970000Y-98920000D03*
%TD*%
%TO.C,C313*%
X93600000Y-97310000D03*
X92700000Y-97310000D03*
%TD*%
D17*
%TO.C,TP602*%
X101500000Y-109100000D03*
%TD*%
%TO.C,TP203*%
X69220000Y-109240000D03*
%TD*%
D11*
%TO.C,C324*%
X100160000Y-92600000D03*
X99260000Y-92600000D03*
%TD*%
%TO.C,C304*%
X101775000Y-100520000D03*
X100875000Y-100520000D03*
%TD*%
D18*
%TO.C,R417*%
X102757400Y-76136585D03*
X103777400Y-76136585D03*
%TD*%
D11*
%TO.C,C302*%
X101790000Y-98910000D03*
X100890000Y-98910000D03*
%TD*%
D17*
%TO.C,TP204*%
X90000000Y-73100000D03*
%TD*%
D11*
%TO.C,C323*%
X98410000Y-94875000D03*
X99310000Y-94875000D03*
%TD*%
D16*
%TO.C,R427*%
X95640000Y-68840001D03*
X95640000Y-67820001D03*
%TD*%
D17*
%TO.C,TP207*%
X69300000Y-107100000D03*
%TD*%
D11*
%TO.C,C309*%
X96880000Y-95700000D03*
X95980000Y-95700000D03*
%TD*%
D17*
%TO.C,TP202*%
X105700000Y-78500000D03*
%TD*%
D11*
%TO.C,C325*%
X98540000Y-92600000D03*
X97640000Y-92600000D03*
%TD*%
D16*
%TO.C,R429*%
X94665000Y-68840001D03*
X94665000Y-67820001D03*
%TD*%
D11*
%TO.C,C308*%
X93590000Y-100520000D03*
X92690000Y-100520000D03*
%TD*%
D18*
%TO.C,R420*%
X102757400Y-79366585D03*
X103777400Y-79366585D03*
%TD*%
D17*
%TO.C,TP205*%
X105800000Y-93800000D03*
%TD*%
D11*
%TO.C,C320*%
X98510000Y-98910000D03*
X97610000Y-98910000D03*
%TD*%
%TO.C,C312*%
X95250000Y-100520000D03*
X94350000Y-100520000D03*
%TD*%
D19*
%TO.C,R413*%
X91972601Y-80243415D03*
X90952601Y-80243415D03*
%TD*%
D16*
%TO.C,R6*%
X70500000Y-121610000D03*
X70500000Y-120590000D03*
%TD*%
D19*
%TO.C,R8*%
X76490000Y-85910000D03*
X75470000Y-85910000D03*
%TD*%
D26*
%TO.C,D3*%
X62190000Y-102680000D03*
X62190000Y-103380000D03*
%TD*%
%TO.C,D6*%
X108890000Y-112192500D03*
X108890000Y-112892500D03*
%TD*%
D27*
%TO.C,D4*%
X103890000Y-108621800D03*
X103890000Y-107578200D03*
%TD*%
D28*
%TO.C,J3*%
X108952500Y-108980000D03*
X105652500Y-108980000D03*
X108952500Y-107980000D03*
X105652500Y-107980000D03*
X108952500Y-106980000D03*
X105652500Y-106980000D03*
X108952500Y-105980000D03*
X105652500Y-105980000D03*
X108952500Y-104980000D03*
X105652500Y-104980000D03*
X108952500Y-103980000D03*
X105652500Y-103980000D03*
%TD*%
D13*
%TO.C,D1*%
X98851800Y-120610000D03*
X97808200Y-120610000D03*
%TD*%
M02*
