%TF.GenerationSoftware,KiCad,Pcbnew,9.0.7*%
%TF.CreationDate,2026-01-26T18:53:02-07:00*%
%TF.ProjectId,MPU_MOD,4d50555f-4d4f-4442-9e6b-696361645f70,rev?*%
%TF.SameCoordinates,Original*%
%TF.FileFunction,Profile,NP*%
%FSLAX46Y46*%
G04 Gerber Fmt 4.6, Leading zero omitted, Abs format (unit mm)*
G04 Created by KiCad (PCBNEW 9.0.7) date 2026-01-26 18:53:02*
%MOMM*%
%LPD*%
G01*
G04 APERTURE LIST*
%TA.AperFunction,Profile*%
%ADD10C,0.050000*%
%TD*%
%TA.AperFunction,Profile*%
%ADD11C,0.010000*%
%TD*%
G04 APERTURE END LIST*
D10*
X60000000Y-59000000D02*
X110000000Y-59000000D01*
X110000000Y-129000000D01*
X60000000Y-129000000D01*
X60000000Y-59000000D01*
D11*
%TO.C,J1101*%
X83280000Y-129010000D02*
X83280000Y-122860000D01*
X84080000Y-122860000D02*
X91720000Y-122860000D01*
X92520000Y-122860000D02*
X92520000Y-129010000D01*
D10*
X92520000Y-129010000D02*
X83280000Y-129010000D01*
D11*
X83279455Y-122860056D02*
G75*
G02*
X83605000Y-122459449I363044J37557D01*
G01*
X83605005Y-122459449D02*
G75*
G02*
X83930549Y-122739959I22496J-303051D01*
G01*
X84080000Y-122860000D02*
G75*
G02*
X83930000Y-122740000I-15000J135000D01*
G01*
X91870000Y-122740000D02*
G75*
G02*
X91720000Y-122860000I-135000J15000D01*
G01*
X91870000Y-122740000D02*
G75*
G02*
X92195000Y-122460000I302500J-22500D01*
G01*
X92195000Y-122460000D02*
G75*
G02*
X92520000Y-122860000I-37500J-362500D01*
G01*
%TO.C,J1*%
X97240000Y-128987500D02*
X97240000Y-122837500D01*
X98040000Y-122837500D02*
X105680000Y-122837500D01*
X106480000Y-122837500D02*
X106480000Y-128987500D01*
D10*
X106480000Y-128987500D02*
X97240000Y-128987500D01*
D11*
X97239455Y-122837556D02*
G75*
G02*
X97565000Y-122436949I363044J37557D01*
G01*
X97565005Y-122436949D02*
G75*
G02*
X97890549Y-122717459I22496J-303051D01*
G01*
X98040000Y-122837500D02*
G75*
G02*
X97890000Y-122717500I-15000J135000D01*
G01*
X105830000Y-122717500D02*
G75*
G02*
X105680000Y-122837500I-135000J15000D01*
G01*
X105830000Y-122717500D02*
G75*
G02*
X106155000Y-122437500I302500J-22500D01*
G01*
X106155000Y-122437500D02*
G75*
G02*
X106480000Y-122837500I-37500J-362500D01*
G01*
%TD*%
M02*
