%TF.GenerationSoftware,KiCad,Pcbnew,9.0.7*%
%TF.CreationDate,2026-01-26T18:53:02-07:00*%
%TF.ProjectId,MPU_MOD,4d50555f-4d4f-4442-9e6b-696361645f70,rev?*%
%TF.SameCoordinates,Original*%
%TF.FileFunction,Copper,L4,Inr*%
%TF.FilePolarity,Positive*%
%FSLAX46Y46*%
G04 Gerber Fmt 4.6, Leading zero omitted, Abs format (unit mm)*
G04 Created by KiCad (PCBNEW 9.0.7) date 2026-01-26 18:53:02*
%MOMM*%
%LPD*%
G01*
G04 APERTURE LIST*
G04 Aperture macros list*
%AMFreePoly0*
4,1,229,0.026192,1.103996,0.026383,1.103985,0.052383,1.101985,0.052573,1.101967,0.078573,1.098967,0.078944,1.098910,0.104944,1.093910,0.105167,1.093862,0.130167,1.087862,0.130300,1.087828,0.156300,1.080828,0.156756,1.080682,0.180756,1.071682,0.180923,1.071615,0.204923,1.061615,0.205083,1.061545,0.229083,1.050545,0.229460,1.050353,0.252460,1.037353,0.252684,1.037218,
0.296684,1.009218,0.297030,1.008977,0.318030,0.992977,0.318238,0.992810,0.338238,0.975810,0.338439,0.975630,0.357439,0.957630,0.357630,0.957439,0.375630,0.938439,0.375810,0.938238,0.392810,0.918238,0.392977,0.918030,0.408977,0.897030,0.409218,0.896684,0.437218,0.852684,0.437353,0.852460,0.450353,0.829460,0.450545,0.829083,0.461545,0.805083,0.461615,0.804923,
0.471615,0.780923,0.471682,0.780756,0.480682,0.756756,0.480828,0.756300,0.487828,0.730300,0.487862,0.730167,0.493862,0.705167,0.493910,0.704944,0.498910,0.678944,0.498967,0.678573,0.501967,0.652573,0.501985,0.652383,0.503985,0.626383,0.503996,0.626192,0.504996,0.600192,0.505000,0.600000,0.505000,-0.600000,0.504996,-0.600192,0.503996,-0.626192,0.503985,-0.626383,
0.501985,-0.652383,0.501967,-0.652573,0.498967,-0.678573,0.498910,-0.678944,0.493910,-0.704944,0.493862,-0.705167,0.487862,-0.730167,0.487828,-0.730300,0.480828,-0.756300,0.480682,-0.756756,0.471682,-0.780756,0.471615,-0.780923,0.461615,-0.804923,0.461545,-0.805083,0.450545,-0.829083,0.450353,-0.829460,0.437353,-0.852460,0.437218,-0.852684,0.409218,-0.896684,0.408977,-0.897030,
0.392977,-0.918030,0.392810,-0.918238,0.375810,-0.938238,0.375630,-0.938439,0.357630,-0.957439,0.357439,-0.957630,0.338439,-0.975630,0.338238,-0.975810,0.318238,-0.992810,0.318030,-0.992977,0.297030,-1.008977,0.296684,-1.009218,0.252684,-1.037218,0.252460,-1.037353,0.229460,-1.050353,0.229083,-1.050545,0.205083,-1.061545,0.204923,-1.061615,0.180923,-1.071615,0.180756,-1.071682,
0.156756,-1.080682,0.156300,-1.080828,0.130300,-1.087828,0.130167,-1.087862,0.105167,-1.093862,0.104944,-1.093910,0.078944,-1.098910,0.078573,-1.098967,0.052573,-1.101967,0.052383,-1.101985,0.026383,-1.103985,0.026192,-1.103996,0.000192,-1.104996,-0.000192,-1.104996,-0.026192,-1.103996,-0.026383,-1.103985,-0.052383,-1.101985,-0.052573,-1.101967,-0.078573,-1.098967,-0.078944,-1.098910,
-0.104944,-1.093910,-0.105167,-1.093862,-0.130167,-1.087862,-0.130300,-1.087828,-0.156300,-1.080828,-0.156756,-1.080682,-0.180756,-1.071682,-0.180923,-1.071615,-0.204923,-1.061615,-0.205083,-1.061545,-0.229083,-1.050545,-0.229460,-1.050353,-0.252460,-1.037353,-0.252684,-1.037218,-0.296684,-1.009218,-0.297030,-1.008977,-0.318030,-0.992977,-0.318238,-0.992810,-0.338238,-0.975810,-0.338439,-0.975630,
-0.357439,-0.957630,-0.357630,-0.957439,-0.375630,-0.938439,-0.375810,-0.938238,-0.392810,-0.918238,-0.392977,-0.918030,-0.408977,-0.897030,-0.409218,-0.896684,-0.437218,-0.852684,-0.437353,-0.852460,-0.450353,-0.829460,-0.450545,-0.829083,-0.461545,-0.805083,-0.461615,-0.804923,-0.471615,-0.780923,-0.471682,-0.780756,-0.480682,-0.756756,-0.480828,-0.756300,-0.487828,-0.730300,-0.487862,-0.730167,
-0.493862,-0.705167,-0.493910,-0.704944,-0.498910,-0.678944,-0.498967,-0.678573,-0.501967,-0.652573,-0.501985,-0.652383,-0.503985,-0.626383,-0.503996,-0.626192,-0.504996,-0.600192,-0.505000,-0.600000,-0.505000,0.600000,-0.504996,0.600192,-0.503996,0.626192,-0.503985,0.626383,-0.501985,0.652383,-0.501967,0.652573,-0.498967,0.678573,-0.498910,0.678944,-0.493910,0.704944,-0.493862,0.705167,
-0.487862,0.730167,-0.487828,0.730300,-0.480828,0.756300,-0.480682,0.756756,-0.471682,0.780756,-0.471615,0.780923,-0.461615,0.804923,-0.461545,0.805083,-0.450545,0.829083,-0.450353,0.829460,-0.437353,0.852460,-0.437218,0.852684,-0.409218,0.896684,-0.408977,0.897030,-0.392977,0.918030,-0.392810,0.918238,-0.375810,0.938238,-0.375630,0.938439,-0.357630,0.957439,-0.357439,0.957630,
-0.338439,0.975630,-0.338238,0.975810,-0.318238,0.992810,-0.318030,0.992977,-0.297030,1.008977,-0.296684,1.009218,-0.252684,1.037218,-0.252460,1.037353,-0.229460,1.050353,-0.229083,1.050545,-0.205083,1.061545,-0.204923,1.061615,-0.180923,1.071615,-0.180756,1.071682,-0.156756,1.080682,-0.156300,1.080828,-0.130300,1.087828,-0.130167,1.087862,-0.105167,1.093862,-0.104944,1.093910,
-0.078944,1.098910,-0.078573,1.098967,-0.052573,1.101967,-0.052383,1.101985,-0.026383,1.103985,-0.026192,1.103996,-0.000192,1.104996,0.000192,1.104996,0.026192,1.103996,0.026192,1.103996,$1*%
%AMFreePoly1*
4,1,229,0.026192,0.903996,0.026383,0.903985,0.052383,0.901985,0.052573,0.901967,0.078573,0.898967,0.078944,0.898910,0.104944,0.893910,0.105167,0.893862,0.130167,0.887862,0.130300,0.887828,0.156300,0.880828,0.156756,0.880682,0.180756,0.871682,0.180923,0.871615,0.204923,0.861615,0.205083,0.861545,0.229083,0.850545,0.229460,0.850353,0.252460,0.837353,0.252684,0.837218,
0.296684,0.809218,0.297030,0.808977,0.318030,0.792977,0.318238,0.792810,0.338238,0.775810,0.338439,0.775630,0.357439,0.757630,0.357630,0.757439,0.375630,0.738439,0.375810,0.738238,0.392810,0.718238,0.392977,0.718030,0.408977,0.697030,0.409218,0.696684,0.437218,0.652684,0.437353,0.652460,0.450353,0.629460,0.450545,0.629083,0.461545,0.605083,0.461615,0.604923,
0.471615,0.580923,0.471682,0.580756,0.480682,0.556756,0.480828,0.556300,0.487828,0.530300,0.487862,0.530167,0.493862,0.505167,0.493910,0.504944,0.498910,0.478944,0.498967,0.478573,0.501967,0.452573,0.501985,0.452383,0.503985,0.426383,0.503996,0.426192,0.504996,0.400192,0.505000,0.400000,0.505000,-0.400000,0.504996,-0.400192,0.503996,-0.426192,0.503985,-0.426383,
0.501985,-0.452383,0.501967,-0.452573,0.498967,-0.478573,0.498910,-0.478944,0.493910,-0.504944,0.493862,-0.505167,0.487862,-0.530167,0.487828,-0.530300,0.480828,-0.556300,0.480682,-0.556756,0.471682,-0.580756,0.471615,-0.580923,0.461615,-0.604923,0.461545,-0.605083,0.450545,-0.629083,0.450353,-0.629460,0.437353,-0.652460,0.437218,-0.652684,0.409218,-0.696684,0.408977,-0.697030,
0.392977,-0.718030,0.392810,-0.718238,0.375810,-0.738238,0.375630,-0.738439,0.357630,-0.757439,0.357439,-0.757630,0.338439,-0.775630,0.338238,-0.775810,0.318238,-0.792810,0.318030,-0.792977,0.297030,-0.808977,0.296684,-0.809218,0.252684,-0.837218,0.252460,-0.837353,0.229460,-0.850353,0.229083,-0.850545,0.205083,-0.861545,0.204923,-0.861615,0.180923,-0.871615,0.180756,-0.871682,
0.156756,-0.880682,0.156300,-0.880828,0.130300,-0.887828,0.130167,-0.887862,0.105167,-0.893862,0.104944,-0.893910,0.078944,-0.898910,0.078573,-0.898967,0.052573,-0.901967,0.052383,-0.901985,0.026383,-0.903985,0.026192,-0.903996,0.000192,-0.904996,-0.000192,-0.904996,-0.026192,-0.903996,-0.026383,-0.903985,-0.052383,-0.901985,-0.052573,-0.901967,-0.078573,-0.898967,-0.078944,-0.898910,
-0.104944,-0.893910,-0.105167,-0.893862,-0.130167,-0.887862,-0.130300,-0.887828,-0.156300,-0.880828,-0.156756,-0.880682,-0.180756,-0.871682,-0.180923,-0.871615,-0.204923,-0.861615,-0.205083,-0.861545,-0.229083,-0.850545,-0.229460,-0.850353,-0.252460,-0.837353,-0.252684,-0.837218,-0.296684,-0.809218,-0.297030,-0.808977,-0.318030,-0.792977,-0.318238,-0.792810,-0.338238,-0.775810,-0.338439,-0.775630,
-0.357439,-0.757630,-0.357630,-0.757439,-0.375630,-0.738439,-0.375810,-0.738238,-0.392810,-0.718238,-0.392977,-0.718030,-0.408977,-0.697030,-0.409218,-0.696684,-0.437218,-0.652684,-0.437353,-0.652460,-0.450353,-0.629460,-0.450545,-0.629083,-0.461545,-0.605083,-0.461615,-0.604923,-0.471615,-0.580923,-0.471682,-0.580756,-0.480682,-0.556756,-0.480828,-0.556300,-0.487828,-0.530300,-0.487862,-0.530167,
-0.493862,-0.505167,-0.493910,-0.504944,-0.498910,-0.478944,-0.498967,-0.478573,-0.501967,-0.452573,-0.501985,-0.452383,-0.503985,-0.426383,-0.503996,-0.426192,-0.504996,-0.400192,-0.505000,-0.400000,-0.505000,0.400000,-0.504996,0.400192,-0.503996,0.426192,-0.503985,0.426383,-0.501985,0.452383,-0.501967,0.452573,-0.498967,0.478573,-0.498910,0.478944,-0.493910,0.504944,-0.493862,0.505167,
-0.487862,0.530167,-0.487828,0.530300,-0.480828,0.556300,-0.480682,0.556756,-0.471682,0.580756,-0.471615,0.580923,-0.461615,0.604923,-0.461545,0.605083,-0.450545,0.629083,-0.450353,0.629460,-0.437353,0.652460,-0.437218,0.652684,-0.409218,0.696684,-0.408977,0.697030,-0.392977,0.718030,-0.392810,0.718238,-0.375810,0.738238,-0.375630,0.738439,-0.357630,0.757439,-0.357439,0.757630,
-0.338439,0.775630,-0.338238,0.775810,-0.318238,0.792810,-0.318030,0.792977,-0.297030,0.808977,-0.296684,0.809218,-0.252684,0.837218,-0.252460,0.837353,-0.229460,0.850353,-0.229083,0.850545,-0.205083,0.861545,-0.204923,0.861615,-0.180923,0.871615,-0.180756,0.871682,-0.156756,0.880682,-0.156300,0.880828,-0.130300,0.887828,-0.130167,0.887862,-0.105167,0.893862,-0.104944,0.893910,
-0.078944,0.898910,-0.078573,0.898967,-0.052573,0.901967,-0.052383,0.901985,-0.026383,0.903985,-0.026192,0.903996,-0.000192,0.904996,0.000192,0.904996,0.026192,0.903996,0.026192,0.903996,$1*%
G04 Aperture macros list end*
%TA.AperFunction,ComponentPad*%
%ADD10FreePoly0,0.000000*%
%TD*%
%TA.AperFunction,ComponentPad*%
%ADD11FreePoly1,0.000000*%
%TD*%
%TA.AperFunction,ComponentPad*%
%ADD12C,0.800000*%
%TD*%
%TA.AperFunction,ComponentPad*%
%ADD13C,5.400000*%
%TD*%
%TA.AperFunction,ViaPad*%
%ADD14C,0.400000*%
%TD*%
%TA.AperFunction,Conductor*%
%ADD15C,0.200000*%
%TD*%
%TA.AperFunction,Conductor*%
%ADD16C,0.118400*%
%TD*%
G04 APERTURE END LIST*
D10*
%TO.N,GND*%
%TO.C,J1101*%
X82280000Y-127410000D03*
D11*
X93520000Y-123410000D03*
X82280000Y-123410000D03*
D10*
X93520000Y-127410000D03*
%TD*%
D12*
%TO.N,GND*%
%TO.C,H101*%
X61395000Y-88785000D03*
X61988109Y-87353109D03*
X61988109Y-90216891D03*
X63420000Y-86760000D03*
D13*
X63420000Y-88785000D03*
D12*
X63420000Y-90810000D03*
X64851891Y-87353109D03*
X64851891Y-90216891D03*
X65445000Y-88785000D03*
%TD*%
D10*
%TO.N,GND*%
%TO.C,J1*%
X96240000Y-127387500D03*
D11*
X107480000Y-123387500D03*
X96240000Y-123387500D03*
D10*
X107480000Y-127387500D03*
%TD*%
D14*
%TO.N,Net-(U4A-VBAT)*%
X95260000Y-102920000D03*
X90580000Y-105980000D03*
%TO.N,Net-(U4A-VREF+)*%
X100090000Y-103740000D03*
%TO.N,Net-(U4A-VDD1V2_DSI_PHY)*%
X90450000Y-92595000D03*
%TO.N,Net-(U4A-VDDA1V1_REG)*%
X104060000Y-95735000D03*
%TO.N,Net-(U4A-VDDA1V8_DSI)*%
X91250000Y-94915000D03*
X103250000Y-95735000D03*
%TO.N,Net-(U4E-NRST_CORE)*%
X96080000Y-103730000D03*
%TO.N,Net-(U4E-BOOT0)*%
X96870000Y-103720000D03*
%TO.N,Net-(U4E-BOOT1)*%
X96890000Y-102070000D03*
%TO.N,Net-(U4E-BOOT2)*%
X97680000Y-103700000D03*
%TO.N,Net-(U4E-PWR_LP)*%
X100470000Y-105020000D03*
%TO.N,Net-(U4C-PA4)*%
X101675000Y-102100000D03*
X99550000Y-111200000D03*
X88300000Y-112720000D03*
%TO.N,Net-(U4C-PA5)*%
X99000000Y-110700000D03*
X100875000Y-102125000D03*
X90900000Y-114600000D03*
%TO.N,VDD_DDR*%
X102800000Y-75370000D03*
X93540000Y-70920000D03*
X94371992Y-70911992D03*
X93540000Y-69190000D03*
X101820000Y-79390000D03*
%TO.N,GND*%
X93500000Y-70150000D03*
X101780000Y-80160000D03*
X101000000Y-74516585D03*
X93550408Y-71699593D03*
X92650000Y-121300000D03*
X84700000Y-121950000D03*
X62590000Y-118160000D03*
X92079493Y-102104493D03*
X106400000Y-76600000D03*
X68500000Y-109200000D03*
X96170000Y-107030000D03*
X69285000Y-105335000D03*
X108750000Y-118160000D03*
X109130000Y-108760000D03*
X96130000Y-85210000D03*
X73355000Y-104155000D03*
X101750000Y-95700000D03*
X66200000Y-63800000D03*
X91250000Y-94015000D03*
X68400000Y-117300000D03*
X61090000Y-119260000D03*
X71020000Y-84510000D03*
X71090000Y-110850000D03*
X98950000Y-66900000D03*
X98466992Y-93316992D03*
X68377500Y-100835000D03*
X76700000Y-62300000D03*
X61090000Y-118160000D03*
X83145000Y-72425000D03*
X86250000Y-96440000D03*
X75715000Y-112335000D03*
X104530000Y-114660000D03*
X91550000Y-121300000D03*
X100890000Y-102940000D03*
X91286993Y-102896993D03*
X66800000Y-60200000D03*
X85200000Y-85150000D03*
X100350000Y-109310000D03*
X62590000Y-126960000D03*
X100940000Y-73730000D03*
X89100000Y-75100000D03*
X90110000Y-115600000D03*
X93260000Y-79030000D03*
X102500000Y-92500000D03*
X89100000Y-78700000D03*
X87170000Y-95290000D03*
X104050000Y-93335000D03*
X65590000Y-111580000D03*
X82020000Y-70620000D03*
X75355000Y-105155000D03*
X87060000Y-80530000D03*
X93550000Y-67000000D03*
X74600000Y-63200000D03*
X72950000Y-116600000D03*
X73990000Y-126960000D03*
X103270000Y-91720000D03*
X105650000Y-71200000D03*
X107586670Y-114609586D03*
X97810000Y-120600000D03*
X104500000Y-76500000D03*
X81900000Y-84600000D03*
X91250000Y-93250000D03*
X95000000Y-62300000D03*
X71890000Y-111650000D03*
X68502500Y-105335000D03*
X76410000Y-124640000D03*
X66200000Y-63000000D03*
X75390000Y-96935000D03*
X76355000Y-105155000D03*
X93666993Y-93316993D03*
X66220000Y-113030000D03*
X61090000Y-126960000D03*
X81550000Y-67300000D03*
X93450000Y-80440000D03*
X95276992Y-96506992D03*
X69285000Y-103535000D03*
X75570000Y-124610000D03*
X68555000Y-106955000D03*
X68180000Y-101530000D03*
X92900000Y-81690000D03*
X73990000Y-118160000D03*
X95286992Y-98096992D03*
X95170000Y-70100000D03*
X78950000Y-67300000D03*
X101786993Y-78416993D03*
X64300000Y-111140000D03*
X69400000Y-63800000D03*
X70390000Y-74765000D03*
X100070000Y-98090000D03*
X103210000Y-94885000D03*
X69290000Y-98535000D03*
X99520000Y-61110000D03*
X94790000Y-86520000D03*
X93970000Y-111220000D03*
X68490000Y-123110000D03*
X102767400Y-70336585D03*
X89200000Y-71250000D03*
X95301992Y-94881992D03*
X99170000Y-72520000D03*
X68800000Y-63800000D03*
X104270000Y-106830000D03*
X100800000Y-70930000D03*
X80180000Y-104562500D03*
X93670000Y-94920000D03*
X76790000Y-96935000D03*
X68377500Y-102335000D03*
X80180000Y-103662500D03*
X68502500Y-103535000D03*
X105890000Y-61100000D03*
X92100000Y-121300000D03*
X64090000Y-123660000D03*
X74600000Y-65600000D03*
X71090000Y-111650000D03*
X97600000Y-68800000D03*
X76355000Y-104155000D03*
X72885000Y-115420000D03*
X93670000Y-100510000D03*
X108810000Y-115650000D03*
X100090000Y-102130000D03*
X100051993Y-99731993D03*
X107320000Y-91320000D03*
X92060000Y-95710000D03*
X103271992Y-93311992D03*
X90100000Y-64450000D03*
X102700000Y-68700000D03*
X102470408Y-102119592D03*
X96870000Y-93320000D03*
X64300000Y-110070000D03*
X77601500Y-82095000D03*
X89100000Y-73100000D03*
X108890000Y-112892500D03*
X75570000Y-127170000D03*
X100060000Y-118320000D03*
X105350000Y-114660000D03*
X93350000Y-72916585D03*
X105430000Y-120120000D03*
X64310000Y-110600000D03*
X100029000Y-114010000D03*
X106440000Y-113430000D03*
X93666992Y-98116992D03*
X86050000Y-118300000D03*
X75450000Y-110635000D03*
X84100000Y-121300000D03*
X66290000Y-123110000D03*
X100840000Y-70120000D03*
X105990000Y-101620000D03*
X92080000Y-101300000D03*
X90050000Y-88980000D03*
X85600000Y-82300000D03*
X64090000Y-125860000D03*
X68200000Y-63800000D03*
X69290000Y-97935000D03*
X97750000Y-111220000D03*
X100890000Y-101290000D03*
X67550000Y-61100000D03*
X76125000Y-111535000D03*
X74690000Y-98060000D03*
X84100000Y-64450000D03*
X105990000Y-102440000D03*
X98486992Y-98096992D03*
X107330000Y-96990000D03*
X61330000Y-105030000D03*
X88820000Y-80710000D03*
X67200000Y-66400000D03*
X87730000Y-82130000D03*
X68350000Y-114700000D03*
X88600000Y-79600000D03*
X101680000Y-99720000D03*
X98030000Y-108040000D03*
X96090407Y-101339593D03*
X105650000Y-73200000D03*
X74600000Y-62400000D03*
X69015000Y-99335000D03*
X72890000Y-125860000D03*
X83000000Y-121300000D03*
X98460000Y-102910000D03*
X105060000Y-122187500D03*
X106700000Y-75850000D03*
X101550000Y-119670000D03*
X102910000Y-119660000D03*
X73355000Y-105155000D03*
X74600000Y-64800000D03*
X90760000Y-109100000D03*
X103280000Y-102930000D03*
X91250000Y-119700000D03*
X76355000Y-103155000D03*
X91250000Y-120500000D03*
X101680000Y-96510000D03*
X88980000Y-119770000D03*
X86930000Y-78870000D03*
X74600000Y-61600000D03*
X87950000Y-116680000D03*
X89540000Y-98250000D03*
X89100000Y-77000000D03*
X78275000Y-126710000D03*
X101820000Y-81815000D03*
X96100000Y-102140000D03*
X85290000Y-83460000D03*
X71515000Y-112335000D03*
X71890000Y-110850000D03*
X94480000Y-102120000D03*
X87100000Y-64450000D03*
X96870000Y-96500000D03*
X64090000Y-120360000D03*
X66450000Y-61290000D03*
X77601500Y-82915000D03*
X74690000Y-96935000D03*
X98451993Y-99731993D03*
X88730000Y-95710000D03*
X105430000Y-120940000D03*
X99209000Y-114010000D03*
X105700000Y-72200000D03*
X95270000Y-102110000D03*
X88600000Y-74000000D03*
X64990000Y-109920000D03*
X91000000Y-121300000D03*
X98660000Y-122187500D03*
X69035000Y-122555000D03*
X74355000Y-104155000D03*
X74540000Y-82095000D03*
X96870000Y-94920000D03*
X104910000Y-89450000D03*
X93671992Y-101311992D03*
X64090000Y-121460000D03*
X87950000Y-117500000D03*
X92860000Y-102140000D03*
X104040000Y-103720000D03*
X75355000Y-103155000D03*
X61360000Y-103340000D03*
X101655408Y-101304592D03*
X93650000Y-102920000D03*
X80180000Y-105562500D03*
X83145000Y-80205000D03*
X71700000Y-115590000D03*
X76125000Y-110635000D03*
X94440000Y-102910000D03*
X84650000Y-121300000D03*
X106700000Y-81250000D03*
X71590000Y-110110000D03*
X102480000Y-99710000D03*
X69285000Y-108035000D03*
X98486993Y-96496993D03*
X74540000Y-82915000D03*
X74060000Y-87430000D03*
X73355000Y-103155000D03*
X95266993Y-93316993D03*
X98466993Y-101316993D03*
X99240000Y-118320000D03*
X70870000Y-70220000D03*
X95690000Y-109220000D03*
X71590000Y-81995000D03*
X85720000Y-99130000D03*
X88160000Y-96820000D03*
X69040000Y-97185000D03*
X66860000Y-117260000D03*
X98520000Y-103740000D03*
X84080000Y-120040000D03*
X96881992Y-98101992D03*
X88760000Y-118360000D03*
X102900000Y-121250000D03*
X94360000Y-76530000D03*
X75990000Y-96935000D03*
X100091993Y-101291993D03*
X87120000Y-118430000D03*
X88600000Y-77800000D03*
X106870000Y-93730000D03*
X102465407Y-93314593D03*
X85600000Y-64450000D03*
X92900000Y-101300000D03*
X88600000Y-76100000D03*
X101656993Y-93326993D03*
X88600000Y-72200000D03*
X95254492Y-99729492D03*
X93690000Y-99715000D03*
X100041992Y-93341992D03*
X66200000Y-64600000D03*
X91300000Y-92545000D03*
X64320000Y-114350000D03*
X74355000Y-103155000D03*
X74600000Y-64000000D03*
X101700000Y-100520000D03*
X72890000Y-119260000D03*
X75450000Y-111535000D03*
X105700000Y-74200000D03*
X96866992Y-99716992D03*
X82975000Y-121875000D03*
X74355000Y-105155000D03*
X64090000Y-124760000D03*
X66290000Y-122010000D03*
X101920000Y-70120000D03*
X82600000Y-64500000D03*
X64980000Y-111580000D03*
X108710000Y-122290000D03*
X64090000Y-119260000D03*
X102720000Y-61100000D03*
X69590000Y-122010000D03*
X92866993Y-103716993D03*
X101240000Y-120120000D03*
X93656992Y-96526992D03*
X95870000Y-119570000D03*
X106400000Y-79900000D03*
X92700000Y-109020000D03*
X106400000Y-77600000D03*
X83550000Y-121300000D03*
X68225000Y-66425000D03*
X61090000Y-125860000D03*
X75790000Y-109910000D03*
X86790000Y-119740000D03*
X90470000Y-100510000D03*
X93420000Y-74516585D03*
X69370000Y-83355000D03*
X90456993Y-103726993D03*
X100070000Y-96500000D03*
X81760000Y-87500000D03*
X96865408Y-102914592D03*
X75355000Y-104155000D03*
X95870000Y-111220000D03*
X103250000Y-98120000D03*
X101680000Y-98110000D03*
X88600000Y-64450000D03*
X91100000Y-121950000D03*
X98481993Y-94901993D03*
%TO.N,VDD_USB*%
X104890000Y-95695000D03*
X79220000Y-104562500D03*
X104930000Y-93155000D03*
%TO.N,VDDA*%
X70245000Y-106235000D03*
%TO.N,3V3*%
X71100000Y-60700000D03*
X73700000Y-112700000D03*
X79665000Y-82575000D03*
X74790000Y-112100000D03*
X70245000Y-108035000D03*
X78580000Y-120010000D03*
X75460000Y-85925000D03*
X75570000Y-125510000D03*
X76725000Y-126710000D03*
X102320000Y-61680000D03*
X71700000Y-60700000D03*
X74790000Y-112700000D03*
X74570000Y-85915000D03*
X73700000Y-112100000D03*
X71100000Y-83375000D03*
X74195000Y-107395000D03*
X74250000Y-112100000D03*
X103080000Y-108050000D03*
X74250000Y-112700000D03*
X78400000Y-85915000D03*
X77330000Y-118050000D03*
X74250000Y-111500000D03*
X75570000Y-126270000D03*
X77590000Y-122350000D03*
X71640000Y-85905000D03*
X77600000Y-120500000D03*
X70500000Y-60700000D03*
X76410000Y-125540000D03*
X74790000Y-111500000D03*
X79290000Y-85925000D03*
X69900000Y-60700000D03*
X82220000Y-85925000D03*
X77570000Y-125340000D03*
X73700000Y-111500000D03*
X71800000Y-83375000D03*
%TO.N,VIN*%
X90300000Y-121950000D03*
X104530000Y-120120000D03*
X63710000Y-112510000D03*
X104530000Y-120970000D03*
X74925000Y-99400000D03*
X74400000Y-100615000D03*
X72465000Y-101160000D03*
X90300000Y-121400000D03*
X99370000Y-120620000D03*
X94020000Y-119550000D03*
X74475000Y-99825000D03*
X79220000Y-105562500D03*
X85500000Y-120100000D03*
X75500000Y-108600000D03*
X90350000Y-120500000D03*
X71590000Y-108560000D03*
X85500000Y-121950000D03*
X105652500Y-108980000D03*
X70245000Y-105335000D03*
X72015000Y-100785000D03*
X70565000Y-99335000D03*
X85500000Y-121375000D03*
X75750000Y-108100000D03*
X85500000Y-120775000D03*
X76050000Y-108575000D03*
X98850000Y-120610000D03*
X90350000Y-119700000D03*
X72955000Y-107455000D03*
%TO.N,VTT_DDR*%
X90050000Y-74000000D03*
X70015000Y-102335000D03*
X90050000Y-75050000D03*
X90050000Y-76100000D03*
%TO.N,VREF_DDR*%
X104860000Y-91680000D03*
X104450000Y-78390000D03*
X93110000Y-75316585D03*
X70245000Y-103535000D03*
%TO.N,VDD_DDR*%
X92980000Y-80100000D03*
X95140000Y-75690000D03*
X106700000Y-74950000D03*
X101780000Y-80916585D03*
X99266993Y-93316993D03*
X89200000Y-70350000D03*
X99150000Y-77290000D03*
X70800000Y-96400000D03*
X101920000Y-71296585D03*
X99850000Y-66900000D03*
X100851993Y-93331993D03*
X85600000Y-81400000D03*
X70015000Y-100835000D03*
X94460000Y-93265000D03*
X100890000Y-72530000D03*
X98440000Y-74920000D03*
X88820000Y-81610000D03*
X73675000Y-100900000D03*
X86930000Y-79770000D03*
X102780000Y-71291585D03*
X70175000Y-96400000D03*
X99950000Y-70110000D03*
X92850000Y-93300000D03*
X85200000Y-84250000D03*
X102700000Y-69600000D03*
X95150000Y-72500000D03*
X96066993Y-93316993D03*
X70490000Y-97185000D03*
X93370000Y-73590000D03*
X106700000Y-82150000D03*
X73300000Y-96400000D03*
X71425000Y-96400000D03*
X72050000Y-96400000D03*
X97666993Y-93316993D03*
X72675000Y-96400000D03*
X100880000Y-71720000D03*
%TO.N,VDD_CORE*%
X75600000Y-100935000D03*
X97671993Y-94911993D03*
X97670000Y-98140000D03*
X92880000Y-94890000D03*
X92835000Y-99715000D03*
X94455000Y-101315000D03*
X79500000Y-99000000D03*
X79490000Y-97775000D03*
X96060000Y-96500000D03*
X94440000Y-96500000D03*
X92835000Y-98115000D03*
X79490000Y-97175000D03*
X79489000Y-96575000D03*
X93700000Y-102100000D03*
X92870000Y-96510000D03*
X94465000Y-99715000D03*
X96060000Y-98100000D03*
X94466993Y-98116993D03*
X99264493Y-96519493D03*
X97670000Y-96520000D03*
X100874493Y-94909493D03*
X96076992Y-94906992D03*
X99230000Y-94920000D03*
X79490000Y-98375000D03*
X96061993Y-99721993D03*
X95275407Y-101324593D03*
%TO.N,VDD*%
X78450000Y-112100000D03*
X77125000Y-107450000D03*
X99256993Y-99726993D03*
X96800000Y-101250000D03*
X86760000Y-102630000D03*
X89680000Y-95725000D03*
X97650000Y-101310000D03*
X91410000Y-108530000D03*
X78990000Y-112100000D03*
X95200000Y-105900000D03*
X94470000Y-94920000D03*
X78450000Y-112700000D03*
X100030000Y-104480000D03*
X96810000Y-111220000D03*
X77900000Y-112100000D03*
X100841992Y-96541992D03*
X94920000Y-111220000D03*
X78950000Y-102880000D03*
X97656992Y-99726992D03*
X93030000Y-111220000D03*
X100861993Y-98121993D03*
X97670000Y-102130000D03*
X103039999Y-106840000D03*
X99270000Y-98130000D03*
X99270000Y-101310000D03*
X100870000Y-99700000D03*
X77900000Y-112700000D03*
X107100000Y-119900000D03*
X77900000Y-111500000D03*
X78450000Y-111500000D03*
X78990000Y-111500000D03*
X108890000Y-111540000D03*
%TO.N,NRST*%
X104420000Y-116450000D03*
X108530000Y-119110000D03*
X98240000Y-105410000D03*
X99070000Y-116220000D03*
%TO.N,I2C1_SDA*%
X81750000Y-72200000D03*
X83600000Y-70300000D03*
X91100000Y-66550000D03*
%TO.N,I2C1_SCL*%
X91600000Y-66950000D03*
X105510000Y-99070000D03*
X109180000Y-96280000D03*
%TO.N,Net-(U202-~{PONKEY})*%
X70890000Y-103960000D03*
X61380000Y-101652500D03*
%TO.N,SDMMC3_CMD*%
X89695000Y-102905000D03*
X78630000Y-121030000D03*
%TO.N,SDMMC3_D0*%
X89650000Y-102130000D03*
X78440000Y-118580000D03*
%TO.N,SDMMC3_D1*%
X92090000Y-100490000D03*
X78480000Y-119230000D03*
%TO.N,SDMMC3_D2*%
X92060000Y-99710000D03*
X78300000Y-123370000D03*
%TO.N,PWR_ON*%
X97800000Y-104750000D03*
X94030000Y-109320000D03*
X77905000Y-101655000D03*
%TO.N,/RCC_BOOT_RST_DEBUG/T_JTMS{slash}T_SWDIO*%
X92090000Y-93295000D03*
X82700000Y-96650000D03*
%TO.N,/RCC_BOOT_RST_DEBUG/T_JCLK{slash}T_SWCLK*%
X82100000Y-97100000D03*
X92120000Y-92475000D03*
%TO.N,/RCC_BOOT_RST_DEBUG/T_JTDO{slash}T_SWO*%
X82150000Y-97950000D03*
X92100000Y-93935000D03*
%TO.N,/RCC_BOOT_RST_DEBUG/T_JTDI{slash}NC*%
X81550000Y-99400000D03*
X92080000Y-94955000D03*
%TO.N,UART4_RX_STM*%
X98600000Y-117820000D03*
X107130000Y-94460000D03*
X107560000Y-99510000D03*
X102470000Y-94105000D03*
%TO.N,UART4_TX_STM*%
X104040000Y-100480000D03*
X98560000Y-118820000D03*
%TO.N,USB_D-*%
X87675000Y-118800000D03*
X87125000Y-120300000D03*
%TO.N,USB_D+*%
X87675000Y-120300000D03*
X88225000Y-118800000D03*
%TO.N,/DDR/DDR_A9*%
X94340000Y-80540000D03*
X94460000Y-91650000D03*
%TO.N,PMIC_PA0_WKUP_INTR*%
X101675000Y-102900000D03*
X77905000Y-101005000D03*
%TO.N,/DDR/DDR_DQ1*%
X95136993Y-71736993D03*
X89860000Y-87790000D03*
%TO.N,SDMMC1_D1*%
X70390000Y-72565000D03*
X87700000Y-95600000D03*
%TO.N,uSD_DETECT*%
X81340000Y-83440000D03*
X74707500Y-71192500D03*
%TO.N,/DDR/DDR_DQ4*%
X99960000Y-70920000D03*
X94080000Y-88240000D03*
%TO.N,/DDR/DDR_A7*%
X93350000Y-81280000D03*
X92850000Y-91580000D03*
%TO.N,/DDR/DDR_DQ7*%
X96137400Y-70296585D03*
X89940000Y-88390000D03*
%TO.N,/DDR/DDR_A5*%
X94390000Y-79740000D03*
X95290000Y-91690000D03*
%TO.N,/DDR/DDR_A4*%
X101330000Y-80500000D03*
X100842400Y-90891585D03*
%TO.N,SDMMC1_D0*%
X70350000Y-73700000D03*
X91230000Y-95740000D03*
%TO.N,/DDR/DDR_BA0*%
X94350000Y-78070000D03*
X94740000Y-89090000D03*
%TO.N,/DDR/DDR_A1*%
X99127400Y-79716585D03*
X98467400Y-91716585D03*
%TO.N,/DDR/DDR_A6*%
X101420000Y-81360000D03*
X100092400Y-91691585D03*
%TO.N,SDMMC1_D2*%
X92070000Y-96500000D03*
X70390000Y-80265000D03*
%TO.N,/DDR/DDR_DQ6*%
X98307400Y-72586585D03*
X92530000Y-88290000D03*
%TO.N,/DDR/DDR_WEN*%
X95990000Y-77290000D03*
X96857400Y-91706585D03*
%TO.N,/DDR/DDR_A14*%
X100017400Y-90916585D03*
X100790000Y-82940000D03*
%TO.N,/DDR/DDR_DQM0*%
X96150000Y-72580000D03*
X90470000Y-88380000D03*
%TO.N,/DDR/DDR_RASN*%
X97627400Y-90096585D03*
X95980000Y-75680000D03*
%TO.N,/DDR/DDR_A0*%
X95150000Y-78870000D03*
X95240000Y-90090000D03*
%TO.N,SYS_I2C4_SCL*%
X103270000Y-96550000D03*
X84600000Y-100650000D03*
X75990000Y-100535000D03*
%TO.N,/DDR/DDR_DQ2*%
X93060000Y-88280000D03*
X99167400Y-70136585D03*
%TO.N,/DDR/DDR_DQS0_P*%
X98110000Y-71080000D03*
X91250000Y-89330000D03*
%TO.N,/DDR/DDR_RESETN*%
X94030000Y-92000000D03*
X97600000Y-87730000D03*
%TO.N,/DDR/DDR_CSN*%
X95157400Y-77326585D03*
X96037400Y-90906585D03*
%TO.N,/DDR/DDR_A13*%
X92420000Y-82120000D03*
X93580000Y-91690000D03*
%TO.N,/DDR/DDR_DQS0_N*%
X90790000Y-89100000D03*
X98093293Y-70563293D03*
%TO.N,/DDR/DDR_CLK_N*%
X99110000Y-76510000D03*
X97392400Y-89050000D03*
%TO.N,/DDR/DDR_DQ3*%
X94347400Y-70106585D03*
X89300000Y-87300000D03*
%TO.N,/DDR/DDR_A10*%
X98842400Y-89191585D03*
X99187400Y-78136585D03*
%TO.N,/DDR/DDR_A3*%
X94390000Y-78890000D03*
X94490000Y-90090000D03*
%TO.N,SYS_I2C4_SDA*%
X102430000Y-95785000D03*
X76390000Y-100935000D03*
X85600000Y-100250000D03*
%TO.N,/DDR/DDR_CASN*%
X96867400Y-90886585D03*
X95990000Y-76500000D03*
%TO.N,SDMMC1_CMD*%
X86500000Y-97050000D03*
X70390000Y-78065000D03*
%TO.N,/DDR/DDR_A8*%
X102030000Y-82450000D03*
X101667400Y-91716585D03*
%TO.N,/DDR/DDR_ODT*%
X95490000Y-89090000D03*
X94367400Y-77316585D03*
%TO.N,/DDR/DDR_A12*%
X98477400Y-90916585D03*
X99165000Y-78915000D03*
%TO.N,/DDR/DDR_A11*%
X99267400Y-90091585D03*
X99890000Y-82760000D03*
%TO.N,SDMMC1_CK*%
X70390000Y-75865000D03*
X91250000Y-97325000D03*
%TO.N,/DDR/DDR_CLK_P*%
X97942400Y-89050000D03*
X98440000Y-76520000D03*
%TO.N,/DDR/DDR_BA2*%
X95137400Y-78086585D03*
X96027400Y-91756585D03*
%TO.N,/DDR/DDR_DQ5*%
X93570000Y-88260000D03*
X99987400Y-71696585D03*
%TO.N,/DDR/DDR_CKE*%
X101800000Y-77550001D03*
X100517400Y-89060000D03*
%TO.N,/DDR/DDR_DQ0*%
X94390000Y-71690000D03*
X89460000Y-92040000D03*
%TO.N,/DDR/DDR_BA1*%
X100900000Y-79660000D03*
X99292400Y-90916585D03*
%TO.N,SDMMC1_D3*%
X90450000Y-95735000D03*
X81750000Y-86900000D03*
X70390000Y-79165000D03*
X73580000Y-86800000D03*
%TO.N,/DDR/DDR_A2*%
X95240000Y-90940000D03*
X95140000Y-79740000D03*
%TO.N,PMIC_WAKEUP*%
X97700000Y-102950000D03*
X79570000Y-101490000D03*
%TO.N,SDMMC3_D3*%
X78330000Y-124260000D03*
X90480000Y-102120000D03*
%TO.N,SDMMC3_CK*%
X89260000Y-103350000D03*
X77350000Y-121580000D03*
%TO.N,UART8_TX_STM*%
X66850000Y-126400000D03*
X90420000Y-104560000D03*
%TO.N,UART8_RX_STM*%
X91280000Y-102100000D03*
X67390000Y-127730000D03*
%TO.N,UART8_CTS_STM*%
X88760000Y-111310000D03*
X65750000Y-126400000D03*
X92870000Y-104510000D03*
%TO.N,UART8_RTS_STM*%
X92080000Y-102900000D03*
X66280000Y-127720000D03*
%TO.N,2V8*%
X79850000Y-67300000D03*
X92650000Y-67000000D03*
X70245000Y-109010000D03*
%TO.N,unconnected-(C214-Pad2)*%
X70245000Y-104435000D03*
%TO.N,1V8*%
X99210000Y-61700000D03*
X70245000Y-107135000D03*
X98000000Y-65900000D03*
X80650000Y-67300000D03*
X105460000Y-61830000D03*
%TO.N,Net-(J501-VDD)*%
X70100000Y-76965000D03*
X70650000Y-76965000D03*
%TO.N,Net-(D601-K)*%
X101810000Y-105440000D03*
X103100000Y-109050000D03*
%TO.N,Net-(D602-K)*%
X102200000Y-109070000D03*
X100870000Y-104430000D03*
%TO.N,DSI_CK_P*%
X87515545Y-81075545D03*
X85985000Y-83470000D03*
%TO.N,DSI_CK_N*%
X87904455Y-81464455D03*
X86535000Y-83470000D03*
%TO.N,/MPU_PWR/VDDA*%
X98470000Y-102110000D03*
X99310000Y-102960000D03*
X101320000Y-104820000D03*
%TO.N,I2S2_SDI*%
X92080000Y-97310000D03*
%TO.N,I2S2_WS*%
X92080000Y-98120000D03*
%TO.N,I2S2_CK*%
X91250000Y-98100000D03*
%TO.N,I2S3_SDO*%
X69030000Y-126390000D03*
X88900000Y-98620000D03*
%TO.N,I2S3_CK*%
X70140000Y-125320000D03*
X88460000Y-99070000D03*
%TO.N,I2S3_SDI*%
X90480000Y-98120000D03*
X70130000Y-126410000D03*
%TO.N,I2S3_WS*%
X91280000Y-99690000D03*
X69040000Y-125320000D03*
%TO.N,USB_M_D+*%
X101230000Y-120720000D03*
X102120000Y-120770000D03*
X101980000Y-120130000D03*
%TO.N,USB_M_D-*%
X101240000Y-121290000D03*
X102530000Y-120130000D03*
X102110000Y-121290000D03*
%TO.N,UART7_RX_STM*%
X108890000Y-100550000D03*
X107630000Y-105940000D03*
X102460000Y-97310000D03*
%TO.N,UART7_TX_STM*%
X109130000Y-108060000D03*
X102430000Y-96460000D03*
X105700000Y-99710000D03*
X108880000Y-102110000D03*
%TO.N,SYS_I2C6_SCL*%
X107320000Y-100700000D03*
X104070000Y-91720000D03*
X107270000Y-103070000D03*
X105660000Y-106970000D03*
%TO.N,SYS_I2C6_SDA*%
X105960000Y-100730000D03*
X103270000Y-92520000D03*
%TO.N,FDCAN2_TX*%
X105370000Y-100910000D03*
X101700000Y-94930000D03*
%TO.N,FDCAN2_RX*%
X104070000Y-101320000D03*
%TO.N,ETH1_TXD1*%
X102460000Y-98090000D03*
%TO.N,ETH1_CRS_DV*%
X102470000Y-100520000D03*
%TO.N,ETH1_TXD0*%
X103270000Y-103700000D03*
%TO.N,ETH1_RXD1*%
X104050000Y-102090000D03*
%TO.N,ETH1_MDC*%
X104040000Y-102940000D03*
%TO.N,ETH1_REF_CLK*%
X103270000Y-102100000D03*
%TO.N,SPI5_SCK*%
X105430000Y-98140000D03*
%TO.N,SPI5_MISO*%
X103250000Y-97290000D03*
%TO.N,SPI5_MOSI*%
X109320000Y-105980000D03*
X108880000Y-101370000D03*
X105760000Y-97730000D03*
%TO.N,Net-(U202-~{RST})*%
X97780000Y-115560000D03*
X77300000Y-100970000D03*
X91500000Y-109660000D03*
%TO.N,Net-(U901A-CONFIG0)*%
X71500000Y-120400000D03*
%TO.N,/LCD/LED_A*%
X76100000Y-67500000D03*
X68900000Y-67500000D03*
%TO.N,/LCD/TP_INT*%
X97760000Y-64000000D03*
%TO.N,/LCD/RESET*%
X105470000Y-64320000D03*
X81200000Y-66600000D03*
%TO.N,/LCD/LED_K*%
X78800000Y-66600000D03*
X69674999Y-61585343D03*
%TO.N,/LCD/TP_RES*%
X98570000Y-64510000D03*
%TO.N,LCD_RST*%
X109150000Y-95500000D03*
X105085000Y-98565000D03*
%TO.N,LCD_TP_INTR*%
X108450000Y-94450000D03*
X105750000Y-96850000D03*
%TO.N,LCD_BL_PWM*%
X65500000Y-66400000D03*
X104050000Y-97350000D03*
%TO.N,Net-(U1001-FB)*%
X69000000Y-61600000D03*
X67130000Y-62324999D03*
%TO.N,LCD_TP_RST*%
X108350000Y-93600000D03*
X104050000Y-96500000D03*
%TO.N,1V8_WIFI*%
X66900000Y-110510000D03*
X74200000Y-115500000D03*
X67500000Y-111100000D03*
X73800000Y-114900000D03*
X66900000Y-111100000D03*
X73990000Y-119260000D03*
X73500000Y-118800000D03*
X73850000Y-116600000D03*
X69940000Y-114500000D03*
%TO.N,1V8_WIFI_EN*%
X88300000Y-111980000D03*
X63620000Y-113350000D03*
X92870000Y-102910000D03*
%TO.N,WIFI_PDn*%
X83570000Y-105760000D03*
X89680000Y-100510000D03*
%TO.N,Net-(U901A-PDN)*%
X64680000Y-120880000D03*
X65330000Y-116610000D03*
%TO.N,WLAN_WAKE_HOST*%
X75360000Y-115890000D03*
X67250000Y-124000000D03*
%TO.N,BT_WAKE_HOST*%
X70870000Y-124040000D03*
X79200000Y-124800000D03*
%TO.N,BT_RESET*%
X88630000Y-101700000D03*
X75490000Y-114610000D03*
X65740000Y-124140000D03*
X91230000Y-101380000D03*
%TO.N,WLAN_RESET*%
X75700000Y-115400000D03*
X90540000Y-102880000D03*
X89620000Y-104500000D03*
X66640000Y-124000000D03*
%TO.N,WLAN_DEV_WAKE*%
X65720000Y-125310000D03*
X87780000Y-101010000D03*
X76390000Y-114180000D03*
X91310000Y-100520000D03*
%TO.N,MOD_ADC9{slash}TIM3_CH3*%
X105410000Y-107990000D03*
%TD*%
D15*
%TO.N,VDD_DDR*%
X69875000Y-100695000D02*
X69875000Y-96700000D01*
X70015000Y-100835000D02*
X69875000Y-100695000D01*
D16*
X73675000Y-96775000D02*
X73300000Y-96400000D01*
X73675000Y-100900000D02*
X73675000Y-96775000D01*
D15*
X69875000Y-96700000D02*
X70175000Y-96400000D01*
%TD*%
%TA.AperFunction,Conductor*%
%TO.N,VDD_DDR*%
G36*
X90716335Y-66519685D02*
G01*
X90762090Y-66572489D01*
X90769071Y-66591907D01*
X90769500Y-66593508D01*
X90769500Y-66593511D01*
X90792023Y-66677568D01*
X90835534Y-66752932D01*
X90897068Y-66814466D01*
X90972432Y-66857977D01*
X91056489Y-66880500D01*
X91056491Y-66880500D01*
X91145877Y-66880500D01*
X91212916Y-66900185D01*
X91258671Y-66952989D01*
X91268816Y-66988314D01*
X91269500Y-66993509D01*
X91269500Y-66993511D01*
X91292023Y-67077568D01*
X91335534Y-67152932D01*
X91397068Y-67214466D01*
X91472432Y-67257977D01*
X91556489Y-67280500D01*
X91556491Y-67280500D01*
X91643509Y-67280500D01*
X91643511Y-67280500D01*
X91727568Y-67257977D01*
X91802932Y-67214466D01*
X91864466Y-67152932D01*
X91907977Y-67077568D01*
X91930500Y-66993511D01*
X91930500Y-66906489D01*
X91907977Y-66822432D01*
X91864466Y-66747068D01*
X91829079Y-66711681D01*
X91795594Y-66650358D01*
X91800578Y-66580666D01*
X91842450Y-66524733D01*
X91907914Y-66500316D01*
X91916760Y-66500000D01*
X92392250Y-66500000D01*
X92459289Y-66519685D01*
X92505044Y-66572489D01*
X92514988Y-66641647D01*
X92485963Y-66705203D01*
X92454250Y-66731387D01*
X92447071Y-66735531D01*
X92447066Y-66735535D01*
X92385535Y-66797066D01*
X92385533Y-66797069D01*
X92342023Y-66872431D01*
X92342023Y-66872432D01*
X92319500Y-66956489D01*
X92319500Y-67043511D01*
X92342023Y-67127568D01*
X92385534Y-67202932D01*
X92447068Y-67264466D01*
X92522432Y-67307977D01*
X92606489Y-67330500D01*
X92606491Y-67330500D01*
X92693509Y-67330500D01*
X92693511Y-67330500D01*
X92777568Y-67307977D01*
X92852932Y-67264466D01*
X92914466Y-67202932D01*
X92957977Y-67127568D01*
X92980500Y-67043511D01*
X92980500Y-66956489D01*
X92957977Y-66872432D01*
X92914466Y-66797068D01*
X92852932Y-66735534D01*
X92852931Y-66735533D01*
X92852928Y-66735531D01*
X92845750Y-66731387D01*
X92797534Y-66680820D01*
X92784312Y-66612213D01*
X92810280Y-66547348D01*
X92867194Y-66506820D01*
X92907750Y-66500000D01*
X93292250Y-66500000D01*
X93359289Y-66519685D01*
X93405044Y-66572489D01*
X93414988Y-66641647D01*
X93385963Y-66705203D01*
X93354250Y-66731387D01*
X93347071Y-66735531D01*
X93347066Y-66735535D01*
X93285535Y-66797066D01*
X93285533Y-66797069D01*
X93242023Y-66872431D01*
X93242023Y-66872432D01*
X93219500Y-66956489D01*
X93219500Y-67043511D01*
X93242023Y-67127568D01*
X93285534Y-67202932D01*
X93347068Y-67264466D01*
X93422432Y-67307977D01*
X93506489Y-67330500D01*
X93506491Y-67330500D01*
X93593509Y-67330500D01*
X93593511Y-67330500D01*
X93677568Y-67307977D01*
X93752932Y-67264466D01*
X93814466Y-67202932D01*
X93857977Y-67127568D01*
X93880500Y-67043511D01*
X93880500Y-66956489D01*
X93857977Y-66872432D01*
X93814466Y-66797068D01*
X93752932Y-66735534D01*
X93752931Y-66735533D01*
X93752928Y-66735531D01*
X93745750Y-66731387D01*
X93697534Y-66680820D01*
X93684312Y-66612213D01*
X93710280Y-66547348D01*
X93767194Y-66506820D01*
X93807750Y-66500000D01*
X98585302Y-66500000D01*
X98652341Y-66519685D01*
X98698096Y-66572489D01*
X98708040Y-66641647D01*
X98688041Y-66689130D01*
X98689598Y-66690029D01*
X98642023Y-66772431D01*
X98642023Y-66772432D01*
X98619500Y-66856489D01*
X98619500Y-66943511D01*
X98642023Y-67027568D01*
X98685534Y-67102932D01*
X98747068Y-67164466D01*
X98822432Y-67207977D01*
X98906489Y-67230500D01*
X98906491Y-67230500D01*
X98993509Y-67230500D01*
X98993511Y-67230500D01*
X99077568Y-67207977D01*
X99152932Y-67164466D01*
X99214466Y-67102932D01*
X99257977Y-67027568D01*
X99280500Y-66943511D01*
X99280500Y-66856489D01*
X99257977Y-66772432D01*
X99214466Y-66697068D01*
X99214465Y-66697067D01*
X99210402Y-66690029D01*
X99212251Y-66688961D01*
X99191127Y-66634311D01*
X99205169Y-66565867D01*
X99253986Y-66515880D01*
X99314698Y-66500000D01*
X109675500Y-66500000D01*
X109742539Y-66519685D01*
X109788294Y-66572489D01*
X109799500Y-66624000D01*
X109799500Y-94876000D01*
X109779815Y-94943039D01*
X109727011Y-94988794D01*
X109675500Y-95000000D01*
X108616198Y-95000000D01*
X108549159Y-94980315D01*
X108503404Y-94927511D01*
X108493460Y-94858353D01*
X108522485Y-94794797D01*
X108571086Y-94763562D01*
X108570061Y-94761086D01*
X108577561Y-94757978D01*
X108577568Y-94757977D01*
X108652932Y-94714466D01*
X108714466Y-94652932D01*
X108757977Y-94577568D01*
X108780500Y-94493511D01*
X108780500Y-94406489D01*
X108757977Y-94322432D01*
X108714466Y-94247068D01*
X108652932Y-94185534D01*
X108577568Y-94142023D01*
X108577569Y-94142023D01*
X108552466Y-94135297D01*
X108521546Y-94127012D01*
X108461888Y-94090648D01*
X108431359Y-94027801D01*
X108439654Y-93958425D01*
X108484139Y-93904547D01*
X108491625Y-93899861D01*
X108552932Y-93864466D01*
X108614466Y-93802932D01*
X108657977Y-93727568D01*
X108680500Y-93643511D01*
X108680500Y-93556489D01*
X108657977Y-93472432D01*
X108614466Y-93397068D01*
X108552932Y-93335534D01*
X108477568Y-93292023D01*
X108393511Y-93269500D01*
X108306489Y-93269500D01*
X108222432Y-93292023D01*
X108222431Y-93292023D01*
X108147069Y-93335533D01*
X108147066Y-93335535D01*
X108085535Y-93397066D01*
X108085533Y-93397069D01*
X108042023Y-93472431D01*
X108042023Y-93472432D01*
X108019500Y-93556489D01*
X108019500Y-93643511D01*
X108042023Y-93727568D01*
X108085534Y-93802932D01*
X108147068Y-93864466D01*
X108222432Y-93907977D01*
X108278451Y-93922987D01*
X108338110Y-93959350D01*
X108368640Y-94022197D01*
X108360346Y-94091573D01*
X108315861Y-94145451D01*
X108308357Y-94150148D01*
X108247071Y-94185531D01*
X108247066Y-94185535D01*
X108185535Y-94247066D01*
X108185533Y-94247069D01*
X108142023Y-94322431D01*
X108142023Y-94322432D01*
X108119500Y-94406489D01*
X108119500Y-94493511D01*
X108142023Y-94577568D01*
X108185534Y-94652932D01*
X108247068Y-94714466D01*
X108322432Y-94757977D01*
X108322436Y-94757978D01*
X108329939Y-94761086D01*
X108328715Y-94764040D01*
X108375551Y-94792585D01*
X108406084Y-94855430D01*
X108397793Y-94924806D01*
X108353311Y-94978686D01*
X108286760Y-94999965D01*
X108283802Y-95000000D01*
X107318467Y-95000000D01*
X107251428Y-94980315D01*
X107205673Y-94927511D01*
X107195729Y-94858353D01*
X107224754Y-94794797D01*
X107256467Y-94768613D01*
X107302285Y-94742160D01*
X107332932Y-94724466D01*
X107394466Y-94662932D01*
X107437977Y-94587568D01*
X107460500Y-94503511D01*
X107460500Y-94416489D01*
X107437977Y-94332432D01*
X107394466Y-94257068D01*
X107332932Y-94195534D01*
X107257568Y-94152023D01*
X107195142Y-94135296D01*
X107135483Y-94098932D01*
X107104954Y-94036085D01*
X107113249Y-93966710D01*
X107130996Y-93940509D01*
X107129520Y-93939377D01*
X107134459Y-93932938D01*
X107134466Y-93932932D01*
X107177977Y-93857568D01*
X107200500Y-93773511D01*
X107200500Y-93686489D01*
X107177977Y-93602432D01*
X107134466Y-93527068D01*
X107072932Y-93465534D01*
X106997568Y-93422023D01*
X106913511Y-93399500D01*
X106826489Y-93399500D01*
X106742432Y-93422023D01*
X106742431Y-93422023D01*
X106667069Y-93465533D01*
X106667066Y-93465535D01*
X106605535Y-93527066D01*
X106605533Y-93527069D01*
X106562023Y-93602431D01*
X106562023Y-93602432D01*
X106539500Y-93686489D01*
X106539500Y-93773511D01*
X106562023Y-93857568D01*
X106605534Y-93932932D01*
X106667068Y-93994466D01*
X106742432Y-94037977D01*
X106804856Y-94054703D01*
X106864515Y-94091066D01*
X106895045Y-94153913D01*
X106886751Y-94223288D01*
X106869021Y-94249504D01*
X106870480Y-94250623D01*
X106865533Y-94257069D01*
X106822023Y-94332431D01*
X106822023Y-94332432D01*
X106799500Y-94416489D01*
X106799500Y-94503511D01*
X106822023Y-94587568D01*
X106865534Y-94662932D01*
X106927068Y-94724466D01*
X106927069Y-94724467D01*
X106927071Y-94724468D01*
X107003533Y-94768613D01*
X107051748Y-94819179D01*
X107064972Y-94887786D01*
X107039004Y-94952651D01*
X106982090Y-94993180D01*
X106941533Y-95000000D01*
X103664500Y-95000000D01*
X103597461Y-94980315D01*
X103551706Y-94927511D01*
X103540500Y-94876000D01*
X103540500Y-94841491D01*
X103540500Y-94841489D01*
X103517977Y-94757432D01*
X103474466Y-94682068D01*
X103412932Y-94620534D01*
X103337568Y-94577023D01*
X103253511Y-94554500D01*
X103166489Y-94554500D01*
X103082432Y-94577023D01*
X103082431Y-94577023D01*
X103007069Y-94620533D01*
X103007066Y-94620535D01*
X102945535Y-94682066D01*
X102945533Y-94682069D01*
X102902023Y-94757431D01*
X102902023Y-94757432D01*
X102879500Y-94841489D01*
X102879500Y-94876000D01*
X102859815Y-94943039D01*
X102807011Y-94988794D01*
X102755500Y-95000000D01*
X102154189Y-95000000D01*
X102087150Y-94980315D01*
X102041395Y-94927511D01*
X102031250Y-94892187D01*
X102030500Y-94886496D01*
X102030500Y-94886489D01*
X102007977Y-94802432D01*
X101964466Y-94727068D01*
X101902932Y-94665534D01*
X101827568Y-94622023D01*
X101743511Y-94599500D01*
X101656489Y-94599500D01*
X101572432Y-94622023D01*
X101572431Y-94622023D01*
X101497069Y-94665533D01*
X101497066Y-94665535D01*
X101435535Y-94727066D01*
X101435531Y-94727071D01*
X101400553Y-94787656D01*
X101349986Y-94835872D01*
X101281379Y-94849095D01*
X101216514Y-94823126D01*
X101185779Y-94787655D01*
X101138963Y-94706567D01*
X101138960Y-94706563D01*
X101138959Y-94706561D01*
X101077425Y-94645027D01*
X101002061Y-94601516D01*
X100918004Y-94578993D01*
X100830982Y-94578993D01*
X100746925Y-94601516D01*
X100746924Y-94601516D01*
X100671562Y-94645026D01*
X100671559Y-94645028D01*
X100610028Y-94706559D01*
X100610026Y-94706562D01*
X100566516Y-94781924D01*
X100566516Y-94781925D01*
X100543993Y-94865982D01*
X100543993Y-94876000D01*
X100524308Y-94943039D01*
X100471504Y-94988794D01*
X100419993Y-95000000D01*
X99684500Y-95000000D01*
X99617461Y-94980315D01*
X99571706Y-94927511D01*
X99562337Y-94884446D01*
X99561561Y-94884549D01*
X99560500Y-94876496D01*
X99560500Y-94876489D01*
X99537977Y-94792432D01*
X99494466Y-94717068D01*
X99432932Y-94655534D01*
X99357568Y-94612023D01*
X99273511Y-94589500D01*
X99186489Y-94589500D01*
X99102432Y-94612023D01*
X99102431Y-94612023D01*
X99027069Y-94655533D01*
X99027066Y-94655535D01*
X98965535Y-94717066D01*
X98960584Y-94723519D01*
X98958205Y-94721693D01*
X98917966Y-94760028D01*
X98849353Y-94773221D01*
X98784500Y-94747225D01*
X98753806Y-94711787D01*
X98750792Y-94706567D01*
X98746459Y-94699061D01*
X98684925Y-94637527D01*
X98609561Y-94594016D01*
X98525504Y-94571493D01*
X98438482Y-94571493D01*
X98354425Y-94594016D01*
X98354424Y-94594016D01*
X98279062Y-94637526D01*
X98279059Y-94637528D01*
X98217528Y-94699059D01*
X98217524Y-94699064D01*
X98181493Y-94761473D01*
X98130926Y-94809689D01*
X98062319Y-94822912D01*
X97997454Y-94796944D01*
X97966718Y-94761472D01*
X97966223Y-94760614D01*
X97936459Y-94709061D01*
X97874925Y-94647527D01*
X97799561Y-94604016D01*
X97715504Y-94581493D01*
X97628482Y-94581493D01*
X97544425Y-94604016D01*
X97544424Y-94604016D01*
X97469062Y-94647526D01*
X97469059Y-94647528D01*
X97407528Y-94709059D01*
X97407524Y-94709064D01*
X97376072Y-94763542D01*
X97325505Y-94811758D01*
X97256898Y-94824981D01*
X97192033Y-94799013D01*
X97161298Y-94763542D01*
X97134468Y-94717071D01*
X97134467Y-94717069D01*
X97134466Y-94717068D01*
X97072932Y-94655534D01*
X96997568Y-94612023D01*
X96913511Y-94589500D01*
X96826489Y-94589500D01*
X96742432Y-94612023D01*
X96742431Y-94612023D01*
X96667069Y-94655533D01*
X96667066Y-94655535D01*
X96605535Y-94717066D01*
X96605531Y-94717071D01*
X96584638Y-94753260D01*
X96534071Y-94801476D01*
X96465464Y-94814698D01*
X96400599Y-94788730D01*
X96369864Y-94753260D01*
X96341460Y-94704063D01*
X96341459Y-94704061D01*
X96341458Y-94704060D01*
X96279924Y-94642526D01*
X96204560Y-94599015D01*
X96120503Y-94576492D01*
X96033481Y-94576492D01*
X95949424Y-94599015D01*
X95949423Y-94599015D01*
X95874061Y-94642525D01*
X95874058Y-94642527D01*
X95812527Y-94704058D01*
X95812525Y-94704061D01*
X95804094Y-94718664D01*
X95753525Y-94766878D01*
X95684918Y-94780099D01*
X95620054Y-94754130D01*
X95589320Y-94718659D01*
X95588401Y-94717068D01*
X95573083Y-94690535D01*
X95566460Y-94679063D01*
X95566459Y-94679061D01*
X95566458Y-94679060D01*
X95504924Y-94617526D01*
X95429560Y-94574015D01*
X95345503Y-94551492D01*
X95258481Y-94551492D01*
X95174424Y-94574015D01*
X95174423Y-94574015D01*
X95099061Y-94617525D01*
X95099058Y-94617527D01*
X95037527Y-94679058D01*
X95037525Y-94679061D01*
X94994015Y-94754423D01*
X94990906Y-94761931D01*
X94987726Y-94760614D01*
X94959318Y-94806797D01*
X94896347Y-94837070D01*
X94827006Y-94828492D01*
X94773310Y-94783788D01*
X94768895Y-94776702D01*
X94767580Y-94774425D01*
X94740240Y-94727069D01*
X94734468Y-94717071D01*
X94734467Y-94717069D01*
X94734466Y-94717068D01*
X94672932Y-94655534D01*
X94597568Y-94612023D01*
X94513511Y-94589500D01*
X94426489Y-94589500D01*
X94342432Y-94612023D01*
X94342431Y-94612023D01*
X94267069Y-94655533D01*
X94267066Y-94655535D01*
X94205535Y-94717066D01*
X94205529Y-94717074D01*
X94177387Y-94765819D01*
X94126821Y-94814035D01*
X94058214Y-94827259D01*
X93993349Y-94801291D01*
X93962613Y-94765819D01*
X93934470Y-94717074D01*
X93934467Y-94717070D01*
X93934466Y-94717068D01*
X93872932Y-94655534D01*
X93797568Y-94612023D01*
X93713511Y-94589500D01*
X93626489Y-94589500D01*
X93542432Y-94612023D01*
X93542431Y-94612023D01*
X93467069Y-94655533D01*
X93467066Y-94655535D01*
X93405533Y-94717068D01*
X93391047Y-94742160D01*
X93340479Y-94790375D01*
X93271872Y-94803597D01*
X93207008Y-94777629D01*
X93176273Y-94742159D01*
X93144468Y-94687071D01*
X93144464Y-94687066D01*
X93082933Y-94625535D01*
X93082932Y-94625534D01*
X93007568Y-94582023D01*
X92923511Y-94559500D01*
X92836489Y-94559500D01*
X92752432Y-94582023D01*
X92752431Y-94582023D01*
X92677069Y-94625533D01*
X92677066Y-94625535D01*
X92615535Y-94687066D01*
X92615531Y-94687071D01*
X92568623Y-94768320D01*
X92518056Y-94816535D01*
X92449449Y-94829759D01*
X92384584Y-94803791D01*
X92353848Y-94768318D01*
X92344468Y-94752071D01*
X92344464Y-94752066D01*
X92282933Y-94690535D01*
X92282932Y-94690534D01*
X92207568Y-94647023D01*
X92123511Y-94624500D01*
X92036489Y-94624500D01*
X91952432Y-94647023D01*
X91952431Y-94647023D01*
X91877069Y-94690533D01*
X91877066Y-94690535D01*
X91815535Y-94752066D01*
X91815531Y-94752071D01*
X91782762Y-94808830D01*
X91732195Y-94857046D01*
X91663588Y-94870269D01*
X91598723Y-94844301D01*
X91560812Y-94794278D01*
X91557978Y-94787436D01*
X91557977Y-94787432D01*
X91514466Y-94712068D01*
X91452932Y-94650534D01*
X91377568Y-94607023D01*
X91293511Y-94584500D01*
X91206489Y-94584500D01*
X91143239Y-94601447D01*
X91122431Y-94607023D01*
X91047069Y-94650533D01*
X91047066Y-94650535D01*
X90985535Y-94712066D01*
X90985533Y-94712069D01*
X90942023Y-94787431D01*
X90942023Y-94787432D01*
X90919500Y-94871489D01*
X90919500Y-94876000D01*
X90899815Y-94943039D01*
X90847011Y-94988794D01*
X90795500Y-95000000D01*
X87361931Y-95000000D01*
X87305219Y-94984803D01*
X87305082Y-94985135D01*
X87302565Y-94984092D01*
X87299929Y-94983386D01*
X87297568Y-94982023D01*
X87213511Y-94959500D01*
X87126489Y-94959500D01*
X87042432Y-94982023D01*
X87040070Y-94983386D01*
X87037434Y-94984092D01*
X87034918Y-94985135D01*
X87034780Y-94984803D01*
X86978069Y-95000000D01*
X84000000Y-95000000D01*
X84000000Y-92551489D01*
X90119500Y-92551489D01*
X90119500Y-92638511D01*
X90142023Y-92722568D01*
X90185534Y-92797932D01*
X90247068Y-92859466D01*
X90322432Y-92902977D01*
X90406489Y-92925500D01*
X90406491Y-92925500D01*
X90493509Y-92925500D01*
X90493511Y-92925500D01*
X90577568Y-92902977D01*
X90652932Y-92859466D01*
X90714466Y-92797932D01*
X90757977Y-92722568D01*
X90763836Y-92700698D01*
X90771967Y-92687359D01*
X90775462Y-92672132D01*
X90789780Y-92658135D01*
X90800201Y-92641040D01*
X90814252Y-92634213D01*
X90825426Y-92623292D01*
X90845037Y-92619259D01*
X90863047Y-92610510D01*
X90878561Y-92612364D01*
X90893864Y-92609218D01*
X90912540Y-92616427D01*
X90932423Y-92618804D01*
X90945354Y-92629093D01*
X90959046Y-92634378D01*
X90975349Y-92652959D01*
X90983717Y-92659617D01*
X90991351Y-92670060D01*
X90992023Y-92672568D01*
X91035534Y-92747932D01*
X91082893Y-92795291D01*
X91088545Y-92803023D01*
X91097267Y-92827246D01*
X91109605Y-92849841D01*
X91108908Y-92859576D01*
X91112216Y-92868761D01*
X91106457Y-92893853D01*
X91104621Y-92919533D01*
X91098771Y-92927347D01*
X91096588Y-92936860D01*
X91078177Y-92954855D01*
X91062749Y-92975466D01*
X91050450Y-92983580D01*
X91047074Y-92985529D01*
X91047066Y-92985535D01*
X90985535Y-93047066D01*
X90985533Y-93047069D01*
X90942023Y-93122431D01*
X90942023Y-93122432D01*
X90919500Y-93206489D01*
X90919500Y-93293511D01*
X90942023Y-93377568D01*
X90985534Y-93452932D01*
X91047068Y-93514466D01*
X91056525Y-93519926D01*
X91065509Y-93525113D01*
X91113724Y-93575681D01*
X91126946Y-93644288D01*
X91100978Y-93709152D01*
X91065509Y-93739887D01*
X91047069Y-93750533D01*
X91047066Y-93750535D01*
X90985535Y-93812066D01*
X90985533Y-93812069D01*
X90942023Y-93887431D01*
X90942023Y-93887432D01*
X90919500Y-93971489D01*
X90919500Y-94058511D01*
X90942023Y-94142568D01*
X90985534Y-94217932D01*
X91047068Y-94279466D01*
X91122432Y-94322977D01*
X91206489Y-94345500D01*
X91293511Y-94345500D01*
X91377568Y-94322977D01*
X91452932Y-94279466D01*
X91514466Y-94217932D01*
X91557977Y-94142568D01*
X91569327Y-94100207D01*
X91605690Y-94040549D01*
X91668536Y-94010019D01*
X91737912Y-94018313D01*
X91791791Y-94062798D01*
X91796485Y-94070298D01*
X91835534Y-94137932D01*
X91897068Y-94199466D01*
X91972432Y-94242977D01*
X92056489Y-94265500D01*
X92056491Y-94265500D01*
X92143509Y-94265500D01*
X92143511Y-94265500D01*
X92227568Y-94242977D01*
X92302932Y-94199466D01*
X92364466Y-94137932D01*
X92407977Y-94062568D01*
X92430500Y-93978511D01*
X92430500Y-93891489D01*
X92407977Y-93807432D01*
X92364466Y-93732068D01*
X92330079Y-93697681D01*
X92296594Y-93636358D01*
X92301578Y-93566666D01*
X92330079Y-93522319D01*
X92337934Y-93514464D01*
X92354466Y-93497932D01*
X92397977Y-93422568D01*
X92420500Y-93338511D01*
X92420500Y-93273482D01*
X93336493Y-93273482D01*
X93336493Y-93360504D01*
X93359016Y-93444561D01*
X93402527Y-93519925D01*
X93464061Y-93581459D01*
X93539425Y-93624970D01*
X93623482Y-93647493D01*
X93623484Y-93647493D01*
X93710502Y-93647493D01*
X93710504Y-93647493D01*
X93794561Y-93624970D01*
X93869925Y-93581459D01*
X93931459Y-93519925D01*
X93974970Y-93444561D01*
X93997493Y-93360504D01*
X93997493Y-93273482D01*
X94936493Y-93273482D01*
X94936493Y-93360504D01*
X94959016Y-93444561D01*
X95002527Y-93519925D01*
X95064061Y-93581459D01*
X95139425Y-93624970D01*
X95223482Y-93647493D01*
X95223484Y-93647493D01*
X95310502Y-93647493D01*
X95310504Y-93647493D01*
X95394561Y-93624970D01*
X95469925Y-93581459D01*
X95531459Y-93519925D01*
X95574970Y-93444561D01*
X95597493Y-93360504D01*
X95597493Y-93276489D01*
X96539500Y-93276489D01*
X96539500Y-93363511D01*
X96562023Y-93447568D01*
X96605534Y-93522932D01*
X96667068Y-93584466D01*
X96742432Y-93627977D01*
X96826489Y-93650500D01*
X96826491Y-93650500D01*
X96913509Y-93650500D01*
X96913511Y-93650500D01*
X96997568Y-93627977D01*
X97072932Y-93584466D01*
X97134466Y-93522932D01*
X97177977Y-93447568D01*
X97200500Y-93363511D01*
X97200500Y-93276489D01*
X97199694Y-93273481D01*
X98136492Y-93273481D01*
X98136492Y-93360503D01*
X98159015Y-93444560D01*
X98202526Y-93519924D01*
X98264060Y-93581458D01*
X98339424Y-93624969D01*
X98423481Y-93647492D01*
X98423483Y-93647492D01*
X98510501Y-93647492D01*
X98510503Y-93647492D01*
X98594560Y-93624969D01*
X98669924Y-93581458D01*
X98731458Y-93519924D01*
X98774969Y-93444560D01*
X98797492Y-93360503D01*
X98797492Y-93298481D01*
X99711492Y-93298481D01*
X99711492Y-93385503D01*
X99734015Y-93469560D01*
X99777526Y-93544924D01*
X99839060Y-93606458D01*
X99914424Y-93649969D01*
X99998481Y-93672492D01*
X99998483Y-93672492D01*
X100085501Y-93672492D01*
X100085503Y-93672492D01*
X100169560Y-93649969D01*
X100244924Y-93606458D01*
X100306458Y-93544924D01*
X100349969Y-93469560D01*
X100372492Y-93385503D01*
X100372492Y-93298481D01*
X100368473Y-93283482D01*
X101326493Y-93283482D01*
X101326493Y-93370504D01*
X101349016Y-93454561D01*
X101392527Y-93529925D01*
X101454061Y-93591459D01*
X101529425Y-93634970D01*
X101613482Y-93657493D01*
X101613484Y-93657493D01*
X101700502Y-93657493D01*
X101700504Y-93657493D01*
X101784561Y-93634970D01*
X101859925Y-93591459D01*
X101921459Y-93529925D01*
X101957392Y-93467685D01*
X102007957Y-93419470D01*
X102076564Y-93406246D01*
X102141429Y-93432213D01*
X102172166Y-93467685D01*
X102200941Y-93517525D01*
X102262475Y-93579059D01*
X102262477Y-93579060D01*
X102262481Y-93579063D01*
X102305214Y-93603735D01*
X102353430Y-93654301D01*
X102366654Y-93722908D01*
X102340686Y-93787773D01*
X102305216Y-93818509D01*
X102267068Y-93840533D01*
X102205535Y-93902066D01*
X102205533Y-93902069D01*
X102162023Y-93977431D01*
X102162023Y-93977432D01*
X102139500Y-94061489D01*
X102139500Y-94148511D01*
X102162023Y-94232568D01*
X102205534Y-94307932D01*
X102267068Y-94369466D01*
X102342432Y-94412977D01*
X102426489Y-94435500D01*
X102426491Y-94435500D01*
X102513509Y-94435500D01*
X102513511Y-94435500D01*
X102597568Y-94412977D01*
X102672932Y-94369466D01*
X102734466Y-94307932D01*
X102777977Y-94232568D01*
X102800500Y-94148511D01*
X102800500Y-94061489D01*
X102777977Y-93977432D01*
X102734466Y-93902068D01*
X102672932Y-93840534D01*
X102672931Y-93840533D01*
X102672928Y-93840531D01*
X102630191Y-93815857D01*
X102581975Y-93765290D01*
X102568752Y-93696683D01*
X102594721Y-93631818D01*
X102630191Y-93601083D01*
X102668339Y-93579059D01*
X102729873Y-93517525D01*
X102762063Y-93461768D01*
X102812628Y-93413554D01*
X102881235Y-93400330D01*
X102946100Y-93426297D01*
X102976837Y-93461770D01*
X103007521Y-93514917D01*
X103007525Y-93514922D01*
X103007526Y-93514924D01*
X103069060Y-93576458D01*
X103144424Y-93619969D01*
X103228481Y-93642492D01*
X103228483Y-93642492D01*
X103315501Y-93642492D01*
X103315503Y-93642492D01*
X103399560Y-93619969D01*
X103474924Y-93576458D01*
X103536458Y-93514924D01*
X103546966Y-93496722D01*
X103597531Y-93448507D01*
X103666138Y-93435282D01*
X103731003Y-93461248D01*
X103761740Y-93496720D01*
X103762441Y-93497933D01*
X103785532Y-93537930D01*
X103785534Y-93537932D01*
X103847068Y-93599466D01*
X103922432Y-93642977D01*
X104006489Y-93665500D01*
X104006491Y-93665500D01*
X104093509Y-93665500D01*
X104093511Y-93665500D01*
X104177568Y-93642977D01*
X104252932Y-93599466D01*
X104314466Y-93537932D01*
X104357977Y-93462568D01*
X104380500Y-93378511D01*
X104380500Y-93291489D01*
X104357977Y-93207432D01*
X104314466Y-93132068D01*
X104293887Y-93111489D01*
X104599500Y-93111489D01*
X104599500Y-93198511D01*
X104622023Y-93282568D01*
X104665534Y-93357932D01*
X104727068Y-93419466D01*
X104802432Y-93462977D01*
X104886489Y-93485500D01*
X104886491Y-93485500D01*
X104973509Y-93485500D01*
X104973511Y-93485500D01*
X105057568Y-93462977D01*
X105132932Y-93419466D01*
X105194466Y-93357932D01*
X105237977Y-93282568D01*
X105260500Y-93198511D01*
X105260500Y-93111489D01*
X105237977Y-93027432D01*
X105194466Y-92952068D01*
X105132932Y-92890534D01*
X105057568Y-92847023D01*
X104973511Y-92824500D01*
X104886489Y-92824500D01*
X104802432Y-92847023D01*
X104802431Y-92847023D01*
X104727069Y-92890533D01*
X104727066Y-92890535D01*
X104665535Y-92952066D01*
X104665533Y-92952069D01*
X104622023Y-93027431D01*
X104622023Y-93027432D01*
X104599500Y-93111489D01*
X104293887Y-93111489D01*
X104252932Y-93070534D01*
X104177568Y-93027023D01*
X104093511Y-93004500D01*
X104006489Y-93004500D01*
X103922432Y-93027023D01*
X103922431Y-93027023D01*
X103847069Y-93070533D01*
X103847066Y-93070535D01*
X103785535Y-93132066D01*
X103785531Y-93132071D01*
X103775023Y-93150272D01*
X103724455Y-93198487D01*
X103655848Y-93211708D01*
X103590983Y-93185739D01*
X103580127Y-93176122D01*
X103568474Y-93164515D01*
X103536458Y-93109060D01*
X103474924Y-93047526D01*
X103418082Y-93014708D01*
X103406601Y-93003272D01*
X103397274Y-92986271D01*
X103383895Y-92972239D01*
X103380818Y-92956273D01*
X103372996Y-92942015D01*
X103374341Y-92922669D01*
X103370673Y-92903632D01*
X103376716Y-92888536D01*
X103377845Y-92872313D01*
X103389435Y-92856767D01*
X103396641Y-92838768D01*
X103414194Y-92823557D01*
X103419607Y-92816298D01*
X103424837Y-92814335D01*
X103432107Y-92808035D01*
X103472932Y-92784466D01*
X103534466Y-92722932D01*
X103577977Y-92647568D01*
X103600500Y-92563511D01*
X103600500Y-92476489D01*
X103577977Y-92392432D01*
X103534466Y-92317068D01*
X103472932Y-92255534D01*
X103472931Y-92255533D01*
X103451101Y-92242930D01*
X103424178Y-92227386D01*
X103375964Y-92176821D01*
X103362740Y-92108215D01*
X103388707Y-92043350D01*
X103424179Y-92012613D01*
X103472932Y-91984466D01*
X103534466Y-91922932D01*
X103562613Y-91874178D01*
X103613179Y-91825964D01*
X103681785Y-91812740D01*
X103746650Y-91838707D01*
X103777385Y-91874177D01*
X103791953Y-91899408D01*
X103805532Y-91922930D01*
X103805534Y-91922932D01*
X103867068Y-91984466D01*
X103942432Y-92027977D01*
X104026489Y-92050500D01*
X104026491Y-92050500D01*
X104113509Y-92050500D01*
X104113511Y-92050500D01*
X104197568Y-92027977D01*
X104272932Y-91984466D01*
X104334466Y-91922932D01*
X104369159Y-91862840D01*
X104419724Y-91814625D01*
X104488331Y-91801401D01*
X104553196Y-91827368D01*
X104583932Y-91862839D01*
X104595529Y-91882925D01*
X104595533Y-91882930D01*
X104595534Y-91882932D01*
X104657068Y-91944466D01*
X104732432Y-91987977D01*
X104816489Y-92010500D01*
X104816491Y-92010500D01*
X104903509Y-92010500D01*
X104903511Y-92010500D01*
X104987568Y-91987977D01*
X105062932Y-91944466D01*
X105124466Y-91882932D01*
X105167977Y-91807568D01*
X105190500Y-91723511D01*
X105190500Y-91636489D01*
X105167977Y-91552432D01*
X105124466Y-91477068D01*
X105062932Y-91415534D01*
X104987568Y-91372023D01*
X104903511Y-91349500D01*
X104816489Y-91349500D01*
X104732432Y-91372023D01*
X104732431Y-91372023D01*
X104657069Y-91415533D01*
X104657066Y-91415535D01*
X104595535Y-91477066D01*
X104595531Y-91477071D01*
X104560840Y-91537159D01*
X104510273Y-91585375D01*
X104441666Y-91598598D01*
X104376801Y-91572630D01*
X104346066Y-91537159D01*
X104334468Y-91517071D01*
X104334467Y-91517069D01*
X104334466Y-91517068D01*
X104272932Y-91455534D01*
X104197568Y-91412023D01*
X104113511Y-91389500D01*
X104026489Y-91389500D01*
X103942432Y-91412023D01*
X103942431Y-91412023D01*
X103867069Y-91455533D01*
X103867066Y-91455535D01*
X103805535Y-91517066D01*
X103805529Y-91517074D01*
X103777387Y-91565819D01*
X103726821Y-91614035D01*
X103658214Y-91627259D01*
X103593349Y-91601291D01*
X103562613Y-91565819D01*
X103534470Y-91517074D01*
X103534467Y-91517070D01*
X103534466Y-91517068D01*
X103472932Y-91455534D01*
X103397568Y-91412023D01*
X103313511Y-91389500D01*
X103226489Y-91389500D01*
X103142432Y-91412023D01*
X103142431Y-91412023D01*
X103067069Y-91455533D01*
X103067066Y-91455535D01*
X103005535Y-91517066D01*
X103005533Y-91517069D01*
X102962023Y-91592431D01*
X102962023Y-91592432D01*
X102939500Y-91676489D01*
X102939500Y-91763511D01*
X102962023Y-91847568D01*
X103005534Y-91922932D01*
X103067068Y-91984466D01*
X103067070Y-91984467D01*
X103067074Y-91984470D01*
X103115819Y-92012613D01*
X103164035Y-92063179D01*
X103177259Y-92131786D01*
X103151291Y-92196651D01*
X103137112Y-92211861D01*
X103127295Y-92220762D01*
X103067068Y-92255534D01*
X103005534Y-92317068D01*
X102988452Y-92346654D01*
X102974065Y-92359700D01*
X102959391Y-92366804D01*
X102947592Y-92378055D01*
X102928593Y-92381716D01*
X102911179Y-92390148D01*
X102894993Y-92388191D01*
X102878985Y-92391277D01*
X102861023Y-92384086D01*
X102841815Y-92381765D01*
X102829256Y-92371368D01*
X102814120Y-92365309D01*
X102794288Y-92342421D01*
X102787994Y-92337211D01*
X102786960Y-92333964D01*
X102783386Y-92329840D01*
X102764466Y-92297068D01*
X102702932Y-92235534D01*
X102627568Y-92192023D01*
X102543511Y-92169500D01*
X102456489Y-92169500D01*
X102372432Y-92192023D01*
X102372431Y-92192023D01*
X102297069Y-92235533D01*
X102297066Y-92235535D01*
X102235535Y-92297066D01*
X102235533Y-92297069D01*
X102192023Y-92372431D01*
X102192023Y-92372432D01*
X102169500Y-92456489D01*
X102169500Y-92543511D01*
X102192023Y-92627568D01*
X102235534Y-92702932D01*
X102297068Y-92764466D01*
X102341160Y-92789922D01*
X102389376Y-92840489D01*
X102402600Y-92909096D01*
X102376632Y-92973961D01*
X102341161Y-93004697D01*
X102262478Y-93050124D01*
X102262473Y-93050128D01*
X102200942Y-93111659D01*
X102200938Y-93111664D01*
X102165007Y-93173900D01*
X102114440Y-93222116D01*
X102045833Y-93235339D01*
X101980968Y-93209371D01*
X101950233Y-93173900D01*
X101921459Y-93124061D01*
X101859925Y-93062527D01*
X101784561Y-93019016D01*
X101700504Y-92996493D01*
X101613482Y-92996493D01*
X101529425Y-93019016D01*
X101529424Y-93019016D01*
X101454062Y-93062526D01*
X101454059Y-93062528D01*
X101392528Y-93124059D01*
X101392526Y-93124062D01*
X101349016Y-93199424D01*
X101349016Y-93199425D01*
X101326493Y-93283482D01*
X100368473Y-93283482D01*
X100349969Y-93214424D01*
X100306458Y-93139060D01*
X100244924Y-93077526D01*
X100169560Y-93034015D01*
X100085503Y-93011492D01*
X99998481Y-93011492D01*
X99914424Y-93034015D01*
X99914423Y-93034015D01*
X99839061Y-93077525D01*
X99839058Y-93077527D01*
X99777527Y-93139058D01*
X99777525Y-93139061D01*
X99734015Y-93214423D01*
X99734015Y-93214424D01*
X99711492Y-93298481D01*
X98797492Y-93298481D01*
X98797492Y-93273481D01*
X98774969Y-93189424D01*
X98731458Y-93114060D01*
X98669924Y-93052526D01*
X98594560Y-93009015D01*
X98510503Y-92986492D01*
X98423481Y-92986492D01*
X98339424Y-93009015D01*
X98339423Y-93009015D01*
X98264061Y-93052525D01*
X98264058Y-93052527D01*
X98202527Y-93114058D01*
X98202525Y-93114061D01*
X98159015Y-93189423D01*
X98159015Y-93189424D01*
X98136492Y-93273481D01*
X97199694Y-93273481D01*
X97177977Y-93192432D01*
X97134466Y-93117068D01*
X97072932Y-93055534D01*
X96997568Y-93012023D01*
X96913511Y-92989500D01*
X96826489Y-92989500D01*
X96742432Y-93012023D01*
X96742431Y-93012023D01*
X96667069Y-93055533D01*
X96667066Y-93055535D01*
X96605535Y-93117066D01*
X96605533Y-93117069D01*
X96562023Y-93192431D01*
X96562023Y-93192432D01*
X96539500Y-93276489D01*
X95597493Y-93276489D01*
X95597493Y-93273482D01*
X95574970Y-93189425D01*
X95531459Y-93114061D01*
X95469925Y-93052527D01*
X95394561Y-93009016D01*
X95310504Y-92986493D01*
X95223482Y-92986493D01*
X95139425Y-93009016D01*
X95139424Y-93009016D01*
X95064062Y-93052526D01*
X95064059Y-93052528D01*
X95002528Y-93114059D01*
X95002526Y-93114062D01*
X94959016Y-93189424D01*
X94959016Y-93189425D01*
X94936493Y-93273482D01*
X93997493Y-93273482D01*
X93974970Y-93189425D01*
X93931459Y-93114061D01*
X93869925Y-93052527D01*
X93794561Y-93009016D01*
X93710504Y-92986493D01*
X93623482Y-92986493D01*
X93539425Y-93009016D01*
X93539424Y-93009016D01*
X93464062Y-93052526D01*
X93464059Y-93052528D01*
X93402528Y-93114059D01*
X93402526Y-93114062D01*
X93359016Y-93189424D01*
X93359016Y-93189425D01*
X93336493Y-93273482D01*
X92420500Y-93273482D01*
X92420500Y-93251489D01*
X92397977Y-93167432D01*
X92354466Y-93092068D01*
X92292932Y-93030534D01*
X92292930Y-93030533D01*
X92292925Y-93030529D01*
X92241860Y-93001047D01*
X92193644Y-92950481D01*
X92180420Y-92881874D01*
X92206388Y-92817009D01*
X92241860Y-92786272D01*
X92247566Y-92782977D01*
X92247568Y-92782977D01*
X92322932Y-92739466D01*
X92384466Y-92677932D01*
X92427977Y-92602568D01*
X92450500Y-92518511D01*
X92450500Y-92431489D01*
X92427977Y-92347432D01*
X92384466Y-92272068D01*
X92322932Y-92210534D01*
X92247568Y-92167023D01*
X92163511Y-92144500D01*
X92076489Y-92144500D01*
X91992432Y-92167023D01*
X91992431Y-92167023D01*
X91917069Y-92210533D01*
X91917066Y-92210535D01*
X91855535Y-92272066D01*
X91855533Y-92272069D01*
X91812023Y-92347431D01*
X91812020Y-92347437D01*
X91812011Y-92347475D01*
X91811994Y-92347502D01*
X91808914Y-92354939D01*
X91807753Y-92354458D01*
X91775643Y-92407134D01*
X91712795Y-92437660D01*
X91643420Y-92429362D01*
X91589544Y-92384874D01*
X91584850Y-92377375D01*
X91577884Y-92365309D01*
X91564466Y-92342068D01*
X91502932Y-92280534D01*
X91427568Y-92237023D01*
X91343511Y-92214500D01*
X91256489Y-92214500D01*
X91172432Y-92237023D01*
X91172431Y-92237023D01*
X91097069Y-92280533D01*
X91097066Y-92280535D01*
X91035535Y-92342066D01*
X91035533Y-92342069D01*
X90992023Y-92417431D01*
X90986162Y-92439304D01*
X90949795Y-92498963D01*
X90886947Y-92529490D01*
X90817571Y-92521193D01*
X90763695Y-92476705D01*
X90759000Y-92469205D01*
X90757977Y-92467433D01*
X90757977Y-92467432D01*
X90714466Y-92392068D01*
X90652932Y-92330534D01*
X90577568Y-92287023D01*
X90493511Y-92264500D01*
X90406489Y-92264500D01*
X90322432Y-92287023D01*
X90322431Y-92287023D01*
X90247069Y-92330533D01*
X90247066Y-92330535D01*
X90185535Y-92392066D01*
X90185533Y-92392069D01*
X90142023Y-92467431D01*
X90142023Y-92467432D01*
X90119500Y-92551489D01*
X84000000Y-92551489D01*
X84000000Y-91996489D01*
X89129500Y-91996489D01*
X89129500Y-92083511D01*
X89152023Y-92167568D01*
X89195534Y-92242932D01*
X89257068Y-92304466D01*
X89332432Y-92347977D01*
X89416489Y-92370500D01*
X89416491Y-92370500D01*
X89503509Y-92370500D01*
X89503511Y-92370500D01*
X89587568Y-92347977D01*
X89662932Y-92304466D01*
X89724466Y-92242932D01*
X89767977Y-92167568D01*
X89790500Y-92083511D01*
X89790500Y-91996489D01*
X89767977Y-91912432D01*
X89724466Y-91837068D01*
X89662932Y-91775534D01*
X89587568Y-91732023D01*
X89503511Y-91709500D01*
X89416489Y-91709500D01*
X89332432Y-91732023D01*
X89332431Y-91732023D01*
X89257069Y-91775533D01*
X89257066Y-91775535D01*
X89195535Y-91837066D01*
X89195533Y-91837069D01*
X89152023Y-91912431D01*
X89152023Y-91912432D01*
X89129500Y-91996489D01*
X84000000Y-91996489D01*
X84000000Y-91536489D01*
X92519500Y-91536489D01*
X92519500Y-91623511D01*
X92542023Y-91707568D01*
X92585534Y-91782932D01*
X92647068Y-91844466D01*
X92722432Y-91887977D01*
X92806489Y-91910500D01*
X92806491Y-91910500D01*
X92893509Y-91910500D01*
X92893511Y-91910500D01*
X92977568Y-91887977D01*
X93052932Y-91844466D01*
X93087408Y-91809989D01*
X93148728Y-91776505D01*
X93218420Y-91781489D01*
X93274354Y-91823359D01*
X93282469Y-91835662D01*
X93302818Y-91870907D01*
X93315532Y-91892930D01*
X93315534Y-91892932D01*
X93377068Y-91954466D01*
X93452432Y-91997977D01*
X93536489Y-92020500D01*
X93536491Y-92020500D01*
X93598186Y-92020500D01*
X93665225Y-92040185D01*
X93710980Y-92092989D01*
X93717959Y-92112402D01*
X93722023Y-92127568D01*
X93765534Y-92202932D01*
X93827068Y-92264466D01*
X93902432Y-92307977D01*
X93986489Y-92330500D01*
X93986491Y-92330500D01*
X94073509Y-92330500D01*
X94073511Y-92330500D01*
X94157568Y-92307977D01*
X94232932Y-92264466D01*
X94294466Y-92202932D01*
X94337977Y-92127568D01*
X94352758Y-92072404D01*
X94389122Y-92012746D01*
X94451969Y-91982217D01*
X94472532Y-91980500D01*
X94503509Y-91980500D01*
X94503511Y-91980500D01*
X94587568Y-91957977D01*
X94662932Y-91914466D01*
X94724466Y-91852932D01*
X94757237Y-91796169D01*
X94807802Y-91747954D01*
X94876409Y-91734730D01*
X94941274Y-91760697D01*
X94979185Y-91810717D01*
X94982021Y-91817564D01*
X94982022Y-91817567D01*
X94982023Y-91817568D01*
X95025534Y-91892932D01*
X95087068Y-91954466D01*
X95162432Y-91997977D01*
X95246489Y-92020500D01*
X95246491Y-92020500D01*
X95333509Y-92020500D01*
X95333511Y-92020500D01*
X95417568Y-91997977D01*
X95492932Y-91954466D01*
X95547992Y-91899405D01*
X95609311Y-91865923D01*
X95679003Y-91870907D01*
X95734937Y-91912778D01*
X95743056Y-91925087D01*
X95762934Y-91959517D01*
X95824468Y-92021051D01*
X95899832Y-92064562D01*
X95983889Y-92087085D01*
X95983891Y-92087085D01*
X96070909Y-92087085D01*
X96070911Y-92087085D01*
X96154968Y-92064562D01*
X96230332Y-92021051D01*
X96291866Y-91959517D01*
X96335377Y-91884153D01*
X96335378Y-91884146D01*
X96338486Y-91876646D01*
X96340147Y-91877334D01*
X96371254Y-91826291D01*
X96434099Y-91795756D01*
X96503475Y-91804046D01*
X96557356Y-91848527D01*
X96562055Y-91856034D01*
X96592934Y-91909517D01*
X96654468Y-91971051D01*
X96729832Y-92014562D01*
X96813889Y-92037085D01*
X96813891Y-92037085D01*
X96900909Y-92037085D01*
X96900911Y-92037085D01*
X96984968Y-92014562D01*
X97060332Y-91971051D01*
X97121866Y-91909517D01*
X97165377Y-91834153D01*
X97187900Y-91750096D01*
X97187900Y-91673074D01*
X98136900Y-91673074D01*
X98136900Y-91760096D01*
X98159423Y-91844153D01*
X98202934Y-91919517D01*
X98264468Y-91981051D01*
X98339832Y-92024562D01*
X98423889Y-92047085D01*
X98423891Y-92047085D01*
X98510909Y-92047085D01*
X98510911Y-92047085D01*
X98594968Y-92024562D01*
X98670332Y-91981051D01*
X98731866Y-91919517D01*
X98775377Y-91844153D01*
X98797900Y-91760096D01*
X98797900Y-91673074D01*
X98775377Y-91589017D01*
X98731866Y-91513653D01*
X98670332Y-91452119D01*
X98670331Y-91452118D01*
X98670328Y-91452116D01*
X98626579Y-91426858D01*
X98578364Y-91376291D01*
X98565140Y-91307684D01*
X98591108Y-91242820D01*
X98626578Y-91212085D01*
X98680332Y-91181051D01*
X98741866Y-91119517D01*
X98777512Y-91057774D01*
X98828079Y-91009559D01*
X98896686Y-90996335D01*
X98961551Y-91022303D01*
X98992286Y-91057773D01*
X99027934Y-91119517D01*
X99089468Y-91181051D01*
X99164832Y-91224562D01*
X99248889Y-91247085D01*
X99248891Y-91247085D01*
X99335909Y-91247085D01*
X99335911Y-91247085D01*
X99419968Y-91224562D01*
X99495332Y-91181051D01*
X99556866Y-91119517D01*
X99556866Y-91119516D01*
X99562613Y-91113770D01*
X99563622Y-91114779D01*
X99612949Y-91078760D01*
X99682695Y-91074603D01*
X99732524Y-91098750D01*
X99748217Y-91111347D01*
X99752934Y-91119517D01*
X99814468Y-91181051D01*
X99887766Y-91223369D01*
X99895168Y-91229311D01*
X99909936Y-91250496D01*
X99927759Y-91269188D01*
X99929590Y-91278690D01*
X99935124Y-91286628D01*
X99936094Y-91312433D01*
X99940983Y-91337795D01*
X99937386Y-91346779D01*
X99937750Y-91356448D01*
X99924613Y-91378683D01*
X99915015Y-91402660D01*
X99904042Y-91413503D01*
X99902211Y-91416604D01*
X99899552Y-91417941D01*
X99893037Y-91424380D01*
X99889468Y-91427118D01*
X99827935Y-91488651D01*
X99827933Y-91488654D01*
X99784423Y-91564016D01*
X99784423Y-91564017D01*
X99761900Y-91648074D01*
X99761900Y-91735096D01*
X99784423Y-91819153D01*
X99827934Y-91894517D01*
X99889468Y-91956051D01*
X99964832Y-91999562D01*
X100048889Y-92022085D01*
X100048891Y-92022085D01*
X100135909Y-92022085D01*
X100135911Y-92022085D01*
X100219968Y-91999562D01*
X100295332Y-91956051D01*
X100356866Y-91894517D01*
X100400377Y-91819153D01*
X100422900Y-91735096D01*
X100422900Y-91673074D01*
X101336900Y-91673074D01*
X101336900Y-91760096D01*
X101359423Y-91844153D01*
X101402934Y-91919517D01*
X101464468Y-91981051D01*
X101539832Y-92024562D01*
X101623889Y-92047085D01*
X101623891Y-92047085D01*
X101710909Y-92047085D01*
X101710911Y-92047085D01*
X101794968Y-92024562D01*
X101870332Y-91981051D01*
X101931866Y-91919517D01*
X101975377Y-91844153D01*
X101997900Y-91760096D01*
X101997900Y-91673074D01*
X101975377Y-91589017D01*
X101931866Y-91513653D01*
X101870332Y-91452119D01*
X101794968Y-91408608D01*
X101710911Y-91386085D01*
X101623889Y-91386085D01*
X101539832Y-91408608D01*
X101539831Y-91408608D01*
X101464469Y-91452118D01*
X101464466Y-91452120D01*
X101402935Y-91513651D01*
X101402933Y-91513654D01*
X101359423Y-91589016D01*
X101359423Y-91589017D01*
X101336900Y-91673074D01*
X100422900Y-91673074D01*
X100422900Y-91648074D01*
X100400377Y-91564017D01*
X100356866Y-91488653D01*
X100295332Y-91427119D01*
X100230255Y-91389547D01*
X100182040Y-91338981D01*
X100169995Y-91276489D01*
X106989500Y-91276489D01*
X106989500Y-91363511D01*
X107012023Y-91447568D01*
X107055534Y-91522932D01*
X107117068Y-91584466D01*
X107192432Y-91627977D01*
X107276489Y-91650500D01*
X107276491Y-91650500D01*
X107363509Y-91650500D01*
X107363511Y-91650500D01*
X107447568Y-91627977D01*
X107522932Y-91584466D01*
X107584466Y-91522932D01*
X107627977Y-91447568D01*
X107650500Y-91363511D01*
X107650500Y-91276489D01*
X107627977Y-91192432D01*
X107584466Y-91117068D01*
X107522932Y-91055534D01*
X107447568Y-91012023D01*
X107363511Y-90989500D01*
X107276489Y-90989500D01*
X107192432Y-91012023D01*
X107192431Y-91012023D01*
X107117069Y-91055533D01*
X107117066Y-91055535D01*
X107055535Y-91117066D01*
X107055533Y-91117069D01*
X107012023Y-91192431D01*
X107012023Y-91192432D01*
X106989500Y-91276489D01*
X100169995Y-91276489D01*
X100168816Y-91270374D01*
X100194784Y-91205509D01*
X100194889Y-91205375D01*
X100208838Y-91187686D01*
X100220332Y-91181051D01*
X100281866Y-91119517D01*
X100325377Y-91044153D01*
X100327098Y-91037729D01*
X100339703Y-91021746D01*
X100354724Y-91011080D01*
X100366276Y-90996725D01*
X100382624Y-90991270D01*
X100396673Y-90981296D01*
X100415076Y-90980444D01*
X100432555Y-90974613D01*
X100449254Y-90978862D01*
X100466468Y-90978066D01*
X100482412Y-90987300D01*
X100500266Y-90991844D01*
X100513683Y-91005412D01*
X100526929Y-91013084D01*
X100533049Y-91024996D01*
X100544456Y-91036531D01*
X100577934Y-91094517D01*
X100639468Y-91156051D01*
X100714832Y-91199562D01*
X100798889Y-91222085D01*
X100798891Y-91222085D01*
X100885909Y-91222085D01*
X100885911Y-91222085D01*
X100969968Y-91199562D01*
X101045332Y-91156051D01*
X101106866Y-91094517D01*
X101150377Y-91019153D01*
X101172900Y-90935096D01*
X101172900Y-90848074D01*
X101150377Y-90764017D01*
X101106866Y-90688653D01*
X101045332Y-90627119D01*
X100969968Y-90583608D01*
X100885911Y-90561085D01*
X100798889Y-90561085D01*
X100714832Y-90583608D01*
X100714831Y-90583608D01*
X100639469Y-90627118D01*
X100639466Y-90627120D01*
X100577935Y-90688651D01*
X100577933Y-90688654D01*
X100560765Y-90718391D01*
X100537311Y-90759016D01*
X100530360Y-90771055D01*
X100527432Y-90769364D01*
X100493311Y-90811590D01*
X100426987Y-90833565D01*
X100359312Y-90816194D01*
X100315343Y-90771638D01*
X100281866Y-90713653D01*
X100220332Y-90652119D01*
X100144968Y-90608608D01*
X100060911Y-90586085D01*
X99973889Y-90586085D01*
X99889832Y-90608608D01*
X99889831Y-90608608D01*
X99814469Y-90652118D01*
X99814466Y-90652120D01*
X99747187Y-90719400D01*
X99746178Y-90718391D01*
X99696842Y-90754412D01*
X99627096Y-90758564D01*
X99578645Y-90735502D01*
X99561974Y-90722501D01*
X99556866Y-90713653D01*
X99495332Y-90652119D01*
X99419968Y-90608608D01*
X99413816Y-90606959D01*
X99398091Y-90594696D01*
X99387098Y-90579391D01*
X99372437Y-90567558D01*
X99367139Y-90551602D01*
X99357332Y-90537947D01*
X99356359Y-90519130D01*
X99350422Y-90501248D01*
X99354592Y-90484960D01*
X99353724Y-90468171D01*
X99363078Y-90451815D01*
X99367752Y-90433561D01*
X99380999Y-90420480D01*
X99388412Y-90407520D01*
X99400499Y-90401226D01*
X99412346Y-90389528D01*
X99470332Y-90356051D01*
X99531866Y-90294517D01*
X99575377Y-90219153D01*
X99597900Y-90135096D01*
X99597900Y-90048074D01*
X99575377Y-89964017D01*
X99531866Y-89888653D01*
X99470332Y-89827119D01*
X99394968Y-89783608D01*
X99310911Y-89761085D01*
X99223889Y-89761085D01*
X99139832Y-89783608D01*
X99139831Y-89783608D01*
X99064469Y-89827118D01*
X99064466Y-89827120D01*
X99002935Y-89888651D01*
X99002933Y-89888654D01*
X98959423Y-89964016D01*
X98959423Y-89964017D01*
X98936900Y-90048074D01*
X98936900Y-90135096D01*
X98959423Y-90219153D01*
X99002934Y-90294517D01*
X99064468Y-90356051D01*
X99139832Y-90399562D01*
X99139833Y-90399562D01*
X99146870Y-90403625D01*
X99145166Y-90406575D01*
X99187302Y-90440523D01*
X99209374Y-90506815D01*
X99192101Y-90574516D01*
X99147453Y-90618641D01*
X99089471Y-90652116D01*
X99089466Y-90652120D01*
X99027935Y-90713651D01*
X99027931Y-90713656D01*
X98992287Y-90775395D01*
X98941720Y-90823611D01*
X98873113Y-90836834D01*
X98808248Y-90810866D01*
X98777513Y-90775395D01*
X98741868Y-90713656D01*
X98741867Y-90713654D01*
X98741866Y-90713653D01*
X98680332Y-90652119D01*
X98604968Y-90608608D01*
X98520911Y-90586085D01*
X98433889Y-90586085D01*
X98349832Y-90608608D01*
X98349831Y-90608608D01*
X98274469Y-90652118D01*
X98274466Y-90652120D01*
X98212935Y-90713651D01*
X98212933Y-90713654D01*
X98169423Y-90789016D01*
X98169423Y-90789017D01*
X98146900Y-90873074D01*
X98146900Y-90960096D01*
X98169423Y-91044153D01*
X98212934Y-91119517D01*
X98274468Y-91181051D01*
X98318219Y-91206310D01*
X98366435Y-91256877D01*
X98379659Y-91325484D01*
X98353691Y-91390349D01*
X98318220Y-91421085D01*
X98264471Y-91452116D01*
X98264466Y-91452120D01*
X98202935Y-91513651D01*
X98202933Y-91513654D01*
X98159423Y-91589016D01*
X98159423Y-91589017D01*
X98136900Y-91673074D01*
X97187900Y-91673074D01*
X97187900Y-91663074D01*
X97165377Y-91579017D01*
X97121866Y-91503653D01*
X97060332Y-91442119D01*
X97060331Y-91442118D01*
X97060328Y-91442116D01*
X96999259Y-91406858D01*
X96951043Y-91356291D01*
X96937820Y-91287684D01*
X96963788Y-91222819D01*
X96999256Y-91192086D01*
X97070332Y-91151051D01*
X97131866Y-91089517D01*
X97175377Y-91014153D01*
X97197900Y-90930096D01*
X97197900Y-90843074D01*
X97175377Y-90759017D01*
X97131866Y-90683653D01*
X97070332Y-90622119D01*
X96994968Y-90578608D01*
X96910911Y-90556085D01*
X96823889Y-90556085D01*
X96739832Y-90578608D01*
X96739831Y-90578608D01*
X96664469Y-90622118D01*
X96664466Y-90622120D01*
X96602935Y-90683651D01*
X96602933Y-90683654D01*
X96555360Y-90766055D01*
X96552987Y-90764685D01*
X96517527Y-90808653D01*
X96451225Y-90830692D01*
X96383532Y-90813386D01*
X96339460Y-90768769D01*
X96301866Y-90703653D01*
X96240332Y-90642119D01*
X96164968Y-90598608D01*
X96080911Y-90576085D01*
X95993889Y-90576085D01*
X95909832Y-90598608D01*
X95909831Y-90598608D01*
X95834469Y-90642118D01*
X95834466Y-90642120D01*
X95772935Y-90703651D01*
X95772933Y-90703654D01*
X95754546Y-90735502D01*
X95740971Y-90759016D01*
X95736442Y-90766860D01*
X95685875Y-90815076D01*
X95617268Y-90828300D01*
X95552403Y-90802332D01*
X95521666Y-90766860D01*
X95521201Y-90766055D01*
X95504466Y-90737068D01*
X95442932Y-90675534D01*
X95367568Y-90632023D01*
X95367567Y-90632022D01*
X95367566Y-90632022D01*
X95361626Y-90629562D01*
X95307222Y-90585723D01*
X95285155Y-90519429D01*
X95302433Y-90451729D01*
X95353569Y-90404118D01*
X95361626Y-90400438D01*
X95367562Y-90397978D01*
X95367568Y-90397977D01*
X95442932Y-90354466D01*
X95504466Y-90292932D01*
X95547977Y-90217568D01*
X95570500Y-90133511D01*
X95570500Y-90053074D01*
X97296900Y-90053074D01*
X97296900Y-90140096D01*
X97319423Y-90224153D01*
X97362934Y-90299517D01*
X97424468Y-90361051D01*
X97499832Y-90404562D01*
X97583889Y-90427085D01*
X97583891Y-90427085D01*
X97670909Y-90427085D01*
X97670911Y-90427085D01*
X97754968Y-90404562D01*
X97830332Y-90361051D01*
X97891866Y-90299517D01*
X97935377Y-90224153D01*
X97957900Y-90140096D01*
X97957900Y-90053074D01*
X97935377Y-89969017D01*
X97891866Y-89893653D01*
X97830332Y-89832119D01*
X97754968Y-89788608D01*
X97670911Y-89766085D01*
X97583889Y-89766085D01*
X97499832Y-89788608D01*
X97499831Y-89788608D01*
X97424469Y-89832118D01*
X97424466Y-89832120D01*
X97362935Y-89893651D01*
X97362933Y-89893654D01*
X97319423Y-89969016D01*
X97319423Y-89969017D01*
X97296900Y-90053074D01*
X95570500Y-90053074D01*
X95570500Y-90046489D01*
X95547977Y-89962432D01*
X95504466Y-89887068D01*
X95442932Y-89825534D01*
X95367568Y-89782023D01*
X95283511Y-89759500D01*
X95196489Y-89759500D01*
X95112432Y-89782023D01*
X95112431Y-89782023D01*
X95037069Y-89825533D01*
X95037066Y-89825535D01*
X94975535Y-89887066D01*
X94975531Y-89887071D01*
X94972387Y-89892518D01*
X94921820Y-89940734D01*
X94853213Y-89953956D01*
X94788348Y-89927988D01*
X94757613Y-89892518D01*
X94754468Y-89887071D01*
X94754467Y-89887069D01*
X94754466Y-89887068D01*
X94692932Y-89825534D01*
X94617568Y-89782023D01*
X94533511Y-89759500D01*
X94446489Y-89759500D01*
X94362432Y-89782023D01*
X94362431Y-89782023D01*
X94287069Y-89825533D01*
X94287066Y-89825535D01*
X94225535Y-89887066D01*
X94225533Y-89887069D01*
X94182023Y-89962431D01*
X94182023Y-89962432D01*
X94159500Y-90046489D01*
X94159500Y-90133511D01*
X94182023Y-90217568D01*
X94225534Y-90292932D01*
X94287068Y-90354466D01*
X94362432Y-90397977D01*
X94446489Y-90420500D01*
X94446491Y-90420500D01*
X94533509Y-90420500D01*
X94533511Y-90420500D01*
X94617568Y-90397977D01*
X94692932Y-90354466D01*
X94754466Y-90292932D01*
X94757611Y-90287483D01*
X94808176Y-90239267D01*
X94876783Y-90226042D01*
X94941649Y-90252008D01*
X94972389Y-90287484D01*
X94975532Y-90292930D01*
X94975534Y-90292932D01*
X95037068Y-90354466D01*
X95112432Y-90397977D01*
X95112434Y-90397977D01*
X95118376Y-90400439D01*
X95172779Y-90444280D01*
X95194844Y-90510574D01*
X95177565Y-90578273D01*
X95126428Y-90625884D01*
X95118376Y-90629561D01*
X95112433Y-90632022D01*
X95037069Y-90675533D01*
X95037066Y-90675535D01*
X94975535Y-90737066D01*
X94975533Y-90737069D01*
X94932023Y-90812431D01*
X94932023Y-90812432D01*
X94909500Y-90896489D01*
X94909500Y-90983511D01*
X94932023Y-91067568D01*
X94975534Y-91142932D01*
X95037068Y-91204466D01*
X95069285Y-91223066D01*
X95117501Y-91273633D01*
X95130725Y-91342240D01*
X95104757Y-91407105D01*
X95103861Y-91408231D01*
X95092409Y-91422450D01*
X95087068Y-91425534D01*
X95025534Y-91487068D01*
X94987968Y-91552133D01*
X94981950Y-91559607D01*
X94960817Y-91574289D01*
X94942195Y-91592046D01*
X94932597Y-91593895D01*
X94924570Y-91599473D01*
X94898856Y-91600398D01*
X94873588Y-91605269D01*
X94864511Y-91601635D01*
X94854745Y-91601987D01*
X94832616Y-91588866D01*
X94808723Y-91579301D01*
X94802389Y-91570944D01*
X94794646Y-91566353D01*
X94786332Y-91549756D01*
X94770812Y-91529278D01*
X94767978Y-91522436D01*
X94767977Y-91522432D01*
X94724466Y-91447068D01*
X94662932Y-91385534D01*
X94587568Y-91342023D01*
X94503511Y-91319500D01*
X94416489Y-91319500D01*
X94332432Y-91342023D01*
X94332431Y-91342023D01*
X94257069Y-91385533D01*
X94257066Y-91385535D01*
X94195537Y-91447065D01*
X94195533Y-91447069D01*
X94152023Y-91522431D01*
X94148976Y-91533805D01*
X94137241Y-91577595D01*
X94122748Y-91601373D01*
X94111181Y-91626703D01*
X94104815Y-91630793D01*
X94100878Y-91637254D01*
X94075830Y-91649421D01*
X94052403Y-91664477D01*
X94041655Y-91666022D01*
X94038031Y-91667783D01*
X94017468Y-91669500D01*
X94011814Y-91669500D01*
X93944775Y-91649815D01*
X93899020Y-91597011D01*
X93892040Y-91577597D01*
X93887977Y-91562432D01*
X93844466Y-91487068D01*
X93782932Y-91425534D01*
X93707568Y-91382023D01*
X93623511Y-91359500D01*
X93536489Y-91359500D01*
X93452432Y-91382023D01*
X93452431Y-91382023D01*
X93377069Y-91425533D01*
X93377066Y-91425535D01*
X93342591Y-91460010D01*
X93281268Y-91493495D01*
X93211576Y-91488509D01*
X93155643Y-91446637D01*
X93147527Y-91434333D01*
X93119672Y-91386085D01*
X93114468Y-91377071D01*
X93114467Y-91377069D01*
X93114466Y-91377068D01*
X93052932Y-91315534D01*
X92977568Y-91272023D01*
X92893511Y-91249500D01*
X92806489Y-91249500D01*
X92722432Y-91272023D01*
X92722431Y-91272023D01*
X92647069Y-91315533D01*
X92647066Y-91315535D01*
X92585535Y-91377066D01*
X92585533Y-91377069D01*
X92542023Y-91452431D01*
X92542023Y-91452432D01*
X92519500Y-91536489D01*
X84000000Y-91536489D01*
X84000000Y-87256489D01*
X88969500Y-87256489D01*
X88969500Y-87343511D01*
X88992023Y-87427568D01*
X89035534Y-87502932D01*
X89097068Y-87564466D01*
X89172432Y-87607977D01*
X89256489Y-87630500D01*
X89256491Y-87630500D01*
X89343508Y-87630500D01*
X89343511Y-87630500D01*
X89373408Y-87622489D01*
X89443256Y-87624152D01*
X89501119Y-87663314D01*
X89528623Y-87727543D01*
X89529500Y-87742264D01*
X89529500Y-87746489D01*
X89529500Y-87833511D01*
X89552023Y-87917568D01*
X89589155Y-87981884D01*
X89595533Y-87992930D01*
X89595535Y-87992933D01*
X89650030Y-88047428D01*
X89683515Y-88108751D01*
X89678531Y-88178443D01*
X89669737Y-88197108D01*
X89632023Y-88262431D01*
X89632023Y-88262432D01*
X89609500Y-88346489D01*
X89609500Y-88433511D01*
X89632023Y-88517568D01*
X89670088Y-88583500D01*
X89675533Y-88592930D01*
X89675535Y-88592933D01*
X89742815Y-88660213D01*
X89740994Y-88662033D01*
X89774635Y-88708098D01*
X89778794Y-88777844D01*
X89765336Y-88812052D01*
X89742023Y-88852431D01*
X89742023Y-88852432D01*
X89719500Y-88936489D01*
X89719500Y-89023511D01*
X89742023Y-89107568D01*
X89785534Y-89182932D01*
X89847068Y-89244466D01*
X89922432Y-89287977D01*
X90006489Y-89310500D01*
X90006491Y-89310500D01*
X90093509Y-89310500D01*
X90093511Y-89310500D01*
X90177568Y-89287977D01*
X90252932Y-89244466D01*
X90290087Y-89207310D01*
X90351407Y-89173826D01*
X90421099Y-89178810D01*
X90477033Y-89220680D01*
X90485154Y-89232992D01*
X90525531Y-89302928D01*
X90525533Y-89302931D01*
X90525534Y-89302932D01*
X90587068Y-89364466D01*
X90662432Y-89407977D01*
X90746489Y-89430500D01*
X90746491Y-89430500D01*
X90833502Y-89430500D01*
X90833511Y-89430500D01*
X90833519Y-89430497D01*
X90837676Y-89429950D01*
X90841205Y-89430500D01*
X90841638Y-89430500D01*
X90841638Y-89430567D01*
X90906712Y-89440709D01*
X90958972Y-89487084D01*
X90961253Y-89490876D01*
X90985534Y-89532932D01*
X91047068Y-89594466D01*
X91122432Y-89637977D01*
X91206489Y-89660500D01*
X91206491Y-89660500D01*
X91293509Y-89660500D01*
X91293511Y-89660500D01*
X91377568Y-89637977D01*
X91452932Y-89594466D01*
X91514466Y-89532932D01*
X91557977Y-89457568D01*
X91580500Y-89373511D01*
X91580500Y-89286489D01*
X91557977Y-89202432D01*
X91514466Y-89127068D01*
X91452932Y-89065534D01*
X91419945Y-89046489D01*
X94409500Y-89046489D01*
X94409500Y-89133511D01*
X94432023Y-89217568D01*
X94475534Y-89292932D01*
X94537068Y-89354466D01*
X94612432Y-89397977D01*
X94696489Y-89420500D01*
X94696491Y-89420500D01*
X94783509Y-89420500D01*
X94783511Y-89420500D01*
X94867568Y-89397977D01*
X94942932Y-89354466D01*
X95004466Y-89292932D01*
X95007611Y-89287483D01*
X95058176Y-89239267D01*
X95126783Y-89226042D01*
X95191649Y-89252008D01*
X95222387Y-89287482D01*
X95223863Y-89290039D01*
X95225532Y-89292930D01*
X95225534Y-89292932D01*
X95287068Y-89354466D01*
X95362432Y-89397977D01*
X95446489Y-89420500D01*
X95446491Y-89420500D01*
X95533509Y-89420500D01*
X95533511Y-89420500D01*
X95617568Y-89397977D01*
X95692932Y-89354466D01*
X95754466Y-89292932D01*
X95797977Y-89217568D01*
X95820500Y-89133511D01*
X95820500Y-89046489D01*
X95809782Y-89006489D01*
X97061900Y-89006489D01*
X97061900Y-89093511D01*
X97084423Y-89177568D01*
X97127934Y-89252932D01*
X97189468Y-89314466D01*
X97264832Y-89357977D01*
X97348889Y-89380500D01*
X97348891Y-89380500D01*
X97435909Y-89380500D01*
X97435911Y-89380500D01*
X97519968Y-89357977D01*
X97595332Y-89314466D01*
X97595332Y-89314465D01*
X97602371Y-89310402D01*
X97603621Y-89312567D01*
X97657057Y-89291896D01*
X97725505Y-89305920D01*
X97732919Y-89310685D01*
X97739467Y-89314465D01*
X97739468Y-89314466D01*
X97814832Y-89357977D01*
X97898889Y-89380500D01*
X97898891Y-89380500D01*
X97985909Y-89380500D01*
X97985911Y-89380500D01*
X98069968Y-89357977D01*
X98145332Y-89314466D01*
X98206866Y-89252932D01*
X98250377Y-89177568D01*
X98258280Y-89148074D01*
X98511900Y-89148074D01*
X98511900Y-89235096D01*
X98534423Y-89319153D01*
X98577934Y-89394517D01*
X98639468Y-89456051D01*
X98714832Y-89499562D01*
X98798889Y-89522085D01*
X98798891Y-89522085D01*
X98885909Y-89522085D01*
X98885911Y-89522085D01*
X98969968Y-89499562D01*
X99045332Y-89456051D01*
X99094894Y-89406489D01*
X104579500Y-89406489D01*
X104579500Y-89493511D01*
X104602023Y-89577568D01*
X104645534Y-89652932D01*
X104707068Y-89714466D01*
X104782432Y-89757977D01*
X104866489Y-89780500D01*
X104866491Y-89780500D01*
X104953509Y-89780500D01*
X104953511Y-89780500D01*
X105037568Y-89757977D01*
X105112932Y-89714466D01*
X105174466Y-89652932D01*
X105217977Y-89577568D01*
X105240500Y-89493511D01*
X105240500Y-89406489D01*
X105217977Y-89322432D01*
X105174466Y-89247068D01*
X105112932Y-89185534D01*
X105037568Y-89142023D01*
X104953511Y-89119500D01*
X104866489Y-89119500D01*
X104782432Y-89142023D01*
X104782431Y-89142023D01*
X104707069Y-89185533D01*
X104707066Y-89185535D01*
X104645535Y-89247066D01*
X104645533Y-89247069D01*
X104602023Y-89322431D01*
X104602023Y-89322432D01*
X104579500Y-89406489D01*
X99094894Y-89406489D01*
X99106866Y-89394517D01*
X99150377Y-89319153D01*
X99172900Y-89235096D01*
X99172900Y-89148074D01*
X99150377Y-89064017D01*
X99122937Y-89016489D01*
X100186900Y-89016489D01*
X100186900Y-89103511D01*
X100209423Y-89187568D01*
X100252934Y-89262932D01*
X100314468Y-89324466D01*
X100389832Y-89367977D01*
X100473889Y-89390500D01*
X100473891Y-89390500D01*
X100560909Y-89390500D01*
X100560911Y-89390500D01*
X100644968Y-89367977D01*
X100720332Y-89324466D01*
X100781866Y-89262932D01*
X100825377Y-89187568D01*
X100847900Y-89103511D01*
X100847900Y-89016489D01*
X100825377Y-88932432D01*
X100781866Y-88857068D01*
X100720332Y-88795534D01*
X100644968Y-88752023D01*
X100560911Y-88729500D01*
X100473889Y-88729500D01*
X100389832Y-88752023D01*
X100389831Y-88752023D01*
X100314469Y-88795533D01*
X100314466Y-88795535D01*
X100252935Y-88857066D01*
X100252933Y-88857069D01*
X100209423Y-88932431D01*
X100209423Y-88932432D01*
X100186900Y-89016489D01*
X99122937Y-89016489D01*
X99106866Y-88988653D01*
X99045332Y-88927119D01*
X98969968Y-88883608D01*
X98885911Y-88861085D01*
X98798889Y-88861085D01*
X98714832Y-88883608D01*
X98714831Y-88883608D01*
X98639469Y-88927118D01*
X98639466Y-88927120D01*
X98577935Y-88988651D01*
X98577933Y-88988654D01*
X98534423Y-89064016D01*
X98520694Y-89115253D01*
X98511900Y-89148074D01*
X98258280Y-89148074D01*
X98272900Y-89093511D01*
X98272900Y-89006489D01*
X98250377Y-88922432D01*
X98206866Y-88847068D01*
X98145332Y-88785534D01*
X98069968Y-88742023D01*
X97985911Y-88719500D01*
X97898889Y-88719500D01*
X97814832Y-88742023D01*
X97814831Y-88742023D01*
X97732429Y-88789598D01*
X97731180Y-88787436D01*
X97677717Y-88808105D01*
X97609272Y-88794067D01*
X97601855Y-88789300D01*
X97519968Y-88742023D01*
X97435911Y-88719500D01*
X97348889Y-88719500D01*
X97264832Y-88742023D01*
X97264831Y-88742023D01*
X97189469Y-88785533D01*
X97189466Y-88785535D01*
X97127935Y-88847066D01*
X97127933Y-88847069D01*
X97084423Y-88922431D01*
X97084423Y-88922432D01*
X97061900Y-89006489D01*
X95809782Y-89006489D01*
X95797977Y-88962432D01*
X95754466Y-88887068D01*
X95692932Y-88825534D01*
X95617568Y-88782023D01*
X95533511Y-88759500D01*
X95446489Y-88759500D01*
X95362432Y-88782023D01*
X95362431Y-88782023D01*
X95287069Y-88825533D01*
X95287066Y-88825535D01*
X95225535Y-88887066D01*
X95225531Y-88887071D01*
X95222387Y-88892518D01*
X95171820Y-88940734D01*
X95103213Y-88953956D01*
X95038348Y-88927988D01*
X95007613Y-88892518D01*
X95004468Y-88887071D01*
X95004467Y-88887069D01*
X95004466Y-88887068D01*
X94942932Y-88825534D01*
X94867568Y-88782023D01*
X94783511Y-88759500D01*
X94696489Y-88759500D01*
X94612432Y-88782023D01*
X94612431Y-88782023D01*
X94537069Y-88825533D01*
X94537066Y-88825535D01*
X94475535Y-88887066D01*
X94475533Y-88887069D01*
X94432023Y-88962431D01*
X94432023Y-88962432D01*
X94409500Y-89046489D01*
X91419945Y-89046489D01*
X91377568Y-89022023D01*
X91293511Y-88999500D01*
X91206489Y-88999500D01*
X91202312Y-89000050D01*
X91198785Y-88999500D01*
X91198362Y-88999500D01*
X91198362Y-88999434D01*
X91133277Y-88989285D01*
X91081021Y-88942905D01*
X91078738Y-88939109D01*
X91077225Y-88936489D01*
X91054466Y-88897068D01*
X90992932Y-88835534D01*
X90917568Y-88792023D01*
X90833511Y-88769500D01*
X90833510Y-88769500D01*
X90825451Y-88768439D01*
X90825914Y-88764916D01*
X90774486Y-88749815D01*
X90728731Y-88697011D01*
X90718787Y-88627853D01*
X90734138Y-88583500D01*
X90734466Y-88582932D01*
X90777977Y-88507568D01*
X90800500Y-88423511D01*
X90800500Y-88336489D01*
X90777977Y-88252432D01*
X90774546Y-88246489D01*
X92199500Y-88246489D01*
X92199500Y-88333511D01*
X92222023Y-88417568D01*
X92265534Y-88492932D01*
X92327068Y-88554466D01*
X92402432Y-88597977D01*
X92486489Y-88620500D01*
X92486491Y-88620500D01*
X92573509Y-88620500D01*
X92573511Y-88620500D01*
X92657568Y-88597977D01*
X92732932Y-88554466D01*
X92732932Y-88554465D01*
X92739971Y-88550402D01*
X92741505Y-88553059D01*
X92793071Y-88533109D01*
X92861520Y-88547129D01*
X92865420Y-88549288D01*
X92932432Y-88587977D01*
X93016489Y-88610500D01*
X93016491Y-88610500D01*
X93103509Y-88610500D01*
X93103511Y-88610500D01*
X93187568Y-88587977D01*
X93262932Y-88544466D01*
X93262932Y-88544465D01*
X93269971Y-88540402D01*
X93271729Y-88543447D01*
X93321687Y-88524011D01*
X93390162Y-88537901D01*
X93394250Y-88540159D01*
X93442432Y-88567977D01*
X93526489Y-88590500D01*
X93526491Y-88590500D01*
X93613509Y-88590500D01*
X93613511Y-88590500D01*
X93697568Y-88567977D01*
X93772932Y-88524466D01*
X93772932Y-88524465D01*
X93779971Y-88520402D01*
X93781729Y-88523447D01*
X93831687Y-88504011D01*
X93900162Y-88517901D01*
X93904250Y-88520159D01*
X93952432Y-88547977D01*
X94036489Y-88570500D01*
X94036491Y-88570500D01*
X94123509Y-88570500D01*
X94123511Y-88570500D01*
X94207568Y-88547977D01*
X94282932Y-88504466D01*
X94344466Y-88442932D01*
X94387977Y-88367568D01*
X94410500Y-88283511D01*
X94410500Y-88196489D01*
X94387977Y-88112432D01*
X94344466Y-88037068D01*
X94282932Y-87975534D01*
X94207568Y-87932023D01*
X94123511Y-87909500D01*
X94036489Y-87909500D01*
X93952432Y-87932023D01*
X93952431Y-87932023D01*
X93870029Y-87979598D01*
X93868305Y-87976611D01*
X93817856Y-87996027D01*
X93749433Y-87981884D01*
X93745728Y-87979828D01*
X93697570Y-87952024D01*
X93697569Y-87952023D01*
X93697568Y-87952023D01*
X93613511Y-87929500D01*
X93526489Y-87929500D01*
X93442432Y-87952023D01*
X93442431Y-87952023D01*
X93360029Y-87999598D01*
X93358305Y-87996611D01*
X93307856Y-88016027D01*
X93239433Y-88001884D01*
X93235728Y-87999828D01*
X93229144Y-87996027D01*
X93201087Y-87979828D01*
X93187570Y-87972024D01*
X93187569Y-87972023D01*
X93187568Y-87972023D01*
X93103511Y-87949500D01*
X93016489Y-87949500D01*
X92932432Y-87972023D01*
X92932431Y-87972023D01*
X92850029Y-88019598D01*
X92848502Y-88016953D01*
X92796833Y-88036898D01*
X92728395Y-88022825D01*
X92724579Y-88020711D01*
X92657568Y-87982023D01*
X92633354Y-87975535D01*
X92573511Y-87959500D01*
X92486489Y-87959500D01*
X92402432Y-87982023D01*
X92402431Y-87982023D01*
X92327069Y-88025533D01*
X92327066Y-88025535D01*
X92265535Y-88087066D01*
X92265533Y-88087069D01*
X92222023Y-88162431D01*
X92222023Y-88162432D01*
X92199500Y-88246489D01*
X90774546Y-88246489D01*
X90734466Y-88177068D01*
X90672932Y-88115534D01*
X90597568Y-88072023D01*
X90513511Y-88049500D01*
X90426489Y-88049500D01*
X90342432Y-88072023D01*
X90334922Y-88075134D01*
X90334061Y-88073057D01*
X90277504Y-88086776D01*
X90211478Y-88063922D01*
X90168290Y-88008999D01*
X90161651Y-87939445D01*
X90165977Y-87925028D01*
X90167974Y-87917571D01*
X90167977Y-87917568D01*
X90190500Y-87833511D01*
X90190500Y-87746489D01*
X90174423Y-87686489D01*
X97269500Y-87686489D01*
X97269500Y-87773511D01*
X97292023Y-87857568D01*
X97335534Y-87932932D01*
X97397068Y-87994466D01*
X97472432Y-88037977D01*
X97556489Y-88060500D01*
X97556491Y-88060500D01*
X97643509Y-88060500D01*
X97643511Y-88060500D01*
X97727568Y-88037977D01*
X97802932Y-87994466D01*
X97864466Y-87932932D01*
X97907977Y-87857568D01*
X97930500Y-87773511D01*
X97930500Y-87686489D01*
X97907977Y-87602432D01*
X97864466Y-87527068D01*
X97802932Y-87465534D01*
X97727568Y-87422023D01*
X97643511Y-87399500D01*
X97556489Y-87399500D01*
X97472432Y-87422023D01*
X97472431Y-87422023D01*
X97397069Y-87465533D01*
X97397066Y-87465535D01*
X97335535Y-87527066D01*
X97335533Y-87527069D01*
X97292023Y-87602431D01*
X97292023Y-87602432D01*
X97269500Y-87686489D01*
X90174423Y-87686489D01*
X90167977Y-87662432D01*
X90124466Y-87587068D01*
X90062932Y-87525534D01*
X89987568Y-87482023D01*
X89903511Y-87459500D01*
X89816489Y-87459500D01*
X89793974Y-87465533D01*
X89786591Y-87467511D01*
X89716741Y-87465846D01*
X89658879Y-87426682D01*
X89631377Y-87362453D01*
X89630500Y-87347735D01*
X89630500Y-87256491D01*
X89630500Y-87256489D01*
X89607977Y-87172432D01*
X89564466Y-87097068D01*
X89502932Y-87035534D01*
X89427568Y-86992023D01*
X89343511Y-86969500D01*
X89256489Y-86969500D01*
X89172432Y-86992023D01*
X89172431Y-86992023D01*
X89097069Y-87035533D01*
X89097066Y-87035535D01*
X89035535Y-87097066D01*
X89035533Y-87097069D01*
X88992023Y-87172431D01*
X88992023Y-87172432D01*
X88969500Y-87256489D01*
X84000000Y-87256489D01*
X84000000Y-86476489D01*
X94459500Y-86476489D01*
X94459500Y-86563511D01*
X94482023Y-86647568D01*
X94525534Y-86722932D01*
X94587068Y-86784466D01*
X94662432Y-86827977D01*
X94746489Y-86850500D01*
X94746491Y-86850500D01*
X94833509Y-86850500D01*
X94833511Y-86850500D01*
X94917568Y-86827977D01*
X94992932Y-86784466D01*
X95054466Y-86722932D01*
X95097977Y-86647568D01*
X95120500Y-86563511D01*
X95120500Y-86476489D01*
X95097977Y-86392432D01*
X95054466Y-86317068D01*
X94992932Y-86255534D01*
X94917568Y-86212023D01*
X94833511Y-86189500D01*
X94746489Y-86189500D01*
X94662432Y-86212023D01*
X94662431Y-86212023D01*
X94587069Y-86255533D01*
X94587066Y-86255535D01*
X94525535Y-86317066D01*
X94525533Y-86317069D01*
X94482023Y-86392431D01*
X94482023Y-86392432D01*
X94459500Y-86476489D01*
X84000000Y-86476489D01*
X84000000Y-85106489D01*
X84869500Y-85106489D01*
X84869500Y-85193511D01*
X84892023Y-85277568D01*
X84935534Y-85352932D01*
X84997068Y-85414466D01*
X85072432Y-85457977D01*
X85156489Y-85480500D01*
X85156491Y-85480500D01*
X85243509Y-85480500D01*
X85243511Y-85480500D01*
X85327568Y-85457977D01*
X85402932Y-85414466D01*
X85464466Y-85352932D01*
X85507977Y-85277568D01*
X85530500Y-85193511D01*
X85530500Y-85166489D01*
X95799500Y-85166489D01*
X95799500Y-85253511D01*
X95822023Y-85337568D01*
X95865534Y-85412932D01*
X95927068Y-85474466D01*
X96002432Y-85517977D01*
X96086489Y-85540500D01*
X96086491Y-85540500D01*
X96173509Y-85540500D01*
X96173511Y-85540500D01*
X96257568Y-85517977D01*
X96332932Y-85474466D01*
X96394466Y-85412932D01*
X96437977Y-85337568D01*
X96460500Y-85253511D01*
X96460500Y-85166489D01*
X96437977Y-85082432D01*
X96394466Y-85007068D01*
X96332932Y-84945534D01*
X96257568Y-84902023D01*
X96173511Y-84879500D01*
X96086489Y-84879500D01*
X96002432Y-84902023D01*
X96002431Y-84902023D01*
X95927069Y-84945533D01*
X95927066Y-84945535D01*
X95865535Y-85007066D01*
X95865533Y-85007069D01*
X95822023Y-85082431D01*
X95822023Y-85082432D01*
X95799500Y-85166489D01*
X85530500Y-85166489D01*
X85530500Y-85106489D01*
X85507977Y-85022432D01*
X85464466Y-84947068D01*
X85402932Y-84885534D01*
X85327568Y-84842023D01*
X85243511Y-84819500D01*
X85156489Y-84819500D01*
X85072432Y-84842023D01*
X85072431Y-84842023D01*
X84997069Y-84885533D01*
X84997066Y-84885535D01*
X84935535Y-84947066D01*
X84935533Y-84947069D01*
X84892023Y-85022431D01*
X84892023Y-85022432D01*
X84869500Y-85106489D01*
X84000000Y-85106489D01*
X84000000Y-83416489D01*
X84959500Y-83416489D01*
X84959500Y-83503511D01*
X84982023Y-83587568D01*
X85025534Y-83662932D01*
X85087068Y-83724466D01*
X85162432Y-83767977D01*
X85246489Y-83790500D01*
X85246491Y-83790500D01*
X85333509Y-83790500D01*
X85333511Y-83790500D01*
X85417568Y-83767977D01*
X85492932Y-83724466D01*
X85544819Y-83672579D01*
X85606142Y-83639094D01*
X85675834Y-83644078D01*
X85720181Y-83672579D01*
X85720534Y-83672932D01*
X85782068Y-83734466D01*
X85857432Y-83777977D01*
X85941489Y-83800500D01*
X85941491Y-83800500D01*
X86028509Y-83800500D01*
X86028511Y-83800500D01*
X86112568Y-83777977D01*
X86187932Y-83734466D01*
X86187932Y-83734465D01*
X86194971Y-83730402D01*
X86196221Y-83732567D01*
X86249657Y-83711896D01*
X86318105Y-83725920D01*
X86325519Y-83730685D01*
X86332067Y-83734465D01*
X86332068Y-83734466D01*
X86407432Y-83777977D01*
X86491489Y-83800500D01*
X86491491Y-83800500D01*
X86578509Y-83800500D01*
X86578511Y-83800500D01*
X86662568Y-83777977D01*
X86737932Y-83734466D01*
X86799466Y-83672932D01*
X86842977Y-83597568D01*
X86865500Y-83513511D01*
X86865500Y-83426489D01*
X86842977Y-83342432D01*
X86799466Y-83267068D01*
X86737932Y-83205534D01*
X86662568Y-83162023D01*
X86578511Y-83139500D01*
X86491489Y-83139500D01*
X86407432Y-83162023D01*
X86407431Y-83162023D01*
X86325029Y-83209598D01*
X86323780Y-83207436D01*
X86270317Y-83228105D01*
X86201872Y-83214067D01*
X86194455Y-83209300D01*
X86112568Y-83162023D01*
X86075247Y-83152023D01*
X86028511Y-83139500D01*
X85941489Y-83139500D01*
X85857432Y-83162023D01*
X85857431Y-83162023D01*
X85782069Y-83205533D01*
X85782066Y-83205535D01*
X85730181Y-83257421D01*
X85668858Y-83290906D01*
X85599166Y-83285922D01*
X85554819Y-83257421D01*
X85492933Y-83195535D01*
X85492932Y-83195534D01*
X85417568Y-83152023D01*
X85333511Y-83129500D01*
X85246489Y-83129500D01*
X85162432Y-83152023D01*
X85162431Y-83152023D01*
X85087069Y-83195533D01*
X85087066Y-83195535D01*
X85025535Y-83257066D01*
X85025533Y-83257069D01*
X84982023Y-83332431D01*
X84982023Y-83332432D01*
X84959500Y-83416489D01*
X84000000Y-83416489D01*
X84000000Y-82716489D01*
X99559500Y-82716489D01*
X99559500Y-82803511D01*
X99582023Y-82887568D01*
X99625534Y-82962932D01*
X99687068Y-83024466D01*
X99762432Y-83067977D01*
X99846489Y-83090500D01*
X99846491Y-83090500D01*
X99933509Y-83090500D01*
X99933511Y-83090500D01*
X100017568Y-83067977D01*
X100092932Y-83024466D01*
X100154466Y-82962932D01*
X100192827Y-82896489D01*
X100459500Y-82896489D01*
X100459500Y-82983511D01*
X100482023Y-83067568D01*
X100525534Y-83142932D01*
X100587068Y-83204466D01*
X100662432Y-83247977D01*
X100746489Y-83270500D01*
X100746491Y-83270500D01*
X100833509Y-83270500D01*
X100833511Y-83270500D01*
X100917568Y-83247977D01*
X100992932Y-83204466D01*
X101054466Y-83142932D01*
X101097977Y-83067568D01*
X101120500Y-82983511D01*
X101120500Y-82896489D01*
X101097977Y-82812432D01*
X101054466Y-82737068D01*
X100992932Y-82675534D01*
X100917568Y-82632023D01*
X100833511Y-82609500D01*
X100746489Y-82609500D01*
X100662432Y-82632023D01*
X100662431Y-82632023D01*
X100587069Y-82675533D01*
X100587066Y-82675535D01*
X100525535Y-82737066D01*
X100525533Y-82737069D01*
X100482023Y-82812431D01*
X100482023Y-82812432D01*
X100459500Y-82896489D01*
X100192827Y-82896489D01*
X100197977Y-82887568D01*
X100220500Y-82803511D01*
X100220500Y-82716489D01*
X100197977Y-82632432D01*
X100154466Y-82557068D01*
X100092932Y-82495534D01*
X100017568Y-82452023D01*
X99933511Y-82429500D01*
X99846489Y-82429500D01*
X99762432Y-82452023D01*
X99762431Y-82452023D01*
X99687069Y-82495533D01*
X99687066Y-82495535D01*
X99625535Y-82557066D01*
X99625533Y-82557069D01*
X99582023Y-82632431D01*
X99582023Y-82632432D01*
X99559500Y-82716489D01*
X84000000Y-82716489D01*
X84000000Y-82256489D01*
X85269500Y-82256489D01*
X85269500Y-82343511D01*
X85292023Y-82427568D01*
X85335534Y-82502932D01*
X85397068Y-82564466D01*
X85472432Y-82607977D01*
X85556489Y-82630500D01*
X85556491Y-82630500D01*
X85643509Y-82630500D01*
X85643511Y-82630500D01*
X85727568Y-82607977D01*
X85802932Y-82564466D01*
X85864466Y-82502932D01*
X85907977Y-82427568D01*
X85930500Y-82343511D01*
X85930500Y-82256489D01*
X85907977Y-82172432D01*
X85864466Y-82097068D01*
X85802932Y-82035534D01*
X85727568Y-81992023D01*
X85643511Y-81969500D01*
X85556489Y-81969500D01*
X85472432Y-81992023D01*
X85472431Y-81992023D01*
X85397069Y-82035533D01*
X85397066Y-82035535D01*
X85335535Y-82097066D01*
X85335533Y-82097069D01*
X85292023Y-82172431D01*
X85292023Y-82172432D01*
X85269500Y-82256489D01*
X84000000Y-82256489D01*
X84000000Y-80486489D01*
X86729500Y-80486489D01*
X86729500Y-80573511D01*
X86752023Y-80657568D01*
X86795534Y-80732932D01*
X86857068Y-80794466D01*
X86932432Y-80837977D01*
X87016489Y-80860500D01*
X87016491Y-80860500D01*
X87069408Y-80860500D01*
X87136447Y-80880185D01*
X87182202Y-80932989D01*
X87192146Y-81002147D01*
X87189185Y-81016580D01*
X87185045Y-81032034D01*
X87185045Y-81119056D01*
X87207568Y-81203113D01*
X87251079Y-81278477D01*
X87312613Y-81340011D01*
X87387977Y-81383522D01*
X87472034Y-81406045D01*
X87472036Y-81406045D01*
X87479884Y-81408148D01*
X87479237Y-81410561D01*
X87531646Y-81433737D01*
X87566857Y-81482741D01*
X87573955Y-81500653D01*
X87573955Y-81507966D01*
X87596478Y-81592023D01*
X87639989Y-81667387D01*
X87640046Y-81667444D01*
X87643450Y-81676034D01*
X87645850Y-81702140D01*
X87652030Y-81727616D01*
X87648997Y-81736375D01*
X87649847Y-81745610D01*
X87637749Y-81768873D01*
X87629177Y-81793642D01*
X87621009Y-81801067D01*
X87617612Y-81807600D01*
X87607372Y-81813463D01*
X87590171Y-81829101D01*
X87527071Y-81865531D01*
X87527066Y-81865535D01*
X87465535Y-81927066D01*
X87465533Y-81927069D01*
X87422023Y-82002431D01*
X87422023Y-82002432D01*
X87399500Y-82086489D01*
X87399500Y-82173511D01*
X87422023Y-82257568D01*
X87465534Y-82332932D01*
X87527068Y-82394466D01*
X87602432Y-82437977D01*
X87686489Y-82460500D01*
X87686491Y-82460500D01*
X87773509Y-82460500D01*
X87773511Y-82460500D01*
X87857568Y-82437977D01*
X87932932Y-82394466D01*
X87994466Y-82332932D01*
X88037977Y-82257568D01*
X88060500Y-82173511D01*
X88060500Y-82086489D01*
X88057821Y-82076489D01*
X92089500Y-82076489D01*
X92089500Y-82163511D01*
X92112023Y-82247568D01*
X92155534Y-82322932D01*
X92217068Y-82384466D01*
X92292432Y-82427977D01*
X92376489Y-82450500D01*
X92376491Y-82450500D01*
X92463509Y-82450500D01*
X92463511Y-82450500D01*
X92547568Y-82427977D01*
X92622932Y-82384466D01*
X92684466Y-82322932D01*
X92727977Y-82247568D01*
X92750500Y-82163511D01*
X92750500Y-82144500D01*
X92770185Y-82077461D01*
X92822989Y-82031706D01*
X92874500Y-82020500D01*
X92943509Y-82020500D01*
X92943511Y-82020500D01*
X93027568Y-81997977D01*
X93102932Y-81954466D01*
X93164466Y-81892932D01*
X93207977Y-81817568D01*
X93230500Y-81733511D01*
X93230500Y-81733502D01*
X93231561Y-81725451D01*
X93233097Y-81725653D01*
X93250185Y-81667461D01*
X93302989Y-81621706D01*
X93354500Y-81610500D01*
X93393509Y-81610500D01*
X93393511Y-81610500D01*
X93477568Y-81587977D01*
X93552932Y-81544466D01*
X93614466Y-81482932D01*
X93657977Y-81407568D01*
X93680500Y-81323511D01*
X93680500Y-81236489D01*
X93657977Y-81152432D01*
X93614466Y-81077068D01*
X93552932Y-81015534D01*
X93552931Y-81015533D01*
X93552928Y-81015531D01*
X93503472Y-80986978D01*
X93455257Y-80936411D01*
X93442033Y-80867804D01*
X93468001Y-80802939D01*
X93524915Y-80762411D01*
X93533358Y-80759822D01*
X93577568Y-80747977D01*
X93652932Y-80704466D01*
X93714466Y-80642932D01*
X93757977Y-80567568D01*
X93777023Y-80496489D01*
X94009500Y-80496489D01*
X94009500Y-80583511D01*
X94032023Y-80667568D01*
X94075534Y-80742932D01*
X94137068Y-80804466D01*
X94212432Y-80847977D01*
X94296489Y-80870500D01*
X94296491Y-80870500D01*
X94383509Y-80870500D01*
X94383511Y-80870500D01*
X94467568Y-80847977D01*
X94542932Y-80804466D01*
X94604466Y-80742932D01*
X94647977Y-80667568D01*
X94670500Y-80583511D01*
X94670500Y-80496489D01*
X94659782Y-80456489D01*
X100999500Y-80456489D01*
X100999500Y-80543511D01*
X101022023Y-80627568D01*
X101065534Y-80702932D01*
X101127068Y-80764466D01*
X101202432Y-80807977D01*
X101263452Y-80824327D01*
X101323111Y-80860691D01*
X101353640Y-80923537D01*
X101345346Y-80992913D01*
X101300860Y-81046791D01*
X101293357Y-81051488D01*
X101217071Y-81095531D01*
X101217066Y-81095535D01*
X101155535Y-81157066D01*
X101155533Y-81157069D01*
X101112023Y-81232431D01*
X101112023Y-81232432D01*
X101089500Y-81316489D01*
X101089500Y-81403511D01*
X101112023Y-81487568D01*
X101155534Y-81562932D01*
X101217068Y-81624466D01*
X101292432Y-81667977D01*
X101376489Y-81690500D01*
X101376498Y-81690500D01*
X101381686Y-81691184D01*
X101445582Y-81719451D01*
X101484053Y-81777776D01*
X101489500Y-81814123D01*
X101489500Y-81858511D01*
X101512023Y-81942568D01*
X101555534Y-82017932D01*
X101617068Y-82079466D01*
X101617069Y-82079467D01*
X101617071Y-82079468D01*
X101693604Y-82123654D01*
X101741819Y-82174220D01*
X101755043Y-82242827D01*
X101738992Y-82293039D01*
X101722025Y-82322427D01*
X101722023Y-82322432D01*
X101699500Y-82406489D01*
X101699500Y-82493511D01*
X101722023Y-82577568D01*
X101765534Y-82652932D01*
X101827068Y-82714466D01*
X101902432Y-82757977D01*
X101986489Y-82780500D01*
X101986491Y-82780500D01*
X102073509Y-82780500D01*
X102073511Y-82780500D01*
X102157568Y-82757977D01*
X102232932Y-82714466D01*
X102294466Y-82652932D01*
X102337977Y-82577568D01*
X102360500Y-82493511D01*
X102360500Y-82406489D01*
X102337977Y-82322432D01*
X102294466Y-82247068D01*
X102232932Y-82185534D01*
X102232931Y-82185533D01*
X102232928Y-82185531D01*
X102156395Y-82141345D01*
X102108179Y-82090778D01*
X102094956Y-82022171D01*
X102111007Y-81971959D01*
X102127977Y-81942568D01*
X102150500Y-81858511D01*
X102150500Y-81771489D01*
X102127977Y-81687432D01*
X102084466Y-81612068D01*
X102022932Y-81550534D01*
X101947568Y-81507023D01*
X101863511Y-81484500D01*
X101863510Y-81484500D01*
X101863506Y-81484499D01*
X101858305Y-81483814D01*
X101794411Y-81455542D01*
X101755944Y-81397215D01*
X101752211Y-81381402D01*
X101750500Y-81371208D01*
X101750500Y-81316489D01*
X101727977Y-81232432D01*
X101712999Y-81206489D01*
X106369500Y-81206489D01*
X106369500Y-81293511D01*
X106392023Y-81377568D01*
X106435534Y-81452932D01*
X106497068Y-81514466D01*
X106572432Y-81557977D01*
X106656489Y-81580500D01*
X106656491Y-81580500D01*
X106743509Y-81580500D01*
X106743511Y-81580500D01*
X106827568Y-81557977D01*
X106902932Y-81514466D01*
X106964466Y-81452932D01*
X107007977Y-81377568D01*
X107030500Y-81293511D01*
X107030500Y-81206489D01*
X107007977Y-81122432D01*
X106964466Y-81047068D01*
X106902932Y-80985534D01*
X106827568Y-80942023D01*
X106743511Y-80919500D01*
X106656489Y-80919500D01*
X106572432Y-80942023D01*
X106572431Y-80942023D01*
X106497069Y-80985533D01*
X106497066Y-80985535D01*
X106435535Y-81047066D01*
X106435533Y-81047069D01*
X106392023Y-81122431D01*
X106392023Y-81122432D01*
X106369500Y-81206489D01*
X101712999Y-81206489D01*
X101684466Y-81157068D01*
X101622932Y-81095534D01*
X101547568Y-81052023D01*
X101547569Y-81052023D01*
X101516356Y-81043659D01*
X101486547Y-81035672D01*
X101426888Y-80999307D01*
X101396359Y-80936460D01*
X101404654Y-80867085D01*
X101449140Y-80813207D01*
X101456643Y-80808510D01*
X101457564Y-80807977D01*
X101457568Y-80807977D01*
X101532932Y-80764466D01*
X101594466Y-80702932D01*
X101637977Y-80627568D01*
X101650078Y-80582406D01*
X101686441Y-80522747D01*
X101749288Y-80492217D01*
X101769852Y-80490500D01*
X101823509Y-80490500D01*
X101823511Y-80490500D01*
X101907568Y-80467977D01*
X101982932Y-80424466D01*
X102044466Y-80362932D01*
X102087977Y-80287568D01*
X102110500Y-80203511D01*
X102110500Y-80116489D01*
X102087977Y-80032432D01*
X102044466Y-79957068D01*
X101982932Y-79895534D01*
X101915303Y-79856489D01*
X106069500Y-79856489D01*
X106069500Y-79943511D01*
X106092023Y-80027568D01*
X106135534Y-80102932D01*
X106197068Y-80164466D01*
X106272432Y-80207977D01*
X106356489Y-80230500D01*
X106356491Y-80230500D01*
X106443509Y-80230500D01*
X106443511Y-80230500D01*
X106527568Y-80207977D01*
X106602932Y-80164466D01*
X106664466Y-80102932D01*
X106707977Y-80027568D01*
X106730500Y-79943511D01*
X106730500Y-79856489D01*
X106707977Y-79772432D01*
X106664466Y-79697068D01*
X106602932Y-79635534D01*
X106527568Y-79592023D01*
X106443511Y-79569500D01*
X106356489Y-79569500D01*
X106272432Y-79592023D01*
X106272431Y-79592023D01*
X106197069Y-79635533D01*
X106197066Y-79635535D01*
X106135535Y-79697066D01*
X106135533Y-79697069D01*
X106092023Y-79772431D01*
X106092023Y-79772432D01*
X106069500Y-79856489D01*
X101915303Y-79856489D01*
X101907568Y-79852023D01*
X101823511Y-79829500D01*
X101736489Y-79829500D01*
X101652432Y-79852023D01*
X101652431Y-79852023D01*
X101577069Y-79895533D01*
X101577066Y-79895535D01*
X101515535Y-79957066D01*
X101515533Y-79957069D01*
X101472023Y-80032431D01*
X101472022Y-80032433D01*
X101465285Y-80057577D01*
X101459921Y-80077593D01*
X101423559Y-80137253D01*
X101360712Y-80167783D01*
X101340148Y-80169500D01*
X101286489Y-80169500D01*
X101202432Y-80192023D01*
X101202431Y-80192023D01*
X101127069Y-80235533D01*
X101127066Y-80235535D01*
X101065535Y-80297066D01*
X101065533Y-80297069D01*
X101022023Y-80372431D01*
X101022023Y-80372432D01*
X100999500Y-80456489D01*
X94659782Y-80456489D01*
X94647977Y-80412432D01*
X94604466Y-80337068D01*
X94542932Y-80275534D01*
X94542930Y-80275533D01*
X94542925Y-80275529D01*
X94519180Y-80261820D01*
X94470964Y-80211254D01*
X94457740Y-80142647D01*
X94483708Y-80077782D01*
X94501259Y-80059624D01*
X94513914Y-80048955D01*
X94517568Y-80047977D01*
X94592932Y-80004466D01*
X94654466Y-79942932D01*
X94668473Y-79918670D01*
X94685080Y-79904672D01*
X94697976Y-79898993D01*
X94708176Y-79889267D01*
X94729319Y-79885191D01*
X94749025Y-79876514D01*
X94762945Y-79878709D01*
X94776783Y-79876042D01*
X94796772Y-79884043D01*
X94818042Y-79887398D01*
X94828565Y-79896770D01*
X94841649Y-79902008D01*
X94866002Y-79930113D01*
X94870218Y-79933868D01*
X94870674Y-79935505D01*
X94872389Y-79937484D01*
X94875532Y-79942930D01*
X94875534Y-79942932D01*
X94937068Y-80004466D01*
X95012432Y-80047977D01*
X95096489Y-80070500D01*
X95096491Y-80070500D01*
X95183509Y-80070500D01*
X95183511Y-80070500D01*
X95267568Y-80047977D01*
X95342932Y-80004466D01*
X95404466Y-79942932D01*
X95447977Y-79867568D01*
X95470500Y-79783511D01*
X95470500Y-79696489D01*
X95464226Y-79673074D01*
X98796900Y-79673074D01*
X98796900Y-79760096D01*
X98819423Y-79844153D01*
X98862934Y-79919517D01*
X98924468Y-79981051D01*
X98999832Y-80024562D01*
X99083889Y-80047085D01*
X99083891Y-80047085D01*
X99170909Y-80047085D01*
X99170911Y-80047085D01*
X99254968Y-80024562D01*
X99330332Y-79981051D01*
X99391866Y-79919517D01*
X99435377Y-79844153D01*
X99457900Y-79760096D01*
X99457900Y-79673074D01*
X99442738Y-79616489D01*
X100569500Y-79616489D01*
X100569500Y-79703511D01*
X100592023Y-79787568D01*
X100635534Y-79862932D01*
X100697068Y-79924466D01*
X100772432Y-79967977D01*
X100856489Y-79990500D01*
X100856491Y-79990500D01*
X100943509Y-79990500D01*
X100943511Y-79990500D01*
X101027568Y-79967977D01*
X101102932Y-79924466D01*
X101164466Y-79862932D01*
X101207977Y-79787568D01*
X101230500Y-79703511D01*
X101230500Y-79616489D01*
X101207977Y-79532432D01*
X101164466Y-79457068D01*
X101102932Y-79395534D01*
X101027568Y-79352023D01*
X100943511Y-79329500D01*
X100856489Y-79329500D01*
X100772432Y-79352023D01*
X100772431Y-79352023D01*
X100697069Y-79395533D01*
X100697066Y-79395535D01*
X100635537Y-79457065D01*
X100635533Y-79457069D01*
X100592023Y-79532431D01*
X100592023Y-79532432D01*
X100569500Y-79616489D01*
X99442738Y-79616489D01*
X99435377Y-79589017D01*
X99391866Y-79513653D01*
X99330332Y-79452119D01*
X99330331Y-79452118D01*
X99330328Y-79452116D01*
X99299007Y-79434033D01*
X99250791Y-79383466D01*
X99237569Y-79314859D01*
X99263537Y-79249994D01*
X99299004Y-79219260D01*
X99367932Y-79179466D01*
X99429466Y-79117932D01*
X99472977Y-79042568D01*
X99495500Y-78958511D01*
X99495500Y-78871489D01*
X99472977Y-78787432D01*
X99429466Y-78712068D01*
X99367932Y-78650534D01*
X99349072Y-78639645D01*
X99300857Y-78589077D01*
X99287635Y-78520470D01*
X99313603Y-78455605D01*
X99323956Y-78444016D01*
X99335283Y-78432833D01*
X99390332Y-78401051D01*
X99417901Y-78373482D01*
X101456493Y-78373482D01*
X101456493Y-78460504D01*
X101479016Y-78544561D01*
X101522527Y-78619925D01*
X101584061Y-78681459D01*
X101659425Y-78724970D01*
X101743482Y-78747493D01*
X101743484Y-78747493D01*
X101830502Y-78747493D01*
X101830504Y-78747493D01*
X101914561Y-78724970D01*
X101989925Y-78681459D01*
X102051459Y-78619925D01*
X102094970Y-78544561D01*
X102117493Y-78460504D01*
X102117493Y-78373482D01*
X102110260Y-78346489D01*
X104119500Y-78346489D01*
X104119500Y-78433511D01*
X104142023Y-78517568D01*
X104185534Y-78592932D01*
X104247068Y-78654466D01*
X104322432Y-78697977D01*
X104406489Y-78720500D01*
X104406491Y-78720500D01*
X104493509Y-78720500D01*
X104493511Y-78720500D01*
X104577568Y-78697977D01*
X104652932Y-78654466D01*
X104714466Y-78592932D01*
X104757977Y-78517568D01*
X104780500Y-78433511D01*
X104780500Y-78346489D01*
X104757977Y-78262432D01*
X104714466Y-78187068D01*
X104652932Y-78125534D01*
X104577568Y-78082023D01*
X104493511Y-78059500D01*
X104406489Y-78059500D01*
X104322432Y-78082023D01*
X104322431Y-78082023D01*
X104247069Y-78125533D01*
X104247066Y-78125535D01*
X104185535Y-78187066D01*
X104185533Y-78187069D01*
X104142023Y-78262431D01*
X104142023Y-78262432D01*
X104119500Y-78346489D01*
X102110260Y-78346489D01*
X102094970Y-78289425D01*
X102051459Y-78214061D01*
X101989925Y-78152527D01*
X101914561Y-78109016D01*
X101914558Y-78109015D01*
X101899623Y-78105013D01*
X101839963Y-78068647D01*
X101809435Y-78005799D01*
X101817732Y-77936424D01*
X101862218Y-77882547D01*
X101899625Y-77865465D01*
X101927568Y-77857978D01*
X102002932Y-77814467D01*
X102064466Y-77752933D01*
X102107977Y-77677569D01*
X102130500Y-77593512D01*
X102130500Y-77556489D01*
X106069500Y-77556489D01*
X106069500Y-77643511D01*
X106092023Y-77727568D01*
X106135534Y-77802932D01*
X106197068Y-77864466D01*
X106272432Y-77907977D01*
X106356489Y-77930500D01*
X106356491Y-77930500D01*
X106443509Y-77930500D01*
X106443511Y-77930500D01*
X106527568Y-77907977D01*
X106602932Y-77864466D01*
X106664466Y-77802932D01*
X106707977Y-77727568D01*
X106730500Y-77643511D01*
X106730500Y-77556489D01*
X106707977Y-77472432D01*
X106664466Y-77397068D01*
X106602932Y-77335534D01*
X106527568Y-77292023D01*
X106443511Y-77269500D01*
X106356489Y-77269500D01*
X106272432Y-77292023D01*
X106272431Y-77292023D01*
X106197069Y-77335533D01*
X106197066Y-77335535D01*
X106135535Y-77397066D01*
X106135533Y-77397069D01*
X106092023Y-77472431D01*
X106092023Y-77472432D01*
X106069500Y-77556489D01*
X102130500Y-77556489D01*
X102130500Y-77506490D01*
X102107977Y-77422433D01*
X102064466Y-77347069D01*
X102002932Y-77285535D01*
X101927568Y-77242024D01*
X101843511Y-77219501D01*
X101756489Y-77219501D01*
X101672432Y-77242024D01*
X101672431Y-77242024D01*
X101597069Y-77285534D01*
X101597066Y-77285536D01*
X101535535Y-77347067D01*
X101535533Y-77347070D01*
X101492023Y-77422432D01*
X101492023Y-77422433D01*
X101469500Y-77506490D01*
X101469500Y-77593512D01*
X101492023Y-77677569D01*
X101535534Y-77752933D01*
X101597068Y-77814467D01*
X101672432Y-77857978D01*
X101687365Y-77861979D01*
X101747026Y-77898343D01*
X101777556Y-77961190D01*
X101769262Y-78030566D01*
X101724777Y-78084444D01*
X101687368Y-78101528D01*
X101659429Y-78109014D01*
X101659424Y-78109016D01*
X101584062Y-78152526D01*
X101584059Y-78152528D01*
X101522528Y-78214059D01*
X101522526Y-78214062D01*
X101479016Y-78289424D01*
X101479016Y-78289425D01*
X101456493Y-78373482D01*
X99417901Y-78373482D01*
X99451866Y-78339517D01*
X99495377Y-78264153D01*
X99517900Y-78180096D01*
X99517900Y-78093074D01*
X99495377Y-78009017D01*
X99451866Y-77933653D01*
X99390332Y-77872119D01*
X99314968Y-77828608D01*
X99230911Y-77806085D01*
X99143889Y-77806085D01*
X99059832Y-77828608D01*
X99059831Y-77828608D01*
X98984469Y-77872118D01*
X98984466Y-77872120D01*
X98922935Y-77933651D01*
X98922933Y-77933654D01*
X98879423Y-78009016D01*
X98879423Y-78009017D01*
X98856900Y-78093074D01*
X98856900Y-78180096D01*
X98879423Y-78264153D01*
X98922934Y-78339517D01*
X98984468Y-78401051D01*
X98984469Y-78401052D01*
X98984471Y-78401053D01*
X99003326Y-78411939D01*
X99051541Y-78462506D01*
X99064765Y-78531113D01*
X99038797Y-78595978D01*
X99003326Y-78626713D01*
X98962071Y-78650531D01*
X98962066Y-78650535D01*
X98900535Y-78712066D01*
X98900533Y-78712069D01*
X98857023Y-78787431D01*
X98857023Y-78787432D01*
X98834500Y-78871489D01*
X98834500Y-78958511D01*
X98857023Y-79042568D01*
X98900534Y-79117932D01*
X98962068Y-79179466D01*
X98993391Y-79197550D01*
X99041607Y-79248117D01*
X99054831Y-79316724D01*
X99028863Y-79381589D01*
X98993392Y-79412325D01*
X98924471Y-79452116D01*
X98924466Y-79452120D01*
X98862935Y-79513651D01*
X98862933Y-79513654D01*
X98819423Y-79589016D01*
X98819423Y-79589017D01*
X98796900Y-79673074D01*
X95464226Y-79673074D01*
X95447977Y-79612432D01*
X95404466Y-79537068D01*
X95342932Y-79475534D01*
X95267568Y-79432023D01*
X95267563Y-79432021D01*
X95245514Y-79426113D01*
X95185854Y-79389747D01*
X95155326Y-79326900D01*
X95163622Y-79257525D01*
X95208108Y-79203647D01*
X95245508Y-79186567D01*
X95277568Y-79177977D01*
X95352932Y-79134466D01*
X95414466Y-79072932D01*
X95457977Y-78997568D01*
X95480500Y-78913511D01*
X95480500Y-78826489D01*
X95457977Y-78742432D01*
X95414466Y-78667068D01*
X95352932Y-78605534D01*
X95352931Y-78605533D01*
X95352928Y-78605531D01*
X95312243Y-78582042D01*
X95264028Y-78531475D01*
X95250804Y-78462868D01*
X95276772Y-78398004D01*
X95312242Y-78367268D01*
X95340332Y-78351051D01*
X95401866Y-78289517D01*
X95445377Y-78214153D01*
X95467900Y-78130096D01*
X95467900Y-78043074D01*
X95445377Y-77959017D01*
X95401866Y-77883653D01*
X95340332Y-77822119D01*
X95336219Y-77819744D01*
X95288005Y-77769177D01*
X95274783Y-77700570D01*
X95300751Y-77635705D01*
X95336223Y-77604970D01*
X95360332Y-77591051D01*
X95421866Y-77529517D01*
X95465377Y-77454153D01*
X95465378Y-77454146D01*
X95468476Y-77446670D01*
X95512316Y-77392266D01*
X95578610Y-77370200D01*
X95646310Y-77387478D01*
X95690425Y-77432121D01*
X95725534Y-77492932D01*
X95787068Y-77554466D01*
X95862432Y-77597977D01*
X95946489Y-77620500D01*
X95946491Y-77620500D01*
X96033509Y-77620500D01*
X96033511Y-77620500D01*
X96117568Y-77597977D01*
X96192932Y-77554466D01*
X96254466Y-77492932D01*
X96297977Y-77417568D01*
X96320500Y-77333511D01*
X96320500Y-77246489D01*
X96297977Y-77162432D01*
X96254466Y-77087068D01*
X96192932Y-77025534D01*
X96152840Y-77002387D01*
X96104625Y-76951821D01*
X96091401Y-76883214D01*
X96117369Y-76818349D01*
X96152839Y-76787612D01*
X96192932Y-76764466D01*
X96254466Y-76702932D01*
X96297977Y-76627568D01*
X96320500Y-76543511D01*
X96320500Y-76476489D01*
X98109500Y-76476489D01*
X98109500Y-76563511D01*
X98132023Y-76647568D01*
X98175534Y-76722932D01*
X98237068Y-76784466D01*
X98312432Y-76827977D01*
X98396489Y-76850500D01*
X98396491Y-76850500D01*
X98483509Y-76850500D01*
X98483511Y-76850500D01*
X98567568Y-76827977D01*
X98642932Y-76784466D01*
X98692319Y-76735079D01*
X98753642Y-76701594D01*
X98823334Y-76706578D01*
X98867681Y-76735079D01*
X98907068Y-76774466D01*
X98982432Y-76817977D01*
X99066489Y-76840500D01*
X99066491Y-76840500D01*
X99153509Y-76840500D01*
X99153511Y-76840500D01*
X99237568Y-76817977D01*
X99312932Y-76774466D01*
X99374466Y-76712932D01*
X99417977Y-76637568D01*
X99440500Y-76553511D01*
X99440500Y-76466489D01*
X99437821Y-76456489D01*
X104169500Y-76456489D01*
X104169500Y-76543511D01*
X104192023Y-76627568D01*
X104235534Y-76702932D01*
X104297068Y-76764466D01*
X104372432Y-76807977D01*
X104456489Y-76830500D01*
X104456491Y-76830500D01*
X104543509Y-76830500D01*
X104543511Y-76830500D01*
X104627568Y-76807977D01*
X104702932Y-76764466D01*
X104764466Y-76702932D01*
X104807977Y-76627568D01*
X104827023Y-76556489D01*
X106069500Y-76556489D01*
X106069500Y-76643511D01*
X106092023Y-76727568D01*
X106135534Y-76802932D01*
X106197068Y-76864466D01*
X106272432Y-76907977D01*
X106356489Y-76930500D01*
X106356491Y-76930500D01*
X106443509Y-76930500D01*
X106443511Y-76930500D01*
X106527568Y-76907977D01*
X106602932Y-76864466D01*
X106664466Y-76802932D01*
X106707977Y-76727568D01*
X106730500Y-76643511D01*
X106730500Y-76556489D01*
X106707977Y-76472432D01*
X106664466Y-76397068D01*
X106659579Y-76392181D01*
X106626094Y-76330858D01*
X106631078Y-76261166D01*
X106672950Y-76205233D01*
X106735496Y-76181904D01*
X106735451Y-76181561D01*
X106736943Y-76181364D01*
X106738414Y-76180816D01*
X106742112Y-76180683D01*
X106743502Y-76180500D01*
X106743511Y-76180500D01*
X106827568Y-76157977D01*
X106902932Y-76114466D01*
X106964466Y-76052932D01*
X107007977Y-75977568D01*
X107030500Y-75893511D01*
X107030500Y-75806489D01*
X107007977Y-75722432D01*
X106964466Y-75647068D01*
X106902932Y-75585534D01*
X106827568Y-75542023D01*
X106743511Y-75519500D01*
X106656489Y-75519500D01*
X106572432Y-75542023D01*
X106572431Y-75542023D01*
X106497069Y-75585533D01*
X106497066Y-75585535D01*
X106435535Y-75647066D01*
X106435533Y-75647069D01*
X106392023Y-75722431D01*
X106392023Y-75722432D01*
X106369500Y-75806489D01*
X106369500Y-75893511D01*
X106383154Y-75944466D01*
X106392023Y-75977567D01*
X106392023Y-75977568D01*
X106435533Y-76052930D01*
X106435535Y-76052933D01*
X106440421Y-76057819D01*
X106473906Y-76119142D01*
X106468922Y-76188834D01*
X106427050Y-76244767D01*
X106364503Y-76268095D01*
X106364549Y-76268439D01*
X106363056Y-76268635D01*
X106361586Y-76269184D01*
X106357887Y-76269316D01*
X106356489Y-76269500D01*
X106272432Y-76292023D01*
X106272431Y-76292023D01*
X106197069Y-76335533D01*
X106197066Y-76335535D01*
X106135535Y-76397066D01*
X106135533Y-76397069D01*
X106092023Y-76472431D01*
X106092023Y-76472432D01*
X106069500Y-76556489D01*
X104827023Y-76556489D01*
X104830500Y-76543511D01*
X104830500Y-76456489D01*
X104807977Y-76372432D01*
X104764466Y-76297068D01*
X104702932Y-76235534D01*
X104627568Y-76192023D01*
X104543511Y-76169500D01*
X104456489Y-76169500D01*
X104372432Y-76192023D01*
X104372431Y-76192023D01*
X104297069Y-76235533D01*
X104297066Y-76235535D01*
X104235535Y-76297066D01*
X104235533Y-76297069D01*
X104192023Y-76372431D01*
X104192023Y-76372432D01*
X104169500Y-76456489D01*
X99437821Y-76456489D01*
X99417977Y-76382432D01*
X99374466Y-76307068D01*
X99312932Y-76245534D01*
X99237568Y-76202023D01*
X99153511Y-76179500D01*
X99066489Y-76179500D01*
X98982432Y-76202023D01*
X98982431Y-76202023D01*
X98907069Y-76245533D01*
X98907066Y-76245535D01*
X98857681Y-76294921D01*
X98796358Y-76328406D01*
X98726666Y-76323422D01*
X98682319Y-76294921D01*
X98642933Y-76255535D01*
X98642932Y-76255534D01*
X98567568Y-76212023D01*
X98483511Y-76189500D01*
X98396489Y-76189500D01*
X98312432Y-76212023D01*
X98312431Y-76212023D01*
X98237069Y-76255533D01*
X98237066Y-76255535D01*
X98175535Y-76317066D01*
X98175533Y-76317069D01*
X98132023Y-76392431D01*
X98132023Y-76392432D01*
X98109500Y-76476489D01*
X96320500Y-76476489D01*
X96320500Y-76456489D01*
X96297977Y-76372432D01*
X96254466Y-76297068D01*
X96192932Y-76235534D01*
X96192931Y-76235533D01*
X96192928Y-76235531D01*
X96121859Y-76194500D01*
X96073644Y-76143934D01*
X96060420Y-76075327D01*
X96086388Y-76010462D01*
X96121857Y-75979726D01*
X96182932Y-75944466D01*
X96244466Y-75882932D01*
X96287977Y-75807568D01*
X96310500Y-75723511D01*
X96310500Y-75636489D01*
X96287977Y-75552432D01*
X96244466Y-75477068D01*
X96182932Y-75415534D01*
X96107568Y-75372023D01*
X96023511Y-75349500D01*
X95936489Y-75349500D01*
X95852432Y-75372023D01*
X95852431Y-75372023D01*
X95777069Y-75415533D01*
X95777066Y-75415535D01*
X95715535Y-75477066D01*
X95715533Y-75477069D01*
X95672023Y-75552431D01*
X95672023Y-75552432D01*
X95649500Y-75636489D01*
X95649500Y-75723511D01*
X95672023Y-75807568D01*
X95715534Y-75882932D01*
X95777068Y-75944466D01*
X95848139Y-75985499D01*
X95896355Y-76036065D01*
X95909579Y-76104672D01*
X95883611Y-76169537D01*
X95848141Y-76200273D01*
X95787068Y-76235533D01*
X95725535Y-76297066D01*
X95725533Y-76297069D01*
X95682023Y-76372431D01*
X95682023Y-76372432D01*
X95659500Y-76456489D01*
X95659500Y-76543511D01*
X95682023Y-76627568D01*
X95725534Y-76702932D01*
X95787068Y-76764466D01*
X95787069Y-76764467D01*
X95787071Y-76764468D01*
X95827159Y-76787613D01*
X95875375Y-76838180D01*
X95888598Y-76906787D01*
X95862630Y-76971652D01*
X95827159Y-77002387D01*
X95787071Y-77025531D01*
X95787066Y-77025535D01*
X95725535Y-77087066D01*
X95725533Y-77087069D01*
X95682020Y-77162437D01*
X95678919Y-77169923D01*
X95635075Y-77224324D01*
X95568779Y-77246384D01*
X95501081Y-77229101D01*
X95456974Y-77184463D01*
X95421866Y-77123653D01*
X95360332Y-77062119D01*
X95284968Y-77018608D01*
X95200911Y-76996085D01*
X95113889Y-76996085D01*
X95029832Y-77018608D01*
X95029831Y-77018608D01*
X94954469Y-77062118D01*
X94954466Y-77062120D01*
X94892935Y-77123651D01*
X94892931Y-77123656D01*
X94872672Y-77158746D01*
X94822104Y-77206960D01*
X94753497Y-77220182D01*
X94688633Y-77194213D01*
X94677154Y-77183973D01*
X94665900Y-77172602D01*
X94631866Y-77113653D01*
X94570332Y-77052119D01*
X94515076Y-77020217D01*
X94503365Y-77008385D01*
X94494364Y-76991697D01*
X94481282Y-76977977D01*
X94478122Y-76961583D01*
X94470197Y-76946890D01*
X94471646Y-76927988D01*
X94468058Y-76909370D01*
X94474263Y-76893869D01*
X94475540Y-76877225D01*
X94486979Y-76862107D01*
X94494026Y-76844505D01*
X94512239Y-76828723D01*
X94517699Y-76821508D01*
X94522674Y-76819681D01*
X94529497Y-76813769D01*
X94562932Y-76794466D01*
X94624466Y-76732932D01*
X94667977Y-76657568D01*
X94690500Y-76573511D01*
X94690500Y-76486489D01*
X94667977Y-76402432D01*
X94624466Y-76327068D01*
X94562932Y-76265534D01*
X94487568Y-76222023D01*
X94403511Y-76199500D01*
X94316489Y-76199500D01*
X94232432Y-76222023D01*
X94232431Y-76222023D01*
X94157069Y-76265533D01*
X94157066Y-76265535D01*
X94095535Y-76327066D01*
X94095533Y-76327069D01*
X94052023Y-76402431D01*
X94052023Y-76402432D01*
X94029500Y-76486489D01*
X94029500Y-76573511D01*
X94052023Y-76657568D01*
X94095534Y-76732932D01*
X94157068Y-76794466D01*
X94157069Y-76794467D01*
X94157071Y-76794468D01*
X94197900Y-76818040D01*
X94246117Y-76868606D01*
X94259341Y-76937213D01*
X94233374Y-77002078D01*
X94197903Y-77032815D01*
X94164469Y-77052118D01*
X94164466Y-77052120D01*
X94102935Y-77113651D01*
X94102933Y-77113654D01*
X94059423Y-77189016D01*
X94059423Y-77189017D01*
X94036900Y-77273074D01*
X94036900Y-77360096D01*
X94059423Y-77444153D01*
X94102934Y-77519517D01*
X94164468Y-77581051D01*
X94164470Y-77581052D01*
X94170919Y-77586001D01*
X94170087Y-77587084D01*
X94212389Y-77631446D01*
X94225614Y-77700053D01*
X94199648Y-77764918D01*
X94164178Y-77795654D01*
X94147074Y-77805529D01*
X94147066Y-77805535D01*
X94085535Y-77867066D01*
X94085533Y-77867069D01*
X94042023Y-77942431D01*
X94042023Y-77942432D01*
X94019500Y-78026489D01*
X94019500Y-78113511D01*
X94042023Y-78197568D01*
X94085534Y-78272932D01*
X94147068Y-78334466D01*
X94222432Y-78377977D01*
X94222433Y-78377977D01*
X94229470Y-78382040D01*
X94228336Y-78384002D01*
X94273601Y-78420479D01*
X94295665Y-78486774D01*
X94278385Y-78554473D01*
X94233744Y-78598585D01*
X94187071Y-78625531D01*
X94187066Y-78625535D01*
X94125535Y-78687066D01*
X94125533Y-78687069D01*
X94082023Y-78762431D01*
X94082023Y-78762432D01*
X94059500Y-78846489D01*
X94059500Y-78933511D01*
X94082023Y-79017568D01*
X94125534Y-79092932D01*
X94187068Y-79154466D01*
X94262432Y-79197977D01*
X94262434Y-79197977D01*
X94268376Y-79200439D01*
X94322779Y-79244280D01*
X94344844Y-79310574D01*
X94327565Y-79378273D01*
X94276428Y-79425884D01*
X94268376Y-79429561D01*
X94262433Y-79432022D01*
X94187069Y-79475533D01*
X94187066Y-79475535D01*
X94125535Y-79537066D01*
X94125533Y-79537069D01*
X94082023Y-79612431D01*
X94082023Y-79612432D01*
X94059500Y-79696489D01*
X94059500Y-79783511D01*
X94082023Y-79867568D01*
X94125534Y-79942932D01*
X94187068Y-80004466D01*
X94187069Y-80004467D01*
X94187071Y-80004468D01*
X94210818Y-80018178D01*
X94259035Y-80068744D01*
X94272259Y-80137351D01*
X94246292Y-80202216D01*
X94210820Y-80232953D01*
X94137071Y-80275531D01*
X94137066Y-80275535D01*
X94075535Y-80337066D01*
X94075533Y-80337069D01*
X94032023Y-80412431D01*
X94026600Y-80432669D01*
X94026599Y-80432672D01*
X94009500Y-80496489D01*
X93777023Y-80496489D01*
X93780500Y-80483511D01*
X93780500Y-80396489D01*
X93757977Y-80312432D01*
X93714466Y-80237068D01*
X93652932Y-80175534D01*
X93577568Y-80132023D01*
X93493511Y-80109500D01*
X93406489Y-80109500D01*
X93322432Y-80132023D01*
X93322431Y-80132023D01*
X93247069Y-80175533D01*
X93247066Y-80175535D01*
X93185535Y-80237066D01*
X93185533Y-80237069D01*
X93142023Y-80312431D01*
X93142023Y-80312432D01*
X93119500Y-80396489D01*
X93119500Y-80483511D01*
X93142023Y-80567568D01*
X93185534Y-80642932D01*
X93247068Y-80704466D01*
X93296526Y-80733020D01*
X93344742Y-80783587D01*
X93357966Y-80852194D01*
X93331998Y-80917059D01*
X93275084Y-80957588D01*
X93266631Y-80960179D01*
X93240049Y-80967302D01*
X93222431Y-80972023D01*
X93147069Y-81015533D01*
X93147066Y-81015535D01*
X93085535Y-81077066D01*
X93085533Y-81077069D01*
X93042023Y-81152431D01*
X93042023Y-81152432D01*
X93019500Y-81236489D01*
X93018439Y-81244549D01*
X93016902Y-81244346D01*
X92999815Y-81302539D01*
X92947011Y-81348294D01*
X92895500Y-81359500D01*
X92856489Y-81359500D01*
X92772432Y-81382023D01*
X92772431Y-81382023D01*
X92697069Y-81425533D01*
X92697066Y-81425535D01*
X92635535Y-81487066D01*
X92635533Y-81487069D01*
X92592023Y-81562431D01*
X92592023Y-81562432D01*
X92569500Y-81646489D01*
X92569500Y-81665500D01*
X92549815Y-81732539D01*
X92497011Y-81778294D01*
X92445500Y-81789500D01*
X92376489Y-81789500D01*
X92292432Y-81812023D01*
X92292431Y-81812023D01*
X92217069Y-81855533D01*
X92217066Y-81855535D01*
X92155535Y-81917066D01*
X92155533Y-81917069D01*
X92112023Y-81992431D01*
X92112023Y-81992432D01*
X92089500Y-82076489D01*
X88057821Y-82076489D01*
X88037977Y-82002432D01*
X87994466Y-81927068D01*
X87994362Y-81926964D01*
X87990880Y-81918106D01*
X87988565Y-81892157D01*
X87982424Y-81866839D01*
X87985511Y-81857917D01*
X87984673Y-81848512D01*
X87996755Y-81825431D01*
X88005276Y-81800812D01*
X88013607Y-81793238D01*
X88017077Y-81786611D01*
X88027294Y-81780796D01*
X88044283Y-81765353D01*
X88107387Y-81728921D01*
X88168921Y-81667387D01*
X88212432Y-81592023D01*
X88234955Y-81507966D01*
X88234955Y-81420944D01*
X88212432Y-81336887D01*
X88168921Y-81261523D01*
X88107387Y-81199989D01*
X88032023Y-81156478D01*
X87947966Y-81133955D01*
X87947965Y-81133955D01*
X87940116Y-81131852D01*
X87940761Y-81129443D01*
X87888332Y-81106244D01*
X87849865Y-81047917D01*
X87847990Y-81039297D01*
X87846045Y-81032038D01*
X87846045Y-81032034D01*
X87823522Y-80947977D01*
X87780011Y-80872613D01*
X87718477Y-80811079D01*
X87718476Y-80811078D01*
X87718473Y-80811076D01*
X87658137Y-80776241D01*
X87658134Y-80776240D01*
X87643113Y-80767568D01*
X87559056Y-80745045D01*
X87494428Y-80745045D01*
X87482925Y-80742853D01*
X87461835Y-80732036D01*
X87439098Y-80725360D01*
X87431322Y-80716387D01*
X87420755Y-80710967D01*
X87408860Y-80690463D01*
X87393343Y-80672556D01*
X87392471Y-80666489D01*
X88489500Y-80666489D01*
X88489500Y-80753511D01*
X88512023Y-80837568D01*
X88555534Y-80912932D01*
X88617068Y-80974466D01*
X88692432Y-81017977D01*
X88776489Y-81040500D01*
X88776491Y-81040500D01*
X88863509Y-81040500D01*
X88863511Y-81040500D01*
X88947568Y-81017977D01*
X89022932Y-80974466D01*
X89084466Y-80912932D01*
X89127977Y-80837568D01*
X89150500Y-80753511D01*
X89150500Y-80666489D01*
X89127977Y-80582432D01*
X89084466Y-80507068D01*
X89022932Y-80445534D01*
X88947568Y-80402023D01*
X88863511Y-80379500D01*
X88776489Y-80379500D01*
X88692432Y-80402023D01*
X88692431Y-80402023D01*
X88617069Y-80445533D01*
X88617066Y-80445535D01*
X88555535Y-80507066D01*
X88555533Y-80507069D01*
X88512023Y-80582431D01*
X88512023Y-80582432D01*
X88489500Y-80666489D01*
X87392471Y-80666489D01*
X87391653Y-80660803D01*
X87385694Y-80650532D01*
X87386771Y-80626856D01*
X87383399Y-80603398D01*
X87386359Y-80588964D01*
X87390500Y-80573511D01*
X87390500Y-80486489D01*
X87367977Y-80402432D01*
X87324466Y-80327068D01*
X87262932Y-80265534D01*
X87187568Y-80222023D01*
X87103511Y-80199500D01*
X87016489Y-80199500D01*
X86932432Y-80222023D01*
X86932431Y-80222023D01*
X86857069Y-80265533D01*
X86857066Y-80265535D01*
X86795535Y-80327066D01*
X86795533Y-80327069D01*
X86752023Y-80402431D01*
X86752023Y-80402432D01*
X86729500Y-80486489D01*
X84000000Y-80486489D01*
X84000000Y-79556489D01*
X88269500Y-79556489D01*
X88269500Y-79643511D01*
X88292023Y-79727568D01*
X88335534Y-79802932D01*
X88397068Y-79864466D01*
X88472432Y-79907977D01*
X88556489Y-79930500D01*
X88556491Y-79930500D01*
X88643509Y-79930500D01*
X88643511Y-79930500D01*
X88727568Y-79907977D01*
X88802932Y-79864466D01*
X88864466Y-79802932D01*
X88907977Y-79727568D01*
X88930500Y-79643511D01*
X88930500Y-79556489D01*
X88907977Y-79472432D01*
X88864466Y-79397068D01*
X88802932Y-79335534D01*
X88727568Y-79292023D01*
X88643511Y-79269500D01*
X88556489Y-79269500D01*
X88472432Y-79292023D01*
X88472431Y-79292023D01*
X88397069Y-79335533D01*
X88397066Y-79335535D01*
X88335535Y-79397066D01*
X88335533Y-79397069D01*
X88292023Y-79472431D01*
X88292023Y-79472432D01*
X88269500Y-79556489D01*
X84000000Y-79556489D01*
X84000000Y-78826489D01*
X86599500Y-78826489D01*
X86599500Y-78913511D01*
X86622023Y-78997568D01*
X86665534Y-79072932D01*
X86727068Y-79134466D01*
X86802432Y-79177977D01*
X86886489Y-79200500D01*
X86886491Y-79200500D01*
X86973509Y-79200500D01*
X86973511Y-79200500D01*
X87057568Y-79177977D01*
X87132932Y-79134466D01*
X87194466Y-79072932D01*
X87237977Y-78997568D01*
X87260500Y-78913511D01*
X87260500Y-78826489D01*
X87237977Y-78742432D01*
X87215167Y-78702924D01*
X87194468Y-78667071D01*
X87194467Y-78667069D01*
X87194466Y-78667068D01*
X87183887Y-78656489D01*
X88769500Y-78656489D01*
X88769500Y-78743511D01*
X88792023Y-78827568D01*
X88835534Y-78902932D01*
X88897068Y-78964466D01*
X88972432Y-79007977D01*
X89056489Y-79030500D01*
X89056491Y-79030500D01*
X89143509Y-79030500D01*
X89143511Y-79030500D01*
X89227568Y-79007977D01*
X89264787Y-78986489D01*
X92929500Y-78986489D01*
X92929500Y-79073511D01*
X92952023Y-79157568D01*
X92995534Y-79232932D01*
X93057068Y-79294466D01*
X93132432Y-79337977D01*
X93216489Y-79360500D01*
X93216491Y-79360500D01*
X93303509Y-79360500D01*
X93303511Y-79360500D01*
X93387568Y-79337977D01*
X93462932Y-79294466D01*
X93524466Y-79232932D01*
X93567977Y-79157568D01*
X93590500Y-79073511D01*
X93590500Y-78986489D01*
X93567977Y-78902432D01*
X93524466Y-78827068D01*
X93462932Y-78765534D01*
X93387568Y-78722023D01*
X93303511Y-78699500D01*
X93216489Y-78699500D01*
X93132432Y-78722023D01*
X93132431Y-78722023D01*
X93057069Y-78765533D01*
X93057066Y-78765535D01*
X92995535Y-78827066D01*
X92995533Y-78827069D01*
X92952023Y-78902431D01*
X92952023Y-78902432D01*
X92929500Y-78986489D01*
X89264787Y-78986489D01*
X89302932Y-78964466D01*
X89364466Y-78902932D01*
X89407977Y-78827568D01*
X89430500Y-78743511D01*
X89430500Y-78656489D01*
X89407977Y-78572432D01*
X89364466Y-78497068D01*
X89302932Y-78435534D01*
X89227568Y-78392023D01*
X89143511Y-78369500D01*
X89056489Y-78369500D01*
X88972432Y-78392023D01*
X88972431Y-78392023D01*
X88897069Y-78435533D01*
X88897066Y-78435535D01*
X88835535Y-78497066D01*
X88835533Y-78497069D01*
X88792023Y-78572431D01*
X88792023Y-78572432D01*
X88769500Y-78656489D01*
X87183887Y-78656489D01*
X87132932Y-78605534D01*
X87057568Y-78562023D01*
X86973511Y-78539500D01*
X86886489Y-78539500D01*
X86802432Y-78562023D01*
X86802431Y-78562023D01*
X86727069Y-78605533D01*
X86727066Y-78605535D01*
X86665535Y-78667066D01*
X86665533Y-78667069D01*
X86622023Y-78742431D01*
X86622023Y-78742432D01*
X86599500Y-78826489D01*
X84000000Y-78826489D01*
X84000000Y-77756489D01*
X88269500Y-77756489D01*
X88269500Y-77843511D01*
X88292023Y-77927568D01*
X88335534Y-78002932D01*
X88397068Y-78064466D01*
X88472432Y-78107977D01*
X88556489Y-78130500D01*
X88556491Y-78130500D01*
X88643509Y-78130500D01*
X88643511Y-78130500D01*
X88727568Y-78107977D01*
X88802932Y-78064466D01*
X88864466Y-78002932D01*
X88907977Y-77927568D01*
X88930500Y-77843511D01*
X88930500Y-77756489D01*
X88907977Y-77672432D01*
X88864466Y-77597068D01*
X88802932Y-77535534D01*
X88727568Y-77492023D01*
X88643511Y-77469500D01*
X88556489Y-77469500D01*
X88472432Y-77492023D01*
X88472431Y-77492023D01*
X88397069Y-77535533D01*
X88397066Y-77535535D01*
X88335535Y-77597066D01*
X88335533Y-77597069D01*
X88292023Y-77672431D01*
X88292023Y-77672432D01*
X88269500Y-77756489D01*
X84000000Y-77756489D01*
X84000000Y-76956489D01*
X88769500Y-76956489D01*
X88769500Y-77043511D01*
X88792023Y-77127568D01*
X88835534Y-77202932D01*
X88897068Y-77264466D01*
X88972432Y-77307977D01*
X89056489Y-77330500D01*
X89056491Y-77330500D01*
X89143509Y-77330500D01*
X89143511Y-77330500D01*
X89227568Y-77307977D01*
X89302932Y-77264466D01*
X89364466Y-77202932D01*
X89407977Y-77127568D01*
X89430500Y-77043511D01*
X89430500Y-76956489D01*
X89407977Y-76872432D01*
X89364466Y-76797068D01*
X89302932Y-76735534D01*
X89227568Y-76692023D01*
X89143511Y-76669500D01*
X89056489Y-76669500D01*
X88972432Y-76692023D01*
X88972431Y-76692023D01*
X88897069Y-76735533D01*
X88897066Y-76735535D01*
X88835535Y-76797066D01*
X88835533Y-76797069D01*
X88792023Y-76872431D01*
X88792023Y-76872432D01*
X88769500Y-76956489D01*
X84000000Y-76956489D01*
X84000000Y-76056489D01*
X88269500Y-76056489D01*
X88269500Y-76143511D01*
X88292023Y-76227568D01*
X88335534Y-76302932D01*
X88397068Y-76364466D01*
X88472432Y-76407977D01*
X88556489Y-76430500D01*
X88556491Y-76430500D01*
X88643509Y-76430500D01*
X88643511Y-76430500D01*
X88727568Y-76407977D01*
X88802932Y-76364466D01*
X88864466Y-76302932D01*
X88907977Y-76227568D01*
X88930500Y-76143511D01*
X88930500Y-76056489D01*
X89719500Y-76056489D01*
X89719500Y-76143511D01*
X89742023Y-76227568D01*
X89785534Y-76302932D01*
X89847068Y-76364466D01*
X89922432Y-76407977D01*
X90006489Y-76430500D01*
X90006491Y-76430500D01*
X90093509Y-76430500D01*
X90093511Y-76430500D01*
X90177568Y-76407977D01*
X90252932Y-76364466D01*
X90314466Y-76302932D01*
X90357977Y-76227568D01*
X90380500Y-76143511D01*
X90380500Y-76056489D01*
X90357977Y-75972432D01*
X90314466Y-75897068D01*
X90252932Y-75835534D01*
X90177568Y-75792023D01*
X90093511Y-75769500D01*
X90006489Y-75769500D01*
X89922432Y-75792023D01*
X89922431Y-75792023D01*
X89847069Y-75835533D01*
X89847066Y-75835535D01*
X89785535Y-75897066D01*
X89785533Y-75897069D01*
X89742023Y-75972431D01*
X89742023Y-75972432D01*
X89719500Y-76056489D01*
X88930500Y-76056489D01*
X88907977Y-75972432D01*
X88864466Y-75897068D01*
X88802932Y-75835534D01*
X88727568Y-75792023D01*
X88643511Y-75769500D01*
X88556489Y-75769500D01*
X88472432Y-75792023D01*
X88472431Y-75792023D01*
X88397069Y-75835533D01*
X88397066Y-75835535D01*
X88335535Y-75897066D01*
X88335533Y-75897069D01*
X88292023Y-75972431D01*
X88292023Y-75972432D01*
X88269500Y-76056489D01*
X84000000Y-76056489D01*
X84000000Y-75056489D01*
X88769500Y-75056489D01*
X88769500Y-75143511D01*
X88792023Y-75227568D01*
X88835534Y-75302932D01*
X88897068Y-75364466D01*
X88972432Y-75407977D01*
X89056489Y-75430500D01*
X89056491Y-75430500D01*
X89143509Y-75430500D01*
X89143511Y-75430500D01*
X89227568Y-75407977D01*
X89302932Y-75364466D01*
X89364466Y-75302932D01*
X89407977Y-75227568D01*
X89430500Y-75143511D01*
X89430500Y-75056489D01*
X89417103Y-75006489D01*
X89719500Y-75006489D01*
X89719500Y-75093511D01*
X89742023Y-75177568D01*
X89785534Y-75252932D01*
X89847068Y-75314466D01*
X89922432Y-75357977D01*
X90006489Y-75380500D01*
X90006491Y-75380500D01*
X90093509Y-75380500D01*
X90093511Y-75380500D01*
X90177568Y-75357977D01*
X90252932Y-75314466D01*
X90294324Y-75273074D01*
X92779500Y-75273074D01*
X92779500Y-75360096D01*
X92802023Y-75444153D01*
X92845534Y-75519517D01*
X92907068Y-75581051D01*
X92982432Y-75624562D01*
X93066489Y-75647085D01*
X93066491Y-75647085D01*
X93153509Y-75647085D01*
X93153511Y-75647085D01*
X93237568Y-75624562D01*
X93312932Y-75581051D01*
X93374466Y-75519517D01*
X93417977Y-75444153D01*
X93440500Y-75360096D01*
X93440500Y-75273074D01*
X93417977Y-75189017D01*
X93374466Y-75113653D01*
X93319579Y-75058766D01*
X93286094Y-74997443D01*
X93291078Y-74927751D01*
X93332950Y-74871818D01*
X93398414Y-74847401D01*
X93407260Y-74847085D01*
X93463509Y-74847085D01*
X93463511Y-74847085D01*
X93547568Y-74824562D01*
X93622932Y-74781051D01*
X93684466Y-74719517D01*
X93727977Y-74644153D01*
X93750500Y-74560096D01*
X93750500Y-74473074D01*
X93727977Y-74389017D01*
X93684466Y-74313653D01*
X93622932Y-74252119D01*
X93547568Y-74208608D01*
X93463511Y-74186085D01*
X93376489Y-74186085D01*
X93292432Y-74208608D01*
X93292431Y-74208608D01*
X93217069Y-74252118D01*
X93217066Y-74252120D01*
X93155535Y-74313651D01*
X93155533Y-74313654D01*
X93112023Y-74389016D01*
X93112023Y-74389017D01*
X93089500Y-74473074D01*
X93089500Y-74560095D01*
X93112023Y-74644152D01*
X93112023Y-74644153D01*
X93155533Y-74719515D01*
X93155535Y-74719518D01*
X93210421Y-74774404D01*
X93243906Y-74835727D01*
X93238922Y-74905419D01*
X93197050Y-74961352D01*
X93131586Y-74985769D01*
X93122740Y-74986085D01*
X93066489Y-74986085D01*
X92982432Y-75008608D01*
X92982431Y-75008608D01*
X92907069Y-75052118D01*
X92907066Y-75052120D01*
X92845535Y-75113651D01*
X92845533Y-75113654D01*
X92802023Y-75189016D01*
X92802023Y-75189017D01*
X92779500Y-75273074D01*
X90294324Y-75273074D01*
X90314466Y-75252932D01*
X90357977Y-75177568D01*
X90380500Y-75093511D01*
X90380500Y-75006489D01*
X90357977Y-74922432D01*
X90314466Y-74847068D01*
X90252932Y-74785534D01*
X90177568Y-74742023D01*
X90093511Y-74719500D01*
X90006489Y-74719500D01*
X89922432Y-74742023D01*
X89922431Y-74742023D01*
X89847069Y-74785533D01*
X89847066Y-74785535D01*
X89785535Y-74847066D01*
X89785533Y-74847069D01*
X89742023Y-74922431D01*
X89742023Y-74922432D01*
X89719500Y-75006489D01*
X89417103Y-75006489D01*
X89407977Y-74972432D01*
X89364466Y-74897068D01*
X89302932Y-74835534D01*
X89227568Y-74792023D01*
X89143511Y-74769500D01*
X89056489Y-74769500D01*
X88972432Y-74792023D01*
X88972431Y-74792023D01*
X88897069Y-74835533D01*
X88897066Y-74835535D01*
X88835535Y-74897066D01*
X88835533Y-74897069D01*
X88792023Y-74972431D01*
X88792023Y-74972432D01*
X88769500Y-75056489D01*
X84000000Y-75056489D01*
X84000000Y-73956489D01*
X88269500Y-73956489D01*
X88269500Y-74043511D01*
X88292023Y-74127568D01*
X88335534Y-74202932D01*
X88397068Y-74264466D01*
X88472432Y-74307977D01*
X88556489Y-74330500D01*
X88556491Y-74330500D01*
X88643509Y-74330500D01*
X88643511Y-74330500D01*
X88727568Y-74307977D01*
X88802932Y-74264466D01*
X88864466Y-74202932D01*
X88907977Y-74127568D01*
X88930500Y-74043511D01*
X88930500Y-73956489D01*
X89719500Y-73956489D01*
X89719500Y-74043511D01*
X89742023Y-74127568D01*
X89785534Y-74202932D01*
X89847068Y-74264466D01*
X89922432Y-74307977D01*
X90006489Y-74330500D01*
X90006491Y-74330500D01*
X90093509Y-74330500D01*
X90093511Y-74330500D01*
X90177568Y-74307977D01*
X90252932Y-74264466D01*
X90314466Y-74202932D01*
X90357977Y-74127568D01*
X90380500Y-74043511D01*
X90380500Y-73956489D01*
X90357977Y-73872432D01*
X90314466Y-73797068D01*
X90252932Y-73735534D01*
X90177568Y-73692023D01*
X90156915Y-73686489D01*
X100609500Y-73686489D01*
X100609500Y-73773511D01*
X100632023Y-73857568D01*
X100675534Y-73932932D01*
X100737068Y-73994466D01*
X100804202Y-74033225D01*
X100852417Y-74083791D01*
X100865641Y-74152397D01*
X100839674Y-74217263D01*
X100804207Y-74247997D01*
X100797069Y-74252118D01*
X100797066Y-74252120D01*
X100735535Y-74313651D01*
X100735533Y-74313654D01*
X100692023Y-74389016D01*
X100692023Y-74389017D01*
X100669500Y-74473074D01*
X100669500Y-74560096D01*
X100692023Y-74644153D01*
X100735534Y-74719517D01*
X100797068Y-74781051D01*
X100872432Y-74824562D01*
X100956489Y-74847085D01*
X100956491Y-74847085D01*
X101043509Y-74847085D01*
X101043511Y-74847085D01*
X101127568Y-74824562D01*
X101202932Y-74781051D01*
X101264466Y-74719517D01*
X101307977Y-74644153D01*
X101330500Y-74560096D01*
X101330500Y-74473074D01*
X101307977Y-74389017D01*
X101264466Y-74313653D01*
X101202932Y-74252119D01*
X101135797Y-74213358D01*
X101087582Y-74162793D01*
X101086367Y-74156489D01*
X105369500Y-74156489D01*
X105369500Y-74243511D01*
X105392023Y-74327568D01*
X105435534Y-74402932D01*
X105497068Y-74464466D01*
X105572432Y-74507977D01*
X105656489Y-74530500D01*
X105656491Y-74530500D01*
X105743509Y-74530500D01*
X105743511Y-74530500D01*
X105827568Y-74507977D01*
X105902932Y-74464466D01*
X105964466Y-74402932D01*
X106007977Y-74327568D01*
X106030500Y-74243511D01*
X106030500Y-74156489D01*
X106007977Y-74072432D01*
X105964466Y-73997068D01*
X105902932Y-73935534D01*
X105827568Y-73892023D01*
X105743511Y-73869500D01*
X105656489Y-73869500D01*
X105572432Y-73892023D01*
X105572431Y-73892023D01*
X105497069Y-73935533D01*
X105497066Y-73935535D01*
X105435535Y-73997066D01*
X105435533Y-73997069D01*
X105392023Y-74072431D01*
X105392023Y-74072432D01*
X105369500Y-74156489D01*
X101086367Y-74156489D01*
X101074358Y-74094186D01*
X101100326Y-74029321D01*
X101135797Y-73998585D01*
X101142932Y-73994466D01*
X101204466Y-73932932D01*
X101247977Y-73857568D01*
X101270500Y-73773511D01*
X101270500Y-73686489D01*
X101247977Y-73602432D01*
X101204466Y-73527068D01*
X101142932Y-73465534D01*
X101067568Y-73422023D01*
X100983511Y-73399500D01*
X100896489Y-73399500D01*
X100812432Y-73422023D01*
X100812431Y-73422023D01*
X100737069Y-73465533D01*
X100737066Y-73465535D01*
X100675535Y-73527066D01*
X100675533Y-73527069D01*
X100632023Y-73602431D01*
X100632023Y-73602432D01*
X100609500Y-73686489D01*
X90156915Y-73686489D01*
X90093511Y-73669500D01*
X90006489Y-73669500D01*
X89922432Y-73692023D01*
X89922431Y-73692023D01*
X89847069Y-73735533D01*
X89847066Y-73735535D01*
X89785535Y-73797066D01*
X89785533Y-73797069D01*
X89742023Y-73872431D01*
X89742023Y-73872432D01*
X89719500Y-73956489D01*
X88930500Y-73956489D01*
X88907977Y-73872432D01*
X88864466Y-73797068D01*
X88802932Y-73735534D01*
X88727568Y-73692023D01*
X88643511Y-73669500D01*
X88556489Y-73669500D01*
X88472432Y-73692023D01*
X88472431Y-73692023D01*
X88397069Y-73735533D01*
X88397066Y-73735535D01*
X88335535Y-73797066D01*
X88335533Y-73797069D01*
X88292023Y-73872431D01*
X88292023Y-73872432D01*
X88269500Y-73956489D01*
X84000000Y-73956489D01*
X84000000Y-73056489D01*
X88769500Y-73056489D01*
X88769500Y-73143511D01*
X88792023Y-73227568D01*
X88835534Y-73302932D01*
X88897068Y-73364466D01*
X88972432Y-73407977D01*
X89056489Y-73430500D01*
X89056491Y-73430500D01*
X89143509Y-73430500D01*
X89143511Y-73430500D01*
X89227568Y-73407977D01*
X89302932Y-73364466D01*
X89364466Y-73302932D01*
X89407977Y-73227568D01*
X89430500Y-73143511D01*
X89430500Y-73056489D01*
X89407977Y-72972432D01*
X89372221Y-72910500D01*
X89364468Y-72897071D01*
X89364467Y-72897069D01*
X89364466Y-72897068D01*
X89340472Y-72873074D01*
X93019500Y-72873074D01*
X93019500Y-72960096D01*
X93042023Y-73044153D01*
X93085534Y-73119517D01*
X93147068Y-73181051D01*
X93222432Y-73224562D01*
X93306489Y-73247085D01*
X93306491Y-73247085D01*
X93393509Y-73247085D01*
X93393511Y-73247085D01*
X93477568Y-73224562D01*
X93552932Y-73181051D01*
X93577494Y-73156489D01*
X105319500Y-73156489D01*
X105319500Y-73243511D01*
X105342023Y-73327568D01*
X105385534Y-73402932D01*
X105447068Y-73464466D01*
X105522432Y-73507977D01*
X105606489Y-73530500D01*
X105606491Y-73530500D01*
X105693509Y-73530500D01*
X105693511Y-73530500D01*
X105777568Y-73507977D01*
X105852932Y-73464466D01*
X105914466Y-73402932D01*
X105957977Y-73327568D01*
X105980500Y-73243511D01*
X105980500Y-73156489D01*
X105957977Y-73072432D01*
X105914466Y-72997068D01*
X105852932Y-72935534D01*
X105777568Y-72892023D01*
X105693511Y-72869500D01*
X105606489Y-72869500D01*
X105522432Y-72892023D01*
X105522431Y-72892023D01*
X105447069Y-72935533D01*
X105447066Y-72935535D01*
X105385535Y-72997066D01*
X105385533Y-72997069D01*
X105342023Y-73072431D01*
X105342023Y-73072432D01*
X105319500Y-73156489D01*
X93577494Y-73156489D01*
X93614466Y-73119517D01*
X93657977Y-73044153D01*
X93680500Y-72960096D01*
X93680500Y-72873074D01*
X93657977Y-72789017D01*
X93614466Y-72713653D01*
X93552932Y-72652119D01*
X93552931Y-72652118D01*
X93539231Y-72644208D01*
X93477568Y-72608608D01*
X93393511Y-72586085D01*
X93306489Y-72586085D01*
X93222432Y-72608608D01*
X93222431Y-72608608D01*
X93147069Y-72652118D01*
X93147066Y-72652120D01*
X93085535Y-72713651D01*
X93085533Y-72713654D01*
X93042023Y-72789016D01*
X93042023Y-72789017D01*
X93019500Y-72873074D01*
X89340472Y-72873074D01*
X89302932Y-72835534D01*
X89227568Y-72792023D01*
X89143511Y-72769500D01*
X89056489Y-72769500D01*
X88972432Y-72792023D01*
X88972431Y-72792023D01*
X88897069Y-72835533D01*
X88897066Y-72835535D01*
X88835535Y-72897066D01*
X88835533Y-72897069D01*
X88792023Y-72972431D01*
X88792023Y-72972432D01*
X88769500Y-73056489D01*
X84000000Y-73056489D01*
X84000000Y-72536489D01*
X95819500Y-72536489D01*
X95819500Y-72623511D01*
X95842023Y-72707568D01*
X95885534Y-72782932D01*
X95947068Y-72844466D01*
X96022432Y-72887977D01*
X96106489Y-72910500D01*
X96106491Y-72910500D01*
X96193509Y-72910500D01*
X96193511Y-72910500D01*
X96277568Y-72887977D01*
X96352932Y-72844466D01*
X96414466Y-72782932D01*
X96457977Y-72707568D01*
X96480500Y-72623511D01*
X96480500Y-72543074D01*
X97976900Y-72543074D01*
X97976900Y-72630096D01*
X97999423Y-72714153D01*
X98042934Y-72789517D01*
X98104468Y-72851051D01*
X98179832Y-72894562D01*
X98263889Y-72917085D01*
X98263891Y-72917085D01*
X98350909Y-72917085D01*
X98350911Y-72917085D01*
X98434968Y-72894562D01*
X98510332Y-72851051D01*
X98571866Y-72789517D01*
X98615377Y-72714153D01*
X98628547Y-72665000D01*
X98664910Y-72605342D01*
X98727757Y-72574812D01*
X98797132Y-72583106D01*
X98851011Y-72627591D01*
X98858211Y-72640965D01*
X98862022Y-72647567D01*
X98862023Y-72647568D01*
X98905534Y-72722932D01*
X98967068Y-72784466D01*
X99042432Y-72827977D01*
X99126489Y-72850500D01*
X99126491Y-72850500D01*
X99213509Y-72850500D01*
X99213511Y-72850500D01*
X99297568Y-72827977D01*
X99372932Y-72784466D01*
X99434466Y-72722932D01*
X99477977Y-72647568D01*
X99500500Y-72563511D01*
X99500500Y-72476489D01*
X99477977Y-72392432D01*
X99434466Y-72317068D01*
X99372932Y-72255534D01*
X99297568Y-72212023D01*
X99213511Y-72189500D01*
X99126489Y-72189500D01*
X99042432Y-72212023D01*
X99042431Y-72212023D01*
X98967069Y-72255533D01*
X98967066Y-72255535D01*
X98905535Y-72317066D01*
X98905533Y-72317069D01*
X98862023Y-72392431D01*
X98862021Y-72392436D01*
X98848852Y-72441584D01*
X98812487Y-72501244D01*
X98749640Y-72531772D01*
X98680264Y-72523477D01*
X98626387Y-72478991D01*
X98619199Y-72465638D01*
X98615377Y-72459018D01*
X98615377Y-72459017D01*
X98571866Y-72383653D01*
X98510332Y-72322119D01*
X98434968Y-72278608D01*
X98350911Y-72256085D01*
X98263889Y-72256085D01*
X98179832Y-72278608D01*
X98179831Y-72278608D01*
X98104469Y-72322118D01*
X98104466Y-72322120D01*
X98042935Y-72383651D01*
X98042933Y-72383654D01*
X97999423Y-72459016D01*
X97999423Y-72459017D01*
X97976900Y-72543074D01*
X96480500Y-72543074D01*
X96480500Y-72536489D01*
X96457977Y-72452432D01*
X96414466Y-72377068D01*
X96352932Y-72315534D01*
X96277568Y-72272023D01*
X96193511Y-72249500D01*
X96106489Y-72249500D01*
X96022432Y-72272023D01*
X96022431Y-72272023D01*
X95947069Y-72315533D01*
X95947066Y-72315535D01*
X95885535Y-72377066D01*
X95885533Y-72377069D01*
X95842023Y-72452431D01*
X95842023Y-72452432D01*
X95819500Y-72536489D01*
X84000000Y-72536489D01*
X84000000Y-72156489D01*
X88269500Y-72156489D01*
X88269500Y-72243511D01*
X88292023Y-72327568D01*
X88335534Y-72402932D01*
X88397068Y-72464466D01*
X88472432Y-72507977D01*
X88556489Y-72530500D01*
X88556491Y-72530500D01*
X88643509Y-72530500D01*
X88643511Y-72530500D01*
X88727568Y-72507977D01*
X88802932Y-72464466D01*
X88864466Y-72402932D01*
X88907977Y-72327568D01*
X88930500Y-72243511D01*
X88930500Y-72156489D01*
X105369500Y-72156489D01*
X105369500Y-72243511D01*
X105392023Y-72327568D01*
X105435534Y-72402932D01*
X105497068Y-72464466D01*
X105572432Y-72507977D01*
X105656489Y-72530500D01*
X105656491Y-72530500D01*
X105743509Y-72530500D01*
X105743511Y-72530500D01*
X105827568Y-72507977D01*
X105902932Y-72464466D01*
X105964466Y-72402932D01*
X106007977Y-72327568D01*
X106030500Y-72243511D01*
X106030500Y-72156489D01*
X106007977Y-72072432D01*
X105964466Y-71997068D01*
X105902932Y-71935534D01*
X105827568Y-71892023D01*
X105743511Y-71869500D01*
X105656489Y-71869500D01*
X105572432Y-71892023D01*
X105572431Y-71892023D01*
X105497069Y-71935533D01*
X105497066Y-71935535D01*
X105435535Y-71997066D01*
X105435533Y-71997069D01*
X105392023Y-72072431D01*
X105392023Y-72072432D01*
X105369500Y-72156489D01*
X88930500Y-72156489D01*
X88907977Y-72072432D01*
X88864466Y-71997068D01*
X88802932Y-71935534D01*
X88727568Y-71892023D01*
X88643511Y-71869500D01*
X88556489Y-71869500D01*
X88472432Y-71892023D01*
X88472431Y-71892023D01*
X88397069Y-71935533D01*
X88397066Y-71935535D01*
X88335535Y-71997066D01*
X88335533Y-71997069D01*
X88292023Y-72072431D01*
X88292023Y-72072432D01*
X88269500Y-72156489D01*
X84000000Y-72156489D01*
X84000000Y-71656082D01*
X93219908Y-71656082D01*
X93219908Y-71743104D01*
X93242431Y-71827161D01*
X93285942Y-71902525D01*
X93347476Y-71964059D01*
X93422840Y-72007570D01*
X93506897Y-72030093D01*
X93506899Y-72030093D01*
X93593917Y-72030093D01*
X93593919Y-72030093D01*
X93677976Y-72007570D01*
X93753340Y-71964059D01*
X93814874Y-71902525D01*
X93858385Y-71827161D01*
X93858385Y-71827159D01*
X93862448Y-71820123D01*
X93863861Y-71820938D01*
X93901735Y-71773939D01*
X93968029Y-71751873D01*
X94035728Y-71769151D01*
X94079845Y-71813795D01*
X94082022Y-71817566D01*
X94082023Y-71817568D01*
X94125534Y-71892932D01*
X94187068Y-71954466D01*
X94262432Y-71997977D01*
X94346489Y-72020500D01*
X94346491Y-72020500D01*
X94433509Y-72020500D01*
X94433511Y-72020500D01*
X94517568Y-71997977D01*
X94592932Y-71954466D01*
X94654466Y-71892932D01*
X94654466Y-71892931D01*
X94660213Y-71887185D01*
X94662447Y-71889419D01*
X94706815Y-71856989D01*
X94776559Y-71852801D01*
X94837496Y-71886983D01*
X94856207Y-71911657D01*
X94872527Y-71939925D01*
X94934061Y-72001459D01*
X95009425Y-72044970D01*
X95093482Y-72067493D01*
X95093484Y-72067493D01*
X95180502Y-72067493D01*
X95180504Y-72067493D01*
X95264561Y-72044970D01*
X95339925Y-72001459D01*
X95401459Y-71939925D01*
X95444970Y-71864561D01*
X95467493Y-71780504D01*
X95467493Y-71693482D01*
X95444970Y-71609425D01*
X95401459Y-71534061D01*
X95339925Y-71472527D01*
X95264561Y-71429016D01*
X95180504Y-71406493D01*
X95093482Y-71406493D01*
X95009425Y-71429016D01*
X95009424Y-71429016D01*
X94934062Y-71472526D01*
X94934059Y-71472528D01*
X94866780Y-71539808D01*
X94864557Y-71537585D01*
X94820069Y-71570041D01*
X94750321Y-71574166D01*
X94689416Y-71539927D01*
X94670784Y-71515332D01*
X94654468Y-71487071D01*
X94654467Y-71487069D01*
X94654466Y-71487068D01*
X94592932Y-71425534D01*
X94517568Y-71382023D01*
X94433511Y-71359500D01*
X94346489Y-71359500D01*
X94262432Y-71382023D01*
X94262431Y-71382023D01*
X94187069Y-71425533D01*
X94187066Y-71425535D01*
X94125535Y-71487066D01*
X94125533Y-71487069D01*
X94077960Y-71569470D01*
X94076549Y-71568655D01*
X94038653Y-71615666D01*
X93972355Y-71637720D01*
X93904658Y-71620429D01*
X93860562Y-71575797D01*
X93858385Y-71572027D01*
X93858385Y-71572025D01*
X93814874Y-71496661D01*
X93753340Y-71435127D01*
X93677976Y-71391616D01*
X93593919Y-71369093D01*
X93506897Y-71369093D01*
X93422840Y-71391616D01*
X93422839Y-71391616D01*
X93347477Y-71435126D01*
X93347474Y-71435128D01*
X93285943Y-71496659D01*
X93285941Y-71496662D01*
X93242431Y-71572024D01*
X93242431Y-71572025D01*
X93219908Y-71656082D01*
X84000000Y-71656082D01*
X84000000Y-71206489D01*
X88869500Y-71206489D01*
X88869500Y-71293511D01*
X88892023Y-71377568D01*
X88935534Y-71452932D01*
X88997068Y-71514466D01*
X89072432Y-71557977D01*
X89156489Y-71580500D01*
X89156491Y-71580500D01*
X89243509Y-71580500D01*
X89243511Y-71580500D01*
X89327568Y-71557977D01*
X89402932Y-71514466D01*
X89464466Y-71452932D01*
X89507977Y-71377568D01*
X89530500Y-71293511D01*
X89530500Y-71206489D01*
X89507977Y-71122432D01*
X89464466Y-71047068D01*
X89402932Y-70985534D01*
X89327568Y-70942023D01*
X89243511Y-70919500D01*
X89156489Y-70919500D01*
X89072432Y-70942023D01*
X89072431Y-70942023D01*
X88997069Y-70985533D01*
X88997066Y-70985535D01*
X88935535Y-71047066D01*
X88935533Y-71047069D01*
X88892023Y-71122431D01*
X88892023Y-71122432D01*
X88869500Y-71206489D01*
X84000000Y-71206489D01*
X84000000Y-70106489D01*
X93169500Y-70106489D01*
X93169500Y-70193511D01*
X93192023Y-70277568D01*
X93235534Y-70352932D01*
X93297068Y-70414466D01*
X93372432Y-70457977D01*
X93456489Y-70480500D01*
X93456491Y-70480500D01*
X93543509Y-70480500D01*
X93543511Y-70480500D01*
X93627568Y-70457977D01*
X93702932Y-70414466D01*
X93764466Y-70352932D01*
X93807977Y-70277568D01*
X93811807Y-70263273D01*
X93848167Y-70203616D01*
X93911013Y-70173084D01*
X93980389Y-70181376D01*
X94034269Y-70225859D01*
X94038968Y-70233366D01*
X94082931Y-70309513D01*
X94082933Y-70309516D01*
X94082934Y-70309517D01*
X94144468Y-70371051D01*
X94219832Y-70414562D01*
X94303889Y-70437085D01*
X94303891Y-70437085D01*
X94390909Y-70437085D01*
X94390911Y-70437085D01*
X94474968Y-70414562D01*
X94550332Y-70371051D01*
X94611866Y-70309517D01*
X94653214Y-70237898D01*
X94703778Y-70189685D01*
X94772385Y-70176460D01*
X94837250Y-70202427D01*
X94867987Y-70237899D01*
X94905531Y-70302928D01*
X94905533Y-70302930D01*
X94905534Y-70302932D01*
X94967068Y-70364466D01*
X95042432Y-70407977D01*
X95126489Y-70430500D01*
X95126491Y-70430500D01*
X95213509Y-70430500D01*
X95213511Y-70430500D01*
X95297568Y-70407977D01*
X95372932Y-70364466D01*
X95434466Y-70302932D01*
X95463251Y-70253074D01*
X95806900Y-70253074D01*
X95806900Y-70340096D01*
X95829423Y-70424153D01*
X95872934Y-70499517D01*
X95934468Y-70561051D01*
X96009832Y-70604562D01*
X96093889Y-70627085D01*
X96093891Y-70627085D01*
X96180909Y-70627085D01*
X96180911Y-70627085D01*
X96264968Y-70604562D01*
X96340332Y-70561051D01*
X96381601Y-70519782D01*
X97762793Y-70519782D01*
X97762793Y-70606804D01*
X97785316Y-70690861D01*
X97806220Y-70727069D01*
X97832891Y-70773264D01*
X97830012Y-70774926D01*
X97849633Y-70825668D01*
X97835600Y-70894114D01*
X97833452Y-70897992D01*
X97802025Y-70952427D01*
X97802023Y-70952432D01*
X97779500Y-71036489D01*
X97779500Y-71123511D01*
X97802023Y-71207568D01*
X97845534Y-71282932D01*
X97907068Y-71344466D01*
X97982432Y-71387977D01*
X98066489Y-71410500D01*
X98066491Y-71410500D01*
X98153509Y-71410500D01*
X98153511Y-71410500D01*
X98237568Y-71387977D01*
X98312932Y-71344466D01*
X98374466Y-71282932D01*
X98417977Y-71207568D01*
X98440500Y-71123511D01*
X98440500Y-71036489D01*
X98417977Y-70952432D01*
X98408221Y-70935534D01*
X98405341Y-70930545D01*
X98405254Y-70930394D01*
X98374466Y-70877068D01*
X98374177Y-70876779D01*
X98374009Y-70876489D01*
X99629500Y-70876489D01*
X99629500Y-70963511D01*
X99652023Y-71047568D01*
X99695534Y-71122932D01*
X99757068Y-71184466D01*
X99757069Y-71184467D01*
X99757071Y-71184468D01*
X99799241Y-71208815D01*
X99847457Y-71259382D01*
X99860680Y-71327989D01*
X99834712Y-71392854D01*
X99799243Y-71423588D01*
X99784471Y-71432116D01*
X99784466Y-71432120D01*
X99722935Y-71493651D01*
X99722933Y-71493654D01*
X99679423Y-71569016D01*
X99679423Y-71569017D01*
X99656900Y-71653074D01*
X99656900Y-71740096D01*
X99679423Y-71824153D01*
X99722934Y-71899517D01*
X99784468Y-71961051D01*
X99859832Y-72004562D01*
X99943889Y-72027085D01*
X99943891Y-72027085D01*
X100030909Y-72027085D01*
X100030911Y-72027085D01*
X100114968Y-72004562D01*
X100190332Y-71961051D01*
X100251866Y-71899517D01*
X100295377Y-71824153D01*
X100317900Y-71740096D01*
X100317900Y-71653074D01*
X100295377Y-71569017D01*
X100251866Y-71493653D01*
X100190332Y-71432119D01*
X100190331Y-71432118D01*
X100148157Y-71407769D01*
X100099942Y-71357201D01*
X100086720Y-71288594D01*
X100112688Y-71223730D01*
X100148157Y-71192996D01*
X100162932Y-71184466D01*
X100224466Y-71122932D01*
X100267977Y-71047568D01*
X100267977Y-71047564D01*
X100270294Y-71043553D01*
X100320861Y-70995337D01*
X100389467Y-70982113D01*
X100454332Y-71008080D01*
X100486948Y-71051113D01*
X100487960Y-71050530D01*
X100492022Y-71057566D01*
X100492023Y-71057568D01*
X100535534Y-71132932D01*
X100597068Y-71194466D01*
X100672432Y-71237977D01*
X100756489Y-71260500D01*
X100756491Y-71260500D01*
X100843509Y-71260500D01*
X100843511Y-71260500D01*
X100927568Y-71237977D01*
X101002932Y-71194466D01*
X101040909Y-71156489D01*
X105319500Y-71156489D01*
X105319500Y-71243511D01*
X105342023Y-71327568D01*
X105385534Y-71402932D01*
X105447068Y-71464466D01*
X105522432Y-71507977D01*
X105606489Y-71530500D01*
X105606491Y-71530500D01*
X105693509Y-71530500D01*
X105693511Y-71530500D01*
X105777568Y-71507977D01*
X105852932Y-71464466D01*
X105914466Y-71402932D01*
X105957977Y-71327568D01*
X105980500Y-71243511D01*
X105980500Y-71156489D01*
X105957977Y-71072432D01*
X105914466Y-70997068D01*
X105852932Y-70935534D01*
X105777568Y-70892023D01*
X105693511Y-70869500D01*
X105606489Y-70869500D01*
X105522432Y-70892023D01*
X105522431Y-70892023D01*
X105447069Y-70935533D01*
X105447066Y-70935535D01*
X105385535Y-70997066D01*
X105385533Y-70997069D01*
X105342023Y-71072431D01*
X105342023Y-71072432D01*
X105319500Y-71156489D01*
X101040909Y-71156489D01*
X101064466Y-71132932D01*
X101107977Y-71057568D01*
X101130500Y-70973511D01*
X101130500Y-70886489D01*
X101107977Y-70802432D01*
X101064466Y-70727068D01*
X101002932Y-70665534D01*
X101002931Y-70665533D01*
X101002928Y-70665531D01*
X100965519Y-70643933D01*
X100917303Y-70593366D01*
X100904081Y-70524759D01*
X100930049Y-70459894D01*
X100965521Y-70429158D01*
X100967565Y-70427977D01*
X100967568Y-70427977D01*
X101042932Y-70384466D01*
X101104466Y-70322932D01*
X101147977Y-70247568D01*
X101170500Y-70163511D01*
X101170500Y-70076489D01*
X101589500Y-70076489D01*
X101589500Y-70163511D01*
X101612023Y-70247568D01*
X101655534Y-70322932D01*
X101717068Y-70384466D01*
X101792432Y-70427977D01*
X101876489Y-70450500D01*
X101876491Y-70450500D01*
X101963509Y-70450500D01*
X101963511Y-70450500D01*
X102047568Y-70427977D01*
X102122932Y-70384466D01*
X102184466Y-70322932D01*
X102201704Y-70293074D01*
X102436900Y-70293074D01*
X102436900Y-70380096D01*
X102459423Y-70464153D01*
X102502934Y-70539517D01*
X102564468Y-70601051D01*
X102639832Y-70644562D01*
X102723889Y-70667085D01*
X102723891Y-70667085D01*
X102810909Y-70667085D01*
X102810911Y-70667085D01*
X102894968Y-70644562D01*
X102970332Y-70601051D01*
X103031866Y-70539517D01*
X103075377Y-70464153D01*
X103097900Y-70380096D01*
X103097900Y-70293074D01*
X103075377Y-70209017D01*
X103031866Y-70133653D01*
X102970332Y-70072119D01*
X102894968Y-70028608D01*
X102810911Y-70006085D01*
X102723889Y-70006085D01*
X102639832Y-70028608D01*
X102639831Y-70028608D01*
X102564469Y-70072118D01*
X102564466Y-70072120D01*
X102502935Y-70133651D01*
X102502931Y-70133656D01*
X102490394Y-70155372D01*
X102490393Y-70155374D01*
X102459423Y-70209017D01*
X102436900Y-70293074D01*
X102201704Y-70293074D01*
X102227977Y-70247568D01*
X102250500Y-70163511D01*
X102250500Y-70076489D01*
X102227977Y-69992432D01*
X102184466Y-69917068D01*
X102122932Y-69855534D01*
X102047568Y-69812023D01*
X101963511Y-69789500D01*
X101876489Y-69789500D01*
X101792432Y-69812023D01*
X101792431Y-69812023D01*
X101717069Y-69855533D01*
X101717066Y-69855535D01*
X101655535Y-69917066D01*
X101655533Y-69917069D01*
X101612023Y-69992431D01*
X101612023Y-69992432D01*
X101589500Y-70076489D01*
X101170500Y-70076489D01*
X101147977Y-69992432D01*
X101104466Y-69917068D01*
X101042932Y-69855534D01*
X100967568Y-69812023D01*
X100883511Y-69789500D01*
X100796489Y-69789500D01*
X100712432Y-69812023D01*
X100712431Y-69812023D01*
X100637069Y-69855533D01*
X100637066Y-69855535D01*
X100575535Y-69917066D01*
X100575533Y-69917069D01*
X100532023Y-69992431D01*
X100532023Y-69992432D01*
X100509500Y-70076489D01*
X100509500Y-70163511D01*
X100532023Y-70247568D01*
X100575534Y-70322932D01*
X100637068Y-70384466D01*
X100637069Y-70384467D01*
X100637071Y-70384468D01*
X100674480Y-70406066D01*
X100722695Y-70456633D01*
X100735919Y-70525239D01*
X100709951Y-70590104D01*
X100674480Y-70620840D01*
X100597071Y-70665531D01*
X100597066Y-70665535D01*
X100535535Y-70727066D01*
X100535531Y-70727071D01*
X100489704Y-70806447D01*
X100439137Y-70854663D01*
X100370530Y-70867886D01*
X100305665Y-70841918D01*
X100273052Y-70798885D01*
X100272040Y-70799470D01*
X100256910Y-70773264D01*
X100224466Y-70717068D01*
X100162932Y-70655534D01*
X100087568Y-70612023D01*
X100003511Y-70589500D01*
X99916489Y-70589500D01*
X99832432Y-70612023D01*
X99832431Y-70612023D01*
X99757069Y-70655533D01*
X99757066Y-70655535D01*
X99695535Y-70717066D01*
X99695533Y-70717069D01*
X99652023Y-70792431D01*
X99652023Y-70792432D01*
X99629500Y-70876489D01*
X98374009Y-70876489D01*
X98369947Y-70869481D01*
X98363484Y-70843037D01*
X98353661Y-70817649D01*
X98355310Y-70809594D01*
X98353359Y-70801609D01*
X98362218Y-70775867D01*
X98367681Y-70749200D01*
X98369841Y-70745298D01*
X98380364Y-70727071D01*
X98401270Y-70690861D01*
X98423793Y-70606804D01*
X98423793Y-70519782D01*
X98401270Y-70435725D01*
X98357759Y-70360361D01*
X98296225Y-70298827D01*
X98220861Y-70255316D01*
X98136804Y-70232793D01*
X98049782Y-70232793D01*
X97965725Y-70255316D01*
X97965724Y-70255316D01*
X97890362Y-70298826D01*
X97890359Y-70298828D01*
X97828828Y-70360359D01*
X97828826Y-70360362D01*
X97785316Y-70435724D01*
X97785316Y-70435725D01*
X97762793Y-70519782D01*
X96381601Y-70519782D01*
X96401866Y-70499517D01*
X96413712Y-70478998D01*
X96430654Y-70449655D01*
X96438696Y-70435725D01*
X96445377Y-70424153D01*
X96467900Y-70340096D01*
X96467900Y-70253074D01*
X96445377Y-70169017D01*
X96401866Y-70093653D01*
X96401287Y-70093074D01*
X98836900Y-70093074D01*
X98836900Y-70180096D01*
X98859423Y-70264153D01*
X98902934Y-70339517D01*
X98964468Y-70401051D01*
X99039832Y-70444562D01*
X99123889Y-70467085D01*
X99123891Y-70467085D01*
X99210909Y-70467085D01*
X99210911Y-70467085D01*
X99294968Y-70444562D01*
X99370332Y-70401051D01*
X99431866Y-70339517D01*
X99475377Y-70264153D01*
X99497900Y-70180096D01*
X99497900Y-70093074D01*
X99475377Y-70009017D01*
X99431866Y-69933653D01*
X99370332Y-69872119D01*
X99294968Y-69828608D01*
X99210911Y-69806085D01*
X99123889Y-69806085D01*
X99039832Y-69828608D01*
X99039831Y-69828608D01*
X98964469Y-69872118D01*
X98964466Y-69872120D01*
X98902935Y-69933651D01*
X98902933Y-69933654D01*
X98859423Y-70009016D01*
X98859423Y-70009017D01*
X98836900Y-70093074D01*
X96401287Y-70093074D01*
X96340332Y-70032119D01*
X96264968Y-69988608D01*
X96180911Y-69966085D01*
X96093889Y-69966085D01*
X96009832Y-69988608D01*
X96009831Y-69988608D01*
X95934469Y-70032118D01*
X95934466Y-70032120D01*
X95872935Y-70093651D01*
X95872933Y-70093654D01*
X95829423Y-70169016D01*
X95829423Y-70169017D01*
X95806900Y-70253074D01*
X95463251Y-70253074D01*
X95477977Y-70227568D01*
X95500500Y-70143511D01*
X95500500Y-70056489D01*
X95477977Y-69972432D01*
X95434466Y-69897068D01*
X95372932Y-69835534D01*
X95297568Y-69792023D01*
X95213511Y-69769500D01*
X95126489Y-69769500D01*
X95042432Y-69792023D01*
X95042431Y-69792023D01*
X94967069Y-69835533D01*
X94967066Y-69835535D01*
X94905535Y-69897066D01*
X94905531Y-69897071D01*
X94864186Y-69968685D01*
X94813620Y-70016900D01*
X94745013Y-70030124D01*
X94680148Y-70004156D01*
X94649411Y-69968684D01*
X94611866Y-69903653D01*
X94550332Y-69842119D01*
X94474968Y-69798608D01*
X94390911Y-69776085D01*
X94303889Y-69776085D01*
X94219832Y-69798608D01*
X94219831Y-69798608D01*
X94144469Y-69842118D01*
X94144466Y-69842120D01*
X94082935Y-69903651D01*
X94082933Y-69903654D01*
X94039423Y-69979016D01*
X94039421Y-69979021D01*
X94035592Y-69993313D01*
X93999227Y-70052973D01*
X93936380Y-70083501D01*
X93867004Y-70075206D01*
X93813127Y-70030720D01*
X93808431Y-70023217D01*
X93764470Y-69947074D01*
X93764467Y-69947070D01*
X93764466Y-69947068D01*
X93702932Y-69885534D01*
X93627568Y-69842023D01*
X93543511Y-69819500D01*
X93456489Y-69819500D01*
X93372432Y-69842023D01*
X93372431Y-69842023D01*
X93297069Y-69885533D01*
X93297066Y-69885535D01*
X93235535Y-69947066D01*
X93235533Y-69947069D01*
X93192023Y-70022431D01*
X93192023Y-70022432D01*
X93169500Y-70106489D01*
X84000000Y-70106489D01*
X84000000Y-68756489D01*
X97269500Y-68756489D01*
X97269500Y-68843511D01*
X97292023Y-68927568D01*
X97335534Y-69002932D01*
X97397068Y-69064466D01*
X97472432Y-69107977D01*
X97556489Y-69130500D01*
X97556491Y-69130500D01*
X97643509Y-69130500D01*
X97643511Y-69130500D01*
X97727568Y-69107977D01*
X97802932Y-69064466D01*
X97864466Y-69002932D01*
X97907977Y-68927568D01*
X97930500Y-68843511D01*
X97930500Y-68756489D01*
X97907977Y-68672432D01*
X97898772Y-68656489D01*
X102369500Y-68656489D01*
X102369500Y-68743511D01*
X102392023Y-68827568D01*
X102435534Y-68902932D01*
X102497068Y-68964466D01*
X102572432Y-69007977D01*
X102656489Y-69030500D01*
X102656491Y-69030500D01*
X102743509Y-69030500D01*
X102743511Y-69030500D01*
X102827568Y-69007977D01*
X102902932Y-68964466D01*
X102964466Y-68902932D01*
X103007977Y-68827568D01*
X103030500Y-68743511D01*
X103030500Y-68656489D01*
X103007977Y-68572432D01*
X102964466Y-68497068D01*
X102902932Y-68435534D01*
X102827568Y-68392023D01*
X102743511Y-68369500D01*
X102656489Y-68369500D01*
X102572432Y-68392023D01*
X102572431Y-68392023D01*
X102497069Y-68435533D01*
X102497066Y-68435535D01*
X102435535Y-68497066D01*
X102435533Y-68497069D01*
X102392023Y-68572431D01*
X102392023Y-68572432D01*
X102369500Y-68656489D01*
X97898772Y-68656489D01*
X97864466Y-68597068D01*
X97802932Y-68535534D01*
X97727568Y-68492023D01*
X97643511Y-68469500D01*
X97556489Y-68469500D01*
X97472432Y-68492023D01*
X97472431Y-68492023D01*
X97397069Y-68535533D01*
X97397066Y-68535535D01*
X97335535Y-68597066D01*
X97335533Y-68597069D01*
X97292023Y-68672431D01*
X97292023Y-68672432D01*
X97269500Y-68756489D01*
X84000000Y-68756489D01*
X84000000Y-66624000D01*
X84019685Y-66556961D01*
X84072489Y-66511206D01*
X84124000Y-66500000D01*
X90649296Y-66500000D01*
X90716335Y-66519685D01*
G37*
%TD.AperFunction*%
%TD*%
%TA.AperFunction,Conductor*%
%TO.N,VDD_DDR*%
G36*
X73502883Y-96447503D02*
G01*
X73506162Y-96496816D01*
X73519973Y-96529512D01*
X73551275Y-96567553D01*
X73467553Y-96651275D01*
X73405065Y-96608455D01*
X73347503Y-96602883D01*
X73260982Y-96596157D01*
X73299293Y-96399293D01*
X73496157Y-96360982D01*
X73502883Y-96447503D01*
G37*
%TD.AperFunction*%
%TD*%
%TA.AperFunction,Conductor*%
%TO.N,VDD_DDR*%
G36*
X73732756Y-100607270D02*
G01*
X73735984Y-100613395D01*
X73748107Y-100678304D01*
X73748108Y-100678306D01*
X73784870Y-100722949D01*
X73832761Y-100778914D01*
X73835536Y-100787428D01*
X73831478Y-100795411D01*
X73830411Y-100796222D01*
X73681540Y-100896590D01*
X73672765Y-100898374D01*
X73668460Y-100896590D01*
X73519588Y-100796222D01*
X73514643Y-100788756D01*
X73516427Y-100779981D01*
X73517239Y-100778914D01*
X73565103Y-100722981D01*
X73565149Y-100722927D01*
X73597682Y-100685760D01*
X73611035Y-100652875D01*
X73614773Y-100614411D01*
X73618984Y-100606508D01*
X73626418Y-100603843D01*
X73724483Y-100603843D01*
X73732756Y-100607270D01*
G37*
%TD.AperFunction*%
%TD*%
%TA.AperFunction,Conductor*%
%TO.N,VDD_DDR*%
G36*
X70175707Y-96399293D02*
G01*
X70286114Y-96566294D01*
X70218309Y-96600725D01*
X70164507Y-96613629D01*
X70113703Y-96626285D01*
X70077715Y-96645187D01*
X70036296Y-96680125D01*
X69894875Y-96538704D01*
X69945240Y-96469713D01*
X69961370Y-96410493D01*
X69968421Y-96376428D01*
X70008706Y-96288886D01*
X70175707Y-96399293D01*
G37*
%TD.AperFunction*%
%TD*%
%TA.AperFunction,Conductor*%
%TO.N,VDD_DDR*%
G36*
X84000000Y-95000000D02*
G01*
X75500000Y-95000000D01*
X74000000Y-95999999D01*
X74000000Y-96876000D01*
X73980315Y-96943039D01*
X73927511Y-96988794D01*
X73876000Y-97000000D01*
X69624000Y-97000000D01*
X69556961Y-96980315D01*
X69511206Y-96927511D01*
X69500000Y-96876000D01*
X69500000Y-91562000D01*
X69519685Y-91494961D01*
X69549600Y-91462800D01*
X71466933Y-90024800D01*
X71532375Y-90000324D01*
X71541333Y-90000000D01*
X82500000Y-90000000D01*
X84000000Y-89000000D01*
X84000000Y-95000000D01*
G37*
%TD.AperFunction*%
%TD*%
M02*
