M48
INCH
T1C0.0118
T2C0.0197
T3C0.0236
T4C0.1063
%
G90
G05
T1
X2.4051Y-4.652
X2.4051Y-4.6953
X2.4051Y-4.9551
X2.4051Y-4.9984
X2.4146Y-4.135
X2.4157Y-4.0685
X2.4165Y-4.0021
X2.4642Y-4.652
X2.4642Y-4.9984
X2.5047Y-4.4626
X2.5083Y-4.4295
X2.5232Y-4.6953
X2.5232Y-4.7386
X2.5232Y-4.7819
X2.5232Y-4.8685
X2.5232Y-4.9118
X2.5232Y-4.9551
X2.5315Y-4.3335
X2.5315Y-4.3756
X2.5319Y-4.3543
X2.5323Y-4.502
X2.5465Y-4.7591
X2.5583Y-4.3929
X2.5587Y-4.3276
X2.572Y-4.5909
X2.5787Y-2.6142
X2.5823Y-4.3929
X2.5874Y-4.9335
X2.5882Y-4.8874
X2.5886Y-4.9764
X2.6063Y-2.4803
X2.6063Y-2.5118
X2.6063Y-2.5433
X2.6071Y-4.45
X2.6094Y-5.0283
X2.6098Y-4.8035
X2.6098Y-4.8469
X2.6161Y-2.413
X2.6236Y-4.8819
X2.6299Y-2.3701
X2.6319Y-4.9764
X2.6323Y-4.6165
X2.6339Y-4.3508
X2.6339Y-4.374
X2.6429Y-2.4537
X2.6457Y-2.6142
X2.6476Y-4.8819
X2.6531Y-5.0287
X2.6575Y-4.374
X2.6594Y-2.4055
X2.6843Y-3.9972
X2.685Y-2.5118
X2.686Y-2.6152
X2.6909Y-4.5157
X2.692Y-3.9699
X2.692Y-4.0289
X2.6929Y-4.6181
X2.6965Y-4.8469
X2.6969Y-4.2992
X2.6969Y-4.0762
X2.6969Y-4.147
X2.699Y-4.2108
X2.7087Y-2.5118
X2.7126Y-2.6575
X2.7165Y-2.4252
X2.7171Y-3.9108
X2.7177Y-4.976
X2.7179Y-4.825
X2.7181Y-3.8262
X2.7181Y-4.9339
X2.7278Y-4.0762
X2.7278Y-4.147
X2.7278Y-4.2533
X2.728Y-3.8557
X2.728Y-3.8793
X2.7311Y-3.2817
X2.7323Y-2.5118
X2.7398Y-4.8035
X2.7431Y-2.4246
X2.752Y-2.3898
X2.7535Y-4.5079
X2.7565Y-3.9699
X2.7565Y-4.0289
X2.7598Y-3.0301
X2.761Y-4.9768
X2.7614Y-4.9339
X2.7628Y-3.7953
X2.7656Y-4.0762
X2.7656Y-4.1116
X2.7656Y-4.147
X2.7656Y-4.1825
X2.7656Y-4.2179
X2.7656Y-4.2533
X2.7656Y-4.2917
X2.7697Y-2.9016
X2.7713Y-2.8569
X2.7713Y-2.9435
X2.7713Y-2.9868
X2.7713Y-3.0734
X2.7713Y-3.1167
X2.7713Y-3.16
X2.7752Y-3.8262
X2.7756Y-2.3898
X2.7781Y-3.9108
X2.7815Y-3.0301
X2.7874Y-3.7953
X2.7902Y-2.7646
X2.7902Y-4.8835
X2.7909Y-4.0929
X2.7961Y-3.3272
X2.7988Y-4.3642
X2.7988Y-4.3957
X2.7992Y-2.3898
X2.7992Y-3.2825
X2.812Y-3.7953
X2.815Y-4.7402
X2.8156Y-4.4226
X2.8185Y-3.2281
X2.8185Y-4.274
X2.8185Y-4.335
X2.8205Y-3.3821
X2.8228Y-2.3898
X2.8228Y-4.5508
X2.8268Y-3.2825
X2.8303Y-4.3642
X2.8303Y-4.3957
X2.8352Y-3.9679
X2.8366Y-3.7953
X2.853Y-3.9827
X2.8612Y-3.7953
X2.8695Y-4.5441
X2.8697Y-4.6953
X2.8697Y-4.9551
X2.872Y-4.5906
X2.8722Y-4.2305
X2.8858Y-3.7953
X2.888Y-4.0612
X2.888Y-4.1006
X2.888Y-4.14
X2.8937Y-4.6772
X2.8969Y-3.4173
X2.9006Y-3.9724
X2.9016Y-4.3898
X2.9016Y-4.4134
X2.9016Y-4.437
X2.9055Y-4.5236
X2.9075Y-4.5906
X2.913Y-4.652
X2.913Y-4.6953
X2.913Y-4.9984
X2.9157Y-3.4421
X2.9211Y-4.2281
X2.9213Y-4.5472
X2.9232Y-4.3898
X2.9232Y-4.4134
X2.9232Y-4.437
X2.9274Y-4.0612
X2.9274Y-4.1006
X2.9274Y-4.14
X2.9291Y-3.9612
X2.9321Y-3.9301
X2.9346Y-3.2321
X2.9346Y-3.2644
X2.9358Y-3.3825
X2.937Y-2.4252
X2.937Y-2.4567
X2.937Y-2.4882
X2.937Y-2.5197
X2.937Y-2.5512
X2.937Y-2.5827
X2.9406Y-3.8163
X2.9406Y-3.8606
X2.9412Y-2.8029
X2.9445Y-4.3898
X2.9445Y-4.4134
X2.9445Y-4.437
X2.9498Y-3.9134
X2.9667Y-4.0612
X2.9667Y-4.1006
X2.9667Y-4.14
X2.9669Y-4.5626
X2.9681Y-3.8163
X2.9705Y-4.3557
X2.9705Y-4.3911
X2.9709Y-3.3829
X2.972Y-4.5122
X2.9724Y-4.2756
X2.9752Y-4.9059
X2.9752Y-4.9413
X2.9752Y-4.9713
X2.9752Y-5.0067
X2.9764Y-3.9738
X2.9803Y-4.5433
X2.9809Y-4.4226
X2.9823Y-4.2559
X2.9839Y-4.3272
X2.9917Y-3.8163
X2.9917Y-3.9581
X2.9941Y-4.2746
X2.9961Y-2.6575
X2.997Y-4.3557
X2.997Y-4.3911
X3.0061Y-4.0612
X3.0061Y-4.1006
X3.0061Y-4.14
X3.0075Y-3.9738
X3.0075Y-4.4953
X3.0083Y-4.9071
X3.0083Y-4.9425
X3.0197Y-2.4528
X3.0207Y-4.9886
X3.0232Y-3.8163
X3.0364Y-4.2303
X3.0433Y-3.9752
X3.0445Y-4.6476
X3.0453Y-4.7866
X3.0539Y-4.9346
X3.0547Y-4.8169
X3.0551Y-4.7441
X3.0552Y-3.2321
X3.0552Y-3.2644
X3.0669Y-4.3898
X3.0669Y-4.4134
X3.0669Y-4.437
X3.0671Y-3.9766
X3.0671Y-4.0022
X3.0817Y-4.9886
X3.0827Y-4.8571
X3.0839Y-4.8921
X3.0866Y-3.3825
X3.0882Y-4.6685
X3.0886Y-4.3898
X3.0886Y-4.4134
X3.0886Y-4.437
X3.0898Y-4.6941
X3.0937Y-4.7248
X3.0957Y-4.765
X3.1024Y-2.622
X3.1083Y-2.6496
X3.1083Y-4.0504
X3.1098Y-4.3898
X3.1098Y-4.4134
X3.1181Y-4.9134
X3.1189Y-4.1166
X3.1189Y-4.156
X3.1217Y-3.3829
X3.1295Y-3.8022
X3.1295Y-3.8258
X3.1295Y-3.8494
X3.1295Y-3.873
X3.1299Y-3.8976
X3.1327Y-3.9957
X3.1364Y-3.251
X3.1437Y-2.6496
X3.1567Y-4.0812
X3.1567Y-4.1166
X3.1567Y-4.156
X3.1752Y-2.6496
X3.1969Y-2.622
X3.2024Y-3.285
X3.2106Y-2.6496
X3.2106Y-3.9134
X3.2185Y-2.8425
X3.2185Y-3.4213
X3.2189Y-3.4449
X3.2244Y-3.3307
X3.2291Y-2.7803
X3.2323Y-3.8228
X3.2343Y-3.8563
X3.237Y-3.3829
X3.252Y-2.5394
X3.2559Y-3.8051
X3.2667Y-4.7982
X3.2677Y-4.7756
X3.2734Y-2.8514
X3.2734Y-3.1577
X3.2894Y-4.7756
X3.2902Y-4.1638
X3.2913Y-2.7677
X3.3102Y-4.726
X3.311Y-2.5374
X3.311Y-4.7756
X3.3307Y-3.9626
X3.3327Y-4.7756
X3.3346Y-4.8012
X3.3543Y-3.3169
X3.3543Y-3.3524
X3.3579Y-3.2858
X3.3661Y-4.7283
X3.3661Y-4.7549
X3.3661Y-4.7785
X3.3661Y-4.8012
X3.3701Y-2.5374
X3.3701Y-3.2047
X3.3701Y-3.2402
X3.3701Y-3.9469
X3.3748Y-3.9028
X3.3852Y-3.2862
X3.3878Y-4.6575
X3.3957Y-3.7969
X3.4055Y-3.8209
X3.4069Y-3.2862
X3.4157Y-4.0406
X3.4169Y-4.7142
X3.4224Y-3.1051
X3.4224Y-3.1406
X3.4276Y-3.1705
X3.4291Y-2.5374
X3.4299Y-4.6626
X3.4301Y-4.7362
X3.4319Y-3.7516
X3.4455Y-3.192
X3.4518Y-4.6772
X3.4518Y-4.7362
X3.4528Y-3.7638
X3.4539Y-3.2335
X3.4559Y-3.9768
X3.4608Y-3.2073
X3.4626Y-4.5937
X3.4626Y-4.626
X3.4709Y-3.8118
X3.4734Y-4.6772
X3.4764Y-4.4087
X3.4764Y-4.4378
X3.4827Y-3.9004
X3.4882Y-2.5374
X3.4882Y-2.8425
X3.4882Y-2.9134
X3.4882Y-2.9961
X3.4882Y-3.063
X3.4882Y-3.1339
X3.4894Y-4.0039
X3.4933Y-3.7681
X3.4945Y-4.3823
X3.4945Y-4.6598
X3.4969Y-3.1776
X3.4969Y-3.213
X3.5Y-3.8827
X3.5031Y-4.7154
X3.5079Y-2.878
X3.5079Y-2.9567
X3.5079Y-3.0315
X3.5079Y-3.0984
X3.5118Y-2.7697
X3.5118Y-2.8051
X3.5142Y-4.0689
X3.5157Y-3.437
X3.522Y-3.6236
X3.5252Y-3.8681
X3.5283Y-4.1142
X3.5295Y-4.0209
X3.5307Y-3.7687
X3.5307Y-3.9571
X3.5313Y-4.0514
X3.5378Y-3.4563
X3.5409Y-3.4799
X3.5453Y-2.9134
X3.5453Y-2.9547
X3.5453Y-2.9961
X3.5453Y-3.5031
X3.5472Y-2.5374
X3.5476Y-4.5512
X3.5551Y-4.7795
X3.5551Y-4.8012
X3.5571Y-4.7126
X3.5571Y-4.7441
X3.5598Y-4.1165
X3.561Y-3.6455
X3.561Y-3.7691
X3.5613Y-4.0837
X3.5618Y-3.4795
X3.5618Y-3.9571
X3.5622Y-3.863
X3.5622Y-4.0205
X3.5646Y-4.0504
X3.5661Y-4.1724
X3.5732Y-4.2953
X3.5744Y-3.5079
X3.5787Y-4.5118
X3.5827Y-4.7756
X3.5866Y-2.6201
X3.5866Y-4.8012
X3.5917Y-3.7693
X3.5917Y-3.9913
X3.5925Y-3.5169
X3.5925Y-3.6713
X3.5925Y-3.7014
X3.5925Y-3.7368
X3.5925Y-3.8317
X3.5925Y-3.8622
X3.5925Y-4.7126
X3.5925Y-4.7441
X3.5937Y-3.9248
X3.5937Y-4.0197
X3.594Y-4.0511
X3.5945Y-3.6435
X3.5949Y-3.9575
X3.5988Y-4.2728
X3.6024Y-4.3173
X3.6043Y-4.7756
X3.6063Y-2.6358
X3.6244Y-3.7681
X3.6244Y-3.9256
X3.6248Y-3.7992
X3.6252Y-4.0199
X3.6252Y-3.7384
X3.6252Y-3.8311
X3.6252Y-3.863
X3.6252Y-3.9882
X3.6252Y-4.0512
X3.6256Y-3.673
X3.6256Y-3.9563
X3.626Y-3.6982
X3.626Y-4.7756
X3.6268Y-3.6407
X3.6386Y-3.2331
X3.6429Y-3.476
X3.6476Y-2.6378
X3.6476Y-4.7756
X3.6496Y-4.2921
X3.6549Y-3.8628
X3.6549Y-3.9258
X3.6555Y-3.6055
X3.6555Y-3.6732
X3.6559Y-4.0213
X3.6562Y-4.0833
X3.6563Y-3.7996
X3.6563Y-4.0516
X3.6563Y-4.1146
X3.6567Y-3.7358
X3.6575Y-3.2161
X3.6575Y-3.9882
X3.6606Y-3.1535
X3.6626Y-4.3787
X3.6638Y-3.4756
X3.6657Y-2.9652
X3.6717Y-3.1114
X3.6752Y-2.8707
X3.6752Y-3.2
X3.676Y-2.8972
X3.678Y-2.9337
X3.6791Y-3.1669
X3.6811Y-2.7618
X3.6827Y-2.724
X3.6827Y-2.7921
X3.6831Y-2.6378
X3.6831Y-2.8228
X3.6839Y-3.4748
X3.6843Y-3.6098
X3.687Y-4.052
X3.6873Y-3.8003
X3.6877Y-3.8629
X3.6877Y-3.6739
X3.6878Y-3.737
X3.6878Y-3.9571
X3.6879Y-3.9887
X3.6886Y-3.9258
X3.689Y-4.0197
X3.6996Y-4.3787
X3.7016Y-4.7067
X3.702Y-3.622
X3.702Y-4.3039
X3.7039Y-3.474
X3.7142Y-3.1709
X3.7145Y-2.7601
X3.7146Y-3.0736
X3.715Y-3.013
X3.7153Y-3.044
X3.7154Y-2.7918
X3.7161Y-2.8224
X3.7161Y-3.1059
X3.7161Y-3.1394
X3.7181Y-3.7992
X3.7181Y-4.0516
X3.7187Y-3.9888
X3.7189Y-3.6083
X3.7189Y-3.6719
X3.7191Y-3.9258
X3.7192Y-3.8629
X3.7193Y-3.737
X3.7197Y-4.0205
X3.7201Y-3.5469
X3.7299Y-3.5075
X3.7319Y-3.4063
X3.737Y-4.3787
X3.7402Y-2.4528
X3.7456Y-2.8243
X3.7456Y-3.0743
X3.7457Y-2.9799
X3.7457Y-3.1394
X3.7461Y-2.8543
X3.7461Y-3.1051
X3.7464Y-3.0444
X3.7469Y-2.7598
X3.748Y-4.1693
X3.7496Y-3.5469
X3.7496Y-3.5803
X3.7502Y-3.9264
X3.7504Y-4.052
X3.7507Y-3.6739
X3.7508Y-4.0201
X3.751Y-3.9892
X3.7511Y-3.7995
X3.7515Y-3.8621
X3.7516Y-3.6098
X3.752Y-3.7355
X3.7594Y-3.5075
X3.7673Y-4.3
X3.7744Y-4.3787
X3.7744Y-4.7075
X3.7787Y-2.9795
X3.7791Y-3.0118
X3.7791Y-3.0429
X3.7806Y-3.6125
X3.781Y-3.579
X3.7819Y-3.7992
X3.7819Y-3.8622
X3.782Y-3.9261
X3.7822Y-3.6739
X3.7826Y-3.7365
X3.7827Y-4.0839
X3.7831Y-3.9897
X3.7835Y-4.0213
X3.7846Y-3.3547
X3.7849Y-2.7676
X3.7854Y-2.8575
X3.7862Y-4.2138
X3.811Y-3.9862
X3.8114Y-4.3787
X3.8133Y-3.6105
X3.8136Y-4.0518
X3.8137Y-3.9259
X3.8137Y-3.5782
X3.8138Y-3.674
X3.8138Y-3.737
X3.8138Y-3.7992
X3.8138Y-4.0835
X3.8143Y-3.8623
X3.8146Y-4.0185
X3.8343Y-3.5059
X3.8425Y-2.7087
X3.8425Y-3.4539
X3.8436Y-3.5471
X3.8445Y-3.9886
X3.8448Y-3.9263
X3.8452Y-3.6739
X3.8453Y-3.8
X3.8453Y-3.8638
X3.8453Y-4.0209
X3.8454Y-3.7367
X3.8457Y-4.0827
X3.8465Y-4.0531
X3.8484Y-4.3787
X3.8488Y-2.5197
X3.8496Y-4.5496
X3.8504Y-4.124
X3.8508Y-4.748
X3.856Y-3.5059
X3.8583Y-2.5945
X3.8594Y-4.2535
X3.8619Y-2.7781
X3.8626Y-2.7984
X3.8677Y-4.15
X3.8704Y-2.8577
X3.8756Y-2.9496
X3.8756Y-3.0126
X3.8761Y-3.9265
X3.8764Y-4.0516
X3.8767Y-3.6739
X3.8767Y-3.9889
X3.8767Y-3.6109
X3.8768Y-4.0201
X3.8771Y-3.5794
X3.8772Y-3.7363
X3.8774Y-3.8621
X3.8774Y-3.7991
X3.8787Y-4.0843
X3.8803Y-4.678
X3.8807Y-2.5398
X3.8819Y-4.6386
X3.8843Y-4.8105
X3.8914Y-3.5115
X3.8917Y-4.7484
X3.8957Y-2.6339
X3.8976Y-4.3583
X3.9004Y-4.5756
X3.902Y-3.0122
X3.9027Y-3.1384
X3.9035Y-3.0429
X3.9041Y-3.1069
X3.9042Y-2.7613
X3.9043Y-2.8551
X3.905Y-3.0762
X3.9059Y-4.4886
X3.9059Y-2.4291
X3.9067Y-3.737
X3.9071Y-4.6583
X3.9078Y-3.9263
X3.9081Y-3.8
X3.9081Y-3.6739
X3.9082Y-3.5469
X3.9083Y-3.8634
X3.9083Y-3.9886
X3.9091Y-3.5794
X3.9098Y-4.0535
X3.9122Y-4.7488
X3.9181Y-2.4059
X3.9193Y-4.378
X3.9311Y-2.6339
X3.9327Y-3.2583
X3.935Y-2.7602
X3.9354Y-2.7921
X3.9365Y-2.8227
X3.9377Y-3.5794
X3.9381Y-4.4886
X3.9382Y-4.1134
X3.9387Y-3.6749
X3.9391Y-3.9265
X3.9394Y-4.6583
X3.9398Y-3.7992
X3.9398Y-3.8618
X3.9406Y-4.0209
X3.9406Y-4.0843
X3.9406Y-3.9879
X3.9406Y-3.6099
X3.9508Y-4.3035
X3.9555Y-4.1346
X3.9574Y-3.5063
X3.9681Y-3.2654
X3.9685Y-2.7925
X3.9701Y-2.7606
X3.9702Y-3.8009
X3.9702Y-3.5784
X3.9706Y-3.6745
X3.9709Y-3.8631
X3.9713Y-3.9252
X3.9713Y-4.1114
X3.9714Y-3.7366
X3.9715Y-4.0207
X3.9717Y-2.8236
X3.972Y-2.8555
X3.972Y-3.9878
X3.972Y-4.0528
X3.9724Y-3.1362
X3.974Y-2.9028
X3.9764Y-2.9337
X3.9854Y-4.7528
X3.9858Y-4.7291
X3.9858Y-4.7752
X3.989Y-4.1268
X3.9894Y-3.1693
X3.9929Y-3.2031
X3.998Y-4.7114
X4.0022Y-3.9884
X4.0022Y-3.6743
X4.0027Y-3.6109
X4.003Y-4.0197
X4.003Y-4.0512
X4.0031Y-3.7996
X4.0031Y-3.8626
X4.0031Y-3.926
X4.0039Y-3.7374
X4.0039Y-3.9575
X4.0059Y-3.7677
X4.0071Y-3.1559
X4.0071Y-3.1857
X4.0074Y-3.0873
X4.0079Y-3.0531
X4.0083Y-4.1512
X4.0087Y-3.1256
X4.0087Y-3.2211
X4.0126Y-2.7606
X4.0126Y-2.807
X4.015Y-4.7295
X4.0169Y-3.2461
X4.0201Y-4.7752
X4.0205Y-4.7547
X4.0236Y-4.2941
X4.0283Y-2.4283
X4.0327Y-3.7711
X4.0327Y-3.7976
X4.0339Y-3.8311
X4.0339Y-3.8618
X4.0341Y-3.6738
X4.0343Y-3.7049
X4.0343Y-3.9575
X4.0343Y-4.0205
X4.0346Y-3.9256
X4.0354Y-3.6417
X4.0366Y-4.7295
X4.0433Y-2.7047
X4.0433Y-2.7402
X4.0441Y-2.4055
X4.046Y-2.7692
X4.0465Y-2.8068
X4.0472Y-2.9673
X4.0512Y-4.7736
X4.0516Y-4.711
X4.0567Y-4.2063
X4.0583Y-4.2539
X4.0591Y-4.2933
X4.0634Y-3.7356
X4.065Y-3.7691
X4.065Y-3.8303
X4.065Y-3.863
X4.0657Y-3.611
X4.0657Y-3.6425
X4.0657Y-3.8012
X4.0657Y-4.0197
X4.0657Y-4.0827
X4.0658Y-3.6737
X4.0661Y-4.0524
X4.0961Y-3.9559
X4.0961Y-4.0528
X4.0961Y-4.0835
X4.0965Y-3.6746
X4.0965Y-3.7992
X4.0965Y-3.8327
X4.0965Y-4.0193
X4.0969Y-3.7691
X4.0972Y-3.611
X4.0972Y-3.989
X4.1051Y-4.2059
X4.111Y-4.5846
X4.1122Y-3.0862
X4.1142Y-3.0118
X4.1154Y-4.5142
X4.1154Y-4.7291
X4.1154Y-4.7626
X4.1283Y-3.6094
X4.1295Y-3.7675
X4.1303Y-3.5217
X4.1311Y-3.6675
X4.1362Y-4.8105
X4.1372Y-3.8805
X4.1476Y-4.5142
X4.1484Y-3.9728
X4.15Y-4.2516
X4.1508Y-3.8638
X4.1508Y-4.7291
X4.1508Y-4.7614
X4.152Y-2.4343
X4.1524Y-2.5323
X4.1539Y-3.9004
X4.1594Y-2.8031
X4.1594Y-2.8819
X4.1595Y-4.2906
X4.1598Y-4.2114
X4.1614Y-2.8425
X4.1614Y-2.9213
X4.1614Y-3.9256
X4.1634Y-3.813
X4.1638Y-3.8476
X4.1689Y-2.4055
X4.1717Y-3.9657
X4.1728Y-4.0008
X4.1728Y-4.0331
X4.189Y-3.0157
X4.189Y-3.0551
X4.189Y-3.1457
X4.1906Y-4.4657
X4.2008Y-2.9508
X4.2008Y-2.9862
X4.2008Y-3.1988
X4.2008Y-3.2343
X4.2075Y-3.6902
X4.2165Y-4.7205
X4.2177Y-3.7189
X4.2232Y-4.0579
X4.2252Y-3.5953
X4.2252Y-3.9646
X4.2256Y-3.8185
X4.2346Y-3.9177
X4.2357Y-4.5122
X4.2374Y-4.1709
X4.2657Y-3.685
X4.2697Y-3.7185
X4.2728Y-4.6894
X4.2799Y-4.8146
X4.2815Y-4.652
X4.2839Y-4.5531
X4.2866Y-3.9909
X4.2866Y-4.0201
X4.287Y-3.9587
X4.287Y-4.3913
X4.287Y-4.4446
X4.2965Y-4.2543
X4.2965Y-4.2819
X4.2972Y-3.7598
X4.2984Y-3.7906
X4.3039Y-4.1724
T2
X2.4171Y-3.4955
X2.4405Y-3.4391
X2.4405Y-3.5518
X2.4969Y-3.4157
X2.4969Y-3.5752
X2.5532Y-3.4391
X2.5532Y-3.5518
X2.5766Y-3.4955
T4
X2.4969Y-3.4955
T3
G00X3.2394Y-4.8429
M15
G01X3.2394Y-4.8744
M16
G05
G00X3.2394Y-4.9925
M15
G01X3.2394Y-5.0398
M16
G05
G00X3.6819Y-4.8429
M15
G01X3.6819Y-4.8744
M16
G05
G00X3.6819Y-4.9925
M15
G01X3.6819Y-5.0398
M16
G05
G00X3.789Y-4.842
M15
G01X3.789Y-4.8735
M16
G05
G00X3.789Y-4.9916
M15
G01X3.789Y-5.0389
M16
G05
G00X4.2315Y-4.842
M15
G01X4.2315Y-4.8735
M16
G05
G00X4.2315Y-4.9916
M15
G01X4.2315Y-5.0389
M16
G05
M30
