%TF.GenerationSoftware,KiCad,Pcbnew,9.0.7*%
%TF.CreationDate,2026-01-26T18:53:02-07:00*%
%TF.ProjectId,MPU_MOD,4d50555f-4d4f-4442-9e6b-696361645f70,rev?*%
%TF.SameCoordinates,Original*%
%TF.FileFunction,Soldermask,Top*%
%TF.FilePolarity,Negative*%
%FSLAX46Y46*%
G04 Gerber Fmt 4.6, Leading zero omitted, Abs format (unit mm)*
G04 Created by KiCad (PCBNEW 9.0.7) date 2026-01-26 18:53:02*
%MOMM*%
%LPD*%
G01*
G04 APERTURE LIST*
G04 Aperture macros list*
%AMRoundRect*
0 Rectangle with rounded corners*
0 $1 Rounding radius*
0 $2 $3 $4 $5 $6 $7 $8 $9 X,Y pos of 4 corners*
0 Add a 4 corners polygon primitive as box body*
4,1,4,$2,$3,$4,$5,$6,$7,$8,$9,$2,$3,0*
0 Add four circle primitives for the rounded corners*
1,1,$1+$1,$2,$3*
1,1,$1+$1,$4,$5*
1,1,$1+$1,$6,$7*
1,1,$1+$1,$8,$9*
0 Add four rect primitives between the rounded corners*
20,1,$1+$1,$2,$3,$4,$5,0*
20,1,$1+$1,$4,$5,$6,$7,0*
20,1,$1+$1,$6,$7,$8,$9,0*
20,1,$1+$1,$8,$9,$2,$3,0*%
G04 Aperture macros list end*
%ADD10C,0.561000*%
%ADD11C,0.010000*%
%ADD12C,0.000000*%
%ADD13RoundRect,0.102000X-0.700000X0.700000X-0.700000X-0.700000X0.700000X-0.700000X0.700000X0.700000X0*%
%ADD14R,0.560000X0.510000*%
%ADD15RoundRect,0.225000X0.250000X-0.225000X0.250000X0.225000X-0.250000X0.225000X-0.250000X-0.225000X0*%
%ADD16R,0.510000X0.560000*%
%ADD17RoundRect,0.225000X-0.225000X-0.250000X0.225000X-0.250000X0.225000X0.250000X-0.225000X0.250000X0*%
%ADD18C,1.020000*%
%ADD19R,0.600000X0.900000*%
%ADD20R,0.300000X0.900000*%
%ADD21RoundRect,0.135000X-0.135000X-0.185000X0.135000X-0.185000X0.135000X0.185000X-0.135000X0.185000X0*%
%ADD22RoundRect,0.135000X0.135000X0.185000X-0.135000X0.185000X-0.135000X-0.185000X0.135000X-0.185000X0*%
%ADD23RoundRect,0.135000X0.185000X-0.135000X0.185000X0.135000X-0.185000X0.135000X-0.185000X-0.135000X0*%
%ADD24RoundRect,0.102000X-0.500000X-0.625000X0.500000X-0.625000X0.500000X0.625000X-0.500000X0.625000X0*%
%ADD25C,0.420000*%
%ADD26RoundRect,0.100000X0.155000X0.100000X-0.155000X0.100000X-0.155000X-0.100000X0.155000X-0.100000X0*%
%ADD27RoundRect,0.135000X-0.185000X0.135000X-0.185000X-0.135000X0.185000X-0.135000X0.185000X0.135000X0*%
%ADD28RoundRect,0.112500X-0.187500X-0.112500X0.187500X-0.112500X0.187500X0.112500X-0.187500X0.112500X0*%
%ADD29RoundRect,0.102000X0.300000X-0.300000X0.300000X0.300000X-0.300000X0.300000X-0.300000X-0.300000X0*%
%ADD30RoundRect,0.147500X0.147500X0.172500X-0.147500X0.172500X-0.147500X-0.172500X0.147500X-0.172500X0*%
%ADD31RoundRect,0.250000X-0.850000X0.375000X-0.850000X-0.375000X0.850000X-0.375000X0.850000X0.375000X0*%
%ADD32C,0.800000*%
%ADD33C,5.400000*%
%ADD34RoundRect,0.028750X-0.086250X0.391250X-0.086250X-0.391250X0.086250X-0.391250X0.086250X0.391250X0*%
%ADD35RoundRect,0.028750X-0.391250X0.086250X-0.391250X-0.086250X0.391250X-0.086250X0.391250X0.086250X0*%
%ADD36R,4.500000X3.500000*%
%ADD37RoundRect,0.250000X0.850000X-0.375000X0.850000X0.375000X-0.850000X0.375000X-0.850000X-0.375000X0*%
%ADD38RoundRect,0.225000X0.225000X0.250000X-0.225000X0.250000X-0.225000X-0.250000X0.225000X-0.250000X0*%
%ADD39RoundRect,0.250000X-0.375000X-0.850000X0.375000X-0.850000X0.375000X0.850000X-0.375000X0.850000X0*%
%ADD40RoundRect,0.102000X-1.100000X0.575000X-1.100000X-0.575000X1.100000X-0.575000X1.100000X0.575000X0*%
%ADD41RoundRect,0.102000X-0.600000X0.575000X-0.600000X-0.575000X0.600000X-0.575000X0.600000X0.575000X0*%
%ADD42RoundRect,0.102000X-0.575000X0.750000X-0.575000X-0.750000X0.575000X-0.750000X0.575000X0.750000X0*%
%ADD43RoundRect,0.102000X-1.250000X0.575000X-1.250000X-0.575000X1.250000X-0.575000X1.250000X0.575000X0*%
%ADD44RoundRect,0.102000X-0.620000X0.400000X-0.620000X-0.400000X0.620000X-0.400000X0.620000X0.400000X0*%
%ADD45RoundRect,0.102000X-0.625000X0.575000X-0.625000X-0.575000X0.625000X-0.575000X0.625000X0.575000X0*%
%ADD46RoundRect,0.059250X-0.472750X-0.177750X0.472750X-0.177750X0.472750X0.177750X-0.472750X0.177750X0*%
%ADD47RoundRect,0.225000X-0.250000X0.225000X-0.250000X-0.225000X0.250000X-0.225000X0.250000X0.225000X0*%
%ADD48RoundRect,0.102000X0.910000X-0.600000X0.910000X0.600000X-0.910000X0.600000X-0.910000X-0.600000X0*%
%ADD49RoundRect,0.250000X-1.075000X0.375000X-1.075000X-0.375000X1.075000X-0.375000X1.075000X0.375000X0*%
%ADD50RoundRect,0.218750X0.218750X0.256250X-0.218750X0.256250X-0.218750X-0.256250X0.218750X-0.256250X0*%
%ADD51RoundRect,0.200000X0.250000X-0.200000X0.250000X0.200000X-0.250000X0.200000X-0.250000X-0.200000X0*%
%ADD52RoundRect,0.147500X-0.147500X-0.172500X0.147500X-0.172500X0.147500X0.172500X-0.147500X0.172500X0*%
%ADD53RoundRect,0.050000X0.150000X0.650000X-0.150000X0.650000X-0.150000X-0.650000X0.150000X-0.650000X0*%
%ADD54RoundRect,0.102000X0.900000X1.100000X-0.900000X1.100000X-0.900000X-1.100000X0.900000X-1.100000X0*%
%ADD55R,0.350000X0.850000*%
%ADD56RoundRect,0.135000X0.226274X0.035355X0.035355X0.226274X-0.226274X-0.035355X-0.035355X-0.226274X0*%
%ADD57C,0.650000*%
%ADD58RoundRect,0.102000X0.850000X-0.400000X0.850000X0.400000X-0.850000X0.400000X-0.850000X-0.400000X0*%
%ADD59C,0.520000*%
%ADD60RoundRect,0.147500X-0.172500X0.147500X-0.172500X-0.147500X0.172500X-0.147500X0.172500X0.147500X0*%
%ADD61RoundRect,0.102000X-0.850000X0.400000X-0.850000X-0.400000X0.850000X-0.400000X0.850000X0.400000X0*%
%ADD62RoundRect,0.050000X-0.200000X-0.700000X0.200000X-0.700000X0.200000X0.700000X-0.200000X0.700000X0*%
%ADD63RoundRect,0.050000X-0.100000X-0.250000X0.100000X-0.250000X0.100000X0.250000X-0.100000X0.250000X0*%
%ADD64RoundRect,0.100000X0.100000X-0.155000X0.100000X0.155000X-0.100000X0.155000X-0.100000X-0.155000X0*%
%ADD65RoundRect,0.050000X0.150000X0.300000X-0.150000X0.300000X-0.150000X-0.300000X0.150000X-0.300000X0*%
%ADD66RoundRect,0.050000X-0.300000X0.150000X-0.300000X-0.150000X0.300000X-0.150000X0.300000X0.150000X0*%
G04 APERTURE END LIST*
%TO.C,J701*%
D10*
X104770500Y-111455000D02*
G75*
G02*
X104209500Y-111455000I-280500J0D01*
G01*
X104209500Y-111455000D02*
G75*
G02*
X104770500Y-111455000I280500J0D01*
G01*
X104770500Y-117805000D02*
G75*
G02*
X104209500Y-117805000I-280500J0D01*
G01*
X104209500Y-117805000D02*
G75*
G02*
X104770500Y-117805000I280500J0D01*
G01*
D11*
%TO.C,J1101*%
X82311000Y-122411000D02*
X82343000Y-122413000D01*
X82374000Y-122417000D01*
X82405000Y-122423000D01*
X82435000Y-122430000D01*
X82465000Y-122439000D01*
X82495000Y-122450000D01*
X82524000Y-122462000D01*
X82552000Y-122475000D01*
X82580000Y-122490000D01*
X82607000Y-122507000D01*
X82633000Y-122525000D01*
X82658000Y-122544000D01*
X82681000Y-122564000D01*
X82704000Y-122586000D01*
X82726000Y-122609000D01*
X82746000Y-122632000D01*
X82765000Y-122657000D01*
X82783000Y-122683000D01*
X82800000Y-122710000D01*
X82815000Y-122738000D01*
X82828000Y-122766000D01*
X82840000Y-122795000D01*
X82851000Y-122825000D01*
X82860000Y-122855000D01*
X82867000Y-122885000D01*
X82873000Y-122916000D01*
X82877000Y-122947000D01*
X82879000Y-122979000D01*
X82880000Y-123010000D01*
X82880000Y-123810000D01*
X82879000Y-123841000D01*
X82877000Y-123873000D01*
X82873000Y-123904000D01*
X82867000Y-123935000D01*
X82860000Y-123965000D01*
X82851000Y-123995000D01*
X82840000Y-124025000D01*
X82828000Y-124054000D01*
X82815000Y-124082000D01*
X82800000Y-124110000D01*
X82783000Y-124137000D01*
X82765000Y-124163000D01*
X82746000Y-124188000D01*
X82726000Y-124211000D01*
X82704000Y-124234000D01*
X82681000Y-124256000D01*
X82658000Y-124276000D01*
X82633000Y-124295000D01*
X82607000Y-124313000D01*
X82580000Y-124330000D01*
X82552000Y-124345000D01*
X82524000Y-124358000D01*
X82495000Y-124370000D01*
X82465000Y-124381000D01*
X82435000Y-124390000D01*
X82405000Y-124397000D01*
X82374000Y-124403000D01*
X82343000Y-124407000D01*
X82311000Y-124409000D01*
X82280000Y-124410000D01*
X82249000Y-124409000D01*
X82217000Y-124407000D01*
X82186000Y-124403000D01*
X82155000Y-124397000D01*
X82125000Y-124390000D01*
X82095000Y-124381000D01*
X82065000Y-124370000D01*
X82036000Y-124358000D01*
X82008000Y-124345000D01*
X81980000Y-124330000D01*
X81953000Y-124313000D01*
X81927000Y-124295000D01*
X81902000Y-124276000D01*
X81879000Y-124256000D01*
X81856000Y-124234000D01*
X81834000Y-124211000D01*
X81814000Y-124188000D01*
X81795000Y-124163000D01*
X81777000Y-124137000D01*
X81760000Y-124110000D01*
X81745000Y-124082000D01*
X81732000Y-124054000D01*
X81720000Y-124025000D01*
X81709000Y-123995000D01*
X81700000Y-123965000D01*
X81693000Y-123935000D01*
X81687000Y-123904000D01*
X81683000Y-123873000D01*
X81681000Y-123841000D01*
X81680000Y-123810000D01*
X81680000Y-123010000D01*
X81681000Y-122979000D01*
X81683000Y-122947000D01*
X81687000Y-122916000D01*
X81693000Y-122885000D01*
X81700000Y-122855000D01*
X81709000Y-122825000D01*
X81720000Y-122795000D01*
X81732000Y-122766000D01*
X81745000Y-122738000D01*
X81760000Y-122710000D01*
X81777000Y-122683000D01*
X81795000Y-122657000D01*
X81814000Y-122632000D01*
X81834000Y-122609000D01*
X81856000Y-122586000D01*
X81879000Y-122564000D01*
X81902000Y-122544000D01*
X81927000Y-122525000D01*
X81953000Y-122507000D01*
X81980000Y-122490000D01*
X82008000Y-122475000D01*
X82036000Y-122462000D01*
X82065000Y-122450000D01*
X82095000Y-122439000D01*
X82125000Y-122430000D01*
X82155000Y-122423000D01*
X82186000Y-122417000D01*
X82217000Y-122413000D01*
X82249000Y-122411000D01*
X82280000Y-122410000D01*
X82311000Y-122411000D01*
G36*
X82311000Y-122411000D02*
G01*
X82343000Y-122413000D01*
X82374000Y-122417000D01*
X82405000Y-122423000D01*
X82435000Y-122430000D01*
X82465000Y-122439000D01*
X82495000Y-122450000D01*
X82524000Y-122462000D01*
X82552000Y-122475000D01*
X82580000Y-122490000D01*
X82607000Y-122507000D01*
X82633000Y-122525000D01*
X82658000Y-122544000D01*
X82681000Y-122564000D01*
X82704000Y-122586000D01*
X82726000Y-122609000D01*
X82746000Y-122632000D01*
X82765000Y-122657000D01*
X82783000Y-122683000D01*
X82800000Y-122710000D01*
X82815000Y-122738000D01*
X82828000Y-122766000D01*
X82840000Y-122795000D01*
X82851000Y-122825000D01*
X82860000Y-122855000D01*
X82867000Y-122885000D01*
X82873000Y-122916000D01*
X82877000Y-122947000D01*
X82879000Y-122979000D01*
X82880000Y-123010000D01*
X82880000Y-123810000D01*
X82879000Y-123841000D01*
X82877000Y-123873000D01*
X82873000Y-123904000D01*
X82867000Y-123935000D01*
X82860000Y-123965000D01*
X82851000Y-123995000D01*
X82840000Y-124025000D01*
X82828000Y-124054000D01*
X82815000Y-124082000D01*
X82800000Y-124110000D01*
X82783000Y-124137000D01*
X82765000Y-124163000D01*
X82746000Y-124188000D01*
X82726000Y-124211000D01*
X82704000Y-124234000D01*
X82681000Y-124256000D01*
X82658000Y-124276000D01*
X82633000Y-124295000D01*
X82607000Y-124313000D01*
X82580000Y-124330000D01*
X82552000Y-124345000D01*
X82524000Y-124358000D01*
X82495000Y-124370000D01*
X82465000Y-124381000D01*
X82435000Y-124390000D01*
X82405000Y-124397000D01*
X82374000Y-124403000D01*
X82343000Y-124407000D01*
X82311000Y-124409000D01*
X82280000Y-124410000D01*
X82249000Y-124409000D01*
X82217000Y-124407000D01*
X82186000Y-124403000D01*
X82155000Y-124397000D01*
X82125000Y-124390000D01*
X82095000Y-124381000D01*
X82065000Y-124370000D01*
X82036000Y-124358000D01*
X82008000Y-124345000D01*
X81980000Y-124330000D01*
X81953000Y-124313000D01*
X81927000Y-124295000D01*
X81902000Y-124276000D01*
X81879000Y-124256000D01*
X81856000Y-124234000D01*
X81834000Y-124211000D01*
X81814000Y-124188000D01*
X81795000Y-124163000D01*
X81777000Y-124137000D01*
X81760000Y-124110000D01*
X81745000Y-124082000D01*
X81732000Y-124054000D01*
X81720000Y-124025000D01*
X81709000Y-123995000D01*
X81700000Y-123965000D01*
X81693000Y-123935000D01*
X81687000Y-123904000D01*
X81683000Y-123873000D01*
X81681000Y-123841000D01*
X81680000Y-123810000D01*
X81680000Y-123010000D01*
X81681000Y-122979000D01*
X81683000Y-122947000D01*
X81687000Y-122916000D01*
X81693000Y-122885000D01*
X81700000Y-122855000D01*
X81709000Y-122825000D01*
X81720000Y-122795000D01*
X81732000Y-122766000D01*
X81745000Y-122738000D01*
X81760000Y-122710000D01*
X81777000Y-122683000D01*
X81795000Y-122657000D01*
X81814000Y-122632000D01*
X81834000Y-122609000D01*
X81856000Y-122586000D01*
X81879000Y-122564000D01*
X81902000Y-122544000D01*
X81927000Y-122525000D01*
X81953000Y-122507000D01*
X81980000Y-122490000D01*
X82008000Y-122475000D01*
X82036000Y-122462000D01*
X82065000Y-122450000D01*
X82095000Y-122439000D01*
X82125000Y-122430000D01*
X82155000Y-122423000D01*
X82186000Y-122417000D01*
X82217000Y-122413000D01*
X82249000Y-122411000D01*
X82280000Y-122410000D01*
X82311000Y-122411000D01*
G37*
X82311000Y-126211000D02*
X82343000Y-126213000D01*
X82374000Y-126217000D01*
X82405000Y-126223000D01*
X82435000Y-126230000D01*
X82465000Y-126239000D01*
X82495000Y-126250000D01*
X82524000Y-126262000D01*
X82552000Y-126275000D01*
X82580000Y-126290000D01*
X82607000Y-126307000D01*
X82633000Y-126325000D01*
X82658000Y-126344000D01*
X82681000Y-126364000D01*
X82704000Y-126386000D01*
X82726000Y-126409000D01*
X82746000Y-126432000D01*
X82765000Y-126457000D01*
X82783000Y-126483000D01*
X82800000Y-126510000D01*
X82815000Y-126538000D01*
X82828000Y-126566000D01*
X82840000Y-126595000D01*
X82851000Y-126625000D01*
X82860000Y-126655000D01*
X82867000Y-126685000D01*
X82873000Y-126716000D01*
X82877000Y-126747000D01*
X82879000Y-126779000D01*
X82880000Y-126810000D01*
X82880000Y-128010000D01*
X82879000Y-128041000D01*
X82877000Y-128073000D01*
X82873000Y-128104000D01*
X82867000Y-128135000D01*
X82860000Y-128165000D01*
X82851000Y-128195000D01*
X82840000Y-128225000D01*
X82828000Y-128254000D01*
X82815000Y-128282000D01*
X82800000Y-128310000D01*
X82783000Y-128337000D01*
X82765000Y-128363000D01*
X82746000Y-128388000D01*
X82726000Y-128411000D01*
X82704000Y-128434000D01*
X82681000Y-128456000D01*
X82658000Y-128476000D01*
X82633000Y-128495000D01*
X82607000Y-128513000D01*
X82580000Y-128530000D01*
X82552000Y-128545000D01*
X82524000Y-128558000D01*
X82495000Y-128570000D01*
X82465000Y-128581000D01*
X82435000Y-128590000D01*
X82405000Y-128597000D01*
X82374000Y-128603000D01*
X82343000Y-128607000D01*
X82311000Y-128609000D01*
X82280000Y-128610000D01*
X82249000Y-128609000D01*
X82217000Y-128607000D01*
X82186000Y-128603000D01*
X82155000Y-128597000D01*
X82125000Y-128590000D01*
X82095000Y-128581000D01*
X82065000Y-128570000D01*
X82036000Y-128558000D01*
X82008000Y-128545000D01*
X81980000Y-128530000D01*
X81953000Y-128513000D01*
X81927000Y-128495000D01*
X81902000Y-128476000D01*
X81879000Y-128456000D01*
X81856000Y-128434000D01*
X81834000Y-128411000D01*
X81814000Y-128388000D01*
X81795000Y-128363000D01*
X81777000Y-128337000D01*
X81760000Y-128310000D01*
X81745000Y-128282000D01*
X81732000Y-128254000D01*
X81720000Y-128225000D01*
X81709000Y-128195000D01*
X81700000Y-128165000D01*
X81693000Y-128135000D01*
X81687000Y-128104000D01*
X81683000Y-128073000D01*
X81681000Y-128041000D01*
X81680000Y-128010000D01*
X81680000Y-126810000D01*
X81681000Y-126779000D01*
X81683000Y-126747000D01*
X81687000Y-126716000D01*
X81693000Y-126685000D01*
X81700000Y-126655000D01*
X81709000Y-126625000D01*
X81720000Y-126595000D01*
X81732000Y-126566000D01*
X81745000Y-126538000D01*
X81760000Y-126510000D01*
X81777000Y-126483000D01*
X81795000Y-126457000D01*
X81814000Y-126432000D01*
X81834000Y-126409000D01*
X81856000Y-126386000D01*
X81879000Y-126364000D01*
X81902000Y-126344000D01*
X81927000Y-126325000D01*
X81953000Y-126307000D01*
X81980000Y-126290000D01*
X82008000Y-126275000D01*
X82036000Y-126262000D01*
X82065000Y-126250000D01*
X82095000Y-126239000D01*
X82125000Y-126230000D01*
X82155000Y-126223000D01*
X82186000Y-126217000D01*
X82217000Y-126213000D01*
X82249000Y-126211000D01*
X82280000Y-126210000D01*
X82311000Y-126211000D01*
G36*
X82311000Y-126211000D02*
G01*
X82343000Y-126213000D01*
X82374000Y-126217000D01*
X82405000Y-126223000D01*
X82435000Y-126230000D01*
X82465000Y-126239000D01*
X82495000Y-126250000D01*
X82524000Y-126262000D01*
X82552000Y-126275000D01*
X82580000Y-126290000D01*
X82607000Y-126307000D01*
X82633000Y-126325000D01*
X82658000Y-126344000D01*
X82681000Y-126364000D01*
X82704000Y-126386000D01*
X82726000Y-126409000D01*
X82746000Y-126432000D01*
X82765000Y-126457000D01*
X82783000Y-126483000D01*
X82800000Y-126510000D01*
X82815000Y-126538000D01*
X82828000Y-126566000D01*
X82840000Y-126595000D01*
X82851000Y-126625000D01*
X82860000Y-126655000D01*
X82867000Y-126685000D01*
X82873000Y-126716000D01*
X82877000Y-126747000D01*
X82879000Y-126779000D01*
X82880000Y-126810000D01*
X82880000Y-128010000D01*
X82879000Y-128041000D01*
X82877000Y-128073000D01*
X82873000Y-128104000D01*
X82867000Y-128135000D01*
X82860000Y-128165000D01*
X82851000Y-128195000D01*
X82840000Y-128225000D01*
X82828000Y-128254000D01*
X82815000Y-128282000D01*
X82800000Y-128310000D01*
X82783000Y-128337000D01*
X82765000Y-128363000D01*
X82746000Y-128388000D01*
X82726000Y-128411000D01*
X82704000Y-128434000D01*
X82681000Y-128456000D01*
X82658000Y-128476000D01*
X82633000Y-128495000D01*
X82607000Y-128513000D01*
X82580000Y-128530000D01*
X82552000Y-128545000D01*
X82524000Y-128558000D01*
X82495000Y-128570000D01*
X82465000Y-128581000D01*
X82435000Y-128590000D01*
X82405000Y-128597000D01*
X82374000Y-128603000D01*
X82343000Y-128607000D01*
X82311000Y-128609000D01*
X82280000Y-128610000D01*
X82249000Y-128609000D01*
X82217000Y-128607000D01*
X82186000Y-128603000D01*
X82155000Y-128597000D01*
X82125000Y-128590000D01*
X82095000Y-128581000D01*
X82065000Y-128570000D01*
X82036000Y-128558000D01*
X82008000Y-128545000D01*
X81980000Y-128530000D01*
X81953000Y-128513000D01*
X81927000Y-128495000D01*
X81902000Y-128476000D01*
X81879000Y-128456000D01*
X81856000Y-128434000D01*
X81834000Y-128411000D01*
X81814000Y-128388000D01*
X81795000Y-128363000D01*
X81777000Y-128337000D01*
X81760000Y-128310000D01*
X81745000Y-128282000D01*
X81732000Y-128254000D01*
X81720000Y-128225000D01*
X81709000Y-128195000D01*
X81700000Y-128165000D01*
X81693000Y-128135000D01*
X81687000Y-128104000D01*
X81683000Y-128073000D01*
X81681000Y-128041000D01*
X81680000Y-128010000D01*
X81680000Y-126810000D01*
X81681000Y-126779000D01*
X81683000Y-126747000D01*
X81687000Y-126716000D01*
X81693000Y-126685000D01*
X81700000Y-126655000D01*
X81709000Y-126625000D01*
X81720000Y-126595000D01*
X81732000Y-126566000D01*
X81745000Y-126538000D01*
X81760000Y-126510000D01*
X81777000Y-126483000D01*
X81795000Y-126457000D01*
X81814000Y-126432000D01*
X81834000Y-126409000D01*
X81856000Y-126386000D01*
X81879000Y-126364000D01*
X81902000Y-126344000D01*
X81927000Y-126325000D01*
X81953000Y-126307000D01*
X81980000Y-126290000D01*
X82008000Y-126275000D01*
X82036000Y-126262000D01*
X82065000Y-126250000D01*
X82095000Y-126239000D01*
X82125000Y-126230000D01*
X82155000Y-126223000D01*
X82186000Y-126217000D01*
X82217000Y-126213000D01*
X82249000Y-126211000D01*
X82280000Y-126210000D01*
X82311000Y-126211000D01*
G37*
X93551000Y-122411000D02*
X93583000Y-122413000D01*
X93614000Y-122417000D01*
X93645000Y-122423000D01*
X93675000Y-122430000D01*
X93705000Y-122439000D01*
X93735000Y-122450000D01*
X93764000Y-122462000D01*
X93792000Y-122475000D01*
X93820000Y-122490000D01*
X93847000Y-122507000D01*
X93873000Y-122525000D01*
X93898000Y-122544000D01*
X93921000Y-122564000D01*
X93944000Y-122586000D01*
X93966000Y-122609000D01*
X93986000Y-122632000D01*
X94005000Y-122657000D01*
X94023000Y-122683000D01*
X94040000Y-122710000D01*
X94055000Y-122738000D01*
X94068000Y-122766000D01*
X94080000Y-122795000D01*
X94091000Y-122825000D01*
X94100000Y-122855000D01*
X94107000Y-122885000D01*
X94113000Y-122916000D01*
X94117000Y-122947000D01*
X94119000Y-122979000D01*
X94120000Y-123010000D01*
X94120000Y-123810000D01*
X94119000Y-123841000D01*
X94117000Y-123873000D01*
X94113000Y-123904000D01*
X94107000Y-123935000D01*
X94100000Y-123965000D01*
X94091000Y-123995000D01*
X94080000Y-124025000D01*
X94068000Y-124054000D01*
X94055000Y-124082000D01*
X94040000Y-124110000D01*
X94023000Y-124137000D01*
X94005000Y-124163000D01*
X93986000Y-124188000D01*
X93966000Y-124211000D01*
X93944000Y-124234000D01*
X93921000Y-124256000D01*
X93898000Y-124276000D01*
X93873000Y-124295000D01*
X93847000Y-124313000D01*
X93820000Y-124330000D01*
X93792000Y-124345000D01*
X93764000Y-124358000D01*
X93735000Y-124370000D01*
X93705000Y-124381000D01*
X93675000Y-124390000D01*
X93645000Y-124397000D01*
X93614000Y-124403000D01*
X93583000Y-124407000D01*
X93551000Y-124409000D01*
X93520000Y-124410000D01*
X93489000Y-124409000D01*
X93457000Y-124407000D01*
X93426000Y-124403000D01*
X93395000Y-124397000D01*
X93365000Y-124390000D01*
X93335000Y-124381000D01*
X93305000Y-124370000D01*
X93276000Y-124358000D01*
X93248000Y-124345000D01*
X93220000Y-124330000D01*
X93193000Y-124313000D01*
X93167000Y-124295000D01*
X93142000Y-124276000D01*
X93119000Y-124256000D01*
X93096000Y-124234000D01*
X93074000Y-124211000D01*
X93054000Y-124188000D01*
X93035000Y-124163000D01*
X93017000Y-124137000D01*
X93000000Y-124110000D01*
X92985000Y-124082000D01*
X92972000Y-124054000D01*
X92960000Y-124025000D01*
X92949000Y-123995000D01*
X92940000Y-123965000D01*
X92933000Y-123935000D01*
X92927000Y-123904000D01*
X92923000Y-123873000D01*
X92921000Y-123841000D01*
X92920000Y-123810000D01*
X92920000Y-123010000D01*
X92921000Y-122979000D01*
X92923000Y-122947000D01*
X92927000Y-122916000D01*
X92933000Y-122885000D01*
X92940000Y-122855000D01*
X92949000Y-122825000D01*
X92960000Y-122795000D01*
X92972000Y-122766000D01*
X92985000Y-122738000D01*
X93000000Y-122710000D01*
X93017000Y-122683000D01*
X93035000Y-122657000D01*
X93054000Y-122632000D01*
X93074000Y-122609000D01*
X93096000Y-122586000D01*
X93119000Y-122564000D01*
X93142000Y-122544000D01*
X93167000Y-122525000D01*
X93193000Y-122507000D01*
X93220000Y-122490000D01*
X93248000Y-122475000D01*
X93276000Y-122462000D01*
X93305000Y-122450000D01*
X93335000Y-122439000D01*
X93365000Y-122430000D01*
X93395000Y-122423000D01*
X93426000Y-122417000D01*
X93457000Y-122413000D01*
X93489000Y-122411000D01*
X93520000Y-122410000D01*
X93551000Y-122411000D01*
G36*
X93551000Y-122411000D02*
G01*
X93583000Y-122413000D01*
X93614000Y-122417000D01*
X93645000Y-122423000D01*
X93675000Y-122430000D01*
X93705000Y-122439000D01*
X93735000Y-122450000D01*
X93764000Y-122462000D01*
X93792000Y-122475000D01*
X93820000Y-122490000D01*
X93847000Y-122507000D01*
X93873000Y-122525000D01*
X93898000Y-122544000D01*
X93921000Y-122564000D01*
X93944000Y-122586000D01*
X93966000Y-122609000D01*
X93986000Y-122632000D01*
X94005000Y-122657000D01*
X94023000Y-122683000D01*
X94040000Y-122710000D01*
X94055000Y-122738000D01*
X94068000Y-122766000D01*
X94080000Y-122795000D01*
X94091000Y-122825000D01*
X94100000Y-122855000D01*
X94107000Y-122885000D01*
X94113000Y-122916000D01*
X94117000Y-122947000D01*
X94119000Y-122979000D01*
X94120000Y-123010000D01*
X94120000Y-123810000D01*
X94119000Y-123841000D01*
X94117000Y-123873000D01*
X94113000Y-123904000D01*
X94107000Y-123935000D01*
X94100000Y-123965000D01*
X94091000Y-123995000D01*
X94080000Y-124025000D01*
X94068000Y-124054000D01*
X94055000Y-124082000D01*
X94040000Y-124110000D01*
X94023000Y-124137000D01*
X94005000Y-124163000D01*
X93986000Y-124188000D01*
X93966000Y-124211000D01*
X93944000Y-124234000D01*
X93921000Y-124256000D01*
X93898000Y-124276000D01*
X93873000Y-124295000D01*
X93847000Y-124313000D01*
X93820000Y-124330000D01*
X93792000Y-124345000D01*
X93764000Y-124358000D01*
X93735000Y-124370000D01*
X93705000Y-124381000D01*
X93675000Y-124390000D01*
X93645000Y-124397000D01*
X93614000Y-124403000D01*
X93583000Y-124407000D01*
X93551000Y-124409000D01*
X93520000Y-124410000D01*
X93489000Y-124409000D01*
X93457000Y-124407000D01*
X93426000Y-124403000D01*
X93395000Y-124397000D01*
X93365000Y-124390000D01*
X93335000Y-124381000D01*
X93305000Y-124370000D01*
X93276000Y-124358000D01*
X93248000Y-124345000D01*
X93220000Y-124330000D01*
X93193000Y-124313000D01*
X93167000Y-124295000D01*
X93142000Y-124276000D01*
X93119000Y-124256000D01*
X93096000Y-124234000D01*
X93074000Y-124211000D01*
X93054000Y-124188000D01*
X93035000Y-124163000D01*
X93017000Y-124137000D01*
X93000000Y-124110000D01*
X92985000Y-124082000D01*
X92972000Y-124054000D01*
X92960000Y-124025000D01*
X92949000Y-123995000D01*
X92940000Y-123965000D01*
X92933000Y-123935000D01*
X92927000Y-123904000D01*
X92923000Y-123873000D01*
X92921000Y-123841000D01*
X92920000Y-123810000D01*
X92920000Y-123010000D01*
X92921000Y-122979000D01*
X92923000Y-122947000D01*
X92927000Y-122916000D01*
X92933000Y-122885000D01*
X92940000Y-122855000D01*
X92949000Y-122825000D01*
X92960000Y-122795000D01*
X92972000Y-122766000D01*
X92985000Y-122738000D01*
X93000000Y-122710000D01*
X93017000Y-122683000D01*
X93035000Y-122657000D01*
X93054000Y-122632000D01*
X93074000Y-122609000D01*
X93096000Y-122586000D01*
X93119000Y-122564000D01*
X93142000Y-122544000D01*
X93167000Y-122525000D01*
X93193000Y-122507000D01*
X93220000Y-122490000D01*
X93248000Y-122475000D01*
X93276000Y-122462000D01*
X93305000Y-122450000D01*
X93335000Y-122439000D01*
X93365000Y-122430000D01*
X93395000Y-122423000D01*
X93426000Y-122417000D01*
X93457000Y-122413000D01*
X93489000Y-122411000D01*
X93520000Y-122410000D01*
X93551000Y-122411000D01*
G37*
X93551000Y-126211000D02*
X93583000Y-126213000D01*
X93614000Y-126217000D01*
X93645000Y-126223000D01*
X93675000Y-126230000D01*
X93705000Y-126239000D01*
X93735000Y-126250000D01*
X93764000Y-126262000D01*
X93792000Y-126275000D01*
X93820000Y-126290000D01*
X93847000Y-126307000D01*
X93873000Y-126325000D01*
X93898000Y-126344000D01*
X93921000Y-126364000D01*
X93944000Y-126386000D01*
X93966000Y-126409000D01*
X93986000Y-126432000D01*
X94005000Y-126457000D01*
X94023000Y-126483000D01*
X94040000Y-126510000D01*
X94055000Y-126538000D01*
X94068000Y-126566000D01*
X94080000Y-126595000D01*
X94091000Y-126625000D01*
X94100000Y-126655000D01*
X94107000Y-126685000D01*
X94113000Y-126716000D01*
X94117000Y-126747000D01*
X94119000Y-126779000D01*
X94120000Y-126810000D01*
X94120000Y-127410000D01*
X94120000Y-128010000D01*
X94119000Y-128041000D01*
X94117000Y-128073000D01*
X94113000Y-128104000D01*
X94107000Y-128135000D01*
X94100000Y-128165000D01*
X94091000Y-128195000D01*
X94080000Y-128225000D01*
X94068000Y-128254000D01*
X94055000Y-128282000D01*
X94040000Y-128310000D01*
X94023000Y-128337000D01*
X94005000Y-128363000D01*
X93986000Y-128388000D01*
X93966000Y-128411000D01*
X93944000Y-128434000D01*
X93921000Y-128456000D01*
X93898000Y-128476000D01*
X93873000Y-128495000D01*
X93847000Y-128513000D01*
X93820000Y-128530000D01*
X93792000Y-128545000D01*
X93764000Y-128558000D01*
X93735000Y-128570000D01*
X93705000Y-128581000D01*
X93675000Y-128590000D01*
X93645000Y-128597000D01*
X93614000Y-128603000D01*
X93583000Y-128607000D01*
X93551000Y-128609000D01*
X93520000Y-128610000D01*
X93489000Y-128609000D01*
X93457000Y-128607000D01*
X93426000Y-128603000D01*
X93395000Y-128597000D01*
X93365000Y-128590000D01*
X93335000Y-128581000D01*
X93305000Y-128570000D01*
X93276000Y-128558000D01*
X93248000Y-128545000D01*
X93220000Y-128530000D01*
X93193000Y-128513000D01*
X93167000Y-128495000D01*
X93142000Y-128476000D01*
X93119000Y-128456000D01*
X93096000Y-128434000D01*
X93074000Y-128411000D01*
X93054000Y-128388000D01*
X93035000Y-128363000D01*
X93017000Y-128337000D01*
X93000000Y-128310000D01*
X92985000Y-128282000D01*
X92972000Y-128254000D01*
X92960000Y-128225000D01*
X92949000Y-128195000D01*
X92940000Y-128165000D01*
X92933000Y-128135000D01*
X92927000Y-128104000D01*
X92923000Y-128073000D01*
X92921000Y-128041000D01*
X92920000Y-128010000D01*
X92920000Y-127410000D01*
X92920000Y-126810000D01*
X92921000Y-126779000D01*
X92923000Y-126747000D01*
X92927000Y-126716000D01*
X92933000Y-126685000D01*
X92940000Y-126655000D01*
X92949000Y-126625000D01*
X92960000Y-126595000D01*
X92972000Y-126566000D01*
X92985000Y-126538000D01*
X93000000Y-126510000D01*
X93017000Y-126483000D01*
X93035000Y-126457000D01*
X93054000Y-126432000D01*
X93074000Y-126409000D01*
X93096000Y-126386000D01*
X93119000Y-126364000D01*
X93142000Y-126344000D01*
X93167000Y-126325000D01*
X93193000Y-126307000D01*
X93220000Y-126290000D01*
X93248000Y-126275000D01*
X93276000Y-126262000D01*
X93305000Y-126250000D01*
X93335000Y-126239000D01*
X93365000Y-126230000D01*
X93395000Y-126223000D01*
X93426000Y-126217000D01*
X93457000Y-126213000D01*
X93489000Y-126211000D01*
X93520000Y-126210000D01*
X93551000Y-126211000D01*
G36*
X93551000Y-126211000D02*
G01*
X93583000Y-126213000D01*
X93614000Y-126217000D01*
X93645000Y-126223000D01*
X93675000Y-126230000D01*
X93705000Y-126239000D01*
X93735000Y-126250000D01*
X93764000Y-126262000D01*
X93792000Y-126275000D01*
X93820000Y-126290000D01*
X93847000Y-126307000D01*
X93873000Y-126325000D01*
X93898000Y-126344000D01*
X93921000Y-126364000D01*
X93944000Y-126386000D01*
X93966000Y-126409000D01*
X93986000Y-126432000D01*
X94005000Y-126457000D01*
X94023000Y-126483000D01*
X94040000Y-126510000D01*
X94055000Y-126538000D01*
X94068000Y-126566000D01*
X94080000Y-126595000D01*
X94091000Y-126625000D01*
X94100000Y-126655000D01*
X94107000Y-126685000D01*
X94113000Y-126716000D01*
X94117000Y-126747000D01*
X94119000Y-126779000D01*
X94120000Y-126810000D01*
X94120000Y-127410000D01*
X94120000Y-128010000D01*
X94119000Y-128041000D01*
X94117000Y-128073000D01*
X94113000Y-128104000D01*
X94107000Y-128135000D01*
X94100000Y-128165000D01*
X94091000Y-128195000D01*
X94080000Y-128225000D01*
X94068000Y-128254000D01*
X94055000Y-128282000D01*
X94040000Y-128310000D01*
X94023000Y-128337000D01*
X94005000Y-128363000D01*
X93986000Y-128388000D01*
X93966000Y-128411000D01*
X93944000Y-128434000D01*
X93921000Y-128456000D01*
X93898000Y-128476000D01*
X93873000Y-128495000D01*
X93847000Y-128513000D01*
X93820000Y-128530000D01*
X93792000Y-128545000D01*
X93764000Y-128558000D01*
X93735000Y-128570000D01*
X93705000Y-128581000D01*
X93675000Y-128590000D01*
X93645000Y-128597000D01*
X93614000Y-128603000D01*
X93583000Y-128607000D01*
X93551000Y-128609000D01*
X93520000Y-128610000D01*
X93489000Y-128609000D01*
X93457000Y-128607000D01*
X93426000Y-128603000D01*
X93395000Y-128597000D01*
X93365000Y-128590000D01*
X93335000Y-128581000D01*
X93305000Y-128570000D01*
X93276000Y-128558000D01*
X93248000Y-128545000D01*
X93220000Y-128530000D01*
X93193000Y-128513000D01*
X93167000Y-128495000D01*
X93142000Y-128476000D01*
X93119000Y-128456000D01*
X93096000Y-128434000D01*
X93074000Y-128411000D01*
X93054000Y-128388000D01*
X93035000Y-128363000D01*
X93017000Y-128337000D01*
X93000000Y-128310000D01*
X92985000Y-128282000D01*
X92972000Y-128254000D01*
X92960000Y-128225000D01*
X92949000Y-128195000D01*
X92940000Y-128165000D01*
X92933000Y-128135000D01*
X92927000Y-128104000D01*
X92923000Y-128073000D01*
X92921000Y-128041000D01*
X92920000Y-128010000D01*
X92920000Y-127410000D01*
X92920000Y-126810000D01*
X92921000Y-126779000D01*
X92923000Y-126747000D01*
X92927000Y-126716000D01*
X92933000Y-126685000D01*
X92940000Y-126655000D01*
X92949000Y-126625000D01*
X92960000Y-126595000D01*
X92972000Y-126566000D01*
X92985000Y-126538000D01*
X93000000Y-126510000D01*
X93017000Y-126483000D01*
X93035000Y-126457000D01*
X93054000Y-126432000D01*
X93074000Y-126409000D01*
X93096000Y-126386000D01*
X93119000Y-126364000D01*
X93142000Y-126344000D01*
X93167000Y-126325000D01*
X93193000Y-126307000D01*
X93220000Y-126290000D01*
X93248000Y-126275000D01*
X93276000Y-126262000D01*
X93305000Y-126250000D01*
X93335000Y-126239000D01*
X93365000Y-126230000D01*
X93395000Y-126223000D01*
X93426000Y-126217000D01*
X93457000Y-126213000D01*
X93489000Y-126211000D01*
X93520000Y-126210000D01*
X93551000Y-126211000D01*
G37*
%TO.C,U1101*%
X87100000Y-117020000D02*
X86800000Y-117020000D01*
X86800000Y-116340000D01*
X87100000Y-116340000D01*
X87100000Y-117020000D01*
G36*
X87100000Y-117020000D02*
G01*
X86800000Y-117020000D01*
X86800000Y-116340000D01*
X87100000Y-116340000D01*
X87100000Y-117020000D01*
G37*
X87100000Y-117840000D02*
X86800000Y-117840000D01*
X86800000Y-117160000D01*
X87100000Y-117160000D01*
X87100000Y-117840000D01*
G36*
X87100000Y-117840000D02*
G01*
X86800000Y-117840000D01*
X86800000Y-117160000D01*
X87100000Y-117160000D01*
X87100000Y-117840000D01*
G37*
X87600000Y-117020000D02*
X87300000Y-117020000D01*
X87300000Y-116340000D01*
X87600000Y-116340000D01*
X87600000Y-117020000D01*
G36*
X87600000Y-117020000D02*
G01*
X87300000Y-117020000D01*
X87300000Y-116340000D01*
X87600000Y-116340000D01*
X87600000Y-117020000D01*
G37*
X87600000Y-117840000D02*
X87300000Y-117840000D01*
X87300000Y-117160000D01*
X87600000Y-117160000D01*
X87600000Y-117840000D01*
G36*
X87600000Y-117840000D02*
G01*
X87300000Y-117840000D01*
X87300000Y-117160000D01*
X87600000Y-117160000D01*
X87600000Y-117840000D01*
G37*
X88200000Y-117020000D02*
X87700000Y-117020000D01*
X87700000Y-116340000D01*
X88200000Y-116340000D01*
X88200000Y-117020000D01*
G36*
X88200000Y-117020000D02*
G01*
X87700000Y-117020000D01*
X87700000Y-116340000D01*
X88200000Y-116340000D01*
X88200000Y-117020000D01*
G37*
X88200000Y-117840000D02*
X87700000Y-117840000D01*
X87700000Y-117160000D01*
X88200000Y-117160000D01*
X88200000Y-117840000D01*
G36*
X88200000Y-117840000D02*
G01*
X87700000Y-117840000D01*
X87700000Y-117160000D01*
X88200000Y-117160000D01*
X88200000Y-117840000D01*
G37*
X88600000Y-117020000D02*
X88300000Y-117020000D01*
X88300000Y-116340000D01*
X88600000Y-116340000D01*
X88600000Y-117020000D01*
G36*
X88600000Y-117020000D02*
G01*
X88300000Y-117020000D01*
X88300000Y-116340000D01*
X88600000Y-116340000D01*
X88600000Y-117020000D01*
G37*
X88600000Y-117840000D02*
X88300000Y-117840000D01*
X88300000Y-117160000D01*
X88600000Y-117160000D01*
X88600000Y-117840000D01*
G36*
X88600000Y-117840000D02*
G01*
X88300000Y-117840000D01*
X88300000Y-117160000D01*
X88600000Y-117160000D01*
X88600000Y-117840000D01*
G37*
X89100000Y-117020000D02*
X88800000Y-117020000D01*
X88800000Y-116340000D01*
X89100000Y-116340000D01*
X89100000Y-117020000D01*
G36*
X89100000Y-117020000D02*
G01*
X88800000Y-117020000D01*
X88800000Y-116340000D01*
X89100000Y-116340000D01*
X89100000Y-117020000D01*
G37*
X89100000Y-117840000D02*
X88800000Y-117840000D01*
X88800000Y-117160000D01*
X89100000Y-117160000D01*
X89100000Y-117840000D01*
G36*
X89100000Y-117840000D02*
G01*
X88800000Y-117840000D01*
X88800000Y-117160000D01*
X89100000Y-117160000D01*
X89100000Y-117840000D01*
G37*
D12*
%TO.C,U1001*%
G36*
X67969999Y-62819999D02*
G01*
X67480000Y-62819999D01*
X67480000Y-61830001D01*
X67969999Y-61830001D01*
X67969999Y-62819999D01*
G37*
G36*
X67969999Y-65769999D02*
G01*
X67480000Y-65769999D01*
X67480000Y-64780001D01*
X67969999Y-64780001D01*
X67969999Y-65769999D01*
G37*
G36*
X68106300Y-64613500D02*
G01*
X67761500Y-64613500D01*
X67761500Y-62986500D01*
X68106300Y-62986500D01*
X68106300Y-64613500D01*
G37*
G36*
X68620000Y-62819999D02*
G01*
X68130001Y-62819999D01*
X68130001Y-61830001D01*
X68620000Y-61830001D01*
X68620000Y-62819999D01*
G37*
G36*
X68620000Y-65769999D02*
G01*
X68130001Y-65769999D01*
X68130001Y-64780001D01*
X68620000Y-64780001D01*
X68620000Y-65769999D01*
G37*
G36*
X68893700Y-64613500D02*
G01*
X68506300Y-64613500D01*
X68506300Y-62986500D01*
X68893700Y-62986500D01*
X68893700Y-64613500D01*
G37*
G36*
X69269999Y-62819999D02*
G01*
X68780000Y-62819999D01*
X68780000Y-61830001D01*
X69269999Y-61830001D01*
X69269999Y-62819999D01*
G37*
G36*
X69269999Y-65769999D02*
G01*
X68780000Y-65769999D01*
X68780000Y-64780001D01*
X69269999Y-64780001D01*
X69269999Y-65769999D01*
G37*
G36*
X69638500Y-63600000D02*
G01*
X67761500Y-63600000D01*
X67761500Y-62986500D01*
X69638500Y-62986500D01*
X69638500Y-63600000D01*
G37*
G36*
X69638500Y-64613500D02*
G01*
X69293700Y-64613500D01*
X69293700Y-62986500D01*
X69638500Y-62986500D01*
X69638500Y-64613500D01*
G37*
G36*
X69638500Y-64613500D02*
G01*
X67761500Y-64613500D01*
X67761500Y-64000000D01*
X69638500Y-64000000D01*
X69638500Y-64613500D01*
G37*
G36*
X69920000Y-62819999D02*
G01*
X69430001Y-62819999D01*
X69430001Y-61830001D01*
X69920000Y-61830001D01*
X69920000Y-62819999D01*
G37*
G36*
X69920000Y-65769999D02*
G01*
X69430001Y-65769999D01*
X69430001Y-64780001D01*
X69920000Y-64780001D01*
X69920000Y-65769999D01*
G37*
D11*
%TO.C,J1*%
X96271000Y-122388500D02*
X96303000Y-122390500D01*
X96334000Y-122394500D01*
X96365000Y-122400500D01*
X96395000Y-122407500D01*
X96425000Y-122416500D01*
X96455000Y-122427500D01*
X96484000Y-122439500D01*
X96512000Y-122452500D01*
X96540000Y-122467500D01*
X96567000Y-122484500D01*
X96593000Y-122502500D01*
X96618000Y-122521500D01*
X96641000Y-122541500D01*
X96664000Y-122563500D01*
X96686000Y-122586500D01*
X96706000Y-122609500D01*
X96725000Y-122634500D01*
X96743000Y-122660500D01*
X96760000Y-122687500D01*
X96775000Y-122715500D01*
X96788000Y-122743500D01*
X96800000Y-122772500D01*
X96811000Y-122802500D01*
X96820000Y-122832500D01*
X96827000Y-122862500D01*
X96833000Y-122893500D01*
X96837000Y-122924500D01*
X96839000Y-122956500D01*
X96840000Y-122987500D01*
X96840000Y-123787500D01*
X96839000Y-123818500D01*
X96837000Y-123850500D01*
X96833000Y-123881500D01*
X96827000Y-123912500D01*
X96820000Y-123942500D01*
X96811000Y-123972500D01*
X96800000Y-124002500D01*
X96788000Y-124031500D01*
X96775000Y-124059500D01*
X96760000Y-124087500D01*
X96743000Y-124114500D01*
X96725000Y-124140500D01*
X96706000Y-124165500D01*
X96686000Y-124188500D01*
X96664000Y-124211500D01*
X96641000Y-124233500D01*
X96618000Y-124253500D01*
X96593000Y-124272500D01*
X96567000Y-124290500D01*
X96540000Y-124307500D01*
X96512000Y-124322500D01*
X96484000Y-124335500D01*
X96455000Y-124347500D01*
X96425000Y-124358500D01*
X96395000Y-124367500D01*
X96365000Y-124374500D01*
X96334000Y-124380500D01*
X96303000Y-124384500D01*
X96271000Y-124386500D01*
X96240000Y-124387500D01*
X96209000Y-124386500D01*
X96177000Y-124384500D01*
X96146000Y-124380500D01*
X96115000Y-124374500D01*
X96085000Y-124367500D01*
X96055000Y-124358500D01*
X96025000Y-124347500D01*
X95996000Y-124335500D01*
X95968000Y-124322500D01*
X95940000Y-124307500D01*
X95913000Y-124290500D01*
X95887000Y-124272500D01*
X95862000Y-124253500D01*
X95839000Y-124233500D01*
X95816000Y-124211500D01*
X95794000Y-124188500D01*
X95774000Y-124165500D01*
X95755000Y-124140500D01*
X95737000Y-124114500D01*
X95720000Y-124087500D01*
X95705000Y-124059500D01*
X95692000Y-124031500D01*
X95680000Y-124002500D01*
X95669000Y-123972500D01*
X95660000Y-123942500D01*
X95653000Y-123912500D01*
X95647000Y-123881500D01*
X95643000Y-123850500D01*
X95641000Y-123818500D01*
X95640000Y-123787500D01*
X95640000Y-122987500D01*
X95641000Y-122956500D01*
X95643000Y-122924500D01*
X95647000Y-122893500D01*
X95653000Y-122862500D01*
X95660000Y-122832500D01*
X95669000Y-122802500D01*
X95680000Y-122772500D01*
X95692000Y-122743500D01*
X95705000Y-122715500D01*
X95720000Y-122687500D01*
X95737000Y-122660500D01*
X95755000Y-122634500D01*
X95774000Y-122609500D01*
X95794000Y-122586500D01*
X95816000Y-122563500D01*
X95839000Y-122541500D01*
X95862000Y-122521500D01*
X95887000Y-122502500D01*
X95913000Y-122484500D01*
X95940000Y-122467500D01*
X95968000Y-122452500D01*
X95996000Y-122439500D01*
X96025000Y-122427500D01*
X96055000Y-122416500D01*
X96085000Y-122407500D01*
X96115000Y-122400500D01*
X96146000Y-122394500D01*
X96177000Y-122390500D01*
X96209000Y-122388500D01*
X96240000Y-122387500D01*
X96271000Y-122388500D01*
G36*
X96271000Y-122388500D02*
G01*
X96303000Y-122390500D01*
X96334000Y-122394500D01*
X96365000Y-122400500D01*
X96395000Y-122407500D01*
X96425000Y-122416500D01*
X96455000Y-122427500D01*
X96484000Y-122439500D01*
X96512000Y-122452500D01*
X96540000Y-122467500D01*
X96567000Y-122484500D01*
X96593000Y-122502500D01*
X96618000Y-122521500D01*
X96641000Y-122541500D01*
X96664000Y-122563500D01*
X96686000Y-122586500D01*
X96706000Y-122609500D01*
X96725000Y-122634500D01*
X96743000Y-122660500D01*
X96760000Y-122687500D01*
X96775000Y-122715500D01*
X96788000Y-122743500D01*
X96800000Y-122772500D01*
X96811000Y-122802500D01*
X96820000Y-122832500D01*
X96827000Y-122862500D01*
X96833000Y-122893500D01*
X96837000Y-122924500D01*
X96839000Y-122956500D01*
X96840000Y-122987500D01*
X96840000Y-123787500D01*
X96839000Y-123818500D01*
X96837000Y-123850500D01*
X96833000Y-123881500D01*
X96827000Y-123912500D01*
X96820000Y-123942500D01*
X96811000Y-123972500D01*
X96800000Y-124002500D01*
X96788000Y-124031500D01*
X96775000Y-124059500D01*
X96760000Y-124087500D01*
X96743000Y-124114500D01*
X96725000Y-124140500D01*
X96706000Y-124165500D01*
X96686000Y-124188500D01*
X96664000Y-124211500D01*
X96641000Y-124233500D01*
X96618000Y-124253500D01*
X96593000Y-124272500D01*
X96567000Y-124290500D01*
X96540000Y-124307500D01*
X96512000Y-124322500D01*
X96484000Y-124335500D01*
X96455000Y-124347500D01*
X96425000Y-124358500D01*
X96395000Y-124367500D01*
X96365000Y-124374500D01*
X96334000Y-124380500D01*
X96303000Y-124384500D01*
X96271000Y-124386500D01*
X96240000Y-124387500D01*
X96209000Y-124386500D01*
X96177000Y-124384500D01*
X96146000Y-124380500D01*
X96115000Y-124374500D01*
X96085000Y-124367500D01*
X96055000Y-124358500D01*
X96025000Y-124347500D01*
X95996000Y-124335500D01*
X95968000Y-124322500D01*
X95940000Y-124307500D01*
X95913000Y-124290500D01*
X95887000Y-124272500D01*
X95862000Y-124253500D01*
X95839000Y-124233500D01*
X95816000Y-124211500D01*
X95794000Y-124188500D01*
X95774000Y-124165500D01*
X95755000Y-124140500D01*
X95737000Y-124114500D01*
X95720000Y-124087500D01*
X95705000Y-124059500D01*
X95692000Y-124031500D01*
X95680000Y-124002500D01*
X95669000Y-123972500D01*
X95660000Y-123942500D01*
X95653000Y-123912500D01*
X95647000Y-123881500D01*
X95643000Y-123850500D01*
X95641000Y-123818500D01*
X95640000Y-123787500D01*
X95640000Y-122987500D01*
X95641000Y-122956500D01*
X95643000Y-122924500D01*
X95647000Y-122893500D01*
X95653000Y-122862500D01*
X95660000Y-122832500D01*
X95669000Y-122802500D01*
X95680000Y-122772500D01*
X95692000Y-122743500D01*
X95705000Y-122715500D01*
X95720000Y-122687500D01*
X95737000Y-122660500D01*
X95755000Y-122634500D01*
X95774000Y-122609500D01*
X95794000Y-122586500D01*
X95816000Y-122563500D01*
X95839000Y-122541500D01*
X95862000Y-122521500D01*
X95887000Y-122502500D01*
X95913000Y-122484500D01*
X95940000Y-122467500D01*
X95968000Y-122452500D01*
X95996000Y-122439500D01*
X96025000Y-122427500D01*
X96055000Y-122416500D01*
X96085000Y-122407500D01*
X96115000Y-122400500D01*
X96146000Y-122394500D01*
X96177000Y-122390500D01*
X96209000Y-122388500D01*
X96240000Y-122387500D01*
X96271000Y-122388500D01*
G37*
X96271000Y-126188500D02*
X96303000Y-126190500D01*
X96334000Y-126194500D01*
X96365000Y-126200500D01*
X96395000Y-126207500D01*
X96425000Y-126216500D01*
X96455000Y-126227500D01*
X96484000Y-126239500D01*
X96512000Y-126252500D01*
X96540000Y-126267500D01*
X96567000Y-126284500D01*
X96593000Y-126302500D01*
X96618000Y-126321500D01*
X96641000Y-126341500D01*
X96664000Y-126363500D01*
X96686000Y-126386500D01*
X96706000Y-126409500D01*
X96725000Y-126434500D01*
X96743000Y-126460500D01*
X96760000Y-126487500D01*
X96775000Y-126515500D01*
X96788000Y-126543500D01*
X96800000Y-126572500D01*
X96811000Y-126602500D01*
X96820000Y-126632500D01*
X96827000Y-126662500D01*
X96833000Y-126693500D01*
X96837000Y-126724500D01*
X96839000Y-126756500D01*
X96840000Y-126787500D01*
X96840000Y-127987500D01*
X96839000Y-128018500D01*
X96837000Y-128050500D01*
X96833000Y-128081500D01*
X96827000Y-128112500D01*
X96820000Y-128142500D01*
X96811000Y-128172500D01*
X96800000Y-128202500D01*
X96788000Y-128231500D01*
X96775000Y-128259500D01*
X96760000Y-128287500D01*
X96743000Y-128314500D01*
X96725000Y-128340500D01*
X96706000Y-128365500D01*
X96686000Y-128388500D01*
X96664000Y-128411500D01*
X96641000Y-128433500D01*
X96618000Y-128453500D01*
X96593000Y-128472500D01*
X96567000Y-128490500D01*
X96540000Y-128507500D01*
X96512000Y-128522500D01*
X96484000Y-128535500D01*
X96455000Y-128547500D01*
X96425000Y-128558500D01*
X96395000Y-128567500D01*
X96365000Y-128574500D01*
X96334000Y-128580500D01*
X96303000Y-128584500D01*
X96271000Y-128586500D01*
X96240000Y-128587500D01*
X96209000Y-128586500D01*
X96177000Y-128584500D01*
X96146000Y-128580500D01*
X96115000Y-128574500D01*
X96085000Y-128567500D01*
X96055000Y-128558500D01*
X96025000Y-128547500D01*
X95996000Y-128535500D01*
X95968000Y-128522500D01*
X95940000Y-128507500D01*
X95913000Y-128490500D01*
X95887000Y-128472500D01*
X95862000Y-128453500D01*
X95839000Y-128433500D01*
X95816000Y-128411500D01*
X95794000Y-128388500D01*
X95774000Y-128365500D01*
X95755000Y-128340500D01*
X95737000Y-128314500D01*
X95720000Y-128287500D01*
X95705000Y-128259500D01*
X95692000Y-128231500D01*
X95680000Y-128202500D01*
X95669000Y-128172500D01*
X95660000Y-128142500D01*
X95653000Y-128112500D01*
X95647000Y-128081500D01*
X95643000Y-128050500D01*
X95641000Y-128018500D01*
X95640000Y-127987500D01*
X95640000Y-126787500D01*
X95641000Y-126756500D01*
X95643000Y-126724500D01*
X95647000Y-126693500D01*
X95653000Y-126662500D01*
X95660000Y-126632500D01*
X95669000Y-126602500D01*
X95680000Y-126572500D01*
X95692000Y-126543500D01*
X95705000Y-126515500D01*
X95720000Y-126487500D01*
X95737000Y-126460500D01*
X95755000Y-126434500D01*
X95774000Y-126409500D01*
X95794000Y-126386500D01*
X95816000Y-126363500D01*
X95839000Y-126341500D01*
X95862000Y-126321500D01*
X95887000Y-126302500D01*
X95913000Y-126284500D01*
X95940000Y-126267500D01*
X95968000Y-126252500D01*
X95996000Y-126239500D01*
X96025000Y-126227500D01*
X96055000Y-126216500D01*
X96085000Y-126207500D01*
X96115000Y-126200500D01*
X96146000Y-126194500D01*
X96177000Y-126190500D01*
X96209000Y-126188500D01*
X96240000Y-126187500D01*
X96271000Y-126188500D01*
G36*
X96271000Y-126188500D02*
G01*
X96303000Y-126190500D01*
X96334000Y-126194500D01*
X96365000Y-126200500D01*
X96395000Y-126207500D01*
X96425000Y-126216500D01*
X96455000Y-126227500D01*
X96484000Y-126239500D01*
X96512000Y-126252500D01*
X96540000Y-126267500D01*
X96567000Y-126284500D01*
X96593000Y-126302500D01*
X96618000Y-126321500D01*
X96641000Y-126341500D01*
X96664000Y-126363500D01*
X96686000Y-126386500D01*
X96706000Y-126409500D01*
X96725000Y-126434500D01*
X96743000Y-126460500D01*
X96760000Y-126487500D01*
X96775000Y-126515500D01*
X96788000Y-126543500D01*
X96800000Y-126572500D01*
X96811000Y-126602500D01*
X96820000Y-126632500D01*
X96827000Y-126662500D01*
X96833000Y-126693500D01*
X96837000Y-126724500D01*
X96839000Y-126756500D01*
X96840000Y-126787500D01*
X96840000Y-127987500D01*
X96839000Y-128018500D01*
X96837000Y-128050500D01*
X96833000Y-128081500D01*
X96827000Y-128112500D01*
X96820000Y-128142500D01*
X96811000Y-128172500D01*
X96800000Y-128202500D01*
X96788000Y-128231500D01*
X96775000Y-128259500D01*
X96760000Y-128287500D01*
X96743000Y-128314500D01*
X96725000Y-128340500D01*
X96706000Y-128365500D01*
X96686000Y-128388500D01*
X96664000Y-128411500D01*
X96641000Y-128433500D01*
X96618000Y-128453500D01*
X96593000Y-128472500D01*
X96567000Y-128490500D01*
X96540000Y-128507500D01*
X96512000Y-128522500D01*
X96484000Y-128535500D01*
X96455000Y-128547500D01*
X96425000Y-128558500D01*
X96395000Y-128567500D01*
X96365000Y-128574500D01*
X96334000Y-128580500D01*
X96303000Y-128584500D01*
X96271000Y-128586500D01*
X96240000Y-128587500D01*
X96209000Y-128586500D01*
X96177000Y-128584500D01*
X96146000Y-128580500D01*
X96115000Y-128574500D01*
X96085000Y-128567500D01*
X96055000Y-128558500D01*
X96025000Y-128547500D01*
X95996000Y-128535500D01*
X95968000Y-128522500D01*
X95940000Y-128507500D01*
X95913000Y-128490500D01*
X95887000Y-128472500D01*
X95862000Y-128453500D01*
X95839000Y-128433500D01*
X95816000Y-128411500D01*
X95794000Y-128388500D01*
X95774000Y-128365500D01*
X95755000Y-128340500D01*
X95737000Y-128314500D01*
X95720000Y-128287500D01*
X95705000Y-128259500D01*
X95692000Y-128231500D01*
X95680000Y-128202500D01*
X95669000Y-128172500D01*
X95660000Y-128142500D01*
X95653000Y-128112500D01*
X95647000Y-128081500D01*
X95643000Y-128050500D01*
X95641000Y-128018500D01*
X95640000Y-127987500D01*
X95640000Y-126787500D01*
X95641000Y-126756500D01*
X95643000Y-126724500D01*
X95647000Y-126693500D01*
X95653000Y-126662500D01*
X95660000Y-126632500D01*
X95669000Y-126602500D01*
X95680000Y-126572500D01*
X95692000Y-126543500D01*
X95705000Y-126515500D01*
X95720000Y-126487500D01*
X95737000Y-126460500D01*
X95755000Y-126434500D01*
X95774000Y-126409500D01*
X95794000Y-126386500D01*
X95816000Y-126363500D01*
X95839000Y-126341500D01*
X95862000Y-126321500D01*
X95887000Y-126302500D01*
X95913000Y-126284500D01*
X95940000Y-126267500D01*
X95968000Y-126252500D01*
X95996000Y-126239500D01*
X96025000Y-126227500D01*
X96055000Y-126216500D01*
X96085000Y-126207500D01*
X96115000Y-126200500D01*
X96146000Y-126194500D01*
X96177000Y-126190500D01*
X96209000Y-126188500D01*
X96240000Y-126187500D01*
X96271000Y-126188500D01*
G37*
X107511000Y-122388500D02*
X107543000Y-122390500D01*
X107574000Y-122394500D01*
X107605000Y-122400500D01*
X107635000Y-122407500D01*
X107665000Y-122416500D01*
X107695000Y-122427500D01*
X107724000Y-122439500D01*
X107752000Y-122452500D01*
X107780000Y-122467500D01*
X107807000Y-122484500D01*
X107833000Y-122502500D01*
X107858000Y-122521500D01*
X107881000Y-122541500D01*
X107904000Y-122563500D01*
X107926000Y-122586500D01*
X107946000Y-122609500D01*
X107965000Y-122634500D01*
X107983000Y-122660500D01*
X108000000Y-122687500D01*
X108015000Y-122715500D01*
X108028000Y-122743500D01*
X108040000Y-122772500D01*
X108051000Y-122802500D01*
X108060000Y-122832500D01*
X108067000Y-122862500D01*
X108073000Y-122893500D01*
X108077000Y-122924500D01*
X108079000Y-122956500D01*
X108080000Y-122987500D01*
X108080000Y-123787500D01*
X108079000Y-123818500D01*
X108077000Y-123850500D01*
X108073000Y-123881500D01*
X108067000Y-123912500D01*
X108060000Y-123942500D01*
X108051000Y-123972500D01*
X108040000Y-124002500D01*
X108028000Y-124031500D01*
X108015000Y-124059500D01*
X108000000Y-124087500D01*
X107983000Y-124114500D01*
X107965000Y-124140500D01*
X107946000Y-124165500D01*
X107926000Y-124188500D01*
X107904000Y-124211500D01*
X107881000Y-124233500D01*
X107858000Y-124253500D01*
X107833000Y-124272500D01*
X107807000Y-124290500D01*
X107780000Y-124307500D01*
X107752000Y-124322500D01*
X107724000Y-124335500D01*
X107695000Y-124347500D01*
X107665000Y-124358500D01*
X107635000Y-124367500D01*
X107605000Y-124374500D01*
X107574000Y-124380500D01*
X107543000Y-124384500D01*
X107511000Y-124386500D01*
X107480000Y-124387500D01*
X107449000Y-124386500D01*
X107417000Y-124384500D01*
X107386000Y-124380500D01*
X107355000Y-124374500D01*
X107325000Y-124367500D01*
X107295000Y-124358500D01*
X107265000Y-124347500D01*
X107236000Y-124335500D01*
X107208000Y-124322500D01*
X107180000Y-124307500D01*
X107153000Y-124290500D01*
X107127000Y-124272500D01*
X107102000Y-124253500D01*
X107079000Y-124233500D01*
X107056000Y-124211500D01*
X107034000Y-124188500D01*
X107014000Y-124165500D01*
X106995000Y-124140500D01*
X106977000Y-124114500D01*
X106960000Y-124087500D01*
X106945000Y-124059500D01*
X106932000Y-124031500D01*
X106920000Y-124002500D01*
X106909000Y-123972500D01*
X106900000Y-123942500D01*
X106893000Y-123912500D01*
X106887000Y-123881500D01*
X106883000Y-123850500D01*
X106881000Y-123818500D01*
X106880000Y-123787500D01*
X106880000Y-122987500D01*
X106881000Y-122956500D01*
X106883000Y-122924500D01*
X106887000Y-122893500D01*
X106893000Y-122862500D01*
X106900000Y-122832500D01*
X106909000Y-122802500D01*
X106920000Y-122772500D01*
X106932000Y-122743500D01*
X106945000Y-122715500D01*
X106960000Y-122687500D01*
X106977000Y-122660500D01*
X106995000Y-122634500D01*
X107014000Y-122609500D01*
X107034000Y-122586500D01*
X107056000Y-122563500D01*
X107079000Y-122541500D01*
X107102000Y-122521500D01*
X107127000Y-122502500D01*
X107153000Y-122484500D01*
X107180000Y-122467500D01*
X107208000Y-122452500D01*
X107236000Y-122439500D01*
X107265000Y-122427500D01*
X107295000Y-122416500D01*
X107325000Y-122407500D01*
X107355000Y-122400500D01*
X107386000Y-122394500D01*
X107417000Y-122390500D01*
X107449000Y-122388500D01*
X107480000Y-122387500D01*
X107511000Y-122388500D01*
G36*
X107511000Y-122388500D02*
G01*
X107543000Y-122390500D01*
X107574000Y-122394500D01*
X107605000Y-122400500D01*
X107635000Y-122407500D01*
X107665000Y-122416500D01*
X107695000Y-122427500D01*
X107724000Y-122439500D01*
X107752000Y-122452500D01*
X107780000Y-122467500D01*
X107807000Y-122484500D01*
X107833000Y-122502500D01*
X107858000Y-122521500D01*
X107881000Y-122541500D01*
X107904000Y-122563500D01*
X107926000Y-122586500D01*
X107946000Y-122609500D01*
X107965000Y-122634500D01*
X107983000Y-122660500D01*
X108000000Y-122687500D01*
X108015000Y-122715500D01*
X108028000Y-122743500D01*
X108040000Y-122772500D01*
X108051000Y-122802500D01*
X108060000Y-122832500D01*
X108067000Y-122862500D01*
X108073000Y-122893500D01*
X108077000Y-122924500D01*
X108079000Y-122956500D01*
X108080000Y-122987500D01*
X108080000Y-123787500D01*
X108079000Y-123818500D01*
X108077000Y-123850500D01*
X108073000Y-123881500D01*
X108067000Y-123912500D01*
X108060000Y-123942500D01*
X108051000Y-123972500D01*
X108040000Y-124002500D01*
X108028000Y-124031500D01*
X108015000Y-124059500D01*
X108000000Y-124087500D01*
X107983000Y-124114500D01*
X107965000Y-124140500D01*
X107946000Y-124165500D01*
X107926000Y-124188500D01*
X107904000Y-124211500D01*
X107881000Y-124233500D01*
X107858000Y-124253500D01*
X107833000Y-124272500D01*
X107807000Y-124290500D01*
X107780000Y-124307500D01*
X107752000Y-124322500D01*
X107724000Y-124335500D01*
X107695000Y-124347500D01*
X107665000Y-124358500D01*
X107635000Y-124367500D01*
X107605000Y-124374500D01*
X107574000Y-124380500D01*
X107543000Y-124384500D01*
X107511000Y-124386500D01*
X107480000Y-124387500D01*
X107449000Y-124386500D01*
X107417000Y-124384500D01*
X107386000Y-124380500D01*
X107355000Y-124374500D01*
X107325000Y-124367500D01*
X107295000Y-124358500D01*
X107265000Y-124347500D01*
X107236000Y-124335500D01*
X107208000Y-124322500D01*
X107180000Y-124307500D01*
X107153000Y-124290500D01*
X107127000Y-124272500D01*
X107102000Y-124253500D01*
X107079000Y-124233500D01*
X107056000Y-124211500D01*
X107034000Y-124188500D01*
X107014000Y-124165500D01*
X106995000Y-124140500D01*
X106977000Y-124114500D01*
X106960000Y-124087500D01*
X106945000Y-124059500D01*
X106932000Y-124031500D01*
X106920000Y-124002500D01*
X106909000Y-123972500D01*
X106900000Y-123942500D01*
X106893000Y-123912500D01*
X106887000Y-123881500D01*
X106883000Y-123850500D01*
X106881000Y-123818500D01*
X106880000Y-123787500D01*
X106880000Y-122987500D01*
X106881000Y-122956500D01*
X106883000Y-122924500D01*
X106887000Y-122893500D01*
X106893000Y-122862500D01*
X106900000Y-122832500D01*
X106909000Y-122802500D01*
X106920000Y-122772500D01*
X106932000Y-122743500D01*
X106945000Y-122715500D01*
X106960000Y-122687500D01*
X106977000Y-122660500D01*
X106995000Y-122634500D01*
X107014000Y-122609500D01*
X107034000Y-122586500D01*
X107056000Y-122563500D01*
X107079000Y-122541500D01*
X107102000Y-122521500D01*
X107127000Y-122502500D01*
X107153000Y-122484500D01*
X107180000Y-122467500D01*
X107208000Y-122452500D01*
X107236000Y-122439500D01*
X107265000Y-122427500D01*
X107295000Y-122416500D01*
X107325000Y-122407500D01*
X107355000Y-122400500D01*
X107386000Y-122394500D01*
X107417000Y-122390500D01*
X107449000Y-122388500D01*
X107480000Y-122387500D01*
X107511000Y-122388500D01*
G37*
X107511000Y-126188500D02*
X107543000Y-126190500D01*
X107574000Y-126194500D01*
X107605000Y-126200500D01*
X107635000Y-126207500D01*
X107665000Y-126216500D01*
X107695000Y-126227500D01*
X107724000Y-126239500D01*
X107752000Y-126252500D01*
X107780000Y-126267500D01*
X107807000Y-126284500D01*
X107833000Y-126302500D01*
X107858000Y-126321500D01*
X107881000Y-126341500D01*
X107904000Y-126363500D01*
X107926000Y-126386500D01*
X107946000Y-126409500D01*
X107965000Y-126434500D01*
X107983000Y-126460500D01*
X108000000Y-126487500D01*
X108015000Y-126515500D01*
X108028000Y-126543500D01*
X108040000Y-126572500D01*
X108051000Y-126602500D01*
X108060000Y-126632500D01*
X108067000Y-126662500D01*
X108073000Y-126693500D01*
X108077000Y-126724500D01*
X108079000Y-126756500D01*
X108080000Y-126787500D01*
X108080000Y-127387500D01*
X108080000Y-127987500D01*
X108079000Y-128018500D01*
X108077000Y-128050500D01*
X108073000Y-128081500D01*
X108067000Y-128112500D01*
X108060000Y-128142500D01*
X108051000Y-128172500D01*
X108040000Y-128202500D01*
X108028000Y-128231500D01*
X108015000Y-128259500D01*
X108000000Y-128287500D01*
X107983000Y-128314500D01*
X107965000Y-128340500D01*
X107946000Y-128365500D01*
X107926000Y-128388500D01*
X107904000Y-128411500D01*
X107881000Y-128433500D01*
X107858000Y-128453500D01*
X107833000Y-128472500D01*
X107807000Y-128490500D01*
X107780000Y-128507500D01*
X107752000Y-128522500D01*
X107724000Y-128535500D01*
X107695000Y-128547500D01*
X107665000Y-128558500D01*
X107635000Y-128567500D01*
X107605000Y-128574500D01*
X107574000Y-128580500D01*
X107543000Y-128584500D01*
X107511000Y-128586500D01*
X107480000Y-128587500D01*
X107449000Y-128586500D01*
X107417000Y-128584500D01*
X107386000Y-128580500D01*
X107355000Y-128574500D01*
X107325000Y-128567500D01*
X107295000Y-128558500D01*
X107265000Y-128547500D01*
X107236000Y-128535500D01*
X107208000Y-128522500D01*
X107180000Y-128507500D01*
X107153000Y-128490500D01*
X107127000Y-128472500D01*
X107102000Y-128453500D01*
X107079000Y-128433500D01*
X107056000Y-128411500D01*
X107034000Y-128388500D01*
X107014000Y-128365500D01*
X106995000Y-128340500D01*
X106977000Y-128314500D01*
X106960000Y-128287500D01*
X106945000Y-128259500D01*
X106932000Y-128231500D01*
X106920000Y-128202500D01*
X106909000Y-128172500D01*
X106900000Y-128142500D01*
X106893000Y-128112500D01*
X106887000Y-128081500D01*
X106883000Y-128050500D01*
X106881000Y-128018500D01*
X106880000Y-127987500D01*
X106880000Y-127387500D01*
X106880000Y-126787500D01*
X106881000Y-126756500D01*
X106883000Y-126724500D01*
X106887000Y-126693500D01*
X106893000Y-126662500D01*
X106900000Y-126632500D01*
X106909000Y-126602500D01*
X106920000Y-126572500D01*
X106932000Y-126543500D01*
X106945000Y-126515500D01*
X106960000Y-126487500D01*
X106977000Y-126460500D01*
X106995000Y-126434500D01*
X107014000Y-126409500D01*
X107034000Y-126386500D01*
X107056000Y-126363500D01*
X107079000Y-126341500D01*
X107102000Y-126321500D01*
X107127000Y-126302500D01*
X107153000Y-126284500D01*
X107180000Y-126267500D01*
X107208000Y-126252500D01*
X107236000Y-126239500D01*
X107265000Y-126227500D01*
X107295000Y-126216500D01*
X107325000Y-126207500D01*
X107355000Y-126200500D01*
X107386000Y-126194500D01*
X107417000Y-126190500D01*
X107449000Y-126188500D01*
X107480000Y-126187500D01*
X107511000Y-126188500D01*
G36*
X107511000Y-126188500D02*
G01*
X107543000Y-126190500D01*
X107574000Y-126194500D01*
X107605000Y-126200500D01*
X107635000Y-126207500D01*
X107665000Y-126216500D01*
X107695000Y-126227500D01*
X107724000Y-126239500D01*
X107752000Y-126252500D01*
X107780000Y-126267500D01*
X107807000Y-126284500D01*
X107833000Y-126302500D01*
X107858000Y-126321500D01*
X107881000Y-126341500D01*
X107904000Y-126363500D01*
X107926000Y-126386500D01*
X107946000Y-126409500D01*
X107965000Y-126434500D01*
X107983000Y-126460500D01*
X108000000Y-126487500D01*
X108015000Y-126515500D01*
X108028000Y-126543500D01*
X108040000Y-126572500D01*
X108051000Y-126602500D01*
X108060000Y-126632500D01*
X108067000Y-126662500D01*
X108073000Y-126693500D01*
X108077000Y-126724500D01*
X108079000Y-126756500D01*
X108080000Y-126787500D01*
X108080000Y-127387500D01*
X108080000Y-127987500D01*
X108079000Y-128018500D01*
X108077000Y-128050500D01*
X108073000Y-128081500D01*
X108067000Y-128112500D01*
X108060000Y-128142500D01*
X108051000Y-128172500D01*
X108040000Y-128202500D01*
X108028000Y-128231500D01*
X108015000Y-128259500D01*
X108000000Y-128287500D01*
X107983000Y-128314500D01*
X107965000Y-128340500D01*
X107946000Y-128365500D01*
X107926000Y-128388500D01*
X107904000Y-128411500D01*
X107881000Y-128433500D01*
X107858000Y-128453500D01*
X107833000Y-128472500D01*
X107807000Y-128490500D01*
X107780000Y-128507500D01*
X107752000Y-128522500D01*
X107724000Y-128535500D01*
X107695000Y-128547500D01*
X107665000Y-128558500D01*
X107635000Y-128567500D01*
X107605000Y-128574500D01*
X107574000Y-128580500D01*
X107543000Y-128584500D01*
X107511000Y-128586500D01*
X107480000Y-128587500D01*
X107449000Y-128586500D01*
X107417000Y-128584500D01*
X107386000Y-128580500D01*
X107355000Y-128574500D01*
X107325000Y-128567500D01*
X107295000Y-128558500D01*
X107265000Y-128547500D01*
X107236000Y-128535500D01*
X107208000Y-128522500D01*
X107180000Y-128507500D01*
X107153000Y-128490500D01*
X107127000Y-128472500D01*
X107102000Y-128453500D01*
X107079000Y-128433500D01*
X107056000Y-128411500D01*
X107034000Y-128388500D01*
X107014000Y-128365500D01*
X106995000Y-128340500D01*
X106977000Y-128314500D01*
X106960000Y-128287500D01*
X106945000Y-128259500D01*
X106932000Y-128231500D01*
X106920000Y-128202500D01*
X106909000Y-128172500D01*
X106900000Y-128142500D01*
X106893000Y-128112500D01*
X106887000Y-128081500D01*
X106883000Y-128050500D01*
X106881000Y-128018500D01*
X106880000Y-127987500D01*
X106880000Y-127387500D01*
X106880000Y-126787500D01*
X106881000Y-126756500D01*
X106883000Y-126724500D01*
X106887000Y-126693500D01*
X106893000Y-126662500D01*
X106900000Y-126632500D01*
X106909000Y-126602500D01*
X106920000Y-126572500D01*
X106932000Y-126543500D01*
X106945000Y-126515500D01*
X106960000Y-126487500D01*
X106977000Y-126460500D01*
X106995000Y-126434500D01*
X107014000Y-126409500D01*
X107034000Y-126386500D01*
X107056000Y-126363500D01*
X107079000Y-126341500D01*
X107102000Y-126321500D01*
X107127000Y-126302500D01*
X107153000Y-126284500D01*
X107180000Y-126267500D01*
X107208000Y-126252500D01*
X107236000Y-126239500D01*
X107265000Y-126227500D01*
X107295000Y-126216500D01*
X107325000Y-126207500D01*
X107355000Y-126200500D01*
X107386000Y-126194500D01*
X107417000Y-126190500D01*
X107449000Y-126188500D01*
X107480000Y-126187500D01*
X107511000Y-126188500D01*
G37*
%TO.C,U2*%
X104870000Y-113810000D02*
X104190000Y-113810000D01*
X104190000Y-113510000D01*
X104870000Y-113510000D01*
X104870000Y-113810000D01*
G36*
X104870000Y-113810000D02*
G01*
X104190000Y-113810000D01*
X104190000Y-113510000D01*
X104870000Y-113510000D01*
X104870000Y-113810000D01*
G37*
X104870000Y-114310000D02*
X104190000Y-114310000D01*
X104190000Y-114010000D01*
X104870000Y-114010000D01*
X104870000Y-114310000D01*
G36*
X104870000Y-114310000D02*
G01*
X104190000Y-114310000D01*
X104190000Y-114010000D01*
X104870000Y-114010000D01*
X104870000Y-114310000D01*
G37*
X104870000Y-114910000D02*
X104190000Y-114910000D01*
X104190000Y-114410000D01*
X104870000Y-114410000D01*
X104870000Y-114910000D01*
G36*
X104870000Y-114910000D02*
G01*
X104190000Y-114910000D01*
X104190000Y-114410000D01*
X104870000Y-114410000D01*
X104870000Y-114910000D01*
G37*
X104870000Y-115310000D02*
X104190000Y-115310000D01*
X104190000Y-115010000D01*
X104870000Y-115010000D01*
X104870000Y-115310000D01*
G36*
X104870000Y-115310000D02*
G01*
X104190000Y-115310000D01*
X104190000Y-115010000D01*
X104870000Y-115010000D01*
X104870000Y-115310000D01*
G37*
X104870000Y-115810000D02*
X104190000Y-115810000D01*
X104190000Y-115510000D01*
X104870000Y-115510000D01*
X104870000Y-115810000D01*
G36*
X104870000Y-115810000D02*
G01*
X104190000Y-115810000D01*
X104190000Y-115510000D01*
X104870000Y-115510000D01*
X104870000Y-115810000D01*
G37*
X105690000Y-113810000D02*
X105010000Y-113810000D01*
X105010000Y-113510000D01*
X105690000Y-113510000D01*
X105690000Y-113810000D01*
G36*
X105690000Y-113810000D02*
G01*
X105010000Y-113810000D01*
X105010000Y-113510000D01*
X105690000Y-113510000D01*
X105690000Y-113810000D01*
G37*
X105690000Y-114310000D02*
X105010000Y-114310000D01*
X105010000Y-114010000D01*
X105690000Y-114010000D01*
X105690000Y-114310000D01*
G36*
X105690000Y-114310000D02*
G01*
X105010000Y-114310000D01*
X105010000Y-114010000D01*
X105690000Y-114010000D01*
X105690000Y-114310000D01*
G37*
X105690000Y-114910000D02*
X105010000Y-114910000D01*
X105010000Y-114410000D01*
X105690000Y-114410000D01*
X105690000Y-114910000D01*
G36*
X105690000Y-114910000D02*
G01*
X105010000Y-114910000D01*
X105010000Y-114410000D01*
X105690000Y-114410000D01*
X105690000Y-114910000D01*
G37*
X105690000Y-115310000D02*
X105010000Y-115310000D01*
X105010000Y-115010000D01*
X105690000Y-115010000D01*
X105690000Y-115310000D01*
G36*
X105690000Y-115310000D02*
G01*
X105010000Y-115310000D01*
X105010000Y-115010000D01*
X105690000Y-115010000D01*
X105690000Y-115310000D01*
G37*
X105690000Y-115810000D02*
X105010000Y-115810000D01*
X105010000Y-115510000D01*
X105690000Y-115510000D01*
X105690000Y-115810000D01*
G36*
X105690000Y-115810000D02*
G01*
X105010000Y-115810000D01*
X105010000Y-115510000D01*
X105690000Y-115510000D01*
X105690000Y-115810000D01*
G37*
%TD*%
D13*
%TO.C,C338*%
X89590000Y-106902500D03*
X89590000Y-109102500D03*
%TD*%
D14*
%TO.C,C422*%
X102768400Y-74440000D03*
X102768400Y-75340000D03*
%TD*%
%TO.C,C423*%
X91940000Y-71940000D03*
X91940000Y-71040000D03*
%TD*%
D15*
%TO.C,C424*%
X90690000Y-69045000D03*
X90690000Y-70595000D03*
%TD*%
D14*
%TO.C,C425*%
X91940000Y-70120000D03*
X91940000Y-69220000D03*
%TD*%
%TO.C,C426*%
X102767400Y-80166585D03*
X102767400Y-79266585D03*
%TD*%
%TO.C,C601*%
X93290000Y-109060000D03*
X93290000Y-108160000D03*
%TD*%
%TO.C,C602*%
X92090000Y-108120000D03*
X92090000Y-109020000D03*
%TD*%
%TO.C,C901*%
X75570000Y-125510000D03*
X75570000Y-124610000D03*
%TD*%
D16*
%TO.C,C902*%
X73850000Y-116600000D03*
X72950000Y-116600000D03*
%TD*%
%TO.C,C1006*%
X80650000Y-67300000D03*
X81550000Y-67300000D03*
%TD*%
%TO.C,C1007*%
X79850000Y-67300000D03*
X78950000Y-67300000D03*
%TD*%
D14*
%TO.C,C1008*%
X86930000Y-79770000D03*
X86930000Y-78870000D03*
%TD*%
D17*
%TO.C,C1103*%
X83875000Y-120000000D03*
X85425000Y-120000000D03*
%TD*%
D18*
%TO.C,J701*%
X104490000Y-111455000D03*
X104490000Y-117805000D03*
%TD*%
D19*
%TO.C,J1101*%
X84700000Y-122210000D03*
X85500000Y-122210000D03*
D20*
X86650000Y-122210000D03*
X87650000Y-122210000D03*
X88150000Y-122210000D03*
X89150000Y-122210000D03*
D19*
X91100000Y-122210000D03*
X90300000Y-122210000D03*
D20*
X89650000Y-122210000D03*
X88650000Y-122210000D03*
X87150000Y-122210000D03*
X86150000Y-122210000D03*
%TD*%
D21*
%TO.C,R401*%
X94040000Y-87320000D03*
X95060000Y-87320000D03*
%TD*%
%TO.C,R402*%
X102757400Y-76516585D03*
X103777400Y-76516585D03*
%TD*%
%TO.C,R603*%
X85690000Y-114600000D03*
X86710000Y-114600000D03*
%TD*%
D22*
%TO.C,R604*%
X90110000Y-114600000D03*
X89090000Y-114600000D03*
%TD*%
D23*
%TO.C,R801*%
X106870000Y-93730000D03*
X106870000Y-92710000D03*
%TD*%
D22*
%TO.C,R1101*%
X90110000Y-115600000D03*
X89090000Y-115600000D03*
%TD*%
D21*
%TO.C,R1102*%
X85690000Y-115600000D03*
X86710000Y-115600000D03*
%TD*%
D24*
%TO.C,Y601*%
X91890000Y-106790000D03*
X93390000Y-106790000D03*
%TD*%
D16*
%TO.C,C209*%
X69315000Y-108035000D03*
X70215000Y-108035000D03*
%TD*%
D25*
%TO.C,U4*%
X90067400Y-104116585D03*
X90067400Y-103316585D03*
X90067400Y-102516585D03*
X90067400Y-101716585D03*
X90067400Y-100916585D03*
X90067400Y-100116585D03*
X90067400Y-99316585D03*
X90067400Y-98516585D03*
X90067400Y-97716585D03*
X90067400Y-96916585D03*
X90067400Y-96116585D03*
X90067400Y-95316585D03*
X90067400Y-94516585D03*
X90067400Y-93716585D03*
X90067400Y-92916585D03*
X90067400Y-92116585D03*
X90067400Y-91316585D03*
X90067400Y-90516585D03*
X90067400Y-89716585D03*
X90867400Y-104116585D03*
X90867400Y-103316585D03*
X90867400Y-102516585D03*
X90867400Y-101716585D03*
X90867400Y-100916585D03*
X90867400Y-100116585D03*
X90867400Y-99316585D03*
X90867400Y-98516585D03*
X90867400Y-97716585D03*
X90867400Y-96916585D03*
X90867400Y-96116585D03*
X90867400Y-95316585D03*
X90867400Y-94516585D03*
X90867400Y-93716585D03*
X90867400Y-92916585D03*
X90867400Y-92116585D03*
X90867400Y-91316585D03*
X90867400Y-90516585D03*
X90867400Y-89716585D03*
X91667400Y-104116585D03*
X91667400Y-103316585D03*
X91667400Y-102516585D03*
X91667400Y-101716585D03*
X91667400Y-100916585D03*
X91667400Y-100116585D03*
X91667400Y-99316585D03*
X91667400Y-98516585D03*
X91667400Y-97716585D03*
X91667400Y-96916585D03*
X91667400Y-96116585D03*
X91667400Y-95316585D03*
X91667400Y-94516585D03*
X91667400Y-93716585D03*
X91667400Y-92916585D03*
X91667400Y-92116585D03*
X91667400Y-91316585D03*
X91667400Y-90516585D03*
X91667400Y-89716585D03*
X92467400Y-104116585D03*
X92467400Y-103316585D03*
X92467400Y-102516585D03*
X92467400Y-101716585D03*
X92467400Y-100916585D03*
X92467400Y-100116585D03*
X92467400Y-99316585D03*
X92467400Y-98516585D03*
X92467400Y-97716585D03*
X92467400Y-96916585D03*
X92467400Y-96116585D03*
X92467400Y-95316585D03*
X92467400Y-94516585D03*
X92467400Y-93716585D03*
X92467400Y-92916585D03*
X92467400Y-92116585D03*
X92467400Y-91316585D03*
X92467400Y-90516585D03*
X92467400Y-89716585D03*
X93267400Y-104116585D03*
X93267400Y-103316585D03*
X93267400Y-102516585D03*
X93267400Y-101716585D03*
X93267400Y-100916585D03*
X93267400Y-100116585D03*
X93267400Y-99316585D03*
X93267400Y-98516585D03*
X93267400Y-97716585D03*
X93267400Y-96916585D03*
X93267400Y-96116585D03*
X93267400Y-95316585D03*
X93267400Y-94516585D03*
X93267400Y-93716585D03*
X93267400Y-92916585D03*
X93267400Y-92116585D03*
X93267400Y-91316585D03*
X93267400Y-90516585D03*
X94067400Y-104116585D03*
X94067400Y-103316585D03*
X94067400Y-102516585D03*
X94067400Y-101716585D03*
X94067400Y-100916585D03*
X94067400Y-100116585D03*
X94067400Y-99316585D03*
X94067400Y-98516585D03*
X94067400Y-97716585D03*
X94067400Y-96916585D03*
X94067400Y-96116585D03*
X94067400Y-95316585D03*
X94067400Y-94516585D03*
X94067400Y-93716585D03*
X94067400Y-92916585D03*
X94067400Y-91316585D03*
X94067400Y-90516585D03*
X94067400Y-89716585D03*
X94867400Y-104116585D03*
X94867400Y-103316585D03*
X94867400Y-102516585D03*
X94867400Y-101716585D03*
X94867400Y-100916585D03*
X94867400Y-100116585D03*
X94867400Y-99316585D03*
X94867400Y-98516585D03*
X94867400Y-97716585D03*
X94867400Y-96916585D03*
X94867400Y-96116585D03*
X94867400Y-95316585D03*
X94867400Y-94516585D03*
X94867400Y-93716585D03*
X94867400Y-92916585D03*
X94867400Y-92116585D03*
X94867400Y-91316585D03*
X94867400Y-90516585D03*
X94867400Y-89716585D03*
X95667400Y-104116585D03*
X95667400Y-103316585D03*
X95667400Y-102516585D03*
X95667400Y-101716585D03*
X95667400Y-100916585D03*
X95667400Y-100116585D03*
X95667400Y-99316585D03*
X95667400Y-98516585D03*
X95667400Y-97716585D03*
X95667400Y-96916585D03*
X95667400Y-96116585D03*
X95667400Y-95316585D03*
X95667400Y-94516585D03*
X95667400Y-93716585D03*
X95667400Y-92916585D03*
X95667400Y-91316585D03*
X95667400Y-90516585D03*
X95667400Y-89716585D03*
X96467400Y-104116585D03*
X96467400Y-103316585D03*
X96467400Y-102516585D03*
X96467400Y-101716585D03*
X96467400Y-100916585D03*
X96467400Y-100116585D03*
X96467400Y-99316585D03*
X96467400Y-98516585D03*
X96467400Y-97716585D03*
X96467400Y-96916585D03*
X96467400Y-96116585D03*
X96467400Y-95316585D03*
X96467400Y-94516585D03*
X96467400Y-93716585D03*
X96467400Y-92916585D03*
X96467400Y-92116585D03*
X96467400Y-91316585D03*
X96467400Y-90516585D03*
X96467400Y-89716585D03*
X97267400Y-104116585D03*
X97267400Y-103316585D03*
X97267400Y-102516585D03*
X97267400Y-101716585D03*
X97267400Y-100916585D03*
X97267400Y-100116585D03*
X97267400Y-99316585D03*
X97267400Y-98516585D03*
X97267400Y-97716585D03*
X97267400Y-96916585D03*
X97267400Y-96116585D03*
X97267400Y-95316585D03*
X97267400Y-94516585D03*
X97267400Y-93716585D03*
X97267400Y-92916585D03*
X97267400Y-91316585D03*
X97267400Y-90516585D03*
X97267400Y-89716585D03*
X98067400Y-104116585D03*
X98067400Y-103316585D03*
X98067400Y-102516585D03*
X98067400Y-101716585D03*
X98067400Y-100916585D03*
X98067400Y-100116585D03*
X98067400Y-99316585D03*
X98067400Y-98516585D03*
X98067400Y-97716585D03*
X98067400Y-96916585D03*
X98067400Y-96116585D03*
X98067400Y-95316585D03*
X98067400Y-94516585D03*
X98067400Y-93716585D03*
X98067400Y-92916585D03*
X98067400Y-92116585D03*
X98067400Y-91316585D03*
X98067400Y-90516585D03*
X98067400Y-89716585D03*
X98867400Y-104116585D03*
X98867400Y-103316585D03*
X98867400Y-102516585D03*
X98867400Y-101716585D03*
X98867400Y-100916585D03*
X98867400Y-100116585D03*
X98867400Y-99316585D03*
X98867400Y-98516585D03*
X98867400Y-97716585D03*
X98867400Y-96916585D03*
X98867400Y-96116585D03*
X98867400Y-95316585D03*
X98867400Y-94516585D03*
X98867400Y-93716585D03*
X98867400Y-92916585D03*
X98867400Y-91316585D03*
X98867400Y-90516585D03*
X98867400Y-89716585D03*
X99667400Y-104116585D03*
X99667400Y-103316585D03*
X99667400Y-102516585D03*
X99667400Y-101716585D03*
X99667400Y-100916585D03*
X99667400Y-100116585D03*
X99667400Y-99316585D03*
X99667400Y-98516585D03*
X99667400Y-97716585D03*
X99667400Y-96916585D03*
X99667400Y-96116585D03*
X99667400Y-95316585D03*
X99667400Y-94516585D03*
X99667400Y-93716585D03*
X99667400Y-92916585D03*
X99667400Y-92116585D03*
X99667400Y-91316585D03*
X99667400Y-90516585D03*
X99667400Y-89716585D03*
X100467400Y-104116585D03*
X100467400Y-103316585D03*
X100467400Y-102516585D03*
X100467400Y-101716585D03*
X100467400Y-100916585D03*
X100467400Y-100116585D03*
X100467400Y-99316585D03*
X100467400Y-98516585D03*
X100467400Y-97716585D03*
X100467400Y-96916585D03*
X100467400Y-96116585D03*
X100467400Y-95316585D03*
X100467400Y-94516585D03*
X100467400Y-93716585D03*
X100467400Y-92916585D03*
X100467400Y-91316585D03*
X100467400Y-90516585D03*
X100467400Y-89716585D03*
X101267400Y-104116585D03*
X101267400Y-103316585D03*
X101267400Y-102516585D03*
X101267400Y-101716585D03*
X101267400Y-100916585D03*
X101267400Y-100116585D03*
X101267400Y-99316585D03*
X101267400Y-98516585D03*
X101267400Y-97716585D03*
X101267400Y-96916585D03*
X101267400Y-96116585D03*
X101267400Y-95316585D03*
X101267400Y-94516585D03*
X101267400Y-93716585D03*
X101267400Y-92916585D03*
X101267400Y-92116585D03*
X101267400Y-91316585D03*
X101267400Y-90516585D03*
X102067400Y-104116585D03*
X102067400Y-103316585D03*
X102067400Y-102516585D03*
X102067400Y-101716585D03*
X102067400Y-100916585D03*
X102067400Y-100116585D03*
X102067400Y-99316585D03*
X102067400Y-98516585D03*
X102067400Y-97716585D03*
X102067400Y-96916585D03*
X102067400Y-96116585D03*
X102067400Y-95316585D03*
X102067400Y-94516585D03*
X102067400Y-93716585D03*
X102067400Y-92916585D03*
X102067400Y-92116585D03*
X102067400Y-91316585D03*
X102067400Y-90516585D03*
X102067400Y-89716585D03*
X102867400Y-104116585D03*
X102867400Y-103316585D03*
X102867400Y-102516585D03*
X102867400Y-101716585D03*
X102867400Y-100916585D03*
X102867400Y-100116585D03*
X102867400Y-99316585D03*
X102867400Y-98516585D03*
X102867400Y-97716585D03*
X102867400Y-96916585D03*
X102867400Y-96116585D03*
X102867400Y-95316585D03*
X102867400Y-94516585D03*
X102867400Y-93716585D03*
X102867400Y-92916585D03*
X102867400Y-92116585D03*
X102867400Y-91316585D03*
X102867400Y-90516585D03*
X102867400Y-89716585D03*
X103667400Y-104116585D03*
X103667400Y-103316585D03*
X103667400Y-102516585D03*
X103667400Y-101716585D03*
X103667400Y-100916585D03*
X103667400Y-100116585D03*
X103667400Y-99316585D03*
X103667400Y-98516585D03*
X103667400Y-97716585D03*
X103667400Y-96916585D03*
X103667400Y-96116585D03*
X103667400Y-95316585D03*
X103667400Y-94516585D03*
X103667400Y-93716585D03*
X103667400Y-92916585D03*
X103667400Y-92116585D03*
X103667400Y-91316585D03*
X103667400Y-90516585D03*
X103667400Y-89716585D03*
X104467400Y-104116585D03*
X104467400Y-103316585D03*
X104467400Y-102516585D03*
X104467400Y-101716585D03*
X104467400Y-100916585D03*
X104467400Y-100116585D03*
X104467400Y-99316585D03*
X104467400Y-98516585D03*
X104467400Y-97716585D03*
X104467400Y-96916585D03*
X104467400Y-96116585D03*
X104467400Y-95316585D03*
X104467400Y-94516585D03*
X104467400Y-93716585D03*
X104467400Y-92916585D03*
X104467400Y-92116585D03*
X104467400Y-91316585D03*
X104467400Y-90516585D03*
X104467400Y-89716585D03*
%TD*%
D14*
%TO.C,C405*%
X89200000Y-71250000D03*
X89200000Y-70350000D03*
%TD*%
D22*
%TO.C,R909*%
X76610000Y-122760000D03*
X75590000Y-122760000D03*
%TD*%
%TO.C,R701*%
X108710000Y-120480000D03*
X107690000Y-120480000D03*
%TD*%
D16*
%TO.C,C1004*%
X93550000Y-67000000D03*
X92650000Y-67000000D03*
%TD*%
D14*
%TO.C,C1003*%
X85200000Y-84250000D03*
X85200000Y-85150000D03*
%TD*%
D17*
%TO.C,C221*%
X69040000Y-97185000D03*
X70590000Y-97185000D03*
%TD*%
%TO.C,C220*%
X76790000Y-96935000D03*
X78340000Y-96935000D03*
%TD*%
D15*
%TO.C,C206*%
X75790000Y-109910000D03*
X75790000Y-108360000D03*
%TD*%
D26*
%TO.C,Q201*%
X81097500Y-101410000D03*
X81097500Y-102410000D03*
X82387500Y-101910000D03*
%TD*%
D22*
%TO.C,R911*%
X76610000Y-121760000D03*
X75590000Y-121760000D03*
%TD*%
D27*
%TO.C,R606*%
X85601000Y-101490000D03*
X85601000Y-102510000D03*
%TD*%
D17*
%TO.C,C208*%
X68465000Y-100835000D03*
X70015000Y-100835000D03*
%TD*%
D14*
%TO.C,C431*%
X102767400Y-70366585D03*
X102767400Y-71266585D03*
%TD*%
D28*
%TO.C,D1001*%
X69350000Y-67000000D03*
X71450000Y-67000000D03*
%TD*%
D29*
%TO.C,U901*%
X73990000Y-118160000D03*
X73990000Y-119260000D03*
X73990000Y-120360000D03*
X73990000Y-121460000D03*
X73990000Y-122560000D03*
X73990000Y-123660000D03*
X73990000Y-124760000D03*
X73990000Y-125860000D03*
X73990000Y-126960000D03*
X72890000Y-118160000D03*
X72890000Y-119260000D03*
X72890000Y-120360000D03*
X72890000Y-121460000D03*
X72890000Y-122560000D03*
X72890000Y-123660000D03*
X72890000Y-124760000D03*
X72890000Y-125860000D03*
X72890000Y-126960000D03*
X71790000Y-118160000D03*
X71790000Y-119260000D03*
X71790000Y-121460000D03*
X71790000Y-122560000D03*
X71790000Y-123660000D03*
X71790000Y-125860000D03*
X71790000Y-126960000D03*
X70690000Y-118160000D03*
X70690000Y-119260000D03*
X70690000Y-120360000D03*
X70690000Y-124760000D03*
X70690000Y-125860000D03*
X70690000Y-126960000D03*
X69590000Y-118160000D03*
X69590000Y-119260000D03*
X69590000Y-120360000D03*
X69590000Y-122010000D03*
X69590000Y-123110000D03*
X69590000Y-124760000D03*
X69590000Y-125860000D03*
X69590000Y-126960000D03*
X68490000Y-118160000D03*
X68490000Y-119260000D03*
X68490000Y-120360000D03*
X68490000Y-122010000D03*
X68490000Y-123110000D03*
X68490000Y-124760000D03*
X68490000Y-125860000D03*
X68490000Y-126960000D03*
X67390000Y-118160000D03*
X67390000Y-119260000D03*
X67390000Y-120360000D03*
X67390000Y-122010000D03*
X67390000Y-123110000D03*
X67390000Y-124760000D03*
X67390000Y-125860000D03*
X67390000Y-126960000D03*
X66290000Y-118160000D03*
X66290000Y-119260000D03*
X66290000Y-120360000D03*
X66290000Y-122010000D03*
X66290000Y-123110000D03*
X66290000Y-124760000D03*
X66290000Y-125860000D03*
X66290000Y-126960000D03*
X65190000Y-118160000D03*
X65190000Y-119260000D03*
X65190000Y-120360000D03*
X65190000Y-122010000D03*
X65190000Y-123110000D03*
X65190000Y-124760000D03*
X65190000Y-125860000D03*
X65190000Y-126960000D03*
X64090000Y-118160000D03*
X64090000Y-119260000D03*
X64090000Y-120360000D03*
X64090000Y-121460000D03*
X64090000Y-122560000D03*
X64090000Y-123660000D03*
X64090000Y-124760000D03*
X64090000Y-125860000D03*
X64090000Y-126960000D03*
X62590000Y-118160000D03*
X62590000Y-126960000D03*
X61090000Y-118160000D03*
X61090000Y-119260000D03*
X61090000Y-125860000D03*
X61090000Y-126960000D03*
%TD*%
D23*
%TO.C,R708*%
X94690000Y-109290000D03*
X94690000Y-108270000D03*
%TD*%
D14*
%TO.C,C404*%
X106700000Y-81250000D03*
X106700000Y-82150000D03*
%TD*%
D16*
%TO.C,C1001*%
X67550000Y-61100000D03*
X68450000Y-61100000D03*
%TD*%
%TO.C,C219*%
X80150000Y-103662500D03*
X79250000Y-103662500D03*
%TD*%
%TO.C,C212*%
X69315000Y-103535000D03*
X70215000Y-103535000D03*
%TD*%
D14*
%TO.C,C703*%
X95690000Y-109220000D03*
X95690000Y-108320000D03*
%TD*%
%TO.C,C704*%
X95690000Y-106430000D03*
X95690000Y-107330000D03*
%TD*%
D16*
%TO.C,C217*%
X69315000Y-106235000D03*
X70215000Y-106235000D03*
%TD*%
D30*
%TO.C,D602*%
X102200000Y-109070000D03*
X101230000Y-109070000D03*
%TD*%
D14*
%TO.C,C701*%
X108710000Y-122290000D03*
X108710000Y-121390000D03*
%TD*%
D23*
%TO.C,R906*%
X77870000Y-118560000D03*
X77870000Y-117540000D03*
%TD*%
D31*
%TO.C,L204*%
X77865000Y-108585000D03*
X77865000Y-110735000D03*
%TD*%
D27*
%TO.C,R1004*%
X66225000Y-61290000D03*
X66225000Y-62310000D03*
%TD*%
D32*
%TO.C,H101*%
X61395000Y-88785000D03*
X61988109Y-87353109D03*
X61988109Y-90216891D03*
X63420000Y-86760000D03*
D33*
X63420000Y-88785000D03*
D32*
X63420000Y-90810000D03*
X64851891Y-87353109D03*
X64851891Y-90216891D03*
X65445000Y-88785000D03*
%TD*%
D27*
%TO.C,R903*%
X77570000Y-124320000D03*
X77570000Y-125340000D03*
%TD*%
D34*
%TO.C,U202*%
X77200000Y-101700000D03*
X76800000Y-101700000D03*
X76400000Y-101700000D03*
X76000000Y-101700000D03*
X75600000Y-101700000D03*
X75200000Y-101700000D03*
X74800000Y-101700000D03*
X74400000Y-101700000D03*
X74000000Y-101700000D03*
X73600000Y-101700000D03*
X73200000Y-101700000D03*
X72800000Y-101700000D03*
D35*
X72065000Y-102335000D03*
X72065000Y-102735000D03*
X72065000Y-103135000D03*
X72065000Y-103535000D03*
X72065000Y-103935000D03*
X72065000Y-104335000D03*
X72065000Y-104735000D03*
X72065000Y-105135000D03*
X72065000Y-105535000D03*
X72065000Y-105935000D03*
D34*
X72800000Y-106570000D03*
X73200000Y-106570000D03*
X73600000Y-106570000D03*
X74000000Y-106570000D03*
X74400000Y-106570000D03*
X74800000Y-106570000D03*
X75200000Y-106570000D03*
X75600000Y-106570000D03*
X76000000Y-106570000D03*
X76400000Y-106570000D03*
X76800000Y-106570000D03*
X77200000Y-106570000D03*
D35*
X77935000Y-105935000D03*
X77935000Y-105535000D03*
X77935000Y-105135000D03*
X77935000Y-104735000D03*
X77935000Y-104335000D03*
X77935000Y-103935000D03*
X77935000Y-103535000D03*
X77935000Y-103135000D03*
X77935000Y-102735000D03*
X77935000Y-102335000D03*
D36*
X75000000Y-104135000D03*
%TD*%
D16*
%TO.C,C211*%
X80150000Y-105562500D03*
X79250000Y-105562500D03*
%TD*%
D37*
%TO.C,L203*%
X72640000Y-99435000D03*
X72640000Y-97285000D03*
%TD*%
D14*
%TO.C,C407*%
X102700000Y-68700000D03*
X102700000Y-69600000D03*
%TD*%
%TO.C,C1005*%
X85600000Y-81400000D03*
X85600000Y-82300000D03*
%TD*%
%TO.C,C408*%
X102767400Y-78366585D03*
X102767400Y-77466585D03*
%TD*%
D27*
%TO.C,R605*%
X84601000Y-101490000D03*
X84601000Y-102510000D03*
%TD*%
D38*
%TO.C,C202*%
X66995000Y-110760000D03*
X65445000Y-110760000D03*
%TD*%
D16*
%TO.C,C218*%
X69315000Y-107135000D03*
X70215000Y-107135000D03*
%TD*%
D14*
%TO.C,C409*%
X91920000Y-75992828D03*
X91920000Y-75092828D03*
%TD*%
D22*
%TO.C,R1010*%
X81560000Y-68250000D03*
X80540000Y-68250000D03*
%TD*%
D14*
%TO.C,R202*%
X80140000Y-102320000D03*
X80140000Y-101420000D03*
%TD*%
%TO.C,C201*%
X64300000Y-111610000D03*
X64300000Y-112510000D03*
%TD*%
D39*
%TO.C,L202*%
X76315000Y-99035000D03*
X78465000Y-99035000D03*
%TD*%
D16*
%TO.C,C402*%
X98950000Y-66900000D03*
X99850000Y-66900000D03*
%TD*%
D40*
%TO.C,J501*%
X70870000Y-70220000D03*
D41*
X82020000Y-70620000D03*
D42*
X83145000Y-72425000D03*
X83145000Y-80205000D03*
D40*
X82350000Y-84510000D03*
D43*
X71020000Y-84510000D03*
D44*
X70390000Y-80265000D03*
X70390000Y-79165000D03*
X70390000Y-78065000D03*
X70390000Y-76965000D03*
X70390000Y-75865000D03*
X70390000Y-74765000D03*
X70390000Y-73665000D03*
X70390000Y-72565000D03*
D45*
X73020000Y-70620000D03*
%TD*%
D23*
%TO.C,R1003*%
X99190000Y-63497500D03*
X99190000Y-62477500D03*
%TD*%
D46*
%TO.C,U201*%
X65525000Y-112030000D03*
X65525000Y-112530000D03*
X65525000Y-113030000D03*
X65525000Y-113530000D03*
X66895000Y-113530000D03*
X66895000Y-113030000D03*
X66895000Y-112530000D03*
X66895000Y-112030000D03*
%TD*%
D21*
%TO.C,R1006*%
X103390000Y-61100000D03*
X104410000Y-61100000D03*
%TD*%
D14*
%TO.C,C406*%
X88820000Y-80710000D03*
X88820000Y-81610000D03*
%TD*%
D21*
%TO.C,R710*%
X98590000Y-109290000D03*
X99610000Y-109290000D03*
%TD*%
%TO.C,R1002*%
X100240000Y-61090000D03*
X101260000Y-61090000D03*
%TD*%
D14*
%TO.C,C429*%
X91940000Y-72860000D03*
X91940000Y-73760000D03*
%TD*%
D17*
%TO.C,C205*%
X69015000Y-99335000D03*
X70565000Y-99335000D03*
%TD*%
D47*
%TO.C,C204*%
X74690000Y-98060000D03*
X74690000Y-99610000D03*
%TD*%
D16*
%TO.C,C210*%
X69315000Y-105335000D03*
X70215000Y-105335000D03*
%TD*%
D17*
%TO.C,C223*%
X71515000Y-112335000D03*
X73065000Y-112335000D03*
%TD*%
D15*
%TO.C,C207*%
X71590000Y-110110000D03*
X71590000Y-108560000D03*
%TD*%
D48*
%TO.C,L201*%
X68900000Y-112600000D03*
X68900000Y-110880000D03*
%TD*%
D49*
%TO.C,L1001*%
X72300000Y-62300000D03*
X72300000Y-65100000D03*
%TD*%
D23*
%TO.C,R1008*%
X105500000Y-63522500D03*
X105500000Y-62502500D03*
%TD*%
D47*
%TO.C,C427*%
X104067400Y-69741585D03*
X104067400Y-71291585D03*
%TD*%
D14*
%TO.C,C1002*%
X68200000Y-66450000D03*
X68200000Y-67350000D03*
%TD*%
D16*
%TO.C,C213*%
X69315000Y-109010000D03*
X70215000Y-109010000D03*
%TD*%
D22*
%TO.C,R912*%
X76610000Y-120790000D03*
X75590000Y-120790000D03*
%TD*%
D23*
%TO.C,R1005*%
X102330000Y-63517500D03*
X102330000Y-62497500D03*
%TD*%
%TO.C,R901*%
X78580000Y-121030000D03*
X78580000Y-120010000D03*
%TD*%
D38*
%TO.C,C215*%
X70015000Y-102335000D03*
X68465000Y-102335000D03*
%TD*%
D21*
%TO.C,R602*%
X101200000Y-108070000D03*
X102220000Y-108070000D03*
%TD*%
D31*
%TO.C,L205*%
X73690000Y-108585000D03*
X73690000Y-110735000D03*
%TD*%
D14*
%TO.C,C401*%
X106790000Y-90940000D03*
X106790000Y-91840000D03*
%TD*%
D17*
%TO.C,C222*%
X75715000Y-112335000D03*
X77265000Y-112335000D03*
%TD*%
D50*
%TO.C,L301*%
X103039999Y-106840000D03*
X101464999Y-106840000D03*
%TD*%
D51*
%TO.C,Y701*%
X96990000Y-108040000D03*
X98840000Y-108040000D03*
X98840000Y-106590000D03*
X96990000Y-106590000D03*
%TD*%
D14*
%TO.C,C705*%
X100000000Y-107320000D03*
X100000000Y-106420000D03*
%TD*%
D22*
%TO.C,R908*%
X76610000Y-119810000D03*
X75590000Y-119810000D03*
%TD*%
D52*
%TO.C,D601*%
X103100000Y-109050000D03*
X104070000Y-109050000D03*
%TD*%
D23*
%TO.C,R1009*%
X97200000Y-66910000D03*
X97200000Y-65890000D03*
%TD*%
%TO.C,R904*%
X77590000Y-123370000D03*
X77590000Y-122350000D03*
%TD*%
D14*
%TO.C,C428*%
X102767400Y-81966585D03*
X102767400Y-81066585D03*
%TD*%
%TO.C,C430*%
X91640000Y-79270000D03*
X91640000Y-80170000D03*
%TD*%
D27*
%TO.C,R905*%
X77600000Y-119480000D03*
X77600000Y-120500000D03*
%TD*%
D23*
%TO.C,R711*%
X94690000Y-107380000D03*
X94690000Y-106360000D03*
%TD*%
%TO.C,R201*%
X64320000Y-114350000D03*
X64320000Y-113330000D03*
%TD*%
D53*
%TO.C,J1001*%
X93100000Y-65550000D03*
X92600000Y-65550000D03*
X92100000Y-65550000D03*
X91600000Y-65550000D03*
X91100000Y-65550000D03*
X90600000Y-65550000D03*
X90100000Y-65550000D03*
X89600000Y-65550000D03*
X89100000Y-65550000D03*
X88600000Y-65550000D03*
X88100000Y-65550000D03*
X87600000Y-65550000D03*
X87100000Y-65550000D03*
X86600000Y-65550000D03*
X86100000Y-65550000D03*
X85600000Y-65550000D03*
X85100000Y-65550000D03*
X84600000Y-65550000D03*
X84100000Y-65550000D03*
X83600000Y-65550000D03*
X83100000Y-65550000D03*
X82600000Y-65550000D03*
X82100000Y-65550000D03*
X81600000Y-65550000D03*
X81100000Y-65550000D03*
X80600000Y-65550000D03*
X80100000Y-65550000D03*
X79600000Y-65550000D03*
X79100000Y-65550000D03*
X78600000Y-65550000D03*
D54*
X95000000Y-62300000D03*
X76700000Y-62300000D03*
%TD*%
D22*
%TO.C,R907*%
X76610000Y-118810000D03*
X75590000Y-118810000D03*
%TD*%
D55*
%TO.C,U1001*%
X69674999Y-62324999D03*
X69025001Y-62324999D03*
X68374999Y-62324999D03*
X67725001Y-62324999D03*
X67725001Y-65275001D03*
X68374999Y-65275001D03*
X69025001Y-65275001D03*
X69674999Y-65275001D03*
%TD*%
D21*
%TO.C,R1007*%
X106560000Y-61102500D03*
X107580000Y-61102500D03*
%TD*%
D22*
%TO.C,R910*%
X76610000Y-123760000D03*
X75590000Y-123760000D03*
%TD*%
D14*
%TO.C,C403*%
X106700000Y-75850000D03*
X106700000Y-74950000D03*
%TD*%
D16*
%TO.C,C216*%
X80150000Y-104562500D03*
X79250000Y-104562500D03*
%TD*%
D22*
%TO.C,R601*%
X104100000Y-108050000D03*
X103080000Y-108050000D03*
%TD*%
D16*
%TO.C,C214*%
X69315000Y-104435000D03*
X70215000Y-104435000D03*
%TD*%
D27*
%TO.C,R1001*%
X66250000Y-65390000D03*
X66250000Y-66410000D03*
%TD*%
D56*
%TO.C,R405*%
X96070624Y-85150624D03*
X95349376Y-84429376D03*
%TD*%
D22*
%TO.C,R709*%
X97690000Y-109290000D03*
X96670000Y-109290000D03*
%TD*%
D57*
%TO.C,J3*%
X107302500Y-104480000D03*
X107302500Y-108480000D03*
%TD*%
D16*
%TO.C,C7*%
X104530000Y-120940000D03*
X105430000Y-120940000D03*
%TD*%
D27*
%TO.C,R3*%
X70700000Y-115590000D03*
X70700000Y-116610000D03*
%TD*%
D19*
%TO.C,J1*%
X98660000Y-122187500D03*
X99460000Y-122187500D03*
D20*
X100610000Y-122187500D03*
X101610000Y-122187500D03*
X102110000Y-122187500D03*
X103110000Y-122187500D03*
D19*
X105060000Y-122187500D03*
X104260000Y-122187500D03*
D20*
X103610000Y-122187500D03*
X102610000Y-122187500D03*
X101110000Y-122187500D03*
X100110000Y-122187500D03*
%TD*%
D16*
%TO.C,C8*%
X105430000Y-120120000D03*
X104530000Y-120120000D03*
%TD*%
%TO.C,C5*%
X69250000Y-114700000D03*
X68350000Y-114700000D03*
%TD*%
D58*
%TO.C,S1*%
X108810000Y-119050000D03*
X108810000Y-115650000D03*
%TD*%
D23*
%TO.C,R5*%
X100450000Y-120950000D03*
X100450000Y-119930000D03*
%TD*%
D59*
%TO.C,U402*%
X93967400Y-69716585D03*
X94767400Y-69716585D03*
X95567400Y-69716585D03*
X98767400Y-69716585D03*
X99567400Y-69716585D03*
X100367400Y-69716585D03*
X93967400Y-70516585D03*
X94767400Y-70516585D03*
X95567400Y-70516585D03*
X98767400Y-70516585D03*
X99567400Y-70516585D03*
X100367400Y-70516585D03*
X93967400Y-71316585D03*
X94767400Y-71316585D03*
X95567400Y-71316585D03*
X98767400Y-71316585D03*
X99567400Y-71316585D03*
X100367400Y-71316585D03*
X93967400Y-72116585D03*
X94767400Y-72116585D03*
X95567400Y-72116585D03*
X98767400Y-72116585D03*
X99567400Y-72116585D03*
X100367400Y-72116585D03*
X93967400Y-72916585D03*
X94767400Y-72916585D03*
X95567400Y-72916585D03*
X98767400Y-72916585D03*
X99567400Y-72916585D03*
X100367400Y-72916585D03*
X93967400Y-73716585D03*
X94767400Y-73716585D03*
X95567400Y-73716585D03*
X98767400Y-73716585D03*
X99567400Y-73716585D03*
X100367400Y-73716585D03*
X93967400Y-74516585D03*
X94767400Y-74516585D03*
X95567400Y-74516585D03*
X98767400Y-74516585D03*
X99567400Y-74516585D03*
X100367400Y-74516585D03*
X93967400Y-75316585D03*
X94767400Y-75316585D03*
X95567400Y-75316585D03*
X98767400Y-75316585D03*
X99567400Y-75316585D03*
X100367400Y-75316585D03*
X93967400Y-76116585D03*
X94767400Y-76116585D03*
X95567400Y-76116585D03*
X98767400Y-76116585D03*
X99567400Y-76116585D03*
X100367400Y-76116585D03*
X93967400Y-76916585D03*
X94767400Y-76916585D03*
X95567400Y-76916585D03*
X98767400Y-76916585D03*
X99567400Y-76916585D03*
X100367400Y-76916585D03*
X93967400Y-77716585D03*
X94767400Y-77716585D03*
X95567400Y-77716585D03*
X98767400Y-77716585D03*
X99567400Y-77716585D03*
X100367400Y-77716585D03*
X93967400Y-78516585D03*
X94767400Y-78516585D03*
X95567400Y-78516585D03*
X98767400Y-78516585D03*
X99567400Y-78516585D03*
X100367400Y-78516585D03*
X93967400Y-79316585D03*
X94767400Y-79316585D03*
X95567400Y-79316585D03*
X98767400Y-79316585D03*
X99567400Y-79316585D03*
X100367400Y-79316585D03*
X93967400Y-80116585D03*
X94767400Y-80116585D03*
X95567400Y-80116585D03*
X98767400Y-80116585D03*
X99567400Y-80116585D03*
X100367400Y-80116585D03*
X93967400Y-80916585D03*
X94767400Y-80916585D03*
X95567400Y-80916585D03*
X98767400Y-80916585D03*
X99567400Y-80916585D03*
X100367400Y-80916585D03*
X93967400Y-81716585D03*
X94767400Y-81716585D03*
X95567400Y-81716585D03*
X98767400Y-81716585D03*
X99567400Y-81716585D03*
X100367400Y-81716585D03*
%TD*%
D60*
%TO.C,D7*%
X95050000Y-119575000D03*
X95050000Y-120545000D03*
%TD*%
D61*
%TO.C,S2*%
X61330000Y-101630000D03*
X61330000Y-105030000D03*
%TD*%
D38*
%TO.C,C3*%
X74435000Y-115420000D03*
X72885000Y-115420000D03*
%TD*%
D62*
%TO.C,U1*%
X68200000Y-116150000D03*
D63*
X68900000Y-116600000D03*
D62*
X69800000Y-116150000D03*
D63*
X69100000Y-115700000D03*
%TD*%
D14*
%TO.C,C6*%
X76410000Y-124640000D03*
X76410000Y-125540000D03*
%TD*%
D17*
%TO.C,C2*%
X76725000Y-126710000D03*
X78275000Y-126710000D03*
%TD*%
D64*
%TO.C,Q3*%
X107590000Y-62190000D03*
X106590000Y-62190000D03*
X107090000Y-63480000D03*
%TD*%
D22*
%TO.C,R1*%
X67050000Y-115650000D03*
X66030000Y-115650000D03*
%TD*%
D27*
%TO.C,R2*%
X71700000Y-115590000D03*
X71700000Y-116610000D03*
%TD*%
D17*
%TO.C,C9*%
X97595000Y-120620000D03*
X99145000Y-120620000D03*
%TD*%
D65*
%TO.C,D2*%
X104970000Y-106830000D03*
X104270000Y-106830000D03*
%TD*%
D23*
%TO.C,R7*%
X94020000Y-120570000D03*
X94020000Y-119550000D03*
%TD*%
D16*
%TO.C,C1*%
X65950000Y-116580000D03*
X66850000Y-116580000D03*
%TD*%
D23*
%TO.C,R4*%
X103650000Y-120960000D03*
X103650000Y-119940000D03*
%TD*%
D14*
%TO.C,C4*%
X75570000Y-126270000D03*
X75570000Y-127170000D03*
%TD*%
D66*
%TO.C,D5*%
X109130000Y-108060000D03*
X109130000Y-108760000D03*
%TD*%
D64*
%TO.C,Q1*%
X101260000Y-62145000D03*
X100260000Y-62145000D03*
X100760000Y-63435000D03*
%TD*%
%TO.C,Q2*%
X104420000Y-62145000D03*
X103420000Y-62145000D03*
X103920000Y-63435000D03*
%TD*%
M02*
