%TF.GenerationSoftware,KiCad,Pcbnew,9.0.7*%
%TF.CreationDate,2026-02-03T17:58:01-07:00*%
%TF.ProjectId,MPU_MOD,4d50555f-4d4f-4442-9e6b-696361645f70,rev?*%
%TF.SameCoordinates,Original*%
%TF.FileFunction,Copper,L6,Inr*%
%TF.FilePolarity,Positive*%
%FSLAX46Y46*%
G04 Gerber Fmt 4.6, Leading zero omitted, Abs format (unit mm)*
G04 Created by KiCad (PCBNEW 9.0.7) date 2026-02-03 17:58:01*
%MOMM*%
%LPD*%
G01*
G04 APERTURE LIST*
G04 Aperture macros list*
%AMFreePoly0*
4,1,229,0.026192,1.103996,0.026383,1.103985,0.052383,1.101985,0.052573,1.101967,0.078573,1.098967,0.078944,1.098910,0.104944,1.093910,0.105167,1.093862,0.130167,1.087862,0.130300,1.087828,0.156300,1.080828,0.156756,1.080682,0.180756,1.071682,0.180923,1.071615,0.204923,1.061615,0.205083,1.061545,0.229083,1.050545,0.229460,1.050353,0.252460,1.037353,0.252684,1.037218,
0.296684,1.009218,0.297030,1.008977,0.318030,0.992977,0.318238,0.992810,0.338238,0.975810,0.338439,0.975630,0.357439,0.957630,0.357630,0.957439,0.375630,0.938439,0.375810,0.938238,0.392810,0.918238,0.392977,0.918030,0.408977,0.897030,0.409218,0.896684,0.437218,0.852684,0.437353,0.852460,0.450353,0.829460,0.450545,0.829083,0.461545,0.805083,0.461615,0.804923,
0.471615,0.780923,0.471682,0.780756,0.480682,0.756756,0.480828,0.756300,0.487828,0.730300,0.487862,0.730167,0.493862,0.705167,0.493910,0.704944,0.498910,0.678944,0.498967,0.678573,0.501967,0.652573,0.501985,0.652383,0.503985,0.626383,0.503996,0.626192,0.504996,0.600192,0.505000,0.600000,0.505000,-0.600000,0.504996,-0.600192,0.503996,-0.626192,0.503985,-0.626383,
0.501985,-0.652383,0.501967,-0.652573,0.498967,-0.678573,0.498910,-0.678944,0.493910,-0.704944,0.493862,-0.705167,0.487862,-0.730167,0.487828,-0.730300,0.480828,-0.756300,0.480682,-0.756756,0.471682,-0.780756,0.471615,-0.780923,0.461615,-0.804923,0.461545,-0.805083,0.450545,-0.829083,0.450353,-0.829460,0.437353,-0.852460,0.437218,-0.852684,0.409218,-0.896684,0.408977,-0.897030,
0.392977,-0.918030,0.392810,-0.918238,0.375810,-0.938238,0.375630,-0.938439,0.357630,-0.957439,0.357439,-0.957630,0.338439,-0.975630,0.338238,-0.975810,0.318238,-0.992810,0.318030,-0.992977,0.297030,-1.008977,0.296684,-1.009218,0.252684,-1.037218,0.252460,-1.037353,0.229460,-1.050353,0.229083,-1.050545,0.205083,-1.061545,0.204923,-1.061615,0.180923,-1.071615,0.180756,-1.071682,
0.156756,-1.080682,0.156300,-1.080828,0.130300,-1.087828,0.130167,-1.087862,0.105167,-1.093862,0.104944,-1.093910,0.078944,-1.098910,0.078573,-1.098967,0.052573,-1.101967,0.052383,-1.101985,0.026383,-1.103985,0.026192,-1.103996,0.000192,-1.104996,-0.000192,-1.104996,-0.026192,-1.103996,-0.026383,-1.103985,-0.052383,-1.101985,-0.052573,-1.101967,-0.078573,-1.098967,-0.078944,-1.098910,
-0.104944,-1.093910,-0.105167,-1.093862,-0.130167,-1.087862,-0.130300,-1.087828,-0.156300,-1.080828,-0.156756,-1.080682,-0.180756,-1.071682,-0.180923,-1.071615,-0.204923,-1.061615,-0.205083,-1.061545,-0.229083,-1.050545,-0.229460,-1.050353,-0.252460,-1.037353,-0.252684,-1.037218,-0.296684,-1.009218,-0.297030,-1.008977,-0.318030,-0.992977,-0.318238,-0.992810,-0.338238,-0.975810,-0.338439,-0.975630,
-0.357439,-0.957630,-0.357630,-0.957439,-0.375630,-0.938439,-0.375810,-0.938238,-0.392810,-0.918238,-0.392977,-0.918030,-0.408977,-0.897030,-0.409218,-0.896684,-0.437218,-0.852684,-0.437353,-0.852460,-0.450353,-0.829460,-0.450545,-0.829083,-0.461545,-0.805083,-0.461615,-0.804923,-0.471615,-0.780923,-0.471682,-0.780756,-0.480682,-0.756756,-0.480828,-0.756300,-0.487828,-0.730300,-0.487862,-0.730167,
-0.493862,-0.705167,-0.493910,-0.704944,-0.498910,-0.678944,-0.498967,-0.678573,-0.501967,-0.652573,-0.501985,-0.652383,-0.503985,-0.626383,-0.503996,-0.626192,-0.504996,-0.600192,-0.505000,-0.600000,-0.505000,0.600000,-0.504996,0.600192,-0.503996,0.626192,-0.503985,0.626383,-0.501985,0.652383,-0.501967,0.652573,-0.498967,0.678573,-0.498910,0.678944,-0.493910,0.704944,-0.493862,0.705167,
-0.487862,0.730167,-0.487828,0.730300,-0.480828,0.756300,-0.480682,0.756756,-0.471682,0.780756,-0.471615,0.780923,-0.461615,0.804923,-0.461545,0.805083,-0.450545,0.829083,-0.450353,0.829460,-0.437353,0.852460,-0.437218,0.852684,-0.409218,0.896684,-0.408977,0.897030,-0.392977,0.918030,-0.392810,0.918238,-0.375810,0.938238,-0.375630,0.938439,-0.357630,0.957439,-0.357439,0.957630,
-0.338439,0.975630,-0.338238,0.975810,-0.318238,0.992810,-0.318030,0.992977,-0.297030,1.008977,-0.296684,1.009218,-0.252684,1.037218,-0.252460,1.037353,-0.229460,1.050353,-0.229083,1.050545,-0.205083,1.061545,-0.204923,1.061615,-0.180923,1.071615,-0.180756,1.071682,-0.156756,1.080682,-0.156300,1.080828,-0.130300,1.087828,-0.130167,1.087862,-0.105167,1.093862,-0.104944,1.093910,
-0.078944,1.098910,-0.078573,1.098967,-0.052573,1.101967,-0.052383,1.101985,-0.026383,1.103985,-0.026192,1.103996,-0.000192,1.104996,0.000192,1.104996,0.026192,1.103996,0.026192,1.103996,$1*%
%AMFreePoly1*
4,1,229,0.026192,0.903996,0.026383,0.903985,0.052383,0.901985,0.052573,0.901967,0.078573,0.898967,0.078944,0.898910,0.104944,0.893910,0.105167,0.893862,0.130167,0.887862,0.130300,0.887828,0.156300,0.880828,0.156756,0.880682,0.180756,0.871682,0.180923,0.871615,0.204923,0.861615,0.205083,0.861545,0.229083,0.850545,0.229460,0.850353,0.252460,0.837353,0.252684,0.837218,
0.296684,0.809218,0.297030,0.808977,0.318030,0.792977,0.318238,0.792810,0.338238,0.775810,0.338439,0.775630,0.357439,0.757630,0.357630,0.757439,0.375630,0.738439,0.375810,0.738238,0.392810,0.718238,0.392977,0.718030,0.408977,0.697030,0.409218,0.696684,0.437218,0.652684,0.437353,0.652460,0.450353,0.629460,0.450545,0.629083,0.461545,0.605083,0.461615,0.604923,
0.471615,0.580923,0.471682,0.580756,0.480682,0.556756,0.480828,0.556300,0.487828,0.530300,0.487862,0.530167,0.493862,0.505167,0.493910,0.504944,0.498910,0.478944,0.498967,0.478573,0.501967,0.452573,0.501985,0.452383,0.503985,0.426383,0.503996,0.426192,0.504996,0.400192,0.505000,0.400000,0.505000,-0.400000,0.504996,-0.400192,0.503996,-0.426192,0.503985,-0.426383,
0.501985,-0.452383,0.501967,-0.452573,0.498967,-0.478573,0.498910,-0.478944,0.493910,-0.504944,0.493862,-0.505167,0.487862,-0.530167,0.487828,-0.530300,0.480828,-0.556300,0.480682,-0.556756,0.471682,-0.580756,0.471615,-0.580923,0.461615,-0.604923,0.461545,-0.605083,0.450545,-0.629083,0.450353,-0.629460,0.437353,-0.652460,0.437218,-0.652684,0.409218,-0.696684,0.408977,-0.697030,
0.392977,-0.718030,0.392810,-0.718238,0.375810,-0.738238,0.375630,-0.738439,0.357630,-0.757439,0.357439,-0.757630,0.338439,-0.775630,0.338238,-0.775810,0.318238,-0.792810,0.318030,-0.792977,0.297030,-0.808977,0.296684,-0.809218,0.252684,-0.837218,0.252460,-0.837353,0.229460,-0.850353,0.229083,-0.850545,0.205083,-0.861545,0.204923,-0.861615,0.180923,-0.871615,0.180756,-0.871682,
0.156756,-0.880682,0.156300,-0.880828,0.130300,-0.887828,0.130167,-0.887862,0.105167,-0.893862,0.104944,-0.893910,0.078944,-0.898910,0.078573,-0.898967,0.052573,-0.901967,0.052383,-0.901985,0.026383,-0.903985,0.026192,-0.903996,0.000192,-0.904996,-0.000192,-0.904996,-0.026192,-0.903996,-0.026383,-0.903985,-0.052383,-0.901985,-0.052573,-0.901967,-0.078573,-0.898967,-0.078944,-0.898910,
-0.104944,-0.893910,-0.105167,-0.893862,-0.130167,-0.887862,-0.130300,-0.887828,-0.156300,-0.880828,-0.156756,-0.880682,-0.180756,-0.871682,-0.180923,-0.871615,-0.204923,-0.861615,-0.205083,-0.861545,-0.229083,-0.850545,-0.229460,-0.850353,-0.252460,-0.837353,-0.252684,-0.837218,-0.296684,-0.809218,-0.297030,-0.808977,-0.318030,-0.792977,-0.318238,-0.792810,-0.338238,-0.775810,-0.338439,-0.775630,
-0.357439,-0.757630,-0.357630,-0.757439,-0.375630,-0.738439,-0.375810,-0.738238,-0.392810,-0.718238,-0.392977,-0.718030,-0.408977,-0.697030,-0.409218,-0.696684,-0.437218,-0.652684,-0.437353,-0.652460,-0.450353,-0.629460,-0.450545,-0.629083,-0.461545,-0.605083,-0.461615,-0.604923,-0.471615,-0.580923,-0.471682,-0.580756,-0.480682,-0.556756,-0.480828,-0.556300,-0.487828,-0.530300,-0.487862,-0.530167,
-0.493862,-0.505167,-0.493910,-0.504944,-0.498910,-0.478944,-0.498967,-0.478573,-0.501967,-0.452573,-0.501985,-0.452383,-0.503985,-0.426383,-0.503996,-0.426192,-0.504996,-0.400192,-0.505000,-0.400000,-0.505000,0.400000,-0.504996,0.400192,-0.503996,0.426192,-0.503985,0.426383,-0.501985,0.452383,-0.501967,0.452573,-0.498967,0.478573,-0.498910,0.478944,-0.493910,0.504944,-0.493862,0.505167,
-0.487862,0.530167,-0.487828,0.530300,-0.480828,0.556300,-0.480682,0.556756,-0.471682,0.580756,-0.471615,0.580923,-0.461615,0.604923,-0.461545,0.605083,-0.450545,0.629083,-0.450353,0.629460,-0.437353,0.652460,-0.437218,0.652684,-0.409218,0.696684,-0.408977,0.697030,-0.392977,0.718030,-0.392810,0.718238,-0.375810,0.738238,-0.375630,0.738439,-0.357630,0.757439,-0.357439,0.757630,
-0.338439,0.775630,-0.338238,0.775810,-0.318238,0.792810,-0.318030,0.792977,-0.297030,0.808977,-0.296684,0.809218,-0.252684,0.837218,-0.252460,0.837353,-0.229460,0.850353,-0.229083,0.850545,-0.205083,0.861545,-0.204923,0.861615,-0.180923,0.871615,-0.180756,0.871682,-0.156756,0.880682,-0.156300,0.880828,-0.130300,0.887828,-0.130167,0.887862,-0.105167,0.893862,-0.104944,0.893910,
-0.078944,0.898910,-0.078573,0.898967,-0.052573,0.901967,-0.052383,0.901985,-0.026383,0.903985,-0.026192,0.903996,-0.000192,0.904996,0.000192,0.904996,0.026192,0.903996,0.026192,0.903996,$1*%
G04 Aperture macros list end*
%TA.AperFunction,ComponentPad*%
%ADD10FreePoly0,0.000000*%
%TD*%
%TA.AperFunction,ComponentPad*%
%ADD11FreePoly1,0.000000*%
%TD*%
%TA.AperFunction,ComponentPad*%
%ADD12C,0.800000*%
%TD*%
%TA.AperFunction,ComponentPad*%
%ADD13C,5.400000*%
%TD*%
%TA.AperFunction,ViaPad*%
%ADD14C,0.400000*%
%TD*%
%TA.AperFunction,Conductor*%
%ADD15C,0.500000*%
%TD*%
%TA.AperFunction,Conductor*%
%ADD16C,0.200000*%
%TD*%
%TA.AperFunction,Conductor*%
%ADD17C,0.118400*%
%TD*%
G04 APERTURE END LIST*
D10*
%TO.N,GND*%
%TO.C,J1101*%
X93520000Y-127410000D03*
D11*
X82280000Y-123410000D03*
X93520000Y-123410000D03*
D10*
X82280000Y-127410000D03*
%TD*%
D12*
%TO.N,GND*%
%TO.C,H101*%
X61395000Y-88785000D03*
X61988109Y-87353109D03*
X61988109Y-90216891D03*
X63420000Y-86760000D03*
D13*
X63420000Y-88785000D03*
D12*
X63420000Y-90810000D03*
X64851891Y-87353109D03*
X64851891Y-90216891D03*
X65445000Y-88785000D03*
%TD*%
D10*
%TO.N,GND*%
%TO.C,J1*%
X96240000Y-127410000D03*
D11*
X107480000Y-123410000D03*
X96240000Y-123410000D03*
D10*
X107480000Y-127410000D03*
%TD*%
D14*
%TO.N,Net-(U4A-VBAT)*%
X95260000Y-102920000D03*
X90580000Y-105980000D03*
%TO.N,Net-(U4A-VREF+)*%
X100090000Y-103740000D03*
%TO.N,Net-(U4A-VDD1V2_DSI_PHY)*%
X90450000Y-92595000D03*
%TO.N,Net-(U4A-VDDA1V1_REG)*%
X104060000Y-95735000D03*
%TO.N,Net-(U4A-VDDA1V8_DSI)*%
X91250000Y-94915000D03*
X103250000Y-95735000D03*
%TO.N,Net-(U4E-NRST_CORE)*%
X96080000Y-103730000D03*
%TO.N,Net-(U4E-BOOT0)*%
X96870000Y-103720000D03*
%TO.N,Net-(U4E-BOOT1)*%
X96890000Y-102070000D03*
%TO.N,Net-(U4E-BOOT2)*%
X97680000Y-103700000D03*
%TO.N,Net-(U4E-PWR_LP)*%
X100470000Y-105020000D03*
%TO.N,Net-(U4C-PA4)*%
X101675000Y-102100000D03*
X99550000Y-111200000D03*
X88300000Y-112720000D03*
%TO.N,Net-(U4C-PA5)*%
X99000000Y-110700000D03*
X100875000Y-102125000D03*
X90900000Y-114600000D03*
%TO.N,GND*%
X92650000Y-121300000D03*
X84700000Y-121950000D03*
X62590000Y-118160000D03*
X92079493Y-102104493D03*
X106400000Y-76600000D03*
X68500000Y-109200000D03*
X96170000Y-107030000D03*
X69285000Y-105335000D03*
X108750000Y-118160000D03*
X109130000Y-108760000D03*
X96130000Y-85210000D03*
X73355000Y-104155000D03*
X101750000Y-95700000D03*
X66200000Y-63800000D03*
X91250000Y-94015000D03*
X68400000Y-117300000D03*
X61090000Y-119260000D03*
X71020000Y-84510000D03*
X71090000Y-110850000D03*
X98950000Y-66900000D03*
X98466992Y-93316992D03*
X68377500Y-100835000D03*
X76700000Y-62300000D03*
X61090000Y-118160000D03*
X83145000Y-72425000D03*
X86250000Y-96440000D03*
X75715000Y-112335000D03*
X104530000Y-114660000D03*
X91550000Y-121300000D03*
X100890000Y-102940000D03*
X91286993Y-102896993D03*
X66800000Y-60200000D03*
X85200000Y-85150000D03*
X100350000Y-109310000D03*
X62590000Y-126960000D03*
X100940000Y-73730000D03*
X89100000Y-75100000D03*
X90110000Y-115600000D03*
X93260000Y-79030000D03*
X102500000Y-92500000D03*
X89100000Y-78700000D03*
X87170000Y-95290000D03*
X104050000Y-93335000D03*
X65590000Y-111580000D03*
X82020000Y-70620000D03*
X75355000Y-105155000D03*
X87060000Y-80530000D03*
X93550000Y-67000000D03*
X74600000Y-63200000D03*
X72950000Y-116600000D03*
X73990000Y-126960000D03*
X103270000Y-91720000D03*
X105650000Y-71200000D03*
X107586670Y-114609586D03*
X97810000Y-120600000D03*
X104500000Y-76500000D03*
X81900000Y-84600000D03*
X93550408Y-71699593D03*
X91250000Y-93250000D03*
X95000000Y-62300000D03*
X71890000Y-111650000D03*
X68502500Y-105335000D03*
X76410000Y-124640000D03*
X66200000Y-63000000D03*
X75390000Y-96935000D03*
X76355000Y-105155000D03*
X93666993Y-93316993D03*
X66220000Y-113030000D03*
X61090000Y-126960000D03*
X81550000Y-67300000D03*
X93450000Y-80440000D03*
X95276992Y-96506992D03*
X69285000Y-103535000D03*
X75570000Y-124610000D03*
X68555000Y-106955000D03*
X68180000Y-101530000D03*
X92900000Y-81690000D03*
X73990000Y-118160000D03*
X95286992Y-98096992D03*
X95170000Y-70100000D03*
X78950000Y-67300000D03*
X101780000Y-80160000D03*
X101786993Y-78416993D03*
X64300000Y-111140000D03*
X69400000Y-63800000D03*
X70390000Y-74765000D03*
X100070000Y-98090000D03*
X103210000Y-94885000D03*
X69290000Y-98535000D03*
X99520000Y-61110000D03*
X94790000Y-86520000D03*
X93970000Y-111220000D03*
X68490000Y-123110000D03*
X93500000Y-70150000D03*
X102767400Y-70336585D03*
X89200000Y-71250000D03*
X95301992Y-94881992D03*
X99170000Y-72520000D03*
X68800000Y-63800000D03*
X104270000Y-106830000D03*
X100800000Y-70930000D03*
X80180000Y-104562500D03*
X93670000Y-94920000D03*
X76790000Y-96935000D03*
X68377500Y-102335000D03*
X80180000Y-103662500D03*
X68502500Y-103535000D03*
X105890000Y-61100000D03*
X92100000Y-121300000D03*
X64090000Y-123660000D03*
X74600000Y-65600000D03*
X71090000Y-111650000D03*
X97600000Y-68800000D03*
X76355000Y-104155000D03*
X72885000Y-115420000D03*
X93670000Y-100510000D03*
X108810000Y-115650000D03*
X100090000Y-102130000D03*
X100051993Y-99731993D03*
X107320000Y-91320000D03*
X92060000Y-95710000D03*
X103271992Y-93311992D03*
X90100000Y-64450000D03*
X102700000Y-68700000D03*
X102470408Y-102119592D03*
X96870000Y-93320000D03*
X64300000Y-110070000D03*
X77601500Y-82095000D03*
X89100000Y-73100000D03*
X108890000Y-112892500D03*
X75570000Y-127170000D03*
X100060000Y-118320000D03*
X105350000Y-114660000D03*
X93350000Y-72916585D03*
X105430000Y-120120000D03*
X64310000Y-110600000D03*
X100029000Y-114010000D03*
X106440000Y-113430000D03*
X93666992Y-98116992D03*
X86050000Y-118300000D03*
X75450000Y-110635000D03*
X84100000Y-121300000D03*
X66290000Y-123110000D03*
X100840000Y-70120000D03*
X105990000Y-101620000D03*
X92080000Y-101300000D03*
X90050000Y-88980000D03*
X85600000Y-82300000D03*
X64090000Y-125860000D03*
X68200000Y-63800000D03*
X69290000Y-97935000D03*
X97750000Y-111220000D03*
X100890000Y-101290000D03*
X67550000Y-61100000D03*
X76125000Y-111535000D03*
X74690000Y-98060000D03*
X84100000Y-64450000D03*
X105990000Y-102440000D03*
X98486992Y-98096992D03*
X107330000Y-96990000D03*
X61330000Y-105030000D03*
X88820000Y-80710000D03*
X67200000Y-66400000D03*
X87730000Y-82130000D03*
X68350000Y-114700000D03*
X88600000Y-79600000D03*
X101680000Y-99720000D03*
X98030000Y-108040000D03*
X96090407Y-101339593D03*
X105650000Y-73200000D03*
X74600000Y-62400000D03*
X69015000Y-99335000D03*
X72890000Y-125860000D03*
X83000000Y-121300000D03*
X98460000Y-102910000D03*
X105060000Y-122187500D03*
X106700000Y-75850000D03*
X101550000Y-119670000D03*
X102910000Y-119660000D03*
X73355000Y-105155000D03*
X74600000Y-64800000D03*
X90760000Y-109100000D03*
X103280000Y-102930000D03*
X91250000Y-119700000D03*
X76355000Y-103155000D03*
X91250000Y-120500000D03*
X101680000Y-96510000D03*
X88980000Y-119770000D03*
X86930000Y-78870000D03*
X74600000Y-61600000D03*
X87950000Y-116680000D03*
X89540000Y-98250000D03*
X101000000Y-74516585D03*
X89100000Y-77000000D03*
X78275000Y-126710000D03*
X101820000Y-81815000D03*
X96100000Y-102140000D03*
X85290000Y-83460000D03*
X71515000Y-112335000D03*
X71890000Y-110850000D03*
X94480000Y-102120000D03*
X87100000Y-64450000D03*
X96870000Y-96500000D03*
X64090000Y-120360000D03*
X66450000Y-61290000D03*
X77601500Y-82915000D03*
X74690000Y-96935000D03*
X98451993Y-99731993D03*
X88730000Y-95710000D03*
X105430000Y-120940000D03*
X99209000Y-114010000D03*
X105700000Y-72200000D03*
X95270000Y-102110000D03*
X88600000Y-74000000D03*
X64990000Y-109920000D03*
X91000000Y-121300000D03*
X98660000Y-122187500D03*
X69035000Y-122555000D03*
X74355000Y-104155000D03*
X74540000Y-82095000D03*
X96870000Y-94920000D03*
X104910000Y-89450000D03*
X93671992Y-101311992D03*
X64090000Y-121460000D03*
X87950000Y-117500000D03*
X92860000Y-102140000D03*
X104040000Y-103720000D03*
X75355000Y-103155000D03*
X61360000Y-103340000D03*
X101655408Y-101304592D03*
X93650000Y-102920000D03*
X80180000Y-105562500D03*
X83145000Y-80205000D03*
X71700000Y-115590000D03*
X76125000Y-110635000D03*
X94440000Y-102910000D03*
X84650000Y-121300000D03*
X106700000Y-81250000D03*
X71590000Y-110110000D03*
X102480000Y-99710000D03*
X69285000Y-108035000D03*
X98486993Y-96496993D03*
X74540000Y-82915000D03*
X74060000Y-87430000D03*
X73355000Y-103155000D03*
X95266993Y-93316993D03*
X98466993Y-101316993D03*
X99240000Y-118320000D03*
X70870000Y-70220000D03*
X95690000Y-109220000D03*
X71590000Y-81995000D03*
X85720000Y-99130000D03*
X88160000Y-96820000D03*
X69040000Y-97185000D03*
X66860000Y-117260000D03*
X98520000Y-103740000D03*
X84080000Y-120040000D03*
X96881992Y-98101992D03*
X88760000Y-118360000D03*
X102900000Y-121250000D03*
X94360000Y-76530000D03*
X75990000Y-96935000D03*
X100091993Y-101291993D03*
X87120000Y-118430000D03*
X88600000Y-77800000D03*
X106870000Y-93730000D03*
X102465407Y-93314593D03*
X85600000Y-64450000D03*
X92900000Y-101300000D03*
X88600000Y-76100000D03*
X101656993Y-93326993D03*
X88600000Y-72200000D03*
X95254492Y-99729492D03*
X93690000Y-99715000D03*
X100041992Y-93341992D03*
X66200000Y-64600000D03*
X91300000Y-92545000D03*
X64320000Y-114350000D03*
X74355000Y-103155000D03*
X74600000Y-64000000D03*
X101700000Y-100520000D03*
X72890000Y-119260000D03*
X75450000Y-111535000D03*
X105700000Y-74200000D03*
X96866992Y-99716992D03*
X82975000Y-121875000D03*
X74355000Y-105155000D03*
X64090000Y-124760000D03*
X66290000Y-122010000D03*
X101920000Y-70120000D03*
X82600000Y-64500000D03*
X64980000Y-111580000D03*
X108710000Y-122290000D03*
X64090000Y-119260000D03*
X102720000Y-61100000D03*
X69590000Y-122010000D03*
X92866993Y-103716993D03*
X101240000Y-120120000D03*
X93656992Y-96526992D03*
X95870000Y-119570000D03*
X106400000Y-79900000D03*
X92700000Y-109020000D03*
X106400000Y-77600000D03*
X83550000Y-121300000D03*
X68225000Y-66425000D03*
X61090000Y-125860000D03*
X75790000Y-109910000D03*
X86790000Y-119740000D03*
X90470000Y-100510000D03*
X93420000Y-74516585D03*
X69370000Y-83355000D03*
X90456993Y-103726993D03*
X100070000Y-96500000D03*
X81760000Y-87500000D03*
X96865408Y-102914592D03*
X75355000Y-104155000D03*
X95870000Y-111220000D03*
X103250000Y-98120000D03*
X101680000Y-98110000D03*
X88600000Y-64450000D03*
X91100000Y-121950000D03*
X98481993Y-94901993D03*
%TO.N,VDD_USB*%
X104890000Y-95695000D03*
X79220000Y-104562500D03*
X104930000Y-93155000D03*
%TO.N,VDDA*%
X70245000Y-106235000D03*
%TO.N,3V3*%
X71100000Y-60700000D03*
X73700000Y-112700000D03*
X79665000Y-82575000D03*
X74790000Y-112100000D03*
X70245000Y-108035000D03*
X78580000Y-120010000D03*
X75460000Y-85925000D03*
X75570000Y-125510000D03*
X76725000Y-126710000D03*
X102320000Y-61680000D03*
X71700000Y-60700000D03*
X74790000Y-112700000D03*
X74570000Y-85915000D03*
X73700000Y-112100000D03*
X71100000Y-83375000D03*
X74195000Y-107395000D03*
X74250000Y-112100000D03*
X103080000Y-108050000D03*
X74250000Y-112700000D03*
X78400000Y-85915000D03*
X77330000Y-118050000D03*
X74250000Y-111500000D03*
X75570000Y-126270000D03*
X77590000Y-122350000D03*
X71640000Y-85905000D03*
X77600000Y-120500000D03*
X70500000Y-60700000D03*
X76410000Y-125540000D03*
X74790000Y-111500000D03*
X79290000Y-85925000D03*
X69900000Y-60700000D03*
X82220000Y-85925000D03*
X77570000Y-125340000D03*
X73700000Y-111500000D03*
X71800000Y-83375000D03*
%TO.N,VIN*%
X90300000Y-121950000D03*
X104530000Y-120120000D03*
X63710000Y-112510000D03*
X104530000Y-120970000D03*
X74925000Y-99400000D03*
X74400000Y-100615000D03*
X72465000Y-101160000D03*
X90300000Y-121400000D03*
X99370000Y-120620000D03*
X94020000Y-119550000D03*
X74475000Y-99825000D03*
X79220000Y-105562500D03*
X85500000Y-120100000D03*
X75500000Y-108600000D03*
X90350000Y-120500000D03*
X71590000Y-108560000D03*
X85500000Y-121950000D03*
X105652500Y-108980000D03*
X70245000Y-105335000D03*
X72015000Y-100785000D03*
X70565000Y-99335000D03*
X85500000Y-121375000D03*
X75750000Y-108100000D03*
X85500000Y-120775000D03*
X76050000Y-108575000D03*
X98850000Y-120610000D03*
X90350000Y-119700000D03*
X72955000Y-107455000D03*
%TO.N,VTT_DDR*%
X90050000Y-74000000D03*
X70015000Y-102335000D03*
X90050000Y-75050000D03*
X90050000Y-76100000D03*
%TO.N,VREF_DDR*%
X104860000Y-91680000D03*
X104450000Y-78390000D03*
X93110000Y-75316585D03*
X70245000Y-103535000D03*
%TO.N,VDD_DDR*%
X92980000Y-80100000D03*
X95140000Y-75690000D03*
X106700000Y-74950000D03*
X101780000Y-80916585D03*
X99266993Y-93316993D03*
X93540000Y-69190000D03*
X89200000Y-70350000D03*
X99150000Y-77290000D03*
X94371992Y-70911992D03*
X70800000Y-96400000D03*
X102800000Y-75370000D03*
X101920000Y-71296585D03*
X99850000Y-66900000D03*
X100851993Y-93331993D03*
X85600000Y-81400000D03*
X70015000Y-100835000D03*
X94460000Y-93265000D03*
X100890000Y-72530000D03*
X98440000Y-74920000D03*
X88820000Y-81610000D03*
X73675000Y-100900000D03*
X86930000Y-79770000D03*
X102780000Y-71291585D03*
X70175000Y-96400000D03*
X99950000Y-70110000D03*
X92850000Y-93300000D03*
X85200000Y-84250000D03*
X102700000Y-69600000D03*
X95150000Y-72500000D03*
X96066993Y-93316993D03*
X70490000Y-97185000D03*
X93370000Y-73590000D03*
X106700000Y-82150000D03*
X73300000Y-96400000D03*
X71425000Y-96400000D03*
X101820000Y-79390000D03*
X93540000Y-70920000D03*
X72050000Y-96400000D03*
X97666993Y-93316993D03*
X72675000Y-96400000D03*
X100880000Y-71720000D03*
%TO.N,VDD_CORE*%
X75600000Y-100935000D03*
X97671993Y-94911993D03*
X97670000Y-98140000D03*
X92880000Y-94890000D03*
X92835000Y-99715000D03*
X94455000Y-101315000D03*
X79500000Y-99000000D03*
X79490000Y-97775000D03*
X96060000Y-96500000D03*
X94440000Y-96500000D03*
X92835000Y-98115000D03*
X79490000Y-97175000D03*
X79489000Y-96575000D03*
X93700000Y-102100000D03*
X92870000Y-96510000D03*
X94465000Y-99715000D03*
X96060000Y-98100000D03*
X94466993Y-98116993D03*
X99264493Y-96519493D03*
X97670000Y-96520000D03*
X100874493Y-94909493D03*
X96076992Y-94906992D03*
X99230000Y-94920000D03*
X79490000Y-98375000D03*
X96061993Y-99721993D03*
X95275407Y-101324593D03*
%TO.N,VDD*%
X78450000Y-112100000D03*
X77125000Y-107450000D03*
X99256993Y-99726993D03*
X96800000Y-101250000D03*
X86760000Y-102630000D03*
X89680000Y-95725000D03*
X97650000Y-101310000D03*
X91410000Y-108530000D03*
X78990000Y-112100000D03*
X95200000Y-105900000D03*
X94470000Y-94920000D03*
X78450000Y-112700000D03*
X100030000Y-104480000D03*
X96810000Y-111220000D03*
X77900000Y-112100000D03*
X100841992Y-96541992D03*
X94920000Y-111220000D03*
X78950000Y-102880000D03*
X97656992Y-99726992D03*
X93030000Y-111220000D03*
X100861993Y-98121993D03*
X97670000Y-102130000D03*
X103039999Y-106840000D03*
X99270000Y-98130000D03*
X99270000Y-101310000D03*
X100870000Y-99700000D03*
X77900000Y-112700000D03*
X107100000Y-119900000D03*
X77900000Y-111500000D03*
X78450000Y-111500000D03*
X78990000Y-111500000D03*
X108890000Y-111540000D03*
%TO.N,NRST*%
X104420000Y-116450000D03*
X108530000Y-119110000D03*
X98240000Y-105410000D03*
X99070000Y-116220000D03*
%TO.N,I2C1_SDA*%
X81750000Y-72200000D03*
X83600000Y-70300000D03*
X91100000Y-66550000D03*
%TO.N,I2C1_SCL*%
X91600000Y-66950000D03*
X105510000Y-99070000D03*
X109180000Y-96280000D03*
%TO.N,Net-(U202-~{PONKEY})*%
X70890000Y-103960000D03*
X61380000Y-101652500D03*
%TO.N,SDMMC3_CMD*%
X89695000Y-102905000D03*
X78630000Y-121030000D03*
%TO.N,SDMMC3_D0*%
X89650000Y-102130000D03*
X78440000Y-118580000D03*
%TO.N,SDMMC3_D1*%
X92090000Y-100490000D03*
X78480000Y-119230000D03*
%TO.N,SDMMC3_D2*%
X92060000Y-99710000D03*
X78300000Y-123370000D03*
%TO.N,PWR_ON*%
X97800000Y-104750000D03*
X94030000Y-109320000D03*
X77905000Y-101655000D03*
%TO.N,/RCC_BOOT_RST_DEBUG/T_JTMS{slash}T_SWDIO*%
X92090000Y-93295000D03*
X82700000Y-96650000D03*
%TO.N,/RCC_BOOT_RST_DEBUG/T_JCLK{slash}T_SWCLK*%
X82100000Y-97100000D03*
X92120000Y-92475000D03*
%TO.N,/RCC_BOOT_RST_DEBUG/T_JTDO{slash}T_SWO*%
X82150000Y-97950000D03*
X92100000Y-93935000D03*
%TO.N,/RCC_BOOT_RST_DEBUG/T_JTDI{slash}NC*%
X81550000Y-99400000D03*
X92080000Y-94955000D03*
%TO.N,UART4_RX_STM*%
X98600000Y-117820000D03*
X107130000Y-94460000D03*
X107560000Y-99510000D03*
X102470000Y-94105000D03*
%TO.N,UART4_TX_STM*%
X104040000Y-100480000D03*
X98560000Y-118820000D03*
%TO.N,USB_D-*%
X87675000Y-118800000D03*
X87125000Y-120300000D03*
%TO.N,USB_D+*%
X87675000Y-120300000D03*
X88225000Y-118800000D03*
%TO.N,/DDR/DDR_A9*%
X94340000Y-80540000D03*
X94460000Y-91650000D03*
%TO.N,PMIC_PA0_WKUP_INTR*%
X101675000Y-102900000D03*
X77905000Y-101005000D03*
%TO.N,/DDR/DDR_DQ1*%
X95136993Y-71736993D03*
X89860000Y-87790000D03*
%TO.N,SDMMC1_D1*%
X70390000Y-72565000D03*
X87700000Y-95600000D03*
%TO.N,uSD_DETECT*%
X81340000Y-83440000D03*
X74707500Y-71192500D03*
%TO.N,/DDR/DDR_DQ4*%
X99960000Y-70920000D03*
X94080000Y-88240000D03*
%TO.N,/DDR/DDR_A7*%
X93350000Y-81280000D03*
X92850000Y-91580000D03*
%TO.N,/DDR/DDR_DQ7*%
X96137400Y-70296585D03*
X89940000Y-88390000D03*
%TO.N,/DDR/DDR_A5*%
X94390000Y-79740000D03*
X95290000Y-91690000D03*
%TO.N,/DDR/DDR_A4*%
X101330000Y-80500000D03*
X100842400Y-90891585D03*
%TO.N,SDMMC1_D0*%
X70350000Y-73700000D03*
X91230000Y-95740000D03*
%TO.N,/DDR/DDR_BA0*%
X94350000Y-78070000D03*
X94740000Y-89090000D03*
%TO.N,/DDR/DDR_A1*%
X99127400Y-79716585D03*
X98467400Y-91716585D03*
%TO.N,/DDR/DDR_A6*%
X101420000Y-81360000D03*
X100092400Y-91691585D03*
%TO.N,SDMMC1_D2*%
X92070000Y-96500000D03*
X70390000Y-80265000D03*
%TO.N,/DDR/DDR_DQ6*%
X98307400Y-72586585D03*
X92530000Y-88290000D03*
%TO.N,/DDR/DDR_WEN*%
X95990000Y-77290000D03*
X96857400Y-91706585D03*
%TO.N,/DDR/DDR_A14*%
X100017400Y-90916585D03*
X100790000Y-82940000D03*
%TO.N,/DDR/DDR_DQM0*%
X96150000Y-72580000D03*
X90470000Y-88380000D03*
%TO.N,/DDR/DDR_RASN*%
X97627400Y-90096585D03*
X95980000Y-75680000D03*
%TO.N,/DDR/DDR_A0*%
X95150000Y-78870000D03*
X95240000Y-90090000D03*
%TO.N,SYS_I2C4_SCL*%
X103270000Y-96550000D03*
X84600000Y-100650000D03*
X75990000Y-100535000D03*
%TO.N,/DDR/DDR_DQ2*%
X93060000Y-88280000D03*
X99167400Y-70136585D03*
%TO.N,/DDR/DDR_DQS0_P*%
X98110000Y-71080000D03*
X91250000Y-89330000D03*
%TO.N,/DDR/DDR_RESETN*%
X94030000Y-92000000D03*
X97600000Y-87730000D03*
%TO.N,/DDR/DDR_CSN*%
X95157400Y-77326585D03*
X96037400Y-90906585D03*
%TO.N,/DDR/DDR_A13*%
X92420000Y-82120000D03*
X93580000Y-91690000D03*
%TO.N,/DDR/DDR_DQS0_N*%
X90790000Y-89100000D03*
X98093293Y-70563293D03*
%TO.N,/DDR/DDR_CLK_N*%
X99110000Y-76510000D03*
X97392400Y-89050000D03*
%TO.N,/DDR/DDR_DQ3*%
X94347400Y-70106585D03*
X89300000Y-87300000D03*
%TO.N,/DDR/DDR_A10*%
X98842400Y-89191585D03*
X99187400Y-78136585D03*
%TO.N,/DDR/DDR_A3*%
X94390000Y-78890000D03*
X94490000Y-90090000D03*
%TO.N,SYS_I2C4_SDA*%
X102430000Y-95785000D03*
X76390000Y-100935000D03*
X85600000Y-100250000D03*
%TO.N,/DDR/DDR_CASN*%
X96867400Y-90886585D03*
X95990000Y-76500000D03*
%TO.N,SDMMC1_CMD*%
X86500000Y-97050000D03*
X70390000Y-78065000D03*
%TO.N,/DDR/DDR_A8*%
X102030000Y-82450000D03*
X101667400Y-91716585D03*
%TO.N,/DDR/DDR_ODT*%
X95490000Y-89090000D03*
X94367400Y-77316585D03*
%TO.N,/DDR/DDR_A12*%
X98477400Y-90916585D03*
X99165000Y-78915000D03*
%TO.N,/DDR/DDR_A11*%
X99267400Y-90091585D03*
X99890000Y-82760000D03*
%TO.N,SDMMC1_CK*%
X70390000Y-75865000D03*
X91250000Y-97325000D03*
%TO.N,/DDR/DDR_CLK_P*%
X97942400Y-89050000D03*
X98440000Y-76520000D03*
%TO.N,/DDR/DDR_BA2*%
X95137400Y-78086585D03*
X96027400Y-91756585D03*
%TO.N,/DDR/DDR_DQ5*%
X93570000Y-88260000D03*
X99987400Y-71696585D03*
%TO.N,/DDR/DDR_CKE*%
X101800000Y-77550001D03*
X100517400Y-89060000D03*
%TO.N,/DDR/DDR_DQ0*%
X94390000Y-71690000D03*
X89460000Y-92040000D03*
%TO.N,/DDR/DDR_BA1*%
X100900000Y-79660000D03*
X99292400Y-90916585D03*
%TO.N,SDMMC1_D3*%
X90450000Y-95735000D03*
X81750000Y-86900000D03*
X70390000Y-79165000D03*
X73580000Y-86800000D03*
%TO.N,/DDR/DDR_A2*%
X95240000Y-90940000D03*
X95140000Y-79740000D03*
%TO.N,PMIC_WAKEUP*%
X97700000Y-102950000D03*
X79570000Y-101490000D03*
%TO.N,SDMMC3_D3*%
X78330000Y-124260000D03*
X90480000Y-102120000D03*
%TO.N,SDMMC3_CK*%
X89260000Y-103350000D03*
X77350000Y-121580000D03*
%TO.N,UART8_TX_STM*%
X66850000Y-126400000D03*
X90420000Y-104560000D03*
%TO.N,UART8_RX_STM*%
X91280000Y-102100000D03*
X67390000Y-127730000D03*
%TO.N,UART8_CTS_STM*%
X88760000Y-111310000D03*
X65750000Y-126400000D03*
X92870000Y-104510000D03*
%TO.N,UART8_RTS_STM*%
X92080000Y-102900000D03*
X66280000Y-127720000D03*
%TO.N,2V8*%
X79850000Y-67300000D03*
X92650000Y-67000000D03*
X70245000Y-109010000D03*
%TO.N,unconnected-(C214-Pad2)*%
X70245000Y-104435000D03*
%TO.N,1V8*%
X99210000Y-61700000D03*
X70245000Y-107135000D03*
X98000000Y-65900000D03*
X80650000Y-67300000D03*
X105460000Y-61830000D03*
%TO.N,Net-(J501-VDD)*%
X70100000Y-76965000D03*
X70650000Y-76965000D03*
%TO.N,Net-(D601-K)*%
X101810000Y-105440000D03*
X103100000Y-109050000D03*
%TO.N,Net-(D602-K)*%
X102200000Y-109070000D03*
X100870000Y-104430000D03*
%TO.N,DSI_CK_P*%
X87515545Y-81075545D03*
X85985000Y-83470000D03*
%TO.N,DSI_CK_N*%
X87904455Y-81464455D03*
X86535000Y-83470000D03*
%TO.N,/MPU_PWR/VDDA*%
X98470000Y-102110000D03*
X99310000Y-102960000D03*
X101320000Y-104820000D03*
%TO.N,I2S2_SDI*%
X92080000Y-97310000D03*
%TO.N,I2S2_WS*%
X92080000Y-98120000D03*
%TO.N,I2S2_CK*%
X91250000Y-98100000D03*
%TO.N,I2S3_SDO*%
X69030000Y-126390000D03*
X88900000Y-98620000D03*
%TO.N,I2S3_CK*%
X70140000Y-125320000D03*
X88460000Y-99070000D03*
%TO.N,I2S3_SDI*%
X90480000Y-98120000D03*
X70130000Y-126410000D03*
%TO.N,I2S3_WS*%
X91280000Y-99690000D03*
X69040000Y-125320000D03*
%TO.N,USB_M_D+*%
X101230000Y-120720000D03*
X102120000Y-120770000D03*
X101980000Y-120130000D03*
%TO.N,USB_M_D-*%
X101240000Y-121290000D03*
X102530000Y-120130000D03*
X102110000Y-121290000D03*
%TO.N,UART7_RX_STM*%
X108890000Y-100550000D03*
X107630000Y-105940000D03*
X102460000Y-97310000D03*
%TO.N,UART7_TX_STM*%
X109130000Y-108060000D03*
X102430000Y-96460000D03*
X105700000Y-99710000D03*
X108880000Y-102110000D03*
%TO.N,SYS_I2C6_SCL*%
X107320000Y-100700000D03*
X104070000Y-91720000D03*
X107270000Y-103070000D03*
X105660000Y-106970000D03*
%TO.N,SYS_I2C6_SDA*%
X105960000Y-100730000D03*
X103270000Y-92520000D03*
%TO.N,FDCAN2_TX*%
X105370000Y-100910000D03*
X101700000Y-94930000D03*
%TO.N,FDCAN2_RX*%
X104070000Y-101320000D03*
%TO.N,ETH1_TXD1*%
X102460000Y-98090000D03*
%TO.N,ETH1_CRS_DV*%
X102470000Y-100520000D03*
%TO.N,ETH1_TXD0*%
X103270000Y-103700000D03*
%TO.N,ETH1_RXD1*%
X104050000Y-102090000D03*
%TO.N,ETH1_MDC*%
X104040000Y-102940000D03*
%TO.N,ETH1_REF_CLK*%
X103270000Y-102100000D03*
%TO.N,SPI5_SCK*%
X105430000Y-98140000D03*
%TO.N,SPI5_MISO*%
X103250000Y-97290000D03*
%TO.N,SPI5_MOSI*%
X109320000Y-105980000D03*
X108880000Y-101370000D03*
X105760000Y-97730000D03*
%TO.N,Net-(U202-~{RST})*%
X97780000Y-115560000D03*
X77300000Y-100970000D03*
X91500000Y-109660000D03*
%TO.N,Net-(U901A-CONFIG0)*%
X71500000Y-120400000D03*
%TO.N,/LCD/LED_A*%
X76100000Y-67500000D03*
X68900000Y-67500000D03*
%TO.N,/LCD/TP_INT*%
X97760000Y-64000000D03*
%TO.N,/LCD/RESET*%
X105470000Y-64320000D03*
X81200000Y-66600000D03*
%TO.N,/LCD/LED_K*%
X78800000Y-66600000D03*
X69674999Y-61585343D03*
%TO.N,/LCD/TP_RES*%
X98570000Y-64510000D03*
%TO.N,LCD_RST*%
X109150000Y-95500000D03*
X105085000Y-98565000D03*
%TO.N,LCD_TP_INTR*%
X108450000Y-94450000D03*
X105750000Y-96850000D03*
%TO.N,LCD_BL_PWM*%
X65500000Y-66400000D03*
X104050000Y-97350000D03*
%TO.N,Net-(U1001-FB)*%
X69000000Y-61600000D03*
X67130000Y-62324999D03*
%TO.N,LCD_TP_RST*%
X108350000Y-93600000D03*
X104050000Y-96500000D03*
%TO.N,1V8_WIFI*%
X66900000Y-110510000D03*
X74200000Y-115500000D03*
X67500000Y-111100000D03*
X73800000Y-114900000D03*
X66900000Y-111100000D03*
X73990000Y-119260000D03*
X73500000Y-118800000D03*
X73850000Y-116600000D03*
X69940000Y-114500000D03*
%TO.N,1V8_WIFI_EN*%
X88300000Y-111980000D03*
X63620000Y-113350000D03*
X92870000Y-102910000D03*
%TO.N,WIFI_PDn*%
X83570000Y-105760000D03*
X89680000Y-100510000D03*
%TO.N,Net-(U901A-PDN)*%
X64680000Y-120880000D03*
X65330000Y-116610000D03*
%TO.N,WLAN_WAKE_HOST*%
X75360000Y-115890000D03*
X67250000Y-124000000D03*
%TO.N,BT_WAKE_HOST*%
X70870000Y-124040000D03*
X79200000Y-124800000D03*
%TO.N,BT_RESET*%
X88630000Y-101700000D03*
X75490000Y-114610000D03*
X65740000Y-124140000D03*
X91230000Y-101380000D03*
%TO.N,WLAN_RESET*%
X75700000Y-115400000D03*
X90540000Y-102880000D03*
X89620000Y-104500000D03*
X66640000Y-124000000D03*
%TO.N,WLAN_DEV_WAKE*%
X65720000Y-125310000D03*
X87780000Y-101010000D03*
X76390000Y-114180000D03*
X91310000Y-100520000D03*
%TO.N,MOD_ADC9{slash}TIM3_CH3*%
X105410000Y-107990000D03*
%TD*%
D15*
%TO.N,VDD_USB*%
X89610000Y-98880000D02*
X88640000Y-99850000D01*
X88640000Y-99850000D02*
X87800000Y-99850000D01*
X84890000Y-102760000D02*
X80040000Y-102760000D01*
X104910000Y-93175000D02*
X104910000Y-97620000D01*
X104910000Y-97620000D02*
X103650000Y-98880000D01*
X79220000Y-103580000D02*
X79220000Y-104562500D01*
X104930000Y-93155000D02*
X104910000Y-93175000D01*
X87800000Y-99850000D02*
X84890000Y-102760000D01*
X103650000Y-98880000D02*
X89610000Y-98880000D01*
X80040000Y-102760000D02*
X79220000Y-103580000D01*
D16*
%TO.N,3V3*%
X85250000Y-113300000D02*
X75455000Y-113300000D01*
X102380000Y-108050000D02*
X101810000Y-108620000D01*
X96405000Y-110405000D02*
X88145000Y-110405000D01*
X101810000Y-108620000D02*
X98190000Y-108620000D01*
X98190000Y-108620000D02*
X96405000Y-110405000D01*
X75455000Y-113300000D02*
X74790000Y-112635000D01*
X103080000Y-108050000D02*
X102380000Y-108050000D01*
X88145000Y-110405000D02*
X85250000Y-113300000D01*
D15*
%TO.N,VIN*%
X101300000Y-112500000D02*
X96900000Y-112500000D01*
X104820000Y-108980000D02*
X101300000Y-112500000D01*
X90350000Y-120500000D02*
X90350000Y-119700000D01*
X96900000Y-112500000D02*
X90350000Y-119050000D01*
X90350000Y-119050000D02*
X90350000Y-119700000D01*
X105652500Y-108980000D02*
X104820000Y-108980000D01*
D17*
%TO.N,PWR_ON*%
X77905000Y-101655000D02*
X77320000Y-102240000D01*
X94030000Y-109320000D02*
X94000000Y-109290000D01*
X94000000Y-109290000D02*
X94000000Y-107930000D01*
X79240000Y-107930000D02*
X94590000Y-107930000D01*
X94590000Y-107930000D02*
X97770000Y-104750000D01*
X77320000Y-106010000D02*
X79240000Y-107930000D01*
X97770000Y-104750000D02*
X97800000Y-104750000D01*
X77320000Y-102240000D02*
X77320000Y-106010000D01*
%TO.N,UART4_RX_STM*%
X107840000Y-99230000D02*
X107840000Y-95800000D01*
X107840000Y-95800000D02*
X107130000Y-95090000D01*
X107130000Y-95090000D02*
X107130000Y-94460000D01*
X107560000Y-99510000D02*
X107840000Y-99230000D01*
%TO.N,PMIC_PA0_WKUP_INTR*%
X78470000Y-101430000D02*
X78470000Y-101890000D01*
X77905000Y-101005000D02*
X78045000Y-101005000D01*
X100750000Y-103480000D02*
X101095000Y-103480000D01*
X101095000Y-103480000D02*
X101675000Y-102900000D01*
X77880000Y-105780000D02*
X79340000Y-107240000D01*
X78470000Y-101890000D02*
X77880000Y-102480000D01*
X79340000Y-107240000D02*
X92780000Y-107240000D01*
X77880000Y-102480000D02*
X77880000Y-105780000D01*
X92780000Y-107240000D02*
X95710000Y-104310000D01*
X95710000Y-104310000D02*
X98730000Y-104310000D01*
X99770000Y-103270000D02*
X100540000Y-103270000D01*
X98730000Y-104310000D02*
X99770000Y-103270000D01*
X100540000Y-103270000D02*
X100750000Y-103480000D01*
X78045000Y-101005000D02*
X78470000Y-101430000D01*
%TO.N,SYS_I2C4_SCL*%
X78650000Y-100650000D02*
X84600000Y-100650000D01*
X102910000Y-96890000D02*
X102160000Y-96890000D01*
X93170000Y-97100000D02*
X92570000Y-97700000D01*
X103250000Y-96550000D02*
X102910000Y-96890000D01*
X101950000Y-97100000D02*
X93170000Y-97100000D01*
X102160000Y-96890000D02*
X101950000Y-97100000D01*
X85900000Y-100650000D02*
X84600000Y-100650000D01*
X88850000Y-97700000D02*
X85900000Y-100650000D01*
X92570000Y-97700000D02*
X88850000Y-97700000D01*
X75990000Y-100535000D02*
X78535000Y-100535000D01*
X78535000Y-100535000D02*
X78650000Y-100650000D01*
%TO.N,SYS_I2C4_SDA*%
X85390000Y-100250000D02*
X85600000Y-100250000D01*
X90615000Y-97135000D02*
X88715000Y-97135000D01*
X102365000Y-95785000D02*
X102050000Y-96100000D01*
X74900000Y-100500000D02*
X75350000Y-100050000D01*
X88715000Y-97135000D02*
X85600000Y-100250000D01*
X85190000Y-100050000D02*
X85390000Y-100250000D01*
X75200000Y-101500000D02*
X74900000Y-101200000D01*
X101250000Y-95900000D02*
X92650000Y-95900000D01*
X102050000Y-96100000D02*
X101450000Y-96100000D01*
X76390000Y-100935000D02*
X75825000Y-101500000D01*
X91650000Y-96100000D02*
X90615000Y-97135000D01*
X92650000Y-95900000D02*
X92450000Y-96100000D01*
X74900000Y-101200000D02*
X74900000Y-100500000D01*
X101450000Y-96100000D02*
X101250000Y-95900000D01*
X75350000Y-100050000D02*
X85190000Y-100050000D01*
X92450000Y-96100000D02*
X91650000Y-96100000D01*
X75825000Y-101500000D02*
X75200000Y-101500000D01*
%TO.N,PMIC_WAKEUP*%
X92570000Y-106500000D02*
X79380000Y-106500000D01*
X79550000Y-101490000D02*
X79570000Y-101490000D01*
X78470000Y-105590000D02*
X78470000Y-102570000D01*
X78470000Y-102570000D02*
X79550000Y-101490000D01*
X97270000Y-102520000D02*
X96550000Y-102520000D01*
X97700000Y-102950000D02*
X97270000Y-102520000D01*
X79380000Y-106500000D02*
X78470000Y-105590000D01*
X96550000Y-102520000D02*
X92570000Y-106500000D01*
%TO.N,UART8_CTS_STM*%
X72540000Y-127130000D02*
X73190000Y-127780000D01*
X65750000Y-126400000D02*
X66480000Y-127130000D01*
X80800000Y-126810000D02*
X80800000Y-121340000D01*
X80800000Y-121340000D02*
X89030000Y-113110000D01*
X79830000Y-127780000D02*
X80800000Y-126810000D01*
X66480000Y-127130000D02*
X72540000Y-127130000D01*
X73190000Y-127780000D02*
X79830000Y-127780000D01*
X89030000Y-111580000D02*
X88760000Y-111310000D01*
X89030000Y-113110000D02*
X89030000Y-111580000D01*
D16*
%TO.N,Net-(U4A-VBAT)*%
X90590000Y-105990000D02*
X92210000Y-105990000D01*
X95260000Y-102940000D02*
X95260000Y-102920000D01*
X92210000Y-105990000D02*
X95260000Y-102940000D01*
D17*
%TO.N,UART7_RX_STM*%
X108950000Y-100550000D02*
X109410000Y-101010000D01*
X109410000Y-101010000D02*
X109410000Y-104160000D01*
X109410000Y-104160000D02*
X107630000Y-105940000D01*
X108890000Y-100550000D02*
X108950000Y-100550000D01*
%TO.N,UART7_TX_STM*%
X107190000Y-102110000D02*
X108880000Y-102110000D01*
X104830000Y-100580000D02*
X104830000Y-102420000D01*
X104830000Y-102420000D02*
X105470000Y-103060000D01*
X105700000Y-99710000D02*
X104830000Y-100580000D01*
X105470000Y-103060000D02*
X106240000Y-103060000D01*
X106240000Y-103060000D02*
X107190000Y-102110000D01*
%TO.N,SYS_I2C6_SCL*%
X106820000Y-95450000D02*
X106820000Y-100200000D01*
X106210000Y-94840000D02*
X106820000Y-95450000D01*
X104510000Y-92110000D02*
X105580000Y-92110000D01*
X106820000Y-100200000D02*
X107320000Y-100700000D01*
X104120000Y-91720000D02*
X104510000Y-92110000D01*
X105580000Y-92110000D02*
X106210000Y-92740000D01*
X106210000Y-92740000D02*
X106210000Y-94840000D01*
X104070000Y-91720000D02*
X104120000Y-91720000D01*
%TO.N,SYS_I2C6_SDA*%
X106270000Y-95860000D02*
X106270000Y-100420000D01*
X103270000Y-92520000D02*
X103350000Y-92600000D01*
X106270000Y-100420000D02*
X105960000Y-100730000D01*
X105280000Y-92600000D02*
X105635000Y-92955000D01*
X105635000Y-92955000D02*
X105635000Y-95225000D01*
X105635000Y-95225000D02*
X106270000Y-95860000D01*
X103350000Y-92600000D02*
X105280000Y-92600000D01*
%TO.N,Net-(U202-~{RST})*%
X76810000Y-101460000D02*
X76810000Y-106310000D01*
X76810000Y-106310000D02*
X80160000Y-109660000D01*
X77300000Y-100970000D02*
X76810000Y-101460000D01*
X80160000Y-109660000D02*
X91500000Y-109660000D01*
%TO.N,1V8_WIFI_EN*%
X64550000Y-113350000D02*
X68000000Y-116800000D01*
X63620000Y-113350000D02*
X64550000Y-113350000D01*
X77000000Y-116200000D02*
X77040000Y-116200000D01*
X71700000Y-116800000D02*
X72100000Y-117200000D01*
X79310000Y-113930000D02*
X86280000Y-113930000D01*
X86280000Y-113930000D02*
X88230000Y-111980000D01*
X88230000Y-111980000D02*
X88300000Y-111980000D01*
X76000000Y-117200000D02*
X77000000Y-116200000D01*
X77040000Y-116200000D02*
X79310000Y-113930000D01*
X72100000Y-117200000D02*
X76000000Y-117200000D01*
X68000000Y-116800000D02*
X71700000Y-116800000D01*
%TO.N,WIFI_PDn*%
X89680000Y-100510000D02*
X89090000Y-101100000D01*
X89090000Y-102060000D02*
X85390000Y-105760000D01*
X89090000Y-101100000D02*
X89090000Y-102060000D01*
X85390000Y-105760000D02*
X83570000Y-105760000D01*
%TO.N,WLAN_DEV_WAKE*%
X87780000Y-101010000D02*
X88360000Y-101010000D01*
X90840000Y-100050000D02*
X91310000Y-100520000D01*
X88360000Y-101010000D02*
X89320000Y-100050000D01*
X89320000Y-100050000D02*
X90840000Y-100050000D01*
%TD*%
%TA.AperFunction,Conductor*%
%TO.N,3V3*%
G36*
X75029880Y-113016302D02*
G01*
X75171302Y-112874880D01*
X74956294Y-112588886D01*
X74789293Y-112699293D01*
X74678886Y-112866294D01*
X75029880Y-113016302D01*
G37*
%TD.AperFunction*%
%TD*%
%TA.AperFunction,Conductor*%
%TO.N,3V3*%
G36*
X102683843Y-107950000D02*
G01*
X102683843Y-108150000D01*
X103040982Y-108246157D01*
X103081000Y-108050000D01*
X103040982Y-107853843D01*
X102683843Y-107950000D01*
G37*
%TD.AperFunction*%
%TD*%
%TA.AperFunction,Conductor*%
%TO.N,PWR_ON*%
G36*
X77583014Y-101893264D02*
G01*
X77666736Y-101976986D01*
X78016114Y-101821294D01*
X77905707Y-101654293D01*
X77738706Y-101543886D01*
X77583014Y-101893264D01*
G37*
%TD.AperFunction*%
%TD*%
%TA.AperFunction,Conductor*%
%TO.N,PWR_ON*%
G36*
X94059200Y-108923843D02*
G01*
X93940800Y-108923843D01*
X93833843Y-109280982D01*
X94030000Y-109321000D01*
X94196294Y-109208886D01*
X94059200Y-108923843D01*
G37*
%TD.AperFunction*%
%TD*%
%TA.AperFunction,Conductor*%
%TO.N,PWR_ON*%
G36*
X97463014Y-104973264D02*
G01*
X97546736Y-105056986D01*
X97839018Y-104946157D01*
X97800707Y-104749293D01*
X97633706Y-104638886D01*
X97463014Y-104973264D01*
G37*
%TD.AperFunction*%
%TD*%
%TA.AperFunction,Conductor*%
%TO.N,UART4_RX_STM*%
G36*
X107070800Y-94856157D02*
G01*
X107189200Y-94856157D01*
X107326157Y-94499018D01*
X107130000Y-94459000D01*
X106933843Y-94499018D01*
X107070800Y-94856157D01*
G37*
%TD.AperFunction*%
%TD*%
%TA.AperFunction,Conductor*%
%TO.N,UART4_RX_STM*%
G36*
X107899200Y-99229823D02*
G01*
X107780800Y-99229823D01*
X107520982Y-99313843D01*
X107560000Y-99511000D01*
X107726294Y-99621114D01*
X107899200Y-99229823D01*
G37*
%TD.AperFunction*%
%TD*%
%TA.AperFunction,Conductor*%
%TO.N,PMIC_PA0_WKUP_INTR*%
G36*
X101353014Y-103138264D02*
G01*
X101436736Y-103221986D01*
X101786114Y-103066294D01*
X101675707Y-102899293D01*
X101508706Y-102788886D01*
X101353014Y-103138264D01*
G37*
%TD.AperFunction*%
%TD*%
%TA.AperFunction,Conductor*%
%TO.N,PMIC_PA0_WKUP_INTR*%
G36*
X78195697Y-101239419D02*
G01*
X78279419Y-101155697D01*
X78071294Y-100893886D01*
X77904293Y-101004293D01*
X77865982Y-101201157D01*
X78195697Y-101239419D01*
G37*
%TD.AperFunction*%
%TD*%
%TA.AperFunction,Conductor*%
%TO.N,SYS_I2C4_SCL*%
G36*
X84203843Y-100590800D02*
G01*
X84203843Y-100709200D01*
X84560982Y-100846157D01*
X84601000Y-100650000D01*
X84560982Y-100453843D01*
X84203843Y-100590800D01*
G37*
%TD.AperFunction*%
%TD*%
%TA.AperFunction,Conductor*%
%TO.N,SYS_I2C4_SCL*%
G36*
X102938014Y-96778264D02*
G01*
X103021736Y-96861986D01*
X103309018Y-96746157D01*
X103270707Y-96549293D01*
X103103706Y-96438886D01*
X102938014Y-96778264D01*
G37*
%TD.AperFunction*%
%TD*%
%TA.AperFunction,Conductor*%
%TO.N,SYS_I2C4_SCL*%
G36*
X84996157Y-100709200D02*
G01*
X84996157Y-100590800D01*
X84639018Y-100453843D01*
X84599000Y-100650000D01*
X84639018Y-100846157D01*
X84996157Y-100709200D01*
G37*
%TD.AperFunction*%
%TD*%
%TA.AperFunction,Conductor*%
%TO.N,SYS_I2C4_SCL*%
G36*
X76386157Y-100594200D02*
G01*
X76386157Y-100475800D01*
X76029018Y-100338843D01*
X75989000Y-100535000D01*
X76029018Y-100731157D01*
X76386157Y-100594200D01*
G37*
%TD.AperFunction*%
%TD*%
%TA.AperFunction,Conductor*%
%TO.N,SYS_I2C4_SDA*%
G36*
X85300228Y-100076507D02*
G01*
X85216507Y-100160228D01*
X85488886Y-100416294D01*
X85600707Y-100250707D01*
X85560982Y-100053843D01*
X85300228Y-100076507D01*
G37*
%TD.AperFunction*%
%TD*%
%TA.AperFunction,Conductor*%
%TO.N,SYS_I2C4_SDA*%
G36*
X102077548Y-95988730D02*
G01*
X102161270Y-96072452D01*
X102469018Y-95981157D01*
X102430707Y-95784293D01*
X102263706Y-95673886D01*
X102077548Y-95988730D01*
G37*
%TD.AperFunction*%
%TD*%
%TA.AperFunction,Conductor*%
%TO.N,SYS_I2C4_SDA*%
G36*
X85921986Y-100011736D02*
G01*
X85838264Y-99928014D01*
X85488886Y-100083706D01*
X85599293Y-100250707D01*
X85766294Y-100361114D01*
X85921986Y-100011736D01*
G37*
%TD.AperFunction*%
%TD*%
%TA.AperFunction,Conductor*%
%TO.N,SYS_I2C4_SDA*%
G36*
X76068014Y-101173264D02*
G01*
X76151736Y-101256986D01*
X76501114Y-101101294D01*
X76390707Y-100934293D01*
X76223706Y-100823886D01*
X76068014Y-101173264D01*
G37*
%TD.AperFunction*%
%TD*%
%TA.AperFunction,Conductor*%
%TO.N,PMIC_WAKEUP*%
G36*
X79238014Y-101718264D02*
G01*
X79321736Y-101801986D01*
X79609018Y-101686157D01*
X79570707Y-101489293D01*
X79403706Y-101378886D01*
X79238014Y-101718264D01*
G37*
%TD.AperFunction*%
%TD*%
%TA.AperFunction,Conductor*%
%TO.N,PMIC_WAKEUP*%
G36*
X97461736Y-102628014D02*
G01*
X97378014Y-102711736D01*
X97533706Y-103061114D01*
X97700707Y-102950707D01*
X97811114Y-102783706D01*
X97461736Y-102628014D01*
G37*
%TD.AperFunction*%
%TD*%
%TA.AperFunction,Conductor*%
%TO.N,UART8_CTS_STM*%
G36*
X65988264Y-126721986D02*
G01*
X66071986Y-126638264D01*
X65916294Y-126288886D01*
X65749293Y-126399293D01*
X65638886Y-126566294D01*
X65988264Y-126721986D01*
G37*
%TD.AperFunction*%
%TD*%
%TA.AperFunction,Conductor*%
%TO.N,UART8_CTS_STM*%
G36*
X88970800Y-111594319D02*
G01*
X89089200Y-111594319D01*
X88956157Y-111270982D01*
X88760000Y-111309000D01*
X88720982Y-111506157D01*
X88970800Y-111594319D01*
G37*
%TD.AperFunction*%
%TD*%
%TA.AperFunction,Conductor*%
%TO.N,Net-(U4A-VBAT)*%
G36*
X90976157Y-106090000D02*
G01*
X90976157Y-105890000D01*
X90619018Y-105783843D01*
X90579000Y-105980000D01*
X90619018Y-106176157D01*
X90976157Y-106090000D01*
G37*
%TD.AperFunction*%
%TD*%
%TA.AperFunction,Conductor*%
%TO.N,Net-(U4A-VBAT)*%
G36*
X94919164Y-103139414D02*
G01*
X95060586Y-103280836D01*
X95371114Y-103086294D01*
X95260707Y-102919293D01*
X95093706Y-102808886D01*
X94919164Y-103139414D01*
G37*
%TD.AperFunction*%
%TD*%
%TA.AperFunction,Conductor*%
%TO.N,UART7_RX_STM*%
G36*
X109157266Y-100840988D02*
G01*
X109240988Y-100757266D01*
X109056294Y-100438886D01*
X108889293Y-100549293D01*
X108850982Y-100746157D01*
X109157266Y-100840988D01*
G37*
%TD.AperFunction*%
%TD*%
%TA.AperFunction,Conductor*%
%TO.N,UART7_RX_STM*%
G36*
X107951986Y-105701736D02*
G01*
X107868264Y-105618014D01*
X107518886Y-105773706D01*
X107629293Y-105940707D01*
X107796294Y-106051114D01*
X107951986Y-105701736D01*
G37*
%TD.AperFunction*%
%TD*%
%TA.AperFunction,Conductor*%
%TO.N,UART7_TX_STM*%
G36*
X108483843Y-102050800D02*
G01*
X108483843Y-102169200D01*
X108840982Y-102306157D01*
X108881000Y-102110000D01*
X108840982Y-101913843D01*
X108483843Y-102050800D01*
G37*
%TD.AperFunction*%
%TD*%
%TA.AperFunction,Conductor*%
%TO.N,UART7_TX_STM*%
G36*
X105378014Y-99948264D02*
G01*
X105461736Y-100031986D01*
X105811114Y-99876294D01*
X105700707Y-99709293D01*
X105533706Y-99598886D01*
X105378014Y-99948264D01*
G37*
%TD.AperFunction*%
%TD*%
%TA.AperFunction,Conductor*%
%TO.N,SYS_I2C6_SCL*%
G36*
X107081736Y-100378014D02*
G01*
X106998014Y-100461736D01*
X107153706Y-100811114D01*
X107320707Y-100700707D01*
X107431114Y-100533706D01*
X107081736Y-100378014D01*
G37*
%TD.AperFunction*%
%TD*%
%TA.AperFunction,Conductor*%
%TO.N,SYS_I2C6_SCL*%
G36*
X104333264Y-92016986D02*
G01*
X104416986Y-91933264D01*
X104236294Y-91608886D01*
X104069293Y-91719293D01*
X104030982Y-91916157D01*
X104333264Y-92016986D01*
G37*
%TD.AperFunction*%
%TD*%
%TA.AperFunction,Conductor*%
%TO.N,SYS_I2C6_SDA*%
G36*
X106281986Y-100491736D02*
G01*
X106198264Y-100408014D01*
X105848886Y-100563706D01*
X105959293Y-100730707D01*
X106126294Y-100841114D01*
X106281986Y-100491736D01*
G37*
%TD.AperFunction*%
%TD*%
%TA.AperFunction,Conductor*%
%TO.N,SYS_I2C6_SDA*%
G36*
X103649182Y-92659200D02*
G01*
X103649182Y-92540800D01*
X103381114Y-92353706D01*
X103269000Y-92520000D01*
X103309018Y-92716157D01*
X103649182Y-92659200D01*
G37*
%TD.AperFunction*%
%TD*%
%TA.AperFunction,Conductor*%
%TO.N,Net-(U202-~{RST})*%
G36*
X76978014Y-101208264D02*
G01*
X77061736Y-101291986D01*
X77411114Y-101136294D01*
X77300707Y-100969293D01*
X77133706Y-100858886D01*
X76978014Y-101208264D01*
G37*
%TD.AperFunction*%
%TD*%
%TA.AperFunction,Conductor*%
%TO.N,Net-(U202-~{RST})*%
G36*
X91103843Y-109600800D02*
G01*
X91103843Y-109719200D01*
X91460982Y-109856157D01*
X91501000Y-109660000D01*
X91460982Y-109463843D01*
X91103843Y-109600800D01*
G37*
%TD.AperFunction*%
%TD*%
%TA.AperFunction,Conductor*%
%TO.N,1V8_WIFI_EN*%
G36*
X64016157Y-113409200D02*
G01*
X64016157Y-113290800D01*
X63659018Y-113153843D01*
X63619000Y-113350000D01*
X63659018Y-113546157D01*
X64016157Y-113409200D01*
G37*
%TD.AperFunction*%
%TD*%
%TA.AperFunction,Conductor*%
%TO.N,1V8_WIFI_EN*%
G36*
X87946083Y-112180195D02*
G01*
X88029805Y-112263917D01*
X88339018Y-112176157D01*
X88300707Y-111979293D01*
X88133706Y-111868886D01*
X87946083Y-112180195D01*
G37*
%TD.AperFunction*%
%TD*%
%TA.AperFunction,Conductor*%
%TO.N,WIFI_PDn*%
G36*
X89358014Y-100748264D02*
G01*
X89441736Y-100831986D01*
X89791114Y-100676294D01*
X89680707Y-100509293D01*
X89513706Y-100398886D01*
X89358014Y-100748264D01*
G37*
%TD.AperFunction*%
%TD*%
%TA.AperFunction,Conductor*%
%TO.N,WIFI_PDn*%
G36*
X83966157Y-105819200D02*
G01*
X83966157Y-105700800D01*
X83609018Y-105563843D01*
X83569000Y-105760000D01*
X83609018Y-105956157D01*
X83966157Y-105819200D01*
G37*
%TD.AperFunction*%
%TD*%
%TA.AperFunction,Conductor*%
%TO.N,WLAN_DEV_WAKE*%
G36*
X88176157Y-101069200D02*
G01*
X88176157Y-100950800D01*
X87819018Y-100813843D01*
X87779000Y-101010000D01*
X87819018Y-101206157D01*
X88176157Y-101069200D01*
G37*
%TD.AperFunction*%
%TD*%
%TA.AperFunction,Conductor*%
%TO.N,WLAN_DEV_WAKE*%
G36*
X91071736Y-100198014D02*
G01*
X90988014Y-100281736D01*
X91143706Y-100631114D01*
X91310707Y-100520707D01*
X91421114Y-100353706D01*
X91071736Y-100198014D01*
G37*
%TD.AperFunction*%
%TD*%
M02*
